G04 #@! TF.GenerationSoftware,KiCad,Pcbnew,(5.1.5-0-10_14)*
G04 #@! TF.CreationDate,2020-03-27T08:13:01-07:00*
G04 #@! TF.ProjectId,ravenna,72617665-6e6e-4612-9e6b-696361645f70,rev?*
G04 #@! TF.SameCoordinates,Original*
G04 #@! TF.FileFunction,Copper,L2,Inr*
G04 #@! TF.FilePolarity,Positive*
%FSLAX46Y46*%
G04 Gerber Fmt 4.6, Leading zero omitted, Abs format (unit mm)*
G04 Created by KiCad (PCBNEW (5.1.5-0-10_14)) date 2020-03-27 08:13:01*
%MOMM*%
%LPD*%
G04 APERTURE LIST*
%ADD10O,1.700000X1.700000*%
%ADD11R,1.700000X1.700000*%
%ADD12O,1.200000X2.400000*%
%ADD13O,0.900000X1.800000*%
%ADD14C,0.800000*%
%ADD15C,0.756400*%
%ADD16C,0.203200*%
%ADD17C,0.152400*%
G04 APERTURE END LIST*
D10*
X158445100Y-133954600D03*
X158445100Y-131414600D03*
X158445100Y-128874600D03*
X158445100Y-126334600D03*
X158445100Y-123794600D03*
X158445100Y-121254600D03*
X158445100Y-118714600D03*
X158445100Y-116174600D03*
X158445100Y-113634600D03*
X158445100Y-111094600D03*
X158445100Y-108554600D03*
X158445100Y-106014600D03*
X158445100Y-103474600D03*
X158445100Y-100934600D03*
X158445100Y-98394600D03*
X158445100Y-95854600D03*
X158445100Y-93314600D03*
X158445100Y-90774600D03*
X158445100Y-88234600D03*
D11*
X158445100Y-85694600D03*
D10*
X138506200Y-133985000D03*
X138506200Y-131445000D03*
X138506200Y-128905000D03*
X138506200Y-126365000D03*
X138506200Y-123825000D03*
X138506200Y-121285000D03*
X138506200Y-118745000D03*
X138506200Y-116205000D03*
X138506200Y-113665000D03*
X138506200Y-111125000D03*
X138506200Y-108585000D03*
X138506200Y-106045000D03*
X138506200Y-103505000D03*
X138506200Y-100965000D03*
X138506200Y-98425000D03*
X138506200Y-95885000D03*
X138506200Y-93345000D03*
X138506200Y-90805000D03*
X138506200Y-88265000D03*
D11*
X138506200Y-85725000D03*
D10*
X154813000Y-121183400D03*
D11*
X154813000Y-123723400D03*
D12*
X152188000Y-86636000D03*
X144738000Y-86636000D03*
D13*
X152338000Y-82836000D03*
X144588000Y-82836000D03*
D11*
X154813000Y-131445000D03*
D10*
X154813000Y-133985000D03*
X152273000Y-131445000D03*
X152273000Y-133985000D03*
X149733000Y-131445000D03*
X149733000Y-133985000D03*
X147193000Y-131445000D03*
X147193000Y-133985000D03*
X144653000Y-131445000D03*
X144653000Y-133985000D03*
X142113000Y-131445000D03*
X142113000Y-133985000D03*
D14*
X149123400Y-117119400D03*
X148107400Y-113715800D03*
X142367000Y-87630000D03*
X142494000Y-114935000D03*
X143755469Y-117993688D03*
X143129000Y-123571000D03*
X155930600Y-94157800D03*
X150799800Y-88366600D03*
X149021800Y-88671400D03*
X148513800Y-126161800D03*
X148323469Y-115193455D03*
X146583400Y-115193455D03*
X144602200Y-105435400D03*
X155473400Y-104165400D03*
X149543090Y-108436402D03*
X143637000Y-102235000D03*
X147219666Y-99288600D03*
X157962600Y-82931000D03*
X150101469Y-121031000D03*
X140970000Y-88011000D03*
X144135820Y-100134401D03*
X148342400Y-99218798D03*
X147955000Y-111785400D03*
X147904200Y-98171000D03*
X146735800Y-105841800D03*
X147853400Y-95885000D03*
X154508200Y-94411800D03*
D15*
X146583400Y-107619800D03*
X148301081Y-107855526D03*
X145923000Y-106400600D03*
D14*
X148412200Y-127787400D03*
D15*
X145719800Y-108026200D03*
D14*
X150876000Y-92964000D03*
X148082000Y-89154000D03*
X144526000Y-120777000D03*
X143891000Y-121793000D03*
X153797000Y-128524000D03*
X140843000Y-122534056D03*
X146050000Y-120269000D03*
D15*
X151603081Y-108617526D03*
D14*
X139827000Y-132715000D03*
X152400000Y-119623539D03*
X152019000Y-120650000D03*
X142113000Y-129413000D03*
D15*
X153176988Y-112156397D03*
X152519672Y-112785658D03*
X150920062Y-110678048D03*
X151562681Y-110035430D03*
D14*
X153670000Y-111252000D03*
X152571350Y-109093000D03*
D15*
X152908000Y-110687150D03*
D14*
X141972986Y-105804014D03*
X139757210Y-94687048D03*
X142494000Y-113030000D03*
X150368000Y-105283000D03*
X145669000Y-104902000D03*
X142683283Y-110432060D03*
X150381402Y-94742000D03*
D15*
X145161000Y-110109000D03*
X148577469Y-121927255D03*
D14*
X143074852Y-93091000D03*
X152104200Y-102793800D03*
X156337000Y-91313000D03*
X151409400Y-129616200D03*
X146431000Y-88011000D03*
X144602200Y-101371400D03*
D16*
X143129000Y-118620157D02*
X143755469Y-117993688D01*
X143129000Y-123571000D02*
X143129000Y-118620157D01*
X148113801Y-126561799D02*
X148513800Y-126161800D01*
X147758199Y-128101321D02*
X147758199Y-126917401D01*
X148098279Y-128441401D02*
X147758199Y-128101321D01*
X151202523Y-128441401D02*
X148098279Y-128441401D01*
X152063401Y-129302279D02*
X151202523Y-128441401D01*
X147758199Y-126917401D02*
X148113801Y-126561799D01*
X152063401Y-129930121D02*
X152063401Y-129302279D01*
X151716922Y-130276600D02*
X152063401Y-129930121D01*
X145821400Y-130276600D02*
X151716922Y-130276600D01*
X144653000Y-131445000D02*
X145821400Y-130276600D01*
X149143091Y-112680109D02*
X148507399Y-113315801D01*
X148507399Y-113315801D02*
X148107400Y-113715800D01*
X149143091Y-108836401D02*
X149143091Y-112680109D01*
X149543090Y-108436402D02*
X149143091Y-108836401D01*
D17*
X154813000Y-124725800D02*
X154813000Y-123723400D01*
X157200600Y-127113400D02*
X154813000Y-124725800D01*
X157200600Y-132710100D02*
X157200600Y-127113400D01*
X158445100Y-133954600D02*
X157200600Y-132710100D01*
X138557000Y-88265000D02*
X139635601Y-89343601D01*
X139635601Y-92790454D02*
X139635601Y-91465400D01*
X152543151Y-105194615D02*
X152543151Y-104612085D01*
X151457232Y-104612085D02*
X139635601Y-92790454D01*
X151380610Y-106357156D02*
X152543151Y-105194615D01*
X148632953Y-106357156D02*
X151380610Y-106357156D01*
X146520599Y-107639899D02*
X147350210Y-107639899D01*
X139635601Y-91465400D02*
X139635601Y-91704535D01*
X147350210Y-107639899D02*
X148632953Y-106357156D01*
X152543151Y-104612085D02*
X151457232Y-104612085D01*
X139635601Y-89343601D02*
X139635601Y-91465400D01*
X150996601Y-105584729D02*
X150669729Y-105911601D01*
X150669729Y-105911601D02*
X148088399Y-105911601D01*
X150996601Y-104582520D02*
X150996601Y-105584729D01*
X139759081Y-93345000D02*
X150996601Y-104582520D01*
X138557000Y-93345000D02*
X139759081Y-93345000D01*
X153028601Y-122605314D02*
X148412200Y-127221715D01*
X148412200Y-127221715D02*
X148412200Y-127787400D01*
X153028601Y-115928671D02*
X153028601Y-122605314D01*
X147212001Y-115012317D02*
X147212001Y-110154053D01*
X148128355Y-115928671D02*
X147212001Y-115012317D01*
X153028601Y-115928671D02*
X148128355Y-115928671D01*
X146301199Y-106778799D02*
X145923000Y-106400600D01*
X147221201Y-106778799D02*
X146301199Y-106778799D01*
X148088399Y-105911601D02*
X147221201Y-106778799D01*
X146949587Y-110154053D02*
X147212001Y-110154053D01*
X144957800Y-108162266D02*
X146949587Y-110154053D01*
X144957800Y-107365800D02*
X144957800Y-108162266D01*
X145923000Y-106400600D02*
X144957800Y-107365800D01*
X150876000Y-91948000D02*
X148082000Y-89154000D01*
X150876000Y-92964000D02*
X150876000Y-91948000D01*
X146114399Y-135063601D02*
X146343001Y-134834999D01*
X139198399Y-132413271D02*
X139198399Y-133016729D01*
X146343001Y-134834999D02*
X147193000Y-133985000D01*
X139922189Y-131689481D02*
X139198399Y-132413271D01*
X139922189Y-128822609D02*
X139922189Y-131689481D01*
X140214399Y-128530399D02*
X139922189Y-128822609D01*
X141245271Y-135063601D02*
X146114399Y-135063601D01*
X139198399Y-133016729D02*
X141245271Y-135063601D01*
X140214399Y-105162399D02*
X140214399Y-128530399D01*
X138557000Y-103505000D02*
X140214399Y-105162399D01*
X140226999Y-132315001D02*
X139827000Y-132715000D01*
X140226999Y-129379659D02*
X140226999Y-132315001D01*
X141554000Y-128448000D02*
X140226999Y-129379659D01*
X141605000Y-126212600D02*
X141605000Y-128397000D01*
X148194061Y-119623539D02*
X141605000Y-126212600D01*
X141605000Y-128397000D02*
X141554000Y-128448000D01*
X152400000Y-119623539D02*
X148194061Y-119623539D01*
X143256000Y-129413000D02*
X152019000Y-120650000D01*
X142113000Y-129413000D02*
X143256000Y-129413000D01*
X157268899Y-104081709D02*
X156210000Y-105140608D01*
X157268899Y-102110801D02*
X157268899Y-104081709D01*
X158445100Y-100934600D02*
X157268899Y-102110801D01*
X156210000Y-105140608D02*
X156210000Y-110236000D01*
X154289603Y-112156397D02*
X153176988Y-112156397D01*
X156210000Y-110236000D02*
X154289603Y-112156397D01*
X152763735Y-112785658D02*
X152881077Y-112903000D01*
X152519672Y-112785658D02*
X152763735Y-112785658D01*
X152881077Y-112903000D02*
X154305000Y-112903000D01*
X154305000Y-112903000D02*
X156718000Y-110490000D01*
X156718000Y-105201700D02*
X158445100Y-103474600D01*
X156718000Y-110490000D02*
X156718000Y-105201700D01*
X153670000Y-103169700D02*
X158445100Y-98394600D01*
X153670000Y-111252000D02*
X153670000Y-103169700D01*
X152847961Y-98911739D02*
X157595101Y-94164599D01*
X152847961Y-108250704D02*
X152847961Y-98911739D01*
X152571350Y-108527315D02*
X152847961Y-108250704D01*
X157595101Y-94164599D02*
X158445100Y-93314600D01*
X152571350Y-109093000D02*
X152571350Y-108527315D01*
X153286199Y-101013501D02*
X153289000Y-101010700D01*
X153289000Y-101010700D02*
X158445100Y-95854600D01*
X153286199Y-110308951D02*
X153286199Y-101013501D01*
X152908000Y-110687150D02*
X153286199Y-110308951D01*
X141972986Y-96902824D02*
X141972986Y-105804014D01*
X139757210Y-94687048D02*
X141972986Y-96902824D01*
X142494000Y-113030000D02*
X142054682Y-112590682D01*
X142054682Y-107052588D02*
X142054682Y-107670600D01*
X144833871Y-104273399D02*
X142054682Y-107052588D01*
X142054682Y-112590682D02*
X142054682Y-107670600D01*
X150368000Y-105283000D02*
X149358399Y-104273399D01*
X149358399Y-104273399D02*
X144833871Y-104273399D01*
X142054682Y-107670600D02*
X142054682Y-107585988D01*
X142683283Y-110432060D02*
X142683283Y-108776717D01*
X145669000Y-105791000D02*
X145669000Y-104902000D01*
X142683283Y-108776717D02*
X145669000Y-105791000D01*
X143941800Y-129616200D02*
X151409400Y-129616200D01*
X142113000Y-131445000D02*
X143941800Y-129616200D01*
D16*
X141263001Y-129241723D02*
X148199270Y-122305454D01*
X141263001Y-130595001D02*
X141263001Y-129241723D01*
X148199270Y-122305454D02*
X148577469Y-121927255D01*
X142113000Y-131445000D02*
X141263001Y-130595001D01*
M02*
