G04 #@! TF.GenerationSoftware,KiCad,Pcbnew,(5.1.5-0-10_14)*
G04 #@! TF.CreationDate,2020-03-27T08:13:01-07:00*
G04 #@! TF.ProjectId,ravenna,72617665-6e6e-4612-9e6b-696361645f70,rev?*
G04 #@! TF.SameCoordinates,Original*
G04 #@! TF.FileFunction,Paste,Top*
G04 #@! TF.FilePolarity,Positive*
%FSLAX46Y46*%
G04 Gerber Fmt 4.6, Leading zero omitted, Abs format (unit mm)*
G04 Created by KiCad (PCBNEW (5.1.5-0-10_14)) date 2020-03-27 08:13:01*
%MOMM*%
%LPD*%
G04 APERTURE LIST*
%ADD10R,0.900000X1.000000*%
%ADD11R,1.700000X0.550000*%
%ADD12C,0.100000*%
%ADD13R,0.690000X0.990000*%
%ADD14R,0.800000X0.800000*%
%ADD15R,1.050000X0.600000*%
%ADD16R,1.701800X0.609600*%
%ADD17R,1.900000X0.400000*%
%ADD18R,0.450000X1.300000*%
G04 APERTURE END LIST*
D10*
X145737800Y-89852600D03*
X145737800Y-91452600D03*
X141637800Y-91452600D03*
X141637800Y-89852600D03*
D11*
X143687800Y-92077600D03*
D12*
G36*
X147433191Y-121319053D02*
G01*
X147454426Y-121322203D01*
X147475250Y-121327419D01*
X147495462Y-121334651D01*
X147514868Y-121343830D01*
X147533281Y-121354866D01*
X147550524Y-121367654D01*
X147566430Y-121382070D01*
X147580846Y-121397976D01*
X147593634Y-121415219D01*
X147604670Y-121433632D01*
X147613849Y-121453038D01*
X147621081Y-121473250D01*
X147626297Y-121494074D01*
X147629447Y-121515309D01*
X147630500Y-121536750D01*
X147630500Y-122049250D01*
X147629447Y-122070691D01*
X147626297Y-122091926D01*
X147621081Y-122112750D01*
X147613849Y-122132962D01*
X147604670Y-122152368D01*
X147593634Y-122170781D01*
X147580846Y-122188024D01*
X147566430Y-122203930D01*
X147550524Y-122218346D01*
X147533281Y-122231134D01*
X147514868Y-122242170D01*
X147495462Y-122251349D01*
X147475250Y-122258581D01*
X147454426Y-122263797D01*
X147433191Y-122266947D01*
X147411750Y-122268000D01*
X146974250Y-122268000D01*
X146952809Y-122266947D01*
X146931574Y-122263797D01*
X146910750Y-122258581D01*
X146890538Y-122251349D01*
X146871132Y-122242170D01*
X146852719Y-122231134D01*
X146835476Y-122218346D01*
X146819570Y-122203930D01*
X146805154Y-122188024D01*
X146792366Y-122170781D01*
X146781330Y-122152368D01*
X146772151Y-122132962D01*
X146764919Y-122112750D01*
X146759703Y-122091926D01*
X146756553Y-122070691D01*
X146755500Y-122049250D01*
X146755500Y-121536750D01*
X146756553Y-121515309D01*
X146759703Y-121494074D01*
X146764919Y-121473250D01*
X146772151Y-121453038D01*
X146781330Y-121433632D01*
X146792366Y-121415219D01*
X146805154Y-121397976D01*
X146819570Y-121382070D01*
X146835476Y-121367654D01*
X146852719Y-121354866D01*
X146871132Y-121343830D01*
X146890538Y-121334651D01*
X146910750Y-121327419D01*
X146931574Y-121322203D01*
X146952809Y-121319053D01*
X146974250Y-121318000D01*
X147411750Y-121318000D01*
X147433191Y-121319053D01*
G37*
G36*
X145858191Y-121319053D02*
G01*
X145879426Y-121322203D01*
X145900250Y-121327419D01*
X145920462Y-121334651D01*
X145939868Y-121343830D01*
X145958281Y-121354866D01*
X145975524Y-121367654D01*
X145991430Y-121382070D01*
X146005846Y-121397976D01*
X146018634Y-121415219D01*
X146029670Y-121433632D01*
X146038849Y-121453038D01*
X146046081Y-121473250D01*
X146051297Y-121494074D01*
X146054447Y-121515309D01*
X146055500Y-121536750D01*
X146055500Y-122049250D01*
X146054447Y-122070691D01*
X146051297Y-122091926D01*
X146046081Y-122112750D01*
X146038849Y-122132962D01*
X146029670Y-122152368D01*
X146018634Y-122170781D01*
X146005846Y-122188024D01*
X145991430Y-122203930D01*
X145975524Y-122218346D01*
X145958281Y-122231134D01*
X145939868Y-122242170D01*
X145920462Y-122251349D01*
X145900250Y-122258581D01*
X145879426Y-122263797D01*
X145858191Y-122266947D01*
X145836750Y-122268000D01*
X145399250Y-122268000D01*
X145377809Y-122266947D01*
X145356574Y-122263797D01*
X145335750Y-122258581D01*
X145315538Y-122251349D01*
X145296132Y-122242170D01*
X145277719Y-122231134D01*
X145260476Y-122218346D01*
X145244570Y-122203930D01*
X145230154Y-122188024D01*
X145217366Y-122170781D01*
X145206330Y-122152368D01*
X145197151Y-122132962D01*
X145189919Y-122112750D01*
X145184703Y-122091926D01*
X145181553Y-122070691D01*
X145180500Y-122049250D01*
X145180500Y-121536750D01*
X145181553Y-121515309D01*
X145184703Y-121494074D01*
X145189919Y-121473250D01*
X145197151Y-121453038D01*
X145206330Y-121433632D01*
X145217366Y-121415219D01*
X145230154Y-121397976D01*
X145244570Y-121382070D01*
X145260476Y-121367654D01*
X145277719Y-121354866D01*
X145296132Y-121343830D01*
X145315538Y-121334651D01*
X145335750Y-121327419D01*
X145356574Y-121322203D01*
X145377809Y-121319053D01*
X145399250Y-121318000D01*
X145836750Y-121318000D01*
X145858191Y-121319053D01*
G37*
G36*
X153209857Y-115295593D02*
G01*
X153217138Y-115296673D01*
X153224277Y-115298461D01*
X153231207Y-115300941D01*
X153237861Y-115304088D01*
X153244174Y-115307872D01*
X153250085Y-115312256D01*
X153255539Y-115317199D01*
X153573737Y-115635397D01*
X153578680Y-115640851D01*
X153583064Y-115646762D01*
X153586848Y-115653075D01*
X153589995Y-115659729D01*
X153592475Y-115666659D01*
X153594263Y-115673798D01*
X153595343Y-115681079D01*
X153595704Y-115688430D01*
X153595343Y-115695781D01*
X153594263Y-115703062D01*
X153592475Y-115710201D01*
X153589995Y-115717131D01*
X153586848Y-115723785D01*
X153583064Y-115730098D01*
X153578680Y-115736009D01*
X153573737Y-115741463D01*
X153467671Y-115847529D01*
X153462217Y-115852472D01*
X153456306Y-115856856D01*
X153449993Y-115860640D01*
X153443339Y-115863787D01*
X153436409Y-115866267D01*
X153429270Y-115868055D01*
X153421989Y-115869135D01*
X153414638Y-115869496D01*
X153407287Y-115869135D01*
X153400006Y-115868055D01*
X153392867Y-115866267D01*
X153385937Y-115863787D01*
X153379283Y-115860640D01*
X153372970Y-115856856D01*
X153367059Y-115852472D01*
X153361605Y-115847529D01*
X153043407Y-115529331D01*
X153038464Y-115523877D01*
X153034080Y-115517966D01*
X153030296Y-115511653D01*
X153027149Y-115504999D01*
X153024669Y-115498069D01*
X153022881Y-115490930D01*
X153021801Y-115483649D01*
X153021440Y-115476298D01*
X153021801Y-115468947D01*
X153022881Y-115461666D01*
X153024669Y-115454527D01*
X153027149Y-115447597D01*
X153030296Y-115440943D01*
X153034080Y-115434630D01*
X153038464Y-115428719D01*
X153043407Y-115423265D01*
X153149473Y-115317199D01*
X153154927Y-115312256D01*
X153160838Y-115307872D01*
X153167151Y-115304088D01*
X153173805Y-115300941D01*
X153180735Y-115298461D01*
X153187874Y-115296673D01*
X153195155Y-115295593D01*
X153202506Y-115295232D01*
X153209857Y-115295593D01*
G37*
G36*
X152856303Y-115649146D02*
G01*
X152863584Y-115650226D01*
X152870723Y-115652014D01*
X152877653Y-115654494D01*
X152884307Y-115657641D01*
X152890620Y-115661425D01*
X152896531Y-115665809D01*
X152901985Y-115670752D01*
X153220183Y-115988950D01*
X153225126Y-115994404D01*
X153229510Y-116000315D01*
X153233294Y-116006628D01*
X153236441Y-116013282D01*
X153238921Y-116020212D01*
X153240709Y-116027351D01*
X153241789Y-116034632D01*
X153242150Y-116041983D01*
X153241789Y-116049334D01*
X153240709Y-116056615D01*
X153238921Y-116063754D01*
X153236441Y-116070684D01*
X153233294Y-116077338D01*
X153229510Y-116083651D01*
X153225126Y-116089562D01*
X153220183Y-116095016D01*
X153114117Y-116201082D01*
X153108663Y-116206025D01*
X153102752Y-116210409D01*
X153096439Y-116214193D01*
X153089785Y-116217340D01*
X153082855Y-116219820D01*
X153075716Y-116221608D01*
X153068435Y-116222688D01*
X153061084Y-116223049D01*
X153053733Y-116222688D01*
X153046452Y-116221608D01*
X153039313Y-116219820D01*
X153032383Y-116217340D01*
X153025729Y-116214193D01*
X153019416Y-116210409D01*
X153013505Y-116206025D01*
X153008051Y-116201082D01*
X152689853Y-115882884D01*
X152684910Y-115877430D01*
X152680526Y-115871519D01*
X152676742Y-115865206D01*
X152673595Y-115858552D01*
X152671115Y-115851622D01*
X152669327Y-115844483D01*
X152668247Y-115837202D01*
X152667886Y-115829851D01*
X152668247Y-115822500D01*
X152669327Y-115815219D01*
X152671115Y-115808080D01*
X152673595Y-115801150D01*
X152676742Y-115794496D01*
X152680526Y-115788183D01*
X152684910Y-115782272D01*
X152689853Y-115776818D01*
X152795919Y-115670752D01*
X152801373Y-115665809D01*
X152807284Y-115661425D01*
X152813597Y-115657641D01*
X152820251Y-115654494D01*
X152827181Y-115652014D01*
X152834320Y-115650226D01*
X152841601Y-115649146D01*
X152848952Y-115648785D01*
X152856303Y-115649146D01*
G37*
G36*
X152502750Y-116002700D02*
G01*
X152510031Y-116003780D01*
X152517170Y-116005568D01*
X152524100Y-116008048D01*
X152530754Y-116011195D01*
X152537067Y-116014979D01*
X152542978Y-116019363D01*
X152548432Y-116024306D01*
X152866630Y-116342504D01*
X152871573Y-116347958D01*
X152875957Y-116353869D01*
X152879741Y-116360182D01*
X152882888Y-116366836D01*
X152885368Y-116373766D01*
X152887156Y-116380905D01*
X152888236Y-116388186D01*
X152888597Y-116395537D01*
X152888236Y-116402888D01*
X152887156Y-116410169D01*
X152885368Y-116417308D01*
X152882888Y-116424238D01*
X152879741Y-116430892D01*
X152875957Y-116437205D01*
X152871573Y-116443116D01*
X152866630Y-116448570D01*
X152760564Y-116554636D01*
X152755110Y-116559579D01*
X152749199Y-116563963D01*
X152742886Y-116567747D01*
X152736232Y-116570894D01*
X152729302Y-116573374D01*
X152722163Y-116575162D01*
X152714882Y-116576242D01*
X152707531Y-116576603D01*
X152700180Y-116576242D01*
X152692899Y-116575162D01*
X152685760Y-116573374D01*
X152678830Y-116570894D01*
X152672176Y-116567747D01*
X152665863Y-116563963D01*
X152659952Y-116559579D01*
X152654498Y-116554636D01*
X152336300Y-116236438D01*
X152331357Y-116230984D01*
X152326973Y-116225073D01*
X152323189Y-116218760D01*
X152320042Y-116212106D01*
X152317562Y-116205176D01*
X152315774Y-116198037D01*
X152314694Y-116190756D01*
X152314333Y-116183405D01*
X152314694Y-116176054D01*
X152315774Y-116168773D01*
X152317562Y-116161634D01*
X152320042Y-116154704D01*
X152323189Y-116148050D01*
X152326973Y-116141737D01*
X152331357Y-116135826D01*
X152336300Y-116130372D01*
X152442366Y-116024306D01*
X152447820Y-116019363D01*
X152453731Y-116014979D01*
X152460044Y-116011195D01*
X152466698Y-116008048D01*
X152473628Y-116005568D01*
X152480767Y-116003780D01*
X152488048Y-116002700D01*
X152495399Y-116002339D01*
X152502750Y-116002700D01*
G37*
G36*
X152149197Y-116356253D02*
G01*
X152156478Y-116357333D01*
X152163617Y-116359121D01*
X152170547Y-116361601D01*
X152177201Y-116364748D01*
X152183514Y-116368532D01*
X152189425Y-116372916D01*
X152194879Y-116377859D01*
X152513077Y-116696057D01*
X152518020Y-116701511D01*
X152522404Y-116707422D01*
X152526188Y-116713735D01*
X152529335Y-116720389D01*
X152531815Y-116727319D01*
X152533603Y-116734458D01*
X152534683Y-116741739D01*
X152535044Y-116749090D01*
X152534683Y-116756441D01*
X152533603Y-116763722D01*
X152531815Y-116770861D01*
X152529335Y-116777791D01*
X152526188Y-116784445D01*
X152522404Y-116790758D01*
X152518020Y-116796669D01*
X152513077Y-116802123D01*
X152407011Y-116908189D01*
X152401557Y-116913132D01*
X152395646Y-116917516D01*
X152389333Y-116921300D01*
X152382679Y-116924447D01*
X152375749Y-116926927D01*
X152368610Y-116928715D01*
X152361329Y-116929795D01*
X152353978Y-116930156D01*
X152346627Y-116929795D01*
X152339346Y-116928715D01*
X152332207Y-116926927D01*
X152325277Y-116924447D01*
X152318623Y-116921300D01*
X152312310Y-116917516D01*
X152306399Y-116913132D01*
X152300945Y-116908189D01*
X151982747Y-116589991D01*
X151977804Y-116584537D01*
X151973420Y-116578626D01*
X151969636Y-116572313D01*
X151966489Y-116565659D01*
X151964009Y-116558729D01*
X151962221Y-116551590D01*
X151961141Y-116544309D01*
X151960780Y-116536958D01*
X151961141Y-116529607D01*
X151962221Y-116522326D01*
X151964009Y-116515187D01*
X151966489Y-116508257D01*
X151969636Y-116501603D01*
X151973420Y-116495290D01*
X151977804Y-116489379D01*
X151982747Y-116483925D01*
X152088813Y-116377859D01*
X152094267Y-116372916D01*
X152100178Y-116368532D01*
X152106491Y-116364748D01*
X152113145Y-116361601D01*
X152120075Y-116359121D01*
X152127214Y-116357333D01*
X152134495Y-116356253D01*
X152141846Y-116355892D01*
X152149197Y-116356253D01*
G37*
G36*
X151795643Y-116709806D02*
G01*
X151802924Y-116710886D01*
X151810063Y-116712674D01*
X151816993Y-116715154D01*
X151823647Y-116718301D01*
X151829960Y-116722085D01*
X151835871Y-116726469D01*
X151841325Y-116731412D01*
X152159523Y-117049610D01*
X152164466Y-117055064D01*
X152168850Y-117060975D01*
X152172634Y-117067288D01*
X152175781Y-117073942D01*
X152178261Y-117080872D01*
X152180049Y-117088011D01*
X152181129Y-117095292D01*
X152181490Y-117102643D01*
X152181129Y-117109994D01*
X152180049Y-117117275D01*
X152178261Y-117124414D01*
X152175781Y-117131344D01*
X152172634Y-117137998D01*
X152168850Y-117144311D01*
X152164466Y-117150222D01*
X152159523Y-117155676D01*
X152053457Y-117261742D01*
X152048003Y-117266685D01*
X152042092Y-117271069D01*
X152035779Y-117274853D01*
X152029125Y-117278000D01*
X152022195Y-117280480D01*
X152015056Y-117282268D01*
X152007775Y-117283348D01*
X152000424Y-117283709D01*
X151993073Y-117283348D01*
X151985792Y-117282268D01*
X151978653Y-117280480D01*
X151971723Y-117278000D01*
X151965069Y-117274853D01*
X151958756Y-117271069D01*
X151952845Y-117266685D01*
X151947391Y-117261742D01*
X151629193Y-116943544D01*
X151624250Y-116938090D01*
X151619866Y-116932179D01*
X151616082Y-116925866D01*
X151612935Y-116919212D01*
X151610455Y-116912282D01*
X151608667Y-116905143D01*
X151607587Y-116897862D01*
X151607226Y-116890511D01*
X151607587Y-116883160D01*
X151608667Y-116875879D01*
X151610455Y-116868740D01*
X151612935Y-116861810D01*
X151616082Y-116855156D01*
X151619866Y-116848843D01*
X151624250Y-116842932D01*
X151629193Y-116837478D01*
X151735259Y-116731412D01*
X151740713Y-116726469D01*
X151746624Y-116722085D01*
X151752937Y-116718301D01*
X151759591Y-116715154D01*
X151766521Y-116712674D01*
X151773660Y-116710886D01*
X151780941Y-116709806D01*
X151788292Y-116709445D01*
X151795643Y-116709806D01*
G37*
G36*
X151442090Y-117063360D02*
G01*
X151449371Y-117064440D01*
X151456510Y-117066228D01*
X151463440Y-117068708D01*
X151470094Y-117071855D01*
X151476407Y-117075639D01*
X151482318Y-117080023D01*
X151487772Y-117084966D01*
X151805970Y-117403164D01*
X151810913Y-117408618D01*
X151815297Y-117414529D01*
X151819081Y-117420842D01*
X151822228Y-117427496D01*
X151824708Y-117434426D01*
X151826496Y-117441565D01*
X151827576Y-117448846D01*
X151827937Y-117456197D01*
X151827576Y-117463548D01*
X151826496Y-117470829D01*
X151824708Y-117477968D01*
X151822228Y-117484898D01*
X151819081Y-117491552D01*
X151815297Y-117497865D01*
X151810913Y-117503776D01*
X151805970Y-117509230D01*
X151699904Y-117615296D01*
X151694450Y-117620239D01*
X151688539Y-117624623D01*
X151682226Y-117628407D01*
X151675572Y-117631554D01*
X151668642Y-117634034D01*
X151661503Y-117635822D01*
X151654222Y-117636902D01*
X151646871Y-117637263D01*
X151639520Y-117636902D01*
X151632239Y-117635822D01*
X151625100Y-117634034D01*
X151618170Y-117631554D01*
X151611516Y-117628407D01*
X151605203Y-117624623D01*
X151599292Y-117620239D01*
X151593838Y-117615296D01*
X151275640Y-117297098D01*
X151270697Y-117291644D01*
X151266313Y-117285733D01*
X151262529Y-117279420D01*
X151259382Y-117272766D01*
X151256902Y-117265836D01*
X151255114Y-117258697D01*
X151254034Y-117251416D01*
X151253673Y-117244065D01*
X151254034Y-117236714D01*
X151255114Y-117229433D01*
X151256902Y-117222294D01*
X151259382Y-117215364D01*
X151262529Y-117208710D01*
X151266313Y-117202397D01*
X151270697Y-117196486D01*
X151275640Y-117191032D01*
X151381706Y-117084966D01*
X151387160Y-117080023D01*
X151393071Y-117075639D01*
X151399384Y-117071855D01*
X151406038Y-117068708D01*
X151412968Y-117066228D01*
X151420107Y-117064440D01*
X151427388Y-117063360D01*
X151434739Y-117062999D01*
X151442090Y-117063360D01*
G37*
G36*
X151088536Y-117416913D02*
G01*
X151095817Y-117417993D01*
X151102956Y-117419781D01*
X151109886Y-117422261D01*
X151116540Y-117425408D01*
X151122853Y-117429192D01*
X151128764Y-117433576D01*
X151134218Y-117438519D01*
X151452416Y-117756717D01*
X151457359Y-117762171D01*
X151461743Y-117768082D01*
X151465527Y-117774395D01*
X151468674Y-117781049D01*
X151471154Y-117787979D01*
X151472942Y-117795118D01*
X151474022Y-117802399D01*
X151474383Y-117809750D01*
X151474022Y-117817101D01*
X151472942Y-117824382D01*
X151471154Y-117831521D01*
X151468674Y-117838451D01*
X151465527Y-117845105D01*
X151461743Y-117851418D01*
X151457359Y-117857329D01*
X151452416Y-117862783D01*
X151346350Y-117968849D01*
X151340896Y-117973792D01*
X151334985Y-117978176D01*
X151328672Y-117981960D01*
X151322018Y-117985107D01*
X151315088Y-117987587D01*
X151307949Y-117989375D01*
X151300668Y-117990455D01*
X151293317Y-117990816D01*
X151285966Y-117990455D01*
X151278685Y-117989375D01*
X151271546Y-117987587D01*
X151264616Y-117985107D01*
X151257962Y-117981960D01*
X151251649Y-117978176D01*
X151245738Y-117973792D01*
X151240284Y-117968849D01*
X150922086Y-117650651D01*
X150917143Y-117645197D01*
X150912759Y-117639286D01*
X150908975Y-117632973D01*
X150905828Y-117626319D01*
X150903348Y-117619389D01*
X150901560Y-117612250D01*
X150900480Y-117604969D01*
X150900119Y-117597618D01*
X150900480Y-117590267D01*
X150901560Y-117582986D01*
X150903348Y-117575847D01*
X150905828Y-117568917D01*
X150908975Y-117562263D01*
X150912759Y-117555950D01*
X150917143Y-117550039D01*
X150922086Y-117544585D01*
X151028152Y-117438519D01*
X151033606Y-117433576D01*
X151039517Y-117429192D01*
X151045830Y-117425408D01*
X151052484Y-117422261D01*
X151059414Y-117419781D01*
X151066553Y-117417993D01*
X151073834Y-117416913D01*
X151081185Y-117416552D01*
X151088536Y-117416913D01*
G37*
G36*
X150734983Y-117770466D02*
G01*
X150742264Y-117771546D01*
X150749403Y-117773334D01*
X150756333Y-117775814D01*
X150762987Y-117778961D01*
X150769300Y-117782745D01*
X150775211Y-117787129D01*
X150780665Y-117792072D01*
X151098863Y-118110270D01*
X151103806Y-118115724D01*
X151108190Y-118121635D01*
X151111974Y-118127948D01*
X151115121Y-118134602D01*
X151117601Y-118141532D01*
X151119389Y-118148671D01*
X151120469Y-118155952D01*
X151120830Y-118163303D01*
X151120469Y-118170654D01*
X151119389Y-118177935D01*
X151117601Y-118185074D01*
X151115121Y-118192004D01*
X151111974Y-118198658D01*
X151108190Y-118204971D01*
X151103806Y-118210882D01*
X151098863Y-118216336D01*
X150992797Y-118322402D01*
X150987343Y-118327345D01*
X150981432Y-118331729D01*
X150975119Y-118335513D01*
X150968465Y-118338660D01*
X150961535Y-118341140D01*
X150954396Y-118342928D01*
X150947115Y-118344008D01*
X150939764Y-118344369D01*
X150932413Y-118344008D01*
X150925132Y-118342928D01*
X150917993Y-118341140D01*
X150911063Y-118338660D01*
X150904409Y-118335513D01*
X150898096Y-118331729D01*
X150892185Y-118327345D01*
X150886731Y-118322402D01*
X150568533Y-118004204D01*
X150563590Y-117998750D01*
X150559206Y-117992839D01*
X150555422Y-117986526D01*
X150552275Y-117979872D01*
X150549795Y-117972942D01*
X150548007Y-117965803D01*
X150546927Y-117958522D01*
X150546566Y-117951171D01*
X150546927Y-117943820D01*
X150548007Y-117936539D01*
X150549795Y-117929400D01*
X150552275Y-117922470D01*
X150555422Y-117915816D01*
X150559206Y-117909503D01*
X150563590Y-117903592D01*
X150568533Y-117898138D01*
X150674599Y-117792072D01*
X150680053Y-117787129D01*
X150685964Y-117782745D01*
X150692277Y-117778961D01*
X150698931Y-117775814D01*
X150705861Y-117773334D01*
X150713000Y-117771546D01*
X150720281Y-117770466D01*
X150727632Y-117770105D01*
X150734983Y-117770466D01*
G37*
G36*
X150381430Y-118124020D02*
G01*
X150388711Y-118125100D01*
X150395850Y-118126888D01*
X150402780Y-118129368D01*
X150409434Y-118132515D01*
X150415747Y-118136299D01*
X150421658Y-118140683D01*
X150427112Y-118145626D01*
X150745310Y-118463824D01*
X150750253Y-118469278D01*
X150754637Y-118475189D01*
X150758421Y-118481502D01*
X150761568Y-118488156D01*
X150764048Y-118495086D01*
X150765836Y-118502225D01*
X150766916Y-118509506D01*
X150767277Y-118516857D01*
X150766916Y-118524208D01*
X150765836Y-118531489D01*
X150764048Y-118538628D01*
X150761568Y-118545558D01*
X150758421Y-118552212D01*
X150754637Y-118558525D01*
X150750253Y-118564436D01*
X150745310Y-118569890D01*
X150639244Y-118675956D01*
X150633790Y-118680899D01*
X150627879Y-118685283D01*
X150621566Y-118689067D01*
X150614912Y-118692214D01*
X150607982Y-118694694D01*
X150600843Y-118696482D01*
X150593562Y-118697562D01*
X150586211Y-118697923D01*
X150578860Y-118697562D01*
X150571579Y-118696482D01*
X150564440Y-118694694D01*
X150557510Y-118692214D01*
X150550856Y-118689067D01*
X150544543Y-118685283D01*
X150538632Y-118680899D01*
X150533178Y-118675956D01*
X150214980Y-118357758D01*
X150210037Y-118352304D01*
X150205653Y-118346393D01*
X150201869Y-118340080D01*
X150198722Y-118333426D01*
X150196242Y-118326496D01*
X150194454Y-118319357D01*
X150193374Y-118312076D01*
X150193013Y-118304725D01*
X150193374Y-118297374D01*
X150194454Y-118290093D01*
X150196242Y-118282954D01*
X150198722Y-118276024D01*
X150201869Y-118269370D01*
X150205653Y-118263057D01*
X150210037Y-118257146D01*
X150214980Y-118251692D01*
X150321046Y-118145626D01*
X150326500Y-118140683D01*
X150332411Y-118136299D01*
X150338724Y-118132515D01*
X150345378Y-118129368D01*
X150352308Y-118126888D01*
X150359447Y-118125100D01*
X150366728Y-118124020D01*
X150374079Y-118123659D01*
X150381430Y-118124020D01*
G37*
G36*
X150027876Y-118477573D02*
G01*
X150035157Y-118478653D01*
X150042296Y-118480441D01*
X150049226Y-118482921D01*
X150055880Y-118486068D01*
X150062193Y-118489852D01*
X150068104Y-118494236D01*
X150073558Y-118499179D01*
X150391756Y-118817377D01*
X150396699Y-118822831D01*
X150401083Y-118828742D01*
X150404867Y-118835055D01*
X150408014Y-118841709D01*
X150410494Y-118848639D01*
X150412282Y-118855778D01*
X150413362Y-118863059D01*
X150413723Y-118870410D01*
X150413362Y-118877761D01*
X150412282Y-118885042D01*
X150410494Y-118892181D01*
X150408014Y-118899111D01*
X150404867Y-118905765D01*
X150401083Y-118912078D01*
X150396699Y-118917989D01*
X150391756Y-118923443D01*
X150285690Y-119029509D01*
X150280236Y-119034452D01*
X150274325Y-119038836D01*
X150268012Y-119042620D01*
X150261358Y-119045767D01*
X150254428Y-119048247D01*
X150247289Y-119050035D01*
X150240008Y-119051115D01*
X150232657Y-119051476D01*
X150225306Y-119051115D01*
X150218025Y-119050035D01*
X150210886Y-119048247D01*
X150203956Y-119045767D01*
X150197302Y-119042620D01*
X150190989Y-119038836D01*
X150185078Y-119034452D01*
X150179624Y-119029509D01*
X149861426Y-118711311D01*
X149856483Y-118705857D01*
X149852099Y-118699946D01*
X149848315Y-118693633D01*
X149845168Y-118686979D01*
X149842688Y-118680049D01*
X149840900Y-118672910D01*
X149839820Y-118665629D01*
X149839459Y-118658278D01*
X149839820Y-118650927D01*
X149840900Y-118643646D01*
X149842688Y-118636507D01*
X149845168Y-118629577D01*
X149848315Y-118622923D01*
X149852099Y-118616610D01*
X149856483Y-118610699D01*
X149861426Y-118605245D01*
X149967492Y-118499179D01*
X149972946Y-118494236D01*
X149978857Y-118489852D01*
X149985170Y-118486068D01*
X149991824Y-118482921D01*
X149998754Y-118480441D01*
X150005893Y-118478653D01*
X150013174Y-118477573D01*
X150020525Y-118477212D01*
X150027876Y-118477573D01*
G37*
G36*
X149674323Y-118831127D02*
G01*
X149681604Y-118832207D01*
X149688743Y-118833995D01*
X149695673Y-118836475D01*
X149702327Y-118839622D01*
X149708640Y-118843406D01*
X149714551Y-118847790D01*
X149720005Y-118852733D01*
X150038203Y-119170931D01*
X150043146Y-119176385D01*
X150047530Y-119182296D01*
X150051314Y-119188609D01*
X150054461Y-119195263D01*
X150056941Y-119202193D01*
X150058729Y-119209332D01*
X150059809Y-119216613D01*
X150060170Y-119223964D01*
X150059809Y-119231315D01*
X150058729Y-119238596D01*
X150056941Y-119245735D01*
X150054461Y-119252665D01*
X150051314Y-119259319D01*
X150047530Y-119265632D01*
X150043146Y-119271543D01*
X150038203Y-119276997D01*
X149932137Y-119383063D01*
X149926683Y-119388006D01*
X149920772Y-119392390D01*
X149914459Y-119396174D01*
X149907805Y-119399321D01*
X149900875Y-119401801D01*
X149893736Y-119403589D01*
X149886455Y-119404669D01*
X149879104Y-119405030D01*
X149871753Y-119404669D01*
X149864472Y-119403589D01*
X149857333Y-119401801D01*
X149850403Y-119399321D01*
X149843749Y-119396174D01*
X149837436Y-119392390D01*
X149831525Y-119388006D01*
X149826071Y-119383063D01*
X149507873Y-119064865D01*
X149502930Y-119059411D01*
X149498546Y-119053500D01*
X149494762Y-119047187D01*
X149491615Y-119040533D01*
X149489135Y-119033603D01*
X149487347Y-119026464D01*
X149486267Y-119019183D01*
X149485906Y-119011832D01*
X149486267Y-119004481D01*
X149487347Y-118997200D01*
X149489135Y-118990061D01*
X149491615Y-118983131D01*
X149494762Y-118976477D01*
X149498546Y-118970164D01*
X149502930Y-118964253D01*
X149507873Y-118958799D01*
X149613939Y-118852733D01*
X149619393Y-118847790D01*
X149625304Y-118843406D01*
X149631617Y-118839622D01*
X149638271Y-118836475D01*
X149645201Y-118833995D01*
X149652340Y-118832207D01*
X149659621Y-118831127D01*
X149666972Y-118830766D01*
X149674323Y-118831127D01*
G37*
G36*
X149320770Y-119184680D02*
G01*
X149328051Y-119185760D01*
X149335190Y-119187548D01*
X149342120Y-119190028D01*
X149348774Y-119193175D01*
X149355087Y-119196959D01*
X149360998Y-119201343D01*
X149366452Y-119206286D01*
X149684650Y-119524484D01*
X149689593Y-119529938D01*
X149693977Y-119535849D01*
X149697761Y-119542162D01*
X149700908Y-119548816D01*
X149703388Y-119555746D01*
X149705176Y-119562885D01*
X149706256Y-119570166D01*
X149706617Y-119577517D01*
X149706256Y-119584868D01*
X149705176Y-119592149D01*
X149703388Y-119599288D01*
X149700908Y-119606218D01*
X149697761Y-119612872D01*
X149693977Y-119619185D01*
X149689593Y-119625096D01*
X149684650Y-119630550D01*
X149578584Y-119736616D01*
X149573130Y-119741559D01*
X149567219Y-119745943D01*
X149560906Y-119749727D01*
X149554252Y-119752874D01*
X149547322Y-119755354D01*
X149540183Y-119757142D01*
X149532902Y-119758222D01*
X149525551Y-119758583D01*
X149518200Y-119758222D01*
X149510919Y-119757142D01*
X149503780Y-119755354D01*
X149496850Y-119752874D01*
X149490196Y-119749727D01*
X149483883Y-119745943D01*
X149477972Y-119741559D01*
X149472518Y-119736616D01*
X149154320Y-119418418D01*
X149149377Y-119412964D01*
X149144993Y-119407053D01*
X149141209Y-119400740D01*
X149138062Y-119394086D01*
X149135582Y-119387156D01*
X149133794Y-119380017D01*
X149132714Y-119372736D01*
X149132353Y-119365385D01*
X149132714Y-119358034D01*
X149133794Y-119350753D01*
X149135582Y-119343614D01*
X149138062Y-119336684D01*
X149141209Y-119330030D01*
X149144993Y-119323717D01*
X149149377Y-119317806D01*
X149154320Y-119312352D01*
X149260386Y-119206286D01*
X149265840Y-119201343D01*
X149271751Y-119196959D01*
X149278064Y-119193175D01*
X149284718Y-119190028D01*
X149291648Y-119187548D01*
X149298787Y-119185760D01*
X149306068Y-119184680D01*
X149313419Y-119184319D01*
X149320770Y-119184680D01*
G37*
G36*
X148967216Y-119538233D02*
G01*
X148974497Y-119539313D01*
X148981636Y-119541101D01*
X148988566Y-119543581D01*
X148995220Y-119546728D01*
X149001533Y-119550512D01*
X149007444Y-119554896D01*
X149012898Y-119559839D01*
X149331096Y-119878037D01*
X149336039Y-119883491D01*
X149340423Y-119889402D01*
X149344207Y-119895715D01*
X149347354Y-119902369D01*
X149349834Y-119909299D01*
X149351622Y-119916438D01*
X149352702Y-119923719D01*
X149353063Y-119931070D01*
X149352702Y-119938421D01*
X149351622Y-119945702D01*
X149349834Y-119952841D01*
X149347354Y-119959771D01*
X149344207Y-119966425D01*
X149340423Y-119972738D01*
X149336039Y-119978649D01*
X149331096Y-119984103D01*
X149225030Y-120090169D01*
X149219576Y-120095112D01*
X149213665Y-120099496D01*
X149207352Y-120103280D01*
X149200698Y-120106427D01*
X149193768Y-120108907D01*
X149186629Y-120110695D01*
X149179348Y-120111775D01*
X149171997Y-120112136D01*
X149164646Y-120111775D01*
X149157365Y-120110695D01*
X149150226Y-120108907D01*
X149143296Y-120106427D01*
X149136642Y-120103280D01*
X149130329Y-120099496D01*
X149124418Y-120095112D01*
X149118964Y-120090169D01*
X148800766Y-119771971D01*
X148795823Y-119766517D01*
X148791439Y-119760606D01*
X148787655Y-119754293D01*
X148784508Y-119747639D01*
X148782028Y-119740709D01*
X148780240Y-119733570D01*
X148779160Y-119726289D01*
X148778799Y-119718938D01*
X148779160Y-119711587D01*
X148780240Y-119704306D01*
X148782028Y-119697167D01*
X148784508Y-119690237D01*
X148787655Y-119683583D01*
X148791439Y-119677270D01*
X148795823Y-119671359D01*
X148800766Y-119665905D01*
X148906832Y-119559839D01*
X148912286Y-119554896D01*
X148918197Y-119550512D01*
X148924510Y-119546728D01*
X148931164Y-119543581D01*
X148938094Y-119541101D01*
X148945233Y-119539313D01*
X148952514Y-119538233D01*
X148959865Y-119537872D01*
X148967216Y-119538233D01*
G37*
G36*
X148613663Y-119891787D02*
G01*
X148620944Y-119892867D01*
X148628083Y-119894655D01*
X148635013Y-119897135D01*
X148641667Y-119900282D01*
X148647980Y-119904066D01*
X148653891Y-119908450D01*
X148659345Y-119913393D01*
X148977543Y-120231591D01*
X148982486Y-120237045D01*
X148986870Y-120242956D01*
X148990654Y-120249269D01*
X148993801Y-120255923D01*
X148996281Y-120262853D01*
X148998069Y-120269992D01*
X148999149Y-120277273D01*
X148999510Y-120284624D01*
X148999149Y-120291975D01*
X148998069Y-120299256D01*
X148996281Y-120306395D01*
X148993801Y-120313325D01*
X148990654Y-120319979D01*
X148986870Y-120326292D01*
X148982486Y-120332203D01*
X148977543Y-120337657D01*
X148871477Y-120443723D01*
X148866023Y-120448666D01*
X148860112Y-120453050D01*
X148853799Y-120456834D01*
X148847145Y-120459981D01*
X148840215Y-120462461D01*
X148833076Y-120464249D01*
X148825795Y-120465329D01*
X148818444Y-120465690D01*
X148811093Y-120465329D01*
X148803812Y-120464249D01*
X148796673Y-120462461D01*
X148789743Y-120459981D01*
X148783089Y-120456834D01*
X148776776Y-120453050D01*
X148770865Y-120448666D01*
X148765411Y-120443723D01*
X148447213Y-120125525D01*
X148442270Y-120120071D01*
X148437886Y-120114160D01*
X148434102Y-120107847D01*
X148430955Y-120101193D01*
X148428475Y-120094263D01*
X148426687Y-120087124D01*
X148425607Y-120079843D01*
X148425246Y-120072492D01*
X148425607Y-120065141D01*
X148426687Y-120057860D01*
X148428475Y-120050721D01*
X148430955Y-120043791D01*
X148434102Y-120037137D01*
X148437886Y-120030824D01*
X148442270Y-120024913D01*
X148447213Y-120019459D01*
X148553279Y-119913393D01*
X148558733Y-119908450D01*
X148564644Y-119904066D01*
X148570957Y-119900282D01*
X148577611Y-119897135D01*
X148584541Y-119894655D01*
X148591680Y-119892867D01*
X148598961Y-119891787D01*
X148606312Y-119891426D01*
X148613663Y-119891787D01*
G37*
G36*
X148047977Y-119891787D02*
G01*
X148055258Y-119892867D01*
X148062397Y-119894655D01*
X148069327Y-119897135D01*
X148075981Y-119900282D01*
X148082294Y-119904066D01*
X148088205Y-119908450D01*
X148093659Y-119913393D01*
X148199725Y-120019459D01*
X148204668Y-120024913D01*
X148209052Y-120030824D01*
X148212836Y-120037137D01*
X148215983Y-120043791D01*
X148218463Y-120050721D01*
X148220251Y-120057860D01*
X148221331Y-120065141D01*
X148221692Y-120072492D01*
X148221331Y-120079843D01*
X148220251Y-120087124D01*
X148218463Y-120094263D01*
X148215983Y-120101193D01*
X148212836Y-120107847D01*
X148209052Y-120114160D01*
X148204668Y-120120071D01*
X148199725Y-120125525D01*
X147881527Y-120443723D01*
X147876073Y-120448666D01*
X147870162Y-120453050D01*
X147863849Y-120456834D01*
X147857195Y-120459981D01*
X147850265Y-120462461D01*
X147843126Y-120464249D01*
X147835845Y-120465329D01*
X147828494Y-120465690D01*
X147821143Y-120465329D01*
X147813862Y-120464249D01*
X147806723Y-120462461D01*
X147799793Y-120459981D01*
X147793139Y-120456834D01*
X147786826Y-120453050D01*
X147780915Y-120448666D01*
X147775461Y-120443723D01*
X147669395Y-120337657D01*
X147664452Y-120332203D01*
X147660068Y-120326292D01*
X147656284Y-120319979D01*
X147653137Y-120313325D01*
X147650657Y-120306395D01*
X147648869Y-120299256D01*
X147647789Y-120291975D01*
X147647428Y-120284624D01*
X147647789Y-120277273D01*
X147648869Y-120269992D01*
X147650657Y-120262853D01*
X147653137Y-120255923D01*
X147656284Y-120249269D01*
X147660068Y-120242956D01*
X147664452Y-120237045D01*
X147669395Y-120231591D01*
X147987593Y-119913393D01*
X147993047Y-119908450D01*
X147998958Y-119904066D01*
X148005271Y-119900282D01*
X148011925Y-119897135D01*
X148018855Y-119894655D01*
X148025994Y-119892867D01*
X148033275Y-119891787D01*
X148040626Y-119891426D01*
X148047977Y-119891787D01*
G37*
G36*
X147694424Y-119538233D02*
G01*
X147701705Y-119539313D01*
X147708844Y-119541101D01*
X147715774Y-119543581D01*
X147722428Y-119546728D01*
X147728741Y-119550512D01*
X147734652Y-119554896D01*
X147740106Y-119559839D01*
X147846172Y-119665905D01*
X147851115Y-119671359D01*
X147855499Y-119677270D01*
X147859283Y-119683583D01*
X147862430Y-119690237D01*
X147864910Y-119697167D01*
X147866698Y-119704306D01*
X147867778Y-119711587D01*
X147868139Y-119718938D01*
X147867778Y-119726289D01*
X147866698Y-119733570D01*
X147864910Y-119740709D01*
X147862430Y-119747639D01*
X147859283Y-119754293D01*
X147855499Y-119760606D01*
X147851115Y-119766517D01*
X147846172Y-119771971D01*
X147527974Y-120090169D01*
X147522520Y-120095112D01*
X147516609Y-120099496D01*
X147510296Y-120103280D01*
X147503642Y-120106427D01*
X147496712Y-120108907D01*
X147489573Y-120110695D01*
X147482292Y-120111775D01*
X147474941Y-120112136D01*
X147467590Y-120111775D01*
X147460309Y-120110695D01*
X147453170Y-120108907D01*
X147446240Y-120106427D01*
X147439586Y-120103280D01*
X147433273Y-120099496D01*
X147427362Y-120095112D01*
X147421908Y-120090169D01*
X147315842Y-119984103D01*
X147310899Y-119978649D01*
X147306515Y-119972738D01*
X147302731Y-119966425D01*
X147299584Y-119959771D01*
X147297104Y-119952841D01*
X147295316Y-119945702D01*
X147294236Y-119938421D01*
X147293875Y-119931070D01*
X147294236Y-119923719D01*
X147295316Y-119916438D01*
X147297104Y-119909299D01*
X147299584Y-119902369D01*
X147302731Y-119895715D01*
X147306515Y-119889402D01*
X147310899Y-119883491D01*
X147315842Y-119878037D01*
X147634040Y-119559839D01*
X147639494Y-119554896D01*
X147645405Y-119550512D01*
X147651718Y-119546728D01*
X147658372Y-119543581D01*
X147665302Y-119541101D01*
X147672441Y-119539313D01*
X147679722Y-119538233D01*
X147687073Y-119537872D01*
X147694424Y-119538233D01*
G37*
G36*
X147340870Y-119184680D02*
G01*
X147348151Y-119185760D01*
X147355290Y-119187548D01*
X147362220Y-119190028D01*
X147368874Y-119193175D01*
X147375187Y-119196959D01*
X147381098Y-119201343D01*
X147386552Y-119206286D01*
X147492618Y-119312352D01*
X147497561Y-119317806D01*
X147501945Y-119323717D01*
X147505729Y-119330030D01*
X147508876Y-119336684D01*
X147511356Y-119343614D01*
X147513144Y-119350753D01*
X147514224Y-119358034D01*
X147514585Y-119365385D01*
X147514224Y-119372736D01*
X147513144Y-119380017D01*
X147511356Y-119387156D01*
X147508876Y-119394086D01*
X147505729Y-119400740D01*
X147501945Y-119407053D01*
X147497561Y-119412964D01*
X147492618Y-119418418D01*
X147174420Y-119736616D01*
X147168966Y-119741559D01*
X147163055Y-119745943D01*
X147156742Y-119749727D01*
X147150088Y-119752874D01*
X147143158Y-119755354D01*
X147136019Y-119757142D01*
X147128738Y-119758222D01*
X147121387Y-119758583D01*
X147114036Y-119758222D01*
X147106755Y-119757142D01*
X147099616Y-119755354D01*
X147092686Y-119752874D01*
X147086032Y-119749727D01*
X147079719Y-119745943D01*
X147073808Y-119741559D01*
X147068354Y-119736616D01*
X146962288Y-119630550D01*
X146957345Y-119625096D01*
X146952961Y-119619185D01*
X146949177Y-119612872D01*
X146946030Y-119606218D01*
X146943550Y-119599288D01*
X146941762Y-119592149D01*
X146940682Y-119584868D01*
X146940321Y-119577517D01*
X146940682Y-119570166D01*
X146941762Y-119562885D01*
X146943550Y-119555746D01*
X146946030Y-119548816D01*
X146949177Y-119542162D01*
X146952961Y-119535849D01*
X146957345Y-119529938D01*
X146962288Y-119524484D01*
X147280486Y-119206286D01*
X147285940Y-119201343D01*
X147291851Y-119196959D01*
X147298164Y-119193175D01*
X147304818Y-119190028D01*
X147311748Y-119187548D01*
X147318887Y-119185760D01*
X147326168Y-119184680D01*
X147333519Y-119184319D01*
X147340870Y-119184680D01*
G37*
G36*
X146987317Y-118831127D02*
G01*
X146994598Y-118832207D01*
X147001737Y-118833995D01*
X147008667Y-118836475D01*
X147015321Y-118839622D01*
X147021634Y-118843406D01*
X147027545Y-118847790D01*
X147032999Y-118852733D01*
X147139065Y-118958799D01*
X147144008Y-118964253D01*
X147148392Y-118970164D01*
X147152176Y-118976477D01*
X147155323Y-118983131D01*
X147157803Y-118990061D01*
X147159591Y-118997200D01*
X147160671Y-119004481D01*
X147161032Y-119011832D01*
X147160671Y-119019183D01*
X147159591Y-119026464D01*
X147157803Y-119033603D01*
X147155323Y-119040533D01*
X147152176Y-119047187D01*
X147148392Y-119053500D01*
X147144008Y-119059411D01*
X147139065Y-119064865D01*
X146820867Y-119383063D01*
X146815413Y-119388006D01*
X146809502Y-119392390D01*
X146803189Y-119396174D01*
X146796535Y-119399321D01*
X146789605Y-119401801D01*
X146782466Y-119403589D01*
X146775185Y-119404669D01*
X146767834Y-119405030D01*
X146760483Y-119404669D01*
X146753202Y-119403589D01*
X146746063Y-119401801D01*
X146739133Y-119399321D01*
X146732479Y-119396174D01*
X146726166Y-119392390D01*
X146720255Y-119388006D01*
X146714801Y-119383063D01*
X146608735Y-119276997D01*
X146603792Y-119271543D01*
X146599408Y-119265632D01*
X146595624Y-119259319D01*
X146592477Y-119252665D01*
X146589997Y-119245735D01*
X146588209Y-119238596D01*
X146587129Y-119231315D01*
X146586768Y-119223964D01*
X146587129Y-119216613D01*
X146588209Y-119209332D01*
X146589997Y-119202193D01*
X146592477Y-119195263D01*
X146595624Y-119188609D01*
X146599408Y-119182296D01*
X146603792Y-119176385D01*
X146608735Y-119170931D01*
X146926933Y-118852733D01*
X146932387Y-118847790D01*
X146938298Y-118843406D01*
X146944611Y-118839622D01*
X146951265Y-118836475D01*
X146958195Y-118833995D01*
X146965334Y-118832207D01*
X146972615Y-118831127D01*
X146979966Y-118830766D01*
X146987317Y-118831127D01*
G37*
G36*
X146633764Y-118477573D02*
G01*
X146641045Y-118478653D01*
X146648184Y-118480441D01*
X146655114Y-118482921D01*
X146661768Y-118486068D01*
X146668081Y-118489852D01*
X146673992Y-118494236D01*
X146679446Y-118499179D01*
X146785512Y-118605245D01*
X146790455Y-118610699D01*
X146794839Y-118616610D01*
X146798623Y-118622923D01*
X146801770Y-118629577D01*
X146804250Y-118636507D01*
X146806038Y-118643646D01*
X146807118Y-118650927D01*
X146807479Y-118658278D01*
X146807118Y-118665629D01*
X146806038Y-118672910D01*
X146804250Y-118680049D01*
X146801770Y-118686979D01*
X146798623Y-118693633D01*
X146794839Y-118699946D01*
X146790455Y-118705857D01*
X146785512Y-118711311D01*
X146467314Y-119029509D01*
X146461860Y-119034452D01*
X146455949Y-119038836D01*
X146449636Y-119042620D01*
X146442982Y-119045767D01*
X146436052Y-119048247D01*
X146428913Y-119050035D01*
X146421632Y-119051115D01*
X146414281Y-119051476D01*
X146406930Y-119051115D01*
X146399649Y-119050035D01*
X146392510Y-119048247D01*
X146385580Y-119045767D01*
X146378926Y-119042620D01*
X146372613Y-119038836D01*
X146366702Y-119034452D01*
X146361248Y-119029509D01*
X146255182Y-118923443D01*
X146250239Y-118917989D01*
X146245855Y-118912078D01*
X146242071Y-118905765D01*
X146238924Y-118899111D01*
X146236444Y-118892181D01*
X146234656Y-118885042D01*
X146233576Y-118877761D01*
X146233215Y-118870410D01*
X146233576Y-118863059D01*
X146234656Y-118855778D01*
X146236444Y-118848639D01*
X146238924Y-118841709D01*
X146242071Y-118835055D01*
X146245855Y-118828742D01*
X146250239Y-118822831D01*
X146255182Y-118817377D01*
X146573380Y-118499179D01*
X146578834Y-118494236D01*
X146584745Y-118489852D01*
X146591058Y-118486068D01*
X146597712Y-118482921D01*
X146604642Y-118480441D01*
X146611781Y-118478653D01*
X146619062Y-118477573D01*
X146626413Y-118477212D01*
X146633764Y-118477573D01*
G37*
G36*
X146280210Y-118124020D02*
G01*
X146287491Y-118125100D01*
X146294630Y-118126888D01*
X146301560Y-118129368D01*
X146308214Y-118132515D01*
X146314527Y-118136299D01*
X146320438Y-118140683D01*
X146325892Y-118145626D01*
X146431958Y-118251692D01*
X146436901Y-118257146D01*
X146441285Y-118263057D01*
X146445069Y-118269370D01*
X146448216Y-118276024D01*
X146450696Y-118282954D01*
X146452484Y-118290093D01*
X146453564Y-118297374D01*
X146453925Y-118304725D01*
X146453564Y-118312076D01*
X146452484Y-118319357D01*
X146450696Y-118326496D01*
X146448216Y-118333426D01*
X146445069Y-118340080D01*
X146441285Y-118346393D01*
X146436901Y-118352304D01*
X146431958Y-118357758D01*
X146113760Y-118675956D01*
X146108306Y-118680899D01*
X146102395Y-118685283D01*
X146096082Y-118689067D01*
X146089428Y-118692214D01*
X146082498Y-118694694D01*
X146075359Y-118696482D01*
X146068078Y-118697562D01*
X146060727Y-118697923D01*
X146053376Y-118697562D01*
X146046095Y-118696482D01*
X146038956Y-118694694D01*
X146032026Y-118692214D01*
X146025372Y-118689067D01*
X146019059Y-118685283D01*
X146013148Y-118680899D01*
X146007694Y-118675956D01*
X145901628Y-118569890D01*
X145896685Y-118564436D01*
X145892301Y-118558525D01*
X145888517Y-118552212D01*
X145885370Y-118545558D01*
X145882890Y-118538628D01*
X145881102Y-118531489D01*
X145880022Y-118524208D01*
X145879661Y-118516857D01*
X145880022Y-118509506D01*
X145881102Y-118502225D01*
X145882890Y-118495086D01*
X145885370Y-118488156D01*
X145888517Y-118481502D01*
X145892301Y-118475189D01*
X145896685Y-118469278D01*
X145901628Y-118463824D01*
X146219826Y-118145626D01*
X146225280Y-118140683D01*
X146231191Y-118136299D01*
X146237504Y-118132515D01*
X146244158Y-118129368D01*
X146251088Y-118126888D01*
X146258227Y-118125100D01*
X146265508Y-118124020D01*
X146272859Y-118123659D01*
X146280210Y-118124020D01*
G37*
G36*
X145926657Y-117770466D02*
G01*
X145933938Y-117771546D01*
X145941077Y-117773334D01*
X145948007Y-117775814D01*
X145954661Y-117778961D01*
X145960974Y-117782745D01*
X145966885Y-117787129D01*
X145972339Y-117792072D01*
X146078405Y-117898138D01*
X146083348Y-117903592D01*
X146087732Y-117909503D01*
X146091516Y-117915816D01*
X146094663Y-117922470D01*
X146097143Y-117929400D01*
X146098931Y-117936539D01*
X146100011Y-117943820D01*
X146100372Y-117951171D01*
X146100011Y-117958522D01*
X146098931Y-117965803D01*
X146097143Y-117972942D01*
X146094663Y-117979872D01*
X146091516Y-117986526D01*
X146087732Y-117992839D01*
X146083348Y-117998750D01*
X146078405Y-118004204D01*
X145760207Y-118322402D01*
X145754753Y-118327345D01*
X145748842Y-118331729D01*
X145742529Y-118335513D01*
X145735875Y-118338660D01*
X145728945Y-118341140D01*
X145721806Y-118342928D01*
X145714525Y-118344008D01*
X145707174Y-118344369D01*
X145699823Y-118344008D01*
X145692542Y-118342928D01*
X145685403Y-118341140D01*
X145678473Y-118338660D01*
X145671819Y-118335513D01*
X145665506Y-118331729D01*
X145659595Y-118327345D01*
X145654141Y-118322402D01*
X145548075Y-118216336D01*
X145543132Y-118210882D01*
X145538748Y-118204971D01*
X145534964Y-118198658D01*
X145531817Y-118192004D01*
X145529337Y-118185074D01*
X145527549Y-118177935D01*
X145526469Y-118170654D01*
X145526108Y-118163303D01*
X145526469Y-118155952D01*
X145527549Y-118148671D01*
X145529337Y-118141532D01*
X145531817Y-118134602D01*
X145534964Y-118127948D01*
X145538748Y-118121635D01*
X145543132Y-118115724D01*
X145548075Y-118110270D01*
X145866273Y-117792072D01*
X145871727Y-117787129D01*
X145877638Y-117782745D01*
X145883951Y-117778961D01*
X145890605Y-117775814D01*
X145897535Y-117773334D01*
X145904674Y-117771546D01*
X145911955Y-117770466D01*
X145919306Y-117770105D01*
X145926657Y-117770466D01*
G37*
G36*
X145573104Y-117416913D02*
G01*
X145580385Y-117417993D01*
X145587524Y-117419781D01*
X145594454Y-117422261D01*
X145601108Y-117425408D01*
X145607421Y-117429192D01*
X145613332Y-117433576D01*
X145618786Y-117438519D01*
X145724852Y-117544585D01*
X145729795Y-117550039D01*
X145734179Y-117555950D01*
X145737963Y-117562263D01*
X145741110Y-117568917D01*
X145743590Y-117575847D01*
X145745378Y-117582986D01*
X145746458Y-117590267D01*
X145746819Y-117597618D01*
X145746458Y-117604969D01*
X145745378Y-117612250D01*
X145743590Y-117619389D01*
X145741110Y-117626319D01*
X145737963Y-117632973D01*
X145734179Y-117639286D01*
X145729795Y-117645197D01*
X145724852Y-117650651D01*
X145406654Y-117968849D01*
X145401200Y-117973792D01*
X145395289Y-117978176D01*
X145388976Y-117981960D01*
X145382322Y-117985107D01*
X145375392Y-117987587D01*
X145368253Y-117989375D01*
X145360972Y-117990455D01*
X145353621Y-117990816D01*
X145346270Y-117990455D01*
X145338989Y-117989375D01*
X145331850Y-117987587D01*
X145324920Y-117985107D01*
X145318266Y-117981960D01*
X145311953Y-117978176D01*
X145306042Y-117973792D01*
X145300588Y-117968849D01*
X145194522Y-117862783D01*
X145189579Y-117857329D01*
X145185195Y-117851418D01*
X145181411Y-117845105D01*
X145178264Y-117838451D01*
X145175784Y-117831521D01*
X145173996Y-117824382D01*
X145172916Y-117817101D01*
X145172555Y-117809750D01*
X145172916Y-117802399D01*
X145173996Y-117795118D01*
X145175784Y-117787979D01*
X145178264Y-117781049D01*
X145181411Y-117774395D01*
X145185195Y-117768082D01*
X145189579Y-117762171D01*
X145194522Y-117756717D01*
X145512720Y-117438519D01*
X145518174Y-117433576D01*
X145524085Y-117429192D01*
X145530398Y-117425408D01*
X145537052Y-117422261D01*
X145543982Y-117419781D01*
X145551121Y-117417993D01*
X145558402Y-117416913D01*
X145565753Y-117416552D01*
X145573104Y-117416913D01*
G37*
G36*
X145219550Y-117063360D02*
G01*
X145226831Y-117064440D01*
X145233970Y-117066228D01*
X145240900Y-117068708D01*
X145247554Y-117071855D01*
X145253867Y-117075639D01*
X145259778Y-117080023D01*
X145265232Y-117084966D01*
X145371298Y-117191032D01*
X145376241Y-117196486D01*
X145380625Y-117202397D01*
X145384409Y-117208710D01*
X145387556Y-117215364D01*
X145390036Y-117222294D01*
X145391824Y-117229433D01*
X145392904Y-117236714D01*
X145393265Y-117244065D01*
X145392904Y-117251416D01*
X145391824Y-117258697D01*
X145390036Y-117265836D01*
X145387556Y-117272766D01*
X145384409Y-117279420D01*
X145380625Y-117285733D01*
X145376241Y-117291644D01*
X145371298Y-117297098D01*
X145053100Y-117615296D01*
X145047646Y-117620239D01*
X145041735Y-117624623D01*
X145035422Y-117628407D01*
X145028768Y-117631554D01*
X145021838Y-117634034D01*
X145014699Y-117635822D01*
X145007418Y-117636902D01*
X145000067Y-117637263D01*
X144992716Y-117636902D01*
X144985435Y-117635822D01*
X144978296Y-117634034D01*
X144971366Y-117631554D01*
X144964712Y-117628407D01*
X144958399Y-117624623D01*
X144952488Y-117620239D01*
X144947034Y-117615296D01*
X144840968Y-117509230D01*
X144836025Y-117503776D01*
X144831641Y-117497865D01*
X144827857Y-117491552D01*
X144824710Y-117484898D01*
X144822230Y-117477968D01*
X144820442Y-117470829D01*
X144819362Y-117463548D01*
X144819001Y-117456197D01*
X144819362Y-117448846D01*
X144820442Y-117441565D01*
X144822230Y-117434426D01*
X144824710Y-117427496D01*
X144827857Y-117420842D01*
X144831641Y-117414529D01*
X144836025Y-117408618D01*
X144840968Y-117403164D01*
X145159166Y-117084966D01*
X145164620Y-117080023D01*
X145170531Y-117075639D01*
X145176844Y-117071855D01*
X145183498Y-117068708D01*
X145190428Y-117066228D01*
X145197567Y-117064440D01*
X145204848Y-117063360D01*
X145212199Y-117062999D01*
X145219550Y-117063360D01*
G37*
G36*
X144865997Y-116709806D02*
G01*
X144873278Y-116710886D01*
X144880417Y-116712674D01*
X144887347Y-116715154D01*
X144894001Y-116718301D01*
X144900314Y-116722085D01*
X144906225Y-116726469D01*
X144911679Y-116731412D01*
X145017745Y-116837478D01*
X145022688Y-116842932D01*
X145027072Y-116848843D01*
X145030856Y-116855156D01*
X145034003Y-116861810D01*
X145036483Y-116868740D01*
X145038271Y-116875879D01*
X145039351Y-116883160D01*
X145039712Y-116890511D01*
X145039351Y-116897862D01*
X145038271Y-116905143D01*
X145036483Y-116912282D01*
X145034003Y-116919212D01*
X145030856Y-116925866D01*
X145027072Y-116932179D01*
X145022688Y-116938090D01*
X145017745Y-116943544D01*
X144699547Y-117261742D01*
X144694093Y-117266685D01*
X144688182Y-117271069D01*
X144681869Y-117274853D01*
X144675215Y-117278000D01*
X144668285Y-117280480D01*
X144661146Y-117282268D01*
X144653865Y-117283348D01*
X144646514Y-117283709D01*
X144639163Y-117283348D01*
X144631882Y-117282268D01*
X144624743Y-117280480D01*
X144617813Y-117278000D01*
X144611159Y-117274853D01*
X144604846Y-117271069D01*
X144598935Y-117266685D01*
X144593481Y-117261742D01*
X144487415Y-117155676D01*
X144482472Y-117150222D01*
X144478088Y-117144311D01*
X144474304Y-117137998D01*
X144471157Y-117131344D01*
X144468677Y-117124414D01*
X144466889Y-117117275D01*
X144465809Y-117109994D01*
X144465448Y-117102643D01*
X144465809Y-117095292D01*
X144466889Y-117088011D01*
X144468677Y-117080872D01*
X144471157Y-117073942D01*
X144474304Y-117067288D01*
X144478088Y-117060975D01*
X144482472Y-117055064D01*
X144487415Y-117049610D01*
X144805613Y-116731412D01*
X144811067Y-116726469D01*
X144816978Y-116722085D01*
X144823291Y-116718301D01*
X144829945Y-116715154D01*
X144836875Y-116712674D01*
X144844014Y-116710886D01*
X144851295Y-116709806D01*
X144858646Y-116709445D01*
X144865997Y-116709806D01*
G37*
G36*
X144512443Y-116356253D02*
G01*
X144519724Y-116357333D01*
X144526863Y-116359121D01*
X144533793Y-116361601D01*
X144540447Y-116364748D01*
X144546760Y-116368532D01*
X144552671Y-116372916D01*
X144558125Y-116377859D01*
X144664191Y-116483925D01*
X144669134Y-116489379D01*
X144673518Y-116495290D01*
X144677302Y-116501603D01*
X144680449Y-116508257D01*
X144682929Y-116515187D01*
X144684717Y-116522326D01*
X144685797Y-116529607D01*
X144686158Y-116536958D01*
X144685797Y-116544309D01*
X144684717Y-116551590D01*
X144682929Y-116558729D01*
X144680449Y-116565659D01*
X144677302Y-116572313D01*
X144673518Y-116578626D01*
X144669134Y-116584537D01*
X144664191Y-116589991D01*
X144345993Y-116908189D01*
X144340539Y-116913132D01*
X144334628Y-116917516D01*
X144328315Y-116921300D01*
X144321661Y-116924447D01*
X144314731Y-116926927D01*
X144307592Y-116928715D01*
X144300311Y-116929795D01*
X144292960Y-116930156D01*
X144285609Y-116929795D01*
X144278328Y-116928715D01*
X144271189Y-116926927D01*
X144264259Y-116924447D01*
X144257605Y-116921300D01*
X144251292Y-116917516D01*
X144245381Y-116913132D01*
X144239927Y-116908189D01*
X144133861Y-116802123D01*
X144128918Y-116796669D01*
X144124534Y-116790758D01*
X144120750Y-116784445D01*
X144117603Y-116777791D01*
X144115123Y-116770861D01*
X144113335Y-116763722D01*
X144112255Y-116756441D01*
X144111894Y-116749090D01*
X144112255Y-116741739D01*
X144113335Y-116734458D01*
X144115123Y-116727319D01*
X144117603Y-116720389D01*
X144120750Y-116713735D01*
X144124534Y-116707422D01*
X144128918Y-116701511D01*
X144133861Y-116696057D01*
X144452059Y-116377859D01*
X144457513Y-116372916D01*
X144463424Y-116368532D01*
X144469737Y-116364748D01*
X144476391Y-116361601D01*
X144483321Y-116359121D01*
X144490460Y-116357333D01*
X144497741Y-116356253D01*
X144505092Y-116355892D01*
X144512443Y-116356253D01*
G37*
G36*
X144158890Y-116002700D02*
G01*
X144166171Y-116003780D01*
X144173310Y-116005568D01*
X144180240Y-116008048D01*
X144186894Y-116011195D01*
X144193207Y-116014979D01*
X144199118Y-116019363D01*
X144204572Y-116024306D01*
X144310638Y-116130372D01*
X144315581Y-116135826D01*
X144319965Y-116141737D01*
X144323749Y-116148050D01*
X144326896Y-116154704D01*
X144329376Y-116161634D01*
X144331164Y-116168773D01*
X144332244Y-116176054D01*
X144332605Y-116183405D01*
X144332244Y-116190756D01*
X144331164Y-116198037D01*
X144329376Y-116205176D01*
X144326896Y-116212106D01*
X144323749Y-116218760D01*
X144319965Y-116225073D01*
X144315581Y-116230984D01*
X144310638Y-116236438D01*
X143992440Y-116554636D01*
X143986986Y-116559579D01*
X143981075Y-116563963D01*
X143974762Y-116567747D01*
X143968108Y-116570894D01*
X143961178Y-116573374D01*
X143954039Y-116575162D01*
X143946758Y-116576242D01*
X143939407Y-116576603D01*
X143932056Y-116576242D01*
X143924775Y-116575162D01*
X143917636Y-116573374D01*
X143910706Y-116570894D01*
X143904052Y-116567747D01*
X143897739Y-116563963D01*
X143891828Y-116559579D01*
X143886374Y-116554636D01*
X143780308Y-116448570D01*
X143775365Y-116443116D01*
X143770981Y-116437205D01*
X143767197Y-116430892D01*
X143764050Y-116424238D01*
X143761570Y-116417308D01*
X143759782Y-116410169D01*
X143758702Y-116402888D01*
X143758341Y-116395537D01*
X143758702Y-116388186D01*
X143759782Y-116380905D01*
X143761570Y-116373766D01*
X143764050Y-116366836D01*
X143767197Y-116360182D01*
X143770981Y-116353869D01*
X143775365Y-116347958D01*
X143780308Y-116342504D01*
X144098506Y-116024306D01*
X144103960Y-116019363D01*
X144109871Y-116014979D01*
X144116184Y-116011195D01*
X144122838Y-116008048D01*
X144129768Y-116005568D01*
X144136907Y-116003780D01*
X144144188Y-116002700D01*
X144151539Y-116002339D01*
X144158890Y-116002700D01*
G37*
G36*
X143805337Y-115649146D02*
G01*
X143812618Y-115650226D01*
X143819757Y-115652014D01*
X143826687Y-115654494D01*
X143833341Y-115657641D01*
X143839654Y-115661425D01*
X143845565Y-115665809D01*
X143851019Y-115670752D01*
X143957085Y-115776818D01*
X143962028Y-115782272D01*
X143966412Y-115788183D01*
X143970196Y-115794496D01*
X143973343Y-115801150D01*
X143975823Y-115808080D01*
X143977611Y-115815219D01*
X143978691Y-115822500D01*
X143979052Y-115829851D01*
X143978691Y-115837202D01*
X143977611Y-115844483D01*
X143975823Y-115851622D01*
X143973343Y-115858552D01*
X143970196Y-115865206D01*
X143966412Y-115871519D01*
X143962028Y-115877430D01*
X143957085Y-115882884D01*
X143638887Y-116201082D01*
X143633433Y-116206025D01*
X143627522Y-116210409D01*
X143621209Y-116214193D01*
X143614555Y-116217340D01*
X143607625Y-116219820D01*
X143600486Y-116221608D01*
X143593205Y-116222688D01*
X143585854Y-116223049D01*
X143578503Y-116222688D01*
X143571222Y-116221608D01*
X143564083Y-116219820D01*
X143557153Y-116217340D01*
X143550499Y-116214193D01*
X143544186Y-116210409D01*
X143538275Y-116206025D01*
X143532821Y-116201082D01*
X143426755Y-116095016D01*
X143421812Y-116089562D01*
X143417428Y-116083651D01*
X143413644Y-116077338D01*
X143410497Y-116070684D01*
X143408017Y-116063754D01*
X143406229Y-116056615D01*
X143405149Y-116049334D01*
X143404788Y-116041983D01*
X143405149Y-116034632D01*
X143406229Y-116027351D01*
X143408017Y-116020212D01*
X143410497Y-116013282D01*
X143413644Y-116006628D01*
X143417428Y-116000315D01*
X143421812Y-115994404D01*
X143426755Y-115988950D01*
X143744953Y-115670752D01*
X143750407Y-115665809D01*
X143756318Y-115661425D01*
X143762631Y-115657641D01*
X143769285Y-115654494D01*
X143776215Y-115652014D01*
X143783354Y-115650226D01*
X143790635Y-115649146D01*
X143797986Y-115648785D01*
X143805337Y-115649146D01*
G37*
G36*
X143451783Y-115295593D02*
G01*
X143459064Y-115296673D01*
X143466203Y-115298461D01*
X143473133Y-115300941D01*
X143479787Y-115304088D01*
X143486100Y-115307872D01*
X143492011Y-115312256D01*
X143497465Y-115317199D01*
X143603531Y-115423265D01*
X143608474Y-115428719D01*
X143612858Y-115434630D01*
X143616642Y-115440943D01*
X143619789Y-115447597D01*
X143622269Y-115454527D01*
X143624057Y-115461666D01*
X143625137Y-115468947D01*
X143625498Y-115476298D01*
X143625137Y-115483649D01*
X143624057Y-115490930D01*
X143622269Y-115498069D01*
X143619789Y-115504999D01*
X143616642Y-115511653D01*
X143612858Y-115517966D01*
X143608474Y-115523877D01*
X143603531Y-115529331D01*
X143285333Y-115847529D01*
X143279879Y-115852472D01*
X143273968Y-115856856D01*
X143267655Y-115860640D01*
X143261001Y-115863787D01*
X143254071Y-115866267D01*
X143246932Y-115868055D01*
X143239651Y-115869135D01*
X143232300Y-115869496D01*
X143224949Y-115869135D01*
X143217668Y-115868055D01*
X143210529Y-115866267D01*
X143203599Y-115863787D01*
X143196945Y-115860640D01*
X143190632Y-115856856D01*
X143184721Y-115852472D01*
X143179267Y-115847529D01*
X143073201Y-115741463D01*
X143068258Y-115736009D01*
X143063874Y-115730098D01*
X143060090Y-115723785D01*
X143056943Y-115717131D01*
X143054463Y-115710201D01*
X143052675Y-115703062D01*
X143051595Y-115695781D01*
X143051234Y-115688430D01*
X143051595Y-115681079D01*
X143052675Y-115673798D01*
X143054463Y-115666659D01*
X143056943Y-115659729D01*
X143060090Y-115653075D01*
X143063874Y-115646762D01*
X143068258Y-115640851D01*
X143073201Y-115635397D01*
X143391399Y-115317199D01*
X143396853Y-115312256D01*
X143402764Y-115307872D01*
X143409077Y-115304088D01*
X143415731Y-115300941D01*
X143422661Y-115298461D01*
X143429800Y-115296673D01*
X143437081Y-115295593D01*
X143444432Y-115295232D01*
X143451783Y-115295593D01*
G37*
G36*
X143239651Y-114517775D02*
G01*
X143246932Y-114518855D01*
X143254071Y-114520643D01*
X143261001Y-114523123D01*
X143267655Y-114526270D01*
X143273968Y-114530054D01*
X143279879Y-114534438D01*
X143285333Y-114539381D01*
X143603531Y-114857579D01*
X143608474Y-114863033D01*
X143612858Y-114868944D01*
X143616642Y-114875257D01*
X143619789Y-114881911D01*
X143622269Y-114888841D01*
X143624057Y-114895980D01*
X143625137Y-114903261D01*
X143625498Y-114910612D01*
X143625137Y-114917963D01*
X143624057Y-114925244D01*
X143622269Y-114932383D01*
X143619789Y-114939313D01*
X143616642Y-114945967D01*
X143612858Y-114952280D01*
X143608474Y-114958191D01*
X143603531Y-114963645D01*
X143497465Y-115069711D01*
X143492011Y-115074654D01*
X143486100Y-115079038D01*
X143479787Y-115082822D01*
X143473133Y-115085969D01*
X143466203Y-115088449D01*
X143459064Y-115090237D01*
X143451783Y-115091317D01*
X143444432Y-115091678D01*
X143437081Y-115091317D01*
X143429800Y-115090237D01*
X143422661Y-115088449D01*
X143415731Y-115085969D01*
X143409077Y-115082822D01*
X143402764Y-115079038D01*
X143396853Y-115074654D01*
X143391399Y-115069711D01*
X143073201Y-114751513D01*
X143068258Y-114746059D01*
X143063874Y-114740148D01*
X143060090Y-114733835D01*
X143056943Y-114727181D01*
X143054463Y-114720251D01*
X143052675Y-114713112D01*
X143051595Y-114705831D01*
X143051234Y-114698480D01*
X143051595Y-114691129D01*
X143052675Y-114683848D01*
X143054463Y-114676709D01*
X143056943Y-114669779D01*
X143060090Y-114663125D01*
X143063874Y-114656812D01*
X143068258Y-114650901D01*
X143073201Y-114645447D01*
X143179267Y-114539381D01*
X143184721Y-114534438D01*
X143190632Y-114530054D01*
X143196945Y-114526270D01*
X143203599Y-114523123D01*
X143210529Y-114520643D01*
X143217668Y-114518855D01*
X143224949Y-114517775D01*
X143232300Y-114517414D01*
X143239651Y-114517775D01*
G37*
G36*
X143593205Y-114164222D02*
G01*
X143600486Y-114165302D01*
X143607625Y-114167090D01*
X143614555Y-114169570D01*
X143621209Y-114172717D01*
X143627522Y-114176501D01*
X143633433Y-114180885D01*
X143638887Y-114185828D01*
X143957085Y-114504026D01*
X143962028Y-114509480D01*
X143966412Y-114515391D01*
X143970196Y-114521704D01*
X143973343Y-114528358D01*
X143975823Y-114535288D01*
X143977611Y-114542427D01*
X143978691Y-114549708D01*
X143979052Y-114557059D01*
X143978691Y-114564410D01*
X143977611Y-114571691D01*
X143975823Y-114578830D01*
X143973343Y-114585760D01*
X143970196Y-114592414D01*
X143966412Y-114598727D01*
X143962028Y-114604638D01*
X143957085Y-114610092D01*
X143851019Y-114716158D01*
X143845565Y-114721101D01*
X143839654Y-114725485D01*
X143833341Y-114729269D01*
X143826687Y-114732416D01*
X143819757Y-114734896D01*
X143812618Y-114736684D01*
X143805337Y-114737764D01*
X143797986Y-114738125D01*
X143790635Y-114737764D01*
X143783354Y-114736684D01*
X143776215Y-114734896D01*
X143769285Y-114732416D01*
X143762631Y-114729269D01*
X143756318Y-114725485D01*
X143750407Y-114721101D01*
X143744953Y-114716158D01*
X143426755Y-114397960D01*
X143421812Y-114392506D01*
X143417428Y-114386595D01*
X143413644Y-114380282D01*
X143410497Y-114373628D01*
X143408017Y-114366698D01*
X143406229Y-114359559D01*
X143405149Y-114352278D01*
X143404788Y-114344927D01*
X143405149Y-114337576D01*
X143406229Y-114330295D01*
X143408017Y-114323156D01*
X143410497Y-114316226D01*
X143413644Y-114309572D01*
X143417428Y-114303259D01*
X143421812Y-114297348D01*
X143426755Y-114291894D01*
X143532821Y-114185828D01*
X143538275Y-114180885D01*
X143544186Y-114176501D01*
X143550499Y-114172717D01*
X143557153Y-114169570D01*
X143564083Y-114167090D01*
X143571222Y-114165302D01*
X143578503Y-114164222D01*
X143585854Y-114163861D01*
X143593205Y-114164222D01*
G37*
G36*
X143946758Y-113810668D02*
G01*
X143954039Y-113811748D01*
X143961178Y-113813536D01*
X143968108Y-113816016D01*
X143974762Y-113819163D01*
X143981075Y-113822947D01*
X143986986Y-113827331D01*
X143992440Y-113832274D01*
X144310638Y-114150472D01*
X144315581Y-114155926D01*
X144319965Y-114161837D01*
X144323749Y-114168150D01*
X144326896Y-114174804D01*
X144329376Y-114181734D01*
X144331164Y-114188873D01*
X144332244Y-114196154D01*
X144332605Y-114203505D01*
X144332244Y-114210856D01*
X144331164Y-114218137D01*
X144329376Y-114225276D01*
X144326896Y-114232206D01*
X144323749Y-114238860D01*
X144319965Y-114245173D01*
X144315581Y-114251084D01*
X144310638Y-114256538D01*
X144204572Y-114362604D01*
X144199118Y-114367547D01*
X144193207Y-114371931D01*
X144186894Y-114375715D01*
X144180240Y-114378862D01*
X144173310Y-114381342D01*
X144166171Y-114383130D01*
X144158890Y-114384210D01*
X144151539Y-114384571D01*
X144144188Y-114384210D01*
X144136907Y-114383130D01*
X144129768Y-114381342D01*
X144122838Y-114378862D01*
X144116184Y-114375715D01*
X144109871Y-114371931D01*
X144103960Y-114367547D01*
X144098506Y-114362604D01*
X143780308Y-114044406D01*
X143775365Y-114038952D01*
X143770981Y-114033041D01*
X143767197Y-114026728D01*
X143764050Y-114020074D01*
X143761570Y-114013144D01*
X143759782Y-114006005D01*
X143758702Y-113998724D01*
X143758341Y-113991373D01*
X143758702Y-113984022D01*
X143759782Y-113976741D01*
X143761570Y-113969602D01*
X143764050Y-113962672D01*
X143767197Y-113956018D01*
X143770981Y-113949705D01*
X143775365Y-113943794D01*
X143780308Y-113938340D01*
X143886374Y-113832274D01*
X143891828Y-113827331D01*
X143897739Y-113822947D01*
X143904052Y-113819163D01*
X143910706Y-113816016D01*
X143917636Y-113813536D01*
X143924775Y-113811748D01*
X143932056Y-113810668D01*
X143939407Y-113810307D01*
X143946758Y-113810668D01*
G37*
G36*
X144300311Y-113457115D02*
G01*
X144307592Y-113458195D01*
X144314731Y-113459983D01*
X144321661Y-113462463D01*
X144328315Y-113465610D01*
X144334628Y-113469394D01*
X144340539Y-113473778D01*
X144345993Y-113478721D01*
X144664191Y-113796919D01*
X144669134Y-113802373D01*
X144673518Y-113808284D01*
X144677302Y-113814597D01*
X144680449Y-113821251D01*
X144682929Y-113828181D01*
X144684717Y-113835320D01*
X144685797Y-113842601D01*
X144686158Y-113849952D01*
X144685797Y-113857303D01*
X144684717Y-113864584D01*
X144682929Y-113871723D01*
X144680449Y-113878653D01*
X144677302Y-113885307D01*
X144673518Y-113891620D01*
X144669134Y-113897531D01*
X144664191Y-113902985D01*
X144558125Y-114009051D01*
X144552671Y-114013994D01*
X144546760Y-114018378D01*
X144540447Y-114022162D01*
X144533793Y-114025309D01*
X144526863Y-114027789D01*
X144519724Y-114029577D01*
X144512443Y-114030657D01*
X144505092Y-114031018D01*
X144497741Y-114030657D01*
X144490460Y-114029577D01*
X144483321Y-114027789D01*
X144476391Y-114025309D01*
X144469737Y-114022162D01*
X144463424Y-114018378D01*
X144457513Y-114013994D01*
X144452059Y-114009051D01*
X144133861Y-113690853D01*
X144128918Y-113685399D01*
X144124534Y-113679488D01*
X144120750Y-113673175D01*
X144117603Y-113666521D01*
X144115123Y-113659591D01*
X144113335Y-113652452D01*
X144112255Y-113645171D01*
X144111894Y-113637820D01*
X144112255Y-113630469D01*
X144113335Y-113623188D01*
X144115123Y-113616049D01*
X144117603Y-113609119D01*
X144120750Y-113602465D01*
X144124534Y-113596152D01*
X144128918Y-113590241D01*
X144133861Y-113584787D01*
X144239927Y-113478721D01*
X144245381Y-113473778D01*
X144251292Y-113469394D01*
X144257605Y-113465610D01*
X144264259Y-113462463D01*
X144271189Y-113459983D01*
X144278328Y-113458195D01*
X144285609Y-113457115D01*
X144292960Y-113456754D01*
X144300311Y-113457115D01*
G37*
G36*
X144653865Y-113103562D02*
G01*
X144661146Y-113104642D01*
X144668285Y-113106430D01*
X144675215Y-113108910D01*
X144681869Y-113112057D01*
X144688182Y-113115841D01*
X144694093Y-113120225D01*
X144699547Y-113125168D01*
X145017745Y-113443366D01*
X145022688Y-113448820D01*
X145027072Y-113454731D01*
X145030856Y-113461044D01*
X145034003Y-113467698D01*
X145036483Y-113474628D01*
X145038271Y-113481767D01*
X145039351Y-113489048D01*
X145039712Y-113496399D01*
X145039351Y-113503750D01*
X145038271Y-113511031D01*
X145036483Y-113518170D01*
X145034003Y-113525100D01*
X145030856Y-113531754D01*
X145027072Y-113538067D01*
X145022688Y-113543978D01*
X145017745Y-113549432D01*
X144911679Y-113655498D01*
X144906225Y-113660441D01*
X144900314Y-113664825D01*
X144894001Y-113668609D01*
X144887347Y-113671756D01*
X144880417Y-113674236D01*
X144873278Y-113676024D01*
X144865997Y-113677104D01*
X144858646Y-113677465D01*
X144851295Y-113677104D01*
X144844014Y-113676024D01*
X144836875Y-113674236D01*
X144829945Y-113671756D01*
X144823291Y-113668609D01*
X144816978Y-113664825D01*
X144811067Y-113660441D01*
X144805613Y-113655498D01*
X144487415Y-113337300D01*
X144482472Y-113331846D01*
X144478088Y-113325935D01*
X144474304Y-113319622D01*
X144471157Y-113312968D01*
X144468677Y-113306038D01*
X144466889Y-113298899D01*
X144465809Y-113291618D01*
X144465448Y-113284267D01*
X144465809Y-113276916D01*
X144466889Y-113269635D01*
X144468677Y-113262496D01*
X144471157Y-113255566D01*
X144474304Y-113248912D01*
X144478088Y-113242599D01*
X144482472Y-113236688D01*
X144487415Y-113231234D01*
X144593481Y-113125168D01*
X144598935Y-113120225D01*
X144604846Y-113115841D01*
X144611159Y-113112057D01*
X144617813Y-113108910D01*
X144624743Y-113106430D01*
X144631882Y-113104642D01*
X144639163Y-113103562D01*
X144646514Y-113103201D01*
X144653865Y-113103562D01*
G37*
G36*
X145007418Y-112750008D02*
G01*
X145014699Y-112751088D01*
X145021838Y-112752876D01*
X145028768Y-112755356D01*
X145035422Y-112758503D01*
X145041735Y-112762287D01*
X145047646Y-112766671D01*
X145053100Y-112771614D01*
X145371298Y-113089812D01*
X145376241Y-113095266D01*
X145380625Y-113101177D01*
X145384409Y-113107490D01*
X145387556Y-113114144D01*
X145390036Y-113121074D01*
X145391824Y-113128213D01*
X145392904Y-113135494D01*
X145393265Y-113142845D01*
X145392904Y-113150196D01*
X145391824Y-113157477D01*
X145390036Y-113164616D01*
X145387556Y-113171546D01*
X145384409Y-113178200D01*
X145380625Y-113184513D01*
X145376241Y-113190424D01*
X145371298Y-113195878D01*
X145265232Y-113301944D01*
X145259778Y-113306887D01*
X145253867Y-113311271D01*
X145247554Y-113315055D01*
X145240900Y-113318202D01*
X145233970Y-113320682D01*
X145226831Y-113322470D01*
X145219550Y-113323550D01*
X145212199Y-113323911D01*
X145204848Y-113323550D01*
X145197567Y-113322470D01*
X145190428Y-113320682D01*
X145183498Y-113318202D01*
X145176844Y-113315055D01*
X145170531Y-113311271D01*
X145164620Y-113306887D01*
X145159166Y-113301944D01*
X144840968Y-112983746D01*
X144836025Y-112978292D01*
X144831641Y-112972381D01*
X144827857Y-112966068D01*
X144824710Y-112959414D01*
X144822230Y-112952484D01*
X144820442Y-112945345D01*
X144819362Y-112938064D01*
X144819001Y-112930713D01*
X144819362Y-112923362D01*
X144820442Y-112916081D01*
X144822230Y-112908942D01*
X144824710Y-112902012D01*
X144827857Y-112895358D01*
X144831641Y-112889045D01*
X144836025Y-112883134D01*
X144840968Y-112877680D01*
X144947034Y-112771614D01*
X144952488Y-112766671D01*
X144958399Y-112762287D01*
X144964712Y-112758503D01*
X144971366Y-112755356D01*
X144978296Y-112752876D01*
X144985435Y-112751088D01*
X144992716Y-112750008D01*
X145000067Y-112749647D01*
X145007418Y-112750008D01*
G37*
G36*
X145360972Y-112396455D02*
G01*
X145368253Y-112397535D01*
X145375392Y-112399323D01*
X145382322Y-112401803D01*
X145388976Y-112404950D01*
X145395289Y-112408734D01*
X145401200Y-112413118D01*
X145406654Y-112418061D01*
X145724852Y-112736259D01*
X145729795Y-112741713D01*
X145734179Y-112747624D01*
X145737963Y-112753937D01*
X145741110Y-112760591D01*
X145743590Y-112767521D01*
X145745378Y-112774660D01*
X145746458Y-112781941D01*
X145746819Y-112789292D01*
X145746458Y-112796643D01*
X145745378Y-112803924D01*
X145743590Y-112811063D01*
X145741110Y-112817993D01*
X145737963Y-112824647D01*
X145734179Y-112830960D01*
X145729795Y-112836871D01*
X145724852Y-112842325D01*
X145618786Y-112948391D01*
X145613332Y-112953334D01*
X145607421Y-112957718D01*
X145601108Y-112961502D01*
X145594454Y-112964649D01*
X145587524Y-112967129D01*
X145580385Y-112968917D01*
X145573104Y-112969997D01*
X145565753Y-112970358D01*
X145558402Y-112969997D01*
X145551121Y-112968917D01*
X145543982Y-112967129D01*
X145537052Y-112964649D01*
X145530398Y-112961502D01*
X145524085Y-112957718D01*
X145518174Y-112953334D01*
X145512720Y-112948391D01*
X145194522Y-112630193D01*
X145189579Y-112624739D01*
X145185195Y-112618828D01*
X145181411Y-112612515D01*
X145178264Y-112605861D01*
X145175784Y-112598931D01*
X145173996Y-112591792D01*
X145172916Y-112584511D01*
X145172555Y-112577160D01*
X145172916Y-112569809D01*
X145173996Y-112562528D01*
X145175784Y-112555389D01*
X145178264Y-112548459D01*
X145181411Y-112541805D01*
X145185195Y-112535492D01*
X145189579Y-112529581D01*
X145194522Y-112524127D01*
X145300588Y-112418061D01*
X145306042Y-112413118D01*
X145311953Y-112408734D01*
X145318266Y-112404950D01*
X145324920Y-112401803D01*
X145331850Y-112399323D01*
X145338989Y-112397535D01*
X145346270Y-112396455D01*
X145353621Y-112396094D01*
X145360972Y-112396455D01*
G37*
G36*
X145714525Y-112042902D02*
G01*
X145721806Y-112043982D01*
X145728945Y-112045770D01*
X145735875Y-112048250D01*
X145742529Y-112051397D01*
X145748842Y-112055181D01*
X145754753Y-112059565D01*
X145760207Y-112064508D01*
X146078405Y-112382706D01*
X146083348Y-112388160D01*
X146087732Y-112394071D01*
X146091516Y-112400384D01*
X146094663Y-112407038D01*
X146097143Y-112413968D01*
X146098931Y-112421107D01*
X146100011Y-112428388D01*
X146100372Y-112435739D01*
X146100011Y-112443090D01*
X146098931Y-112450371D01*
X146097143Y-112457510D01*
X146094663Y-112464440D01*
X146091516Y-112471094D01*
X146087732Y-112477407D01*
X146083348Y-112483318D01*
X146078405Y-112488772D01*
X145972339Y-112594838D01*
X145966885Y-112599781D01*
X145960974Y-112604165D01*
X145954661Y-112607949D01*
X145948007Y-112611096D01*
X145941077Y-112613576D01*
X145933938Y-112615364D01*
X145926657Y-112616444D01*
X145919306Y-112616805D01*
X145911955Y-112616444D01*
X145904674Y-112615364D01*
X145897535Y-112613576D01*
X145890605Y-112611096D01*
X145883951Y-112607949D01*
X145877638Y-112604165D01*
X145871727Y-112599781D01*
X145866273Y-112594838D01*
X145548075Y-112276640D01*
X145543132Y-112271186D01*
X145538748Y-112265275D01*
X145534964Y-112258962D01*
X145531817Y-112252308D01*
X145529337Y-112245378D01*
X145527549Y-112238239D01*
X145526469Y-112230958D01*
X145526108Y-112223607D01*
X145526469Y-112216256D01*
X145527549Y-112208975D01*
X145529337Y-112201836D01*
X145531817Y-112194906D01*
X145534964Y-112188252D01*
X145538748Y-112181939D01*
X145543132Y-112176028D01*
X145548075Y-112170574D01*
X145654141Y-112064508D01*
X145659595Y-112059565D01*
X145665506Y-112055181D01*
X145671819Y-112051397D01*
X145678473Y-112048250D01*
X145685403Y-112045770D01*
X145692542Y-112043982D01*
X145699823Y-112042902D01*
X145707174Y-112042541D01*
X145714525Y-112042902D01*
G37*
G36*
X146068078Y-111689348D02*
G01*
X146075359Y-111690428D01*
X146082498Y-111692216D01*
X146089428Y-111694696D01*
X146096082Y-111697843D01*
X146102395Y-111701627D01*
X146108306Y-111706011D01*
X146113760Y-111710954D01*
X146431958Y-112029152D01*
X146436901Y-112034606D01*
X146441285Y-112040517D01*
X146445069Y-112046830D01*
X146448216Y-112053484D01*
X146450696Y-112060414D01*
X146452484Y-112067553D01*
X146453564Y-112074834D01*
X146453925Y-112082185D01*
X146453564Y-112089536D01*
X146452484Y-112096817D01*
X146450696Y-112103956D01*
X146448216Y-112110886D01*
X146445069Y-112117540D01*
X146441285Y-112123853D01*
X146436901Y-112129764D01*
X146431958Y-112135218D01*
X146325892Y-112241284D01*
X146320438Y-112246227D01*
X146314527Y-112250611D01*
X146308214Y-112254395D01*
X146301560Y-112257542D01*
X146294630Y-112260022D01*
X146287491Y-112261810D01*
X146280210Y-112262890D01*
X146272859Y-112263251D01*
X146265508Y-112262890D01*
X146258227Y-112261810D01*
X146251088Y-112260022D01*
X146244158Y-112257542D01*
X146237504Y-112254395D01*
X146231191Y-112250611D01*
X146225280Y-112246227D01*
X146219826Y-112241284D01*
X145901628Y-111923086D01*
X145896685Y-111917632D01*
X145892301Y-111911721D01*
X145888517Y-111905408D01*
X145885370Y-111898754D01*
X145882890Y-111891824D01*
X145881102Y-111884685D01*
X145880022Y-111877404D01*
X145879661Y-111870053D01*
X145880022Y-111862702D01*
X145881102Y-111855421D01*
X145882890Y-111848282D01*
X145885370Y-111841352D01*
X145888517Y-111834698D01*
X145892301Y-111828385D01*
X145896685Y-111822474D01*
X145901628Y-111817020D01*
X146007694Y-111710954D01*
X146013148Y-111706011D01*
X146019059Y-111701627D01*
X146025372Y-111697843D01*
X146032026Y-111694696D01*
X146038956Y-111692216D01*
X146046095Y-111690428D01*
X146053376Y-111689348D01*
X146060727Y-111688987D01*
X146068078Y-111689348D01*
G37*
G36*
X146421632Y-111335795D02*
G01*
X146428913Y-111336875D01*
X146436052Y-111338663D01*
X146442982Y-111341143D01*
X146449636Y-111344290D01*
X146455949Y-111348074D01*
X146461860Y-111352458D01*
X146467314Y-111357401D01*
X146785512Y-111675599D01*
X146790455Y-111681053D01*
X146794839Y-111686964D01*
X146798623Y-111693277D01*
X146801770Y-111699931D01*
X146804250Y-111706861D01*
X146806038Y-111714000D01*
X146807118Y-111721281D01*
X146807479Y-111728632D01*
X146807118Y-111735983D01*
X146806038Y-111743264D01*
X146804250Y-111750403D01*
X146801770Y-111757333D01*
X146798623Y-111763987D01*
X146794839Y-111770300D01*
X146790455Y-111776211D01*
X146785512Y-111781665D01*
X146679446Y-111887731D01*
X146673992Y-111892674D01*
X146668081Y-111897058D01*
X146661768Y-111900842D01*
X146655114Y-111903989D01*
X146648184Y-111906469D01*
X146641045Y-111908257D01*
X146633764Y-111909337D01*
X146626413Y-111909698D01*
X146619062Y-111909337D01*
X146611781Y-111908257D01*
X146604642Y-111906469D01*
X146597712Y-111903989D01*
X146591058Y-111900842D01*
X146584745Y-111897058D01*
X146578834Y-111892674D01*
X146573380Y-111887731D01*
X146255182Y-111569533D01*
X146250239Y-111564079D01*
X146245855Y-111558168D01*
X146242071Y-111551855D01*
X146238924Y-111545201D01*
X146236444Y-111538271D01*
X146234656Y-111531132D01*
X146233576Y-111523851D01*
X146233215Y-111516500D01*
X146233576Y-111509149D01*
X146234656Y-111501868D01*
X146236444Y-111494729D01*
X146238924Y-111487799D01*
X146242071Y-111481145D01*
X146245855Y-111474832D01*
X146250239Y-111468921D01*
X146255182Y-111463467D01*
X146361248Y-111357401D01*
X146366702Y-111352458D01*
X146372613Y-111348074D01*
X146378926Y-111344290D01*
X146385580Y-111341143D01*
X146392510Y-111338663D01*
X146399649Y-111336875D01*
X146406930Y-111335795D01*
X146414281Y-111335434D01*
X146421632Y-111335795D01*
G37*
G36*
X146775185Y-110982241D02*
G01*
X146782466Y-110983321D01*
X146789605Y-110985109D01*
X146796535Y-110987589D01*
X146803189Y-110990736D01*
X146809502Y-110994520D01*
X146815413Y-110998904D01*
X146820867Y-111003847D01*
X147139065Y-111322045D01*
X147144008Y-111327499D01*
X147148392Y-111333410D01*
X147152176Y-111339723D01*
X147155323Y-111346377D01*
X147157803Y-111353307D01*
X147159591Y-111360446D01*
X147160671Y-111367727D01*
X147161032Y-111375078D01*
X147160671Y-111382429D01*
X147159591Y-111389710D01*
X147157803Y-111396849D01*
X147155323Y-111403779D01*
X147152176Y-111410433D01*
X147148392Y-111416746D01*
X147144008Y-111422657D01*
X147139065Y-111428111D01*
X147032999Y-111534177D01*
X147027545Y-111539120D01*
X147021634Y-111543504D01*
X147015321Y-111547288D01*
X147008667Y-111550435D01*
X147001737Y-111552915D01*
X146994598Y-111554703D01*
X146987317Y-111555783D01*
X146979966Y-111556144D01*
X146972615Y-111555783D01*
X146965334Y-111554703D01*
X146958195Y-111552915D01*
X146951265Y-111550435D01*
X146944611Y-111547288D01*
X146938298Y-111543504D01*
X146932387Y-111539120D01*
X146926933Y-111534177D01*
X146608735Y-111215979D01*
X146603792Y-111210525D01*
X146599408Y-111204614D01*
X146595624Y-111198301D01*
X146592477Y-111191647D01*
X146589997Y-111184717D01*
X146588209Y-111177578D01*
X146587129Y-111170297D01*
X146586768Y-111162946D01*
X146587129Y-111155595D01*
X146588209Y-111148314D01*
X146589997Y-111141175D01*
X146592477Y-111134245D01*
X146595624Y-111127591D01*
X146599408Y-111121278D01*
X146603792Y-111115367D01*
X146608735Y-111109913D01*
X146714801Y-111003847D01*
X146720255Y-110998904D01*
X146726166Y-110994520D01*
X146732479Y-110990736D01*
X146739133Y-110987589D01*
X146746063Y-110985109D01*
X146753202Y-110983321D01*
X146760483Y-110982241D01*
X146767834Y-110981880D01*
X146775185Y-110982241D01*
G37*
G36*
X147128738Y-110628688D02*
G01*
X147136019Y-110629768D01*
X147143158Y-110631556D01*
X147150088Y-110634036D01*
X147156742Y-110637183D01*
X147163055Y-110640967D01*
X147168966Y-110645351D01*
X147174420Y-110650294D01*
X147492618Y-110968492D01*
X147497561Y-110973946D01*
X147501945Y-110979857D01*
X147505729Y-110986170D01*
X147508876Y-110992824D01*
X147511356Y-110999754D01*
X147513144Y-111006893D01*
X147514224Y-111014174D01*
X147514585Y-111021525D01*
X147514224Y-111028876D01*
X147513144Y-111036157D01*
X147511356Y-111043296D01*
X147508876Y-111050226D01*
X147505729Y-111056880D01*
X147501945Y-111063193D01*
X147497561Y-111069104D01*
X147492618Y-111074558D01*
X147386552Y-111180624D01*
X147381098Y-111185567D01*
X147375187Y-111189951D01*
X147368874Y-111193735D01*
X147362220Y-111196882D01*
X147355290Y-111199362D01*
X147348151Y-111201150D01*
X147340870Y-111202230D01*
X147333519Y-111202591D01*
X147326168Y-111202230D01*
X147318887Y-111201150D01*
X147311748Y-111199362D01*
X147304818Y-111196882D01*
X147298164Y-111193735D01*
X147291851Y-111189951D01*
X147285940Y-111185567D01*
X147280486Y-111180624D01*
X146962288Y-110862426D01*
X146957345Y-110856972D01*
X146952961Y-110851061D01*
X146949177Y-110844748D01*
X146946030Y-110838094D01*
X146943550Y-110831164D01*
X146941762Y-110824025D01*
X146940682Y-110816744D01*
X146940321Y-110809393D01*
X146940682Y-110802042D01*
X146941762Y-110794761D01*
X146943550Y-110787622D01*
X146946030Y-110780692D01*
X146949177Y-110774038D01*
X146952961Y-110767725D01*
X146957345Y-110761814D01*
X146962288Y-110756360D01*
X147068354Y-110650294D01*
X147073808Y-110645351D01*
X147079719Y-110640967D01*
X147086032Y-110637183D01*
X147092686Y-110634036D01*
X147099616Y-110631556D01*
X147106755Y-110629768D01*
X147114036Y-110628688D01*
X147121387Y-110628327D01*
X147128738Y-110628688D01*
G37*
G36*
X147482292Y-110275135D02*
G01*
X147489573Y-110276215D01*
X147496712Y-110278003D01*
X147503642Y-110280483D01*
X147510296Y-110283630D01*
X147516609Y-110287414D01*
X147522520Y-110291798D01*
X147527974Y-110296741D01*
X147846172Y-110614939D01*
X147851115Y-110620393D01*
X147855499Y-110626304D01*
X147859283Y-110632617D01*
X147862430Y-110639271D01*
X147864910Y-110646201D01*
X147866698Y-110653340D01*
X147867778Y-110660621D01*
X147868139Y-110667972D01*
X147867778Y-110675323D01*
X147866698Y-110682604D01*
X147864910Y-110689743D01*
X147862430Y-110696673D01*
X147859283Y-110703327D01*
X147855499Y-110709640D01*
X147851115Y-110715551D01*
X147846172Y-110721005D01*
X147740106Y-110827071D01*
X147734652Y-110832014D01*
X147728741Y-110836398D01*
X147722428Y-110840182D01*
X147715774Y-110843329D01*
X147708844Y-110845809D01*
X147701705Y-110847597D01*
X147694424Y-110848677D01*
X147687073Y-110849038D01*
X147679722Y-110848677D01*
X147672441Y-110847597D01*
X147665302Y-110845809D01*
X147658372Y-110843329D01*
X147651718Y-110840182D01*
X147645405Y-110836398D01*
X147639494Y-110832014D01*
X147634040Y-110827071D01*
X147315842Y-110508873D01*
X147310899Y-110503419D01*
X147306515Y-110497508D01*
X147302731Y-110491195D01*
X147299584Y-110484541D01*
X147297104Y-110477611D01*
X147295316Y-110470472D01*
X147294236Y-110463191D01*
X147293875Y-110455840D01*
X147294236Y-110448489D01*
X147295316Y-110441208D01*
X147297104Y-110434069D01*
X147299584Y-110427139D01*
X147302731Y-110420485D01*
X147306515Y-110414172D01*
X147310899Y-110408261D01*
X147315842Y-110402807D01*
X147421908Y-110296741D01*
X147427362Y-110291798D01*
X147433273Y-110287414D01*
X147439586Y-110283630D01*
X147446240Y-110280483D01*
X147453170Y-110278003D01*
X147460309Y-110276215D01*
X147467590Y-110275135D01*
X147474941Y-110274774D01*
X147482292Y-110275135D01*
G37*
G36*
X147835845Y-109921581D02*
G01*
X147843126Y-109922661D01*
X147850265Y-109924449D01*
X147857195Y-109926929D01*
X147863849Y-109930076D01*
X147870162Y-109933860D01*
X147876073Y-109938244D01*
X147881527Y-109943187D01*
X148199725Y-110261385D01*
X148204668Y-110266839D01*
X148209052Y-110272750D01*
X148212836Y-110279063D01*
X148215983Y-110285717D01*
X148218463Y-110292647D01*
X148220251Y-110299786D01*
X148221331Y-110307067D01*
X148221692Y-110314418D01*
X148221331Y-110321769D01*
X148220251Y-110329050D01*
X148218463Y-110336189D01*
X148215983Y-110343119D01*
X148212836Y-110349773D01*
X148209052Y-110356086D01*
X148204668Y-110361997D01*
X148199725Y-110367451D01*
X148093659Y-110473517D01*
X148088205Y-110478460D01*
X148082294Y-110482844D01*
X148075981Y-110486628D01*
X148069327Y-110489775D01*
X148062397Y-110492255D01*
X148055258Y-110494043D01*
X148047977Y-110495123D01*
X148040626Y-110495484D01*
X148033275Y-110495123D01*
X148025994Y-110494043D01*
X148018855Y-110492255D01*
X148011925Y-110489775D01*
X148005271Y-110486628D01*
X147998958Y-110482844D01*
X147993047Y-110478460D01*
X147987593Y-110473517D01*
X147669395Y-110155319D01*
X147664452Y-110149865D01*
X147660068Y-110143954D01*
X147656284Y-110137641D01*
X147653137Y-110130987D01*
X147650657Y-110124057D01*
X147648869Y-110116918D01*
X147647789Y-110109637D01*
X147647428Y-110102286D01*
X147647789Y-110094935D01*
X147648869Y-110087654D01*
X147650657Y-110080515D01*
X147653137Y-110073585D01*
X147656284Y-110066931D01*
X147660068Y-110060618D01*
X147664452Y-110054707D01*
X147669395Y-110049253D01*
X147775461Y-109943187D01*
X147780915Y-109938244D01*
X147786826Y-109933860D01*
X147793139Y-109930076D01*
X147799793Y-109926929D01*
X147806723Y-109924449D01*
X147813862Y-109922661D01*
X147821143Y-109921581D01*
X147828494Y-109921220D01*
X147835845Y-109921581D01*
G37*
G36*
X148825795Y-109921581D02*
G01*
X148833076Y-109922661D01*
X148840215Y-109924449D01*
X148847145Y-109926929D01*
X148853799Y-109930076D01*
X148860112Y-109933860D01*
X148866023Y-109938244D01*
X148871477Y-109943187D01*
X148977543Y-110049253D01*
X148982486Y-110054707D01*
X148986870Y-110060618D01*
X148990654Y-110066931D01*
X148993801Y-110073585D01*
X148996281Y-110080515D01*
X148998069Y-110087654D01*
X148999149Y-110094935D01*
X148999510Y-110102286D01*
X148999149Y-110109637D01*
X148998069Y-110116918D01*
X148996281Y-110124057D01*
X148993801Y-110130987D01*
X148990654Y-110137641D01*
X148986870Y-110143954D01*
X148982486Y-110149865D01*
X148977543Y-110155319D01*
X148659345Y-110473517D01*
X148653891Y-110478460D01*
X148647980Y-110482844D01*
X148641667Y-110486628D01*
X148635013Y-110489775D01*
X148628083Y-110492255D01*
X148620944Y-110494043D01*
X148613663Y-110495123D01*
X148606312Y-110495484D01*
X148598961Y-110495123D01*
X148591680Y-110494043D01*
X148584541Y-110492255D01*
X148577611Y-110489775D01*
X148570957Y-110486628D01*
X148564644Y-110482844D01*
X148558733Y-110478460D01*
X148553279Y-110473517D01*
X148447213Y-110367451D01*
X148442270Y-110361997D01*
X148437886Y-110356086D01*
X148434102Y-110349773D01*
X148430955Y-110343119D01*
X148428475Y-110336189D01*
X148426687Y-110329050D01*
X148425607Y-110321769D01*
X148425246Y-110314418D01*
X148425607Y-110307067D01*
X148426687Y-110299786D01*
X148428475Y-110292647D01*
X148430955Y-110285717D01*
X148434102Y-110279063D01*
X148437886Y-110272750D01*
X148442270Y-110266839D01*
X148447213Y-110261385D01*
X148765411Y-109943187D01*
X148770865Y-109938244D01*
X148776776Y-109933860D01*
X148783089Y-109930076D01*
X148789743Y-109926929D01*
X148796673Y-109924449D01*
X148803812Y-109922661D01*
X148811093Y-109921581D01*
X148818444Y-109921220D01*
X148825795Y-109921581D01*
G37*
G36*
X149179348Y-110275135D02*
G01*
X149186629Y-110276215D01*
X149193768Y-110278003D01*
X149200698Y-110280483D01*
X149207352Y-110283630D01*
X149213665Y-110287414D01*
X149219576Y-110291798D01*
X149225030Y-110296741D01*
X149331096Y-110402807D01*
X149336039Y-110408261D01*
X149340423Y-110414172D01*
X149344207Y-110420485D01*
X149347354Y-110427139D01*
X149349834Y-110434069D01*
X149351622Y-110441208D01*
X149352702Y-110448489D01*
X149353063Y-110455840D01*
X149352702Y-110463191D01*
X149351622Y-110470472D01*
X149349834Y-110477611D01*
X149347354Y-110484541D01*
X149344207Y-110491195D01*
X149340423Y-110497508D01*
X149336039Y-110503419D01*
X149331096Y-110508873D01*
X149012898Y-110827071D01*
X149007444Y-110832014D01*
X149001533Y-110836398D01*
X148995220Y-110840182D01*
X148988566Y-110843329D01*
X148981636Y-110845809D01*
X148974497Y-110847597D01*
X148967216Y-110848677D01*
X148959865Y-110849038D01*
X148952514Y-110848677D01*
X148945233Y-110847597D01*
X148938094Y-110845809D01*
X148931164Y-110843329D01*
X148924510Y-110840182D01*
X148918197Y-110836398D01*
X148912286Y-110832014D01*
X148906832Y-110827071D01*
X148800766Y-110721005D01*
X148795823Y-110715551D01*
X148791439Y-110709640D01*
X148787655Y-110703327D01*
X148784508Y-110696673D01*
X148782028Y-110689743D01*
X148780240Y-110682604D01*
X148779160Y-110675323D01*
X148778799Y-110667972D01*
X148779160Y-110660621D01*
X148780240Y-110653340D01*
X148782028Y-110646201D01*
X148784508Y-110639271D01*
X148787655Y-110632617D01*
X148791439Y-110626304D01*
X148795823Y-110620393D01*
X148800766Y-110614939D01*
X149118964Y-110296741D01*
X149124418Y-110291798D01*
X149130329Y-110287414D01*
X149136642Y-110283630D01*
X149143296Y-110280483D01*
X149150226Y-110278003D01*
X149157365Y-110276215D01*
X149164646Y-110275135D01*
X149171997Y-110274774D01*
X149179348Y-110275135D01*
G37*
G36*
X149532902Y-110628688D02*
G01*
X149540183Y-110629768D01*
X149547322Y-110631556D01*
X149554252Y-110634036D01*
X149560906Y-110637183D01*
X149567219Y-110640967D01*
X149573130Y-110645351D01*
X149578584Y-110650294D01*
X149684650Y-110756360D01*
X149689593Y-110761814D01*
X149693977Y-110767725D01*
X149697761Y-110774038D01*
X149700908Y-110780692D01*
X149703388Y-110787622D01*
X149705176Y-110794761D01*
X149706256Y-110802042D01*
X149706617Y-110809393D01*
X149706256Y-110816744D01*
X149705176Y-110824025D01*
X149703388Y-110831164D01*
X149700908Y-110838094D01*
X149697761Y-110844748D01*
X149693977Y-110851061D01*
X149689593Y-110856972D01*
X149684650Y-110862426D01*
X149366452Y-111180624D01*
X149360998Y-111185567D01*
X149355087Y-111189951D01*
X149348774Y-111193735D01*
X149342120Y-111196882D01*
X149335190Y-111199362D01*
X149328051Y-111201150D01*
X149320770Y-111202230D01*
X149313419Y-111202591D01*
X149306068Y-111202230D01*
X149298787Y-111201150D01*
X149291648Y-111199362D01*
X149284718Y-111196882D01*
X149278064Y-111193735D01*
X149271751Y-111189951D01*
X149265840Y-111185567D01*
X149260386Y-111180624D01*
X149154320Y-111074558D01*
X149149377Y-111069104D01*
X149144993Y-111063193D01*
X149141209Y-111056880D01*
X149138062Y-111050226D01*
X149135582Y-111043296D01*
X149133794Y-111036157D01*
X149132714Y-111028876D01*
X149132353Y-111021525D01*
X149132714Y-111014174D01*
X149133794Y-111006893D01*
X149135582Y-110999754D01*
X149138062Y-110992824D01*
X149141209Y-110986170D01*
X149144993Y-110979857D01*
X149149377Y-110973946D01*
X149154320Y-110968492D01*
X149472518Y-110650294D01*
X149477972Y-110645351D01*
X149483883Y-110640967D01*
X149490196Y-110637183D01*
X149496850Y-110634036D01*
X149503780Y-110631556D01*
X149510919Y-110629768D01*
X149518200Y-110628688D01*
X149525551Y-110628327D01*
X149532902Y-110628688D01*
G37*
G36*
X149886455Y-110982241D02*
G01*
X149893736Y-110983321D01*
X149900875Y-110985109D01*
X149907805Y-110987589D01*
X149914459Y-110990736D01*
X149920772Y-110994520D01*
X149926683Y-110998904D01*
X149932137Y-111003847D01*
X150038203Y-111109913D01*
X150043146Y-111115367D01*
X150047530Y-111121278D01*
X150051314Y-111127591D01*
X150054461Y-111134245D01*
X150056941Y-111141175D01*
X150058729Y-111148314D01*
X150059809Y-111155595D01*
X150060170Y-111162946D01*
X150059809Y-111170297D01*
X150058729Y-111177578D01*
X150056941Y-111184717D01*
X150054461Y-111191647D01*
X150051314Y-111198301D01*
X150047530Y-111204614D01*
X150043146Y-111210525D01*
X150038203Y-111215979D01*
X149720005Y-111534177D01*
X149714551Y-111539120D01*
X149708640Y-111543504D01*
X149702327Y-111547288D01*
X149695673Y-111550435D01*
X149688743Y-111552915D01*
X149681604Y-111554703D01*
X149674323Y-111555783D01*
X149666972Y-111556144D01*
X149659621Y-111555783D01*
X149652340Y-111554703D01*
X149645201Y-111552915D01*
X149638271Y-111550435D01*
X149631617Y-111547288D01*
X149625304Y-111543504D01*
X149619393Y-111539120D01*
X149613939Y-111534177D01*
X149507873Y-111428111D01*
X149502930Y-111422657D01*
X149498546Y-111416746D01*
X149494762Y-111410433D01*
X149491615Y-111403779D01*
X149489135Y-111396849D01*
X149487347Y-111389710D01*
X149486267Y-111382429D01*
X149485906Y-111375078D01*
X149486267Y-111367727D01*
X149487347Y-111360446D01*
X149489135Y-111353307D01*
X149491615Y-111346377D01*
X149494762Y-111339723D01*
X149498546Y-111333410D01*
X149502930Y-111327499D01*
X149507873Y-111322045D01*
X149826071Y-111003847D01*
X149831525Y-110998904D01*
X149837436Y-110994520D01*
X149843749Y-110990736D01*
X149850403Y-110987589D01*
X149857333Y-110985109D01*
X149864472Y-110983321D01*
X149871753Y-110982241D01*
X149879104Y-110981880D01*
X149886455Y-110982241D01*
G37*
G36*
X150240008Y-111335795D02*
G01*
X150247289Y-111336875D01*
X150254428Y-111338663D01*
X150261358Y-111341143D01*
X150268012Y-111344290D01*
X150274325Y-111348074D01*
X150280236Y-111352458D01*
X150285690Y-111357401D01*
X150391756Y-111463467D01*
X150396699Y-111468921D01*
X150401083Y-111474832D01*
X150404867Y-111481145D01*
X150408014Y-111487799D01*
X150410494Y-111494729D01*
X150412282Y-111501868D01*
X150413362Y-111509149D01*
X150413723Y-111516500D01*
X150413362Y-111523851D01*
X150412282Y-111531132D01*
X150410494Y-111538271D01*
X150408014Y-111545201D01*
X150404867Y-111551855D01*
X150401083Y-111558168D01*
X150396699Y-111564079D01*
X150391756Y-111569533D01*
X150073558Y-111887731D01*
X150068104Y-111892674D01*
X150062193Y-111897058D01*
X150055880Y-111900842D01*
X150049226Y-111903989D01*
X150042296Y-111906469D01*
X150035157Y-111908257D01*
X150027876Y-111909337D01*
X150020525Y-111909698D01*
X150013174Y-111909337D01*
X150005893Y-111908257D01*
X149998754Y-111906469D01*
X149991824Y-111903989D01*
X149985170Y-111900842D01*
X149978857Y-111897058D01*
X149972946Y-111892674D01*
X149967492Y-111887731D01*
X149861426Y-111781665D01*
X149856483Y-111776211D01*
X149852099Y-111770300D01*
X149848315Y-111763987D01*
X149845168Y-111757333D01*
X149842688Y-111750403D01*
X149840900Y-111743264D01*
X149839820Y-111735983D01*
X149839459Y-111728632D01*
X149839820Y-111721281D01*
X149840900Y-111714000D01*
X149842688Y-111706861D01*
X149845168Y-111699931D01*
X149848315Y-111693277D01*
X149852099Y-111686964D01*
X149856483Y-111681053D01*
X149861426Y-111675599D01*
X150179624Y-111357401D01*
X150185078Y-111352458D01*
X150190989Y-111348074D01*
X150197302Y-111344290D01*
X150203956Y-111341143D01*
X150210886Y-111338663D01*
X150218025Y-111336875D01*
X150225306Y-111335795D01*
X150232657Y-111335434D01*
X150240008Y-111335795D01*
G37*
G36*
X150593562Y-111689348D02*
G01*
X150600843Y-111690428D01*
X150607982Y-111692216D01*
X150614912Y-111694696D01*
X150621566Y-111697843D01*
X150627879Y-111701627D01*
X150633790Y-111706011D01*
X150639244Y-111710954D01*
X150745310Y-111817020D01*
X150750253Y-111822474D01*
X150754637Y-111828385D01*
X150758421Y-111834698D01*
X150761568Y-111841352D01*
X150764048Y-111848282D01*
X150765836Y-111855421D01*
X150766916Y-111862702D01*
X150767277Y-111870053D01*
X150766916Y-111877404D01*
X150765836Y-111884685D01*
X150764048Y-111891824D01*
X150761568Y-111898754D01*
X150758421Y-111905408D01*
X150754637Y-111911721D01*
X150750253Y-111917632D01*
X150745310Y-111923086D01*
X150427112Y-112241284D01*
X150421658Y-112246227D01*
X150415747Y-112250611D01*
X150409434Y-112254395D01*
X150402780Y-112257542D01*
X150395850Y-112260022D01*
X150388711Y-112261810D01*
X150381430Y-112262890D01*
X150374079Y-112263251D01*
X150366728Y-112262890D01*
X150359447Y-112261810D01*
X150352308Y-112260022D01*
X150345378Y-112257542D01*
X150338724Y-112254395D01*
X150332411Y-112250611D01*
X150326500Y-112246227D01*
X150321046Y-112241284D01*
X150214980Y-112135218D01*
X150210037Y-112129764D01*
X150205653Y-112123853D01*
X150201869Y-112117540D01*
X150198722Y-112110886D01*
X150196242Y-112103956D01*
X150194454Y-112096817D01*
X150193374Y-112089536D01*
X150193013Y-112082185D01*
X150193374Y-112074834D01*
X150194454Y-112067553D01*
X150196242Y-112060414D01*
X150198722Y-112053484D01*
X150201869Y-112046830D01*
X150205653Y-112040517D01*
X150210037Y-112034606D01*
X150214980Y-112029152D01*
X150533178Y-111710954D01*
X150538632Y-111706011D01*
X150544543Y-111701627D01*
X150550856Y-111697843D01*
X150557510Y-111694696D01*
X150564440Y-111692216D01*
X150571579Y-111690428D01*
X150578860Y-111689348D01*
X150586211Y-111688987D01*
X150593562Y-111689348D01*
G37*
G36*
X150947115Y-112042902D02*
G01*
X150954396Y-112043982D01*
X150961535Y-112045770D01*
X150968465Y-112048250D01*
X150975119Y-112051397D01*
X150981432Y-112055181D01*
X150987343Y-112059565D01*
X150992797Y-112064508D01*
X151098863Y-112170574D01*
X151103806Y-112176028D01*
X151108190Y-112181939D01*
X151111974Y-112188252D01*
X151115121Y-112194906D01*
X151117601Y-112201836D01*
X151119389Y-112208975D01*
X151120469Y-112216256D01*
X151120830Y-112223607D01*
X151120469Y-112230958D01*
X151119389Y-112238239D01*
X151117601Y-112245378D01*
X151115121Y-112252308D01*
X151111974Y-112258962D01*
X151108190Y-112265275D01*
X151103806Y-112271186D01*
X151098863Y-112276640D01*
X150780665Y-112594838D01*
X150775211Y-112599781D01*
X150769300Y-112604165D01*
X150762987Y-112607949D01*
X150756333Y-112611096D01*
X150749403Y-112613576D01*
X150742264Y-112615364D01*
X150734983Y-112616444D01*
X150727632Y-112616805D01*
X150720281Y-112616444D01*
X150713000Y-112615364D01*
X150705861Y-112613576D01*
X150698931Y-112611096D01*
X150692277Y-112607949D01*
X150685964Y-112604165D01*
X150680053Y-112599781D01*
X150674599Y-112594838D01*
X150568533Y-112488772D01*
X150563590Y-112483318D01*
X150559206Y-112477407D01*
X150555422Y-112471094D01*
X150552275Y-112464440D01*
X150549795Y-112457510D01*
X150548007Y-112450371D01*
X150546927Y-112443090D01*
X150546566Y-112435739D01*
X150546927Y-112428388D01*
X150548007Y-112421107D01*
X150549795Y-112413968D01*
X150552275Y-112407038D01*
X150555422Y-112400384D01*
X150559206Y-112394071D01*
X150563590Y-112388160D01*
X150568533Y-112382706D01*
X150886731Y-112064508D01*
X150892185Y-112059565D01*
X150898096Y-112055181D01*
X150904409Y-112051397D01*
X150911063Y-112048250D01*
X150917993Y-112045770D01*
X150925132Y-112043982D01*
X150932413Y-112042902D01*
X150939764Y-112042541D01*
X150947115Y-112042902D01*
G37*
G36*
X151300668Y-112396455D02*
G01*
X151307949Y-112397535D01*
X151315088Y-112399323D01*
X151322018Y-112401803D01*
X151328672Y-112404950D01*
X151334985Y-112408734D01*
X151340896Y-112413118D01*
X151346350Y-112418061D01*
X151452416Y-112524127D01*
X151457359Y-112529581D01*
X151461743Y-112535492D01*
X151465527Y-112541805D01*
X151468674Y-112548459D01*
X151471154Y-112555389D01*
X151472942Y-112562528D01*
X151474022Y-112569809D01*
X151474383Y-112577160D01*
X151474022Y-112584511D01*
X151472942Y-112591792D01*
X151471154Y-112598931D01*
X151468674Y-112605861D01*
X151465527Y-112612515D01*
X151461743Y-112618828D01*
X151457359Y-112624739D01*
X151452416Y-112630193D01*
X151134218Y-112948391D01*
X151128764Y-112953334D01*
X151122853Y-112957718D01*
X151116540Y-112961502D01*
X151109886Y-112964649D01*
X151102956Y-112967129D01*
X151095817Y-112968917D01*
X151088536Y-112969997D01*
X151081185Y-112970358D01*
X151073834Y-112969997D01*
X151066553Y-112968917D01*
X151059414Y-112967129D01*
X151052484Y-112964649D01*
X151045830Y-112961502D01*
X151039517Y-112957718D01*
X151033606Y-112953334D01*
X151028152Y-112948391D01*
X150922086Y-112842325D01*
X150917143Y-112836871D01*
X150912759Y-112830960D01*
X150908975Y-112824647D01*
X150905828Y-112817993D01*
X150903348Y-112811063D01*
X150901560Y-112803924D01*
X150900480Y-112796643D01*
X150900119Y-112789292D01*
X150900480Y-112781941D01*
X150901560Y-112774660D01*
X150903348Y-112767521D01*
X150905828Y-112760591D01*
X150908975Y-112753937D01*
X150912759Y-112747624D01*
X150917143Y-112741713D01*
X150922086Y-112736259D01*
X151240284Y-112418061D01*
X151245738Y-112413118D01*
X151251649Y-112408734D01*
X151257962Y-112404950D01*
X151264616Y-112401803D01*
X151271546Y-112399323D01*
X151278685Y-112397535D01*
X151285966Y-112396455D01*
X151293317Y-112396094D01*
X151300668Y-112396455D01*
G37*
G36*
X151654222Y-112750008D02*
G01*
X151661503Y-112751088D01*
X151668642Y-112752876D01*
X151675572Y-112755356D01*
X151682226Y-112758503D01*
X151688539Y-112762287D01*
X151694450Y-112766671D01*
X151699904Y-112771614D01*
X151805970Y-112877680D01*
X151810913Y-112883134D01*
X151815297Y-112889045D01*
X151819081Y-112895358D01*
X151822228Y-112902012D01*
X151824708Y-112908942D01*
X151826496Y-112916081D01*
X151827576Y-112923362D01*
X151827937Y-112930713D01*
X151827576Y-112938064D01*
X151826496Y-112945345D01*
X151824708Y-112952484D01*
X151822228Y-112959414D01*
X151819081Y-112966068D01*
X151815297Y-112972381D01*
X151810913Y-112978292D01*
X151805970Y-112983746D01*
X151487772Y-113301944D01*
X151482318Y-113306887D01*
X151476407Y-113311271D01*
X151470094Y-113315055D01*
X151463440Y-113318202D01*
X151456510Y-113320682D01*
X151449371Y-113322470D01*
X151442090Y-113323550D01*
X151434739Y-113323911D01*
X151427388Y-113323550D01*
X151420107Y-113322470D01*
X151412968Y-113320682D01*
X151406038Y-113318202D01*
X151399384Y-113315055D01*
X151393071Y-113311271D01*
X151387160Y-113306887D01*
X151381706Y-113301944D01*
X151275640Y-113195878D01*
X151270697Y-113190424D01*
X151266313Y-113184513D01*
X151262529Y-113178200D01*
X151259382Y-113171546D01*
X151256902Y-113164616D01*
X151255114Y-113157477D01*
X151254034Y-113150196D01*
X151253673Y-113142845D01*
X151254034Y-113135494D01*
X151255114Y-113128213D01*
X151256902Y-113121074D01*
X151259382Y-113114144D01*
X151262529Y-113107490D01*
X151266313Y-113101177D01*
X151270697Y-113095266D01*
X151275640Y-113089812D01*
X151593838Y-112771614D01*
X151599292Y-112766671D01*
X151605203Y-112762287D01*
X151611516Y-112758503D01*
X151618170Y-112755356D01*
X151625100Y-112752876D01*
X151632239Y-112751088D01*
X151639520Y-112750008D01*
X151646871Y-112749647D01*
X151654222Y-112750008D01*
G37*
G36*
X152007775Y-113103562D02*
G01*
X152015056Y-113104642D01*
X152022195Y-113106430D01*
X152029125Y-113108910D01*
X152035779Y-113112057D01*
X152042092Y-113115841D01*
X152048003Y-113120225D01*
X152053457Y-113125168D01*
X152159523Y-113231234D01*
X152164466Y-113236688D01*
X152168850Y-113242599D01*
X152172634Y-113248912D01*
X152175781Y-113255566D01*
X152178261Y-113262496D01*
X152180049Y-113269635D01*
X152181129Y-113276916D01*
X152181490Y-113284267D01*
X152181129Y-113291618D01*
X152180049Y-113298899D01*
X152178261Y-113306038D01*
X152175781Y-113312968D01*
X152172634Y-113319622D01*
X152168850Y-113325935D01*
X152164466Y-113331846D01*
X152159523Y-113337300D01*
X151841325Y-113655498D01*
X151835871Y-113660441D01*
X151829960Y-113664825D01*
X151823647Y-113668609D01*
X151816993Y-113671756D01*
X151810063Y-113674236D01*
X151802924Y-113676024D01*
X151795643Y-113677104D01*
X151788292Y-113677465D01*
X151780941Y-113677104D01*
X151773660Y-113676024D01*
X151766521Y-113674236D01*
X151759591Y-113671756D01*
X151752937Y-113668609D01*
X151746624Y-113664825D01*
X151740713Y-113660441D01*
X151735259Y-113655498D01*
X151629193Y-113549432D01*
X151624250Y-113543978D01*
X151619866Y-113538067D01*
X151616082Y-113531754D01*
X151612935Y-113525100D01*
X151610455Y-113518170D01*
X151608667Y-113511031D01*
X151607587Y-113503750D01*
X151607226Y-113496399D01*
X151607587Y-113489048D01*
X151608667Y-113481767D01*
X151610455Y-113474628D01*
X151612935Y-113467698D01*
X151616082Y-113461044D01*
X151619866Y-113454731D01*
X151624250Y-113448820D01*
X151629193Y-113443366D01*
X151947391Y-113125168D01*
X151952845Y-113120225D01*
X151958756Y-113115841D01*
X151965069Y-113112057D01*
X151971723Y-113108910D01*
X151978653Y-113106430D01*
X151985792Y-113104642D01*
X151993073Y-113103562D01*
X152000424Y-113103201D01*
X152007775Y-113103562D01*
G37*
G36*
X152361329Y-113457115D02*
G01*
X152368610Y-113458195D01*
X152375749Y-113459983D01*
X152382679Y-113462463D01*
X152389333Y-113465610D01*
X152395646Y-113469394D01*
X152401557Y-113473778D01*
X152407011Y-113478721D01*
X152513077Y-113584787D01*
X152518020Y-113590241D01*
X152522404Y-113596152D01*
X152526188Y-113602465D01*
X152529335Y-113609119D01*
X152531815Y-113616049D01*
X152533603Y-113623188D01*
X152534683Y-113630469D01*
X152535044Y-113637820D01*
X152534683Y-113645171D01*
X152533603Y-113652452D01*
X152531815Y-113659591D01*
X152529335Y-113666521D01*
X152526188Y-113673175D01*
X152522404Y-113679488D01*
X152518020Y-113685399D01*
X152513077Y-113690853D01*
X152194879Y-114009051D01*
X152189425Y-114013994D01*
X152183514Y-114018378D01*
X152177201Y-114022162D01*
X152170547Y-114025309D01*
X152163617Y-114027789D01*
X152156478Y-114029577D01*
X152149197Y-114030657D01*
X152141846Y-114031018D01*
X152134495Y-114030657D01*
X152127214Y-114029577D01*
X152120075Y-114027789D01*
X152113145Y-114025309D01*
X152106491Y-114022162D01*
X152100178Y-114018378D01*
X152094267Y-114013994D01*
X152088813Y-114009051D01*
X151982747Y-113902985D01*
X151977804Y-113897531D01*
X151973420Y-113891620D01*
X151969636Y-113885307D01*
X151966489Y-113878653D01*
X151964009Y-113871723D01*
X151962221Y-113864584D01*
X151961141Y-113857303D01*
X151960780Y-113849952D01*
X151961141Y-113842601D01*
X151962221Y-113835320D01*
X151964009Y-113828181D01*
X151966489Y-113821251D01*
X151969636Y-113814597D01*
X151973420Y-113808284D01*
X151977804Y-113802373D01*
X151982747Y-113796919D01*
X152300945Y-113478721D01*
X152306399Y-113473778D01*
X152312310Y-113469394D01*
X152318623Y-113465610D01*
X152325277Y-113462463D01*
X152332207Y-113459983D01*
X152339346Y-113458195D01*
X152346627Y-113457115D01*
X152353978Y-113456754D01*
X152361329Y-113457115D01*
G37*
G36*
X152714882Y-113810668D02*
G01*
X152722163Y-113811748D01*
X152729302Y-113813536D01*
X152736232Y-113816016D01*
X152742886Y-113819163D01*
X152749199Y-113822947D01*
X152755110Y-113827331D01*
X152760564Y-113832274D01*
X152866630Y-113938340D01*
X152871573Y-113943794D01*
X152875957Y-113949705D01*
X152879741Y-113956018D01*
X152882888Y-113962672D01*
X152885368Y-113969602D01*
X152887156Y-113976741D01*
X152888236Y-113984022D01*
X152888597Y-113991373D01*
X152888236Y-113998724D01*
X152887156Y-114006005D01*
X152885368Y-114013144D01*
X152882888Y-114020074D01*
X152879741Y-114026728D01*
X152875957Y-114033041D01*
X152871573Y-114038952D01*
X152866630Y-114044406D01*
X152548432Y-114362604D01*
X152542978Y-114367547D01*
X152537067Y-114371931D01*
X152530754Y-114375715D01*
X152524100Y-114378862D01*
X152517170Y-114381342D01*
X152510031Y-114383130D01*
X152502750Y-114384210D01*
X152495399Y-114384571D01*
X152488048Y-114384210D01*
X152480767Y-114383130D01*
X152473628Y-114381342D01*
X152466698Y-114378862D01*
X152460044Y-114375715D01*
X152453731Y-114371931D01*
X152447820Y-114367547D01*
X152442366Y-114362604D01*
X152336300Y-114256538D01*
X152331357Y-114251084D01*
X152326973Y-114245173D01*
X152323189Y-114238860D01*
X152320042Y-114232206D01*
X152317562Y-114225276D01*
X152315774Y-114218137D01*
X152314694Y-114210856D01*
X152314333Y-114203505D01*
X152314694Y-114196154D01*
X152315774Y-114188873D01*
X152317562Y-114181734D01*
X152320042Y-114174804D01*
X152323189Y-114168150D01*
X152326973Y-114161837D01*
X152331357Y-114155926D01*
X152336300Y-114150472D01*
X152654498Y-113832274D01*
X152659952Y-113827331D01*
X152665863Y-113822947D01*
X152672176Y-113819163D01*
X152678830Y-113816016D01*
X152685760Y-113813536D01*
X152692899Y-113811748D01*
X152700180Y-113810668D01*
X152707531Y-113810307D01*
X152714882Y-113810668D01*
G37*
G36*
X153068435Y-114164222D02*
G01*
X153075716Y-114165302D01*
X153082855Y-114167090D01*
X153089785Y-114169570D01*
X153096439Y-114172717D01*
X153102752Y-114176501D01*
X153108663Y-114180885D01*
X153114117Y-114185828D01*
X153220183Y-114291894D01*
X153225126Y-114297348D01*
X153229510Y-114303259D01*
X153233294Y-114309572D01*
X153236441Y-114316226D01*
X153238921Y-114323156D01*
X153240709Y-114330295D01*
X153241789Y-114337576D01*
X153242150Y-114344927D01*
X153241789Y-114352278D01*
X153240709Y-114359559D01*
X153238921Y-114366698D01*
X153236441Y-114373628D01*
X153233294Y-114380282D01*
X153229510Y-114386595D01*
X153225126Y-114392506D01*
X153220183Y-114397960D01*
X152901985Y-114716158D01*
X152896531Y-114721101D01*
X152890620Y-114725485D01*
X152884307Y-114729269D01*
X152877653Y-114732416D01*
X152870723Y-114734896D01*
X152863584Y-114736684D01*
X152856303Y-114737764D01*
X152848952Y-114738125D01*
X152841601Y-114737764D01*
X152834320Y-114736684D01*
X152827181Y-114734896D01*
X152820251Y-114732416D01*
X152813597Y-114729269D01*
X152807284Y-114725485D01*
X152801373Y-114721101D01*
X152795919Y-114716158D01*
X152689853Y-114610092D01*
X152684910Y-114604638D01*
X152680526Y-114598727D01*
X152676742Y-114592414D01*
X152673595Y-114585760D01*
X152671115Y-114578830D01*
X152669327Y-114571691D01*
X152668247Y-114564410D01*
X152667886Y-114557059D01*
X152668247Y-114549708D01*
X152669327Y-114542427D01*
X152671115Y-114535288D01*
X152673595Y-114528358D01*
X152676742Y-114521704D01*
X152680526Y-114515391D01*
X152684910Y-114509480D01*
X152689853Y-114504026D01*
X153008051Y-114185828D01*
X153013505Y-114180885D01*
X153019416Y-114176501D01*
X153025729Y-114172717D01*
X153032383Y-114169570D01*
X153039313Y-114167090D01*
X153046452Y-114165302D01*
X153053733Y-114164222D01*
X153061084Y-114163861D01*
X153068435Y-114164222D01*
G37*
G36*
X153421989Y-114517775D02*
G01*
X153429270Y-114518855D01*
X153436409Y-114520643D01*
X153443339Y-114523123D01*
X153449993Y-114526270D01*
X153456306Y-114530054D01*
X153462217Y-114534438D01*
X153467671Y-114539381D01*
X153573737Y-114645447D01*
X153578680Y-114650901D01*
X153583064Y-114656812D01*
X153586848Y-114663125D01*
X153589995Y-114669779D01*
X153592475Y-114676709D01*
X153594263Y-114683848D01*
X153595343Y-114691129D01*
X153595704Y-114698480D01*
X153595343Y-114705831D01*
X153594263Y-114713112D01*
X153592475Y-114720251D01*
X153589995Y-114727181D01*
X153586848Y-114733835D01*
X153583064Y-114740148D01*
X153578680Y-114746059D01*
X153573737Y-114751513D01*
X153255539Y-115069711D01*
X153250085Y-115074654D01*
X153244174Y-115079038D01*
X153237861Y-115082822D01*
X153231207Y-115085969D01*
X153224277Y-115088449D01*
X153217138Y-115090237D01*
X153209857Y-115091317D01*
X153202506Y-115091678D01*
X153195155Y-115091317D01*
X153187874Y-115090237D01*
X153180735Y-115088449D01*
X153173805Y-115085969D01*
X153167151Y-115082822D01*
X153160838Y-115079038D01*
X153154927Y-115074654D01*
X153149473Y-115069711D01*
X153043407Y-114963645D01*
X153038464Y-114958191D01*
X153034080Y-114952280D01*
X153030296Y-114945967D01*
X153027149Y-114939313D01*
X153024669Y-114932383D01*
X153022881Y-114925244D01*
X153021801Y-114917963D01*
X153021440Y-114910612D01*
X153021801Y-114903261D01*
X153022881Y-114895980D01*
X153024669Y-114888841D01*
X153027149Y-114881911D01*
X153030296Y-114875257D01*
X153034080Y-114868944D01*
X153038464Y-114863033D01*
X153043407Y-114857579D01*
X153361605Y-114539381D01*
X153367059Y-114534438D01*
X153372970Y-114530054D01*
X153379283Y-114526270D01*
X153385937Y-114523123D01*
X153392867Y-114520643D01*
X153400006Y-114518855D01*
X153407287Y-114517775D01*
X153414638Y-114517414D01*
X153421989Y-114517775D01*
G37*
G36*
X143877391Y-94191853D02*
G01*
X143898626Y-94195003D01*
X143919450Y-94200219D01*
X143939662Y-94207451D01*
X143959068Y-94216630D01*
X143977481Y-94227666D01*
X143994724Y-94240454D01*
X144010630Y-94254870D01*
X144025046Y-94270776D01*
X144037834Y-94288019D01*
X144048870Y-94306432D01*
X144058049Y-94325838D01*
X144065281Y-94346050D01*
X144070497Y-94366874D01*
X144073647Y-94388109D01*
X144074700Y-94409550D01*
X144074700Y-94922050D01*
X144073647Y-94943491D01*
X144070497Y-94964726D01*
X144065281Y-94985550D01*
X144058049Y-95005762D01*
X144048870Y-95025168D01*
X144037834Y-95043581D01*
X144025046Y-95060824D01*
X144010630Y-95076730D01*
X143994724Y-95091146D01*
X143977481Y-95103934D01*
X143959068Y-95114970D01*
X143939662Y-95124149D01*
X143919450Y-95131381D01*
X143898626Y-95136597D01*
X143877391Y-95139747D01*
X143855950Y-95140800D01*
X143418450Y-95140800D01*
X143397009Y-95139747D01*
X143375774Y-95136597D01*
X143354950Y-95131381D01*
X143334738Y-95124149D01*
X143315332Y-95114970D01*
X143296919Y-95103934D01*
X143279676Y-95091146D01*
X143263770Y-95076730D01*
X143249354Y-95060824D01*
X143236566Y-95043581D01*
X143225530Y-95025168D01*
X143216351Y-95005762D01*
X143209119Y-94985550D01*
X143203903Y-94964726D01*
X143200753Y-94943491D01*
X143199700Y-94922050D01*
X143199700Y-94409550D01*
X143200753Y-94388109D01*
X143203903Y-94366874D01*
X143209119Y-94346050D01*
X143216351Y-94325838D01*
X143225530Y-94306432D01*
X143236566Y-94288019D01*
X143249354Y-94270776D01*
X143263770Y-94254870D01*
X143279676Y-94240454D01*
X143296919Y-94227666D01*
X143315332Y-94216630D01*
X143334738Y-94207451D01*
X143354950Y-94200219D01*
X143375774Y-94195003D01*
X143397009Y-94191853D01*
X143418450Y-94190800D01*
X143855950Y-94190800D01*
X143877391Y-94191853D01*
G37*
G36*
X142302391Y-94191853D02*
G01*
X142323626Y-94195003D01*
X142344450Y-94200219D01*
X142364662Y-94207451D01*
X142384068Y-94216630D01*
X142402481Y-94227666D01*
X142419724Y-94240454D01*
X142435630Y-94254870D01*
X142450046Y-94270776D01*
X142462834Y-94288019D01*
X142473870Y-94306432D01*
X142483049Y-94325838D01*
X142490281Y-94346050D01*
X142495497Y-94366874D01*
X142498647Y-94388109D01*
X142499700Y-94409550D01*
X142499700Y-94922050D01*
X142498647Y-94943491D01*
X142495497Y-94964726D01*
X142490281Y-94985550D01*
X142483049Y-95005762D01*
X142473870Y-95025168D01*
X142462834Y-95043581D01*
X142450046Y-95060824D01*
X142435630Y-95076730D01*
X142419724Y-95091146D01*
X142402481Y-95103934D01*
X142384068Y-95114970D01*
X142364662Y-95124149D01*
X142344450Y-95131381D01*
X142323626Y-95136597D01*
X142302391Y-95139747D01*
X142280950Y-95140800D01*
X141843450Y-95140800D01*
X141822009Y-95139747D01*
X141800774Y-95136597D01*
X141779950Y-95131381D01*
X141759738Y-95124149D01*
X141740332Y-95114970D01*
X141721919Y-95103934D01*
X141704676Y-95091146D01*
X141688770Y-95076730D01*
X141674354Y-95060824D01*
X141661566Y-95043581D01*
X141650530Y-95025168D01*
X141641351Y-95005762D01*
X141634119Y-94985550D01*
X141628903Y-94964726D01*
X141625753Y-94943491D01*
X141624700Y-94922050D01*
X141624700Y-94409550D01*
X141625753Y-94388109D01*
X141628903Y-94366874D01*
X141634119Y-94346050D01*
X141641351Y-94325838D01*
X141650530Y-94306432D01*
X141661566Y-94288019D01*
X141674354Y-94270776D01*
X141688770Y-94254870D01*
X141704676Y-94240454D01*
X141721919Y-94227666D01*
X141740332Y-94216630D01*
X141759738Y-94207451D01*
X141779950Y-94200219D01*
X141800774Y-94195003D01*
X141822009Y-94191853D01*
X141843450Y-94190800D01*
X142280950Y-94190800D01*
X142302391Y-94191853D01*
G37*
G36*
X146849191Y-97138253D02*
G01*
X146870426Y-97141403D01*
X146891250Y-97146619D01*
X146911462Y-97153851D01*
X146930868Y-97163030D01*
X146949281Y-97174066D01*
X146966524Y-97186854D01*
X146982430Y-97201270D01*
X146996846Y-97217176D01*
X147009634Y-97234419D01*
X147020670Y-97252832D01*
X147029849Y-97272238D01*
X147037081Y-97292450D01*
X147042297Y-97313274D01*
X147045447Y-97334509D01*
X147046500Y-97355950D01*
X147046500Y-97868450D01*
X147045447Y-97889891D01*
X147042297Y-97911126D01*
X147037081Y-97931950D01*
X147029849Y-97952162D01*
X147020670Y-97971568D01*
X147009634Y-97989981D01*
X146996846Y-98007224D01*
X146982430Y-98023130D01*
X146966524Y-98037546D01*
X146949281Y-98050334D01*
X146930868Y-98061370D01*
X146911462Y-98070549D01*
X146891250Y-98077781D01*
X146870426Y-98082997D01*
X146849191Y-98086147D01*
X146827750Y-98087200D01*
X146390250Y-98087200D01*
X146368809Y-98086147D01*
X146347574Y-98082997D01*
X146326750Y-98077781D01*
X146306538Y-98070549D01*
X146287132Y-98061370D01*
X146268719Y-98050334D01*
X146251476Y-98037546D01*
X146235570Y-98023130D01*
X146221154Y-98007224D01*
X146208366Y-97989981D01*
X146197330Y-97971568D01*
X146188151Y-97952162D01*
X146180919Y-97931950D01*
X146175703Y-97911126D01*
X146172553Y-97889891D01*
X146171500Y-97868450D01*
X146171500Y-97355950D01*
X146172553Y-97334509D01*
X146175703Y-97313274D01*
X146180919Y-97292450D01*
X146188151Y-97272238D01*
X146197330Y-97252832D01*
X146208366Y-97234419D01*
X146221154Y-97217176D01*
X146235570Y-97201270D01*
X146251476Y-97186854D01*
X146268719Y-97174066D01*
X146287132Y-97163030D01*
X146306538Y-97153851D01*
X146326750Y-97146619D01*
X146347574Y-97141403D01*
X146368809Y-97138253D01*
X146390250Y-97137200D01*
X146827750Y-97137200D01*
X146849191Y-97138253D01*
G37*
G36*
X145274191Y-97138253D02*
G01*
X145295426Y-97141403D01*
X145316250Y-97146619D01*
X145336462Y-97153851D01*
X145355868Y-97163030D01*
X145374281Y-97174066D01*
X145391524Y-97186854D01*
X145407430Y-97201270D01*
X145421846Y-97217176D01*
X145434634Y-97234419D01*
X145445670Y-97252832D01*
X145454849Y-97272238D01*
X145462081Y-97292450D01*
X145467297Y-97313274D01*
X145470447Y-97334509D01*
X145471500Y-97355950D01*
X145471500Y-97868450D01*
X145470447Y-97889891D01*
X145467297Y-97911126D01*
X145462081Y-97931950D01*
X145454849Y-97952162D01*
X145445670Y-97971568D01*
X145434634Y-97989981D01*
X145421846Y-98007224D01*
X145407430Y-98023130D01*
X145391524Y-98037546D01*
X145374281Y-98050334D01*
X145355868Y-98061370D01*
X145336462Y-98070549D01*
X145316250Y-98077781D01*
X145295426Y-98082997D01*
X145274191Y-98086147D01*
X145252750Y-98087200D01*
X144815250Y-98087200D01*
X144793809Y-98086147D01*
X144772574Y-98082997D01*
X144751750Y-98077781D01*
X144731538Y-98070549D01*
X144712132Y-98061370D01*
X144693719Y-98050334D01*
X144676476Y-98037546D01*
X144660570Y-98023130D01*
X144646154Y-98007224D01*
X144633366Y-97989981D01*
X144622330Y-97971568D01*
X144613151Y-97952162D01*
X144605919Y-97931950D01*
X144600703Y-97911126D01*
X144597553Y-97889891D01*
X144596500Y-97868450D01*
X144596500Y-97355950D01*
X144597553Y-97334509D01*
X144600703Y-97313274D01*
X144605919Y-97292450D01*
X144613151Y-97272238D01*
X144622330Y-97252832D01*
X144633366Y-97234419D01*
X144646154Y-97217176D01*
X144660570Y-97201270D01*
X144676476Y-97186854D01*
X144693719Y-97174066D01*
X144712132Y-97163030D01*
X144731538Y-97153851D01*
X144751750Y-97146619D01*
X144772574Y-97141403D01*
X144793809Y-97138253D01*
X144815250Y-97137200D01*
X145252750Y-97137200D01*
X145274191Y-97138253D01*
G37*
G36*
X154243955Y-99023923D02*
G01*
X154265190Y-99027073D01*
X154286014Y-99032289D01*
X154306226Y-99039521D01*
X154325632Y-99048700D01*
X154344045Y-99059736D01*
X154361288Y-99072524D01*
X154377194Y-99086940D01*
X154391610Y-99102846D01*
X154404398Y-99120089D01*
X154415434Y-99138502D01*
X154424613Y-99157908D01*
X154431845Y-99178120D01*
X154437061Y-99198944D01*
X154440211Y-99220179D01*
X154441264Y-99241620D01*
X154441264Y-99679120D01*
X154440211Y-99700561D01*
X154437061Y-99721796D01*
X154431845Y-99742620D01*
X154424613Y-99762832D01*
X154415434Y-99782238D01*
X154404398Y-99800651D01*
X154391610Y-99817894D01*
X154377194Y-99833800D01*
X154361288Y-99848216D01*
X154344045Y-99861004D01*
X154325632Y-99872040D01*
X154306226Y-99881219D01*
X154286014Y-99888451D01*
X154265190Y-99893667D01*
X154243955Y-99896817D01*
X154222514Y-99897870D01*
X153710014Y-99897870D01*
X153688573Y-99896817D01*
X153667338Y-99893667D01*
X153646514Y-99888451D01*
X153626302Y-99881219D01*
X153606896Y-99872040D01*
X153588483Y-99861004D01*
X153571240Y-99848216D01*
X153555334Y-99833800D01*
X153540918Y-99817894D01*
X153528130Y-99800651D01*
X153517094Y-99782238D01*
X153507915Y-99762832D01*
X153500683Y-99742620D01*
X153495467Y-99721796D01*
X153492317Y-99700561D01*
X153491264Y-99679120D01*
X153491264Y-99241620D01*
X153492317Y-99220179D01*
X153495467Y-99198944D01*
X153500683Y-99178120D01*
X153507915Y-99157908D01*
X153517094Y-99138502D01*
X153528130Y-99120089D01*
X153540918Y-99102846D01*
X153555334Y-99086940D01*
X153571240Y-99072524D01*
X153588483Y-99059736D01*
X153606896Y-99048700D01*
X153626302Y-99039521D01*
X153646514Y-99032289D01*
X153667338Y-99027073D01*
X153688573Y-99023923D01*
X153710014Y-99022870D01*
X154222514Y-99022870D01*
X154243955Y-99023923D01*
G37*
G36*
X154243955Y-100598923D02*
G01*
X154265190Y-100602073D01*
X154286014Y-100607289D01*
X154306226Y-100614521D01*
X154325632Y-100623700D01*
X154344045Y-100634736D01*
X154361288Y-100647524D01*
X154377194Y-100661940D01*
X154391610Y-100677846D01*
X154404398Y-100695089D01*
X154415434Y-100713502D01*
X154424613Y-100732908D01*
X154431845Y-100753120D01*
X154437061Y-100773944D01*
X154440211Y-100795179D01*
X154441264Y-100816620D01*
X154441264Y-101254120D01*
X154440211Y-101275561D01*
X154437061Y-101296796D01*
X154431845Y-101317620D01*
X154424613Y-101337832D01*
X154415434Y-101357238D01*
X154404398Y-101375651D01*
X154391610Y-101392894D01*
X154377194Y-101408800D01*
X154361288Y-101423216D01*
X154344045Y-101436004D01*
X154325632Y-101447040D01*
X154306226Y-101456219D01*
X154286014Y-101463451D01*
X154265190Y-101468667D01*
X154243955Y-101471817D01*
X154222514Y-101472870D01*
X153710014Y-101472870D01*
X153688573Y-101471817D01*
X153667338Y-101468667D01*
X153646514Y-101463451D01*
X153626302Y-101456219D01*
X153606896Y-101447040D01*
X153588483Y-101436004D01*
X153571240Y-101423216D01*
X153555334Y-101408800D01*
X153540918Y-101392894D01*
X153528130Y-101375651D01*
X153517094Y-101357238D01*
X153507915Y-101337832D01*
X153500683Y-101317620D01*
X153495467Y-101296796D01*
X153492317Y-101275561D01*
X153491264Y-101254120D01*
X153491264Y-100816620D01*
X153492317Y-100795179D01*
X153495467Y-100773944D01*
X153500683Y-100753120D01*
X153507915Y-100732908D01*
X153517094Y-100713502D01*
X153528130Y-100695089D01*
X153540918Y-100677846D01*
X153555334Y-100661940D01*
X153571240Y-100647524D01*
X153588483Y-100634736D01*
X153606896Y-100623700D01*
X153626302Y-100614521D01*
X153646514Y-100607289D01*
X153667338Y-100602073D01*
X153688573Y-100598923D01*
X153710014Y-100597870D01*
X154222514Y-100597870D01*
X154243955Y-100598923D01*
G37*
G36*
X141882691Y-81884753D02*
G01*
X141903926Y-81887903D01*
X141924750Y-81893119D01*
X141944962Y-81900351D01*
X141964368Y-81909530D01*
X141982781Y-81920566D01*
X142000024Y-81933354D01*
X142015930Y-81947770D01*
X142030346Y-81963676D01*
X142043134Y-81980919D01*
X142054170Y-81999332D01*
X142063349Y-82018738D01*
X142070581Y-82038950D01*
X142075797Y-82059774D01*
X142078947Y-82081009D01*
X142080000Y-82102450D01*
X142080000Y-82539950D01*
X142078947Y-82561391D01*
X142075797Y-82582626D01*
X142070581Y-82603450D01*
X142063349Y-82623662D01*
X142054170Y-82643068D01*
X142043134Y-82661481D01*
X142030346Y-82678724D01*
X142015930Y-82694630D01*
X142000024Y-82709046D01*
X141982781Y-82721834D01*
X141964368Y-82732870D01*
X141944962Y-82742049D01*
X141924750Y-82749281D01*
X141903926Y-82754497D01*
X141882691Y-82757647D01*
X141861250Y-82758700D01*
X141348750Y-82758700D01*
X141327309Y-82757647D01*
X141306074Y-82754497D01*
X141285250Y-82749281D01*
X141265038Y-82742049D01*
X141245632Y-82732870D01*
X141227219Y-82721834D01*
X141209976Y-82709046D01*
X141194070Y-82694630D01*
X141179654Y-82678724D01*
X141166866Y-82661481D01*
X141155830Y-82643068D01*
X141146651Y-82623662D01*
X141139419Y-82603450D01*
X141134203Y-82582626D01*
X141131053Y-82561391D01*
X141130000Y-82539950D01*
X141130000Y-82102450D01*
X141131053Y-82081009D01*
X141134203Y-82059774D01*
X141139419Y-82038950D01*
X141146651Y-82018738D01*
X141155830Y-81999332D01*
X141166866Y-81980919D01*
X141179654Y-81963676D01*
X141194070Y-81947770D01*
X141209976Y-81933354D01*
X141227219Y-81920566D01*
X141245632Y-81909530D01*
X141265038Y-81900351D01*
X141285250Y-81893119D01*
X141306074Y-81887903D01*
X141327309Y-81884753D01*
X141348750Y-81883700D01*
X141861250Y-81883700D01*
X141882691Y-81884753D01*
G37*
G36*
X141882691Y-83459753D02*
G01*
X141903926Y-83462903D01*
X141924750Y-83468119D01*
X141944962Y-83475351D01*
X141964368Y-83484530D01*
X141982781Y-83495566D01*
X142000024Y-83508354D01*
X142015930Y-83522770D01*
X142030346Y-83538676D01*
X142043134Y-83555919D01*
X142054170Y-83574332D01*
X142063349Y-83593738D01*
X142070581Y-83613950D01*
X142075797Y-83634774D01*
X142078947Y-83656009D01*
X142080000Y-83677450D01*
X142080000Y-84114950D01*
X142078947Y-84136391D01*
X142075797Y-84157626D01*
X142070581Y-84178450D01*
X142063349Y-84198662D01*
X142054170Y-84218068D01*
X142043134Y-84236481D01*
X142030346Y-84253724D01*
X142015930Y-84269630D01*
X142000024Y-84284046D01*
X141982781Y-84296834D01*
X141964368Y-84307870D01*
X141944962Y-84317049D01*
X141924750Y-84324281D01*
X141903926Y-84329497D01*
X141882691Y-84332647D01*
X141861250Y-84333700D01*
X141348750Y-84333700D01*
X141327309Y-84332647D01*
X141306074Y-84329497D01*
X141285250Y-84324281D01*
X141265038Y-84317049D01*
X141245632Y-84307870D01*
X141227219Y-84296834D01*
X141209976Y-84284046D01*
X141194070Y-84269630D01*
X141179654Y-84253724D01*
X141166866Y-84236481D01*
X141155830Y-84218068D01*
X141146651Y-84198662D01*
X141139419Y-84178450D01*
X141134203Y-84157626D01*
X141131053Y-84136391D01*
X141130000Y-84114950D01*
X141130000Y-83677450D01*
X141131053Y-83656009D01*
X141134203Y-83634774D01*
X141139419Y-83613950D01*
X141146651Y-83593738D01*
X141155830Y-83574332D01*
X141166866Y-83555919D01*
X141179654Y-83538676D01*
X141194070Y-83522770D01*
X141209976Y-83508354D01*
X141227219Y-83495566D01*
X141245632Y-83484530D01*
X141265038Y-83475351D01*
X141285250Y-83468119D01*
X141306074Y-83462903D01*
X141327309Y-83459753D01*
X141348750Y-83458700D01*
X141861250Y-83458700D01*
X141882691Y-83459753D01*
G37*
G36*
X152296691Y-128087553D02*
G01*
X152317926Y-128090703D01*
X152338750Y-128095919D01*
X152358962Y-128103151D01*
X152378368Y-128112330D01*
X152396781Y-128123366D01*
X152414024Y-128136154D01*
X152429930Y-128150570D01*
X152444346Y-128166476D01*
X152457134Y-128183719D01*
X152468170Y-128202132D01*
X152477349Y-128221538D01*
X152484581Y-128241750D01*
X152489797Y-128262574D01*
X152492947Y-128283809D01*
X152494000Y-128305250D01*
X152494000Y-128742750D01*
X152492947Y-128764191D01*
X152489797Y-128785426D01*
X152484581Y-128806250D01*
X152477349Y-128826462D01*
X152468170Y-128845868D01*
X152457134Y-128864281D01*
X152444346Y-128881524D01*
X152429930Y-128897430D01*
X152414024Y-128911846D01*
X152396781Y-128924634D01*
X152378368Y-128935670D01*
X152358962Y-128944849D01*
X152338750Y-128952081D01*
X152317926Y-128957297D01*
X152296691Y-128960447D01*
X152275250Y-128961500D01*
X151762750Y-128961500D01*
X151741309Y-128960447D01*
X151720074Y-128957297D01*
X151699250Y-128952081D01*
X151679038Y-128944849D01*
X151659632Y-128935670D01*
X151641219Y-128924634D01*
X151623976Y-128911846D01*
X151608070Y-128897430D01*
X151593654Y-128881524D01*
X151580866Y-128864281D01*
X151569830Y-128845868D01*
X151560651Y-128826462D01*
X151553419Y-128806250D01*
X151548203Y-128785426D01*
X151545053Y-128764191D01*
X151544000Y-128742750D01*
X151544000Y-128305250D01*
X151545053Y-128283809D01*
X151548203Y-128262574D01*
X151553419Y-128241750D01*
X151560651Y-128221538D01*
X151569830Y-128202132D01*
X151580866Y-128183719D01*
X151593654Y-128166476D01*
X151608070Y-128150570D01*
X151623976Y-128136154D01*
X151641219Y-128123366D01*
X151659632Y-128112330D01*
X151679038Y-128103151D01*
X151699250Y-128095919D01*
X151720074Y-128090703D01*
X151741309Y-128087553D01*
X151762750Y-128086500D01*
X152275250Y-128086500D01*
X152296691Y-128087553D01*
G37*
G36*
X152296691Y-126512553D02*
G01*
X152317926Y-126515703D01*
X152338750Y-126520919D01*
X152358962Y-126528151D01*
X152378368Y-126537330D01*
X152396781Y-126548366D01*
X152414024Y-126561154D01*
X152429930Y-126575570D01*
X152444346Y-126591476D01*
X152457134Y-126608719D01*
X152468170Y-126627132D01*
X152477349Y-126646538D01*
X152484581Y-126666750D01*
X152489797Y-126687574D01*
X152492947Y-126708809D01*
X152494000Y-126730250D01*
X152494000Y-127167750D01*
X152492947Y-127189191D01*
X152489797Y-127210426D01*
X152484581Y-127231250D01*
X152477349Y-127251462D01*
X152468170Y-127270868D01*
X152457134Y-127289281D01*
X152444346Y-127306524D01*
X152429930Y-127322430D01*
X152414024Y-127336846D01*
X152396781Y-127349634D01*
X152378368Y-127360670D01*
X152358962Y-127369849D01*
X152338750Y-127377081D01*
X152317926Y-127382297D01*
X152296691Y-127385447D01*
X152275250Y-127386500D01*
X151762750Y-127386500D01*
X151741309Y-127385447D01*
X151720074Y-127382297D01*
X151699250Y-127377081D01*
X151679038Y-127369849D01*
X151659632Y-127360670D01*
X151641219Y-127349634D01*
X151623976Y-127336846D01*
X151608070Y-127322430D01*
X151593654Y-127306524D01*
X151580866Y-127289281D01*
X151569830Y-127270868D01*
X151560651Y-127251462D01*
X151553419Y-127231250D01*
X151548203Y-127210426D01*
X151545053Y-127189191D01*
X151544000Y-127167750D01*
X151544000Y-126730250D01*
X151545053Y-126708809D01*
X151548203Y-126687574D01*
X151553419Y-126666750D01*
X151560651Y-126646538D01*
X151569830Y-126627132D01*
X151580866Y-126608719D01*
X151593654Y-126591476D01*
X151608070Y-126575570D01*
X151623976Y-126561154D01*
X151641219Y-126548366D01*
X151659632Y-126537330D01*
X151679038Y-126528151D01*
X151699250Y-126520919D01*
X151720074Y-126515703D01*
X151741309Y-126512553D01*
X151762750Y-126511500D01*
X152275250Y-126511500D01*
X152296691Y-126512553D01*
G37*
G36*
X149883691Y-128087553D02*
G01*
X149904926Y-128090703D01*
X149925750Y-128095919D01*
X149945962Y-128103151D01*
X149965368Y-128112330D01*
X149983781Y-128123366D01*
X150001024Y-128136154D01*
X150016930Y-128150570D01*
X150031346Y-128166476D01*
X150044134Y-128183719D01*
X150055170Y-128202132D01*
X150064349Y-128221538D01*
X150071581Y-128241750D01*
X150076797Y-128262574D01*
X150079947Y-128283809D01*
X150081000Y-128305250D01*
X150081000Y-128742750D01*
X150079947Y-128764191D01*
X150076797Y-128785426D01*
X150071581Y-128806250D01*
X150064349Y-128826462D01*
X150055170Y-128845868D01*
X150044134Y-128864281D01*
X150031346Y-128881524D01*
X150016930Y-128897430D01*
X150001024Y-128911846D01*
X149983781Y-128924634D01*
X149965368Y-128935670D01*
X149945962Y-128944849D01*
X149925750Y-128952081D01*
X149904926Y-128957297D01*
X149883691Y-128960447D01*
X149862250Y-128961500D01*
X149349750Y-128961500D01*
X149328309Y-128960447D01*
X149307074Y-128957297D01*
X149286250Y-128952081D01*
X149266038Y-128944849D01*
X149246632Y-128935670D01*
X149228219Y-128924634D01*
X149210976Y-128911846D01*
X149195070Y-128897430D01*
X149180654Y-128881524D01*
X149167866Y-128864281D01*
X149156830Y-128845868D01*
X149147651Y-128826462D01*
X149140419Y-128806250D01*
X149135203Y-128785426D01*
X149132053Y-128764191D01*
X149131000Y-128742750D01*
X149131000Y-128305250D01*
X149132053Y-128283809D01*
X149135203Y-128262574D01*
X149140419Y-128241750D01*
X149147651Y-128221538D01*
X149156830Y-128202132D01*
X149167866Y-128183719D01*
X149180654Y-128166476D01*
X149195070Y-128150570D01*
X149210976Y-128136154D01*
X149228219Y-128123366D01*
X149246632Y-128112330D01*
X149266038Y-128103151D01*
X149286250Y-128095919D01*
X149307074Y-128090703D01*
X149328309Y-128087553D01*
X149349750Y-128086500D01*
X149862250Y-128086500D01*
X149883691Y-128087553D01*
G37*
G36*
X149883691Y-126512553D02*
G01*
X149904926Y-126515703D01*
X149925750Y-126520919D01*
X149945962Y-126528151D01*
X149965368Y-126537330D01*
X149983781Y-126548366D01*
X150001024Y-126561154D01*
X150016930Y-126575570D01*
X150031346Y-126591476D01*
X150044134Y-126608719D01*
X150055170Y-126627132D01*
X150064349Y-126646538D01*
X150071581Y-126666750D01*
X150076797Y-126687574D01*
X150079947Y-126708809D01*
X150081000Y-126730250D01*
X150081000Y-127167750D01*
X150079947Y-127189191D01*
X150076797Y-127210426D01*
X150071581Y-127231250D01*
X150064349Y-127251462D01*
X150055170Y-127270868D01*
X150044134Y-127289281D01*
X150031346Y-127306524D01*
X150016930Y-127322430D01*
X150001024Y-127336846D01*
X149983781Y-127349634D01*
X149965368Y-127360670D01*
X149945962Y-127369849D01*
X149925750Y-127377081D01*
X149904926Y-127382297D01*
X149883691Y-127385447D01*
X149862250Y-127386500D01*
X149349750Y-127386500D01*
X149328309Y-127385447D01*
X149307074Y-127382297D01*
X149286250Y-127377081D01*
X149266038Y-127369849D01*
X149246632Y-127360670D01*
X149228219Y-127349634D01*
X149210976Y-127336846D01*
X149195070Y-127322430D01*
X149180654Y-127306524D01*
X149167866Y-127289281D01*
X149156830Y-127270868D01*
X149147651Y-127251462D01*
X149140419Y-127231250D01*
X149135203Y-127210426D01*
X149132053Y-127189191D01*
X149131000Y-127167750D01*
X149131000Y-126730250D01*
X149132053Y-126708809D01*
X149135203Y-126687574D01*
X149140419Y-126666750D01*
X149147651Y-126646538D01*
X149156830Y-126627132D01*
X149167866Y-126608719D01*
X149180654Y-126591476D01*
X149195070Y-126575570D01*
X149210976Y-126561154D01*
X149228219Y-126548366D01*
X149246632Y-126537330D01*
X149266038Y-126528151D01*
X149286250Y-126520919D01*
X149307074Y-126515703D01*
X149328309Y-126512553D01*
X149349750Y-126511500D01*
X149862250Y-126511500D01*
X149883691Y-126512553D01*
G37*
G36*
X143877391Y-95665053D02*
G01*
X143898626Y-95668203D01*
X143919450Y-95673419D01*
X143939662Y-95680651D01*
X143959068Y-95689830D01*
X143977481Y-95700866D01*
X143994724Y-95713654D01*
X144010630Y-95728070D01*
X144025046Y-95743976D01*
X144037834Y-95761219D01*
X144048870Y-95779632D01*
X144058049Y-95799038D01*
X144065281Y-95819250D01*
X144070497Y-95840074D01*
X144073647Y-95861309D01*
X144074700Y-95882750D01*
X144074700Y-96395250D01*
X144073647Y-96416691D01*
X144070497Y-96437926D01*
X144065281Y-96458750D01*
X144058049Y-96478962D01*
X144048870Y-96498368D01*
X144037834Y-96516781D01*
X144025046Y-96534024D01*
X144010630Y-96549930D01*
X143994724Y-96564346D01*
X143977481Y-96577134D01*
X143959068Y-96588170D01*
X143939662Y-96597349D01*
X143919450Y-96604581D01*
X143898626Y-96609797D01*
X143877391Y-96612947D01*
X143855950Y-96614000D01*
X143418450Y-96614000D01*
X143397009Y-96612947D01*
X143375774Y-96609797D01*
X143354950Y-96604581D01*
X143334738Y-96597349D01*
X143315332Y-96588170D01*
X143296919Y-96577134D01*
X143279676Y-96564346D01*
X143263770Y-96549930D01*
X143249354Y-96534024D01*
X143236566Y-96516781D01*
X143225530Y-96498368D01*
X143216351Y-96478962D01*
X143209119Y-96458750D01*
X143203903Y-96437926D01*
X143200753Y-96416691D01*
X143199700Y-96395250D01*
X143199700Y-95882750D01*
X143200753Y-95861309D01*
X143203903Y-95840074D01*
X143209119Y-95819250D01*
X143216351Y-95799038D01*
X143225530Y-95779632D01*
X143236566Y-95761219D01*
X143249354Y-95743976D01*
X143263770Y-95728070D01*
X143279676Y-95713654D01*
X143296919Y-95700866D01*
X143315332Y-95689830D01*
X143334738Y-95680651D01*
X143354950Y-95673419D01*
X143375774Y-95668203D01*
X143397009Y-95665053D01*
X143418450Y-95664000D01*
X143855950Y-95664000D01*
X143877391Y-95665053D01*
G37*
G36*
X142302391Y-95665053D02*
G01*
X142323626Y-95668203D01*
X142344450Y-95673419D01*
X142364662Y-95680651D01*
X142384068Y-95689830D01*
X142402481Y-95700866D01*
X142419724Y-95713654D01*
X142435630Y-95728070D01*
X142450046Y-95743976D01*
X142462834Y-95761219D01*
X142473870Y-95779632D01*
X142483049Y-95799038D01*
X142490281Y-95819250D01*
X142495497Y-95840074D01*
X142498647Y-95861309D01*
X142499700Y-95882750D01*
X142499700Y-96395250D01*
X142498647Y-96416691D01*
X142495497Y-96437926D01*
X142490281Y-96458750D01*
X142483049Y-96478962D01*
X142473870Y-96498368D01*
X142462834Y-96516781D01*
X142450046Y-96534024D01*
X142435630Y-96549930D01*
X142419724Y-96564346D01*
X142402481Y-96577134D01*
X142384068Y-96588170D01*
X142364662Y-96597349D01*
X142344450Y-96604581D01*
X142323626Y-96609797D01*
X142302391Y-96612947D01*
X142280950Y-96614000D01*
X141843450Y-96614000D01*
X141822009Y-96612947D01*
X141800774Y-96609797D01*
X141779950Y-96604581D01*
X141759738Y-96597349D01*
X141740332Y-96588170D01*
X141721919Y-96577134D01*
X141704676Y-96564346D01*
X141688770Y-96549930D01*
X141674354Y-96534024D01*
X141661566Y-96516781D01*
X141650530Y-96498368D01*
X141641351Y-96478962D01*
X141634119Y-96458750D01*
X141628903Y-96437926D01*
X141625753Y-96416691D01*
X141624700Y-96395250D01*
X141624700Y-95882750D01*
X141625753Y-95861309D01*
X141628903Y-95840074D01*
X141634119Y-95819250D01*
X141641351Y-95799038D01*
X141650530Y-95779632D01*
X141661566Y-95761219D01*
X141674354Y-95743976D01*
X141688770Y-95728070D01*
X141704676Y-95713654D01*
X141721919Y-95700866D01*
X141740332Y-95689830D01*
X141759738Y-95680651D01*
X141779950Y-95673419D01*
X141800774Y-95668203D01*
X141822009Y-95665053D01*
X141843450Y-95664000D01*
X142280950Y-95664000D01*
X142302391Y-95665053D01*
G37*
G36*
X147343691Y-128087553D02*
G01*
X147364926Y-128090703D01*
X147385750Y-128095919D01*
X147405962Y-128103151D01*
X147425368Y-128112330D01*
X147443781Y-128123366D01*
X147461024Y-128136154D01*
X147476930Y-128150570D01*
X147491346Y-128166476D01*
X147504134Y-128183719D01*
X147515170Y-128202132D01*
X147524349Y-128221538D01*
X147531581Y-128241750D01*
X147536797Y-128262574D01*
X147539947Y-128283809D01*
X147541000Y-128305250D01*
X147541000Y-128742750D01*
X147539947Y-128764191D01*
X147536797Y-128785426D01*
X147531581Y-128806250D01*
X147524349Y-128826462D01*
X147515170Y-128845868D01*
X147504134Y-128864281D01*
X147491346Y-128881524D01*
X147476930Y-128897430D01*
X147461024Y-128911846D01*
X147443781Y-128924634D01*
X147425368Y-128935670D01*
X147405962Y-128944849D01*
X147385750Y-128952081D01*
X147364926Y-128957297D01*
X147343691Y-128960447D01*
X147322250Y-128961500D01*
X146809750Y-128961500D01*
X146788309Y-128960447D01*
X146767074Y-128957297D01*
X146746250Y-128952081D01*
X146726038Y-128944849D01*
X146706632Y-128935670D01*
X146688219Y-128924634D01*
X146670976Y-128911846D01*
X146655070Y-128897430D01*
X146640654Y-128881524D01*
X146627866Y-128864281D01*
X146616830Y-128845868D01*
X146607651Y-128826462D01*
X146600419Y-128806250D01*
X146595203Y-128785426D01*
X146592053Y-128764191D01*
X146591000Y-128742750D01*
X146591000Y-128305250D01*
X146592053Y-128283809D01*
X146595203Y-128262574D01*
X146600419Y-128241750D01*
X146607651Y-128221538D01*
X146616830Y-128202132D01*
X146627866Y-128183719D01*
X146640654Y-128166476D01*
X146655070Y-128150570D01*
X146670976Y-128136154D01*
X146688219Y-128123366D01*
X146706632Y-128112330D01*
X146726038Y-128103151D01*
X146746250Y-128095919D01*
X146767074Y-128090703D01*
X146788309Y-128087553D01*
X146809750Y-128086500D01*
X147322250Y-128086500D01*
X147343691Y-128087553D01*
G37*
G36*
X147343691Y-126512553D02*
G01*
X147364926Y-126515703D01*
X147385750Y-126520919D01*
X147405962Y-126528151D01*
X147425368Y-126537330D01*
X147443781Y-126548366D01*
X147461024Y-126561154D01*
X147476930Y-126575570D01*
X147491346Y-126591476D01*
X147504134Y-126608719D01*
X147515170Y-126627132D01*
X147524349Y-126646538D01*
X147531581Y-126666750D01*
X147536797Y-126687574D01*
X147539947Y-126708809D01*
X147541000Y-126730250D01*
X147541000Y-127167750D01*
X147539947Y-127189191D01*
X147536797Y-127210426D01*
X147531581Y-127231250D01*
X147524349Y-127251462D01*
X147515170Y-127270868D01*
X147504134Y-127289281D01*
X147491346Y-127306524D01*
X147476930Y-127322430D01*
X147461024Y-127336846D01*
X147443781Y-127349634D01*
X147425368Y-127360670D01*
X147405962Y-127369849D01*
X147385750Y-127377081D01*
X147364926Y-127382297D01*
X147343691Y-127385447D01*
X147322250Y-127386500D01*
X146809750Y-127386500D01*
X146788309Y-127385447D01*
X146767074Y-127382297D01*
X146746250Y-127377081D01*
X146726038Y-127369849D01*
X146706632Y-127360670D01*
X146688219Y-127349634D01*
X146670976Y-127336846D01*
X146655070Y-127322430D01*
X146640654Y-127306524D01*
X146627866Y-127289281D01*
X146616830Y-127270868D01*
X146607651Y-127251462D01*
X146600419Y-127231250D01*
X146595203Y-127210426D01*
X146592053Y-127189191D01*
X146591000Y-127167750D01*
X146591000Y-126730250D01*
X146592053Y-126708809D01*
X146595203Y-126687574D01*
X146600419Y-126666750D01*
X146607651Y-126646538D01*
X146616830Y-126627132D01*
X146627866Y-126608719D01*
X146640654Y-126591476D01*
X146655070Y-126575570D01*
X146670976Y-126561154D01*
X146688219Y-126548366D01*
X146706632Y-126537330D01*
X146726038Y-126528151D01*
X146746250Y-126520919D01*
X146767074Y-126515703D01*
X146788309Y-126512553D01*
X146809750Y-126511500D01*
X147322250Y-126511500D01*
X147343691Y-126512553D01*
G37*
G36*
X144803691Y-128011553D02*
G01*
X144824926Y-128014703D01*
X144845750Y-128019919D01*
X144865962Y-128027151D01*
X144885368Y-128036330D01*
X144903781Y-128047366D01*
X144921024Y-128060154D01*
X144936930Y-128074570D01*
X144951346Y-128090476D01*
X144964134Y-128107719D01*
X144975170Y-128126132D01*
X144984349Y-128145538D01*
X144991581Y-128165750D01*
X144996797Y-128186574D01*
X144999947Y-128207809D01*
X145001000Y-128229250D01*
X145001000Y-128666750D01*
X144999947Y-128688191D01*
X144996797Y-128709426D01*
X144991581Y-128730250D01*
X144984349Y-128750462D01*
X144975170Y-128769868D01*
X144964134Y-128788281D01*
X144951346Y-128805524D01*
X144936930Y-128821430D01*
X144921024Y-128835846D01*
X144903781Y-128848634D01*
X144885368Y-128859670D01*
X144865962Y-128868849D01*
X144845750Y-128876081D01*
X144824926Y-128881297D01*
X144803691Y-128884447D01*
X144782250Y-128885500D01*
X144269750Y-128885500D01*
X144248309Y-128884447D01*
X144227074Y-128881297D01*
X144206250Y-128876081D01*
X144186038Y-128868849D01*
X144166632Y-128859670D01*
X144148219Y-128848634D01*
X144130976Y-128835846D01*
X144115070Y-128821430D01*
X144100654Y-128805524D01*
X144087866Y-128788281D01*
X144076830Y-128769868D01*
X144067651Y-128750462D01*
X144060419Y-128730250D01*
X144055203Y-128709426D01*
X144052053Y-128688191D01*
X144051000Y-128666750D01*
X144051000Y-128229250D01*
X144052053Y-128207809D01*
X144055203Y-128186574D01*
X144060419Y-128165750D01*
X144067651Y-128145538D01*
X144076830Y-128126132D01*
X144087866Y-128107719D01*
X144100654Y-128090476D01*
X144115070Y-128074570D01*
X144130976Y-128060154D01*
X144148219Y-128047366D01*
X144166632Y-128036330D01*
X144186038Y-128027151D01*
X144206250Y-128019919D01*
X144227074Y-128014703D01*
X144248309Y-128011553D01*
X144269750Y-128010500D01*
X144782250Y-128010500D01*
X144803691Y-128011553D01*
G37*
G36*
X144803691Y-126436553D02*
G01*
X144824926Y-126439703D01*
X144845750Y-126444919D01*
X144865962Y-126452151D01*
X144885368Y-126461330D01*
X144903781Y-126472366D01*
X144921024Y-126485154D01*
X144936930Y-126499570D01*
X144951346Y-126515476D01*
X144964134Y-126532719D01*
X144975170Y-126551132D01*
X144984349Y-126570538D01*
X144991581Y-126590750D01*
X144996797Y-126611574D01*
X144999947Y-126632809D01*
X145001000Y-126654250D01*
X145001000Y-127091750D01*
X144999947Y-127113191D01*
X144996797Y-127134426D01*
X144991581Y-127155250D01*
X144984349Y-127175462D01*
X144975170Y-127194868D01*
X144964134Y-127213281D01*
X144951346Y-127230524D01*
X144936930Y-127246430D01*
X144921024Y-127260846D01*
X144903781Y-127273634D01*
X144885368Y-127284670D01*
X144865962Y-127293849D01*
X144845750Y-127301081D01*
X144824926Y-127306297D01*
X144803691Y-127309447D01*
X144782250Y-127310500D01*
X144269750Y-127310500D01*
X144248309Y-127309447D01*
X144227074Y-127306297D01*
X144206250Y-127301081D01*
X144186038Y-127293849D01*
X144166632Y-127284670D01*
X144148219Y-127273634D01*
X144130976Y-127260846D01*
X144115070Y-127246430D01*
X144100654Y-127230524D01*
X144087866Y-127213281D01*
X144076830Y-127194868D01*
X144067651Y-127175462D01*
X144060419Y-127155250D01*
X144055203Y-127134426D01*
X144052053Y-127113191D01*
X144051000Y-127091750D01*
X144051000Y-126654250D01*
X144052053Y-126632809D01*
X144055203Y-126611574D01*
X144060419Y-126590750D01*
X144067651Y-126570538D01*
X144076830Y-126551132D01*
X144087866Y-126532719D01*
X144100654Y-126515476D01*
X144115070Y-126499570D01*
X144130976Y-126485154D01*
X144148219Y-126472366D01*
X144166632Y-126461330D01*
X144186038Y-126452151D01*
X144206250Y-126444919D01*
X144227074Y-126439703D01*
X144248309Y-126436553D01*
X144269750Y-126435500D01*
X144782250Y-126435500D01*
X144803691Y-126436553D01*
G37*
G36*
X155598691Y-88971553D02*
G01*
X155619926Y-88974703D01*
X155640750Y-88979919D01*
X155660962Y-88987151D01*
X155680368Y-88996330D01*
X155698781Y-89007366D01*
X155716024Y-89020154D01*
X155731930Y-89034570D01*
X155746346Y-89050476D01*
X155759134Y-89067719D01*
X155770170Y-89086132D01*
X155779349Y-89105538D01*
X155786581Y-89125750D01*
X155791797Y-89146574D01*
X155794947Y-89167809D01*
X155796000Y-89189250D01*
X155796000Y-89626750D01*
X155794947Y-89648191D01*
X155791797Y-89669426D01*
X155786581Y-89690250D01*
X155779349Y-89710462D01*
X155770170Y-89729868D01*
X155759134Y-89748281D01*
X155746346Y-89765524D01*
X155731930Y-89781430D01*
X155716024Y-89795846D01*
X155698781Y-89808634D01*
X155680368Y-89819670D01*
X155660962Y-89828849D01*
X155640750Y-89836081D01*
X155619926Y-89841297D01*
X155598691Y-89844447D01*
X155577250Y-89845500D01*
X155064750Y-89845500D01*
X155043309Y-89844447D01*
X155022074Y-89841297D01*
X155001250Y-89836081D01*
X154981038Y-89828849D01*
X154961632Y-89819670D01*
X154943219Y-89808634D01*
X154925976Y-89795846D01*
X154910070Y-89781430D01*
X154895654Y-89765524D01*
X154882866Y-89748281D01*
X154871830Y-89729868D01*
X154862651Y-89710462D01*
X154855419Y-89690250D01*
X154850203Y-89669426D01*
X154847053Y-89648191D01*
X154846000Y-89626750D01*
X154846000Y-89189250D01*
X154847053Y-89167809D01*
X154850203Y-89146574D01*
X154855419Y-89125750D01*
X154862651Y-89105538D01*
X154871830Y-89086132D01*
X154882866Y-89067719D01*
X154895654Y-89050476D01*
X154910070Y-89034570D01*
X154925976Y-89020154D01*
X154943219Y-89007366D01*
X154961632Y-88996330D01*
X154981038Y-88987151D01*
X155001250Y-88979919D01*
X155022074Y-88974703D01*
X155043309Y-88971553D01*
X155064750Y-88970500D01*
X155577250Y-88970500D01*
X155598691Y-88971553D01*
G37*
G36*
X155598691Y-87396553D02*
G01*
X155619926Y-87399703D01*
X155640750Y-87404919D01*
X155660962Y-87412151D01*
X155680368Y-87421330D01*
X155698781Y-87432366D01*
X155716024Y-87445154D01*
X155731930Y-87459570D01*
X155746346Y-87475476D01*
X155759134Y-87492719D01*
X155770170Y-87511132D01*
X155779349Y-87530538D01*
X155786581Y-87550750D01*
X155791797Y-87571574D01*
X155794947Y-87592809D01*
X155796000Y-87614250D01*
X155796000Y-88051750D01*
X155794947Y-88073191D01*
X155791797Y-88094426D01*
X155786581Y-88115250D01*
X155779349Y-88135462D01*
X155770170Y-88154868D01*
X155759134Y-88173281D01*
X155746346Y-88190524D01*
X155731930Y-88206430D01*
X155716024Y-88220846D01*
X155698781Y-88233634D01*
X155680368Y-88244670D01*
X155660962Y-88253849D01*
X155640750Y-88261081D01*
X155619926Y-88266297D01*
X155598691Y-88269447D01*
X155577250Y-88270500D01*
X155064750Y-88270500D01*
X155043309Y-88269447D01*
X155022074Y-88266297D01*
X155001250Y-88261081D01*
X154981038Y-88253849D01*
X154961632Y-88244670D01*
X154943219Y-88233634D01*
X154925976Y-88220846D01*
X154910070Y-88206430D01*
X154895654Y-88190524D01*
X154882866Y-88173281D01*
X154871830Y-88154868D01*
X154862651Y-88135462D01*
X154855419Y-88115250D01*
X154850203Y-88094426D01*
X154847053Y-88073191D01*
X154846000Y-88051750D01*
X154846000Y-87614250D01*
X154847053Y-87592809D01*
X154850203Y-87571574D01*
X154855419Y-87550750D01*
X154862651Y-87530538D01*
X154871830Y-87511132D01*
X154882866Y-87492719D01*
X154895654Y-87475476D01*
X154910070Y-87459570D01*
X154925976Y-87445154D01*
X154943219Y-87432366D01*
X154961632Y-87421330D01*
X154981038Y-87412151D01*
X155001250Y-87404919D01*
X155022074Y-87399703D01*
X155043309Y-87396553D01*
X155064750Y-87395500D01*
X155577250Y-87395500D01*
X155598691Y-87396553D01*
G37*
G36*
X152719955Y-99049423D02*
G01*
X152741190Y-99052573D01*
X152762014Y-99057789D01*
X152782226Y-99065021D01*
X152801632Y-99074200D01*
X152820045Y-99085236D01*
X152837288Y-99098024D01*
X152853194Y-99112440D01*
X152867610Y-99128346D01*
X152880398Y-99145589D01*
X152891434Y-99164002D01*
X152900613Y-99183408D01*
X152907845Y-99203620D01*
X152913061Y-99224444D01*
X152916211Y-99245679D01*
X152917264Y-99267120D01*
X152917264Y-99704620D01*
X152916211Y-99726061D01*
X152913061Y-99747296D01*
X152907845Y-99768120D01*
X152900613Y-99788332D01*
X152891434Y-99807738D01*
X152880398Y-99826151D01*
X152867610Y-99843394D01*
X152853194Y-99859300D01*
X152837288Y-99873716D01*
X152820045Y-99886504D01*
X152801632Y-99897540D01*
X152782226Y-99906719D01*
X152762014Y-99913951D01*
X152741190Y-99919167D01*
X152719955Y-99922317D01*
X152698514Y-99923370D01*
X152186014Y-99923370D01*
X152164573Y-99922317D01*
X152143338Y-99919167D01*
X152122514Y-99913951D01*
X152102302Y-99906719D01*
X152082896Y-99897540D01*
X152064483Y-99886504D01*
X152047240Y-99873716D01*
X152031334Y-99859300D01*
X152016918Y-99843394D01*
X152004130Y-99826151D01*
X151993094Y-99807738D01*
X151983915Y-99788332D01*
X151976683Y-99768120D01*
X151971467Y-99747296D01*
X151968317Y-99726061D01*
X151967264Y-99704620D01*
X151967264Y-99267120D01*
X151968317Y-99245679D01*
X151971467Y-99224444D01*
X151976683Y-99203620D01*
X151983915Y-99183408D01*
X151993094Y-99164002D01*
X152004130Y-99145589D01*
X152016918Y-99128346D01*
X152031334Y-99112440D01*
X152047240Y-99098024D01*
X152064483Y-99085236D01*
X152082896Y-99074200D01*
X152102302Y-99065021D01*
X152122514Y-99057789D01*
X152143338Y-99052573D01*
X152164573Y-99049423D01*
X152186014Y-99048370D01*
X152698514Y-99048370D01*
X152719955Y-99049423D01*
G37*
G36*
X152719955Y-100624423D02*
G01*
X152741190Y-100627573D01*
X152762014Y-100632789D01*
X152782226Y-100640021D01*
X152801632Y-100649200D01*
X152820045Y-100660236D01*
X152837288Y-100673024D01*
X152853194Y-100687440D01*
X152867610Y-100703346D01*
X152880398Y-100720589D01*
X152891434Y-100739002D01*
X152900613Y-100758408D01*
X152907845Y-100778620D01*
X152913061Y-100799444D01*
X152916211Y-100820679D01*
X152917264Y-100842120D01*
X152917264Y-101279620D01*
X152916211Y-101301061D01*
X152913061Y-101322296D01*
X152907845Y-101343120D01*
X152900613Y-101363332D01*
X152891434Y-101382738D01*
X152880398Y-101401151D01*
X152867610Y-101418394D01*
X152853194Y-101434300D01*
X152837288Y-101448716D01*
X152820045Y-101461504D01*
X152801632Y-101472540D01*
X152782226Y-101481719D01*
X152762014Y-101488951D01*
X152741190Y-101494167D01*
X152719955Y-101497317D01*
X152698514Y-101498370D01*
X152186014Y-101498370D01*
X152164573Y-101497317D01*
X152143338Y-101494167D01*
X152122514Y-101488951D01*
X152102302Y-101481719D01*
X152082896Y-101472540D01*
X152064483Y-101461504D01*
X152047240Y-101448716D01*
X152031334Y-101434300D01*
X152016918Y-101418394D01*
X152004130Y-101401151D01*
X151993094Y-101382738D01*
X151983915Y-101363332D01*
X151976683Y-101343120D01*
X151971467Y-101322296D01*
X151968317Y-101301061D01*
X151967264Y-101279620D01*
X151967264Y-100842120D01*
X151968317Y-100820679D01*
X151971467Y-100799444D01*
X151976683Y-100778620D01*
X151983915Y-100758408D01*
X151993094Y-100739002D01*
X152004130Y-100720589D01*
X152016918Y-100703346D01*
X152031334Y-100687440D01*
X152047240Y-100673024D01*
X152064483Y-100660236D01*
X152082896Y-100649200D01*
X152102302Y-100640021D01*
X152122514Y-100632789D01*
X152143338Y-100627573D01*
X152164573Y-100624423D01*
X152186014Y-100623370D01*
X152698514Y-100623370D01*
X152719955Y-100624423D01*
G37*
G36*
X141628691Y-113939553D02*
G01*
X141649926Y-113942703D01*
X141670750Y-113947919D01*
X141690962Y-113955151D01*
X141710368Y-113964330D01*
X141728781Y-113975366D01*
X141746024Y-113988154D01*
X141761930Y-114002570D01*
X141776346Y-114018476D01*
X141789134Y-114035719D01*
X141800170Y-114054132D01*
X141809349Y-114073538D01*
X141816581Y-114093750D01*
X141821797Y-114114574D01*
X141824947Y-114135809D01*
X141826000Y-114157250D01*
X141826000Y-114594750D01*
X141824947Y-114616191D01*
X141821797Y-114637426D01*
X141816581Y-114658250D01*
X141809349Y-114678462D01*
X141800170Y-114697868D01*
X141789134Y-114716281D01*
X141776346Y-114733524D01*
X141761930Y-114749430D01*
X141746024Y-114763846D01*
X141728781Y-114776634D01*
X141710368Y-114787670D01*
X141690962Y-114796849D01*
X141670750Y-114804081D01*
X141649926Y-114809297D01*
X141628691Y-114812447D01*
X141607250Y-114813500D01*
X141094750Y-114813500D01*
X141073309Y-114812447D01*
X141052074Y-114809297D01*
X141031250Y-114804081D01*
X141011038Y-114796849D01*
X140991632Y-114787670D01*
X140973219Y-114776634D01*
X140955976Y-114763846D01*
X140940070Y-114749430D01*
X140925654Y-114733524D01*
X140912866Y-114716281D01*
X140901830Y-114697868D01*
X140892651Y-114678462D01*
X140885419Y-114658250D01*
X140880203Y-114637426D01*
X140877053Y-114616191D01*
X140876000Y-114594750D01*
X140876000Y-114157250D01*
X140877053Y-114135809D01*
X140880203Y-114114574D01*
X140885419Y-114093750D01*
X140892651Y-114073538D01*
X140901830Y-114054132D01*
X140912866Y-114035719D01*
X140925654Y-114018476D01*
X140940070Y-114002570D01*
X140955976Y-113988154D01*
X140973219Y-113975366D01*
X140991632Y-113964330D01*
X141011038Y-113955151D01*
X141031250Y-113947919D01*
X141052074Y-113942703D01*
X141073309Y-113939553D01*
X141094750Y-113938500D01*
X141607250Y-113938500D01*
X141628691Y-113939553D01*
G37*
G36*
X141628691Y-115514553D02*
G01*
X141649926Y-115517703D01*
X141670750Y-115522919D01*
X141690962Y-115530151D01*
X141710368Y-115539330D01*
X141728781Y-115550366D01*
X141746024Y-115563154D01*
X141761930Y-115577570D01*
X141776346Y-115593476D01*
X141789134Y-115610719D01*
X141800170Y-115629132D01*
X141809349Y-115648538D01*
X141816581Y-115668750D01*
X141821797Y-115689574D01*
X141824947Y-115710809D01*
X141826000Y-115732250D01*
X141826000Y-116169750D01*
X141824947Y-116191191D01*
X141821797Y-116212426D01*
X141816581Y-116233250D01*
X141809349Y-116253462D01*
X141800170Y-116272868D01*
X141789134Y-116291281D01*
X141776346Y-116308524D01*
X141761930Y-116324430D01*
X141746024Y-116338846D01*
X141728781Y-116351634D01*
X141710368Y-116362670D01*
X141690962Y-116371849D01*
X141670750Y-116379081D01*
X141649926Y-116384297D01*
X141628691Y-116387447D01*
X141607250Y-116388500D01*
X141094750Y-116388500D01*
X141073309Y-116387447D01*
X141052074Y-116384297D01*
X141031250Y-116379081D01*
X141011038Y-116371849D01*
X140991632Y-116362670D01*
X140973219Y-116351634D01*
X140955976Y-116338846D01*
X140940070Y-116324430D01*
X140925654Y-116308524D01*
X140912866Y-116291281D01*
X140901830Y-116272868D01*
X140892651Y-116253462D01*
X140885419Y-116233250D01*
X140880203Y-116212426D01*
X140877053Y-116191191D01*
X140876000Y-116169750D01*
X140876000Y-115732250D01*
X140877053Y-115710809D01*
X140880203Y-115689574D01*
X140885419Y-115668750D01*
X140892651Y-115648538D01*
X140901830Y-115629132D01*
X140912866Y-115610719D01*
X140925654Y-115593476D01*
X140940070Y-115577570D01*
X140955976Y-115563154D01*
X140973219Y-115550366D01*
X140991632Y-115539330D01*
X141011038Y-115530151D01*
X141031250Y-115522919D01*
X141052074Y-115517703D01*
X141073309Y-115514553D01*
X141094750Y-115513500D01*
X141607250Y-115513500D01*
X141628691Y-115514553D01*
G37*
G36*
X155598691Y-85415553D02*
G01*
X155619926Y-85418703D01*
X155640750Y-85423919D01*
X155660962Y-85431151D01*
X155680368Y-85440330D01*
X155698781Y-85451366D01*
X155716024Y-85464154D01*
X155731930Y-85478570D01*
X155746346Y-85494476D01*
X155759134Y-85511719D01*
X155770170Y-85530132D01*
X155779349Y-85549538D01*
X155786581Y-85569750D01*
X155791797Y-85590574D01*
X155794947Y-85611809D01*
X155796000Y-85633250D01*
X155796000Y-86070750D01*
X155794947Y-86092191D01*
X155791797Y-86113426D01*
X155786581Y-86134250D01*
X155779349Y-86154462D01*
X155770170Y-86173868D01*
X155759134Y-86192281D01*
X155746346Y-86209524D01*
X155731930Y-86225430D01*
X155716024Y-86239846D01*
X155698781Y-86252634D01*
X155680368Y-86263670D01*
X155660962Y-86272849D01*
X155640750Y-86280081D01*
X155619926Y-86285297D01*
X155598691Y-86288447D01*
X155577250Y-86289500D01*
X155064750Y-86289500D01*
X155043309Y-86288447D01*
X155022074Y-86285297D01*
X155001250Y-86280081D01*
X154981038Y-86272849D01*
X154961632Y-86263670D01*
X154943219Y-86252634D01*
X154925976Y-86239846D01*
X154910070Y-86225430D01*
X154895654Y-86209524D01*
X154882866Y-86192281D01*
X154871830Y-86173868D01*
X154862651Y-86154462D01*
X154855419Y-86134250D01*
X154850203Y-86113426D01*
X154847053Y-86092191D01*
X154846000Y-86070750D01*
X154846000Y-85633250D01*
X154847053Y-85611809D01*
X154850203Y-85590574D01*
X154855419Y-85569750D01*
X154862651Y-85549538D01*
X154871830Y-85530132D01*
X154882866Y-85511719D01*
X154895654Y-85494476D01*
X154910070Y-85478570D01*
X154925976Y-85464154D01*
X154943219Y-85451366D01*
X154961632Y-85440330D01*
X154981038Y-85431151D01*
X155001250Y-85423919D01*
X155022074Y-85418703D01*
X155043309Y-85415553D01*
X155064750Y-85414500D01*
X155577250Y-85414500D01*
X155598691Y-85415553D01*
G37*
G36*
X155598691Y-83840553D02*
G01*
X155619926Y-83843703D01*
X155640750Y-83848919D01*
X155660962Y-83856151D01*
X155680368Y-83865330D01*
X155698781Y-83876366D01*
X155716024Y-83889154D01*
X155731930Y-83903570D01*
X155746346Y-83919476D01*
X155759134Y-83936719D01*
X155770170Y-83955132D01*
X155779349Y-83974538D01*
X155786581Y-83994750D01*
X155791797Y-84015574D01*
X155794947Y-84036809D01*
X155796000Y-84058250D01*
X155796000Y-84495750D01*
X155794947Y-84517191D01*
X155791797Y-84538426D01*
X155786581Y-84559250D01*
X155779349Y-84579462D01*
X155770170Y-84598868D01*
X155759134Y-84617281D01*
X155746346Y-84634524D01*
X155731930Y-84650430D01*
X155716024Y-84664846D01*
X155698781Y-84677634D01*
X155680368Y-84688670D01*
X155660962Y-84697849D01*
X155640750Y-84705081D01*
X155619926Y-84710297D01*
X155598691Y-84713447D01*
X155577250Y-84714500D01*
X155064750Y-84714500D01*
X155043309Y-84713447D01*
X155022074Y-84710297D01*
X155001250Y-84705081D01*
X154981038Y-84697849D01*
X154961632Y-84688670D01*
X154943219Y-84677634D01*
X154925976Y-84664846D01*
X154910070Y-84650430D01*
X154895654Y-84634524D01*
X154882866Y-84617281D01*
X154871830Y-84598868D01*
X154862651Y-84579462D01*
X154855419Y-84559250D01*
X154850203Y-84538426D01*
X154847053Y-84517191D01*
X154846000Y-84495750D01*
X154846000Y-84058250D01*
X154847053Y-84036809D01*
X154850203Y-84015574D01*
X154855419Y-83994750D01*
X154862651Y-83974538D01*
X154871830Y-83955132D01*
X154882866Y-83936719D01*
X154895654Y-83919476D01*
X154910070Y-83903570D01*
X154925976Y-83889154D01*
X154943219Y-83876366D01*
X154961632Y-83865330D01*
X154981038Y-83856151D01*
X155001250Y-83848919D01*
X155022074Y-83843703D01*
X155043309Y-83840553D01*
X155064750Y-83839500D01*
X155577250Y-83839500D01*
X155598691Y-83840553D01*
G37*
G36*
X144930691Y-106319553D02*
G01*
X144951926Y-106322703D01*
X144972750Y-106327919D01*
X144992962Y-106335151D01*
X145012368Y-106344330D01*
X145030781Y-106355366D01*
X145048024Y-106368154D01*
X145063930Y-106382570D01*
X145078346Y-106398476D01*
X145091134Y-106415719D01*
X145102170Y-106434132D01*
X145111349Y-106453538D01*
X145118581Y-106473750D01*
X145123797Y-106494574D01*
X145126947Y-106515809D01*
X145128000Y-106537250D01*
X145128000Y-106974750D01*
X145126947Y-106996191D01*
X145123797Y-107017426D01*
X145118581Y-107038250D01*
X145111349Y-107058462D01*
X145102170Y-107077868D01*
X145091134Y-107096281D01*
X145078346Y-107113524D01*
X145063930Y-107129430D01*
X145048024Y-107143846D01*
X145030781Y-107156634D01*
X145012368Y-107167670D01*
X144992962Y-107176849D01*
X144972750Y-107184081D01*
X144951926Y-107189297D01*
X144930691Y-107192447D01*
X144909250Y-107193500D01*
X144396750Y-107193500D01*
X144375309Y-107192447D01*
X144354074Y-107189297D01*
X144333250Y-107184081D01*
X144313038Y-107176849D01*
X144293632Y-107167670D01*
X144275219Y-107156634D01*
X144257976Y-107143846D01*
X144242070Y-107129430D01*
X144227654Y-107113524D01*
X144214866Y-107096281D01*
X144203830Y-107077868D01*
X144194651Y-107058462D01*
X144187419Y-107038250D01*
X144182203Y-107017426D01*
X144179053Y-106996191D01*
X144178000Y-106974750D01*
X144178000Y-106537250D01*
X144179053Y-106515809D01*
X144182203Y-106494574D01*
X144187419Y-106473750D01*
X144194651Y-106453538D01*
X144203830Y-106434132D01*
X144214866Y-106415719D01*
X144227654Y-106398476D01*
X144242070Y-106382570D01*
X144257976Y-106368154D01*
X144275219Y-106355366D01*
X144293632Y-106344330D01*
X144313038Y-106335151D01*
X144333250Y-106327919D01*
X144354074Y-106322703D01*
X144375309Y-106319553D01*
X144396750Y-106318500D01*
X144909250Y-106318500D01*
X144930691Y-106319553D01*
G37*
G36*
X144930691Y-107894553D02*
G01*
X144951926Y-107897703D01*
X144972750Y-107902919D01*
X144992962Y-107910151D01*
X145012368Y-107919330D01*
X145030781Y-107930366D01*
X145048024Y-107943154D01*
X145063930Y-107957570D01*
X145078346Y-107973476D01*
X145091134Y-107990719D01*
X145102170Y-108009132D01*
X145111349Y-108028538D01*
X145118581Y-108048750D01*
X145123797Y-108069574D01*
X145126947Y-108090809D01*
X145128000Y-108112250D01*
X145128000Y-108549750D01*
X145126947Y-108571191D01*
X145123797Y-108592426D01*
X145118581Y-108613250D01*
X145111349Y-108633462D01*
X145102170Y-108652868D01*
X145091134Y-108671281D01*
X145078346Y-108688524D01*
X145063930Y-108704430D01*
X145048024Y-108718846D01*
X145030781Y-108731634D01*
X145012368Y-108742670D01*
X144992962Y-108751849D01*
X144972750Y-108759081D01*
X144951926Y-108764297D01*
X144930691Y-108767447D01*
X144909250Y-108768500D01*
X144396750Y-108768500D01*
X144375309Y-108767447D01*
X144354074Y-108764297D01*
X144333250Y-108759081D01*
X144313038Y-108751849D01*
X144293632Y-108742670D01*
X144275219Y-108731634D01*
X144257976Y-108718846D01*
X144242070Y-108704430D01*
X144227654Y-108688524D01*
X144214866Y-108671281D01*
X144203830Y-108652868D01*
X144194651Y-108633462D01*
X144187419Y-108613250D01*
X144182203Y-108592426D01*
X144179053Y-108571191D01*
X144178000Y-108549750D01*
X144178000Y-108112250D01*
X144179053Y-108090809D01*
X144182203Y-108069574D01*
X144187419Y-108048750D01*
X144194651Y-108028538D01*
X144203830Y-108009132D01*
X144214866Y-107990719D01*
X144227654Y-107973476D01*
X144242070Y-107957570D01*
X144257976Y-107943154D01*
X144275219Y-107930366D01*
X144293632Y-107919330D01*
X144313038Y-107910151D01*
X144333250Y-107902919D01*
X144354074Y-107897703D01*
X144375309Y-107894553D01*
X144396750Y-107893500D01*
X144909250Y-107893500D01*
X144930691Y-107894553D01*
G37*
G36*
X142009691Y-118943553D02*
G01*
X142030926Y-118946703D01*
X142051750Y-118951919D01*
X142071962Y-118959151D01*
X142091368Y-118968330D01*
X142109781Y-118979366D01*
X142127024Y-118992154D01*
X142142930Y-119006570D01*
X142157346Y-119022476D01*
X142170134Y-119039719D01*
X142181170Y-119058132D01*
X142190349Y-119077538D01*
X142197581Y-119097750D01*
X142202797Y-119118574D01*
X142205947Y-119139809D01*
X142207000Y-119161250D01*
X142207000Y-119598750D01*
X142205947Y-119620191D01*
X142202797Y-119641426D01*
X142197581Y-119662250D01*
X142190349Y-119682462D01*
X142181170Y-119701868D01*
X142170134Y-119720281D01*
X142157346Y-119737524D01*
X142142930Y-119753430D01*
X142127024Y-119767846D01*
X142109781Y-119780634D01*
X142091368Y-119791670D01*
X142071962Y-119800849D01*
X142051750Y-119808081D01*
X142030926Y-119813297D01*
X142009691Y-119816447D01*
X141988250Y-119817500D01*
X141475750Y-119817500D01*
X141454309Y-119816447D01*
X141433074Y-119813297D01*
X141412250Y-119808081D01*
X141392038Y-119800849D01*
X141372632Y-119791670D01*
X141354219Y-119780634D01*
X141336976Y-119767846D01*
X141321070Y-119753430D01*
X141306654Y-119737524D01*
X141293866Y-119720281D01*
X141282830Y-119701868D01*
X141273651Y-119682462D01*
X141266419Y-119662250D01*
X141261203Y-119641426D01*
X141258053Y-119620191D01*
X141257000Y-119598750D01*
X141257000Y-119161250D01*
X141258053Y-119139809D01*
X141261203Y-119118574D01*
X141266419Y-119097750D01*
X141273651Y-119077538D01*
X141282830Y-119058132D01*
X141293866Y-119039719D01*
X141306654Y-119022476D01*
X141321070Y-119006570D01*
X141336976Y-118992154D01*
X141354219Y-118979366D01*
X141372632Y-118968330D01*
X141392038Y-118959151D01*
X141412250Y-118951919D01*
X141433074Y-118946703D01*
X141454309Y-118943553D01*
X141475750Y-118942500D01*
X141988250Y-118942500D01*
X142009691Y-118943553D01*
G37*
G36*
X142009691Y-117368553D02*
G01*
X142030926Y-117371703D01*
X142051750Y-117376919D01*
X142071962Y-117384151D01*
X142091368Y-117393330D01*
X142109781Y-117404366D01*
X142127024Y-117417154D01*
X142142930Y-117431570D01*
X142157346Y-117447476D01*
X142170134Y-117464719D01*
X142181170Y-117483132D01*
X142190349Y-117502538D01*
X142197581Y-117522750D01*
X142202797Y-117543574D01*
X142205947Y-117564809D01*
X142207000Y-117586250D01*
X142207000Y-118023750D01*
X142205947Y-118045191D01*
X142202797Y-118066426D01*
X142197581Y-118087250D01*
X142190349Y-118107462D01*
X142181170Y-118126868D01*
X142170134Y-118145281D01*
X142157346Y-118162524D01*
X142142930Y-118178430D01*
X142127024Y-118192846D01*
X142109781Y-118205634D01*
X142091368Y-118216670D01*
X142071962Y-118225849D01*
X142051750Y-118233081D01*
X142030926Y-118238297D01*
X142009691Y-118241447D01*
X141988250Y-118242500D01*
X141475750Y-118242500D01*
X141454309Y-118241447D01*
X141433074Y-118238297D01*
X141412250Y-118233081D01*
X141392038Y-118225849D01*
X141372632Y-118216670D01*
X141354219Y-118205634D01*
X141336976Y-118192846D01*
X141321070Y-118178430D01*
X141306654Y-118162524D01*
X141293866Y-118145281D01*
X141282830Y-118126868D01*
X141273651Y-118107462D01*
X141266419Y-118087250D01*
X141261203Y-118066426D01*
X141258053Y-118045191D01*
X141257000Y-118023750D01*
X141257000Y-117586250D01*
X141258053Y-117564809D01*
X141261203Y-117543574D01*
X141266419Y-117522750D01*
X141273651Y-117502538D01*
X141282830Y-117483132D01*
X141293866Y-117464719D01*
X141306654Y-117447476D01*
X141321070Y-117431570D01*
X141336976Y-117417154D01*
X141354219Y-117404366D01*
X141372632Y-117393330D01*
X141392038Y-117384151D01*
X141412250Y-117376919D01*
X141433074Y-117371703D01*
X141454309Y-117368553D01*
X141475750Y-117367500D01*
X141988250Y-117367500D01*
X142009691Y-117368553D01*
G37*
G36*
X151954191Y-88934053D02*
G01*
X151975426Y-88937203D01*
X151996250Y-88942419D01*
X152016462Y-88949651D01*
X152035868Y-88958830D01*
X152054281Y-88969866D01*
X152071524Y-88982654D01*
X152087430Y-88997070D01*
X152101846Y-89012976D01*
X152114634Y-89030219D01*
X152125670Y-89048632D01*
X152134849Y-89068038D01*
X152142081Y-89088250D01*
X152147297Y-89109074D01*
X152150447Y-89130309D01*
X152151500Y-89151750D01*
X152151500Y-89664250D01*
X152150447Y-89685691D01*
X152147297Y-89706926D01*
X152142081Y-89727750D01*
X152134849Y-89747962D01*
X152125670Y-89767368D01*
X152114634Y-89785781D01*
X152101846Y-89803024D01*
X152087430Y-89818930D01*
X152071524Y-89833346D01*
X152054281Y-89846134D01*
X152035868Y-89857170D01*
X152016462Y-89866349D01*
X151996250Y-89873581D01*
X151975426Y-89878797D01*
X151954191Y-89881947D01*
X151932750Y-89883000D01*
X151495250Y-89883000D01*
X151473809Y-89881947D01*
X151452574Y-89878797D01*
X151431750Y-89873581D01*
X151411538Y-89866349D01*
X151392132Y-89857170D01*
X151373719Y-89846134D01*
X151356476Y-89833346D01*
X151340570Y-89818930D01*
X151326154Y-89803024D01*
X151313366Y-89785781D01*
X151302330Y-89767368D01*
X151293151Y-89747962D01*
X151285919Y-89727750D01*
X151280703Y-89706926D01*
X151277553Y-89685691D01*
X151276500Y-89664250D01*
X151276500Y-89151750D01*
X151277553Y-89130309D01*
X151280703Y-89109074D01*
X151285919Y-89088250D01*
X151293151Y-89068038D01*
X151302330Y-89048632D01*
X151313366Y-89030219D01*
X151326154Y-89012976D01*
X151340570Y-88997070D01*
X151356476Y-88982654D01*
X151373719Y-88969866D01*
X151392132Y-88958830D01*
X151411538Y-88949651D01*
X151431750Y-88942419D01*
X151452574Y-88937203D01*
X151473809Y-88934053D01*
X151495250Y-88933000D01*
X151932750Y-88933000D01*
X151954191Y-88934053D01*
G37*
G36*
X153529191Y-88934053D02*
G01*
X153550426Y-88937203D01*
X153571250Y-88942419D01*
X153591462Y-88949651D01*
X153610868Y-88958830D01*
X153629281Y-88969866D01*
X153646524Y-88982654D01*
X153662430Y-88997070D01*
X153676846Y-89012976D01*
X153689634Y-89030219D01*
X153700670Y-89048632D01*
X153709849Y-89068038D01*
X153717081Y-89088250D01*
X153722297Y-89109074D01*
X153725447Y-89130309D01*
X153726500Y-89151750D01*
X153726500Y-89664250D01*
X153725447Y-89685691D01*
X153722297Y-89706926D01*
X153717081Y-89727750D01*
X153709849Y-89747962D01*
X153700670Y-89767368D01*
X153689634Y-89785781D01*
X153676846Y-89803024D01*
X153662430Y-89818930D01*
X153646524Y-89833346D01*
X153629281Y-89846134D01*
X153610868Y-89857170D01*
X153591462Y-89866349D01*
X153571250Y-89873581D01*
X153550426Y-89878797D01*
X153529191Y-89881947D01*
X153507750Y-89883000D01*
X153070250Y-89883000D01*
X153048809Y-89881947D01*
X153027574Y-89878797D01*
X153006750Y-89873581D01*
X152986538Y-89866349D01*
X152967132Y-89857170D01*
X152948719Y-89846134D01*
X152931476Y-89833346D01*
X152915570Y-89818930D01*
X152901154Y-89803024D01*
X152888366Y-89785781D01*
X152877330Y-89767368D01*
X152868151Y-89747962D01*
X152860919Y-89727750D01*
X152855703Y-89706926D01*
X152852553Y-89685691D01*
X152851500Y-89664250D01*
X152851500Y-89151750D01*
X152852553Y-89130309D01*
X152855703Y-89109074D01*
X152860919Y-89088250D01*
X152868151Y-89068038D01*
X152877330Y-89048632D01*
X152888366Y-89030219D01*
X152901154Y-89012976D01*
X152915570Y-88997070D01*
X152931476Y-88982654D01*
X152948719Y-88969866D01*
X152967132Y-88958830D01*
X152986538Y-88949651D01*
X153006750Y-88942419D01*
X153027574Y-88937203D01*
X153048809Y-88934053D01*
X153070250Y-88933000D01*
X153507750Y-88933000D01*
X153529191Y-88934053D01*
G37*
G36*
X149248691Y-97734553D02*
G01*
X149269926Y-97737703D01*
X149290750Y-97742919D01*
X149310962Y-97750151D01*
X149330368Y-97759330D01*
X149348781Y-97770366D01*
X149366024Y-97783154D01*
X149381930Y-97797570D01*
X149396346Y-97813476D01*
X149409134Y-97830719D01*
X149420170Y-97849132D01*
X149429349Y-97868538D01*
X149436581Y-97888750D01*
X149441797Y-97909574D01*
X149444947Y-97930809D01*
X149446000Y-97952250D01*
X149446000Y-98389750D01*
X149444947Y-98411191D01*
X149441797Y-98432426D01*
X149436581Y-98453250D01*
X149429349Y-98473462D01*
X149420170Y-98492868D01*
X149409134Y-98511281D01*
X149396346Y-98528524D01*
X149381930Y-98544430D01*
X149366024Y-98558846D01*
X149348781Y-98571634D01*
X149330368Y-98582670D01*
X149310962Y-98591849D01*
X149290750Y-98599081D01*
X149269926Y-98604297D01*
X149248691Y-98607447D01*
X149227250Y-98608500D01*
X148714750Y-98608500D01*
X148693309Y-98607447D01*
X148672074Y-98604297D01*
X148651250Y-98599081D01*
X148631038Y-98591849D01*
X148611632Y-98582670D01*
X148593219Y-98571634D01*
X148575976Y-98558846D01*
X148560070Y-98544430D01*
X148545654Y-98528524D01*
X148532866Y-98511281D01*
X148521830Y-98492868D01*
X148512651Y-98473462D01*
X148505419Y-98453250D01*
X148500203Y-98432426D01*
X148497053Y-98411191D01*
X148496000Y-98389750D01*
X148496000Y-97952250D01*
X148497053Y-97930809D01*
X148500203Y-97909574D01*
X148505419Y-97888750D01*
X148512651Y-97868538D01*
X148521830Y-97849132D01*
X148532866Y-97830719D01*
X148545654Y-97813476D01*
X148560070Y-97797570D01*
X148575976Y-97783154D01*
X148593219Y-97770366D01*
X148611632Y-97759330D01*
X148631038Y-97750151D01*
X148651250Y-97742919D01*
X148672074Y-97737703D01*
X148693309Y-97734553D01*
X148714750Y-97733500D01*
X149227250Y-97733500D01*
X149248691Y-97734553D01*
G37*
G36*
X149248691Y-96159553D02*
G01*
X149269926Y-96162703D01*
X149290750Y-96167919D01*
X149310962Y-96175151D01*
X149330368Y-96184330D01*
X149348781Y-96195366D01*
X149366024Y-96208154D01*
X149381930Y-96222570D01*
X149396346Y-96238476D01*
X149409134Y-96255719D01*
X149420170Y-96274132D01*
X149429349Y-96293538D01*
X149436581Y-96313750D01*
X149441797Y-96334574D01*
X149444947Y-96355809D01*
X149446000Y-96377250D01*
X149446000Y-96814750D01*
X149444947Y-96836191D01*
X149441797Y-96857426D01*
X149436581Y-96878250D01*
X149429349Y-96898462D01*
X149420170Y-96917868D01*
X149409134Y-96936281D01*
X149396346Y-96953524D01*
X149381930Y-96969430D01*
X149366024Y-96983846D01*
X149348781Y-96996634D01*
X149330368Y-97007670D01*
X149310962Y-97016849D01*
X149290750Y-97024081D01*
X149269926Y-97029297D01*
X149248691Y-97032447D01*
X149227250Y-97033500D01*
X148714750Y-97033500D01*
X148693309Y-97032447D01*
X148672074Y-97029297D01*
X148651250Y-97024081D01*
X148631038Y-97016849D01*
X148611632Y-97007670D01*
X148593219Y-96996634D01*
X148575976Y-96983846D01*
X148560070Y-96969430D01*
X148545654Y-96953524D01*
X148532866Y-96936281D01*
X148521830Y-96917868D01*
X148512651Y-96898462D01*
X148505419Y-96878250D01*
X148500203Y-96857426D01*
X148497053Y-96836191D01*
X148496000Y-96814750D01*
X148496000Y-96377250D01*
X148497053Y-96355809D01*
X148500203Y-96334574D01*
X148505419Y-96313750D01*
X148512651Y-96293538D01*
X148521830Y-96274132D01*
X148532866Y-96255719D01*
X148545654Y-96238476D01*
X148560070Y-96222570D01*
X148575976Y-96208154D01*
X148593219Y-96195366D01*
X148611632Y-96184330D01*
X148631038Y-96175151D01*
X148651250Y-96167919D01*
X148672074Y-96162703D01*
X148693309Y-96159553D01*
X148714750Y-96158500D01*
X149227250Y-96158500D01*
X149248691Y-96159553D01*
G37*
G36*
X153402191Y-93887053D02*
G01*
X153423426Y-93890203D01*
X153444250Y-93895419D01*
X153464462Y-93902651D01*
X153483868Y-93911830D01*
X153502281Y-93922866D01*
X153519524Y-93935654D01*
X153535430Y-93950070D01*
X153549846Y-93965976D01*
X153562634Y-93983219D01*
X153573670Y-94001632D01*
X153582849Y-94021038D01*
X153590081Y-94041250D01*
X153595297Y-94062074D01*
X153598447Y-94083309D01*
X153599500Y-94104750D01*
X153599500Y-94617250D01*
X153598447Y-94638691D01*
X153595297Y-94659926D01*
X153590081Y-94680750D01*
X153582849Y-94700962D01*
X153573670Y-94720368D01*
X153562634Y-94738781D01*
X153549846Y-94756024D01*
X153535430Y-94771930D01*
X153519524Y-94786346D01*
X153502281Y-94799134D01*
X153483868Y-94810170D01*
X153464462Y-94819349D01*
X153444250Y-94826581D01*
X153423426Y-94831797D01*
X153402191Y-94834947D01*
X153380750Y-94836000D01*
X152943250Y-94836000D01*
X152921809Y-94834947D01*
X152900574Y-94831797D01*
X152879750Y-94826581D01*
X152859538Y-94819349D01*
X152840132Y-94810170D01*
X152821719Y-94799134D01*
X152804476Y-94786346D01*
X152788570Y-94771930D01*
X152774154Y-94756024D01*
X152761366Y-94738781D01*
X152750330Y-94720368D01*
X152741151Y-94700962D01*
X152733919Y-94680750D01*
X152728703Y-94659926D01*
X152725553Y-94638691D01*
X152724500Y-94617250D01*
X152724500Y-94104750D01*
X152725553Y-94083309D01*
X152728703Y-94062074D01*
X152733919Y-94041250D01*
X152741151Y-94021038D01*
X152750330Y-94001632D01*
X152761366Y-93983219D01*
X152774154Y-93965976D01*
X152788570Y-93950070D01*
X152804476Y-93935654D01*
X152821719Y-93922866D01*
X152840132Y-93911830D01*
X152859538Y-93902651D01*
X152879750Y-93895419D01*
X152900574Y-93890203D01*
X152921809Y-93887053D01*
X152943250Y-93886000D01*
X153380750Y-93886000D01*
X153402191Y-93887053D01*
G37*
G36*
X151827191Y-93887053D02*
G01*
X151848426Y-93890203D01*
X151869250Y-93895419D01*
X151889462Y-93902651D01*
X151908868Y-93911830D01*
X151927281Y-93922866D01*
X151944524Y-93935654D01*
X151960430Y-93950070D01*
X151974846Y-93965976D01*
X151987634Y-93983219D01*
X151998670Y-94001632D01*
X152007849Y-94021038D01*
X152015081Y-94041250D01*
X152020297Y-94062074D01*
X152023447Y-94083309D01*
X152024500Y-94104750D01*
X152024500Y-94617250D01*
X152023447Y-94638691D01*
X152020297Y-94659926D01*
X152015081Y-94680750D01*
X152007849Y-94700962D01*
X151998670Y-94720368D01*
X151987634Y-94738781D01*
X151974846Y-94756024D01*
X151960430Y-94771930D01*
X151944524Y-94786346D01*
X151927281Y-94799134D01*
X151908868Y-94810170D01*
X151889462Y-94819349D01*
X151869250Y-94826581D01*
X151848426Y-94831797D01*
X151827191Y-94834947D01*
X151805750Y-94836000D01*
X151368250Y-94836000D01*
X151346809Y-94834947D01*
X151325574Y-94831797D01*
X151304750Y-94826581D01*
X151284538Y-94819349D01*
X151265132Y-94810170D01*
X151246719Y-94799134D01*
X151229476Y-94786346D01*
X151213570Y-94771930D01*
X151199154Y-94756024D01*
X151186366Y-94738781D01*
X151175330Y-94720368D01*
X151166151Y-94700962D01*
X151158919Y-94680750D01*
X151153703Y-94659926D01*
X151150553Y-94638691D01*
X151149500Y-94617250D01*
X151149500Y-94104750D01*
X151150553Y-94083309D01*
X151153703Y-94062074D01*
X151158919Y-94041250D01*
X151166151Y-94021038D01*
X151175330Y-94001632D01*
X151186366Y-93983219D01*
X151199154Y-93965976D01*
X151213570Y-93950070D01*
X151229476Y-93935654D01*
X151246719Y-93922866D01*
X151265132Y-93911830D01*
X151284538Y-93902651D01*
X151304750Y-93895419D01*
X151325574Y-93890203D01*
X151346809Y-93887053D01*
X151368250Y-93886000D01*
X151805750Y-93886000D01*
X151827191Y-93887053D01*
G37*
D13*
X149423200Y-93192600D03*
X147523200Y-93192600D03*
X147523200Y-90592400D03*
X148473200Y-90592400D03*
X149423200Y-90592400D03*
D14*
X141617000Y-85674200D03*
X143117000Y-85674200D03*
X152019000Y-125349000D03*
X152019000Y-123849000D03*
X149606000Y-125349000D03*
X149606000Y-123849000D03*
X147066000Y-125349000D03*
X147066000Y-123849000D03*
X144526000Y-125349000D03*
X144526000Y-123849000D03*
X152442264Y-98107270D03*
X152442264Y-96607270D03*
X153966264Y-98107270D03*
X153966264Y-96607270D03*
D15*
X152273000Y-91064000D03*
X152273000Y-92964000D03*
X154973000Y-91064000D03*
X154973000Y-92014000D03*
X154973000Y-92964000D03*
D16*
X148615400Y-100076000D03*
X148615400Y-101346000D03*
X148615400Y-102616000D03*
X148615400Y-103886000D03*
X142113000Y-103886000D03*
X142113000Y-102616000D03*
X142113000Y-101346000D03*
X142113000Y-100076000D03*
D17*
X155067000Y-107893000D03*
X155067000Y-109093000D03*
X155067000Y-110293000D03*
D12*
G36*
X143877391Y-97138253D02*
G01*
X143898626Y-97141403D01*
X143919450Y-97146619D01*
X143939662Y-97153851D01*
X143959068Y-97163030D01*
X143977481Y-97174066D01*
X143994724Y-97186854D01*
X144010630Y-97201270D01*
X144025046Y-97217176D01*
X144037834Y-97234419D01*
X144048870Y-97252832D01*
X144058049Y-97272238D01*
X144065281Y-97292450D01*
X144070497Y-97313274D01*
X144073647Y-97334509D01*
X144074700Y-97355950D01*
X144074700Y-97868450D01*
X144073647Y-97889891D01*
X144070497Y-97911126D01*
X144065281Y-97931950D01*
X144058049Y-97952162D01*
X144048870Y-97971568D01*
X144037834Y-97989981D01*
X144025046Y-98007224D01*
X144010630Y-98023130D01*
X143994724Y-98037546D01*
X143977481Y-98050334D01*
X143959068Y-98061370D01*
X143939662Y-98070549D01*
X143919450Y-98077781D01*
X143898626Y-98082997D01*
X143877391Y-98086147D01*
X143855950Y-98087200D01*
X143418450Y-98087200D01*
X143397009Y-98086147D01*
X143375774Y-98082997D01*
X143354950Y-98077781D01*
X143334738Y-98070549D01*
X143315332Y-98061370D01*
X143296919Y-98050334D01*
X143279676Y-98037546D01*
X143263770Y-98023130D01*
X143249354Y-98007224D01*
X143236566Y-97989981D01*
X143225530Y-97971568D01*
X143216351Y-97952162D01*
X143209119Y-97931950D01*
X143203903Y-97911126D01*
X143200753Y-97889891D01*
X143199700Y-97868450D01*
X143199700Y-97355950D01*
X143200753Y-97334509D01*
X143203903Y-97313274D01*
X143209119Y-97292450D01*
X143216351Y-97272238D01*
X143225530Y-97252832D01*
X143236566Y-97234419D01*
X143249354Y-97217176D01*
X143263770Y-97201270D01*
X143279676Y-97186854D01*
X143296919Y-97174066D01*
X143315332Y-97163030D01*
X143334738Y-97153851D01*
X143354950Y-97146619D01*
X143375774Y-97141403D01*
X143397009Y-97138253D01*
X143418450Y-97137200D01*
X143855950Y-97137200D01*
X143877391Y-97138253D01*
G37*
G36*
X142302391Y-97138253D02*
G01*
X142323626Y-97141403D01*
X142344450Y-97146619D01*
X142364662Y-97153851D01*
X142384068Y-97163030D01*
X142402481Y-97174066D01*
X142419724Y-97186854D01*
X142435630Y-97201270D01*
X142450046Y-97217176D01*
X142462834Y-97234419D01*
X142473870Y-97252832D01*
X142483049Y-97272238D01*
X142490281Y-97292450D01*
X142495497Y-97313274D01*
X142498647Y-97334509D01*
X142499700Y-97355950D01*
X142499700Y-97868450D01*
X142498647Y-97889891D01*
X142495497Y-97911126D01*
X142490281Y-97931950D01*
X142483049Y-97952162D01*
X142473870Y-97971568D01*
X142462834Y-97989981D01*
X142450046Y-98007224D01*
X142435630Y-98023130D01*
X142419724Y-98037546D01*
X142402481Y-98050334D01*
X142384068Y-98061370D01*
X142364662Y-98070549D01*
X142344450Y-98077781D01*
X142323626Y-98082997D01*
X142302391Y-98086147D01*
X142280950Y-98087200D01*
X141843450Y-98087200D01*
X141822009Y-98086147D01*
X141800774Y-98082997D01*
X141779950Y-98077781D01*
X141759738Y-98070549D01*
X141740332Y-98061370D01*
X141721919Y-98050334D01*
X141704676Y-98037546D01*
X141688770Y-98023130D01*
X141674354Y-98007224D01*
X141661566Y-97989981D01*
X141650530Y-97971568D01*
X141641351Y-97952162D01*
X141634119Y-97931950D01*
X141628903Y-97911126D01*
X141625753Y-97889891D01*
X141624700Y-97868450D01*
X141624700Y-97355950D01*
X141625753Y-97334509D01*
X141628903Y-97313274D01*
X141634119Y-97292450D01*
X141641351Y-97272238D01*
X141650530Y-97252832D01*
X141661566Y-97234419D01*
X141674354Y-97217176D01*
X141688770Y-97201270D01*
X141704676Y-97186854D01*
X141721919Y-97174066D01*
X141740332Y-97163030D01*
X141759738Y-97153851D01*
X141779950Y-97146619D01*
X141800774Y-97141403D01*
X141822009Y-97138253D01*
X141843450Y-97137200D01*
X142280950Y-97137200D01*
X142302391Y-97138253D01*
G37*
G36*
X146849191Y-94191853D02*
G01*
X146870426Y-94195003D01*
X146891250Y-94200219D01*
X146911462Y-94207451D01*
X146930868Y-94216630D01*
X146949281Y-94227666D01*
X146966524Y-94240454D01*
X146982430Y-94254870D01*
X146996846Y-94270776D01*
X147009634Y-94288019D01*
X147020670Y-94306432D01*
X147029849Y-94325838D01*
X147037081Y-94346050D01*
X147042297Y-94366874D01*
X147045447Y-94388109D01*
X147046500Y-94409550D01*
X147046500Y-94922050D01*
X147045447Y-94943491D01*
X147042297Y-94964726D01*
X147037081Y-94985550D01*
X147029849Y-95005762D01*
X147020670Y-95025168D01*
X147009634Y-95043581D01*
X146996846Y-95060824D01*
X146982430Y-95076730D01*
X146966524Y-95091146D01*
X146949281Y-95103934D01*
X146930868Y-95114970D01*
X146911462Y-95124149D01*
X146891250Y-95131381D01*
X146870426Y-95136597D01*
X146849191Y-95139747D01*
X146827750Y-95140800D01*
X146390250Y-95140800D01*
X146368809Y-95139747D01*
X146347574Y-95136597D01*
X146326750Y-95131381D01*
X146306538Y-95124149D01*
X146287132Y-95114970D01*
X146268719Y-95103934D01*
X146251476Y-95091146D01*
X146235570Y-95076730D01*
X146221154Y-95060824D01*
X146208366Y-95043581D01*
X146197330Y-95025168D01*
X146188151Y-95005762D01*
X146180919Y-94985550D01*
X146175703Y-94964726D01*
X146172553Y-94943491D01*
X146171500Y-94922050D01*
X146171500Y-94409550D01*
X146172553Y-94388109D01*
X146175703Y-94366874D01*
X146180919Y-94346050D01*
X146188151Y-94325838D01*
X146197330Y-94306432D01*
X146208366Y-94288019D01*
X146221154Y-94270776D01*
X146235570Y-94254870D01*
X146251476Y-94240454D01*
X146268719Y-94227666D01*
X146287132Y-94216630D01*
X146306538Y-94207451D01*
X146326750Y-94200219D01*
X146347574Y-94195003D01*
X146368809Y-94191853D01*
X146390250Y-94190800D01*
X146827750Y-94190800D01*
X146849191Y-94191853D01*
G37*
G36*
X145274191Y-94191853D02*
G01*
X145295426Y-94195003D01*
X145316250Y-94200219D01*
X145336462Y-94207451D01*
X145355868Y-94216630D01*
X145374281Y-94227666D01*
X145391524Y-94240454D01*
X145407430Y-94254870D01*
X145421846Y-94270776D01*
X145434634Y-94288019D01*
X145445670Y-94306432D01*
X145454849Y-94325838D01*
X145462081Y-94346050D01*
X145467297Y-94366874D01*
X145470447Y-94388109D01*
X145471500Y-94409550D01*
X145471500Y-94922050D01*
X145470447Y-94943491D01*
X145467297Y-94964726D01*
X145462081Y-94985550D01*
X145454849Y-95005762D01*
X145445670Y-95025168D01*
X145434634Y-95043581D01*
X145421846Y-95060824D01*
X145407430Y-95076730D01*
X145391524Y-95091146D01*
X145374281Y-95103934D01*
X145355868Y-95114970D01*
X145336462Y-95124149D01*
X145316250Y-95131381D01*
X145295426Y-95136597D01*
X145274191Y-95139747D01*
X145252750Y-95140800D01*
X144815250Y-95140800D01*
X144793809Y-95139747D01*
X144772574Y-95136597D01*
X144751750Y-95131381D01*
X144731538Y-95124149D01*
X144712132Y-95114970D01*
X144693719Y-95103934D01*
X144676476Y-95091146D01*
X144660570Y-95076730D01*
X144646154Y-95060824D01*
X144633366Y-95043581D01*
X144622330Y-95025168D01*
X144613151Y-95005762D01*
X144605919Y-94985550D01*
X144600703Y-94964726D01*
X144597553Y-94943491D01*
X144596500Y-94922050D01*
X144596500Y-94409550D01*
X144597553Y-94388109D01*
X144600703Y-94366874D01*
X144605919Y-94346050D01*
X144613151Y-94325838D01*
X144622330Y-94306432D01*
X144633366Y-94288019D01*
X144646154Y-94270776D01*
X144660570Y-94254870D01*
X144676476Y-94240454D01*
X144693719Y-94227666D01*
X144712132Y-94216630D01*
X144731538Y-94207451D01*
X144751750Y-94200219D01*
X144772574Y-94195003D01*
X144793809Y-94191853D01*
X144815250Y-94190800D01*
X145252750Y-94190800D01*
X145274191Y-94191853D01*
G37*
G36*
X145274191Y-95665053D02*
G01*
X145295426Y-95668203D01*
X145316250Y-95673419D01*
X145336462Y-95680651D01*
X145355868Y-95689830D01*
X145374281Y-95700866D01*
X145391524Y-95713654D01*
X145407430Y-95728070D01*
X145421846Y-95743976D01*
X145434634Y-95761219D01*
X145445670Y-95779632D01*
X145454849Y-95799038D01*
X145462081Y-95819250D01*
X145467297Y-95840074D01*
X145470447Y-95861309D01*
X145471500Y-95882750D01*
X145471500Y-96395250D01*
X145470447Y-96416691D01*
X145467297Y-96437926D01*
X145462081Y-96458750D01*
X145454849Y-96478962D01*
X145445670Y-96498368D01*
X145434634Y-96516781D01*
X145421846Y-96534024D01*
X145407430Y-96549930D01*
X145391524Y-96564346D01*
X145374281Y-96577134D01*
X145355868Y-96588170D01*
X145336462Y-96597349D01*
X145316250Y-96604581D01*
X145295426Y-96609797D01*
X145274191Y-96612947D01*
X145252750Y-96614000D01*
X144815250Y-96614000D01*
X144793809Y-96612947D01*
X144772574Y-96609797D01*
X144751750Y-96604581D01*
X144731538Y-96597349D01*
X144712132Y-96588170D01*
X144693719Y-96577134D01*
X144676476Y-96564346D01*
X144660570Y-96549930D01*
X144646154Y-96534024D01*
X144633366Y-96516781D01*
X144622330Y-96498368D01*
X144613151Y-96478962D01*
X144605919Y-96458750D01*
X144600703Y-96437926D01*
X144597553Y-96416691D01*
X144596500Y-96395250D01*
X144596500Y-95882750D01*
X144597553Y-95861309D01*
X144600703Y-95840074D01*
X144605919Y-95819250D01*
X144613151Y-95799038D01*
X144622330Y-95779632D01*
X144633366Y-95761219D01*
X144646154Y-95743976D01*
X144660570Y-95728070D01*
X144676476Y-95713654D01*
X144693719Y-95700866D01*
X144712132Y-95689830D01*
X144731538Y-95680651D01*
X144751750Y-95673419D01*
X144772574Y-95668203D01*
X144793809Y-95665053D01*
X144815250Y-95664000D01*
X145252750Y-95664000D01*
X145274191Y-95665053D01*
G37*
G36*
X146849191Y-95665053D02*
G01*
X146870426Y-95668203D01*
X146891250Y-95673419D01*
X146911462Y-95680651D01*
X146930868Y-95689830D01*
X146949281Y-95700866D01*
X146966524Y-95713654D01*
X146982430Y-95728070D01*
X146996846Y-95743976D01*
X147009634Y-95761219D01*
X147020670Y-95779632D01*
X147029849Y-95799038D01*
X147037081Y-95819250D01*
X147042297Y-95840074D01*
X147045447Y-95861309D01*
X147046500Y-95882750D01*
X147046500Y-96395250D01*
X147045447Y-96416691D01*
X147042297Y-96437926D01*
X147037081Y-96458750D01*
X147029849Y-96478962D01*
X147020670Y-96498368D01*
X147009634Y-96516781D01*
X146996846Y-96534024D01*
X146982430Y-96549930D01*
X146966524Y-96564346D01*
X146949281Y-96577134D01*
X146930868Y-96588170D01*
X146911462Y-96597349D01*
X146891250Y-96604581D01*
X146870426Y-96609797D01*
X146849191Y-96612947D01*
X146827750Y-96614000D01*
X146390250Y-96614000D01*
X146368809Y-96612947D01*
X146347574Y-96609797D01*
X146326750Y-96604581D01*
X146306538Y-96597349D01*
X146287132Y-96588170D01*
X146268719Y-96577134D01*
X146251476Y-96564346D01*
X146235570Y-96549930D01*
X146221154Y-96534024D01*
X146208366Y-96516781D01*
X146197330Y-96498368D01*
X146188151Y-96478962D01*
X146180919Y-96458750D01*
X146175703Y-96437926D01*
X146172553Y-96416691D01*
X146171500Y-96395250D01*
X146171500Y-95882750D01*
X146172553Y-95861309D01*
X146175703Y-95840074D01*
X146180919Y-95819250D01*
X146188151Y-95799038D01*
X146197330Y-95779632D01*
X146208366Y-95761219D01*
X146221154Y-95743976D01*
X146235570Y-95728070D01*
X146251476Y-95713654D01*
X146268719Y-95700866D01*
X146287132Y-95689830D01*
X146306538Y-95680651D01*
X146326750Y-95673419D01*
X146347574Y-95668203D01*
X146368809Y-95665053D01*
X146390250Y-95664000D01*
X146827750Y-95664000D01*
X146849191Y-95665053D01*
G37*
D18*
X149763000Y-86636000D03*
X149113000Y-86636000D03*
X148463000Y-86636000D03*
X147813000Y-86636000D03*
X147163000Y-86636000D03*
M02*
