G04 #@! TF.GenerationSoftware,KiCad,Pcbnew,(5.0.0-3-g5ebb6b6)*
G04 #@! TF.CreationDate,2020-03-21T14:46:23-07:00*
G04 #@! TF.ProjectId,ravenna,726176656E6E612E6B696361645F7063,rev?*
G04 #@! TF.SameCoordinates,Original*
G04 #@! TF.FileFunction,Legend,Top*
G04 #@! TF.FilePolarity,Positive*
%FSLAX46Y46*%
G04 Gerber Fmt 4.6, Leading zero omitted, Abs format (unit mm)*
G04 Created by KiCad (PCBNEW (5.0.0-3-g5ebb6b6)) date Saturday, March 21, 2020 at 02:46:23 PM*
%MOMM*%
%LPD*%
G01*
G04 APERTURE LIST*
%ADD10C,0.080000*%
%ADD11C,0.095250*%
%ADD12C,0.150000*%
%ADD13C,0.120000*%
%ADD14C,0.100000*%
%ADD15C,0.127000*%
%ADD16C,0.152400*%
%ADD17C,0.203200*%
%ADD18C,0.300000*%
%ADD19C,0.010000*%
G04 APERTURE END LIST*
D10*
X141814619Y-129593952D02*
X141681285Y-129403476D01*
X141586047Y-129593952D02*
X141586047Y-129193952D01*
X141738428Y-129193952D01*
X141776523Y-129213000D01*
X141795571Y-129232047D01*
X141814619Y-129270142D01*
X141814619Y-129327285D01*
X141795571Y-129365380D01*
X141776523Y-129384428D01*
X141738428Y-129403476D01*
X141586047Y-129403476D01*
X142138428Y-129574904D02*
X142100333Y-129593952D01*
X142024142Y-129593952D01*
X141986047Y-129574904D01*
X141967000Y-129536809D01*
X141967000Y-129384428D01*
X141986047Y-129346333D01*
X142024142Y-129327285D01*
X142100333Y-129327285D01*
X142138428Y-129346333D01*
X142157476Y-129384428D01*
X142157476Y-129422523D01*
X141967000Y-129460619D01*
X142290809Y-129327285D02*
X142386047Y-129593952D01*
X142481285Y-129327285D01*
X143071761Y-129384428D02*
X143128904Y-129403476D01*
X143147952Y-129422523D01*
X143167000Y-129460619D01*
X143167000Y-129517761D01*
X143147952Y-129555857D01*
X143128904Y-129574904D01*
X143090809Y-129593952D01*
X142938428Y-129593952D01*
X142938428Y-129193952D01*
X143071761Y-129193952D01*
X143109857Y-129213000D01*
X143128904Y-129232047D01*
X143147952Y-129270142D01*
X143147952Y-129308238D01*
X143128904Y-129346333D01*
X143109857Y-129365380D01*
X143071761Y-129384428D01*
X142938428Y-129384428D01*
X141884466Y-87074352D02*
X141884466Y-86674352D01*
X142036847Y-86674352D01*
X142074942Y-86693400D01*
X142093990Y-86712447D01*
X142113038Y-86750542D01*
X142113038Y-86807685D01*
X142093990Y-86845780D01*
X142074942Y-86864828D01*
X142036847Y-86883876D01*
X141884466Y-86883876D01*
X142246371Y-86674352D02*
X142341609Y-87074352D01*
X142417800Y-86788638D01*
X142493990Y-87074352D01*
X142589228Y-86674352D01*
X142970180Y-87074352D02*
X142836847Y-86883876D01*
X142741609Y-87074352D02*
X142741609Y-86674352D01*
X142893990Y-86674352D01*
X142932085Y-86693400D01*
X142951133Y-86712447D01*
X142970180Y-86750542D01*
X142970180Y-86807685D01*
X142951133Y-86845780D01*
X142932085Y-86864828D01*
X142893990Y-86883876D01*
X142741609Y-86883876D01*
X156518000Y-134162761D02*
X156498952Y-134200857D01*
X156498952Y-134258000D01*
X156518000Y-134315142D01*
X156556095Y-134353238D01*
X156594190Y-134372285D01*
X156670380Y-134391333D01*
X156727523Y-134391333D01*
X156803714Y-134372285D01*
X156841809Y-134353238D01*
X156879904Y-134315142D01*
X156898952Y-134258000D01*
X156898952Y-134219904D01*
X156879904Y-134162761D01*
X156860857Y-134143714D01*
X156727523Y-134143714D01*
X156727523Y-134219904D01*
X156898952Y-133972285D02*
X156498952Y-133972285D01*
X156898952Y-133743714D01*
X156498952Y-133743714D01*
X156898952Y-133553238D02*
X156498952Y-133553238D01*
X156498952Y-133458000D01*
X156518000Y-133400857D01*
X156556095Y-133362761D01*
X156594190Y-133343714D01*
X156670380Y-133324666D01*
X156727523Y-133324666D01*
X156803714Y-133343714D01*
X156841809Y-133362761D01*
X156879904Y-133400857D01*
X156898952Y-133458000D01*
X156898952Y-133553238D01*
X156898952Y-131740238D02*
X156498952Y-131740238D01*
X156498952Y-131587857D01*
X156518000Y-131549761D01*
X156537047Y-131530714D01*
X156575142Y-131511666D01*
X156632285Y-131511666D01*
X156670380Y-131530714D01*
X156689428Y-131549761D01*
X156708476Y-131587857D01*
X156708476Y-131740238D01*
X156498952Y-131149761D02*
X156498952Y-131340238D01*
X156689428Y-131359285D01*
X156670380Y-131340238D01*
X156651333Y-131302142D01*
X156651333Y-131206904D01*
X156670380Y-131168809D01*
X156689428Y-131149761D01*
X156727523Y-131130714D01*
X156822761Y-131130714D01*
X156860857Y-131149761D01*
X156879904Y-131168809D01*
X156898952Y-131206904D01*
X156898952Y-131302142D01*
X156879904Y-131340238D01*
X156860857Y-131359285D01*
X156898952Y-129327238D02*
X156498952Y-129327238D01*
X156498952Y-129174857D01*
X156518000Y-129136761D01*
X156537047Y-129117714D01*
X156575142Y-129098666D01*
X156632285Y-129098666D01*
X156670380Y-129117714D01*
X156689428Y-129136761D01*
X156708476Y-129174857D01*
X156708476Y-129327238D01*
X156498952Y-128755809D02*
X156498952Y-128832000D01*
X156518000Y-128870095D01*
X156537047Y-128889142D01*
X156594190Y-128927238D01*
X156670380Y-128946285D01*
X156822761Y-128946285D01*
X156860857Y-128927238D01*
X156879904Y-128908190D01*
X156898952Y-128870095D01*
X156898952Y-128793904D01*
X156879904Y-128755809D01*
X156860857Y-128736761D01*
X156822761Y-128717714D01*
X156727523Y-128717714D01*
X156689428Y-128736761D01*
X156670380Y-128755809D01*
X156651333Y-128793904D01*
X156651333Y-128870095D01*
X156670380Y-128908190D01*
X156689428Y-128927238D01*
X156727523Y-128946285D01*
X156898952Y-126533238D02*
X156498952Y-126533238D01*
X156498952Y-126380857D01*
X156518000Y-126342761D01*
X156537047Y-126323714D01*
X156575142Y-126304666D01*
X156632285Y-126304666D01*
X156670380Y-126323714D01*
X156689428Y-126342761D01*
X156708476Y-126380857D01*
X156708476Y-126533238D01*
X156498952Y-126171333D02*
X156498952Y-125904666D01*
X156898952Y-126076095D01*
X156898952Y-124247238D02*
X156498952Y-124247238D01*
X156498952Y-124094857D01*
X156518000Y-124056761D01*
X156537047Y-124037714D01*
X156575142Y-124018666D01*
X156632285Y-124018666D01*
X156670380Y-124037714D01*
X156689428Y-124056761D01*
X156708476Y-124094857D01*
X156708476Y-124247238D01*
X156670380Y-123790095D02*
X156651333Y-123828190D01*
X156632285Y-123847238D01*
X156594190Y-123866285D01*
X156575142Y-123866285D01*
X156537047Y-123847238D01*
X156518000Y-123828190D01*
X156498952Y-123790095D01*
X156498952Y-123713904D01*
X156518000Y-123675809D01*
X156537047Y-123656761D01*
X156575142Y-123637714D01*
X156594190Y-123637714D01*
X156632285Y-123656761D01*
X156651333Y-123675809D01*
X156670380Y-123713904D01*
X156670380Y-123790095D01*
X156689428Y-123828190D01*
X156708476Y-123847238D01*
X156746571Y-123866285D01*
X156822761Y-123866285D01*
X156860857Y-123847238D01*
X156879904Y-123828190D01*
X156898952Y-123790095D01*
X156898952Y-123713904D01*
X156879904Y-123675809D01*
X156860857Y-123656761D01*
X156822761Y-123637714D01*
X156746571Y-123637714D01*
X156708476Y-123656761D01*
X156689428Y-123675809D01*
X156670380Y-123713904D01*
X156898952Y-121707238D02*
X156498952Y-121707238D01*
X156498952Y-121554857D01*
X156518000Y-121516761D01*
X156537047Y-121497714D01*
X156575142Y-121478666D01*
X156632285Y-121478666D01*
X156670380Y-121497714D01*
X156689428Y-121516761D01*
X156708476Y-121554857D01*
X156708476Y-121707238D01*
X156898952Y-121288190D02*
X156898952Y-121212000D01*
X156879904Y-121173904D01*
X156860857Y-121154857D01*
X156803714Y-121116761D01*
X156727523Y-121097714D01*
X156575142Y-121097714D01*
X156537047Y-121116761D01*
X156518000Y-121135809D01*
X156498952Y-121173904D01*
X156498952Y-121250095D01*
X156518000Y-121288190D01*
X156537047Y-121307238D01*
X156575142Y-121326285D01*
X156670380Y-121326285D01*
X156708476Y-121307238D01*
X156727523Y-121288190D01*
X156746571Y-121250095D01*
X156746571Y-121173904D01*
X156727523Y-121135809D01*
X156708476Y-121116761D01*
X156670380Y-121097714D01*
X156898952Y-119357714D02*
X156498952Y-119357714D01*
X156498952Y-119205333D01*
X156518000Y-119167238D01*
X156537047Y-119148190D01*
X156575142Y-119129142D01*
X156632285Y-119129142D01*
X156670380Y-119148190D01*
X156689428Y-119167238D01*
X156708476Y-119205333D01*
X156708476Y-119357714D01*
X156898952Y-118748190D02*
X156898952Y-118976761D01*
X156898952Y-118862476D02*
X156498952Y-118862476D01*
X156556095Y-118900571D01*
X156594190Y-118938666D01*
X156613238Y-118976761D01*
X156498952Y-118500571D02*
X156498952Y-118462476D01*
X156518000Y-118424380D01*
X156537047Y-118405333D01*
X156575142Y-118386285D01*
X156651333Y-118367238D01*
X156746571Y-118367238D01*
X156822761Y-118386285D01*
X156860857Y-118405333D01*
X156879904Y-118424380D01*
X156898952Y-118462476D01*
X156898952Y-118500571D01*
X156879904Y-118538666D01*
X156860857Y-118557714D01*
X156822761Y-118576761D01*
X156746571Y-118595809D01*
X156651333Y-118595809D01*
X156575142Y-118576761D01*
X156537047Y-118557714D01*
X156518000Y-118538666D01*
X156498952Y-118500571D01*
X156898952Y-116690714D02*
X156498952Y-116690714D01*
X156498952Y-116538333D01*
X156518000Y-116500238D01*
X156537047Y-116481190D01*
X156575142Y-116462142D01*
X156632285Y-116462142D01*
X156670380Y-116481190D01*
X156689428Y-116500238D01*
X156708476Y-116538333D01*
X156708476Y-116690714D01*
X156898952Y-116081190D02*
X156898952Y-116309761D01*
X156898952Y-116195476D02*
X156498952Y-116195476D01*
X156556095Y-116233571D01*
X156594190Y-116271666D01*
X156613238Y-116309761D01*
X156898952Y-115700238D02*
X156898952Y-115928809D01*
X156898952Y-115814523D02*
X156498952Y-115814523D01*
X156556095Y-115852619D01*
X156594190Y-115890714D01*
X156613238Y-115928809D01*
X156898952Y-114150714D02*
X156498952Y-114150714D01*
X156498952Y-113998333D01*
X156518000Y-113960238D01*
X156537047Y-113941190D01*
X156575142Y-113922142D01*
X156632285Y-113922142D01*
X156670380Y-113941190D01*
X156689428Y-113960238D01*
X156708476Y-113998333D01*
X156708476Y-114150714D01*
X156898952Y-113541190D02*
X156898952Y-113769761D01*
X156898952Y-113655476D02*
X156498952Y-113655476D01*
X156556095Y-113693571D01*
X156594190Y-113731666D01*
X156613238Y-113769761D01*
X156537047Y-113388809D02*
X156518000Y-113369761D01*
X156498952Y-113331666D01*
X156498952Y-113236428D01*
X156518000Y-113198333D01*
X156537047Y-113179285D01*
X156575142Y-113160238D01*
X156613238Y-113160238D01*
X156670380Y-113179285D01*
X156898952Y-113407857D01*
X156898952Y-113160238D01*
X156898952Y-111610714D02*
X156498952Y-111610714D01*
X156498952Y-111458333D01*
X156518000Y-111420238D01*
X156537047Y-111401190D01*
X156575142Y-111382142D01*
X156632285Y-111382142D01*
X156670380Y-111401190D01*
X156689428Y-111420238D01*
X156708476Y-111458333D01*
X156708476Y-111610714D01*
X156898952Y-111001190D02*
X156898952Y-111229761D01*
X156898952Y-111115476D02*
X156498952Y-111115476D01*
X156556095Y-111153571D01*
X156594190Y-111191666D01*
X156613238Y-111229761D01*
X156498952Y-110867857D02*
X156498952Y-110620238D01*
X156651333Y-110753571D01*
X156651333Y-110696428D01*
X156670380Y-110658333D01*
X156689428Y-110639285D01*
X156727523Y-110620238D01*
X156822761Y-110620238D01*
X156860857Y-110639285D01*
X156879904Y-110658333D01*
X156898952Y-110696428D01*
X156898952Y-110810714D01*
X156879904Y-110848809D01*
X156860857Y-110867857D01*
X156898952Y-109070714D02*
X156498952Y-109070714D01*
X156498952Y-108918333D01*
X156518000Y-108880238D01*
X156537047Y-108861190D01*
X156575142Y-108842142D01*
X156632285Y-108842142D01*
X156670380Y-108861190D01*
X156689428Y-108880238D01*
X156708476Y-108918333D01*
X156708476Y-109070714D01*
X156898952Y-108461190D02*
X156898952Y-108689761D01*
X156898952Y-108575476D02*
X156498952Y-108575476D01*
X156556095Y-108613571D01*
X156594190Y-108651666D01*
X156613238Y-108689761D01*
X156632285Y-108118333D02*
X156898952Y-108118333D01*
X156479904Y-108213571D02*
X156765619Y-108308809D01*
X156765619Y-108061190D01*
X156898952Y-106530714D02*
X156498952Y-106530714D01*
X156498952Y-106378333D01*
X156518000Y-106340238D01*
X156537047Y-106321190D01*
X156575142Y-106302142D01*
X156632285Y-106302142D01*
X156670380Y-106321190D01*
X156689428Y-106340238D01*
X156708476Y-106378333D01*
X156708476Y-106530714D01*
X156898952Y-105921190D02*
X156898952Y-106149761D01*
X156898952Y-106035476D02*
X156498952Y-106035476D01*
X156556095Y-106073571D01*
X156594190Y-106111666D01*
X156613238Y-106149761D01*
X156498952Y-105559285D02*
X156498952Y-105749761D01*
X156689428Y-105768809D01*
X156670380Y-105749761D01*
X156651333Y-105711666D01*
X156651333Y-105616428D01*
X156670380Y-105578333D01*
X156689428Y-105559285D01*
X156727523Y-105540238D01*
X156822761Y-105540238D01*
X156860857Y-105559285D01*
X156879904Y-105578333D01*
X156898952Y-105616428D01*
X156898952Y-105711666D01*
X156879904Y-105749761D01*
X156860857Y-105768809D01*
X156835457Y-104371666D02*
X156854504Y-104390714D01*
X156873552Y-104447857D01*
X156873552Y-104485952D01*
X156854504Y-104543095D01*
X156816409Y-104581190D01*
X156778314Y-104600238D01*
X156702123Y-104619285D01*
X156644980Y-104619285D01*
X156568790Y-104600238D01*
X156530695Y-104581190D01*
X156492600Y-104543095D01*
X156473552Y-104485952D01*
X156473552Y-104447857D01*
X156492600Y-104390714D01*
X156511647Y-104371666D01*
X156873552Y-104200238D02*
X156473552Y-104200238D01*
X156759266Y-104066904D01*
X156473552Y-103933571D01*
X156873552Y-103933571D01*
X156873552Y-103743095D02*
X156473552Y-103743095D01*
X156473552Y-103590714D01*
X156492600Y-103552619D01*
X156511647Y-103533571D01*
X156549742Y-103514523D01*
X156606885Y-103514523D01*
X156644980Y-103533571D01*
X156664028Y-103552619D01*
X156683076Y-103590714D01*
X156683076Y-103743095D01*
X156911647Y-103438333D02*
X156911647Y-103133571D01*
X156873552Y-103038333D02*
X156473552Y-103038333D01*
X156873552Y-102809761D01*
X156473552Y-102809761D01*
X156873552Y-102619285D02*
X156473552Y-102619285D01*
X156473552Y-102466904D01*
X156492600Y-102428809D01*
X156511647Y-102409761D01*
X156549742Y-102390714D01*
X156606885Y-102390714D01*
X156644980Y-102409761D01*
X156664028Y-102428809D01*
X156683076Y-102466904D01*
X156683076Y-102619285D01*
X156835457Y-101631666D02*
X156854504Y-101650714D01*
X156873552Y-101707857D01*
X156873552Y-101745952D01*
X156854504Y-101803095D01*
X156816409Y-101841190D01*
X156778314Y-101860238D01*
X156702123Y-101879285D01*
X156644980Y-101879285D01*
X156568790Y-101860238D01*
X156530695Y-101841190D01*
X156492600Y-101803095D01*
X156473552Y-101745952D01*
X156473552Y-101707857D01*
X156492600Y-101650714D01*
X156511647Y-101631666D01*
X156873552Y-101460238D02*
X156473552Y-101460238D01*
X156759266Y-101326904D01*
X156473552Y-101193571D01*
X156873552Y-101193571D01*
X156873552Y-101003095D02*
X156473552Y-101003095D01*
X156473552Y-100850714D01*
X156492600Y-100812619D01*
X156511647Y-100793571D01*
X156549742Y-100774523D01*
X156606885Y-100774523D01*
X156644980Y-100793571D01*
X156664028Y-100812619D01*
X156683076Y-100850714D01*
X156683076Y-101003095D01*
X156911647Y-100698333D02*
X156911647Y-100393571D01*
X156873552Y-100298333D02*
X156473552Y-100298333D01*
X156873552Y-100069761D01*
X156473552Y-100069761D01*
X156708466Y-99091666D02*
X156708466Y-98901190D01*
X156822752Y-99129761D02*
X156422752Y-98996428D01*
X156822752Y-98863095D01*
X156422752Y-98653571D02*
X156422752Y-98577380D01*
X156441800Y-98539285D01*
X156479895Y-98501190D01*
X156556085Y-98482142D01*
X156689419Y-98482142D01*
X156765609Y-98501190D01*
X156803704Y-98539285D01*
X156822752Y-98577380D01*
X156822752Y-98653571D01*
X156803704Y-98691666D01*
X156765609Y-98729761D01*
X156689419Y-98748809D01*
X156556085Y-98748809D01*
X156479895Y-98729761D01*
X156441800Y-98691666D01*
X156422752Y-98653571D01*
X156422752Y-98310714D02*
X156746561Y-98310714D01*
X156784657Y-98291666D01*
X156803704Y-98272619D01*
X156822752Y-98234523D01*
X156822752Y-98158333D01*
X156803704Y-98120238D01*
X156784657Y-98101190D01*
X156746561Y-98082142D01*
X156422752Y-98082142D01*
X156422752Y-97948809D02*
X156422752Y-97720238D01*
X156822752Y-97834523D02*
X156422752Y-97834523D01*
X156371952Y-96869133D02*
X156771952Y-96735800D01*
X156371952Y-96602466D01*
X156771952Y-96240561D02*
X156581476Y-96373895D01*
X156771952Y-96469133D02*
X156371952Y-96469133D01*
X156371952Y-96316752D01*
X156391000Y-96278657D01*
X156410047Y-96259609D01*
X156448142Y-96240561D01*
X156505285Y-96240561D01*
X156543380Y-96259609D01*
X156562428Y-96278657D01*
X156581476Y-96316752D01*
X156581476Y-96469133D01*
X156562428Y-96069133D02*
X156562428Y-95935800D01*
X156771952Y-95878657D02*
X156771952Y-96069133D01*
X156371952Y-96069133D01*
X156371952Y-95878657D01*
X156562428Y-95573895D02*
X156562428Y-95707228D01*
X156771952Y-95707228D02*
X156371952Y-95707228D01*
X156371952Y-95516752D01*
X156619571Y-95364371D02*
X156619571Y-95059609D01*
X156771952Y-95211990D02*
X156467190Y-95211990D01*
X156371952Y-94151333D02*
X156771952Y-94018000D01*
X156371952Y-93884666D01*
X156771952Y-93522761D02*
X156581476Y-93656095D01*
X156771952Y-93751333D02*
X156371952Y-93751333D01*
X156371952Y-93598952D01*
X156391000Y-93560857D01*
X156410047Y-93541809D01*
X156448142Y-93522761D01*
X156505285Y-93522761D01*
X156543380Y-93541809D01*
X156562428Y-93560857D01*
X156581476Y-93598952D01*
X156581476Y-93751333D01*
X156562428Y-93351333D02*
X156562428Y-93218000D01*
X156771952Y-93160857D02*
X156771952Y-93351333D01*
X156371952Y-93351333D01*
X156371952Y-93160857D01*
X156562428Y-92856095D02*
X156562428Y-92989428D01*
X156771952Y-92989428D02*
X156371952Y-92989428D01*
X156371952Y-92798952D01*
X156619571Y-92646571D02*
X156619571Y-92341809D01*
X156657666Y-90963714D02*
X156657666Y-90773238D01*
X156771952Y-91001809D02*
X156371952Y-90868476D01*
X156771952Y-90735142D01*
X156771952Y-90392285D02*
X156771952Y-90620857D01*
X156771952Y-90506571D02*
X156371952Y-90506571D01*
X156429095Y-90544666D01*
X156467190Y-90582761D01*
X156486238Y-90620857D01*
X156657666Y-88550714D02*
X156657666Y-88360238D01*
X156771952Y-88588809D02*
X156371952Y-88455476D01*
X156771952Y-88322142D01*
X156371952Y-88112619D02*
X156371952Y-88074523D01*
X156391000Y-88036428D01*
X156410047Y-88017380D01*
X156448142Y-87998333D01*
X156524333Y-87979285D01*
X156619571Y-87979285D01*
X156695761Y-87998333D01*
X156733857Y-88017380D01*
X156752904Y-88036428D01*
X156771952Y-88074523D01*
X156771952Y-88112619D01*
X156752904Y-88150714D01*
X156733857Y-88169761D01*
X156695761Y-88188809D01*
X156619571Y-88207857D01*
X156524333Y-88207857D01*
X156448142Y-88188809D01*
X156410047Y-88169761D01*
X156391000Y-88150714D01*
X156371952Y-88112619D01*
X156771952Y-86563095D02*
X156371952Y-86563095D01*
X156771952Y-86334523D01*
X156371952Y-86334523D01*
X156371952Y-86201190D02*
X156771952Y-86067857D01*
X156371952Y-85934523D01*
X156771952Y-85572619D02*
X156581476Y-85705952D01*
X156771952Y-85801190D02*
X156371952Y-85801190D01*
X156371952Y-85648809D01*
X156391000Y-85610714D01*
X156410047Y-85591666D01*
X156448142Y-85572619D01*
X156505285Y-85572619D01*
X156543380Y-85591666D01*
X156562428Y-85610714D01*
X156581476Y-85648809D01*
X156581476Y-85801190D01*
X156562428Y-85401190D02*
X156562428Y-85267857D01*
X156771952Y-85210714D02*
X156771952Y-85401190D01*
X156371952Y-85401190D01*
X156371952Y-85210714D01*
X156562428Y-84905952D02*
X156562428Y-85039285D01*
X156771952Y-85039285D02*
X156371952Y-85039285D01*
X156371952Y-84848809D01*
D11*
X140126357Y-86940571D02*
X140507357Y-86813571D01*
X140126357Y-86686571D01*
X140507357Y-86559571D02*
X140126357Y-86559571D01*
X140126357Y-86468857D01*
X140144500Y-86414428D01*
X140180785Y-86378142D01*
X140217071Y-86360000D01*
X140289642Y-86341857D01*
X140344071Y-86341857D01*
X140416642Y-86360000D01*
X140452928Y-86378142D01*
X140489214Y-86414428D01*
X140507357Y-86468857D01*
X140507357Y-86559571D01*
X140507357Y-86178571D02*
X140126357Y-86178571D01*
X140126357Y-86087857D01*
X140144500Y-86033428D01*
X140180785Y-85997142D01*
X140217071Y-85979000D01*
X140289642Y-85960857D01*
X140344071Y-85960857D01*
X140416642Y-85979000D01*
X140452928Y-85997142D01*
X140489214Y-86033428D01*
X140507357Y-86087857D01*
X140507357Y-86178571D01*
X140652500Y-85688714D02*
X140634357Y-85706857D01*
X140579928Y-85743142D01*
X140543642Y-85761285D01*
X140489214Y-85779428D01*
X140398500Y-85797571D01*
X140325928Y-85797571D01*
X140235214Y-85779428D01*
X140180785Y-85761285D01*
X140144500Y-85743142D01*
X140090071Y-85706857D01*
X140071928Y-85688714D01*
X140126357Y-85579857D02*
X140126357Y-85344000D01*
X140271500Y-85471000D01*
X140271500Y-85416571D01*
X140289642Y-85380285D01*
X140307785Y-85362142D01*
X140344071Y-85344000D01*
X140434785Y-85344000D01*
X140471071Y-85362142D01*
X140489214Y-85380285D01*
X140507357Y-85416571D01*
X140507357Y-85525428D01*
X140489214Y-85561714D01*
X140471071Y-85579857D01*
X140471071Y-85180714D02*
X140489214Y-85162571D01*
X140507357Y-85180714D01*
X140489214Y-85198857D01*
X140471071Y-85180714D01*
X140507357Y-85180714D01*
X140126357Y-85035571D02*
X140126357Y-84799714D01*
X140271500Y-84926714D01*
X140271500Y-84872285D01*
X140289642Y-84836000D01*
X140307785Y-84817857D01*
X140344071Y-84799714D01*
X140434785Y-84799714D01*
X140471071Y-84817857D01*
X140489214Y-84836000D01*
X140507357Y-84872285D01*
X140507357Y-84981142D01*
X140489214Y-85017428D01*
X140471071Y-85035571D01*
X140652500Y-84672714D02*
X140634357Y-84654571D01*
X140579928Y-84618285D01*
X140543642Y-84600142D01*
X140489214Y-84582000D01*
X140398500Y-84563857D01*
X140325928Y-84563857D01*
X140235214Y-84582000D01*
X140180785Y-84600142D01*
X140144500Y-84618285D01*
X140090071Y-84654571D01*
X140071928Y-84672714D01*
D10*
X140515952Y-88969761D02*
X140115952Y-88969761D01*
X140306428Y-88969761D02*
X140306428Y-88741190D01*
X140515952Y-88741190D02*
X140115952Y-88741190D01*
X140477857Y-88322142D02*
X140496904Y-88341190D01*
X140515952Y-88398333D01*
X140515952Y-88436428D01*
X140496904Y-88493571D01*
X140458809Y-88531666D01*
X140420714Y-88550714D01*
X140344523Y-88569761D01*
X140287380Y-88569761D01*
X140211190Y-88550714D01*
X140173095Y-88531666D01*
X140135000Y-88493571D01*
X140115952Y-88436428D01*
X140115952Y-88398333D01*
X140135000Y-88341190D01*
X140154047Y-88322142D01*
X140496904Y-88169761D02*
X140515952Y-88112619D01*
X140515952Y-88017380D01*
X140496904Y-87979285D01*
X140477857Y-87960238D01*
X140439761Y-87941190D01*
X140401666Y-87941190D01*
X140363571Y-87960238D01*
X140344523Y-87979285D01*
X140325476Y-88017380D01*
X140306428Y-88093571D01*
X140287380Y-88131666D01*
X140268333Y-88150714D01*
X140230238Y-88169761D01*
X140192142Y-88169761D01*
X140154047Y-88150714D01*
X140135000Y-88131666D01*
X140115952Y-88093571D01*
X140115952Y-87998333D01*
X140135000Y-87941190D01*
X140306428Y-87636428D02*
X140325476Y-87579285D01*
X140344523Y-87560238D01*
X140382619Y-87541190D01*
X140439761Y-87541190D01*
X140477857Y-87560238D01*
X140496904Y-87579285D01*
X140515952Y-87617380D01*
X140515952Y-87769761D01*
X140115952Y-87769761D01*
X140115952Y-87636428D01*
X140135000Y-87598333D01*
X140154047Y-87579285D01*
X140192142Y-87560238D01*
X140230238Y-87560238D01*
X140268333Y-87579285D01*
X140287380Y-87598333D01*
X140306428Y-87636428D01*
X140306428Y-87769761D01*
X140515952Y-91509761D02*
X140115952Y-91509761D01*
X140306428Y-91509761D02*
X140306428Y-91281190D01*
X140515952Y-91281190D02*
X140115952Y-91281190D01*
X140496904Y-91109761D02*
X140515952Y-91052619D01*
X140515952Y-90957380D01*
X140496904Y-90919285D01*
X140477857Y-90900238D01*
X140439761Y-90881190D01*
X140401666Y-90881190D01*
X140363571Y-90900238D01*
X140344523Y-90919285D01*
X140325476Y-90957380D01*
X140306428Y-91033571D01*
X140287380Y-91071666D01*
X140268333Y-91090714D01*
X140230238Y-91109761D01*
X140192142Y-91109761D01*
X140154047Y-91090714D01*
X140135000Y-91071666D01*
X140115952Y-91033571D01*
X140115952Y-90938333D01*
X140135000Y-90881190D01*
X140477857Y-90481190D02*
X140496904Y-90500238D01*
X140515952Y-90557380D01*
X140515952Y-90595476D01*
X140496904Y-90652619D01*
X140458809Y-90690714D01*
X140420714Y-90709761D01*
X140344523Y-90728809D01*
X140287380Y-90728809D01*
X140211190Y-90709761D01*
X140173095Y-90690714D01*
X140135000Y-90652619D01*
X140115952Y-90595476D01*
X140115952Y-90557380D01*
X140135000Y-90500238D01*
X140154047Y-90481190D01*
X140515952Y-90309761D02*
X140115952Y-90309761D01*
X140515952Y-90081190D02*
X140287380Y-90252619D01*
X140115952Y-90081190D02*
X140344523Y-90309761D01*
X140515952Y-93945000D02*
X140115952Y-93945000D01*
X140306428Y-93945000D02*
X140306428Y-93716428D01*
X140515952Y-93716428D02*
X140115952Y-93716428D01*
X140496904Y-93545000D02*
X140515952Y-93487857D01*
X140515952Y-93392619D01*
X140496904Y-93354523D01*
X140477857Y-93335476D01*
X140439761Y-93316428D01*
X140401666Y-93316428D01*
X140363571Y-93335476D01*
X140344523Y-93354523D01*
X140325476Y-93392619D01*
X140306428Y-93468809D01*
X140287380Y-93506904D01*
X140268333Y-93525952D01*
X140230238Y-93545000D01*
X140192142Y-93545000D01*
X140154047Y-93525952D01*
X140135000Y-93506904D01*
X140115952Y-93468809D01*
X140115952Y-93373571D01*
X140135000Y-93316428D01*
X140515952Y-93145000D02*
X140115952Y-93145000D01*
X140115952Y-93049761D01*
X140135000Y-92992619D01*
X140173095Y-92954523D01*
X140211190Y-92935476D01*
X140287380Y-92916428D01*
X140344523Y-92916428D01*
X140420714Y-92935476D01*
X140458809Y-92954523D01*
X140496904Y-92992619D01*
X140515952Y-93049761D01*
X140515952Y-93145000D01*
X140515952Y-92745000D02*
X140115952Y-92745000D01*
X140515952Y-96726285D02*
X140115952Y-96726285D01*
X140306428Y-96726285D02*
X140306428Y-96497714D01*
X140515952Y-96497714D02*
X140115952Y-96497714D01*
X140496904Y-96326285D02*
X140515952Y-96269142D01*
X140515952Y-96173904D01*
X140496904Y-96135809D01*
X140477857Y-96116761D01*
X140439761Y-96097714D01*
X140401666Y-96097714D01*
X140363571Y-96116761D01*
X140344523Y-96135809D01*
X140325476Y-96173904D01*
X140306428Y-96250095D01*
X140287380Y-96288190D01*
X140268333Y-96307238D01*
X140230238Y-96326285D01*
X140192142Y-96326285D01*
X140154047Y-96307238D01*
X140135000Y-96288190D01*
X140115952Y-96250095D01*
X140115952Y-96154857D01*
X140135000Y-96097714D01*
X140515952Y-95926285D02*
X140115952Y-95926285D01*
X140115952Y-95831047D01*
X140135000Y-95773904D01*
X140173095Y-95735809D01*
X140211190Y-95716761D01*
X140287380Y-95697714D01*
X140344523Y-95697714D01*
X140420714Y-95716761D01*
X140458809Y-95735809D01*
X140496904Y-95773904D01*
X140515952Y-95831047D01*
X140515952Y-95926285D01*
X140115952Y-95450095D02*
X140115952Y-95373904D01*
X140135000Y-95335809D01*
X140173095Y-95297714D01*
X140249285Y-95278666D01*
X140382619Y-95278666D01*
X140458809Y-95297714D01*
X140496904Y-95335809D01*
X140515952Y-95373904D01*
X140515952Y-95450095D01*
X140496904Y-95488190D01*
X140458809Y-95526285D01*
X140382619Y-95545333D01*
X140249285Y-95545333D01*
X140173095Y-95526285D01*
X140135000Y-95488190D01*
X140115952Y-95450095D01*
X140115952Y-99247238D02*
X140515952Y-98980571D01*
X140115952Y-98980571D02*
X140515952Y-99247238D01*
X140477857Y-98599619D02*
X140496904Y-98618666D01*
X140515952Y-98675809D01*
X140515952Y-98713904D01*
X140496904Y-98771047D01*
X140458809Y-98809142D01*
X140420714Y-98828190D01*
X140344523Y-98847238D01*
X140287380Y-98847238D01*
X140211190Y-98828190D01*
X140173095Y-98809142D01*
X140135000Y-98771047D01*
X140115952Y-98713904D01*
X140115952Y-98675809D01*
X140135000Y-98618666D01*
X140154047Y-98599619D01*
X140515952Y-98237714D02*
X140515952Y-98428190D01*
X140115952Y-98428190D01*
X140515952Y-98104380D02*
X140115952Y-98104380D01*
X140515952Y-97875809D02*
X140287380Y-98047238D01*
X140115952Y-97875809D02*
X140344523Y-98104380D01*
X140515952Y-101374523D02*
X140115952Y-101374523D01*
X140515952Y-100955476D02*
X140325476Y-101088809D01*
X140515952Y-101184047D02*
X140115952Y-101184047D01*
X140115952Y-101031666D01*
X140135000Y-100993571D01*
X140154047Y-100974523D01*
X140192142Y-100955476D01*
X140249285Y-100955476D01*
X140287380Y-100974523D01*
X140306428Y-100993571D01*
X140325476Y-101031666D01*
X140325476Y-101184047D01*
X140554047Y-100517380D02*
X140535000Y-100555476D01*
X140496904Y-100593571D01*
X140439761Y-100650714D01*
X140420714Y-100688809D01*
X140420714Y-100726904D01*
X140515952Y-100707857D02*
X140496904Y-100745952D01*
X140458809Y-100784047D01*
X140382619Y-100803095D01*
X140249285Y-100803095D01*
X140173095Y-100784047D01*
X140135000Y-100745952D01*
X140115952Y-100707857D01*
X140115952Y-100631666D01*
X140135000Y-100593571D01*
X140173095Y-100555476D01*
X140249285Y-100536428D01*
X140382619Y-100536428D01*
X140458809Y-100555476D01*
X140496904Y-100593571D01*
X140515952Y-100631666D01*
X140515952Y-100707857D01*
X140496904Y-103990714D02*
X140515952Y-103933571D01*
X140515952Y-103838333D01*
X140496904Y-103800238D01*
X140477857Y-103781190D01*
X140439761Y-103762142D01*
X140401666Y-103762142D01*
X140363571Y-103781190D01*
X140344523Y-103800238D01*
X140325476Y-103838333D01*
X140306428Y-103914523D01*
X140287380Y-103952619D01*
X140268333Y-103971666D01*
X140230238Y-103990714D01*
X140192142Y-103990714D01*
X140154047Y-103971666D01*
X140135000Y-103952619D01*
X140115952Y-103914523D01*
X140115952Y-103819285D01*
X140135000Y-103762142D01*
X140515952Y-103590714D02*
X140115952Y-103590714D01*
X140115952Y-103495476D01*
X140135000Y-103438333D01*
X140173095Y-103400238D01*
X140211190Y-103381190D01*
X140287380Y-103362142D01*
X140344523Y-103362142D01*
X140420714Y-103381190D01*
X140458809Y-103400238D01*
X140496904Y-103438333D01*
X140515952Y-103495476D01*
X140515952Y-103590714D01*
X140401666Y-103209761D02*
X140401666Y-103019285D01*
X140515952Y-103247857D02*
X140115952Y-103114523D01*
X140515952Y-102981190D01*
X140496904Y-106521190D02*
X140515952Y-106464047D01*
X140515952Y-106368809D01*
X140496904Y-106330714D01*
X140477857Y-106311666D01*
X140439761Y-106292619D01*
X140401666Y-106292619D01*
X140363571Y-106311666D01*
X140344523Y-106330714D01*
X140325476Y-106368809D01*
X140306428Y-106445000D01*
X140287380Y-106483095D01*
X140268333Y-106502142D01*
X140230238Y-106521190D01*
X140192142Y-106521190D01*
X140154047Y-106502142D01*
X140135000Y-106483095D01*
X140115952Y-106445000D01*
X140115952Y-106349761D01*
X140135000Y-106292619D01*
X140477857Y-105892619D02*
X140496904Y-105911666D01*
X140515952Y-105968809D01*
X140515952Y-106006904D01*
X140496904Y-106064047D01*
X140458809Y-106102142D01*
X140420714Y-106121190D01*
X140344523Y-106140238D01*
X140287380Y-106140238D01*
X140211190Y-106121190D01*
X140173095Y-106102142D01*
X140135000Y-106064047D01*
X140115952Y-106006904D01*
X140115952Y-105968809D01*
X140135000Y-105911666D01*
X140154047Y-105892619D01*
X140515952Y-105530714D02*
X140515952Y-105721190D01*
X140115952Y-105721190D01*
X140115952Y-109080238D02*
X140115952Y-108851666D01*
X140515952Y-108965952D02*
X140115952Y-108965952D01*
X140115952Y-108756428D02*
X140515952Y-108489761D01*
X140115952Y-108489761D02*
X140515952Y-108756428D01*
X140115952Y-108261190D02*
X140115952Y-108223095D01*
X140135000Y-108185000D01*
X140154047Y-108165952D01*
X140192142Y-108146904D01*
X140268333Y-108127857D01*
X140363571Y-108127857D01*
X140439761Y-108146904D01*
X140477857Y-108165952D01*
X140496904Y-108185000D01*
X140515952Y-108223095D01*
X140515952Y-108261190D01*
X140496904Y-108299285D01*
X140477857Y-108318333D01*
X140439761Y-108337380D01*
X140363571Y-108356428D01*
X140268333Y-108356428D01*
X140192142Y-108337380D01*
X140154047Y-108318333D01*
X140135000Y-108299285D01*
X140115952Y-108261190D01*
X140515952Y-111382142D02*
X140325476Y-111515476D01*
X140515952Y-111610714D02*
X140115952Y-111610714D01*
X140115952Y-111458333D01*
X140135000Y-111420238D01*
X140154047Y-111401190D01*
X140192142Y-111382142D01*
X140249285Y-111382142D01*
X140287380Y-111401190D01*
X140306428Y-111420238D01*
X140325476Y-111458333D01*
X140325476Y-111610714D01*
X140115952Y-111248809D02*
X140515952Y-110982142D01*
X140115952Y-110982142D02*
X140515952Y-111248809D01*
X140115952Y-110753571D02*
X140115952Y-110715476D01*
X140135000Y-110677380D01*
X140154047Y-110658333D01*
X140192142Y-110639285D01*
X140268333Y-110620238D01*
X140363571Y-110620238D01*
X140439761Y-110639285D01*
X140477857Y-110658333D01*
X140496904Y-110677380D01*
X140515952Y-110715476D01*
X140515952Y-110753571D01*
X140496904Y-110791666D01*
X140477857Y-110810714D01*
X140439761Y-110829761D01*
X140363571Y-110848809D01*
X140268333Y-110848809D01*
X140192142Y-110829761D01*
X140154047Y-110810714D01*
X140135000Y-110791666D01*
X140115952Y-110753571D01*
X140477857Y-114058666D02*
X140496904Y-114077714D01*
X140515952Y-114134857D01*
X140515952Y-114172952D01*
X140496904Y-114230095D01*
X140458809Y-114268190D01*
X140420714Y-114287238D01*
X140344523Y-114306285D01*
X140287380Y-114306285D01*
X140211190Y-114287238D01*
X140173095Y-114268190D01*
X140135000Y-114230095D01*
X140115952Y-114172952D01*
X140115952Y-114134857D01*
X140135000Y-114077714D01*
X140154047Y-114058666D01*
X140496904Y-113906285D02*
X140515952Y-113849142D01*
X140515952Y-113753904D01*
X140496904Y-113715809D01*
X140477857Y-113696761D01*
X140439761Y-113677714D01*
X140401666Y-113677714D01*
X140363571Y-113696761D01*
X140344523Y-113715809D01*
X140325476Y-113753904D01*
X140306428Y-113830095D01*
X140287380Y-113868190D01*
X140268333Y-113887238D01*
X140230238Y-113906285D01*
X140192142Y-113906285D01*
X140154047Y-113887238D01*
X140135000Y-113868190D01*
X140115952Y-113830095D01*
X140115952Y-113734857D01*
X140135000Y-113677714D01*
X140306428Y-113372952D02*
X140325476Y-113315809D01*
X140344523Y-113296761D01*
X140382619Y-113277714D01*
X140439761Y-113277714D01*
X140477857Y-113296761D01*
X140496904Y-113315809D01*
X140515952Y-113353904D01*
X140515952Y-113506285D01*
X140115952Y-113506285D01*
X140115952Y-113372952D01*
X140135000Y-113334857D01*
X140154047Y-113315809D01*
X140192142Y-113296761D01*
X140230238Y-113296761D01*
X140268333Y-113315809D01*
X140287380Y-113334857D01*
X140306428Y-113372952D01*
X140306428Y-113506285D01*
X140496904Y-116719285D02*
X140515952Y-116662142D01*
X140515952Y-116566904D01*
X140496904Y-116528809D01*
X140477857Y-116509761D01*
X140439761Y-116490714D01*
X140401666Y-116490714D01*
X140363571Y-116509761D01*
X140344523Y-116528809D01*
X140325476Y-116566904D01*
X140306428Y-116643095D01*
X140287380Y-116681190D01*
X140268333Y-116700238D01*
X140230238Y-116719285D01*
X140192142Y-116719285D01*
X140154047Y-116700238D01*
X140135000Y-116681190D01*
X140115952Y-116643095D01*
X140115952Y-116547857D01*
X140135000Y-116490714D01*
X140477857Y-116090714D02*
X140496904Y-116109761D01*
X140515952Y-116166904D01*
X140515952Y-116205000D01*
X140496904Y-116262142D01*
X140458809Y-116300238D01*
X140420714Y-116319285D01*
X140344523Y-116338333D01*
X140287380Y-116338333D01*
X140211190Y-116319285D01*
X140173095Y-116300238D01*
X140135000Y-116262142D01*
X140115952Y-116205000D01*
X140115952Y-116166904D01*
X140135000Y-116109761D01*
X140154047Y-116090714D01*
X140515952Y-115919285D02*
X140115952Y-115919285D01*
X140515952Y-115690714D02*
X140287380Y-115862142D01*
X140115952Y-115690714D02*
X140344523Y-115919285D01*
X140496904Y-119154523D02*
X140515952Y-119097380D01*
X140515952Y-119002142D01*
X140496904Y-118964047D01*
X140477857Y-118945000D01*
X140439761Y-118925952D01*
X140401666Y-118925952D01*
X140363571Y-118945000D01*
X140344523Y-118964047D01*
X140325476Y-119002142D01*
X140306428Y-119078333D01*
X140287380Y-119116428D01*
X140268333Y-119135476D01*
X140230238Y-119154523D01*
X140192142Y-119154523D01*
X140154047Y-119135476D01*
X140135000Y-119116428D01*
X140115952Y-119078333D01*
X140115952Y-118983095D01*
X140135000Y-118925952D01*
X140515952Y-118754523D02*
X140115952Y-118754523D01*
X140115952Y-118659285D01*
X140135000Y-118602142D01*
X140173095Y-118564047D01*
X140211190Y-118545000D01*
X140287380Y-118525952D01*
X140344523Y-118525952D01*
X140420714Y-118545000D01*
X140458809Y-118564047D01*
X140496904Y-118602142D01*
X140515952Y-118659285D01*
X140515952Y-118754523D01*
X140515952Y-118354523D02*
X140115952Y-118354523D01*
X140496904Y-121681809D02*
X140515952Y-121624666D01*
X140515952Y-121529428D01*
X140496904Y-121491333D01*
X140477857Y-121472285D01*
X140439761Y-121453238D01*
X140401666Y-121453238D01*
X140363571Y-121472285D01*
X140344523Y-121491333D01*
X140325476Y-121529428D01*
X140306428Y-121605619D01*
X140287380Y-121643714D01*
X140268333Y-121662761D01*
X140230238Y-121681809D01*
X140192142Y-121681809D01*
X140154047Y-121662761D01*
X140135000Y-121643714D01*
X140115952Y-121605619D01*
X140115952Y-121510380D01*
X140135000Y-121453238D01*
X140515952Y-121281809D02*
X140115952Y-121281809D01*
X140115952Y-121186571D01*
X140135000Y-121129428D01*
X140173095Y-121091333D01*
X140211190Y-121072285D01*
X140287380Y-121053238D01*
X140344523Y-121053238D01*
X140420714Y-121072285D01*
X140458809Y-121091333D01*
X140496904Y-121129428D01*
X140515952Y-121186571D01*
X140515952Y-121281809D01*
X140115952Y-120805619D02*
X140115952Y-120729428D01*
X140135000Y-120691333D01*
X140173095Y-120653238D01*
X140249285Y-120634190D01*
X140382619Y-120634190D01*
X140458809Y-120653238D01*
X140496904Y-120691333D01*
X140515952Y-120729428D01*
X140515952Y-120805619D01*
X140496904Y-120843714D01*
X140458809Y-120881809D01*
X140382619Y-120900857D01*
X140249285Y-120900857D01*
X140173095Y-120881809D01*
X140135000Y-120843714D01*
X140115952Y-120805619D01*
X140515952Y-124120238D02*
X140115952Y-124120238D01*
X140115952Y-123967857D01*
X140135000Y-123929761D01*
X140154047Y-123910714D01*
X140192142Y-123891666D01*
X140249285Y-123891666D01*
X140287380Y-123910714D01*
X140306428Y-123929761D01*
X140325476Y-123967857D01*
X140325476Y-124120238D01*
X140115952Y-123644047D02*
X140115952Y-123605952D01*
X140135000Y-123567857D01*
X140154047Y-123548809D01*
X140192142Y-123529761D01*
X140268333Y-123510714D01*
X140363571Y-123510714D01*
X140439761Y-123529761D01*
X140477857Y-123548809D01*
X140496904Y-123567857D01*
X140515952Y-123605952D01*
X140515952Y-123644047D01*
X140496904Y-123682142D01*
X140477857Y-123701190D01*
X140439761Y-123720238D01*
X140363571Y-123739285D01*
X140268333Y-123739285D01*
X140192142Y-123720238D01*
X140154047Y-123701190D01*
X140135000Y-123682142D01*
X140115952Y-123644047D01*
X140515952Y-126660238D02*
X140115952Y-126660238D01*
X140115952Y-126507857D01*
X140135000Y-126469761D01*
X140154047Y-126450714D01*
X140192142Y-126431666D01*
X140249285Y-126431666D01*
X140287380Y-126450714D01*
X140306428Y-126469761D01*
X140325476Y-126507857D01*
X140325476Y-126660238D01*
X140515952Y-126050714D02*
X140515952Y-126279285D01*
X140515952Y-126165000D02*
X140115952Y-126165000D01*
X140173095Y-126203095D01*
X140211190Y-126241190D01*
X140230238Y-126279285D01*
X140515952Y-129327238D02*
X140115952Y-129327238D01*
X140115952Y-129174857D01*
X140135000Y-129136761D01*
X140154047Y-129117714D01*
X140192142Y-129098666D01*
X140249285Y-129098666D01*
X140287380Y-129117714D01*
X140306428Y-129136761D01*
X140325476Y-129174857D01*
X140325476Y-129327238D01*
X140154047Y-128946285D02*
X140135000Y-128927238D01*
X140115952Y-128889142D01*
X140115952Y-128793904D01*
X140135000Y-128755809D01*
X140154047Y-128736761D01*
X140192142Y-128717714D01*
X140230238Y-128717714D01*
X140287380Y-128736761D01*
X140515952Y-128965333D01*
X140515952Y-128717714D01*
X140515952Y-131740238D02*
X140115952Y-131740238D01*
X140115952Y-131587857D01*
X140135000Y-131549761D01*
X140154047Y-131530714D01*
X140192142Y-131511666D01*
X140249285Y-131511666D01*
X140287380Y-131530714D01*
X140306428Y-131549761D01*
X140325476Y-131587857D01*
X140325476Y-131740238D01*
X140115952Y-131378333D02*
X140115952Y-131130714D01*
X140268333Y-131264047D01*
X140268333Y-131206904D01*
X140287380Y-131168809D01*
X140306428Y-131149761D01*
X140344523Y-131130714D01*
X140439761Y-131130714D01*
X140477857Y-131149761D01*
X140496904Y-131168809D01*
X140515952Y-131206904D01*
X140515952Y-131321190D01*
X140496904Y-131359285D01*
X140477857Y-131378333D01*
X140515952Y-134280238D02*
X140115952Y-134280238D01*
X140115952Y-134127857D01*
X140135000Y-134089761D01*
X140154047Y-134070714D01*
X140192142Y-134051666D01*
X140249285Y-134051666D01*
X140287380Y-134070714D01*
X140306428Y-134089761D01*
X140325476Y-134127857D01*
X140325476Y-134280238D01*
X140249285Y-133708809D02*
X140515952Y-133708809D01*
X140096904Y-133804047D02*
X140382619Y-133899285D01*
X140382619Y-133651666D01*
D12*
X141408428Y-110274142D02*
X141108428Y-109845571D01*
X140894142Y-110274142D02*
X140894142Y-109374142D01*
X141237000Y-109374142D01*
X141322714Y-109417000D01*
X141365571Y-109459857D01*
X141408428Y-109545571D01*
X141408428Y-109674142D01*
X141365571Y-109759857D01*
X141322714Y-109802714D01*
X141237000Y-109845571D01*
X140894142Y-109845571D01*
X141751285Y-110017000D02*
X142179857Y-110017000D01*
X141665571Y-110274142D02*
X141965571Y-109374142D01*
X142265571Y-110274142D01*
X142437000Y-109374142D02*
X142737000Y-110274142D01*
X143037000Y-109374142D01*
X143337000Y-109802714D02*
X143637000Y-109802714D01*
X143765571Y-110274142D02*
X143337000Y-110274142D01*
X143337000Y-109374142D01*
X143765571Y-109374142D01*
X144151285Y-110274142D02*
X144151285Y-109374142D01*
X144665571Y-110274142D01*
X144665571Y-109374142D01*
X145094142Y-110274142D02*
X145094142Y-109374142D01*
X145608428Y-110274142D01*
X145608428Y-109374142D01*
X145994142Y-110017000D02*
X146422714Y-110017000D01*
X145908428Y-110274142D02*
X146208428Y-109374142D01*
X146508428Y-110274142D01*
X142608428Y-111302714D02*
X142908428Y-111302714D01*
X143037000Y-111774142D02*
X142608428Y-111774142D01*
X142608428Y-110874142D01*
X143037000Y-110874142D01*
X143294142Y-110874142D02*
X143594142Y-111774142D01*
X143894142Y-110874142D01*
X144494142Y-111302714D02*
X144622714Y-111345571D01*
X144665571Y-111388428D01*
X144708428Y-111474142D01*
X144708428Y-111602714D01*
X144665571Y-111688428D01*
X144622714Y-111731285D01*
X144537000Y-111774142D01*
X144194142Y-111774142D01*
X144194142Y-110874142D01*
X144494142Y-110874142D01*
X144579857Y-110917000D01*
X144622714Y-110959857D01*
X144665571Y-111045571D01*
X144665571Y-111131285D01*
X144622714Y-111217000D01*
X144579857Y-111259857D01*
X144494142Y-111302714D01*
X144194142Y-111302714D01*
D10*
X153943142Y-129593952D02*
X153943142Y-129193952D01*
X154095523Y-129193952D01*
X154133619Y-129213000D01*
X154152666Y-129232047D01*
X154171714Y-129270142D01*
X154171714Y-129327285D01*
X154152666Y-129365380D01*
X154133619Y-129384428D01*
X154095523Y-129403476D01*
X153943142Y-129403476D01*
X154343142Y-129593952D02*
X154343142Y-129193952D01*
X154476476Y-129479666D01*
X154609809Y-129193952D01*
X154609809Y-129593952D01*
X154876476Y-129193952D02*
X154952666Y-129193952D01*
X154990761Y-129213000D01*
X155028857Y-129251095D01*
X155047904Y-129327285D01*
X155047904Y-129460619D01*
X155028857Y-129536809D01*
X154990761Y-129574904D01*
X154952666Y-129593952D01*
X154876476Y-129593952D01*
X154838380Y-129574904D01*
X154800285Y-129536809D01*
X154781238Y-129460619D01*
X154781238Y-129327285D01*
X154800285Y-129251095D01*
X154838380Y-129213000D01*
X154876476Y-129193952D01*
X155219333Y-129593952D02*
X155219333Y-129193952D01*
X155314571Y-129193952D01*
X155371714Y-129213000D01*
X155409809Y-129251095D01*
X155428857Y-129289190D01*
X155447904Y-129365380D01*
X155447904Y-129422523D01*
X155428857Y-129498714D01*
X155409809Y-129536809D01*
X155371714Y-129574904D01*
X155314571Y-129593952D01*
X155219333Y-129593952D01*
D13*
G04 #@! TO.C,C29*
X146242721Y-122303000D02*
X146568279Y-122303000D01*
X146242721Y-121283000D02*
X146568279Y-121283000D01*
G04 #@! TO.C,J5*
X157115100Y-84364600D02*
X158445100Y-84364600D01*
X157115100Y-85694600D02*
X157115100Y-84364600D01*
X157115100Y-86964600D02*
X159775100Y-86964600D01*
X159775100Y-86964600D02*
X159775100Y-135284600D01*
X157115100Y-86964600D02*
X157115100Y-135284600D01*
X157115100Y-135284600D02*
X159775100Y-135284600D01*
G04 #@! TO.C,J4*
X137227000Y-84395000D02*
X138557000Y-84395000D01*
X137227000Y-85725000D02*
X137227000Y-84395000D01*
X137227000Y-86995000D02*
X139887000Y-86995000D01*
X139887000Y-86995000D02*
X139887000Y-135315000D01*
X137227000Y-86995000D02*
X137227000Y-135315000D01*
X137227000Y-135315000D02*
X139887000Y-135315000D01*
D12*
G04 #@! TO.C,IC1*
X154760549Y-115175494D02*
G75*
G03X154760549Y-115175494I-204782J0D01*
G01*
D13*
G04 #@! TO.C,R1*
X143063279Y-94232000D02*
X142737721Y-94232000D01*
X143063279Y-95252000D02*
X142737721Y-95252000D01*
G04 #@! TO.C,R12*
X145658721Y-98046000D02*
X145984279Y-98046000D01*
X145658721Y-97026000D02*
X145984279Y-97026000D01*
G04 #@! TO.C,R13*
X154476264Y-100410649D02*
X154476264Y-100085091D01*
X153456264Y-100410649D02*
X153456264Y-100085091D01*
G04 #@! TO.C,R17*
X142115000Y-83271479D02*
X142115000Y-82945921D01*
X141095000Y-83271479D02*
X141095000Y-82945921D01*
G04 #@! TO.C,R18*
X151509000Y-127573721D02*
X151509000Y-127899279D01*
X152529000Y-127573721D02*
X152529000Y-127899279D01*
G04 #@! TO.C,R19*
X149096000Y-127573721D02*
X149096000Y-127899279D01*
X150116000Y-127573721D02*
X150116000Y-127899279D01*
G04 #@! TO.C,R2*
X143063279Y-95629000D02*
X142737721Y-95629000D01*
X143063279Y-96649000D02*
X142737721Y-96649000D01*
G04 #@! TO.C,R20*
X146556000Y-127573721D02*
X146556000Y-127899279D01*
X147576000Y-127573721D02*
X147576000Y-127899279D01*
G04 #@! TO.C,R21*
X144016000Y-127497721D02*
X144016000Y-127823279D01*
X145036000Y-127497721D02*
X145036000Y-127823279D01*
G04 #@! TO.C,R4*
X154811000Y-88457721D02*
X154811000Y-88783279D01*
X155831000Y-88457721D02*
X155831000Y-88783279D01*
G04 #@! TO.C,R6*
X152952264Y-100436149D02*
X152952264Y-100110591D01*
X151932264Y-100436149D02*
X151932264Y-100110591D01*
G04 #@! TO.C,R8*
X141861000Y-115326279D02*
X141861000Y-115000721D01*
X140841000Y-115326279D02*
X140841000Y-115000721D01*
G04 #@! TO.C,C18*
X154811000Y-84901721D02*
X154811000Y-85227279D01*
X155831000Y-84901721D02*
X155831000Y-85227279D01*
G04 #@! TO.C,C27*
X145163000Y-107706279D02*
X145163000Y-107380721D01*
X144143000Y-107706279D02*
X144143000Y-107380721D01*
G04 #@! TO.C,C28*
X141222000Y-118429721D02*
X141222000Y-118755279D01*
X142242000Y-118429721D02*
X142242000Y-118755279D01*
G04 #@! TO.C,C4*
X152664279Y-88898000D02*
X152338721Y-88898000D01*
X152664279Y-89918000D02*
X152338721Y-89918000D01*
G04 #@! TO.C,C5*
X148461000Y-97220721D02*
X148461000Y-97546279D01*
X149481000Y-97220721D02*
X149481000Y-97546279D01*
G04 #@! TO.C,C9*
X152211721Y-94871000D02*
X152537279Y-94871000D01*
X152211721Y-93851000D02*
X152537279Y-93851000D01*
G04 #@! TO.C,J2*
X156143000Y-125053400D02*
X154813000Y-125053400D01*
X156143000Y-123723400D02*
X156143000Y-125053400D01*
X156143000Y-122453400D02*
X153483000Y-122453400D01*
X153483000Y-122453400D02*
X153483000Y-119853400D01*
X156143000Y-122453400D02*
X156143000Y-119853400D01*
X156143000Y-119853400D02*
X153483000Y-119853400D01*
D14*
G04 #@! TO.C,IC3*
G36*
X149828000Y-91167600D02*
X149078000Y-91167600D01*
X149078000Y-91917600D01*
X149828000Y-91917600D01*
X149828000Y-91167600D01*
G37*
D15*
X149873000Y-91117600D02*
X149873000Y-92717600D01*
X147033000Y-92717600D02*
X147033000Y-91117600D01*
D14*
G04 #@! TO.C,LED10*
G36*
X142367000Y-85549200D02*
X142367000Y-85799200D01*
X142617000Y-85799200D01*
X142617000Y-85549200D01*
X142367000Y-85549200D01*
G37*
G04 #@! TO.C,LED11*
G36*
X151894000Y-124599000D02*
X152144000Y-124599000D01*
X152144000Y-124349000D01*
X151894000Y-124349000D01*
X151894000Y-124599000D01*
G37*
G04 #@! TO.C,LED12*
G36*
X149481000Y-124599000D02*
X149731000Y-124599000D01*
X149731000Y-124349000D01*
X149481000Y-124349000D01*
X149481000Y-124599000D01*
G37*
G04 #@! TO.C,LED13*
G36*
X146941000Y-124599000D02*
X147191000Y-124599000D01*
X147191000Y-124349000D01*
X146941000Y-124349000D01*
X146941000Y-124599000D01*
G37*
G04 #@! TO.C,LED14*
G36*
X144401000Y-124599000D02*
X144651000Y-124599000D01*
X144651000Y-124349000D01*
X144401000Y-124349000D01*
X144401000Y-124599000D01*
G37*
G04 #@! TO.C,LED8*
G36*
X152317264Y-97357270D02*
X152567264Y-97357270D01*
X152567264Y-97107270D01*
X152317264Y-97107270D01*
X152317264Y-97357270D01*
G37*
G04 #@! TO.C,LED9*
G36*
X153841264Y-97357270D02*
X154091264Y-97357270D01*
X154091264Y-97107270D01*
X153841264Y-97107270D01*
X153841264Y-97357270D01*
G37*
D16*
G04 #@! TO.C,U$1*
X152823000Y-92484000D02*
X152823000Y-91544000D01*
X154423000Y-90584000D02*
X154423000Y-90564000D01*
X152823000Y-90584000D02*
X152823000Y-90564000D01*
X154423000Y-93464000D02*
X154423000Y-93444000D01*
X152823000Y-93464000D02*
X152823000Y-93444000D01*
X154423000Y-93464000D02*
X152823000Y-93464000D01*
X154423000Y-90564000D02*
X152823000Y-90564000D01*
D17*
G04 #@! TO.C,U2*
X142597200Y-99214000D02*
X142597200Y-99541000D01*
X142597200Y-104421000D02*
X142597200Y-104748000D01*
X148131200Y-104748000D02*
X148131200Y-104421000D01*
X148131200Y-99541000D02*
X148131200Y-99214000D01*
X148131200Y-99214000D02*
X142597200Y-99214000D01*
X142597200Y-104748000D02*
X148131200Y-104748000D01*
D18*
X143463200Y-98787000D02*
G75*
G03X143463200Y-98787000I-150000J0D01*
G01*
D13*
G04 #@! TO.C,R3*
X143063279Y-97026000D02*
X142737721Y-97026000D01*
X143063279Y-98046000D02*
X142737721Y-98046000D01*
G04 #@! TO.C,R10*
X145658721Y-95252000D02*
X145984279Y-95252000D01*
X145658721Y-94232000D02*
X145984279Y-94232000D01*
G04 #@! TO.C,R11*
X145658721Y-95629000D02*
X145984279Y-95629000D01*
X145658721Y-96649000D02*
X145984279Y-96649000D01*
D15*
G04 #@! TO.C,RESET1*
X144442000Y-90932000D02*
G75*
G03X144442000Y-90932000I-805000J0D01*
G01*
D17*
X144975000Y-92332000D02*
X142299000Y-92332000D01*
X142299000Y-89532000D02*
X144975000Y-89532000D01*
X141537000Y-90802000D02*
X141537000Y-91062000D01*
X145737000Y-91062000D02*
X145737000Y-90802000D01*
D15*
G04 #@! TO.C,J1*
X152463000Y-80436000D02*
X144463000Y-80436000D01*
X151383000Y-87036000D02*
X150233000Y-87036000D01*
X146753000Y-87036000D02*
X145533000Y-87036000D01*
X152463000Y-85276000D02*
X152463000Y-83946000D01*
X144463000Y-85266000D02*
X144463000Y-83936000D01*
X152463000Y-81686000D02*
X152463000Y-80436000D01*
X144463000Y-81736000D02*
X144463000Y-80436000D01*
D13*
G04 #@! TO.C,J3*
X140783000Y-130115000D02*
X140783000Y-135315000D01*
X153543000Y-130115000D02*
X140783000Y-130115000D01*
X156143000Y-135315000D02*
X140783000Y-135315000D01*
X153543000Y-130115000D02*
X153543000Y-132715000D01*
X153543000Y-132715000D02*
X156143000Y-132715000D01*
X156143000Y-132715000D02*
X156143000Y-135315000D01*
X154813000Y-130115000D02*
X156143000Y-130115000D01*
X156143000Y-130115000D02*
X156143000Y-131445000D01*
D19*
G04 #@! TO.C,G\002A\002A\002A*
G36*
X155166268Y-105749725D02*
X155162250Y-105784650D01*
X154993230Y-105788198D01*
X154824211Y-105791747D01*
X154828130Y-105838998D01*
X154832050Y-105886250D01*
X155162250Y-105898950D01*
X155166232Y-105933500D01*
X155170214Y-105968051D01*
X155001132Y-105971600D01*
X154832050Y-105975150D01*
X154827932Y-106018268D01*
X154829790Y-106053417D01*
X154840632Y-106072048D01*
X154859291Y-106076176D01*
X154897785Y-106079593D01*
X154950549Y-106081951D01*
X155012022Y-106082902D01*
X155013868Y-106082905D01*
X155170287Y-106083100D01*
X155166268Y-106118025D01*
X155162250Y-106152950D01*
X154968575Y-106156455D01*
X154774900Y-106159961D01*
X154774900Y-106121530D01*
X154778549Y-106094636D01*
X154787353Y-106083107D01*
X154787600Y-106083100D01*
X154799176Y-106074375D01*
X154797261Y-106054715D01*
X154783077Y-106033889D01*
X154781250Y-106032300D01*
X154766910Y-106008382D01*
X154762200Y-105981500D01*
X154768742Y-105949732D01*
X154781250Y-105930700D01*
X154797512Y-105906484D01*
X154800300Y-105892600D01*
X154791139Y-105865968D01*
X154781250Y-105854500D01*
X154765283Y-105826603D01*
X154764247Y-105789202D01*
X154777552Y-105752897D01*
X154787600Y-105740200D01*
X154799916Y-105730049D01*
X154816072Y-105723011D01*
X154840560Y-105718527D01*
X154877870Y-105716038D01*
X154932493Y-105714984D01*
X154991643Y-105714800D01*
X155170287Y-105714800D01*
X155166268Y-105749725D01*
X155166268Y-105749725D01*
G37*
X155166268Y-105749725D02*
X155162250Y-105784650D01*
X154993230Y-105788198D01*
X154824211Y-105791747D01*
X154828130Y-105838998D01*
X154832050Y-105886250D01*
X155162250Y-105898950D01*
X155166232Y-105933500D01*
X155170214Y-105968051D01*
X155001132Y-105971600D01*
X154832050Y-105975150D01*
X154827932Y-106018268D01*
X154829790Y-106053417D01*
X154840632Y-106072048D01*
X154859291Y-106076176D01*
X154897785Y-106079593D01*
X154950549Y-106081951D01*
X155012022Y-106082902D01*
X155013868Y-106082905D01*
X155170287Y-106083100D01*
X155166268Y-106118025D01*
X155162250Y-106152950D01*
X154968575Y-106156455D01*
X154774900Y-106159961D01*
X154774900Y-106121530D01*
X154778549Y-106094636D01*
X154787353Y-106083107D01*
X154787600Y-106083100D01*
X154799176Y-106074375D01*
X154797261Y-106054715D01*
X154783077Y-106033889D01*
X154781250Y-106032300D01*
X154766910Y-106008382D01*
X154762200Y-105981500D01*
X154768742Y-105949732D01*
X154781250Y-105930700D01*
X154797512Y-105906484D01*
X154800300Y-105892600D01*
X154791139Y-105865968D01*
X154781250Y-105854500D01*
X154765283Y-105826603D01*
X154764247Y-105789202D01*
X154777552Y-105752897D01*
X154787600Y-105740200D01*
X154799916Y-105730049D01*
X154816072Y-105723011D01*
X154840560Y-105718527D01*
X154877870Y-105716038D01*
X154932493Y-105714984D01*
X154991643Y-105714800D01*
X155170287Y-105714800D01*
X155166268Y-105749725D01*
G36*
X155076994Y-106280617D02*
X155122048Y-106295680D01*
X155150521Y-106320936D01*
X155165107Y-106357760D01*
X155168600Y-106399193D01*
X155161975Y-106456419D01*
X155140023Y-106495079D01*
X155099626Y-106518879D01*
X155059826Y-106528499D01*
X155001872Y-106536102D01*
X154952185Y-106536939D01*
X154896426Y-106530976D01*
X154877604Y-106528056D01*
X154823801Y-106508791D01*
X154785177Y-106474144D01*
X154763839Y-106429388D01*
X154762430Y-106393410D01*
X154840367Y-106393410D01*
X154845854Y-106419930D01*
X154858496Y-106434685D01*
X154883770Y-106443521D01*
X154925611Y-106449170D01*
X154975343Y-106451274D01*
X155024291Y-106449474D01*
X155063780Y-106443409D01*
X155064508Y-106443216D01*
X155086264Y-106430850D01*
X155090250Y-106405420D01*
X155089908Y-106402115D01*
X155086050Y-106368850D01*
X154965573Y-106368850D01*
X154909179Y-106369315D01*
X154873293Y-106371350D01*
X154853031Y-106375913D01*
X154843508Y-106383962D01*
X154840367Y-106393410D01*
X154762430Y-106393410D01*
X154761896Y-106379797D01*
X154781457Y-106330645D01*
X154792721Y-106315733D01*
X154810258Y-106297835D01*
X154829614Y-106286761D01*
X154857668Y-106280441D01*
X154901303Y-106276808D01*
X154926366Y-106275566D01*
X155012665Y-106274370D01*
X155076994Y-106280617D01*
X155076994Y-106280617D01*
G37*
X155076994Y-106280617D02*
X155122048Y-106295680D01*
X155150521Y-106320936D01*
X155165107Y-106357760D01*
X155168600Y-106399193D01*
X155161975Y-106456419D01*
X155140023Y-106495079D01*
X155099626Y-106518879D01*
X155059826Y-106528499D01*
X155001872Y-106536102D01*
X154952185Y-106536939D01*
X154896426Y-106530976D01*
X154877604Y-106528056D01*
X154823801Y-106508791D01*
X154785177Y-106474144D01*
X154763839Y-106429388D01*
X154762430Y-106393410D01*
X154840367Y-106393410D01*
X154845854Y-106419930D01*
X154858496Y-106434685D01*
X154883770Y-106443521D01*
X154925611Y-106449170D01*
X154975343Y-106451274D01*
X155024291Y-106449474D01*
X155063780Y-106443409D01*
X155064508Y-106443216D01*
X155086264Y-106430850D01*
X155090250Y-106405420D01*
X155089908Y-106402115D01*
X155086050Y-106368850D01*
X154965573Y-106368850D01*
X154909179Y-106369315D01*
X154873293Y-106371350D01*
X154853031Y-106375913D01*
X154843508Y-106383962D01*
X154840367Y-106393410D01*
X154762430Y-106393410D01*
X154761896Y-106379797D01*
X154781457Y-106330645D01*
X154792721Y-106315733D01*
X154810258Y-106297835D01*
X154829614Y-106286761D01*
X154857668Y-106280441D01*
X154901303Y-106276808D01*
X154926366Y-106275566D01*
X155012665Y-106274370D01*
X155076994Y-106280617D01*
G36*
X154893473Y-106628024D02*
X154901609Y-106652097D01*
X154901900Y-106660855D01*
X154895810Y-106684301D01*
X154872975Y-106694214D01*
X154866975Y-106695031D01*
X154841851Y-106702148D01*
X154832807Y-106721139D01*
X154832050Y-106737150D01*
X154832050Y-106775250D01*
X154960318Y-106778848D01*
X155021278Y-106779852D01*
X155061884Y-106778393D01*
X155087112Y-106773891D01*
X155101938Y-106765765D01*
X155105632Y-106761908D01*
X155115135Y-106735891D01*
X155102771Y-106712990D01*
X155072026Y-106697849D01*
X155055433Y-106695013D01*
X155027501Y-106689516D01*
X155017967Y-106676019D01*
X155018614Y-106656913D01*
X155024151Y-106634215D01*
X155038961Y-106625980D01*
X155067000Y-106626658D01*
X155113781Y-106641803D01*
X155147946Y-106674042D01*
X155166521Y-106716968D01*
X155166533Y-106764176D01*
X155149175Y-106803680D01*
X155118346Y-106828279D01*
X155068808Y-106845848D01*
X155006478Y-106855569D01*
X154937276Y-106856625D01*
X154867120Y-106848198D01*
X154851405Y-106844817D01*
X154803322Y-106822733D01*
X154772312Y-106785515D01*
X154762200Y-106741258D01*
X154771382Y-106689533D01*
X154800428Y-106652716D01*
X154833631Y-106634070D01*
X154871849Y-106622422D01*
X154893473Y-106628024D01*
X154893473Y-106628024D01*
G37*
X154893473Y-106628024D02*
X154901609Y-106652097D01*
X154901900Y-106660855D01*
X154895810Y-106684301D01*
X154872975Y-106694214D01*
X154866975Y-106695031D01*
X154841851Y-106702148D01*
X154832807Y-106721139D01*
X154832050Y-106737150D01*
X154832050Y-106775250D01*
X154960318Y-106778848D01*
X155021278Y-106779852D01*
X155061884Y-106778393D01*
X155087112Y-106773891D01*
X155101938Y-106765765D01*
X155105632Y-106761908D01*
X155115135Y-106735891D01*
X155102771Y-106712990D01*
X155072026Y-106697849D01*
X155055433Y-106695013D01*
X155027501Y-106689516D01*
X155017967Y-106676019D01*
X155018614Y-106656913D01*
X155024151Y-106634215D01*
X155038961Y-106625980D01*
X155067000Y-106626658D01*
X155113781Y-106641803D01*
X155147946Y-106674042D01*
X155166521Y-106716968D01*
X155166533Y-106764176D01*
X155149175Y-106803680D01*
X155118346Y-106828279D01*
X155068808Y-106845848D01*
X155006478Y-106855569D01*
X154937276Y-106856625D01*
X154867120Y-106848198D01*
X154851405Y-106844817D01*
X154803322Y-106822733D01*
X154772312Y-106785515D01*
X154762200Y-106741258D01*
X154771382Y-106689533D01*
X154800428Y-106652716D01*
X154833631Y-106634070D01*
X154871849Y-106622422D01*
X154893473Y-106628024D01*
G36*
X150850600Y-107188000D02*
X150520400Y-107188000D01*
X150520400Y-105232200D01*
X150850600Y-105232200D01*
X150850600Y-107188000D01*
X150850600Y-107188000D01*
G37*
X150850600Y-107188000D02*
X150520400Y-107188000D01*
X150520400Y-105232200D01*
X150850600Y-105232200D01*
X150850600Y-107188000D01*
G36*
X147840700Y-105480033D02*
X147783246Y-105475463D01*
X147742508Y-105474447D01*
X147715348Y-105481737D01*
X147699074Y-105501283D01*
X147690991Y-105537037D01*
X147688406Y-105592951D01*
X147688300Y-105614755D01*
X147688300Y-105727500D01*
X147840700Y-105727500D01*
X147840700Y-105956100D01*
X147688300Y-105956100D01*
X147688300Y-107188000D01*
X147358100Y-107188000D01*
X147358100Y-105956100D01*
X147231100Y-105956100D01*
X147231100Y-105727500D01*
X147354557Y-105727500D01*
X147360882Y-105584167D01*
X147370301Y-105478577D01*
X147389682Y-105395022D01*
X147421246Y-105331347D01*
X147467213Y-105285394D01*
X147529804Y-105255007D01*
X147611238Y-105238030D01*
X147713735Y-105232307D01*
X147723225Y-105232270D01*
X147840700Y-105232200D01*
X147840700Y-105480033D01*
X147840700Y-105480033D01*
G37*
X147840700Y-105480033D02*
X147783246Y-105475463D01*
X147742508Y-105474447D01*
X147715348Y-105481737D01*
X147699074Y-105501283D01*
X147690991Y-105537037D01*
X147688406Y-105592951D01*
X147688300Y-105614755D01*
X147688300Y-105727500D01*
X147840700Y-105727500D01*
X147840700Y-105956100D01*
X147688300Y-105956100D01*
X147688300Y-107188000D01*
X147358100Y-107188000D01*
X147358100Y-105956100D01*
X147231100Y-105956100D01*
X147231100Y-105727500D01*
X147354557Y-105727500D01*
X147360882Y-105584167D01*
X147370301Y-105478577D01*
X147389682Y-105395022D01*
X147421246Y-105331347D01*
X147467213Y-105285394D01*
X147529804Y-105255007D01*
X147611238Y-105238030D01*
X147713735Y-105232307D01*
X147723225Y-105232270D01*
X147840700Y-105232200D01*
X147840700Y-105480033D01*
G36*
X154174916Y-105701105D02*
X154269796Y-105732526D01*
X154349610Y-105782211D01*
X154369951Y-105799936D01*
X154431606Y-105874601D01*
X154472361Y-105963665D01*
X154492172Y-106067033D01*
X154492685Y-106073575D01*
X154498912Y-106159300D01*
X154340092Y-106159300D01*
X154181272Y-106159299D01*
X154172585Y-106093813D01*
X154163907Y-106048152D01*
X154151862Y-106007408D01*
X154145935Y-105993590D01*
X154115522Y-105960253D01*
X154069603Y-105939182D01*
X154015178Y-105930869D01*
X153959247Y-105935807D01*
X153908810Y-105954488D01*
X153881520Y-105974993D01*
X153867538Y-106003158D01*
X153860918Y-106045846D01*
X153861754Y-106093244D01*
X153870141Y-106135537D01*
X153879775Y-106155767D01*
X153896124Y-106171410D01*
X153929963Y-106198309D01*
X153977591Y-106233714D01*
X154035309Y-106274875D01*
X154098850Y-106318657D01*
X154207611Y-106394276D01*
X154295784Y-106460501D01*
X154365303Y-106519680D01*
X154418102Y-106574162D01*
X154456115Y-106626297D01*
X154481277Y-106678433D01*
X154495521Y-106732920D01*
X154500781Y-106792106D01*
X154500922Y-106807000D01*
X154490438Y-106915028D01*
X154459946Y-107008038D01*
X154409835Y-107085419D01*
X154340489Y-107146560D01*
X154259799Y-107188034D01*
X154191058Y-107207117D01*
X154107311Y-107219204D01*
X154017167Y-107224026D01*
X153929237Y-107221312D01*
X153852128Y-107210791D01*
X153818335Y-107201874D01*
X153719798Y-107158229D01*
X153641038Y-107098715D01*
X153581908Y-107023139D01*
X153542262Y-106931310D01*
X153521955Y-106823038D01*
X153521058Y-106812299D01*
X153513933Y-106718100D01*
X153847800Y-106718100D01*
X153847800Y-106794707D01*
X153853933Y-106868348D01*
X153871625Y-106924958D01*
X153899811Y-106961842D01*
X153917862Y-106972180D01*
X153970232Y-106983544D01*
X154027362Y-106982559D01*
X154081781Y-106970790D01*
X154126022Y-106949802D01*
X154151577Y-106923210D01*
X154162455Y-106884553D01*
X154164592Y-106833955D01*
X154158440Y-106783152D01*
X154144681Y-106744263D01*
X154126208Y-106723563D01*
X154091381Y-106693354D01*
X154045273Y-106657770D01*
X153995456Y-106622628D01*
X153888213Y-106548979D01*
X153800661Y-106485460D01*
X153730379Y-106429699D01*
X153674950Y-106379322D01*
X153631953Y-106331954D01*
X153598971Y-106285223D01*
X153573585Y-106236754D01*
X153555720Y-106191110D01*
X153531965Y-106090665D01*
X153531670Y-105998401D01*
X153553845Y-105915619D01*
X153597501Y-105843621D01*
X153661647Y-105783710D01*
X153745293Y-105737186D01*
X153847449Y-105705353D01*
X153935391Y-105691922D01*
X154063828Y-105687665D01*
X154174916Y-105701105D01*
X154174916Y-105701105D01*
G37*
X154174916Y-105701105D02*
X154269796Y-105732526D01*
X154349610Y-105782211D01*
X154369951Y-105799936D01*
X154431606Y-105874601D01*
X154472361Y-105963665D01*
X154492172Y-106067033D01*
X154492685Y-106073575D01*
X154498912Y-106159300D01*
X154340092Y-106159300D01*
X154181272Y-106159299D01*
X154172585Y-106093813D01*
X154163907Y-106048152D01*
X154151862Y-106007408D01*
X154145935Y-105993590D01*
X154115522Y-105960253D01*
X154069603Y-105939182D01*
X154015178Y-105930869D01*
X153959247Y-105935807D01*
X153908810Y-105954488D01*
X153881520Y-105974993D01*
X153867538Y-106003158D01*
X153860918Y-106045846D01*
X153861754Y-106093244D01*
X153870141Y-106135537D01*
X153879775Y-106155767D01*
X153896124Y-106171410D01*
X153929963Y-106198309D01*
X153977591Y-106233714D01*
X154035309Y-106274875D01*
X154098850Y-106318657D01*
X154207611Y-106394276D01*
X154295784Y-106460501D01*
X154365303Y-106519680D01*
X154418102Y-106574162D01*
X154456115Y-106626297D01*
X154481277Y-106678433D01*
X154495521Y-106732920D01*
X154500781Y-106792106D01*
X154500922Y-106807000D01*
X154490438Y-106915028D01*
X154459946Y-107008038D01*
X154409835Y-107085419D01*
X154340489Y-107146560D01*
X154259799Y-107188034D01*
X154191058Y-107207117D01*
X154107311Y-107219204D01*
X154017167Y-107224026D01*
X153929237Y-107221312D01*
X153852128Y-107210791D01*
X153818335Y-107201874D01*
X153719798Y-107158229D01*
X153641038Y-107098715D01*
X153581908Y-107023139D01*
X153542262Y-106931310D01*
X153521955Y-106823038D01*
X153521058Y-106812299D01*
X153513933Y-106718100D01*
X153847800Y-106718100D01*
X153847800Y-106794707D01*
X153853933Y-106868348D01*
X153871625Y-106924958D01*
X153899811Y-106961842D01*
X153917862Y-106972180D01*
X153970232Y-106983544D01*
X154027362Y-106982559D01*
X154081781Y-106970790D01*
X154126022Y-106949802D01*
X154151577Y-106923210D01*
X154162455Y-106884553D01*
X154164592Y-106833955D01*
X154158440Y-106783152D01*
X154144681Y-106744263D01*
X154126208Y-106723563D01*
X154091381Y-106693354D01*
X154045273Y-106657770D01*
X153995456Y-106622628D01*
X153888213Y-106548979D01*
X153800661Y-106485460D01*
X153730379Y-106429699D01*
X153674950Y-106379322D01*
X153631953Y-106331954D01*
X153598971Y-106285223D01*
X153573585Y-106236754D01*
X153555720Y-106191110D01*
X153531965Y-106090665D01*
X153531670Y-105998401D01*
X153553845Y-105915619D01*
X153597501Y-105843621D01*
X153661647Y-105783710D01*
X153745293Y-105737186D01*
X153847449Y-105705353D01*
X153935391Y-105691922D01*
X154063828Y-105687665D01*
X154174916Y-105701105D01*
G36*
X153006516Y-105701105D02*
X153101396Y-105732526D01*
X153181210Y-105782211D01*
X153201551Y-105799936D01*
X153263206Y-105874601D01*
X153303961Y-105963665D01*
X153323772Y-106067033D01*
X153324285Y-106073575D01*
X153330512Y-106159300D01*
X153171692Y-106159300D01*
X153012872Y-106159299D01*
X153004185Y-106093813D01*
X152995507Y-106048152D01*
X152983462Y-106007408D01*
X152977535Y-105993590D01*
X152947122Y-105960253D01*
X152901203Y-105939182D01*
X152846778Y-105930869D01*
X152790847Y-105935807D01*
X152740410Y-105954488D01*
X152713120Y-105974993D01*
X152699138Y-106003158D01*
X152692518Y-106045846D01*
X152693354Y-106093244D01*
X152701741Y-106135537D01*
X152711375Y-106155767D01*
X152727724Y-106171410D01*
X152761563Y-106198309D01*
X152809191Y-106233714D01*
X152866909Y-106274875D01*
X152930450Y-106318657D01*
X153039211Y-106394276D01*
X153127384Y-106460501D01*
X153196903Y-106519680D01*
X153249702Y-106574162D01*
X153287715Y-106626297D01*
X153312877Y-106678433D01*
X153327121Y-106732920D01*
X153332381Y-106792106D01*
X153332522Y-106807000D01*
X153322038Y-106915028D01*
X153291546Y-107008038D01*
X153241435Y-107085419D01*
X153172089Y-107146560D01*
X153091399Y-107188034D01*
X153022658Y-107207117D01*
X152938911Y-107219204D01*
X152848767Y-107224026D01*
X152760837Y-107221312D01*
X152683728Y-107210791D01*
X152649935Y-107201874D01*
X152551398Y-107158229D01*
X152472638Y-107098715D01*
X152413508Y-107023139D01*
X152373862Y-106931310D01*
X152353555Y-106823038D01*
X152352658Y-106812299D01*
X152345533Y-106718100D01*
X152679400Y-106718100D01*
X152679400Y-106794707D01*
X152685533Y-106868348D01*
X152703225Y-106924958D01*
X152731411Y-106961842D01*
X152749462Y-106972180D01*
X152801832Y-106983544D01*
X152858962Y-106982559D01*
X152913381Y-106970790D01*
X152957622Y-106949802D01*
X152983177Y-106923210D01*
X152994055Y-106884553D01*
X152996192Y-106833955D01*
X152990040Y-106783152D01*
X152976281Y-106744263D01*
X152957808Y-106723563D01*
X152922981Y-106693354D01*
X152876873Y-106657770D01*
X152827056Y-106622628D01*
X152719813Y-106548979D01*
X152632261Y-106485460D01*
X152561979Y-106429699D01*
X152506550Y-106379322D01*
X152463553Y-106331954D01*
X152430571Y-106285223D01*
X152405185Y-106236754D01*
X152387320Y-106191110D01*
X152363565Y-106090665D01*
X152363270Y-105998401D01*
X152385445Y-105915619D01*
X152429101Y-105843621D01*
X152493247Y-105783710D01*
X152576893Y-105737186D01*
X152679049Y-105705353D01*
X152766991Y-105691922D01*
X152895428Y-105687665D01*
X153006516Y-105701105D01*
X153006516Y-105701105D01*
G37*
X153006516Y-105701105D02*
X153101396Y-105732526D01*
X153181210Y-105782211D01*
X153201551Y-105799936D01*
X153263206Y-105874601D01*
X153303961Y-105963665D01*
X153323772Y-106067033D01*
X153324285Y-106073575D01*
X153330512Y-106159300D01*
X153171692Y-106159300D01*
X153012872Y-106159299D01*
X153004185Y-106093813D01*
X152995507Y-106048152D01*
X152983462Y-106007408D01*
X152977535Y-105993590D01*
X152947122Y-105960253D01*
X152901203Y-105939182D01*
X152846778Y-105930869D01*
X152790847Y-105935807D01*
X152740410Y-105954488D01*
X152713120Y-105974993D01*
X152699138Y-106003158D01*
X152692518Y-106045846D01*
X152693354Y-106093244D01*
X152701741Y-106135537D01*
X152711375Y-106155767D01*
X152727724Y-106171410D01*
X152761563Y-106198309D01*
X152809191Y-106233714D01*
X152866909Y-106274875D01*
X152930450Y-106318657D01*
X153039211Y-106394276D01*
X153127384Y-106460501D01*
X153196903Y-106519680D01*
X153249702Y-106574162D01*
X153287715Y-106626297D01*
X153312877Y-106678433D01*
X153327121Y-106732920D01*
X153332381Y-106792106D01*
X153332522Y-106807000D01*
X153322038Y-106915028D01*
X153291546Y-107008038D01*
X153241435Y-107085419D01*
X153172089Y-107146560D01*
X153091399Y-107188034D01*
X153022658Y-107207117D01*
X152938911Y-107219204D01*
X152848767Y-107224026D01*
X152760837Y-107221312D01*
X152683728Y-107210791D01*
X152649935Y-107201874D01*
X152551398Y-107158229D01*
X152472638Y-107098715D01*
X152413508Y-107023139D01*
X152373862Y-106931310D01*
X152353555Y-106823038D01*
X152352658Y-106812299D01*
X152345533Y-106718100D01*
X152679400Y-106718100D01*
X152679400Y-106794707D01*
X152685533Y-106868348D01*
X152703225Y-106924958D01*
X152731411Y-106961842D01*
X152749462Y-106972180D01*
X152801832Y-106983544D01*
X152858962Y-106982559D01*
X152913381Y-106970790D01*
X152957622Y-106949802D01*
X152983177Y-106923210D01*
X152994055Y-106884553D01*
X152996192Y-106833955D01*
X152990040Y-106783152D01*
X152976281Y-106744263D01*
X152957808Y-106723563D01*
X152922981Y-106693354D01*
X152876873Y-106657770D01*
X152827056Y-106622628D01*
X152719813Y-106548979D01*
X152632261Y-106485460D01*
X152561979Y-106429699D01*
X152506550Y-106379322D01*
X152463553Y-106331954D01*
X152430571Y-106285223D01*
X152405185Y-106236754D01*
X152387320Y-106191110D01*
X152363565Y-106090665D01*
X152363270Y-105998401D01*
X152385445Y-105915619D01*
X152429101Y-105843621D01*
X152493247Y-105783710D01*
X152576893Y-105737186D01*
X152679049Y-105705353D01*
X152766991Y-105691922D01*
X152895428Y-105687665D01*
X153006516Y-105701105D01*
G36*
X151667383Y-105689655D02*
X151684485Y-105691059D01*
X151778109Y-105704239D01*
X151853535Y-105726485D01*
X151917117Y-105760364D01*
X151975211Y-105808446D01*
X151975332Y-105808564D01*
X152012837Y-105848975D01*
X152042234Y-105890985D01*
X152064570Y-105938427D01*
X152080889Y-105995132D01*
X152092239Y-106064933D01*
X152099665Y-106151662D01*
X152104214Y-106259151D01*
X152104861Y-106283125D01*
X152110684Y-106514900D01*
X151418844Y-106514900D01*
X151424609Y-106689525D01*
X151428075Y-106768726D01*
X151432825Y-106826921D01*
X151439424Y-106868492D01*
X151448436Y-106897822D01*
X151452481Y-106906425D01*
X151488336Y-106948763D01*
X151541175Y-106974765D01*
X151607307Y-106982856D01*
X151628526Y-106981620D01*
X151688844Y-106966254D01*
X151733113Y-106932736D01*
X151761953Y-106880173D01*
X151775978Y-106807672D01*
X151777629Y-106765725D01*
X151777700Y-106705400D01*
X152111583Y-106705400D01*
X152104038Y-106791125D01*
X152084115Y-106909304D01*
X152046927Y-107009727D01*
X151992836Y-107091877D01*
X151922204Y-107155240D01*
X151835395Y-107199299D01*
X151811416Y-107207175D01*
X151755364Y-107218015D01*
X151683188Y-107223788D01*
X151603648Y-107224524D01*
X151525502Y-107220255D01*
X151457511Y-107211011D01*
X151434800Y-107205843D01*
X151338957Y-107169597D01*
X151259910Y-107115892D01*
X151197043Y-107043911D01*
X151149743Y-106952838D01*
X151117396Y-106841855D01*
X151105105Y-106766933D01*
X151100004Y-106710382D01*
X151096207Y-106636146D01*
X151093713Y-106549677D01*
X151092519Y-106456431D01*
X151092623Y-106361861D01*
X151093990Y-106273600D01*
X151418639Y-106273600D01*
X151777700Y-106273600D01*
X151777700Y-106152319D01*
X151775446Y-106076393D01*
X151767605Y-106021613D01*
X151752553Y-105984038D01*
X151728666Y-105959726D01*
X151694322Y-105944734D01*
X151691954Y-105944062D01*
X151617673Y-105931236D01*
X151551203Y-105934761D01*
X151496783Y-105953672D01*
X151458653Y-105987008D01*
X151451531Y-105998682D01*
X151439457Y-106035752D01*
X151430103Y-106092435D01*
X151424787Y-106156055D01*
X151418639Y-106273600D01*
X151093990Y-106273600D01*
X151094024Y-106271421D01*
X151096719Y-106190566D01*
X151100706Y-106124749D01*
X151105362Y-106083100D01*
X151133858Y-105972850D01*
X151180727Y-105879865D01*
X151245304Y-105804593D01*
X151326924Y-105747485D01*
X151424921Y-105708992D01*
X151538629Y-105689565D01*
X151667383Y-105689655D01*
X151667383Y-105689655D01*
G37*
X151667383Y-105689655D02*
X151684485Y-105691059D01*
X151778109Y-105704239D01*
X151853535Y-105726485D01*
X151917117Y-105760364D01*
X151975211Y-105808446D01*
X151975332Y-105808564D01*
X152012837Y-105848975D01*
X152042234Y-105890985D01*
X152064570Y-105938427D01*
X152080889Y-105995132D01*
X152092239Y-106064933D01*
X152099665Y-106151662D01*
X152104214Y-106259151D01*
X152104861Y-106283125D01*
X152110684Y-106514900D01*
X151418844Y-106514900D01*
X151424609Y-106689525D01*
X151428075Y-106768726D01*
X151432825Y-106826921D01*
X151439424Y-106868492D01*
X151448436Y-106897822D01*
X151452481Y-106906425D01*
X151488336Y-106948763D01*
X151541175Y-106974765D01*
X151607307Y-106982856D01*
X151628526Y-106981620D01*
X151688844Y-106966254D01*
X151733113Y-106932736D01*
X151761953Y-106880173D01*
X151775978Y-106807672D01*
X151777629Y-106765725D01*
X151777700Y-106705400D01*
X152111583Y-106705400D01*
X152104038Y-106791125D01*
X152084115Y-106909304D01*
X152046927Y-107009727D01*
X151992836Y-107091877D01*
X151922204Y-107155240D01*
X151835395Y-107199299D01*
X151811416Y-107207175D01*
X151755364Y-107218015D01*
X151683188Y-107223788D01*
X151603648Y-107224524D01*
X151525502Y-107220255D01*
X151457511Y-107211011D01*
X151434800Y-107205843D01*
X151338957Y-107169597D01*
X151259910Y-107115892D01*
X151197043Y-107043911D01*
X151149743Y-106952838D01*
X151117396Y-106841855D01*
X151105105Y-106766933D01*
X151100004Y-106710382D01*
X151096207Y-106636146D01*
X151093713Y-106549677D01*
X151092519Y-106456431D01*
X151092623Y-106361861D01*
X151093990Y-106273600D01*
X151418639Y-106273600D01*
X151777700Y-106273600D01*
X151777700Y-106152319D01*
X151775446Y-106076393D01*
X151767605Y-106021613D01*
X151752553Y-105984038D01*
X151728666Y-105959726D01*
X151694322Y-105944734D01*
X151691954Y-105944062D01*
X151617673Y-105931236D01*
X151551203Y-105934761D01*
X151496783Y-105953672D01*
X151458653Y-105987008D01*
X151451531Y-105998682D01*
X151439457Y-106035752D01*
X151430103Y-106092435D01*
X151424787Y-106156055D01*
X151418639Y-106273600D01*
X151093990Y-106273600D01*
X151094024Y-106271421D01*
X151096719Y-106190566D01*
X151100706Y-106124749D01*
X151105362Y-106083100D01*
X151133858Y-105972850D01*
X151180727Y-105879865D01*
X151245304Y-105804593D01*
X151326924Y-105747485D01*
X151424921Y-105708992D01*
X151538629Y-105689565D01*
X151667383Y-105689655D01*
G36*
X149616827Y-105543352D02*
X149615779Y-105651759D01*
X149616057Y-105737743D01*
X149617643Y-105800583D01*
X149620518Y-105839556D01*
X149624661Y-105853940D01*
X149625050Y-105854007D01*
X149639109Y-105844254D01*
X149661612Y-105819734D01*
X149678314Y-105798331D01*
X149728922Y-105744036D01*
X149788366Y-105709449D01*
X149860841Y-105692809D01*
X149933425Y-105691344D01*
X150020580Y-105702787D01*
X150092551Y-105729267D01*
X150150676Y-105772412D01*
X150196289Y-105833848D01*
X150230726Y-105915202D01*
X150255324Y-106018101D01*
X150266636Y-106097021D01*
X150271548Y-106156756D01*
X150275165Y-106235433D01*
X150277493Y-106327368D01*
X150278537Y-106426878D01*
X150278304Y-106528279D01*
X150276800Y-106625886D01*
X150274029Y-106714015D01*
X150269998Y-106786983D01*
X150265894Y-106830433D01*
X150242913Y-106948967D01*
X150206388Y-107047437D01*
X150156660Y-107125237D01*
X150094072Y-107181758D01*
X150056850Y-107202406D01*
X150000434Y-107218579D01*
X149931710Y-107224542D01*
X149861705Y-107220111D01*
X149805441Y-107206617D01*
X149731421Y-107167440D01*
X149670374Y-107107929D01*
X149658411Y-107091965D01*
X149630500Y-107058496D01*
X149610805Y-107048843D01*
X149598703Y-107063255D01*
X149593572Y-107101984D01*
X149593300Y-107118150D01*
X149593300Y-107188000D01*
X149288500Y-107188000D01*
X149288500Y-106446729D01*
X149618700Y-106446729D01*
X149619185Y-106565141D01*
X149620896Y-106661101D01*
X149624213Y-106737541D01*
X149629517Y-106797396D01*
X149637189Y-106843600D01*
X149647611Y-106879086D01*
X149661162Y-106906787D01*
X149678224Y-106929637D01*
X149681937Y-106933718D01*
X149708506Y-106957758D01*
X149736298Y-106969074D01*
X149776766Y-106972085D01*
X149781416Y-106972100D01*
X149822666Y-106969878D01*
X149849496Y-106960326D01*
X149872707Y-106939112D01*
X149877432Y-106933605D01*
X149903218Y-106894309D01*
X149922064Y-106850888D01*
X149922941Y-106847880D01*
X149926909Y-106820297D01*
X149930158Y-106771527D01*
X149932686Y-106705773D01*
X149934495Y-106627236D01*
X149935586Y-106540121D01*
X149935959Y-106448628D01*
X149935615Y-106356962D01*
X149934555Y-106269323D01*
X149932778Y-106189916D01*
X149930287Y-106122943D01*
X149927082Y-106072606D01*
X149923162Y-106043108D01*
X149922809Y-106041742D01*
X149900696Y-105989854D01*
X149866742Y-105958490D01*
X149816918Y-105944681D01*
X149789467Y-105943400D01*
X149729027Y-105950700D01*
X149685165Y-105974598D01*
X149654020Y-106018084D01*
X149638034Y-106060702D01*
X149631603Y-106088217D01*
X149626671Y-106124178D01*
X149623079Y-106171811D01*
X149620664Y-106234341D01*
X149619265Y-106314992D01*
X149618721Y-106416990D01*
X149618700Y-106446729D01*
X149288500Y-106446729D01*
X149288500Y-105232200D01*
X149621305Y-105232200D01*
X149616827Y-105543352D01*
X149616827Y-105543352D01*
G37*
X149616827Y-105543352D02*
X149615779Y-105651759D01*
X149616057Y-105737743D01*
X149617643Y-105800583D01*
X149620518Y-105839556D01*
X149624661Y-105853940D01*
X149625050Y-105854007D01*
X149639109Y-105844254D01*
X149661612Y-105819734D01*
X149678314Y-105798331D01*
X149728922Y-105744036D01*
X149788366Y-105709449D01*
X149860841Y-105692809D01*
X149933425Y-105691344D01*
X150020580Y-105702787D01*
X150092551Y-105729267D01*
X150150676Y-105772412D01*
X150196289Y-105833848D01*
X150230726Y-105915202D01*
X150255324Y-106018101D01*
X150266636Y-106097021D01*
X150271548Y-106156756D01*
X150275165Y-106235433D01*
X150277493Y-106327368D01*
X150278537Y-106426878D01*
X150278304Y-106528279D01*
X150276800Y-106625886D01*
X150274029Y-106714015D01*
X150269998Y-106786983D01*
X150265894Y-106830433D01*
X150242913Y-106948967D01*
X150206388Y-107047437D01*
X150156660Y-107125237D01*
X150094072Y-107181758D01*
X150056850Y-107202406D01*
X150000434Y-107218579D01*
X149931710Y-107224542D01*
X149861705Y-107220111D01*
X149805441Y-107206617D01*
X149731421Y-107167440D01*
X149670374Y-107107929D01*
X149658411Y-107091965D01*
X149630500Y-107058496D01*
X149610805Y-107048843D01*
X149598703Y-107063255D01*
X149593572Y-107101984D01*
X149593300Y-107118150D01*
X149593300Y-107188000D01*
X149288500Y-107188000D01*
X149288500Y-106446729D01*
X149618700Y-106446729D01*
X149619185Y-106565141D01*
X149620896Y-106661101D01*
X149624213Y-106737541D01*
X149629517Y-106797396D01*
X149637189Y-106843600D01*
X149647611Y-106879086D01*
X149661162Y-106906787D01*
X149678224Y-106929637D01*
X149681937Y-106933718D01*
X149708506Y-106957758D01*
X149736298Y-106969074D01*
X149776766Y-106972085D01*
X149781416Y-106972100D01*
X149822666Y-106969878D01*
X149849496Y-106960326D01*
X149872707Y-106939112D01*
X149877432Y-106933605D01*
X149903218Y-106894309D01*
X149922064Y-106850888D01*
X149922941Y-106847880D01*
X149926909Y-106820297D01*
X149930158Y-106771527D01*
X149932686Y-106705773D01*
X149934495Y-106627236D01*
X149935586Y-106540121D01*
X149935959Y-106448628D01*
X149935615Y-106356962D01*
X149934555Y-106269323D01*
X149932778Y-106189916D01*
X149930287Y-106122943D01*
X149927082Y-106072606D01*
X149923162Y-106043108D01*
X149922809Y-106041742D01*
X149900696Y-105989854D01*
X149866742Y-105958490D01*
X149816918Y-105944681D01*
X149789467Y-105943400D01*
X149729027Y-105950700D01*
X149685165Y-105974598D01*
X149654020Y-106018084D01*
X149638034Y-106060702D01*
X149631603Y-106088217D01*
X149626671Y-106124178D01*
X149623079Y-106171811D01*
X149620664Y-106234341D01*
X149619265Y-106314992D01*
X149618721Y-106416990D01*
X149618700Y-106446729D01*
X149288500Y-106446729D01*
X149288500Y-105232200D01*
X149621305Y-105232200D01*
X149616827Y-105543352D01*
G36*
X148694202Y-105700378D02*
X148794632Y-105729412D01*
X148877101Y-105773855D01*
X148940484Y-105833298D01*
X148972620Y-105883077D01*
X148980966Y-105900410D01*
X148987975Y-105918441D01*
X148993784Y-105939492D01*
X148998527Y-105965880D01*
X149002341Y-105999925D01*
X149005360Y-106043947D01*
X149007722Y-106100266D01*
X149009560Y-106171200D01*
X149011011Y-106259070D01*
X149012210Y-106366195D01*
X149013293Y-106494894D01*
X149013998Y-106591100D01*
X149015041Y-106706731D01*
X149016444Y-106815216D01*
X149018139Y-106913759D01*
X149020059Y-106999565D01*
X149022137Y-107069839D01*
X149024307Y-107121786D01*
X149026500Y-107152609D01*
X149027649Y-107159425D01*
X149037462Y-107188000D01*
X148884939Y-107188000D01*
X148816973Y-107187707D01*
X148770374Y-107185390D01*
X148741111Y-107178889D01*
X148725152Y-107166045D01*
X148718464Y-107144698D01*
X148717015Y-107112689D01*
X148717000Y-107098061D01*
X148713734Y-107065672D01*
X148705385Y-107049089D01*
X148702726Y-107048300D01*
X148687309Y-107057194D01*
X148661812Y-107080279D01*
X148637617Y-107106051D01*
X148569951Y-107168450D01*
X148496160Y-107207227D01*
X148412632Y-107224036D01*
X148377697Y-107225008D01*
X148328327Y-107223025D01*
X148285048Y-107218939D01*
X148259717Y-107214233D01*
X148175750Y-107176764D01*
X148109112Y-107120781D01*
X148059882Y-107046418D01*
X148028142Y-106953810D01*
X148013972Y-106843090D01*
X148013160Y-106807000D01*
X148016135Y-106760392D01*
X148341654Y-106760392D01*
X148344506Y-106825341D01*
X148357524Y-106884192D01*
X148380089Y-106929924D01*
X148395890Y-106946586D01*
X148433486Y-106963787D01*
X148484403Y-106972061D01*
X148538080Y-106971115D01*
X148583958Y-106960653D01*
X148599946Y-106952279D01*
X148624002Y-106932573D01*
X148642220Y-106909152D01*
X148655500Y-106878250D01*
X148664740Y-106836101D01*
X148670839Y-106778939D01*
X148674696Y-106702998D01*
X148676672Y-106630831D01*
X148678140Y-106549894D01*
X148678377Y-106491332D01*
X148677205Y-106452142D01*
X148674449Y-106429320D01*
X148669932Y-106419862D01*
X148664310Y-106420240D01*
X148615587Y-106450437D01*
X148561386Y-106486798D01*
X148506279Y-106525914D01*
X148454844Y-106564377D01*
X148411654Y-106598779D01*
X148381285Y-106625711D01*
X148368919Y-106640282D01*
X148349586Y-106696366D01*
X148341654Y-106760392D01*
X148016135Y-106760392D01*
X148019286Y-106711051D01*
X148039170Y-106627574D01*
X148074707Y-106554300D01*
X148127791Y-106488961D01*
X148200317Y-106429289D01*
X148294179Y-106373017D01*
X148411272Y-106317878D01*
X148427529Y-106310997D01*
X148514178Y-106273142D01*
X148579524Y-106240762D01*
X148626611Y-106212094D01*
X148658483Y-106185375D01*
X148671459Y-106169703D01*
X148683751Y-106137703D01*
X148690447Y-106091462D01*
X148691111Y-106041609D01*
X148685306Y-105998774D01*
X148679168Y-105982000D01*
X148651995Y-105955923D01*
X148607738Y-105939128D01*
X148552923Y-105931541D01*
X148494080Y-105933087D01*
X148437737Y-105943690D01*
X148390421Y-105963275D01*
X148363216Y-105985645D01*
X148351817Y-106009828D01*
X148341773Y-106048581D01*
X148337816Y-106073337D01*
X148329650Y-106140250D01*
X148172223Y-106143830D01*
X148014796Y-106147411D01*
X148022659Y-106072189D01*
X148043470Y-105965525D01*
X148081983Y-105876683D01*
X148138598Y-105805303D01*
X148213712Y-105751022D01*
X148307723Y-105713480D01*
X148421032Y-105692315D01*
X148443950Y-105690181D01*
X148576933Y-105687165D01*
X148694202Y-105700378D01*
X148694202Y-105700378D01*
G37*
X148694202Y-105700378D02*
X148794632Y-105729412D01*
X148877101Y-105773855D01*
X148940484Y-105833298D01*
X148972620Y-105883077D01*
X148980966Y-105900410D01*
X148987975Y-105918441D01*
X148993784Y-105939492D01*
X148998527Y-105965880D01*
X149002341Y-105999925D01*
X149005360Y-106043947D01*
X149007722Y-106100266D01*
X149009560Y-106171200D01*
X149011011Y-106259070D01*
X149012210Y-106366195D01*
X149013293Y-106494894D01*
X149013998Y-106591100D01*
X149015041Y-106706731D01*
X149016444Y-106815216D01*
X149018139Y-106913759D01*
X149020059Y-106999565D01*
X149022137Y-107069839D01*
X149024307Y-107121786D01*
X149026500Y-107152609D01*
X149027649Y-107159425D01*
X149037462Y-107188000D01*
X148884939Y-107188000D01*
X148816973Y-107187707D01*
X148770374Y-107185390D01*
X148741111Y-107178889D01*
X148725152Y-107166045D01*
X148718464Y-107144698D01*
X148717015Y-107112689D01*
X148717000Y-107098061D01*
X148713734Y-107065672D01*
X148705385Y-107049089D01*
X148702726Y-107048300D01*
X148687309Y-107057194D01*
X148661812Y-107080279D01*
X148637617Y-107106051D01*
X148569951Y-107168450D01*
X148496160Y-107207227D01*
X148412632Y-107224036D01*
X148377697Y-107225008D01*
X148328327Y-107223025D01*
X148285048Y-107218939D01*
X148259717Y-107214233D01*
X148175750Y-107176764D01*
X148109112Y-107120781D01*
X148059882Y-107046418D01*
X148028142Y-106953810D01*
X148013972Y-106843090D01*
X148013160Y-106807000D01*
X148016135Y-106760392D01*
X148341654Y-106760392D01*
X148344506Y-106825341D01*
X148357524Y-106884192D01*
X148380089Y-106929924D01*
X148395890Y-106946586D01*
X148433486Y-106963787D01*
X148484403Y-106972061D01*
X148538080Y-106971115D01*
X148583958Y-106960653D01*
X148599946Y-106952279D01*
X148624002Y-106932573D01*
X148642220Y-106909152D01*
X148655500Y-106878250D01*
X148664740Y-106836101D01*
X148670839Y-106778939D01*
X148674696Y-106702998D01*
X148676672Y-106630831D01*
X148678140Y-106549894D01*
X148678377Y-106491332D01*
X148677205Y-106452142D01*
X148674449Y-106429320D01*
X148669932Y-106419862D01*
X148664310Y-106420240D01*
X148615587Y-106450437D01*
X148561386Y-106486798D01*
X148506279Y-106525914D01*
X148454844Y-106564377D01*
X148411654Y-106598779D01*
X148381285Y-106625711D01*
X148368919Y-106640282D01*
X148349586Y-106696366D01*
X148341654Y-106760392D01*
X148016135Y-106760392D01*
X148019286Y-106711051D01*
X148039170Y-106627574D01*
X148074707Y-106554300D01*
X148127791Y-106488961D01*
X148200317Y-106429289D01*
X148294179Y-106373017D01*
X148411272Y-106317878D01*
X148427529Y-106310997D01*
X148514178Y-106273142D01*
X148579524Y-106240762D01*
X148626611Y-106212094D01*
X148658483Y-106185375D01*
X148671459Y-106169703D01*
X148683751Y-106137703D01*
X148690447Y-106091462D01*
X148691111Y-106041609D01*
X148685306Y-105998774D01*
X148679168Y-105982000D01*
X148651995Y-105955923D01*
X148607738Y-105939128D01*
X148552923Y-105931541D01*
X148494080Y-105933087D01*
X148437737Y-105943690D01*
X148390421Y-105963275D01*
X148363216Y-105985645D01*
X148351817Y-106009828D01*
X148341773Y-106048581D01*
X148337816Y-106073337D01*
X148329650Y-106140250D01*
X148172223Y-106143830D01*
X148014796Y-106147411D01*
X148022659Y-106072189D01*
X148043470Y-105965525D01*
X148081983Y-105876683D01*
X148138598Y-105805303D01*
X148213712Y-105751022D01*
X148307723Y-105713480D01*
X148421032Y-105692315D01*
X148443950Y-105690181D01*
X148576933Y-105687165D01*
X148694202Y-105700378D01*
G36*
X146558214Y-105681539D02*
X146674712Y-105698123D01*
X146770459Y-105727436D01*
X146847355Y-105770713D01*
X146907301Y-105829193D01*
X146952198Y-105904114D01*
X146970149Y-105949750D01*
X146982261Y-105998483D01*
X146993217Y-106067180D01*
X147002490Y-106150414D01*
X147009551Y-106242755D01*
X147013870Y-106338775D01*
X147014993Y-106410125D01*
X147015200Y-106527600D01*
X146329400Y-106527600D01*
X146329400Y-106679742D01*
X146332185Y-106775752D01*
X146341549Y-106849406D01*
X146359002Y-106903236D01*
X146386055Y-106939775D01*
X146424217Y-106961556D01*
X146474999Y-106971111D01*
X146503743Y-106972100D01*
X146562247Y-106964861D01*
X146606199Y-106941675D01*
X146637444Y-106900339D01*
X146657828Y-106838647D01*
X146667182Y-106776889D01*
X146675807Y-106692700D01*
X147006023Y-106692700D01*
X146998993Y-106803825D01*
X146989724Y-106893850D01*
X146972988Y-106965550D01*
X146946148Y-107025535D01*
X146906572Y-107080414D01*
X146875411Y-107113845D01*
X146826654Y-107158391D01*
X146783059Y-107187282D01*
X146736007Y-107206203D01*
X146734770Y-107206580D01*
X146672894Y-107220083D01*
X146596329Y-107229244D01*
X146515331Y-107233468D01*
X146440158Y-107232164D01*
X146389895Y-107226524D01*
X146280727Y-107198175D01*
X146191726Y-107156034D01*
X146120979Y-107098873D01*
X146066577Y-107025462D01*
X146060634Y-107014713D01*
X146042728Y-106979306D01*
X146028255Y-106944853D01*
X146016857Y-106908198D01*
X146008173Y-106866180D01*
X146001844Y-106815644D01*
X145997510Y-106753431D01*
X145994811Y-106676384D01*
X145993388Y-106581343D01*
X145992881Y-106465152D01*
X145992854Y-106419650D01*
X145992917Y-106308959D01*
X145993236Y-106220524D01*
X145993897Y-106161195D01*
X146329400Y-106161195D01*
X146329400Y-106260900D01*
X146675329Y-106260900D01*
X146669981Y-106138620D01*
X146667113Y-106081704D01*
X146663302Y-106043968D01*
X146656745Y-106019206D01*
X146645637Y-106001214D01*
X146628174Y-105983784D01*
X146623816Y-105979870D01*
X146596477Y-105958690D01*
X146568862Y-105947688D01*
X146530858Y-105943724D01*
X146506368Y-105943400D01*
X146440911Y-105947803D01*
X146393045Y-105962974D01*
X146360379Y-105991856D01*
X146340523Y-106037390D01*
X146331086Y-106102518D01*
X146329400Y-106161195D01*
X145993897Y-106161195D01*
X145994009Y-106151198D01*
X145995436Y-106097835D01*
X145997717Y-106057292D01*
X146001049Y-106026421D01*
X146005632Y-106002078D01*
X146011665Y-105981117D01*
X146019347Y-105960394D01*
X146022396Y-105952778D01*
X146062041Y-105880645D01*
X146118198Y-105812969D01*
X146183625Y-105757511D01*
X146229498Y-105730841D01*
X146313934Y-105701520D01*
X146412546Y-105683898D01*
X146516309Y-105679328D01*
X146558214Y-105681539D01*
X146558214Y-105681539D01*
G37*
X146558214Y-105681539D02*
X146674712Y-105698123D01*
X146770459Y-105727436D01*
X146847355Y-105770713D01*
X146907301Y-105829193D01*
X146952198Y-105904114D01*
X146970149Y-105949750D01*
X146982261Y-105998483D01*
X146993217Y-106067180D01*
X147002490Y-106150414D01*
X147009551Y-106242755D01*
X147013870Y-106338775D01*
X147014993Y-106410125D01*
X147015200Y-106527600D01*
X146329400Y-106527600D01*
X146329400Y-106679742D01*
X146332185Y-106775752D01*
X146341549Y-106849406D01*
X146359002Y-106903236D01*
X146386055Y-106939775D01*
X146424217Y-106961556D01*
X146474999Y-106971111D01*
X146503743Y-106972100D01*
X146562247Y-106964861D01*
X146606199Y-106941675D01*
X146637444Y-106900339D01*
X146657828Y-106838647D01*
X146667182Y-106776889D01*
X146675807Y-106692700D01*
X147006023Y-106692700D01*
X146998993Y-106803825D01*
X146989724Y-106893850D01*
X146972988Y-106965550D01*
X146946148Y-107025535D01*
X146906572Y-107080414D01*
X146875411Y-107113845D01*
X146826654Y-107158391D01*
X146783059Y-107187282D01*
X146736007Y-107206203D01*
X146734770Y-107206580D01*
X146672894Y-107220083D01*
X146596329Y-107229244D01*
X146515331Y-107233468D01*
X146440158Y-107232164D01*
X146389895Y-107226524D01*
X146280727Y-107198175D01*
X146191726Y-107156034D01*
X146120979Y-107098873D01*
X146066577Y-107025462D01*
X146060634Y-107014713D01*
X146042728Y-106979306D01*
X146028255Y-106944853D01*
X146016857Y-106908198D01*
X146008173Y-106866180D01*
X146001844Y-106815644D01*
X145997510Y-106753431D01*
X145994811Y-106676384D01*
X145993388Y-106581343D01*
X145992881Y-106465152D01*
X145992854Y-106419650D01*
X145992917Y-106308959D01*
X145993236Y-106220524D01*
X145993897Y-106161195D01*
X146329400Y-106161195D01*
X146329400Y-106260900D01*
X146675329Y-106260900D01*
X146669981Y-106138620D01*
X146667113Y-106081704D01*
X146663302Y-106043968D01*
X146656745Y-106019206D01*
X146645637Y-106001214D01*
X146628174Y-105983784D01*
X146623816Y-105979870D01*
X146596477Y-105958690D01*
X146568862Y-105947688D01*
X146530858Y-105943724D01*
X146506368Y-105943400D01*
X146440911Y-105947803D01*
X146393045Y-105962974D01*
X146360379Y-105991856D01*
X146340523Y-106037390D01*
X146331086Y-106102518D01*
X146329400Y-106161195D01*
X145993897Y-106161195D01*
X145994009Y-106151198D01*
X145995436Y-106097835D01*
X145997717Y-106057292D01*
X146001049Y-106026421D01*
X146005632Y-106002078D01*
X146011665Y-105981117D01*
X146019347Y-105960394D01*
X146022396Y-105952778D01*
X146062041Y-105880645D01*
X146118198Y-105812969D01*
X146183625Y-105757511D01*
X146229498Y-105730841D01*
X146313934Y-105701520D01*
X146412546Y-105683898D01*
X146516309Y-105679328D01*
X146558214Y-105681539D01*
G36*
X155024315Y-107033233D02*
X155075646Y-107060161D01*
X155114696Y-107097579D01*
X155119251Y-107104433D01*
X155137921Y-107153081D01*
X155143646Y-107209749D01*
X155136555Y-107264418D01*
X155116775Y-107307067D01*
X155116678Y-107307191D01*
X155068285Y-107350236D01*
X155009711Y-107373877D01*
X154947387Y-107376850D01*
X154887741Y-107357893D01*
X154880291Y-107353614D01*
X154835647Y-107313221D01*
X154808839Y-107261303D01*
X154799635Y-107203633D01*
X154799771Y-107202668D01*
X154901900Y-107202668D01*
X154911602Y-107230541D01*
X154934603Y-107257923D01*
X154961746Y-107275080D01*
X154971750Y-107276900D01*
X154994285Y-107268492D01*
X155016200Y-107251500D01*
X155037046Y-107217710D01*
X155037438Y-107184753D01*
X155022017Y-107157381D01*
X154995425Y-107140348D01*
X154962302Y-107138407D01*
X154927289Y-107156313D01*
X154925125Y-107158218D01*
X154906858Y-107183751D01*
X154901900Y-107202668D01*
X154799771Y-107202668D01*
X154807800Y-107145982D01*
X154833103Y-107094124D01*
X154875309Y-107053830D01*
X154892794Y-107044108D01*
X154931779Y-107029854D01*
X154968094Y-107023006D01*
X154971750Y-107022900D01*
X155024315Y-107033233D01*
X155024315Y-107033233D01*
G37*
X155024315Y-107033233D02*
X155075646Y-107060161D01*
X155114696Y-107097579D01*
X155119251Y-107104433D01*
X155137921Y-107153081D01*
X155143646Y-107209749D01*
X155136555Y-107264418D01*
X155116775Y-107307067D01*
X155116678Y-107307191D01*
X155068285Y-107350236D01*
X155009711Y-107373877D01*
X154947387Y-107376850D01*
X154887741Y-107357893D01*
X154880291Y-107353614D01*
X154835647Y-107313221D01*
X154808839Y-107261303D01*
X154799635Y-107203633D01*
X154799771Y-107202668D01*
X154901900Y-107202668D01*
X154911602Y-107230541D01*
X154934603Y-107257923D01*
X154961746Y-107275080D01*
X154971750Y-107276900D01*
X154994285Y-107268492D01*
X155016200Y-107251500D01*
X155037046Y-107217710D01*
X155037438Y-107184753D01*
X155022017Y-107157381D01*
X154995425Y-107140348D01*
X154962302Y-107138407D01*
X154927289Y-107156313D01*
X154925125Y-107158218D01*
X154906858Y-107183751D01*
X154901900Y-107202668D01*
X154799771Y-107202668D01*
X154807800Y-107145982D01*
X154833103Y-107094124D01*
X154875309Y-107053830D01*
X154892794Y-107044108D01*
X154931779Y-107029854D01*
X154968094Y-107023006D01*
X154971750Y-107022900D01*
X155024315Y-107033233D01*
G04 #@! TO.C,RESET1*
D10*
X142989380Y-88880952D02*
X142989380Y-88614285D01*
X142989380Y-88690476D02*
X143008428Y-88652380D01*
X143027476Y-88633333D01*
X143065571Y-88614285D01*
X143103666Y-88614285D01*
X143389380Y-88861904D02*
X143351285Y-88880952D01*
X143275095Y-88880952D01*
X143237000Y-88861904D01*
X143217952Y-88823809D01*
X143217952Y-88671428D01*
X143237000Y-88633333D01*
X143275095Y-88614285D01*
X143351285Y-88614285D01*
X143389380Y-88633333D01*
X143408428Y-88671428D01*
X143408428Y-88709523D01*
X143217952Y-88747619D01*
X143560809Y-88861904D02*
X143598904Y-88880952D01*
X143675095Y-88880952D01*
X143713190Y-88861904D01*
X143732238Y-88823809D01*
X143732238Y-88804761D01*
X143713190Y-88766666D01*
X143675095Y-88747619D01*
X143617952Y-88747619D01*
X143579857Y-88728571D01*
X143560809Y-88690476D01*
X143560809Y-88671428D01*
X143579857Y-88633333D01*
X143617952Y-88614285D01*
X143675095Y-88614285D01*
X143713190Y-88633333D01*
X144056047Y-88861904D02*
X144017952Y-88880952D01*
X143941761Y-88880952D01*
X143903666Y-88861904D01*
X143884619Y-88823809D01*
X143884619Y-88671428D01*
X143903666Y-88633333D01*
X143941761Y-88614285D01*
X144017952Y-88614285D01*
X144056047Y-88633333D01*
X144075095Y-88671428D01*
X144075095Y-88709523D01*
X143884619Y-88747619D01*
X144189380Y-88614285D02*
X144341761Y-88614285D01*
X144246523Y-88480952D02*
X144246523Y-88823809D01*
X144265571Y-88861904D01*
X144303666Y-88880952D01*
X144341761Y-88880952D01*
G04 #@! TO.C,J1*
X150177285Y-85016952D02*
X149948714Y-85016952D01*
X150063000Y-85016952D02*
X150063000Y-84616952D01*
X150024904Y-84674095D01*
X149986809Y-84712190D01*
X149948714Y-84731238D01*
G04 #@! TD*
M02*
