G04 #@! TF.GenerationSoftware,KiCad,Pcbnew,(5.0.0-3-g5ebb6b6)*
G04 #@! TF.CreationDate,2020-03-22T12:42:52-07:00*
G04 #@! TF.ProjectId,ravenna,726176656E6E612E6B696361645F7063,rev?*
G04 #@! TF.SameCoordinates,Original*
G04 #@! TF.FileFunction,Soldermask,Bot*
G04 #@! TF.FilePolarity,Negative*
%FSLAX46Y46*%
G04 Gerber Fmt 4.6, Leading zero omitted, Abs format (unit mm)*
G04 Created by KiCad (PCBNEW (5.0.0-3-g5ebb6b6)) date Sunday, March 22, 2020 at 12:42:52 PM*
%MOMM*%
%LPD*%
G01*
G04 APERTURE LIST*
%ADD10C,0.100000*%
G04 APERTURE END LIST*
D10*
G36*
X154923442Y-133090518D02*
X154989627Y-133097037D01*
X155059250Y-133118157D01*
X155159467Y-133148557D01*
X155259115Y-133201821D01*
X155315991Y-133232222D01*
X155351729Y-133261552D01*
X155453186Y-133344814D01*
X155536448Y-133446271D01*
X155565778Y-133482009D01*
X155565779Y-133482011D01*
X155649443Y-133638533D01*
X155649443Y-133638534D01*
X155700963Y-133808373D01*
X155718359Y-133985000D01*
X155700963Y-134161627D01*
X155666616Y-134274853D01*
X155649443Y-134331467D01*
X155582028Y-134457589D01*
X155565778Y-134487991D01*
X155536448Y-134523729D01*
X155453186Y-134625186D01*
X155353033Y-134707378D01*
X155315991Y-134737778D01*
X155315989Y-134737779D01*
X155159467Y-134821443D01*
X155102853Y-134838616D01*
X154989627Y-134872963D01*
X154923442Y-134879482D01*
X154857260Y-134886000D01*
X154768740Y-134886000D01*
X154702558Y-134879482D01*
X154636373Y-134872963D01*
X154523147Y-134838616D01*
X154466533Y-134821443D01*
X154310011Y-134737779D01*
X154310009Y-134737778D01*
X154272967Y-134707378D01*
X154172814Y-134625186D01*
X154089552Y-134523729D01*
X154060222Y-134487991D01*
X154043972Y-134457589D01*
X153976557Y-134331467D01*
X153959384Y-134274853D01*
X153925037Y-134161627D01*
X153907641Y-133985000D01*
X153925037Y-133808373D01*
X153976557Y-133638534D01*
X153976557Y-133638533D01*
X154060221Y-133482011D01*
X154060222Y-133482009D01*
X154089552Y-133446271D01*
X154172814Y-133344814D01*
X154274271Y-133261552D01*
X154310009Y-133232222D01*
X154366885Y-133201821D01*
X154466533Y-133148557D01*
X154566750Y-133118157D01*
X154636373Y-133097037D01*
X154702558Y-133090518D01*
X154768740Y-133084000D01*
X154857260Y-133084000D01*
X154923442Y-133090518D01*
X154923442Y-133090518D01*
G37*
G36*
X152383442Y-133090518D02*
X152449627Y-133097037D01*
X152519250Y-133118157D01*
X152619467Y-133148557D01*
X152719115Y-133201821D01*
X152775991Y-133232222D01*
X152811729Y-133261552D01*
X152913186Y-133344814D01*
X152996448Y-133446271D01*
X153025778Y-133482009D01*
X153025779Y-133482011D01*
X153109443Y-133638533D01*
X153109443Y-133638534D01*
X153160963Y-133808373D01*
X153178359Y-133985000D01*
X153160963Y-134161627D01*
X153126616Y-134274853D01*
X153109443Y-134331467D01*
X153042028Y-134457589D01*
X153025778Y-134487991D01*
X152996448Y-134523729D01*
X152913186Y-134625186D01*
X152813033Y-134707378D01*
X152775991Y-134737778D01*
X152775989Y-134737779D01*
X152619467Y-134821443D01*
X152562853Y-134838616D01*
X152449627Y-134872963D01*
X152383442Y-134879482D01*
X152317260Y-134886000D01*
X152228740Y-134886000D01*
X152162558Y-134879482D01*
X152096373Y-134872963D01*
X151983147Y-134838616D01*
X151926533Y-134821443D01*
X151770011Y-134737779D01*
X151770009Y-134737778D01*
X151732967Y-134707378D01*
X151632814Y-134625186D01*
X151549552Y-134523729D01*
X151520222Y-134487991D01*
X151503972Y-134457589D01*
X151436557Y-134331467D01*
X151419384Y-134274853D01*
X151385037Y-134161627D01*
X151367641Y-133985000D01*
X151385037Y-133808373D01*
X151436557Y-133638534D01*
X151436557Y-133638533D01*
X151520221Y-133482011D01*
X151520222Y-133482009D01*
X151549552Y-133446271D01*
X151632814Y-133344814D01*
X151734271Y-133261552D01*
X151770009Y-133232222D01*
X151826885Y-133201821D01*
X151926533Y-133148557D01*
X152026750Y-133118157D01*
X152096373Y-133097037D01*
X152162558Y-133090518D01*
X152228740Y-133084000D01*
X152317260Y-133084000D01*
X152383442Y-133090518D01*
X152383442Y-133090518D01*
G37*
G36*
X149843442Y-133090518D02*
X149909627Y-133097037D01*
X149979250Y-133118157D01*
X150079467Y-133148557D01*
X150179115Y-133201821D01*
X150235991Y-133232222D01*
X150271729Y-133261552D01*
X150373186Y-133344814D01*
X150456448Y-133446271D01*
X150485778Y-133482009D01*
X150485779Y-133482011D01*
X150569443Y-133638533D01*
X150569443Y-133638534D01*
X150620963Y-133808373D01*
X150638359Y-133985000D01*
X150620963Y-134161627D01*
X150586616Y-134274853D01*
X150569443Y-134331467D01*
X150502028Y-134457589D01*
X150485778Y-134487991D01*
X150456448Y-134523729D01*
X150373186Y-134625186D01*
X150273033Y-134707378D01*
X150235991Y-134737778D01*
X150235989Y-134737779D01*
X150079467Y-134821443D01*
X150022853Y-134838616D01*
X149909627Y-134872963D01*
X149843442Y-134879482D01*
X149777260Y-134886000D01*
X149688740Y-134886000D01*
X149622558Y-134879482D01*
X149556373Y-134872963D01*
X149443147Y-134838616D01*
X149386533Y-134821443D01*
X149230011Y-134737779D01*
X149230009Y-134737778D01*
X149192967Y-134707378D01*
X149092814Y-134625186D01*
X149009552Y-134523729D01*
X148980222Y-134487991D01*
X148963972Y-134457589D01*
X148896557Y-134331467D01*
X148879384Y-134274853D01*
X148845037Y-134161627D01*
X148827641Y-133985000D01*
X148845037Y-133808373D01*
X148896557Y-133638534D01*
X148896557Y-133638533D01*
X148980221Y-133482011D01*
X148980222Y-133482009D01*
X149009552Y-133446271D01*
X149092814Y-133344814D01*
X149194271Y-133261552D01*
X149230009Y-133232222D01*
X149286885Y-133201821D01*
X149386533Y-133148557D01*
X149486750Y-133118157D01*
X149556373Y-133097037D01*
X149622558Y-133090518D01*
X149688740Y-133084000D01*
X149777260Y-133084000D01*
X149843442Y-133090518D01*
X149843442Y-133090518D01*
G37*
G36*
X147303442Y-133090518D02*
X147369627Y-133097037D01*
X147439250Y-133118157D01*
X147539467Y-133148557D01*
X147639115Y-133201821D01*
X147695991Y-133232222D01*
X147731729Y-133261552D01*
X147833186Y-133344814D01*
X147916448Y-133446271D01*
X147945778Y-133482009D01*
X147945779Y-133482011D01*
X148029443Y-133638533D01*
X148029443Y-133638534D01*
X148080963Y-133808373D01*
X148098359Y-133985000D01*
X148080963Y-134161627D01*
X148046616Y-134274853D01*
X148029443Y-134331467D01*
X147962028Y-134457589D01*
X147945778Y-134487991D01*
X147916448Y-134523729D01*
X147833186Y-134625186D01*
X147733033Y-134707378D01*
X147695991Y-134737778D01*
X147695989Y-134737779D01*
X147539467Y-134821443D01*
X147482853Y-134838616D01*
X147369627Y-134872963D01*
X147303442Y-134879482D01*
X147237260Y-134886000D01*
X147148740Y-134886000D01*
X147082558Y-134879482D01*
X147016373Y-134872963D01*
X146903147Y-134838616D01*
X146846533Y-134821443D01*
X146690011Y-134737779D01*
X146690009Y-134737778D01*
X146652967Y-134707378D01*
X146552814Y-134625186D01*
X146469552Y-134523729D01*
X146440222Y-134487991D01*
X146423972Y-134457589D01*
X146356557Y-134331467D01*
X146339384Y-134274853D01*
X146305037Y-134161627D01*
X146287641Y-133985000D01*
X146305037Y-133808373D01*
X146356557Y-133638534D01*
X146356557Y-133638533D01*
X146440221Y-133482011D01*
X146440222Y-133482009D01*
X146469552Y-133446271D01*
X146552814Y-133344814D01*
X146654271Y-133261552D01*
X146690009Y-133232222D01*
X146746885Y-133201821D01*
X146846533Y-133148557D01*
X146946750Y-133118157D01*
X147016373Y-133097037D01*
X147082558Y-133090518D01*
X147148740Y-133084000D01*
X147237260Y-133084000D01*
X147303442Y-133090518D01*
X147303442Y-133090518D01*
G37*
G36*
X144763442Y-133090518D02*
X144829627Y-133097037D01*
X144899250Y-133118157D01*
X144999467Y-133148557D01*
X145099115Y-133201821D01*
X145155991Y-133232222D01*
X145191729Y-133261552D01*
X145293186Y-133344814D01*
X145376448Y-133446271D01*
X145405778Y-133482009D01*
X145405779Y-133482011D01*
X145489443Y-133638533D01*
X145489443Y-133638534D01*
X145540963Y-133808373D01*
X145558359Y-133985000D01*
X145540963Y-134161627D01*
X145506616Y-134274853D01*
X145489443Y-134331467D01*
X145422028Y-134457589D01*
X145405778Y-134487991D01*
X145376448Y-134523729D01*
X145293186Y-134625186D01*
X145193033Y-134707378D01*
X145155991Y-134737778D01*
X145155989Y-134737779D01*
X144999467Y-134821443D01*
X144942853Y-134838616D01*
X144829627Y-134872963D01*
X144763442Y-134879482D01*
X144697260Y-134886000D01*
X144608740Y-134886000D01*
X144542558Y-134879482D01*
X144476373Y-134872963D01*
X144363147Y-134838616D01*
X144306533Y-134821443D01*
X144150011Y-134737779D01*
X144150009Y-134737778D01*
X144112967Y-134707378D01*
X144012814Y-134625186D01*
X143929552Y-134523729D01*
X143900222Y-134487991D01*
X143883972Y-134457589D01*
X143816557Y-134331467D01*
X143799384Y-134274853D01*
X143765037Y-134161627D01*
X143747641Y-133985000D01*
X143765037Y-133808373D01*
X143816557Y-133638534D01*
X143816557Y-133638533D01*
X143900221Y-133482011D01*
X143900222Y-133482009D01*
X143929552Y-133446271D01*
X144012814Y-133344814D01*
X144114271Y-133261552D01*
X144150009Y-133232222D01*
X144206885Y-133201821D01*
X144306533Y-133148557D01*
X144406750Y-133118157D01*
X144476373Y-133097037D01*
X144542558Y-133090518D01*
X144608740Y-133084000D01*
X144697260Y-133084000D01*
X144763442Y-133090518D01*
X144763442Y-133090518D01*
G37*
G36*
X142223442Y-133090518D02*
X142289627Y-133097037D01*
X142359250Y-133118157D01*
X142459467Y-133148557D01*
X142559115Y-133201821D01*
X142615991Y-133232222D01*
X142651729Y-133261552D01*
X142753186Y-133344814D01*
X142836448Y-133446271D01*
X142865778Y-133482009D01*
X142865779Y-133482011D01*
X142949443Y-133638533D01*
X142949443Y-133638534D01*
X143000963Y-133808373D01*
X143018359Y-133985000D01*
X143000963Y-134161627D01*
X142966616Y-134274853D01*
X142949443Y-134331467D01*
X142882028Y-134457589D01*
X142865778Y-134487991D01*
X142836448Y-134523729D01*
X142753186Y-134625186D01*
X142653033Y-134707378D01*
X142615991Y-134737778D01*
X142615989Y-134737779D01*
X142459467Y-134821443D01*
X142402853Y-134838616D01*
X142289627Y-134872963D01*
X142223442Y-134879482D01*
X142157260Y-134886000D01*
X142068740Y-134886000D01*
X142002558Y-134879482D01*
X141936373Y-134872963D01*
X141823147Y-134838616D01*
X141766533Y-134821443D01*
X141610011Y-134737779D01*
X141610009Y-134737778D01*
X141572967Y-134707378D01*
X141472814Y-134625186D01*
X141389552Y-134523729D01*
X141360222Y-134487991D01*
X141343972Y-134457589D01*
X141276557Y-134331467D01*
X141259384Y-134274853D01*
X141225037Y-134161627D01*
X141207641Y-133985000D01*
X141225037Y-133808373D01*
X141276557Y-133638534D01*
X141276557Y-133638533D01*
X141360221Y-133482011D01*
X141360222Y-133482009D01*
X141389552Y-133446271D01*
X141472814Y-133344814D01*
X141574271Y-133261552D01*
X141610009Y-133232222D01*
X141666885Y-133201821D01*
X141766533Y-133148557D01*
X141866750Y-133118157D01*
X141936373Y-133097037D01*
X142002558Y-133090518D01*
X142068740Y-133084000D01*
X142157260Y-133084000D01*
X142223442Y-133090518D01*
X142223442Y-133090518D01*
G37*
G36*
X138616642Y-133090518D02*
X138682827Y-133097037D01*
X138752450Y-133118157D01*
X138852667Y-133148557D01*
X138952315Y-133201821D01*
X139009191Y-133232222D01*
X139044929Y-133261552D01*
X139146386Y-133344814D01*
X139229648Y-133446271D01*
X139258978Y-133482009D01*
X139258979Y-133482011D01*
X139342643Y-133638533D01*
X139342643Y-133638534D01*
X139394163Y-133808373D01*
X139411559Y-133985000D01*
X139394163Y-134161627D01*
X139359816Y-134274853D01*
X139342643Y-134331467D01*
X139275228Y-134457589D01*
X139258978Y-134487991D01*
X139229648Y-134523729D01*
X139146386Y-134625186D01*
X139046233Y-134707378D01*
X139009191Y-134737778D01*
X139009189Y-134737779D01*
X138852667Y-134821443D01*
X138796053Y-134838616D01*
X138682827Y-134872963D01*
X138616642Y-134879482D01*
X138550460Y-134886000D01*
X138461940Y-134886000D01*
X138395758Y-134879482D01*
X138329573Y-134872963D01*
X138216347Y-134838616D01*
X138159733Y-134821443D01*
X138003211Y-134737779D01*
X138003209Y-134737778D01*
X137966167Y-134707378D01*
X137866014Y-134625186D01*
X137782752Y-134523729D01*
X137753422Y-134487991D01*
X137737172Y-134457589D01*
X137669757Y-134331467D01*
X137652584Y-134274853D01*
X137618237Y-134161627D01*
X137600841Y-133985000D01*
X137618237Y-133808373D01*
X137669757Y-133638534D01*
X137669757Y-133638533D01*
X137753421Y-133482011D01*
X137753422Y-133482009D01*
X137782752Y-133446271D01*
X137866014Y-133344814D01*
X137967471Y-133261552D01*
X138003209Y-133232222D01*
X138060085Y-133201821D01*
X138159733Y-133148557D01*
X138259950Y-133118157D01*
X138329573Y-133097037D01*
X138395758Y-133090518D01*
X138461940Y-133084000D01*
X138550460Y-133084000D01*
X138616642Y-133090518D01*
X138616642Y-133090518D01*
G37*
G36*
X158555542Y-133060118D02*
X158621727Y-133066637D01*
X158734953Y-133100984D01*
X158791567Y-133118157D01*
X158930187Y-133192252D01*
X158948091Y-133201822D01*
X158983829Y-133231152D01*
X159085286Y-133314414D01*
X159168548Y-133415871D01*
X159197878Y-133451609D01*
X159197879Y-133451611D01*
X159281543Y-133608133D01*
X159290765Y-133638534D01*
X159333063Y-133777973D01*
X159350459Y-133954600D01*
X159333063Y-134131227D01*
X159323841Y-134161627D01*
X159281543Y-134301067D01*
X159207448Y-134439687D01*
X159197878Y-134457591D01*
X159172931Y-134487989D01*
X159085286Y-134594786D01*
X158983829Y-134678048D01*
X158948091Y-134707378D01*
X158948089Y-134707379D01*
X158791567Y-134791043D01*
X158734953Y-134808216D01*
X158621727Y-134842563D01*
X158555543Y-134849081D01*
X158489360Y-134855600D01*
X158400840Y-134855600D01*
X158334657Y-134849081D01*
X158268473Y-134842563D01*
X158155247Y-134808216D01*
X158098633Y-134791043D01*
X157942111Y-134707379D01*
X157942109Y-134707378D01*
X157906371Y-134678048D01*
X157804914Y-134594786D01*
X157717269Y-134487989D01*
X157692322Y-134457591D01*
X157682752Y-134439687D01*
X157608657Y-134301067D01*
X157566359Y-134161627D01*
X157557137Y-134131227D01*
X157539741Y-133954600D01*
X157557137Y-133777973D01*
X157599435Y-133638534D01*
X157608657Y-133608133D01*
X157692321Y-133451611D01*
X157692322Y-133451609D01*
X157721652Y-133415871D01*
X157804914Y-133314414D01*
X157906371Y-133231152D01*
X157942109Y-133201822D01*
X157960013Y-133192252D01*
X158098633Y-133118157D01*
X158155247Y-133100984D01*
X158268473Y-133066637D01*
X158334658Y-133060118D01*
X158400840Y-133053600D01*
X158489360Y-133053600D01*
X158555542Y-133060118D01*
X158555542Y-133060118D01*
G37*
G36*
X138616643Y-130550519D02*
X138682827Y-130557037D01*
X138752450Y-130578157D01*
X138852667Y-130608557D01*
X138952315Y-130661821D01*
X139009191Y-130692222D01*
X139044929Y-130721552D01*
X139146386Y-130804814D01*
X139229648Y-130906271D01*
X139258978Y-130942009D01*
X139258979Y-130942011D01*
X139342643Y-131098533D01*
X139342643Y-131098534D01*
X139394163Y-131268373D01*
X139411559Y-131445000D01*
X139394163Y-131621627D01*
X139359816Y-131734853D01*
X139342643Y-131791467D01*
X139275228Y-131917589D01*
X139258978Y-131947991D01*
X139229648Y-131983729D01*
X139146386Y-132085186D01*
X139046233Y-132167378D01*
X139009191Y-132197778D01*
X139009189Y-132197779D01*
X138852667Y-132281443D01*
X138796053Y-132298616D01*
X138682827Y-132332963D01*
X138616642Y-132339482D01*
X138550460Y-132346000D01*
X138461940Y-132346000D01*
X138395758Y-132339482D01*
X138329573Y-132332963D01*
X138216347Y-132298616D01*
X138159733Y-132281443D01*
X138003211Y-132197779D01*
X138003209Y-132197778D01*
X137966167Y-132167378D01*
X137866014Y-132085186D01*
X137782752Y-131983729D01*
X137753422Y-131947991D01*
X137737172Y-131917589D01*
X137669757Y-131791467D01*
X137652584Y-131734853D01*
X137618237Y-131621627D01*
X137600841Y-131445000D01*
X137618237Y-131268373D01*
X137669757Y-131098534D01*
X137669757Y-131098533D01*
X137753421Y-130942011D01*
X137753422Y-130942009D01*
X137782752Y-130906271D01*
X137866014Y-130804814D01*
X137967471Y-130721552D01*
X138003209Y-130692222D01*
X138060085Y-130661821D01*
X138159733Y-130608557D01*
X138259950Y-130578157D01*
X138329573Y-130557037D01*
X138395757Y-130550519D01*
X138461940Y-130544000D01*
X138550460Y-130544000D01*
X138616643Y-130550519D01*
X138616643Y-130550519D01*
G37*
G36*
X142223443Y-130550519D02*
X142289627Y-130557037D01*
X142359250Y-130578157D01*
X142459467Y-130608557D01*
X142559115Y-130661821D01*
X142615991Y-130692222D01*
X142651729Y-130721552D01*
X142753186Y-130804814D01*
X142836448Y-130906271D01*
X142865778Y-130942009D01*
X142865779Y-130942011D01*
X142949443Y-131098533D01*
X142949443Y-131098534D01*
X143000963Y-131268373D01*
X143018359Y-131445000D01*
X143000963Y-131621627D01*
X142966616Y-131734853D01*
X142949443Y-131791467D01*
X142882028Y-131917589D01*
X142865778Y-131947991D01*
X142836448Y-131983729D01*
X142753186Y-132085186D01*
X142653033Y-132167378D01*
X142615991Y-132197778D01*
X142615989Y-132197779D01*
X142459467Y-132281443D01*
X142402853Y-132298616D01*
X142289627Y-132332963D01*
X142223442Y-132339482D01*
X142157260Y-132346000D01*
X142068740Y-132346000D01*
X142002558Y-132339482D01*
X141936373Y-132332963D01*
X141823147Y-132298616D01*
X141766533Y-132281443D01*
X141610011Y-132197779D01*
X141610009Y-132197778D01*
X141572967Y-132167378D01*
X141472814Y-132085186D01*
X141389552Y-131983729D01*
X141360222Y-131947991D01*
X141343972Y-131917589D01*
X141276557Y-131791467D01*
X141259384Y-131734853D01*
X141225037Y-131621627D01*
X141207641Y-131445000D01*
X141225037Y-131268373D01*
X141276557Y-131098534D01*
X141276557Y-131098533D01*
X141360221Y-130942011D01*
X141360222Y-130942009D01*
X141389552Y-130906271D01*
X141472814Y-130804814D01*
X141574271Y-130721552D01*
X141610009Y-130692222D01*
X141666885Y-130661821D01*
X141766533Y-130608557D01*
X141866750Y-130578157D01*
X141936373Y-130557037D01*
X142002557Y-130550519D01*
X142068740Y-130544000D01*
X142157260Y-130544000D01*
X142223443Y-130550519D01*
X142223443Y-130550519D01*
G37*
G36*
X144763443Y-130550519D02*
X144829627Y-130557037D01*
X144899250Y-130578157D01*
X144999467Y-130608557D01*
X145099115Y-130661821D01*
X145155991Y-130692222D01*
X145191729Y-130721552D01*
X145293186Y-130804814D01*
X145376448Y-130906271D01*
X145405778Y-130942009D01*
X145405779Y-130942011D01*
X145489443Y-131098533D01*
X145489443Y-131098534D01*
X145540963Y-131268373D01*
X145558359Y-131445000D01*
X145540963Y-131621627D01*
X145506616Y-131734853D01*
X145489443Y-131791467D01*
X145422028Y-131917589D01*
X145405778Y-131947991D01*
X145376448Y-131983729D01*
X145293186Y-132085186D01*
X145193033Y-132167378D01*
X145155991Y-132197778D01*
X145155989Y-132197779D01*
X144999467Y-132281443D01*
X144942853Y-132298616D01*
X144829627Y-132332963D01*
X144763442Y-132339482D01*
X144697260Y-132346000D01*
X144608740Y-132346000D01*
X144542558Y-132339482D01*
X144476373Y-132332963D01*
X144363147Y-132298616D01*
X144306533Y-132281443D01*
X144150011Y-132197779D01*
X144150009Y-132197778D01*
X144112967Y-132167378D01*
X144012814Y-132085186D01*
X143929552Y-131983729D01*
X143900222Y-131947991D01*
X143883972Y-131917589D01*
X143816557Y-131791467D01*
X143799384Y-131734853D01*
X143765037Y-131621627D01*
X143747641Y-131445000D01*
X143765037Y-131268373D01*
X143816557Y-131098534D01*
X143816557Y-131098533D01*
X143900221Y-130942011D01*
X143900222Y-130942009D01*
X143929552Y-130906271D01*
X144012814Y-130804814D01*
X144114271Y-130721552D01*
X144150009Y-130692222D01*
X144206885Y-130661821D01*
X144306533Y-130608557D01*
X144406750Y-130578157D01*
X144476373Y-130557037D01*
X144542557Y-130550519D01*
X144608740Y-130544000D01*
X144697260Y-130544000D01*
X144763443Y-130550519D01*
X144763443Y-130550519D01*
G37*
G36*
X155714000Y-132346000D02*
X153912000Y-132346000D01*
X153912000Y-130544000D01*
X155714000Y-130544000D01*
X155714000Y-132346000D01*
X155714000Y-132346000D01*
G37*
G36*
X147303443Y-130550519D02*
X147369627Y-130557037D01*
X147439250Y-130578157D01*
X147539467Y-130608557D01*
X147639115Y-130661821D01*
X147695991Y-130692222D01*
X147731729Y-130721552D01*
X147833186Y-130804814D01*
X147916448Y-130906271D01*
X147945778Y-130942009D01*
X147945779Y-130942011D01*
X148029443Y-131098533D01*
X148029443Y-131098534D01*
X148080963Y-131268373D01*
X148098359Y-131445000D01*
X148080963Y-131621627D01*
X148046616Y-131734853D01*
X148029443Y-131791467D01*
X147962028Y-131917589D01*
X147945778Y-131947991D01*
X147916448Y-131983729D01*
X147833186Y-132085186D01*
X147733033Y-132167378D01*
X147695991Y-132197778D01*
X147695989Y-132197779D01*
X147539467Y-132281443D01*
X147482853Y-132298616D01*
X147369627Y-132332963D01*
X147303442Y-132339482D01*
X147237260Y-132346000D01*
X147148740Y-132346000D01*
X147082558Y-132339482D01*
X147016373Y-132332963D01*
X146903147Y-132298616D01*
X146846533Y-132281443D01*
X146690011Y-132197779D01*
X146690009Y-132197778D01*
X146652967Y-132167378D01*
X146552814Y-132085186D01*
X146469552Y-131983729D01*
X146440222Y-131947991D01*
X146423972Y-131917589D01*
X146356557Y-131791467D01*
X146339384Y-131734853D01*
X146305037Y-131621627D01*
X146287641Y-131445000D01*
X146305037Y-131268373D01*
X146356557Y-131098534D01*
X146356557Y-131098533D01*
X146440221Y-130942011D01*
X146440222Y-130942009D01*
X146469552Y-130906271D01*
X146552814Y-130804814D01*
X146654271Y-130721552D01*
X146690009Y-130692222D01*
X146746885Y-130661821D01*
X146846533Y-130608557D01*
X146946750Y-130578157D01*
X147016373Y-130557037D01*
X147082557Y-130550519D01*
X147148740Y-130544000D01*
X147237260Y-130544000D01*
X147303443Y-130550519D01*
X147303443Y-130550519D01*
G37*
G36*
X152383443Y-130550519D02*
X152449627Y-130557037D01*
X152519250Y-130578157D01*
X152619467Y-130608557D01*
X152719115Y-130661821D01*
X152775991Y-130692222D01*
X152811729Y-130721552D01*
X152913186Y-130804814D01*
X152996448Y-130906271D01*
X153025778Y-130942009D01*
X153025779Y-130942011D01*
X153109443Y-131098533D01*
X153109443Y-131098534D01*
X153160963Y-131268373D01*
X153178359Y-131445000D01*
X153160963Y-131621627D01*
X153126616Y-131734853D01*
X153109443Y-131791467D01*
X153042028Y-131917589D01*
X153025778Y-131947991D01*
X152996448Y-131983729D01*
X152913186Y-132085186D01*
X152813033Y-132167378D01*
X152775991Y-132197778D01*
X152775989Y-132197779D01*
X152619467Y-132281443D01*
X152562853Y-132298616D01*
X152449627Y-132332963D01*
X152383442Y-132339482D01*
X152317260Y-132346000D01*
X152228740Y-132346000D01*
X152162558Y-132339482D01*
X152096373Y-132332963D01*
X151983147Y-132298616D01*
X151926533Y-132281443D01*
X151770011Y-132197779D01*
X151770009Y-132197778D01*
X151732967Y-132167378D01*
X151632814Y-132085186D01*
X151549552Y-131983729D01*
X151520222Y-131947991D01*
X151503972Y-131917589D01*
X151436557Y-131791467D01*
X151419384Y-131734853D01*
X151385037Y-131621627D01*
X151367641Y-131445000D01*
X151385037Y-131268373D01*
X151436557Y-131098534D01*
X151436557Y-131098533D01*
X151520221Y-130942011D01*
X151520222Y-130942009D01*
X151549552Y-130906271D01*
X151632814Y-130804814D01*
X151734271Y-130721552D01*
X151770009Y-130692222D01*
X151826885Y-130661821D01*
X151926533Y-130608557D01*
X152026750Y-130578157D01*
X152096373Y-130557037D01*
X152162557Y-130550519D01*
X152228740Y-130544000D01*
X152317260Y-130544000D01*
X152383443Y-130550519D01*
X152383443Y-130550519D01*
G37*
G36*
X149843443Y-130550519D02*
X149909627Y-130557037D01*
X149979250Y-130578157D01*
X150079467Y-130608557D01*
X150179115Y-130661821D01*
X150235991Y-130692222D01*
X150271729Y-130721552D01*
X150373186Y-130804814D01*
X150456448Y-130906271D01*
X150485778Y-130942009D01*
X150485779Y-130942011D01*
X150569443Y-131098533D01*
X150569443Y-131098534D01*
X150620963Y-131268373D01*
X150638359Y-131445000D01*
X150620963Y-131621627D01*
X150586616Y-131734853D01*
X150569443Y-131791467D01*
X150502028Y-131917589D01*
X150485778Y-131947991D01*
X150456448Y-131983729D01*
X150373186Y-132085186D01*
X150273033Y-132167378D01*
X150235991Y-132197778D01*
X150235989Y-132197779D01*
X150079467Y-132281443D01*
X150022853Y-132298616D01*
X149909627Y-132332963D01*
X149843442Y-132339482D01*
X149777260Y-132346000D01*
X149688740Y-132346000D01*
X149622558Y-132339482D01*
X149556373Y-132332963D01*
X149443147Y-132298616D01*
X149386533Y-132281443D01*
X149230011Y-132197779D01*
X149230009Y-132197778D01*
X149192967Y-132167378D01*
X149092814Y-132085186D01*
X149009552Y-131983729D01*
X148980222Y-131947991D01*
X148963972Y-131917589D01*
X148896557Y-131791467D01*
X148879384Y-131734853D01*
X148845037Y-131621627D01*
X148827641Y-131445000D01*
X148845037Y-131268373D01*
X148896557Y-131098534D01*
X148896557Y-131098533D01*
X148980221Y-130942011D01*
X148980222Y-130942009D01*
X149009552Y-130906271D01*
X149092814Y-130804814D01*
X149194271Y-130721552D01*
X149230009Y-130692222D01*
X149286885Y-130661821D01*
X149386533Y-130608557D01*
X149486750Y-130578157D01*
X149556373Y-130557037D01*
X149622557Y-130550519D01*
X149688740Y-130544000D01*
X149777260Y-130544000D01*
X149843443Y-130550519D01*
X149843443Y-130550519D01*
G37*
G36*
X158555542Y-130520118D02*
X158621727Y-130526637D01*
X158734953Y-130560984D01*
X158791567Y-130578157D01*
X158930187Y-130652252D01*
X158948091Y-130661822D01*
X158983829Y-130691152D01*
X159085286Y-130774414D01*
X159168548Y-130875871D01*
X159197878Y-130911609D01*
X159197879Y-130911611D01*
X159281543Y-131068133D01*
X159290765Y-131098534D01*
X159333063Y-131237973D01*
X159350459Y-131414600D01*
X159333063Y-131591227D01*
X159323841Y-131621627D01*
X159281543Y-131761067D01*
X159207448Y-131899687D01*
X159197878Y-131917591D01*
X159172931Y-131947989D01*
X159085286Y-132054786D01*
X158983829Y-132138048D01*
X158948091Y-132167378D01*
X158948089Y-132167379D01*
X158791567Y-132251043D01*
X158734953Y-132268216D01*
X158621727Y-132302563D01*
X158555542Y-132309082D01*
X158489360Y-132315600D01*
X158400840Y-132315600D01*
X158334658Y-132309082D01*
X158268473Y-132302563D01*
X158155247Y-132268216D01*
X158098633Y-132251043D01*
X157942111Y-132167379D01*
X157942109Y-132167378D01*
X157906371Y-132138048D01*
X157804914Y-132054786D01*
X157717269Y-131947989D01*
X157692322Y-131917591D01*
X157682752Y-131899687D01*
X157608657Y-131761067D01*
X157566359Y-131621627D01*
X157557137Y-131591227D01*
X157539741Y-131414600D01*
X157557137Y-131237973D01*
X157599435Y-131098534D01*
X157608657Y-131068133D01*
X157692321Y-130911611D01*
X157692322Y-130911609D01*
X157721652Y-130875871D01*
X157804914Y-130774414D01*
X157906371Y-130691152D01*
X157942109Y-130661822D01*
X157960013Y-130652252D01*
X158098633Y-130578157D01*
X158155247Y-130560984D01*
X158268473Y-130526637D01*
X158334658Y-130520118D01*
X158400840Y-130513600D01*
X158489360Y-130513600D01*
X158555542Y-130520118D01*
X158555542Y-130520118D01*
G37*
G36*
X138616643Y-128010519D02*
X138682827Y-128017037D01*
X138752450Y-128038157D01*
X138852667Y-128068557D01*
X138952315Y-128121821D01*
X139009191Y-128152222D01*
X139044929Y-128181552D01*
X139146386Y-128264814D01*
X139229648Y-128366271D01*
X139258978Y-128402009D01*
X139258979Y-128402011D01*
X139342643Y-128558533D01*
X139342643Y-128558534D01*
X139394163Y-128728373D01*
X139411559Y-128905000D01*
X139394163Y-129081627D01*
X139359816Y-129194853D01*
X139342643Y-129251467D01*
X139275228Y-129377589D01*
X139258978Y-129407991D01*
X139229648Y-129443729D01*
X139146386Y-129545186D01*
X139046233Y-129627378D01*
X139009191Y-129657778D01*
X139009189Y-129657779D01*
X138852667Y-129741443D01*
X138796053Y-129758616D01*
X138682827Y-129792963D01*
X138616643Y-129799481D01*
X138550460Y-129806000D01*
X138461940Y-129806000D01*
X138395757Y-129799481D01*
X138329573Y-129792963D01*
X138216347Y-129758616D01*
X138159733Y-129741443D01*
X138003211Y-129657779D01*
X138003209Y-129657778D01*
X137966167Y-129627378D01*
X137866014Y-129545186D01*
X137782752Y-129443729D01*
X137753422Y-129407991D01*
X137737172Y-129377589D01*
X137669757Y-129251467D01*
X137652584Y-129194853D01*
X137618237Y-129081627D01*
X137600841Y-128905000D01*
X137618237Y-128728373D01*
X137669757Y-128558534D01*
X137669757Y-128558533D01*
X137753421Y-128402011D01*
X137753422Y-128402009D01*
X137782752Y-128366271D01*
X137866014Y-128264814D01*
X137967471Y-128181552D01*
X138003209Y-128152222D01*
X138060085Y-128121821D01*
X138159733Y-128068557D01*
X138259950Y-128038157D01*
X138329573Y-128017037D01*
X138395757Y-128010519D01*
X138461940Y-128004000D01*
X138550460Y-128004000D01*
X138616643Y-128010519D01*
X138616643Y-128010519D01*
G37*
G36*
X158555542Y-127980118D02*
X158621727Y-127986637D01*
X158734953Y-128020984D01*
X158791567Y-128038157D01*
X158930187Y-128112252D01*
X158948091Y-128121822D01*
X158983829Y-128151152D01*
X159085286Y-128234414D01*
X159168548Y-128335871D01*
X159197878Y-128371609D01*
X159197879Y-128371611D01*
X159281543Y-128528133D01*
X159290765Y-128558534D01*
X159333063Y-128697973D01*
X159350459Y-128874600D01*
X159333063Y-129051227D01*
X159323841Y-129081627D01*
X159281543Y-129221067D01*
X159207448Y-129359687D01*
X159197878Y-129377591D01*
X159172931Y-129407989D01*
X159085286Y-129514786D01*
X158983829Y-129598048D01*
X158948091Y-129627378D01*
X158948089Y-129627379D01*
X158791567Y-129711043D01*
X158734953Y-129728216D01*
X158621727Y-129762563D01*
X158555542Y-129769082D01*
X158489360Y-129775600D01*
X158400840Y-129775600D01*
X158334658Y-129769082D01*
X158268473Y-129762563D01*
X158155247Y-129728216D01*
X158098633Y-129711043D01*
X157942111Y-129627379D01*
X157942109Y-129627378D01*
X157906371Y-129598048D01*
X157804914Y-129514786D01*
X157717269Y-129407989D01*
X157692322Y-129377591D01*
X157682752Y-129359687D01*
X157608657Y-129221067D01*
X157566359Y-129081627D01*
X157557137Y-129051227D01*
X157539741Y-128874600D01*
X157557137Y-128697973D01*
X157599435Y-128558534D01*
X157608657Y-128528133D01*
X157692321Y-128371611D01*
X157692322Y-128371609D01*
X157721652Y-128335871D01*
X157804914Y-128234414D01*
X157906371Y-128151152D01*
X157942109Y-128121822D01*
X157960013Y-128112252D01*
X158098633Y-128038157D01*
X158155247Y-128020984D01*
X158268473Y-127986637D01*
X158334658Y-127980118D01*
X158400840Y-127973600D01*
X158489360Y-127973600D01*
X158555542Y-127980118D01*
X158555542Y-127980118D01*
G37*
G36*
X147000000Y-128226000D02*
X146400000Y-128226000D01*
X146400000Y-127126000D01*
X147000000Y-127126000D01*
X147000000Y-128226000D01*
X147000000Y-128226000D01*
G37*
G36*
X145700000Y-128226000D02*
X145100000Y-128226000D01*
X145100000Y-127126000D01*
X145700000Y-127126000D01*
X145700000Y-128226000D01*
X145700000Y-128226000D01*
G37*
G36*
X138616642Y-125470518D02*
X138682827Y-125477037D01*
X138752450Y-125498157D01*
X138852667Y-125528557D01*
X138952315Y-125581821D01*
X139009191Y-125612222D01*
X139044929Y-125641552D01*
X139146386Y-125724814D01*
X139212521Y-125805401D01*
X139258978Y-125862009D01*
X139258979Y-125862011D01*
X139342643Y-126018533D01*
X139342643Y-126018534D01*
X139394163Y-126188373D01*
X139411559Y-126365000D01*
X139394163Y-126541627D01*
X139359816Y-126654853D01*
X139342643Y-126711467D01*
X139275228Y-126837589D01*
X139258978Y-126867991D01*
X139229648Y-126903729D01*
X139146386Y-127005186D01*
X139046233Y-127087378D01*
X139009191Y-127117778D01*
X139009189Y-127117779D01*
X138852667Y-127201443D01*
X138796053Y-127218616D01*
X138682827Y-127252963D01*
X138616643Y-127259481D01*
X138550460Y-127266000D01*
X138461940Y-127266000D01*
X138395757Y-127259481D01*
X138329573Y-127252963D01*
X138216347Y-127218616D01*
X138159733Y-127201443D01*
X138003211Y-127117779D01*
X138003209Y-127117778D01*
X137966167Y-127087378D01*
X137866014Y-127005186D01*
X137782752Y-126903729D01*
X137753422Y-126867991D01*
X137737172Y-126837589D01*
X137669757Y-126711467D01*
X137652584Y-126654853D01*
X137618237Y-126541627D01*
X137600841Y-126365000D01*
X137618237Y-126188373D01*
X137669757Y-126018534D01*
X137669757Y-126018533D01*
X137753421Y-125862011D01*
X137753422Y-125862009D01*
X137799879Y-125805401D01*
X137866014Y-125724814D01*
X137967471Y-125641552D01*
X138003209Y-125612222D01*
X138060085Y-125581821D01*
X138159733Y-125528557D01*
X138259950Y-125498157D01*
X138329573Y-125477037D01*
X138395758Y-125470518D01*
X138461940Y-125464000D01*
X138550460Y-125464000D01*
X138616642Y-125470518D01*
X138616642Y-125470518D01*
G37*
G36*
X158555543Y-125440119D02*
X158621727Y-125446637D01*
X158734953Y-125480984D01*
X158791567Y-125498157D01*
X158930187Y-125572252D01*
X158948091Y-125581822D01*
X158983829Y-125611152D01*
X159085286Y-125694414D01*
X159168548Y-125795871D01*
X159197878Y-125831609D01*
X159197879Y-125831611D01*
X159281543Y-125988133D01*
X159290765Y-126018534D01*
X159333063Y-126157973D01*
X159350459Y-126334600D01*
X159333063Y-126511227D01*
X159323841Y-126541627D01*
X159281543Y-126681067D01*
X159207448Y-126819687D01*
X159197878Y-126837591D01*
X159172931Y-126867989D01*
X159085286Y-126974786D01*
X158983829Y-127058048D01*
X158948091Y-127087378D01*
X158948089Y-127087379D01*
X158791567Y-127171043D01*
X158734953Y-127188216D01*
X158621727Y-127222563D01*
X158555543Y-127229081D01*
X158489360Y-127235600D01*
X158400840Y-127235600D01*
X158334657Y-127229081D01*
X158268473Y-127222563D01*
X158155247Y-127188216D01*
X158098633Y-127171043D01*
X157942111Y-127087379D01*
X157942109Y-127087378D01*
X157906371Y-127058048D01*
X157804914Y-126974786D01*
X157717269Y-126867989D01*
X157692322Y-126837591D01*
X157682752Y-126819687D01*
X157608657Y-126681067D01*
X157566359Y-126541627D01*
X157557137Y-126511227D01*
X157539741Y-126334600D01*
X157557137Y-126157973D01*
X157599435Y-126018534D01*
X157608657Y-125988133D01*
X157692321Y-125831611D01*
X157692322Y-125831609D01*
X157721652Y-125795871D01*
X157804914Y-125694414D01*
X157906371Y-125611152D01*
X157942109Y-125581822D01*
X157960013Y-125572252D01*
X158098633Y-125498157D01*
X158155247Y-125480984D01*
X158268473Y-125446637D01*
X158334657Y-125440119D01*
X158400840Y-125433600D01*
X158489360Y-125433600D01*
X158555543Y-125440119D01*
X158555543Y-125440119D01*
G37*
G36*
X147000000Y-126026000D02*
X145100000Y-126026000D01*
X145100000Y-124926000D01*
X147000000Y-124926000D01*
X147000000Y-126026000D01*
X147000000Y-126026000D01*
G37*
G36*
X151878591Y-124954085D02*
X151912569Y-124964393D01*
X151943887Y-124981133D01*
X151971339Y-125003661D01*
X151993867Y-125031113D01*
X152010607Y-125062431D01*
X152020915Y-125096409D01*
X152025000Y-125137890D01*
X152025000Y-125814110D01*
X152020915Y-125855591D01*
X152010607Y-125889569D01*
X151993867Y-125920887D01*
X151971339Y-125948339D01*
X151943887Y-125970867D01*
X151912569Y-125987607D01*
X151878591Y-125997915D01*
X151837110Y-126002000D01*
X151235890Y-126002000D01*
X151194409Y-125997915D01*
X151160431Y-125987607D01*
X151129113Y-125970867D01*
X151101661Y-125948339D01*
X151079133Y-125920887D01*
X151062393Y-125889569D01*
X151052085Y-125855591D01*
X151048000Y-125814110D01*
X151048000Y-125137890D01*
X151052085Y-125096409D01*
X151062393Y-125062431D01*
X151079133Y-125031113D01*
X151101661Y-125003661D01*
X151129113Y-124981133D01*
X151160431Y-124964393D01*
X151194409Y-124954085D01*
X151235890Y-124950000D01*
X151837110Y-124950000D01*
X151878591Y-124954085D01*
X151878591Y-124954085D01*
G37*
G36*
X150303591Y-124954085D02*
X150337569Y-124964393D01*
X150368887Y-124981133D01*
X150396339Y-125003661D01*
X150418867Y-125031113D01*
X150435607Y-125062431D01*
X150445915Y-125096409D01*
X150450000Y-125137890D01*
X150450000Y-125814110D01*
X150445915Y-125855591D01*
X150435607Y-125889569D01*
X150418867Y-125920887D01*
X150396339Y-125948339D01*
X150368887Y-125970867D01*
X150337569Y-125987607D01*
X150303591Y-125997915D01*
X150262110Y-126002000D01*
X149660890Y-126002000D01*
X149619409Y-125997915D01*
X149585431Y-125987607D01*
X149554113Y-125970867D01*
X149526661Y-125948339D01*
X149504133Y-125920887D01*
X149487393Y-125889569D01*
X149477085Y-125855591D01*
X149473000Y-125814110D01*
X149473000Y-125137890D01*
X149477085Y-125096409D01*
X149487393Y-125062431D01*
X149504133Y-125031113D01*
X149526661Y-125003661D01*
X149554113Y-124981133D01*
X149585431Y-124964393D01*
X149619409Y-124954085D01*
X149660890Y-124950000D01*
X150262110Y-124950000D01*
X150303591Y-124954085D01*
X150303591Y-124954085D01*
G37*
G36*
X138616643Y-122930519D02*
X138682827Y-122937037D01*
X138752450Y-122958157D01*
X138852667Y-122988557D01*
X138952315Y-123041821D01*
X139009191Y-123072222D01*
X139044929Y-123101552D01*
X139146386Y-123184814D01*
X139212531Y-123265413D01*
X139258978Y-123322009D01*
X139258979Y-123322011D01*
X139342643Y-123478533D01*
X139342643Y-123478534D01*
X139394163Y-123648373D01*
X139411559Y-123825000D01*
X139394163Y-124001627D01*
X139370332Y-124080187D01*
X139342643Y-124171467D01*
X139275228Y-124297589D01*
X139258978Y-124327991D01*
X139229648Y-124363729D01*
X139146386Y-124465186D01*
X139046233Y-124547378D01*
X139009191Y-124577778D01*
X139009189Y-124577779D01*
X138852667Y-124661443D01*
X138796053Y-124678616D01*
X138682827Y-124712963D01*
X138616643Y-124719481D01*
X138550460Y-124726000D01*
X138461940Y-124726000D01*
X138395757Y-124719481D01*
X138329573Y-124712963D01*
X138216347Y-124678616D01*
X138159733Y-124661443D01*
X138003211Y-124577779D01*
X138003209Y-124577778D01*
X137966167Y-124547378D01*
X137866014Y-124465186D01*
X137782752Y-124363729D01*
X137753422Y-124327991D01*
X137737172Y-124297589D01*
X137669757Y-124171467D01*
X137642068Y-124080187D01*
X137618237Y-124001627D01*
X137600841Y-123825000D01*
X137618237Y-123648373D01*
X137669757Y-123478534D01*
X137669757Y-123478533D01*
X137753421Y-123322011D01*
X137753422Y-123322009D01*
X137799869Y-123265413D01*
X137866014Y-123184814D01*
X137967471Y-123101552D01*
X138003209Y-123072222D01*
X138060085Y-123041821D01*
X138159733Y-122988557D01*
X138259950Y-122958157D01*
X138329573Y-122937037D01*
X138395757Y-122930519D01*
X138461940Y-122924000D01*
X138550460Y-122924000D01*
X138616643Y-122930519D01*
X138616643Y-122930519D01*
G37*
G36*
X158555542Y-122900118D02*
X158621727Y-122906637D01*
X158734953Y-122940984D01*
X158791567Y-122958157D01*
X158930187Y-123032252D01*
X158948091Y-123041822D01*
X158983829Y-123071152D01*
X159085286Y-123154414D01*
X159135362Y-123215433D01*
X159197878Y-123291609D01*
X159197879Y-123291611D01*
X159281543Y-123448133D01*
X159290765Y-123478534D01*
X159333063Y-123617973D01*
X159350459Y-123794600D01*
X159333063Y-123971227D01*
X159308334Y-124052748D01*
X159281543Y-124141067D01*
X159207448Y-124279687D01*
X159197878Y-124297591D01*
X159172931Y-124327989D01*
X159085286Y-124434786D01*
X158983829Y-124518048D01*
X158948091Y-124547378D01*
X158948089Y-124547379D01*
X158791567Y-124631043D01*
X158734953Y-124648216D01*
X158621727Y-124682563D01*
X158555542Y-124689082D01*
X158489360Y-124695600D01*
X158400840Y-124695600D01*
X158334658Y-124689082D01*
X158268473Y-124682563D01*
X158155247Y-124648216D01*
X158098633Y-124631043D01*
X157942111Y-124547379D01*
X157942109Y-124547378D01*
X157906371Y-124518048D01*
X157804914Y-124434786D01*
X157717269Y-124327989D01*
X157692322Y-124297591D01*
X157682752Y-124279687D01*
X157608657Y-124141067D01*
X157581866Y-124052748D01*
X157557137Y-123971227D01*
X157539741Y-123794600D01*
X157557137Y-123617973D01*
X157599435Y-123478534D01*
X157608657Y-123448133D01*
X157692321Y-123291611D01*
X157692322Y-123291609D01*
X157754838Y-123215433D01*
X157804914Y-123154414D01*
X157906371Y-123071152D01*
X157942109Y-123041822D01*
X157960013Y-123032252D01*
X158098633Y-122958157D01*
X158155247Y-122940984D01*
X158268473Y-122906637D01*
X158334658Y-122900118D01*
X158400840Y-122893600D01*
X158489360Y-122893600D01*
X158555542Y-122900118D01*
X158555542Y-122900118D01*
G37*
G36*
X155714000Y-124624400D02*
X153912000Y-124624400D01*
X153912000Y-122822400D01*
X155714000Y-122822400D01*
X155714000Y-124624400D01*
X155714000Y-124624400D01*
G37*
G36*
X152855791Y-123188385D02*
X152889769Y-123198693D01*
X152921087Y-123215433D01*
X152948539Y-123237961D01*
X152971067Y-123265413D01*
X152987807Y-123296731D01*
X152998115Y-123330709D01*
X153002200Y-123372190D01*
X153002200Y-123973410D01*
X152998115Y-124014891D01*
X152987807Y-124048869D01*
X152971067Y-124080187D01*
X152948539Y-124107639D01*
X152921087Y-124130167D01*
X152889769Y-124146907D01*
X152855791Y-124157215D01*
X152814310Y-124161300D01*
X152138090Y-124161300D01*
X152096609Y-124157215D01*
X152062631Y-124146907D01*
X152031313Y-124130167D01*
X152003861Y-124107639D01*
X151981333Y-124080187D01*
X151964593Y-124048869D01*
X151954285Y-124014891D01*
X151950200Y-123973410D01*
X151950200Y-123372190D01*
X151954285Y-123330709D01*
X151964593Y-123296731D01*
X151981333Y-123265413D01*
X152003861Y-123237961D01*
X152031313Y-123215433D01*
X152062631Y-123198693D01*
X152096609Y-123188385D01*
X152138090Y-123184300D01*
X152814310Y-123184300D01*
X152855791Y-123188385D01*
X152855791Y-123188385D01*
G37*
G36*
X152855791Y-121613385D02*
X152889769Y-121623693D01*
X152921087Y-121640433D01*
X152948539Y-121662961D01*
X152971067Y-121690413D01*
X152987807Y-121721731D01*
X152998115Y-121755709D01*
X153002200Y-121797190D01*
X153002200Y-122398410D01*
X152998115Y-122439891D01*
X152987807Y-122473869D01*
X152971067Y-122505187D01*
X152948539Y-122532639D01*
X152921087Y-122555167D01*
X152889769Y-122571907D01*
X152855791Y-122582215D01*
X152814310Y-122586300D01*
X152138090Y-122586300D01*
X152096609Y-122582215D01*
X152062631Y-122571907D01*
X152031313Y-122555167D01*
X152003861Y-122532639D01*
X151981333Y-122505187D01*
X151964593Y-122473869D01*
X151954285Y-122439891D01*
X151950200Y-122398410D01*
X151950200Y-121797190D01*
X151954285Y-121755709D01*
X151964593Y-121721731D01*
X151981333Y-121690413D01*
X152003861Y-121662961D01*
X152031313Y-121640433D01*
X152062631Y-121623693D01*
X152096609Y-121613385D01*
X152138090Y-121609300D01*
X152814310Y-121609300D01*
X152855791Y-121613385D01*
X152855791Y-121613385D01*
G37*
G36*
X138616643Y-120390519D02*
X138682827Y-120397037D01*
X138752450Y-120418157D01*
X138852667Y-120448557D01*
X138952315Y-120501821D01*
X139009191Y-120532222D01*
X139044929Y-120561552D01*
X139146386Y-120644814D01*
X139229648Y-120746271D01*
X139258978Y-120782009D01*
X139258979Y-120782011D01*
X139342643Y-120938533D01*
X139342643Y-120938534D01*
X139394163Y-121108373D01*
X139411559Y-121285000D01*
X139394163Y-121461627D01*
X139359816Y-121574853D01*
X139342643Y-121631467D01*
X139294395Y-121721731D01*
X139258978Y-121787991D01*
X139244281Y-121805899D01*
X139146386Y-121925186D01*
X139046233Y-122007378D01*
X139009191Y-122037778D01*
X139009189Y-122037779D01*
X138852667Y-122121443D01*
X138796053Y-122138616D01*
X138682827Y-122172963D01*
X138616642Y-122179482D01*
X138550460Y-122186000D01*
X138461940Y-122186000D01*
X138395758Y-122179482D01*
X138329573Y-122172963D01*
X138216347Y-122138616D01*
X138159733Y-122121443D01*
X138003211Y-122037779D01*
X138003209Y-122037778D01*
X137966167Y-122007378D01*
X137866014Y-121925186D01*
X137768119Y-121805899D01*
X137753422Y-121787991D01*
X137718005Y-121721731D01*
X137669757Y-121631467D01*
X137652584Y-121574853D01*
X137618237Y-121461627D01*
X137600841Y-121285000D01*
X137618237Y-121108373D01*
X137669757Y-120938534D01*
X137669757Y-120938533D01*
X137753421Y-120782011D01*
X137753422Y-120782009D01*
X137782752Y-120746271D01*
X137866014Y-120644814D01*
X137967471Y-120561552D01*
X138003209Y-120532222D01*
X138060085Y-120501821D01*
X138159733Y-120448557D01*
X138259950Y-120418157D01*
X138329573Y-120397037D01*
X138395757Y-120390519D01*
X138461940Y-120384000D01*
X138550460Y-120384000D01*
X138616643Y-120390519D01*
X138616643Y-120390519D01*
G37*
G36*
X158555543Y-120360119D02*
X158621727Y-120366637D01*
X158734953Y-120400984D01*
X158791567Y-120418157D01*
X158930187Y-120492252D01*
X158948091Y-120501822D01*
X158983829Y-120531152D01*
X159085286Y-120614414D01*
X159168548Y-120715871D01*
X159197878Y-120751609D01*
X159197879Y-120751611D01*
X159281543Y-120908133D01*
X159290765Y-120938534D01*
X159333063Y-121077973D01*
X159350459Y-121254600D01*
X159333063Y-121431227D01*
X159323841Y-121461627D01*
X159281543Y-121601067D01*
X159233786Y-121690413D01*
X159197878Y-121757591D01*
X159195835Y-121760080D01*
X159085286Y-121894786D01*
X158983829Y-121978048D01*
X158948091Y-122007378D01*
X158948089Y-122007379D01*
X158791567Y-122091043D01*
X158734953Y-122108216D01*
X158621727Y-122142563D01*
X158555542Y-122149082D01*
X158489360Y-122155600D01*
X158400840Y-122155600D01*
X158334658Y-122149082D01*
X158268473Y-122142563D01*
X158155247Y-122108216D01*
X158098633Y-122091043D01*
X157942111Y-122007379D01*
X157942109Y-122007378D01*
X157906371Y-121978048D01*
X157804914Y-121894786D01*
X157694365Y-121760080D01*
X157692322Y-121757591D01*
X157656414Y-121690413D01*
X157608657Y-121601067D01*
X157566359Y-121461627D01*
X157557137Y-121431227D01*
X157539741Y-121254600D01*
X157557137Y-121077973D01*
X157599435Y-120938534D01*
X157608657Y-120908133D01*
X157692321Y-120751611D01*
X157692322Y-120751609D01*
X157721652Y-120715871D01*
X157804914Y-120614414D01*
X157906371Y-120531152D01*
X157942109Y-120501822D01*
X157960013Y-120492252D01*
X158098633Y-120418157D01*
X158155247Y-120400984D01*
X158268473Y-120366637D01*
X158334657Y-120360119D01*
X158400840Y-120353600D01*
X158489360Y-120353600D01*
X158555543Y-120360119D01*
X158555543Y-120360119D01*
G37*
G36*
X154923442Y-120288918D02*
X154989627Y-120295437D01*
X155102853Y-120329784D01*
X155159467Y-120346957D01*
X155292671Y-120418157D01*
X155315991Y-120430622D01*
X155351729Y-120459952D01*
X155453186Y-120543214D01*
X155511617Y-120614414D01*
X155565778Y-120680409D01*
X155565779Y-120680411D01*
X155649443Y-120836933D01*
X155649443Y-120836934D01*
X155700963Y-121006773D01*
X155718359Y-121183400D01*
X155700963Y-121360027D01*
X155679365Y-121431225D01*
X155649443Y-121529867D01*
X155604801Y-121613385D01*
X155565778Y-121686391D01*
X155562477Y-121690413D01*
X155453186Y-121823586D01*
X155366428Y-121894785D01*
X155315991Y-121936178D01*
X155315989Y-121936179D01*
X155159467Y-122019843D01*
X155102853Y-122037016D01*
X154989627Y-122071363D01*
X154923442Y-122077882D01*
X154857260Y-122084400D01*
X154768740Y-122084400D01*
X154702558Y-122077882D01*
X154636373Y-122071363D01*
X154523147Y-122037016D01*
X154466533Y-122019843D01*
X154310011Y-121936179D01*
X154310009Y-121936178D01*
X154259572Y-121894785D01*
X154172814Y-121823586D01*
X154063523Y-121690413D01*
X154060222Y-121686391D01*
X154021199Y-121613385D01*
X153976557Y-121529867D01*
X153946635Y-121431225D01*
X153925037Y-121360027D01*
X153907641Y-121183400D01*
X153925037Y-121006773D01*
X153976557Y-120836934D01*
X153976557Y-120836933D01*
X154060221Y-120680411D01*
X154060222Y-120680409D01*
X154114383Y-120614414D01*
X154172814Y-120543214D01*
X154274271Y-120459952D01*
X154310009Y-120430622D01*
X154333329Y-120418157D01*
X154466533Y-120346957D01*
X154523147Y-120329784D01*
X154636373Y-120295437D01*
X154702558Y-120288918D01*
X154768740Y-120282400D01*
X154857260Y-120282400D01*
X154923442Y-120288918D01*
X154923442Y-120288918D01*
G37*
G36*
X138616642Y-117850518D02*
X138682827Y-117857037D01*
X138752450Y-117878157D01*
X138852667Y-117908557D01*
X138952315Y-117961821D01*
X139009191Y-117992222D01*
X139044929Y-118021552D01*
X139146386Y-118104814D01*
X139224955Y-118200552D01*
X139258978Y-118242009D01*
X139258979Y-118242011D01*
X139342643Y-118398533D01*
X139342643Y-118398534D01*
X139394163Y-118568373D01*
X139411559Y-118745000D01*
X139394163Y-118921627D01*
X139360813Y-119031569D01*
X139342643Y-119091467D01*
X139314563Y-119144000D01*
X139258978Y-119247991D01*
X139229648Y-119283729D01*
X139146386Y-119385186D01*
X139046233Y-119467378D01*
X139009191Y-119497778D01*
X139009189Y-119497779D01*
X138852667Y-119581443D01*
X138796053Y-119598616D01*
X138682827Y-119632963D01*
X138616643Y-119639481D01*
X138550460Y-119646000D01*
X138461940Y-119646000D01*
X138395757Y-119639481D01*
X138329573Y-119632963D01*
X138216347Y-119598616D01*
X138159733Y-119581443D01*
X138003211Y-119497779D01*
X138003209Y-119497778D01*
X137966167Y-119467378D01*
X137866014Y-119385186D01*
X137782752Y-119283729D01*
X137753422Y-119247991D01*
X137697837Y-119144000D01*
X137669757Y-119091467D01*
X137651587Y-119031569D01*
X137618237Y-118921627D01*
X137600841Y-118745000D01*
X137618237Y-118568373D01*
X137669757Y-118398534D01*
X137669757Y-118398533D01*
X137753421Y-118242011D01*
X137753422Y-118242009D01*
X137787445Y-118200552D01*
X137866014Y-118104814D01*
X137967471Y-118021552D01*
X138003209Y-117992222D01*
X138060085Y-117961821D01*
X138159733Y-117908557D01*
X138259950Y-117878157D01*
X138329573Y-117857037D01*
X138395758Y-117850518D01*
X138461940Y-117844000D01*
X138550460Y-117844000D01*
X138616642Y-117850518D01*
X138616642Y-117850518D01*
G37*
G36*
X158555543Y-117820119D02*
X158621727Y-117826637D01*
X158734953Y-117860984D01*
X158791567Y-117878157D01*
X158930187Y-117952252D01*
X158948091Y-117961822D01*
X158983829Y-117991152D01*
X159085286Y-118074414D01*
X159158428Y-118163539D01*
X159197878Y-118211609D01*
X159197879Y-118211611D01*
X159281543Y-118368133D01*
X159290765Y-118398534D01*
X159333063Y-118537973D01*
X159350459Y-118714600D01*
X159333063Y-118891227D01*
X159323841Y-118921627D01*
X159281543Y-119061067D01*
X159244907Y-119129607D01*
X159197878Y-119217591D01*
X159172931Y-119247989D01*
X159085286Y-119354786D01*
X158983829Y-119438048D01*
X158948091Y-119467378D01*
X158948089Y-119467379D01*
X158791567Y-119551043D01*
X158734953Y-119568216D01*
X158621727Y-119602563D01*
X158555543Y-119609081D01*
X158489360Y-119615600D01*
X158400840Y-119615600D01*
X158334657Y-119609081D01*
X158268473Y-119602563D01*
X158155247Y-119568216D01*
X158098633Y-119551043D01*
X157942111Y-119467379D01*
X157942109Y-119467378D01*
X157906371Y-119438048D01*
X157804914Y-119354786D01*
X157717269Y-119247989D01*
X157692322Y-119217591D01*
X157645293Y-119129607D01*
X157608657Y-119061067D01*
X157566359Y-118921627D01*
X157557137Y-118891227D01*
X157539741Y-118714600D01*
X157557137Y-118537973D01*
X157599435Y-118398534D01*
X157608657Y-118368133D01*
X157692321Y-118211611D01*
X157692322Y-118211609D01*
X157731772Y-118163539D01*
X157804914Y-118074414D01*
X157906371Y-117991152D01*
X157942109Y-117961822D01*
X157960013Y-117952252D01*
X158098633Y-117878157D01*
X158155247Y-117860984D01*
X158268473Y-117826637D01*
X158334657Y-117820119D01*
X158400840Y-117813600D01*
X158489360Y-117813600D01*
X158555543Y-117820119D01*
X158555543Y-117820119D01*
G37*
G36*
X150380091Y-118096085D02*
X150414069Y-118106393D01*
X150445387Y-118123133D01*
X150472839Y-118145661D01*
X150495367Y-118173113D01*
X150512107Y-118204431D01*
X150522415Y-118238409D01*
X150526500Y-118279890D01*
X150526500Y-118956110D01*
X150522415Y-118997591D01*
X150512107Y-119031569D01*
X150495367Y-119062887D01*
X150472839Y-119090339D01*
X150445387Y-119112867D01*
X150414069Y-119129607D01*
X150380091Y-119139915D01*
X150338610Y-119144000D01*
X149737390Y-119144000D01*
X149695909Y-119139915D01*
X149661931Y-119129607D01*
X149630613Y-119112867D01*
X149603161Y-119090339D01*
X149580633Y-119062887D01*
X149563893Y-119031569D01*
X149553585Y-118997591D01*
X149549500Y-118956110D01*
X149549500Y-118279890D01*
X149553585Y-118238409D01*
X149563893Y-118204431D01*
X149580633Y-118173113D01*
X149603161Y-118145661D01*
X149630613Y-118123133D01*
X149661931Y-118106393D01*
X149695909Y-118096085D01*
X149737390Y-118092000D01*
X150338610Y-118092000D01*
X150380091Y-118096085D01*
X150380091Y-118096085D01*
G37*
G36*
X148805091Y-118096085D02*
X148839069Y-118106393D01*
X148870387Y-118123133D01*
X148897839Y-118145661D01*
X148920367Y-118173113D01*
X148937107Y-118204431D01*
X148947415Y-118238409D01*
X148951500Y-118279890D01*
X148951500Y-118956110D01*
X148947415Y-118997591D01*
X148937107Y-119031569D01*
X148920367Y-119062887D01*
X148897839Y-119090339D01*
X148870387Y-119112867D01*
X148839069Y-119129607D01*
X148805091Y-119139915D01*
X148763610Y-119144000D01*
X148162390Y-119144000D01*
X148120909Y-119139915D01*
X148086931Y-119129607D01*
X148055613Y-119112867D01*
X148028161Y-119090339D01*
X148005633Y-119062887D01*
X147988893Y-119031569D01*
X147978585Y-118997591D01*
X147974500Y-118956110D01*
X147974500Y-118279890D01*
X147978585Y-118238409D01*
X147988893Y-118204431D01*
X148005633Y-118173113D01*
X148028161Y-118145661D01*
X148055613Y-118123133D01*
X148086931Y-118106393D01*
X148120909Y-118096085D01*
X148162390Y-118092000D01*
X148763610Y-118092000D01*
X148805091Y-118096085D01*
X148805091Y-118096085D01*
G37*
G36*
X138616642Y-115310518D02*
X138682827Y-115317037D01*
X138752450Y-115338157D01*
X138852667Y-115368557D01*
X138989302Y-115441591D01*
X139009191Y-115452222D01*
X139037639Y-115475569D01*
X139146386Y-115564814D01*
X139229648Y-115666271D01*
X139258978Y-115702009D01*
X139258979Y-115702011D01*
X139342643Y-115858533D01*
X139342643Y-115858534D01*
X139394163Y-116028373D01*
X139411559Y-116205000D01*
X139394163Y-116381627D01*
X139359816Y-116494853D01*
X139342643Y-116551467D01*
X139275228Y-116677589D01*
X139258978Y-116707991D01*
X139232093Y-116740750D01*
X139146386Y-116845186D01*
X139063191Y-116913461D01*
X139009191Y-116957778D01*
X139009189Y-116957779D01*
X138852667Y-117041443D01*
X138796053Y-117058616D01*
X138682827Y-117092963D01*
X138616643Y-117099481D01*
X138550460Y-117106000D01*
X138461940Y-117106000D01*
X138395757Y-117099481D01*
X138329573Y-117092963D01*
X138216347Y-117058616D01*
X138159733Y-117041443D01*
X138003211Y-116957779D01*
X138003209Y-116957778D01*
X137949209Y-116913461D01*
X137866014Y-116845186D01*
X137780307Y-116740750D01*
X137753422Y-116707991D01*
X137737172Y-116677589D01*
X137669757Y-116551467D01*
X137652584Y-116494853D01*
X137618237Y-116381627D01*
X137600841Y-116205000D01*
X137618237Y-116028373D01*
X137669757Y-115858534D01*
X137669757Y-115858533D01*
X137753421Y-115702011D01*
X137753422Y-115702009D01*
X137782752Y-115666271D01*
X137866014Y-115564814D01*
X137974761Y-115475569D01*
X138003209Y-115452222D01*
X138023098Y-115441591D01*
X138159733Y-115368557D01*
X138259950Y-115338157D01*
X138329573Y-115317037D01*
X138395758Y-115310518D01*
X138461940Y-115304000D01*
X138550460Y-115304000D01*
X138616642Y-115310518D01*
X138616642Y-115310518D01*
G37*
G36*
X158555543Y-115280119D02*
X158621727Y-115286637D01*
X158734953Y-115320984D01*
X158791567Y-115338157D01*
X158891178Y-115391401D01*
X158948091Y-115421822D01*
X158966853Y-115437220D01*
X159085286Y-115534414D01*
X159168548Y-115635871D01*
X159197878Y-115671609D01*
X159197879Y-115671611D01*
X159281543Y-115828133D01*
X159290765Y-115858534D01*
X159333063Y-115997973D01*
X159350459Y-116174600D01*
X159333063Y-116351227D01*
X159323841Y-116381627D01*
X159281543Y-116521067D01*
X159207448Y-116659687D01*
X159197878Y-116677591D01*
X159172931Y-116707989D01*
X159085286Y-116814786D01*
X158983829Y-116898048D01*
X158948091Y-116927378D01*
X158930187Y-116936948D01*
X158791567Y-117011043D01*
X158734953Y-117028216D01*
X158621727Y-117062563D01*
X158555543Y-117069081D01*
X158489360Y-117075600D01*
X158400840Y-117075600D01*
X158334657Y-117069081D01*
X158268473Y-117062563D01*
X158155247Y-117028216D01*
X158098633Y-117011043D01*
X157960013Y-116936948D01*
X157942109Y-116927378D01*
X157906371Y-116898048D01*
X157804914Y-116814786D01*
X157717269Y-116707989D01*
X157692322Y-116677591D01*
X157682752Y-116659687D01*
X157608657Y-116521067D01*
X157566359Y-116381627D01*
X157557137Y-116351227D01*
X157539741Y-116174600D01*
X157557137Y-115997973D01*
X157599435Y-115858534D01*
X157608657Y-115828133D01*
X157692321Y-115671611D01*
X157692322Y-115671609D01*
X157721652Y-115635871D01*
X157804914Y-115534414D01*
X157923347Y-115437220D01*
X157942109Y-115421822D01*
X157999022Y-115391401D01*
X158098633Y-115338157D01*
X158155247Y-115320984D01*
X158268473Y-115286637D01*
X158334657Y-115280119D01*
X158400840Y-115273600D01*
X158489360Y-115273600D01*
X158555543Y-115280119D01*
X158555543Y-115280119D01*
G37*
G36*
X146392091Y-115937085D02*
X146426069Y-115947393D01*
X146457387Y-115964133D01*
X146484839Y-115986661D01*
X146507367Y-116014113D01*
X146524107Y-116045431D01*
X146534415Y-116079409D01*
X146538500Y-116120890D01*
X146538500Y-116797110D01*
X146534415Y-116838591D01*
X146524107Y-116872569D01*
X146507367Y-116903887D01*
X146484839Y-116931339D01*
X146457387Y-116953867D01*
X146426069Y-116970607D01*
X146392091Y-116980915D01*
X146350610Y-116985000D01*
X145749390Y-116985000D01*
X145707909Y-116980915D01*
X145673931Y-116970607D01*
X145642613Y-116953867D01*
X145615161Y-116931339D01*
X145592633Y-116903887D01*
X145575893Y-116872569D01*
X145565585Y-116838591D01*
X145561500Y-116797110D01*
X145561500Y-116120890D01*
X145565585Y-116079409D01*
X145575893Y-116045431D01*
X145592633Y-116014113D01*
X145615161Y-115986661D01*
X145642613Y-115964133D01*
X145673931Y-115947393D01*
X145707909Y-115937085D01*
X145749390Y-115933000D01*
X146350610Y-115933000D01*
X146392091Y-115937085D01*
X146392091Y-115937085D01*
G37*
G36*
X147967091Y-115937085D02*
X148001069Y-115947393D01*
X148032387Y-115964133D01*
X148059839Y-115986661D01*
X148082367Y-116014113D01*
X148099107Y-116045431D01*
X148109415Y-116079409D01*
X148113500Y-116120890D01*
X148113500Y-116797110D01*
X148109415Y-116838591D01*
X148099107Y-116872569D01*
X148082367Y-116903887D01*
X148059839Y-116931339D01*
X148032387Y-116953867D01*
X148001069Y-116970607D01*
X147967091Y-116980915D01*
X147925610Y-116985000D01*
X147324390Y-116985000D01*
X147282909Y-116980915D01*
X147248931Y-116970607D01*
X147217613Y-116953867D01*
X147190161Y-116931339D01*
X147167633Y-116903887D01*
X147150893Y-116872569D01*
X147140585Y-116838591D01*
X147136500Y-116797110D01*
X147136500Y-116120890D01*
X147140585Y-116079409D01*
X147150893Y-116045431D01*
X147167633Y-116014113D01*
X147190161Y-115986661D01*
X147217613Y-115964133D01*
X147248931Y-115947393D01*
X147282909Y-115937085D01*
X147324390Y-115933000D01*
X147925610Y-115933000D01*
X147967091Y-115937085D01*
X147967091Y-115937085D01*
G37*
G36*
X151668700Y-115590200D02*
X148965500Y-115590200D01*
X148965500Y-114487000D01*
X151668700Y-114487000D01*
X151668700Y-115590200D01*
X151668700Y-115590200D01*
G37*
G36*
X155714091Y-114540085D02*
X155748069Y-114550393D01*
X155779387Y-114567133D01*
X155806839Y-114589661D01*
X155829367Y-114617113D01*
X155846107Y-114648431D01*
X155856415Y-114682409D01*
X155860500Y-114723890D01*
X155860500Y-115400110D01*
X155856415Y-115441591D01*
X155846107Y-115475569D01*
X155829367Y-115506887D01*
X155806839Y-115534339D01*
X155779387Y-115556867D01*
X155748069Y-115573607D01*
X155714091Y-115583915D01*
X155672610Y-115588000D01*
X155071390Y-115588000D01*
X155029909Y-115583915D01*
X154995931Y-115573607D01*
X154964613Y-115556867D01*
X154937161Y-115534339D01*
X154914633Y-115506887D01*
X154897893Y-115475569D01*
X154887585Y-115441591D01*
X154883500Y-115400110D01*
X154883500Y-114723890D01*
X154887585Y-114682409D01*
X154897893Y-114648431D01*
X154914633Y-114617113D01*
X154937161Y-114589661D01*
X154964613Y-114567133D01*
X154995931Y-114550393D01*
X155029909Y-114540085D01*
X155071390Y-114536000D01*
X155672610Y-114536000D01*
X155714091Y-114540085D01*
X155714091Y-114540085D01*
G37*
G36*
X154139091Y-114540085D02*
X154173069Y-114550393D01*
X154204387Y-114567133D01*
X154231839Y-114589661D01*
X154254367Y-114617113D01*
X154271107Y-114648431D01*
X154281415Y-114682409D01*
X154285500Y-114723890D01*
X154285500Y-115400110D01*
X154281415Y-115441591D01*
X154271107Y-115475569D01*
X154254367Y-115506887D01*
X154231839Y-115534339D01*
X154204387Y-115556867D01*
X154173069Y-115573607D01*
X154139091Y-115583915D01*
X154097610Y-115588000D01*
X153496390Y-115588000D01*
X153454909Y-115583915D01*
X153420931Y-115573607D01*
X153389613Y-115556867D01*
X153362161Y-115534339D01*
X153339633Y-115506887D01*
X153322893Y-115475569D01*
X153312585Y-115441591D01*
X153308500Y-115400110D01*
X153308500Y-114723890D01*
X153312585Y-114682409D01*
X153322893Y-114648431D01*
X153339633Y-114617113D01*
X153362161Y-114589661D01*
X153389613Y-114567133D01*
X153420931Y-114550393D01*
X153454909Y-114540085D01*
X153496390Y-114536000D01*
X154097610Y-114536000D01*
X154139091Y-114540085D01*
X154139091Y-114540085D01*
G37*
G36*
X138616642Y-112770518D02*
X138682827Y-112777037D01*
X138752450Y-112798157D01*
X138852667Y-112828557D01*
X138952315Y-112881821D01*
X139009191Y-112912222D01*
X139044929Y-112941552D01*
X139146386Y-113024814D01*
X139229648Y-113126271D01*
X139258978Y-113162009D01*
X139258979Y-113162011D01*
X139342643Y-113318533D01*
X139342643Y-113318534D01*
X139394163Y-113488373D01*
X139411559Y-113665000D01*
X139394163Y-113841627D01*
X139359816Y-113954853D01*
X139342643Y-114011467D01*
X139275228Y-114137589D01*
X139258978Y-114167991D01*
X139229648Y-114203729D01*
X139146386Y-114305186D01*
X139046233Y-114387378D01*
X139009191Y-114417778D01*
X139009189Y-114417779D01*
X138852667Y-114501443D01*
X138796053Y-114518616D01*
X138682827Y-114552963D01*
X138616642Y-114559482D01*
X138550460Y-114566000D01*
X138461940Y-114566000D01*
X138395758Y-114559482D01*
X138329573Y-114552963D01*
X138216347Y-114518616D01*
X138159733Y-114501443D01*
X138003211Y-114417779D01*
X138003209Y-114417778D01*
X137966167Y-114387378D01*
X137866014Y-114305186D01*
X137782752Y-114203729D01*
X137753422Y-114167991D01*
X137737172Y-114137589D01*
X137669757Y-114011467D01*
X137652584Y-113954853D01*
X137618237Y-113841627D01*
X137600841Y-113665000D01*
X137618237Y-113488373D01*
X137669757Y-113318534D01*
X137669757Y-113318533D01*
X137753421Y-113162011D01*
X137753422Y-113162009D01*
X137782752Y-113126271D01*
X137866014Y-113024814D01*
X137967471Y-112941552D01*
X138003209Y-112912222D01*
X138060085Y-112881821D01*
X138159733Y-112828557D01*
X138259950Y-112798157D01*
X138329573Y-112777037D01*
X138395758Y-112770518D01*
X138461940Y-112764000D01*
X138550460Y-112764000D01*
X138616642Y-112770518D01*
X138616642Y-112770518D01*
G37*
G36*
X158555543Y-112740119D02*
X158621727Y-112746637D01*
X158734953Y-112780984D01*
X158791567Y-112798157D01*
X158930187Y-112872252D01*
X158948091Y-112881822D01*
X158983829Y-112911152D01*
X159085286Y-112994414D01*
X159168548Y-113095871D01*
X159197878Y-113131609D01*
X159197879Y-113131611D01*
X159281543Y-113288133D01*
X159290765Y-113318534D01*
X159333063Y-113457973D01*
X159350459Y-113634600D01*
X159333063Y-113811227D01*
X159323841Y-113841627D01*
X159281543Y-113981067D01*
X159207448Y-114119687D01*
X159197878Y-114137591D01*
X159172931Y-114167989D01*
X159085286Y-114274786D01*
X158983829Y-114358048D01*
X158948091Y-114387378D01*
X158948089Y-114387379D01*
X158791567Y-114471043D01*
X158738963Y-114487000D01*
X158621727Y-114522563D01*
X158555543Y-114529081D01*
X158489360Y-114535600D01*
X158400840Y-114535600D01*
X158334657Y-114529081D01*
X158268473Y-114522563D01*
X158151237Y-114487000D01*
X158098633Y-114471043D01*
X157942111Y-114387379D01*
X157942109Y-114387378D01*
X157906371Y-114358048D01*
X157804914Y-114274786D01*
X157717269Y-114167989D01*
X157692322Y-114137591D01*
X157682752Y-114119687D01*
X157608657Y-113981067D01*
X157566359Y-113841627D01*
X157557137Y-113811227D01*
X157539741Y-113634600D01*
X157557137Y-113457973D01*
X157599435Y-113318534D01*
X157608657Y-113288133D01*
X157692321Y-113131611D01*
X157692322Y-113131609D01*
X157721652Y-113095871D01*
X157804914Y-112994414D01*
X157906371Y-112911152D01*
X157942109Y-112881822D01*
X157960013Y-112872252D01*
X158098633Y-112798157D01*
X158155247Y-112780984D01*
X158268473Y-112746637D01*
X158334657Y-112740119D01*
X158400840Y-112733600D01*
X158489360Y-112733600D01*
X158555543Y-112740119D01*
X158555543Y-112740119D01*
G37*
G36*
X151668700Y-113290200D02*
X148965500Y-113290200D01*
X148965500Y-112187000D01*
X151668700Y-112187000D01*
X151668700Y-113290200D01*
X151668700Y-113290200D01*
G37*
G36*
X143598191Y-111212685D02*
X143632169Y-111222993D01*
X143663487Y-111239733D01*
X143690939Y-111262261D01*
X143713467Y-111289713D01*
X143730207Y-111321031D01*
X143740515Y-111355009D01*
X143744600Y-111396490D01*
X143744600Y-112072710D01*
X143740515Y-112114191D01*
X143730207Y-112148169D01*
X143713467Y-112179487D01*
X143690939Y-112206939D01*
X143663487Y-112229467D01*
X143632169Y-112246207D01*
X143598191Y-112256515D01*
X143556710Y-112260600D01*
X142955490Y-112260600D01*
X142914009Y-112256515D01*
X142880031Y-112246207D01*
X142848713Y-112229467D01*
X142821261Y-112206939D01*
X142798733Y-112179487D01*
X142781993Y-112148169D01*
X142771685Y-112114191D01*
X142767600Y-112072710D01*
X142767600Y-111396490D01*
X142771685Y-111355009D01*
X142781993Y-111321031D01*
X142798733Y-111289713D01*
X142821261Y-111262261D01*
X142848713Y-111239733D01*
X142880031Y-111222993D01*
X142914009Y-111212685D01*
X142955490Y-111208600D01*
X143556710Y-111208600D01*
X143598191Y-111212685D01*
X143598191Y-111212685D01*
G37*
G36*
X142023191Y-111212685D02*
X142057169Y-111222993D01*
X142088487Y-111239733D01*
X142115939Y-111262261D01*
X142138467Y-111289713D01*
X142155207Y-111321031D01*
X142165515Y-111355009D01*
X142169600Y-111396490D01*
X142169600Y-112072710D01*
X142165515Y-112114191D01*
X142155207Y-112148169D01*
X142138467Y-112179487D01*
X142115939Y-112206939D01*
X142088487Y-112229467D01*
X142057169Y-112246207D01*
X142023191Y-112256515D01*
X141981710Y-112260600D01*
X141380490Y-112260600D01*
X141339009Y-112256515D01*
X141305031Y-112246207D01*
X141273713Y-112229467D01*
X141246261Y-112206939D01*
X141223733Y-112179487D01*
X141206993Y-112148169D01*
X141196685Y-112114191D01*
X141192600Y-112072710D01*
X141192600Y-111396490D01*
X141196685Y-111355009D01*
X141206993Y-111321031D01*
X141223733Y-111289713D01*
X141246261Y-111262261D01*
X141273713Y-111239733D01*
X141305031Y-111222993D01*
X141339009Y-111212685D01*
X141380490Y-111208600D01*
X141981710Y-111208600D01*
X142023191Y-111212685D01*
X142023191Y-111212685D01*
G37*
G36*
X138616643Y-110230519D02*
X138682827Y-110237037D01*
X138752450Y-110258157D01*
X138852667Y-110288557D01*
X138952315Y-110341821D01*
X139009191Y-110372222D01*
X139044929Y-110401552D01*
X139146386Y-110484814D01*
X139229648Y-110586271D01*
X139258978Y-110622009D01*
X139258979Y-110622011D01*
X139342643Y-110778533D01*
X139342643Y-110778534D01*
X139394163Y-110948373D01*
X139411559Y-111125000D01*
X139394163Y-111301627D01*
X139376644Y-111359380D01*
X139342643Y-111471467D01*
X139275228Y-111597589D01*
X139258978Y-111627991D01*
X139229648Y-111663729D01*
X139146386Y-111765186D01*
X139046233Y-111847378D01*
X139009191Y-111877778D01*
X139009189Y-111877779D01*
X138852667Y-111961443D01*
X138796053Y-111978616D01*
X138682827Y-112012963D01*
X138616642Y-112019482D01*
X138550460Y-112026000D01*
X138461940Y-112026000D01*
X138395758Y-112019482D01*
X138329573Y-112012963D01*
X138216347Y-111978616D01*
X138159733Y-111961443D01*
X138003211Y-111877779D01*
X138003209Y-111877778D01*
X137966167Y-111847378D01*
X137866014Y-111765186D01*
X137782752Y-111663729D01*
X137753422Y-111627991D01*
X137737172Y-111597589D01*
X137669757Y-111471467D01*
X137635756Y-111359380D01*
X137618237Y-111301627D01*
X137600841Y-111125000D01*
X137618237Y-110948373D01*
X137669757Y-110778534D01*
X137669757Y-110778533D01*
X137753421Y-110622011D01*
X137753422Y-110622009D01*
X137782752Y-110586271D01*
X137866014Y-110484814D01*
X137967471Y-110401552D01*
X138003209Y-110372222D01*
X138060085Y-110341821D01*
X138159733Y-110288557D01*
X138259950Y-110258157D01*
X138329573Y-110237037D01*
X138395757Y-110230519D01*
X138461940Y-110224000D01*
X138550460Y-110224000D01*
X138616643Y-110230519D01*
X138616643Y-110230519D01*
G37*
G36*
X158555542Y-110200118D02*
X158621727Y-110206637D01*
X158734953Y-110240984D01*
X158791567Y-110258157D01*
X158930187Y-110332252D01*
X158948091Y-110341822D01*
X158983829Y-110371152D01*
X159085286Y-110454414D01*
X159168548Y-110555871D01*
X159197878Y-110591609D01*
X159197879Y-110591611D01*
X159281543Y-110748133D01*
X159290765Y-110778534D01*
X159333063Y-110917973D01*
X159350459Y-111094600D01*
X159333063Y-111271227D01*
X159317955Y-111321031D01*
X159281543Y-111441067D01*
X159207448Y-111579687D01*
X159197878Y-111597591D01*
X159172931Y-111627989D01*
X159085286Y-111734786D01*
X158983829Y-111818048D01*
X158948091Y-111847378D01*
X158948089Y-111847379D01*
X158791567Y-111931043D01*
X158734953Y-111948216D01*
X158621727Y-111982563D01*
X158555543Y-111989081D01*
X158489360Y-111995600D01*
X158400840Y-111995600D01*
X158334657Y-111989081D01*
X158268473Y-111982563D01*
X158155247Y-111948216D01*
X158098633Y-111931043D01*
X157942111Y-111847379D01*
X157942109Y-111847378D01*
X157906371Y-111818048D01*
X157804914Y-111734786D01*
X157717269Y-111627989D01*
X157692322Y-111597591D01*
X157682752Y-111579687D01*
X157608657Y-111441067D01*
X157572245Y-111321031D01*
X157557137Y-111271227D01*
X157539741Y-111094600D01*
X157557137Y-110917973D01*
X157599435Y-110778534D01*
X157608657Y-110748133D01*
X157692321Y-110591611D01*
X157692322Y-110591609D01*
X157721652Y-110555871D01*
X157804914Y-110454414D01*
X157906371Y-110371152D01*
X157942109Y-110341822D01*
X157960013Y-110332252D01*
X158098633Y-110258157D01*
X158155247Y-110240984D01*
X158268473Y-110206637D01*
X158334658Y-110200118D01*
X158400840Y-110193600D01*
X158489360Y-110193600D01*
X158555542Y-110200118D01*
X158555542Y-110200118D01*
G37*
G36*
X147916091Y-108571085D02*
X147950069Y-108581393D01*
X147981387Y-108598133D01*
X148008839Y-108620661D01*
X148031367Y-108648113D01*
X148048107Y-108679431D01*
X148058415Y-108713409D01*
X148062500Y-108754890D01*
X148062500Y-109431110D01*
X148058415Y-109472591D01*
X148048107Y-109506569D01*
X148031367Y-109537887D01*
X148008839Y-109565339D01*
X147981387Y-109587867D01*
X147950069Y-109604607D01*
X147916091Y-109614915D01*
X147874610Y-109619000D01*
X147273390Y-109619000D01*
X147231909Y-109614915D01*
X147197931Y-109604607D01*
X147166613Y-109587867D01*
X147139161Y-109565339D01*
X147116633Y-109537887D01*
X147099893Y-109506569D01*
X147089585Y-109472591D01*
X147085500Y-109431110D01*
X147085500Y-108754890D01*
X147089585Y-108713409D01*
X147099893Y-108679431D01*
X147116633Y-108648113D01*
X147139161Y-108620661D01*
X147166613Y-108598133D01*
X147197931Y-108581393D01*
X147231909Y-108571085D01*
X147273390Y-108567000D01*
X147874610Y-108567000D01*
X147916091Y-108571085D01*
X147916091Y-108571085D01*
G37*
G36*
X146341091Y-108571085D02*
X146375069Y-108581393D01*
X146406387Y-108598133D01*
X146433839Y-108620661D01*
X146456367Y-108648113D01*
X146473107Y-108679431D01*
X146483415Y-108713409D01*
X146487500Y-108754890D01*
X146487500Y-109431110D01*
X146483415Y-109472591D01*
X146473107Y-109506569D01*
X146456367Y-109537887D01*
X146433839Y-109565339D01*
X146406387Y-109587867D01*
X146375069Y-109604607D01*
X146341091Y-109614915D01*
X146299610Y-109619000D01*
X145698390Y-109619000D01*
X145656909Y-109614915D01*
X145622931Y-109604607D01*
X145591613Y-109587867D01*
X145564161Y-109565339D01*
X145541633Y-109537887D01*
X145524893Y-109506569D01*
X145514585Y-109472591D01*
X145510500Y-109431110D01*
X145510500Y-108754890D01*
X145514585Y-108713409D01*
X145524893Y-108679431D01*
X145541633Y-108648113D01*
X145564161Y-108620661D01*
X145591613Y-108598133D01*
X145622931Y-108581393D01*
X145656909Y-108571085D01*
X145698390Y-108567000D01*
X146299610Y-108567000D01*
X146341091Y-108571085D01*
X146341091Y-108571085D01*
G37*
G36*
X154189691Y-108520285D02*
X154223669Y-108530593D01*
X154254987Y-108547333D01*
X154282439Y-108569861D01*
X154304967Y-108597313D01*
X154321707Y-108628631D01*
X154332015Y-108662609D01*
X154336100Y-108704090D01*
X154336100Y-109380310D01*
X154332015Y-109421791D01*
X154321707Y-109455769D01*
X154304967Y-109487087D01*
X154282439Y-109514539D01*
X154254987Y-109537067D01*
X154223669Y-109553807D01*
X154189691Y-109564115D01*
X154148210Y-109568200D01*
X153546990Y-109568200D01*
X153505509Y-109564115D01*
X153471531Y-109553807D01*
X153440213Y-109537067D01*
X153412761Y-109514539D01*
X153390233Y-109487087D01*
X153373493Y-109455769D01*
X153363185Y-109421791D01*
X153359100Y-109380310D01*
X153359100Y-108704090D01*
X153363185Y-108662609D01*
X153373493Y-108628631D01*
X153390233Y-108597313D01*
X153412761Y-108569861D01*
X153440213Y-108547333D01*
X153471531Y-108530593D01*
X153505509Y-108520285D01*
X153546990Y-108516200D01*
X154148210Y-108516200D01*
X154189691Y-108520285D01*
X154189691Y-108520285D01*
G37*
G36*
X155764691Y-108520285D02*
X155798669Y-108530593D01*
X155829987Y-108547333D01*
X155857439Y-108569861D01*
X155879967Y-108597313D01*
X155896707Y-108628631D01*
X155907015Y-108662609D01*
X155911100Y-108704090D01*
X155911100Y-109380310D01*
X155907015Y-109421791D01*
X155896707Y-109455769D01*
X155879967Y-109487087D01*
X155857439Y-109514539D01*
X155829987Y-109537067D01*
X155798669Y-109553807D01*
X155764691Y-109564115D01*
X155723210Y-109568200D01*
X155121990Y-109568200D01*
X155080509Y-109564115D01*
X155046531Y-109553807D01*
X155015213Y-109537067D01*
X154987761Y-109514539D01*
X154965233Y-109487087D01*
X154948493Y-109455769D01*
X154938185Y-109421791D01*
X154934100Y-109380310D01*
X154934100Y-108704090D01*
X154938185Y-108662609D01*
X154948493Y-108628631D01*
X154965233Y-108597313D01*
X154987761Y-108569861D01*
X155015213Y-108547333D01*
X155046531Y-108530593D01*
X155080509Y-108520285D01*
X155121990Y-108516200D01*
X155723210Y-108516200D01*
X155764691Y-108520285D01*
X155764691Y-108520285D01*
G37*
G36*
X138616643Y-107690519D02*
X138682827Y-107697037D01*
X138752450Y-107718157D01*
X138852667Y-107748557D01*
X138913162Y-107780893D01*
X139009191Y-107832222D01*
X139035034Y-107853431D01*
X139146386Y-107944814D01*
X139200497Y-108010750D01*
X139258978Y-108082009D01*
X139258979Y-108082011D01*
X139342643Y-108238533D01*
X139342643Y-108238534D01*
X139394163Y-108408373D01*
X139411559Y-108585000D01*
X139394163Y-108761627D01*
X139379110Y-108811250D01*
X139342643Y-108931467D01*
X139275228Y-109057589D01*
X139258978Y-109087991D01*
X139229648Y-109123729D01*
X139146386Y-109225186D01*
X139046233Y-109307378D01*
X139009191Y-109337778D01*
X139009189Y-109337779D01*
X138852667Y-109421443D01*
X138796053Y-109438616D01*
X138682827Y-109472963D01*
X138616642Y-109479482D01*
X138550460Y-109486000D01*
X138461940Y-109486000D01*
X138395758Y-109479482D01*
X138329573Y-109472963D01*
X138216347Y-109438616D01*
X138159733Y-109421443D01*
X138003211Y-109337779D01*
X138003209Y-109337778D01*
X137966167Y-109307378D01*
X137866014Y-109225186D01*
X137782752Y-109123729D01*
X137753422Y-109087991D01*
X137737172Y-109057589D01*
X137669757Y-108931467D01*
X137633290Y-108811250D01*
X137618237Y-108761627D01*
X137600841Y-108585000D01*
X137618237Y-108408373D01*
X137669757Y-108238534D01*
X137669757Y-108238533D01*
X137753421Y-108082011D01*
X137753422Y-108082009D01*
X137811903Y-108010750D01*
X137866014Y-107944814D01*
X137977366Y-107853431D01*
X138003209Y-107832222D01*
X138099238Y-107780893D01*
X138159733Y-107748557D01*
X138259950Y-107718157D01*
X138329573Y-107697037D01*
X138395757Y-107690519D01*
X138461940Y-107684000D01*
X138550460Y-107684000D01*
X138616643Y-107690519D01*
X138616643Y-107690519D01*
G37*
G36*
X158555542Y-107660118D02*
X158621727Y-107666637D01*
X158734953Y-107700984D01*
X158791567Y-107718157D01*
X158869085Y-107759592D01*
X158948091Y-107801822D01*
X158970437Y-107820161D01*
X159085286Y-107914414D01*
X159164346Y-108010750D01*
X159197878Y-108051609D01*
X159197879Y-108051611D01*
X159281543Y-108208133D01*
X159290765Y-108238534D01*
X159333063Y-108377973D01*
X159350459Y-108554600D01*
X159333063Y-108731227D01*
X159323841Y-108761627D01*
X159281543Y-108901067D01*
X159207448Y-109039687D01*
X159197878Y-109057591D01*
X159172931Y-109087989D01*
X159085286Y-109194786D01*
X158983829Y-109278048D01*
X158948091Y-109307378D01*
X158948089Y-109307379D01*
X158791567Y-109391043D01*
X158734953Y-109408216D01*
X158621727Y-109442563D01*
X158555542Y-109449082D01*
X158489360Y-109455600D01*
X158400840Y-109455600D01*
X158334658Y-109449082D01*
X158268473Y-109442563D01*
X158155247Y-109408216D01*
X158098633Y-109391043D01*
X157942111Y-109307379D01*
X157942109Y-109307378D01*
X157906371Y-109278048D01*
X157804914Y-109194786D01*
X157717269Y-109087989D01*
X157692322Y-109057591D01*
X157682752Y-109039687D01*
X157608657Y-108901067D01*
X157566359Y-108761627D01*
X157557137Y-108731227D01*
X157539741Y-108554600D01*
X157557137Y-108377973D01*
X157599435Y-108238534D01*
X157608657Y-108208133D01*
X157692321Y-108051611D01*
X157692322Y-108051609D01*
X157725854Y-108010750D01*
X157804914Y-107914414D01*
X157919763Y-107820161D01*
X157942109Y-107801822D01*
X158021115Y-107759592D01*
X158098633Y-107718157D01*
X158155247Y-107700984D01*
X158268473Y-107666637D01*
X158334658Y-107660118D01*
X158400840Y-107653600D01*
X158489360Y-107653600D01*
X158555542Y-107660118D01*
X158555542Y-107660118D01*
G37*
G36*
X143127591Y-107770585D02*
X143161569Y-107780893D01*
X143192887Y-107797633D01*
X143220339Y-107820161D01*
X143242867Y-107847613D01*
X143259607Y-107878931D01*
X143269915Y-107912909D01*
X143274000Y-107954390D01*
X143274000Y-108555610D01*
X143269915Y-108597091D01*
X143259607Y-108631069D01*
X143242867Y-108662387D01*
X143220339Y-108689839D01*
X143192887Y-108712367D01*
X143161569Y-108729107D01*
X143127591Y-108739415D01*
X143086110Y-108743500D01*
X142409890Y-108743500D01*
X142368409Y-108739415D01*
X142334431Y-108729107D01*
X142303113Y-108712367D01*
X142275661Y-108689839D01*
X142253133Y-108662387D01*
X142236393Y-108631069D01*
X142226085Y-108597091D01*
X142222000Y-108555610D01*
X142222000Y-107954390D01*
X142226085Y-107912909D01*
X142236393Y-107878931D01*
X142253133Y-107847613D01*
X142275661Y-107820161D01*
X142303113Y-107797633D01*
X142334431Y-107780893D01*
X142368409Y-107770585D01*
X142409890Y-107766500D01*
X143086110Y-107766500D01*
X143127591Y-107770585D01*
X143127591Y-107770585D01*
G37*
G36*
X144651591Y-107745085D02*
X144685569Y-107755393D01*
X144716887Y-107772133D01*
X144744339Y-107794661D01*
X144766867Y-107822113D01*
X144783607Y-107853431D01*
X144793915Y-107887409D01*
X144798000Y-107928890D01*
X144798000Y-108530110D01*
X144793915Y-108571591D01*
X144783607Y-108605569D01*
X144766867Y-108636887D01*
X144744339Y-108664339D01*
X144716887Y-108686867D01*
X144685569Y-108703607D01*
X144651591Y-108713915D01*
X144610110Y-108718000D01*
X143933890Y-108718000D01*
X143892409Y-108713915D01*
X143858431Y-108703607D01*
X143827113Y-108686867D01*
X143799661Y-108664339D01*
X143777133Y-108636887D01*
X143760393Y-108605569D01*
X143750085Y-108571591D01*
X143746000Y-108530110D01*
X143746000Y-107928890D01*
X143750085Y-107887409D01*
X143760393Y-107853431D01*
X143777133Y-107822113D01*
X143799661Y-107794661D01*
X143827113Y-107772133D01*
X143858431Y-107755393D01*
X143892409Y-107745085D01*
X143933890Y-107741000D01*
X144610110Y-107741000D01*
X144651591Y-107745085D01*
X144651591Y-107745085D01*
G37*
G36*
X152143000Y-107935000D02*
X151641000Y-107935000D01*
X151641000Y-105933000D01*
X152143000Y-105933000D01*
X152143000Y-107935000D01*
X152143000Y-107935000D01*
G37*
G36*
X150943000Y-107935000D02*
X150441000Y-107935000D01*
X150441000Y-105933000D01*
X150943000Y-105933000D01*
X150943000Y-107935000D01*
X150943000Y-107935000D01*
G37*
G36*
X149743000Y-107935000D02*
X149241000Y-107935000D01*
X149241000Y-105933000D01*
X149743000Y-105933000D01*
X149743000Y-107935000D01*
X149743000Y-107935000D01*
G37*
G36*
X148588591Y-106373385D02*
X148622569Y-106383693D01*
X148653887Y-106400433D01*
X148681339Y-106422961D01*
X148703867Y-106450413D01*
X148720607Y-106481731D01*
X148730915Y-106515709D01*
X148735000Y-106557190D01*
X148735000Y-107158410D01*
X148730915Y-107199891D01*
X148720607Y-107233869D01*
X148703867Y-107265187D01*
X148681339Y-107292639D01*
X148653887Y-107315167D01*
X148622569Y-107331907D01*
X148588591Y-107342215D01*
X148547110Y-107346300D01*
X147870890Y-107346300D01*
X147829409Y-107342215D01*
X147795431Y-107331907D01*
X147764113Y-107315167D01*
X147736661Y-107292639D01*
X147714133Y-107265187D01*
X147697393Y-107233869D01*
X147687085Y-107199891D01*
X147683000Y-107158410D01*
X147683000Y-106557190D01*
X147687085Y-106515709D01*
X147697393Y-106481731D01*
X147714133Y-106450413D01*
X147736661Y-106422961D01*
X147764113Y-106400433D01*
X147795431Y-106383693D01*
X147829409Y-106373385D01*
X147870890Y-106369300D01*
X148547110Y-106369300D01*
X148588591Y-106373385D01*
X148588591Y-106373385D01*
G37*
G36*
X143127591Y-106195585D02*
X143161569Y-106205893D01*
X143192887Y-106222633D01*
X143220339Y-106245161D01*
X143242867Y-106272613D01*
X143259607Y-106303931D01*
X143269915Y-106337909D01*
X143274000Y-106379390D01*
X143274000Y-106980610D01*
X143269915Y-107022091D01*
X143259607Y-107056069D01*
X143242867Y-107087387D01*
X143220339Y-107114839D01*
X143192887Y-107137367D01*
X143161569Y-107154107D01*
X143127591Y-107164415D01*
X143086110Y-107168500D01*
X142409890Y-107168500D01*
X142368409Y-107164415D01*
X142334431Y-107154107D01*
X142303113Y-107137367D01*
X142275661Y-107114839D01*
X142253133Y-107087387D01*
X142236393Y-107056069D01*
X142226085Y-107022091D01*
X142222000Y-106980610D01*
X142222000Y-106379390D01*
X142226085Y-106337909D01*
X142236393Y-106303931D01*
X142253133Y-106272613D01*
X142275661Y-106245161D01*
X142303113Y-106222633D01*
X142334431Y-106205893D01*
X142368409Y-106195585D01*
X142409890Y-106191500D01*
X143086110Y-106191500D01*
X143127591Y-106195585D01*
X143127591Y-106195585D01*
G37*
G36*
X144651591Y-106170085D02*
X144685569Y-106180393D01*
X144716887Y-106197133D01*
X144744339Y-106219661D01*
X144766867Y-106247113D01*
X144783607Y-106278431D01*
X144793915Y-106312409D01*
X144798000Y-106353890D01*
X144798000Y-106955110D01*
X144793915Y-106996591D01*
X144783607Y-107030569D01*
X144766867Y-107061887D01*
X144744339Y-107089339D01*
X144716887Y-107111867D01*
X144685569Y-107128607D01*
X144651591Y-107138915D01*
X144610110Y-107143000D01*
X143933890Y-107143000D01*
X143892409Y-107138915D01*
X143858431Y-107128607D01*
X143827113Y-107111867D01*
X143799661Y-107089339D01*
X143777133Y-107061887D01*
X143760393Y-107030569D01*
X143750085Y-106996591D01*
X143746000Y-106955110D01*
X143746000Y-106353890D01*
X143750085Y-106312409D01*
X143760393Y-106278431D01*
X143777133Y-106247113D01*
X143799661Y-106219661D01*
X143827113Y-106197133D01*
X143858431Y-106180393D01*
X143892409Y-106170085D01*
X143933890Y-106166000D01*
X144610110Y-106166000D01*
X144651591Y-106170085D01*
X144651591Y-106170085D01*
G37*
G36*
X138616643Y-105150519D02*
X138682827Y-105157037D01*
X138752450Y-105178157D01*
X138852667Y-105208557D01*
X138952315Y-105261821D01*
X139009191Y-105292222D01*
X139044929Y-105321552D01*
X139146386Y-105404814D01*
X139229648Y-105506271D01*
X139258978Y-105542009D01*
X139258979Y-105542011D01*
X139342643Y-105698533D01*
X139352229Y-105730136D01*
X139394163Y-105868373D01*
X139411559Y-106045000D01*
X139394163Y-106221627D01*
X139370373Y-106300052D01*
X139342643Y-106391467D01*
X139294395Y-106481731D01*
X139258978Y-106547991D01*
X139244281Y-106565899D01*
X139146386Y-106685186D01*
X139046233Y-106767378D01*
X139009191Y-106797778D01*
X139009189Y-106797779D01*
X138852667Y-106881443D01*
X138796053Y-106898616D01*
X138682827Y-106932963D01*
X138616642Y-106939482D01*
X138550460Y-106946000D01*
X138461940Y-106946000D01*
X138395758Y-106939482D01*
X138329573Y-106932963D01*
X138216347Y-106898616D01*
X138159733Y-106881443D01*
X138003211Y-106797779D01*
X138003209Y-106797778D01*
X137966167Y-106767378D01*
X137866014Y-106685186D01*
X137768119Y-106565899D01*
X137753422Y-106547991D01*
X137718005Y-106481731D01*
X137669757Y-106391467D01*
X137642027Y-106300052D01*
X137618237Y-106221627D01*
X137600841Y-106045000D01*
X137618237Y-105868373D01*
X137660171Y-105730136D01*
X137669757Y-105698533D01*
X137753421Y-105542011D01*
X137753422Y-105542009D01*
X137782752Y-105506271D01*
X137866014Y-105404814D01*
X137967471Y-105321552D01*
X138003209Y-105292222D01*
X138060085Y-105261821D01*
X138159733Y-105208557D01*
X138259950Y-105178157D01*
X138329573Y-105157037D01*
X138395758Y-105150518D01*
X138461940Y-105144000D01*
X138550460Y-105144000D01*
X138616643Y-105150519D01*
X138616643Y-105150519D01*
G37*
G36*
X158555542Y-105120118D02*
X158621727Y-105126637D01*
X158734953Y-105160984D01*
X158791567Y-105178157D01*
X158930187Y-105252252D01*
X158948091Y-105261822D01*
X158983829Y-105291152D01*
X159085286Y-105374414D01*
X159168548Y-105475871D01*
X159197878Y-105511609D01*
X159197879Y-105511611D01*
X159281543Y-105668133D01*
X159290765Y-105698534D01*
X159333063Y-105837973D01*
X159350459Y-106014600D01*
X159333063Y-106191227D01*
X159323841Y-106221627D01*
X159281543Y-106361067D01*
X159238903Y-106440839D01*
X159197878Y-106517591D01*
X159195835Y-106520080D01*
X159085286Y-106654786D01*
X158983829Y-106738048D01*
X158948091Y-106767378D01*
X158948089Y-106767379D01*
X158791567Y-106851043D01*
X158734953Y-106868216D01*
X158621727Y-106902563D01*
X158555542Y-106909082D01*
X158489360Y-106915600D01*
X158400840Y-106915600D01*
X158334658Y-106909082D01*
X158268473Y-106902563D01*
X158155247Y-106868216D01*
X158098633Y-106851043D01*
X157942111Y-106767379D01*
X157942109Y-106767378D01*
X157906371Y-106738048D01*
X157804914Y-106654786D01*
X157694365Y-106520080D01*
X157692322Y-106517591D01*
X157651297Y-106440839D01*
X157608657Y-106361067D01*
X157566359Y-106221627D01*
X157557137Y-106191227D01*
X157539741Y-106014600D01*
X157557137Y-105837973D01*
X157599435Y-105698534D01*
X157608657Y-105668133D01*
X157692321Y-105511611D01*
X157692322Y-105511609D01*
X157721652Y-105475871D01*
X157804914Y-105374414D01*
X157906371Y-105291152D01*
X157942109Y-105261822D01*
X157960013Y-105252252D01*
X158098633Y-105178157D01*
X158155247Y-105160984D01*
X158268473Y-105126637D01*
X158334657Y-105120119D01*
X158400840Y-105113600D01*
X158489360Y-105113600D01*
X158555542Y-105120118D01*
X158555542Y-105120118D01*
G37*
G36*
X148588591Y-104798385D02*
X148622569Y-104808693D01*
X148653887Y-104825433D01*
X148681339Y-104847961D01*
X148703867Y-104875413D01*
X148720607Y-104906731D01*
X148730915Y-104940709D01*
X148735000Y-104982190D01*
X148735000Y-105583410D01*
X148730915Y-105624891D01*
X148720607Y-105658869D01*
X148703867Y-105690187D01*
X148681339Y-105717639D01*
X148653887Y-105740167D01*
X148622569Y-105756907D01*
X148588591Y-105767215D01*
X148547110Y-105771300D01*
X147870890Y-105771300D01*
X147829409Y-105767215D01*
X147795431Y-105756907D01*
X147764113Y-105740167D01*
X147736661Y-105717639D01*
X147714133Y-105690187D01*
X147697393Y-105658869D01*
X147687085Y-105624891D01*
X147683000Y-105583410D01*
X147683000Y-104982190D01*
X147687085Y-104940709D01*
X147697393Y-104906731D01*
X147714133Y-104875413D01*
X147736661Y-104847961D01*
X147764113Y-104825433D01*
X147795431Y-104808693D01*
X147829409Y-104798385D01*
X147870890Y-104794300D01*
X148547110Y-104794300D01*
X148588591Y-104798385D01*
X148588591Y-104798385D01*
G37*
G36*
X151675091Y-103618085D02*
X151709069Y-103628393D01*
X151740387Y-103645133D01*
X151767839Y-103667661D01*
X151790367Y-103695113D01*
X151807107Y-103726431D01*
X151817415Y-103760409D01*
X151821500Y-103801890D01*
X151821500Y-104478110D01*
X151817415Y-104519591D01*
X151807107Y-104553569D01*
X151790367Y-104584887D01*
X151767839Y-104612339D01*
X151740387Y-104634867D01*
X151709069Y-104651607D01*
X151675091Y-104661915D01*
X151633610Y-104666000D01*
X151032390Y-104666000D01*
X150990909Y-104661915D01*
X150956931Y-104651607D01*
X150925613Y-104634867D01*
X150898161Y-104612339D01*
X150875633Y-104584887D01*
X150858893Y-104553569D01*
X150848585Y-104519591D01*
X150844500Y-104478110D01*
X150844500Y-103801890D01*
X150848585Y-103760409D01*
X150858893Y-103726431D01*
X150875633Y-103695113D01*
X150898161Y-103667661D01*
X150925613Y-103645133D01*
X150956931Y-103628393D01*
X150990909Y-103618085D01*
X151032390Y-103614000D01*
X151633610Y-103614000D01*
X151675091Y-103618085D01*
X151675091Y-103618085D01*
G37*
G36*
X153250091Y-103618085D02*
X153284069Y-103628393D01*
X153315387Y-103645133D01*
X153342839Y-103667661D01*
X153365367Y-103695113D01*
X153382107Y-103726431D01*
X153392415Y-103760409D01*
X153396500Y-103801890D01*
X153396500Y-104478110D01*
X153392415Y-104519591D01*
X153382107Y-104553569D01*
X153365367Y-104584887D01*
X153342839Y-104612339D01*
X153315387Y-104634867D01*
X153284069Y-104651607D01*
X153250091Y-104661915D01*
X153208610Y-104666000D01*
X152607390Y-104666000D01*
X152565909Y-104661915D01*
X152531931Y-104651607D01*
X152500613Y-104634867D01*
X152473161Y-104612339D01*
X152450633Y-104584887D01*
X152433893Y-104553569D01*
X152423585Y-104519591D01*
X152419500Y-104478110D01*
X152419500Y-103801890D01*
X152423585Y-103760409D01*
X152433893Y-103726431D01*
X152450633Y-103695113D01*
X152473161Y-103667661D01*
X152500613Y-103645133D01*
X152531931Y-103628393D01*
X152565909Y-103618085D01*
X152607390Y-103614000D01*
X153208610Y-103614000D01*
X153250091Y-103618085D01*
X153250091Y-103618085D01*
G37*
G36*
X138616642Y-102610518D02*
X138682827Y-102617037D01*
X138752450Y-102638157D01*
X138852667Y-102668557D01*
X138952315Y-102721821D01*
X139009191Y-102752222D01*
X139044929Y-102781552D01*
X139146386Y-102864814D01*
X139229648Y-102966271D01*
X139258978Y-103002009D01*
X139258979Y-103002011D01*
X139342643Y-103158533D01*
X139342643Y-103158534D01*
X139394163Y-103328373D01*
X139411559Y-103505000D01*
X139394163Y-103681627D01*
X139380572Y-103726431D01*
X139342643Y-103851467D01*
X139339017Y-103858250D01*
X139258978Y-104007991D01*
X139229648Y-104043729D01*
X139146386Y-104145186D01*
X139046233Y-104227378D01*
X139009191Y-104257778D01*
X139009189Y-104257779D01*
X138852667Y-104341443D01*
X138796053Y-104358616D01*
X138682827Y-104392963D01*
X138616642Y-104399482D01*
X138550460Y-104406000D01*
X138461940Y-104406000D01*
X138395758Y-104399482D01*
X138329573Y-104392963D01*
X138216347Y-104358616D01*
X138159733Y-104341443D01*
X138003211Y-104257779D01*
X138003209Y-104257778D01*
X137966167Y-104227378D01*
X137866014Y-104145186D01*
X137782752Y-104043729D01*
X137753422Y-104007991D01*
X137673383Y-103858250D01*
X137669757Y-103851467D01*
X137631828Y-103726431D01*
X137618237Y-103681627D01*
X137600841Y-103505000D01*
X137618237Y-103328373D01*
X137669757Y-103158534D01*
X137669757Y-103158533D01*
X137753421Y-103002011D01*
X137753422Y-103002009D01*
X137782752Y-102966271D01*
X137866014Y-102864814D01*
X137967471Y-102781552D01*
X138003209Y-102752222D01*
X138060085Y-102721821D01*
X138159733Y-102668557D01*
X138259950Y-102638157D01*
X138329573Y-102617037D01*
X138395758Y-102610518D01*
X138461940Y-102604000D01*
X138550460Y-102604000D01*
X138616642Y-102610518D01*
X138616642Y-102610518D01*
G37*
G36*
X158555543Y-102580119D02*
X158621727Y-102586637D01*
X158734953Y-102620984D01*
X158791567Y-102638157D01*
X158930187Y-102712252D01*
X158948091Y-102721822D01*
X158983829Y-102751152D01*
X159085286Y-102834414D01*
X159168548Y-102935871D01*
X159197878Y-102971609D01*
X159197879Y-102971611D01*
X159281543Y-103128133D01*
X159290765Y-103158534D01*
X159333063Y-103297973D01*
X159350459Y-103474600D01*
X159333063Y-103651227D01*
X159319750Y-103695113D01*
X159281543Y-103821067D01*
X159261668Y-103858250D01*
X159197878Y-103977591D01*
X159172931Y-104007989D01*
X159085286Y-104114786D01*
X158983829Y-104198048D01*
X158948091Y-104227378D01*
X158948089Y-104227379D01*
X158791567Y-104311043D01*
X158734953Y-104328216D01*
X158621727Y-104362563D01*
X158555542Y-104369082D01*
X158489360Y-104375600D01*
X158400840Y-104375600D01*
X158334657Y-104369081D01*
X158268473Y-104362563D01*
X158155247Y-104328216D01*
X158098633Y-104311043D01*
X157942111Y-104227379D01*
X157942109Y-104227378D01*
X157906371Y-104198048D01*
X157804914Y-104114786D01*
X157717269Y-104007989D01*
X157692322Y-103977591D01*
X157628532Y-103858250D01*
X157608657Y-103821067D01*
X157570450Y-103695113D01*
X157557137Y-103651227D01*
X157539741Y-103474600D01*
X157557137Y-103297973D01*
X157599435Y-103158534D01*
X157608657Y-103128133D01*
X157692321Y-102971611D01*
X157692322Y-102971609D01*
X157721652Y-102935871D01*
X157804914Y-102834414D01*
X157906371Y-102751152D01*
X157942109Y-102721822D01*
X157960013Y-102712252D01*
X158098633Y-102638157D01*
X158155247Y-102620984D01*
X158268473Y-102586637D01*
X158334657Y-102580119D01*
X158400840Y-102573600D01*
X158489360Y-102573600D01*
X158555543Y-102580119D01*
X158555543Y-102580119D01*
G37*
G36*
X149530600Y-104189600D02*
X143577400Y-104189600D01*
X143577400Y-102786400D01*
X149530600Y-102786400D01*
X149530600Y-104189600D01*
X149530600Y-104189600D01*
G37*
G36*
X151755600Y-101964600D02*
X150352400Y-101964600D01*
X150352400Y-96011400D01*
X151755600Y-96011400D01*
X151755600Y-101964600D01*
X151755600Y-101964600D01*
G37*
G36*
X142755600Y-101964600D02*
X141352400Y-101964600D01*
X141352400Y-96011400D01*
X142755600Y-96011400D01*
X142755600Y-101964600D01*
X142755600Y-101964600D01*
G37*
G36*
X138616642Y-100070518D02*
X138682827Y-100077037D01*
X138752450Y-100098157D01*
X138852667Y-100128557D01*
X138952315Y-100181821D01*
X139009191Y-100212222D01*
X139044929Y-100241552D01*
X139146386Y-100324814D01*
X139229648Y-100426271D01*
X139258978Y-100462009D01*
X139258979Y-100462011D01*
X139342643Y-100618533D01*
X139359135Y-100672901D01*
X139394163Y-100788373D01*
X139411559Y-100965000D01*
X139394163Y-101141627D01*
X139359816Y-101254853D01*
X139342643Y-101311467D01*
X139275228Y-101437589D01*
X139258978Y-101467991D01*
X139229648Y-101503729D01*
X139146386Y-101605186D01*
X139046233Y-101687378D01*
X139009191Y-101717778D01*
X139009189Y-101717779D01*
X138852667Y-101801443D01*
X138796053Y-101818616D01*
X138682827Y-101852963D01*
X138616643Y-101859481D01*
X138550460Y-101866000D01*
X138461940Y-101866000D01*
X138395758Y-101859482D01*
X138329573Y-101852963D01*
X138216347Y-101818616D01*
X138159733Y-101801443D01*
X138003211Y-101717779D01*
X138003209Y-101717778D01*
X137966167Y-101687378D01*
X137866014Y-101605186D01*
X137782752Y-101503729D01*
X137753422Y-101467991D01*
X137737172Y-101437589D01*
X137669757Y-101311467D01*
X137652584Y-101254853D01*
X137618237Y-101141627D01*
X137600841Y-100965000D01*
X137618237Y-100788373D01*
X137653265Y-100672901D01*
X137669757Y-100618533D01*
X137753421Y-100462011D01*
X137753422Y-100462009D01*
X137782752Y-100426271D01*
X137866014Y-100324814D01*
X137967471Y-100241552D01*
X138003209Y-100212222D01*
X138060085Y-100181821D01*
X138159733Y-100128557D01*
X138259950Y-100098157D01*
X138329573Y-100077037D01*
X138395757Y-100070519D01*
X138461940Y-100064000D01*
X138550460Y-100064000D01*
X138616642Y-100070518D01*
X138616642Y-100070518D01*
G37*
G36*
X158543262Y-100038909D02*
X158621727Y-100046637D01*
X158732996Y-100080390D01*
X158791567Y-100098157D01*
X158863768Y-100136750D01*
X158948091Y-100181822D01*
X158983829Y-100211152D01*
X159085286Y-100294414D01*
X159168548Y-100395871D01*
X159197878Y-100431609D01*
X159197879Y-100431611D01*
X159281543Y-100588133D01*
X159290765Y-100618534D01*
X159333063Y-100757973D01*
X159350459Y-100934600D01*
X159333063Y-101111227D01*
X159323841Y-101141627D01*
X159281543Y-101281067D01*
X159207448Y-101419687D01*
X159197878Y-101437591D01*
X159175712Y-101464600D01*
X159085286Y-101574786D01*
X158983829Y-101658048D01*
X158948091Y-101687378D01*
X158948089Y-101687379D01*
X158791567Y-101771043D01*
X158734953Y-101788216D01*
X158621727Y-101822563D01*
X158555543Y-101829081D01*
X158489360Y-101835600D01*
X158400840Y-101835600D01*
X158334657Y-101829081D01*
X158268473Y-101822563D01*
X158155247Y-101788216D01*
X158098633Y-101771043D01*
X157942111Y-101687379D01*
X157942109Y-101687378D01*
X157906371Y-101658048D01*
X157804914Y-101574786D01*
X157714488Y-101464600D01*
X157692322Y-101437591D01*
X157682752Y-101419687D01*
X157608657Y-101281067D01*
X157566359Y-101141627D01*
X157557137Y-101111227D01*
X157539741Y-100934600D01*
X157557137Y-100757973D01*
X157599435Y-100618534D01*
X157608657Y-100588133D01*
X157692321Y-100431611D01*
X157692322Y-100431609D01*
X157721652Y-100395871D01*
X157804914Y-100294414D01*
X157906371Y-100211152D01*
X157942109Y-100181822D01*
X158026432Y-100136750D01*
X158098633Y-100098157D01*
X158157204Y-100080390D01*
X158268473Y-100046637D01*
X158346938Y-100038909D01*
X158400840Y-100033600D01*
X158489360Y-100033600D01*
X158543262Y-100038909D01*
X158543262Y-100038909D01*
G37*
G36*
X153541591Y-99896585D02*
X153575569Y-99906893D01*
X153606887Y-99923633D01*
X153634339Y-99946161D01*
X153656867Y-99973613D01*
X153673607Y-100004931D01*
X153683915Y-100038909D01*
X153688000Y-100080390D01*
X153688000Y-100681610D01*
X153683915Y-100723091D01*
X153673607Y-100757069D01*
X153656867Y-100788387D01*
X153634339Y-100815839D01*
X153606887Y-100838367D01*
X153575569Y-100855107D01*
X153541591Y-100865415D01*
X153500110Y-100869500D01*
X152823890Y-100869500D01*
X152782409Y-100865415D01*
X152748431Y-100855107D01*
X152717113Y-100838367D01*
X152689661Y-100815839D01*
X152667133Y-100788387D01*
X152650393Y-100757069D01*
X152640085Y-100723091D01*
X152636000Y-100681610D01*
X152636000Y-100080390D01*
X152640085Y-100038909D01*
X152650393Y-100004931D01*
X152667133Y-99973613D01*
X152689661Y-99946161D01*
X152717113Y-99923633D01*
X152748431Y-99906893D01*
X152782409Y-99896585D01*
X152823890Y-99892500D01*
X153500110Y-99892500D01*
X153541591Y-99896585D01*
X153541591Y-99896585D01*
G37*
G36*
X138616642Y-97530518D02*
X138682827Y-97537037D01*
X138796053Y-97571384D01*
X138852667Y-97588557D01*
X138952315Y-97641821D01*
X139009191Y-97672222D01*
X139044929Y-97701552D01*
X139146386Y-97784814D01*
X139229648Y-97886271D01*
X139258978Y-97922009D01*
X139258979Y-97922011D01*
X139342643Y-98078533D01*
X139342643Y-98078534D01*
X139394163Y-98248373D01*
X139411559Y-98425000D01*
X139394163Y-98601627D01*
X139359816Y-98714853D01*
X139342643Y-98771467D01*
X139275228Y-98897589D01*
X139258978Y-98927991D01*
X139229648Y-98963729D01*
X139146386Y-99065186D01*
X139050691Y-99143720D01*
X139009191Y-99177778D01*
X139009189Y-99177779D01*
X138852667Y-99261443D01*
X138804981Y-99275908D01*
X138682827Y-99312963D01*
X138616642Y-99319482D01*
X138550460Y-99326000D01*
X138461940Y-99326000D01*
X138395757Y-99319481D01*
X138329573Y-99312963D01*
X138207419Y-99275908D01*
X138159733Y-99261443D01*
X138003211Y-99177779D01*
X138003209Y-99177778D01*
X137961709Y-99143720D01*
X137866014Y-99065186D01*
X137782752Y-98963729D01*
X137753422Y-98927991D01*
X137737172Y-98897589D01*
X137669757Y-98771467D01*
X137652584Y-98714853D01*
X137618237Y-98601627D01*
X137600841Y-98425000D01*
X137618237Y-98248373D01*
X137669757Y-98078534D01*
X137669757Y-98078533D01*
X137753421Y-97922011D01*
X137753422Y-97922009D01*
X137782752Y-97886271D01*
X137866014Y-97784814D01*
X137967471Y-97701552D01*
X138003209Y-97672222D01*
X138060085Y-97641821D01*
X138159733Y-97588557D01*
X138216347Y-97571384D01*
X138329573Y-97537037D01*
X138395758Y-97530518D01*
X138461940Y-97524000D01*
X138550460Y-97524000D01*
X138616642Y-97530518D01*
X138616642Y-97530518D01*
G37*
G36*
X158555543Y-97500119D02*
X158621727Y-97506637D01*
X158734953Y-97540984D01*
X158791567Y-97558157D01*
X158868189Y-97599113D01*
X158948091Y-97641822D01*
X158975613Y-97664409D01*
X159085286Y-97754414D01*
X159168548Y-97855871D01*
X159197878Y-97891609D01*
X159197879Y-97891611D01*
X159281543Y-98048133D01*
X159290765Y-98078534D01*
X159333063Y-98217973D01*
X159350459Y-98394600D01*
X159333063Y-98571227D01*
X159323841Y-98601627D01*
X159281543Y-98741067D01*
X159207448Y-98879687D01*
X159197878Y-98897591D01*
X159172931Y-98927989D01*
X159085286Y-99034786D01*
X158997767Y-99106610D01*
X158948091Y-99147378D01*
X158948089Y-99147379D01*
X158791567Y-99231043D01*
X158759273Y-99240839D01*
X158621727Y-99282563D01*
X158555542Y-99289082D01*
X158489360Y-99295600D01*
X158400840Y-99295600D01*
X158334658Y-99289082D01*
X158268473Y-99282563D01*
X158130927Y-99240839D01*
X158098633Y-99231043D01*
X157942111Y-99147379D01*
X157942109Y-99147378D01*
X157892433Y-99106610D01*
X157804914Y-99034786D01*
X157717269Y-98927989D01*
X157692322Y-98897591D01*
X157682752Y-98879687D01*
X157608657Y-98741067D01*
X157566359Y-98601627D01*
X157557137Y-98571227D01*
X157539741Y-98394600D01*
X157557137Y-98217973D01*
X157599435Y-98078534D01*
X157608657Y-98048133D01*
X157692321Y-97891611D01*
X157692322Y-97891609D01*
X157721652Y-97855871D01*
X157804914Y-97754414D01*
X157914587Y-97664409D01*
X157942109Y-97641822D01*
X158022011Y-97599113D01*
X158098633Y-97558157D01*
X158155247Y-97540984D01*
X158268473Y-97506637D01*
X158334657Y-97500119D01*
X158400840Y-97493600D01*
X158489360Y-97493600D01*
X158555543Y-97500119D01*
X158555543Y-97500119D01*
G37*
G36*
X153541591Y-98321585D02*
X153575569Y-98331893D01*
X153606887Y-98348633D01*
X153634339Y-98371161D01*
X153656867Y-98398613D01*
X153673607Y-98429931D01*
X153683915Y-98463909D01*
X153688000Y-98505390D01*
X153688000Y-99106610D01*
X153683915Y-99148091D01*
X153673607Y-99182069D01*
X153656867Y-99213387D01*
X153634339Y-99240839D01*
X153606887Y-99263367D01*
X153575569Y-99280107D01*
X153541591Y-99290415D01*
X153500110Y-99294500D01*
X152823890Y-99294500D01*
X152782409Y-99290415D01*
X152748431Y-99280107D01*
X152717113Y-99263367D01*
X152689661Y-99240839D01*
X152667133Y-99213387D01*
X152650393Y-99182069D01*
X152640085Y-99148091D01*
X152636000Y-99106610D01*
X152636000Y-98505390D01*
X152640085Y-98463909D01*
X152650393Y-98429931D01*
X152667133Y-98398613D01*
X152689661Y-98371161D01*
X152717113Y-98348633D01*
X152748431Y-98331893D01*
X152782409Y-98321585D01*
X152823890Y-98317500D01*
X153500110Y-98317500D01*
X153541591Y-98321585D01*
X153541591Y-98321585D01*
G37*
G36*
X156730091Y-97522085D02*
X156764069Y-97532393D01*
X156795387Y-97549133D01*
X156822839Y-97571661D01*
X156845367Y-97599113D01*
X156862107Y-97630431D01*
X156872415Y-97664409D01*
X156876500Y-97705890D01*
X156876500Y-98382110D01*
X156872415Y-98423591D01*
X156862107Y-98457569D01*
X156845367Y-98488887D01*
X156822839Y-98516339D01*
X156795387Y-98538867D01*
X156764069Y-98555607D01*
X156730091Y-98565915D01*
X156688610Y-98570000D01*
X156087390Y-98570000D01*
X156045909Y-98565915D01*
X156011931Y-98555607D01*
X155980613Y-98538867D01*
X155953161Y-98516339D01*
X155930633Y-98488887D01*
X155913893Y-98457569D01*
X155903585Y-98423591D01*
X155899500Y-98382110D01*
X155899500Y-97705890D01*
X155903585Y-97664409D01*
X155913893Y-97630431D01*
X155930633Y-97599113D01*
X155953161Y-97571661D01*
X155980613Y-97549133D01*
X156011931Y-97532393D01*
X156045909Y-97522085D01*
X156087390Y-97518000D01*
X156688610Y-97518000D01*
X156730091Y-97522085D01*
X156730091Y-97522085D01*
G37*
G36*
X155155091Y-97522085D02*
X155189069Y-97532393D01*
X155220387Y-97549133D01*
X155247839Y-97571661D01*
X155270367Y-97599113D01*
X155287107Y-97630431D01*
X155297415Y-97664409D01*
X155301500Y-97705890D01*
X155301500Y-98382110D01*
X155297415Y-98423591D01*
X155287107Y-98457569D01*
X155270367Y-98488887D01*
X155247839Y-98516339D01*
X155220387Y-98538867D01*
X155189069Y-98555607D01*
X155155091Y-98565915D01*
X155113610Y-98570000D01*
X154512390Y-98570000D01*
X154470909Y-98565915D01*
X154436931Y-98555607D01*
X154405613Y-98538867D01*
X154378161Y-98516339D01*
X154355633Y-98488887D01*
X154338893Y-98457569D01*
X154328585Y-98423591D01*
X154324500Y-98382110D01*
X154324500Y-97705890D01*
X154328585Y-97664409D01*
X154338893Y-97630431D01*
X154355633Y-97599113D01*
X154378161Y-97571661D01*
X154405613Y-97549133D01*
X154436931Y-97532393D01*
X154470909Y-97522085D01*
X154512390Y-97518000D01*
X155113610Y-97518000D01*
X155155091Y-97522085D01*
X155155091Y-97522085D01*
G37*
G36*
X155155091Y-95998085D02*
X155189069Y-96008393D01*
X155220387Y-96025133D01*
X155247839Y-96047661D01*
X155270367Y-96075113D01*
X155287107Y-96106431D01*
X155297415Y-96140409D01*
X155301500Y-96181890D01*
X155301500Y-96858110D01*
X155297415Y-96899591D01*
X155287107Y-96933569D01*
X155270367Y-96964887D01*
X155247839Y-96992339D01*
X155220387Y-97014867D01*
X155189069Y-97031607D01*
X155155091Y-97041915D01*
X155113610Y-97046000D01*
X154512390Y-97046000D01*
X154470909Y-97041915D01*
X154436931Y-97031607D01*
X154405613Y-97014867D01*
X154378161Y-96992339D01*
X154355633Y-96964887D01*
X154338893Y-96933569D01*
X154328585Y-96899591D01*
X154324500Y-96858110D01*
X154324500Y-96181890D01*
X154328585Y-96140409D01*
X154338893Y-96106431D01*
X154355633Y-96075113D01*
X154378161Y-96047661D01*
X154405613Y-96025133D01*
X154436931Y-96008393D01*
X154470909Y-95998085D01*
X154512390Y-95994000D01*
X155113610Y-95994000D01*
X155155091Y-95998085D01*
X155155091Y-95998085D01*
G37*
G36*
X156730091Y-95998085D02*
X156764069Y-96008393D01*
X156795387Y-96025133D01*
X156822839Y-96047661D01*
X156845367Y-96075113D01*
X156862107Y-96106431D01*
X156872415Y-96140409D01*
X156876500Y-96181890D01*
X156876500Y-96858110D01*
X156872415Y-96899591D01*
X156862107Y-96933569D01*
X156845367Y-96964887D01*
X156822839Y-96992339D01*
X156795387Y-97014867D01*
X156764069Y-97031607D01*
X156730091Y-97041915D01*
X156688610Y-97046000D01*
X156087390Y-97046000D01*
X156045909Y-97041915D01*
X156011931Y-97031607D01*
X155980613Y-97014867D01*
X155953161Y-96992339D01*
X155930633Y-96964887D01*
X155913893Y-96933569D01*
X155903585Y-96899591D01*
X155899500Y-96858110D01*
X155899500Y-96181890D01*
X155903585Y-96140409D01*
X155913893Y-96106431D01*
X155930633Y-96075113D01*
X155953161Y-96047661D01*
X155980613Y-96025133D01*
X156011931Y-96008393D01*
X156045909Y-95998085D01*
X156087390Y-95994000D01*
X156688610Y-95994000D01*
X156730091Y-95998085D01*
X156730091Y-95998085D01*
G37*
G36*
X138616643Y-94990519D02*
X138682827Y-94997037D01*
X138752450Y-95018157D01*
X138852667Y-95048557D01*
X138952315Y-95101821D01*
X139009191Y-95132222D01*
X139044929Y-95161552D01*
X139146386Y-95244814D01*
X139229648Y-95346271D01*
X139258978Y-95382009D01*
X139258979Y-95382011D01*
X139342643Y-95538533D01*
X139342643Y-95538534D01*
X139394163Y-95708373D01*
X139411559Y-95885000D01*
X139394163Y-96061627D01*
X139380572Y-96106431D01*
X139342643Y-96231467D01*
X139339017Y-96238250D01*
X139258978Y-96387991D01*
X139229648Y-96423729D01*
X139146386Y-96525186D01*
X139046233Y-96607378D01*
X139009191Y-96637778D01*
X139009189Y-96637779D01*
X138852667Y-96721443D01*
X138796053Y-96738616D01*
X138682827Y-96772963D01*
X138616642Y-96779482D01*
X138550460Y-96786000D01*
X138461940Y-96786000D01*
X138395758Y-96779482D01*
X138329573Y-96772963D01*
X138216347Y-96738616D01*
X138159733Y-96721443D01*
X138003211Y-96637779D01*
X138003209Y-96637778D01*
X137966167Y-96607378D01*
X137866014Y-96525186D01*
X137782752Y-96423729D01*
X137753422Y-96387991D01*
X137673383Y-96238250D01*
X137669757Y-96231467D01*
X137631828Y-96106431D01*
X137618237Y-96061627D01*
X137600841Y-95885000D01*
X137618237Y-95708373D01*
X137669757Y-95538534D01*
X137669757Y-95538533D01*
X137753421Y-95382011D01*
X137753422Y-95382009D01*
X137782752Y-95346271D01*
X137866014Y-95244814D01*
X137967471Y-95161552D01*
X138003209Y-95132222D01*
X138060085Y-95101821D01*
X138159733Y-95048557D01*
X138259950Y-95018157D01*
X138329573Y-94997037D01*
X138395757Y-94990519D01*
X138461940Y-94984000D01*
X138550460Y-94984000D01*
X138616643Y-94990519D01*
X138616643Y-94990519D01*
G37*
G36*
X158555542Y-94960118D02*
X158621727Y-94966637D01*
X158734953Y-95000984D01*
X158791567Y-95018157D01*
X158930187Y-95092252D01*
X158948091Y-95101822D01*
X158983829Y-95131152D01*
X159085286Y-95214414D01*
X159168548Y-95315871D01*
X159197878Y-95351609D01*
X159197879Y-95351611D01*
X159281543Y-95508133D01*
X159290765Y-95538534D01*
X159333063Y-95677973D01*
X159350459Y-95854600D01*
X159333063Y-96031227D01*
X159319750Y-96075113D01*
X159281543Y-96201067D01*
X159261668Y-96238250D01*
X159197878Y-96357591D01*
X159172931Y-96387989D01*
X159085286Y-96494786D01*
X158983829Y-96578048D01*
X158948091Y-96607378D01*
X158948089Y-96607379D01*
X158791567Y-96691043D01*
X158734953Y-96708216D01*
X158621727Y-96742563D01*
X158555543Y-96749081D01*
X158489360Y-96755600D01*
X158400840Y-96755600D01*
X158334658Y-96749082D01*
X158268473Y-96742563D01*
X158155247Y-96708216D01*
X158098633Y-96691043D01*
X157942111Y-96607379D01*
X157942109Y-96607378D01*
X157906371Y-96578048D01*
X157804914Y-96494786D01*
X157717269Y-96387989D01*
X157692322Y-96357591D01*
X157628532Y-96238250D01*
X157608657Y-96201067D01*
X157570450Y-96075113D01*
X157557137Y-96031227D01*
X157539741Y-95854600D01*
X157557137Y-95677973D01*
X157599435Y-95538534D01*
X157608657Y-95508133D01*
X157692321Y-95351611D01*
X157692322Y-95351609D01*
X157721652Y-95315871D01*
X157804914Y-95214414D01*
X157906371Y-95131152D01*
X157942109Y-95101822D01*
X157960013Y-95092252D01*
X158098633Y-95018157D01*
X158155247Y-95000984D01*
X158268473Y-94966637D01*
X158334658Y-94960118D01*
X158400840Y-94953600D01*
X158489360Y-94953600D01*
X158555542Y-94960118D01*
X158555542Y-94960118D01*
G37*
G36*
X149530600Y-95189600D02*
X143577400Y-95189600D01*
X143577400Y-93786400D01*
X149530600Y-93786400D01*
X149530600Y-95189600D01*
X149530600Y-95189600D01*
G37*
G36*
X138616643Y-92450519D02*
X138682827Y-92457037D01*
X138752450Y-92478157D01*
X138852667Y-92508557D01*
X138952315Y-92561821D01*
X139009191Y-92592222D01*
X139044929Y-92621552D01*
X139146386Y-92704814D01*
X139219348Y-92793720D01*
X139258978Y-92842009D01*
X139258979Y-92842011D01*
X139342643Y-92998533D01*
X139342643Y-92998534D01*
X139394163Y-93168373D01*
X139411559Y-93345000D01*
X139394163Y-93521627D01*
X139359816Y-93634853D01*
X139342643Y-93691467D01*
X139291899Y-93786400D01*
X139258978Y-93847991D01*
X139229648Y-93883729D01*
X139146386Y-93985186D01*
X139046233Y-94067378D01*
X139009191Y-94097778D01*
X139009189Y-94097779D01*
X138852667Y-94181443D01*
X138796053Y-94198616D01*
X138682827Y-94232963D01*
X138616643Y-94239481D01*
X138550460Y-94246000D01*
X138461940Y-94246000D01*
X138395757Y-94239481D01*
X138329573Y-94232963D01*
X138216347Y-94198616D01*
X138159733Y-94181443D01*
X138003211Y-94097779D01*
X138003209Y-94097778D01*
X137966167Y-94067378D01*
X137866014Y-93985186D01*
X137782752Y-93883729D01*
X137753422Y-93847991D01*
X137720501Y-93786400D01*
X137669757Y-93691467D01*
X137652584Y-93634853D01*
X137618237Y-93521627D01*
X137600841Y-93345000D01*
X137618237Y-93168373D01*
X137669757Y-92998534D01*
X137669757Y-92998533D01*
X137753421Y-92842011D01*
X137753422Y-92842009D01*
X137793052Y-92793720D01*
X137866014Y-92704814D01*
X137967471Y-92621552D01*
X138003209Y-92592222D01*
X138060085Y-92561821D01*
X138159733Y-92508557D01*
X138259950Y-92478157D01*
X138329573Y-92457037D01*
X138395757Y-92450519D01*
X138461940Y-92444000D01*
X138550460Y-92444000D01*
X138616643Y-92450519D01*
X138616643Y-92450519D01*
G37*
G36*
X158555542Y-92420118D02*
X158621727Y-92426637D01*
X158734953Y-92460984D01*
X158791567Y-92478157D01*
X158930187Y-92552252D01*
X158948091Y-92561822D01*
X158983829Y-92591152D01*
X159085286Y-92674414D01*
X159168548Y-92775871D01*
X159197878Y-92811609D01*
X159197879Y-92811611D01*
X159281543Y-92968133D01*
X159290765Y-92998534D01*
X159333063Y-93137973D01*
X159350459Y-93314600D01*
X159333063Y-93491227D01*
X159323841Y-93521627D01*
X159281543Y-93661067D01*
X159214550Y-93786400D01*
X159197878Y-93817591D01*
X159172931Y-93847989D01*
X159085286Y-93954786D01*
X158983829Y-94038048D01*
X158948091Y-94067378D01*
X158948089Y-94067379D01*
X158791567Y-94151043D01*
X158734953Y-94168216D01*
X158621727Y-94202563D01*
X158555542Y-94209082D01*
X158489360Y-94215600D01*
X158400840Y-94215600D01*
X158334658Y-94209082D01*
X158268473Y-94202563D01*
X158155247Y-94168216D01*
X158098633Y-94151043D01*
X157942111Y-94067379D01*
X157942109Y-94067378D01*
X157906371Y-94038048D01*
X157804914Y-93954786D01*
X157717269Y-93847989D01*
X157692322Y-93817591D01*
X157675650Y-93786400D01*
X157608657Y-93661067D01*
X157566359Y-93521627D01*
X157557137Y-93491227D01*
X157539741Y-93314600D01*
X157557137Y-93137973D01*
X157599435Y-92998534D01*
X157608657Y-92968133D01*
X157692321Y-92811611D01*
X157692322Y-92811609D01*
X157721652Y-92775871D01*
X157804914Y-92674414D01*
X157906371Y-92591152D01*
X157942109Y-92561822D01*
X157960013Y-92552252D01*
X158098633Y-92478157D01*
X158155247Y-92460984D01*
X158268473Y-92426637D01*
X158334658Y-92420118D01*
X158400840Y-92413600D01*
X158489360Y-92413600D01*
X158555542Y-92420118D01*
X158555542Y-92420118D01*
G37*
G36*
X153961191Y-92264285D02*
X153995169Y-92274593D01*
X154026487Y-92291333D01*
X154053939Y-92313861D01*
X154076467Y-92341313D01*
X154093207Y-92372631D01*
X154103515Y-92406609D01*
X154107600Y-92448090D01*
X154107600Y-93124310D01*
X154103515Y-93165791D01*
X154093207Y-93199769D01*
X154076467Y-93231087D01*
X154053939Y-93258539D01*
X154026487Y-93281067D01*
X153995169Y-93297807D01*
X153961191Y-93308115D01*
X153919710Y-93312200D01*
X153318490Y-93312200D01*
X153277009Y-93308115D01*
X153243031Y-93297807D01*
X153211713Y-93281067D01*
X153184261Y-93258539D01*
X153161733Y-93231087D01*
X153144993Y-93199769D01*
X153134685Y-93165791D01*
X153130600Y-93124310D01*
X153130600Y-92448090D01*
X153134685Y-92406609D01*
X153144993Y-92372631D01*
X153161733Y-92341313D01*
X153184261Y-92313861D01*
X153211713Y-92291333D01*
X153243031Y-92274593D01*
X153277009Y-92264285D01*
X153318490Y-92260200D01*
X153919710Y-92260200D01*
X153961191Y-92264285D01*
X153961191Y-92264285D01*
G37*
G36*
X155536191Y-92264285D02*
X155570169Y-92274593D01*
X155601487Y-92291333D01*
X155628939Y-92313861D01*
X155651467Y-92341313D01*
X155668207Y-92372631D01*
X155678515Y-92406609D01*
X155682600Y-92448090D01*
X155682600Y-93124310D01*
X155678515Y-93165791D01*
X155668207Y-93199769D01*
X155651467Y-93231087D01*
X155628939Y-93258539D01*
X155601487Y-93281067D01*
X155570169Y-93297807D01*
X155536191Y-93308115D01*
X155494710Y-93312200D01*
X154893490Y-93312200D01*
X154852009Y-93308115D01*
X154818031Y-93297807D01*
X154786713Y-93281067D01*
X154759261Y-93258539D01*
X154736733Y-93231087D01*
X154719993Y-93199769D01*
X154709685Y-93165791D01*
X154705600Y-93124310D01*
X154705600Y-92448090D01*
X154709685Y-92406609D01*
X154719993Y-92372631D01*
X154736733Y-92341313D01*
X154759261Y-92313861D01*
X154786713Y-92291333D01*
X154818031Y-92274593D01*
X154852009Y-92264285D01*
X154893490Y-92260200D01*
X155494710Y-92260200D01*
X155536191Y-92264285D01*
X155536191Y-92264285D01*
G37*
G36*
X147064591Y-91971585D02*
X147098569Y-91981893D01*
X147129887Y-91998633D01*
X147157339Y-92021161D01*
X147179867Y-92048613D01*
X147196607Y-92079931D01*
X147206915Y-92113909D01*
X147211000Y-92155390D01*
X147211000Y-92756610D01*
X147206915Y-92798091D01*
X147196607Y-92832069D01*
X147179867Y-92863387D01*
X147157339Y-92890839D01*
X147129887Y-92913367D01*
X147098569Y-92930107D01*
X147064591Y-92940415D01*
X147023110Y-92944500D01*
X146346890Y-92944500D01*
X146305409Y-92940415D01*
X146271431Y-92930107D01*
X146240113Y-92913367D01*
X146212661Y-92890839D01*
X146190133Y-92863387D01*
X146173393Y-92832069D01*
X146163085Y-92798091D01*
X146159000Y-92756610D01*
X146159000Y-92155390D01*
X146163085Y-92113909D01*
X146173393Y-92079931D01*
X146190133Y-92048613D01*
X146212661Y-92021161D01*
X146240113Y-91998633D01*
X146271431Y-91981893D01*
X146305409Y-91971585D01*
X146346890Y-91967500D01*
X147023110Y-91967500D01*
X147064591Y-91971585D01*
X147064591Y-91971585D01*
G37*
G36*
X145254600Y-91837600D02*
X144051400Y-91837600D01*
X144051400Y-90534400D01*
X145254600Y-90534400D01*
X145254600Y-91837600D01*
X145254600Y-91837600D01*
G37*
G36*
X142968600Y-91837600D02*
X141765400Y-91837600D01*
X141765400Y-90534400D01*
X142968600Y-90534400D01*
X142968600Y-91837600D01*
X142968600Y-91837600D01*
G37*
G36*
X138616642Y-89910518D02*
X138682827Y-89917037D01*
X138752450Y-89938157D01*
X138852667Y-89968557D01*
X138952315Y-90021821D01*
X139009191Y-90052222D01*
X139044929Y-90081552D01*
X139146386Y-90164814D01*
X139229648Y-90266271D01*
X139258978Y-90302009D01*
X139258979Y-90302011D01*
X139342643Y-90458533D01*
X139342643Y-90458534D01*
X139394163Y-90628373D01*
X139411559Y-90805000D01*
X139394163Y-90981627D01*
X139359816Y-91094853D01*
X139342643Y-91151467D01*
X139286197Y-91257069D01*
X139258978Y-91307991D01*
X139252537Y-91315839D01*
X139146386Y-91445186D01*
X139046233Y-91527378D01*
X139009191Y-91557778D01*
X139009189Y-91557779D01*
X138852667Y-91641443D01*
X138796053Y-91658616D01*
X138682827Y-91692963D01*
X138616642Y-91699482D01*
X138550460Y-91706000D01*
X138461940Y-91706000D01*
X138395758Y-91699482D01*
X138329573Y-91692963D01*
X138216347Y-91658616D01*
X138159733Y-91641443D01*
X138003211Y-91557779D01*
X138003209Y-91557778D01*
X137966167Y-91527378D01*
X137866014Y-91445186D01*
X137759863Y-91315839D01*
X137753422Y-91307991D01*
X137726203Y-91257069D01*
X137669757Y-91151467D01*
X137652584Y-91094853D01*
X137618237Y-90981627D01*
X137600841Y-90805000D01*
X137618237Y-90628373D01*
X137669757Y-90458534D01*
X137669757Y-90458533D01*
X137753421Y-90302011D01*
X137753422Y-90302009D01*
X137782752Y-90266271D01*
X137866014Y-90164814D01*
X137967471Y-90081552D01*
X138003209Y-90052222D01*
X138060085Y-90021821D01*
X138159733Y-89968557D01*
X138259950Y-89938157D01*
X138329573Y-89917037D01*
X138395758Y-89910518D01*
X138461940Y-89904000D01*
X138550460Y-89904000D01*
X138616642Y-89910518D01*
X138616642Y-89910518D01*
G37*
G36*
X158555542Y-89880118D02*
X158621727Y-89886637D01*
X158734953Y-89920984D01*
X158791567Y-89938157D01*
X158930187Y-90012252D01*
X158948091Y-90021822D01*
X158983829Y-90051152D01*
X159085286Y-90134414D01*
X159168548Y-90235871D01*
X159197878Y-90271609D01*
X159197879Y-90271611D01*
X159281543Y-90428133D01*
X159290765Y-90458534D01*
X159333063Y-90597973D01*
X159350459Y-90774600D01*
X159333063Y-90951227D01*
X159323841Y-90981627D01*
X159281543Y-91121067D01*
X159227009Y-91223091D01*
X159197878Y-91277591D01*
X159172931Y-91307989D01*
X159085286Y-91414786D01*
X158983829Y-91498048D01*
X158948091Y-91527378D01*
X158948089Y-91527379D01*
X158791567Y-91611043D01*
X158734953Y-91628216D01*
X158621727Y-91662563D01*
X158555543Y-91669081D01*
X158489360Y-91675600D01*
X158400840Y-91675600D01*
X158334657Y-91669081D01*
X158268473Y-91662563D01*
X158155247Y-91628216D01*
X158098633Y-91611043D01*
X157942111Y-91527379D01*
X157942109Y-91527378D01*
X157906371Y-91498048D01*
X157804914Y-91414786D01*
X157717269Y-91307989D01*
X157692322Y-91277591D01*
X157663191Y-91223091D01*
X157608657Y-91121067D01*
X157566359Y-90981627D01*
X157557137Y-90951227D01*
X157539741Y-90774600D01*
X157557137Y-90597973D01*
X157599435Y-90458534D01*
X157608657Y-90428133D01*
X157692321Y-90271611D01*
X157692322Y-90271609D01*
X157721652Y-90235871D01*
X157804914Y-90134414D01*
X157906371Y-90051152D01*
X157942109Y-90021822D01*
X157960013Y-90012252D01*
X158098633Y-89938157D01*
X158155247Y-89920984D01*
X158268473Y-89886637D01*
X158334658Y-89880118D01*
X158400840Y-89873600D01*
X158489360Y-89873600D01*
X158555542Y-89880118D01*
X158555542Y-89880118D01*
G37*
G36*
X147064591Y-90396585D02*
X147098569Y-90406893D01*
X147129887Y-90423633D01*
X147157339Y-90446161D01*
X147179867Y-90473613D01*
X147196607Y-90504931D01*
X147206915Y-90538909D01*
X147211000Y-90580390D01*
X147211000Y-91181610D01*
X147206915Y-91223091D01*
X147196607Y-91257069D01*
X147179867Y-91288387D01*
X147157339Y-91315839D01*
X147129887Y-91338367D01*
X147098569Y-91355107D01*
X147064591Y-91365415D01*
X147023110Y-91369500D01*
X146346890Y-91369500D01*
X146305409Y-91365415D01*
X146271431Y-91355107D01*
X146240113Y-91338367D01*
X146212661Y-91315839D01*
X146190133Y-91288387D01*
X146173393Y-91257069D01*
X146163085Y-91223091D01*
X146159000Y-91181610D01*
X146159000Y-90580390D01*
X146163085Y-90538909D01*
X146173393Y-90504931D01*
X146190133Y-90473613D01*
X146212661Y-90446161D01*
X146240113Y-90423633D01*
X146271431Y-90406893D01*
X146305409Y-90396585D01*
X146346890Y-90392500D01*
X147023110Y-90392500D01*
X147064591Y-90396585D01*
X147064591Y-90396585D01*
G37*
G36*
X145254600Y-90137600D02*
X144051400Y-90137600D01*
X144051400Y-88834400D01*
X145254600Y-88834400D01*
X145254600Y-90137600D01*
X145254600Y-90137600D01*
G37*
G36*
X142968600Y-90137600D02*
X141765400Y-90137600D01*
X141765400Y-88834400D01*
X142968600Y-88834400D01*
X142968600Y-90137600D01*
X142968600Y-90137600D01*
G37*
G36*
X138616643Y-87370519D02*
X138682827Y-87377037D01*
X138752450Y-87398157D01*
X138852667Y-87428557D01*
X138991287Y-87502652D01*
X139009191Y-87512222D01*
X139044929Y-87541552D01*
X139146386Y-87624814D01*
X139229648Y-87726271D01*
X139258978Y-87762009D01*
X139258979Y-87762011D01*
X139342643Y-87918533D01*
X139342643Y-87918534D01*
X139394163Y-88088373D01*
X139411559Y-88265000D01*
X139394163Y-88441627D01*
X139359816Y-88554853D01*
X139342643Y-88611467D01*
X139275228Y-88737589D01*
X139258978Y-88767991D01*
X139229648Y-88803729D01*
X139146386Y-88905186D01*
X139046233Y-88987378D01*
X139009191Y-89017778D01*
X139009189Y-89017779D01*
X138852667Y-89101443D01*
X138796053Y-89118616D01*
X138682827Y-89152963D01*
X138616643Y-89159481D01*
X138550460Y-89166000D01*
X138461940Y-89166000D01*
X138395757Y-89159481D01*
X138329573Y-89152963D01*
X138216347Y-89118616D01*
X138159733Y-89101443D01*
X138003211Y-89017779D01*
X138003209Y-89017778D01*
X137966167Y-88987378D01*
X137866014Y-88905186D01*
X137782752Y-88803729D01*
X137753422Y-88767991D01*
X137737172Y-88737589D01*
X137669757Y-88611467D01*
X137652584Y-88554853D01*
X137618237Y-88441627D01*
X137600841Y-88265000D01*
X137618237Y-88088373D01*
X137669757Y-87918534D01*
X137669757Y-87918533D01*
X137753421Y-87762011D01*
X137753422Y-87762009D01*
X137782752Y-87726271D01*
X137866014Y-87624814D01*
X137967471Y-87541552D01*
X138003209Y-87512222D01*
X138021113Y-87502652D01*
X138159733Y-87428557D01*
X138259950Y-87398157D01*
X138329573Y-87377037D01*
X138395757Y-87370519D01*
X138461940Y-87364000D01*
X138550460Y-87364000D01*
X138616643Y-87370519D01*
X138616643Y-87370519D01*
G37*
G36*
X158555543Y-87340119D02*
X158621727Y-87346637D01*
X158734953Y-87380984D01*
X158791567Y-87398157D01*
X158930187Y-87472252D01*
X158948091Y-87481822D01*
X158983829Y-87511152D01*
X159085286Y-87594414D01*
X159168548Y-87695871D01*
X159197878Y-87731609D01*
X159197879Y-87731611D01*
X159281543Y-87888133D01*
X159290765Y-87918534D01*
X159333063Y-88057973D01*
X159350459Y-88234600D01*
X159333063Y-88411227D01*
X159323841Y-88441627D01*
X159281543Y-88581067D01*
X159207448Y-88719687D01*
X159197878Y-88737591D01*
X159172931Y-88767989D01*
X159085286Y-88874786D01*
X158983829Y-88958048D01*
X158948091Y-88987378D01*
X158948089Y-88987379D01*
X158791567Y-89071043D01*
X158734953Y-89088216D01*
X158621727Y-89122563D01*
X158555542Y-89129082D01*
X158489360Y-89135600D01*
X158400840Y-89135600D01*
X158334658Y-89129082D01*
X158268473Y-89122563D01*
X158155247Y-89088216D01*
X158098633Y-89071043D01*
X157942111Y-88987379D01*
X157942109Y-88987378D01*
X157906371Y-88958048D01*
X157804914Y-88874786D01*
X157717269Y-88767989D01*
X157692322Y-88737591D01*
X157682752Y-88719687D01*
X157608657Y-88581067D01*
X157566359Y-88441627D01*
X157557137Y-88411227D01*
X157539741Y-88234600D01*
X157557137Y-88057973D01*
X157599435Y-87918534D01*
X157608657Y-87888133D01*
X157692321Y-87731611D01*
X157692322Y-87731609D01*
X157721652Y-87695871D01*
X157804914Y-87594414D01*
X157906371Y-87511152D01*
X157942109Y-87481822D01*
X157960013Y-87472252D01*
X158098633Y-87398157D01*
X158155247Y-87380984D01*
X158268473Y-87346637D01*
X158334657Y-87340119D01*
X158400840Y-87333600D01*
X158489360Y-87333600D01*
X158555543Y-87340119D01*
X158555543Y-87340119D01*
G37*
G36*
X146094552Y-85152331D02*
X146176625Y-85186327D01*
X146176626Y-85186328D01*
X146176629Y-85186329D01*
X146250496Y-85235686D01*
X146250500Y-85235689D01*
X146313311Y-85298500D01*
X146313313Y-85298503D01*
X146313314Y-85298504D01*
X146362671Y-85372371D01*
X146362672Y-85372374D01*
X146362673Y-85372375D01*
X146396669Y-85454448D01*
X146414000Y-85541579D01*
X146414000Y-85630421D01*
X146396669Y-85717552D01*
X146368454Y-85785668D01*
X146362671Y-85799629D01*
X146313314Y-85873496D01*
X146313311Y-85873500D01*
X146250500Y-85936311D01*
X146250497Y-85936313D01*
X146250496Y-85936314D01*
X146176629Y-85985671D01*
X146176626Y-85985672D01*
X146176625Y-85985673D01*
X146094552Y-86019669D01*
X146007421Y-86037000D01*
X145918579Y-86037000D01*
X145831448Y-86019669D01*
X145749375Y-85985673D01*
X145749374Y-85985672D01*
X145749371Y-85985671D01*
X145675504Y-85936314D01*
X145675503Y-85936313D01*
X145675500Y-85936311D01*
X145612686Y-85873497D01*
X145612493Y-85873208D01*
X145596948Y-85854266D01*
X145578006Y-85838721D01*
X145556395Y-85827170D01*
X145532946Y-85820057D01*
X145508559Y-85817655D01*
X145484173Y-85820057D01*
X145460724Y-85827170D01*
X145439113Y-85838722D01*
X145420171Y-85854267D01*
X145404626Y-85873209D01*
X145393075Y-85894820D01*
X145385962Y-85918269D01*
X145384162Y-85954905D01*
X145389000Y-86004027D01*
X145389000Y-87267973D01*
X145379580Y-87363618D01*
X145359881Y-87428557D01*
X145342355Y-87486333D01*
X145328517Y-87512221D01*
X145281905Y-87599426D01*
X145200553Y-87698553D01*
X145101425Y-87779905D01*
X145048782Y-87808043D01*
X144988332Y-87840355D01*
X144947426Y-87852763D01*
X144865617Y-87877580D01*
X144738000Y-87890149D01*
X144610382Y-87877580D01*
X144528573Y-87852763D01*
X144487667Y-87840355D01*
X144374576Y-87779906D01*
X144374574Y-87779905D01*
X144275447Y-87698553D01*
X144194095Y-87599425D01*
X144133646Y-87486333D01*
X144133645Y-87486332D01*
X144121237Y-87445426D01*
X144096420Y-87363617D01*
X144087000Y-87267972D01*
X144087001Y-86004027D01*
X144096421Y-85908382D01*
X144133646Y-85785668D01*
X144133646Y-85785667D01*
X144194095Y-85672576D01*
X144194096Y-85672574D01*
X144275448Y-85573447D01*
X144374575Y-85492095D01*
X144387510Y-85485181D01*
X144487668Y-85431645D01*
X144528574Y-85419237D01*
X144610383Y-85394420D01*
X144738000Y-85381851D01*
X144865618Y-85394420D01*
X144947427Y-85419237D01*
X144988333Y-85431645D01*
X145088491Y-85485181D01*
X145101426Y-85492095D01*
X145200553Y-85573447D01*
X145281905Y-85672574D01*
X145281906Y-85672576D01*
X145288835Y-85681019D01*
X145290375Y-85683323D01*
X145307702Y-85700650D01*
X145328077Y-85714264D01*
X145350716Y-85723641D01*
X145374749Y-85728421D01*
X145399253Y-85728421D01*
X145423287Y-85723640D01*
X145445926Y-85714263D01*
X145466300Y-85700648D01*
X145483627Y-85683321D01*
X145497241Y-85662946D01*
X145506618Y-85640307D01*
X145512000Y-85604023D01*
X145512000Y-85541579D01*
X145529331Y-85454448D01*
X145563327Y-85372375D01*
X145563328Y-85372374D01*
X145563329Y-85372371D01*
X145612686Y-85298504D01*
X145612687Y-85298503D01*
X145612689Y-85298500D01*
X145675500Y-85235689D01*
X145675504Y-85235686D01*
X145749371Y-85186329D01*
X145749374Y-85186328D01*
X145749375Y-85186327D01*
X145831448Y-85152331D01*
X145918579Y-85135000D01*
X146007421Y-85135000D01*
X146094552Y-85152331D01*
X146094552Y-85152331D01*
G37*
G36*
X151094552Y-85152331D02*
X151176625Y-85186327D01*
X151176626Y-85186328D01*
X151176629Y-85186329D01*
X151250496Y-85235686D01*
X151250500Y-85235689D01*
X151313311Y-85298500D01*
X151313313Y-85298503D01*
X151313314Y-85298504D01*
X151362671Y-85372371D01*
X151362672Y-85372374D01*
X151362673Y-85372375D01*
X151396669Y-85454448D01*
X151414000Y-85541579D01*
X151414000Y-85604025D01*
X151416402Y-85628411D01*
X151423515Y-85651860D01*
X151435066Y-85673471D01*
X151450612Y-85692413D01*
X151469554Y-85707959D01*
X151491165Y-85719510D01*
X151514614Y-85726623D01*
X151539000Y-85729025D01*
X151563386Y-85726623D01*
X151586835Y-85719510D01*
X151608446Y-85707959D01*
X151627388Y-85692413D01*
X151636030Y-85681883D01*
X151636285Y-85682092D01*
X151725448Y-85573447D01*
X151764279Y-85541579D01*
X151824575Y-85492095D01*
X151837510Y-85485181D01*
X151937668Y-85431645D01*
X151978574Y-85419237D01*
X152060383Y-85394420D01*
X152188000Y-85381851D01*
X152315618Y-85394420D01*
X152397427Y-85419237D01*
X152438333Y-85431645D01*
X152538491Y-85485181D01*
X152551426Y-85492095D01*
X152650553Y-85573447D01*
X152731905Y-85672574D01*
X152731906Y-85672576D01*
X152792355Y-85785667D01*
X152792355Y-85785668D01*
X152829580Y-85908382D01*
X152839000Y-86004027D01*
X152839000Y-87267973D01*
X152829580Y-87363618D01*
X152809881Y-87428557D01*
X152792355Y-87486333D01*
X152778517Y-87512221D01*
X152731905Y-87599426D01*
X152650553Y-87698553D01*
X152551425Y-87779905D01*
X152498782Y-87808043D01*
X152438332Y-87840355D01*
X152397426Y-87852763D01*
X152315617Y-87877580D01*
X152188000Y-87890149D01*
X152060382Y-87877580D01*
X151978573Y-87852763D01*
X151937667Y-87840355D01*
X151824576Y-87779906D01*
X151824574Y-87779905D01*
X151725447Y-87698553D01*
X151644095Y-87599425D01*
X151583646Y-87486333D01*
X151583645Y-87486332D01*
X151571237Y-87445426D01*
X151546420Y-87363617D01*
X151537000Y-87267972D01*
X151537001Y-86004027D01*
X151541839Y-85954905D01*
X151541839Y-85930401D01*
X151537059Y-85906367D01*
X151527681Y-85883728D01*
X151514067Y-85863354D01*
X151496740Y-85846027D01*
X151476366Y-85832413D01*
X151453727Y-85823035D01*
X151429693Y-85818255D01*
X151405189Y-85818255D01*
X151381155Y-85823035D01*
X151358516Y-85832413D01*
X151338142Y-85846027D01*
X151320815Y-85863354D01*
X151313510Y-85873202D01*
X151313314Y-85873496D01*
X151313311Y-85873500D01*
X151250500Y-85936311D01*
X151250497Y-85936313D01*
X151250496Y-85936314D01*
X151176629Y-85985671D01*
X151176626Y-85985672D01*
X151176625Y-85985673D01*
X151094552Y-86019669D01*
X151007421Y-86037000D01*
X150918579Y-86037000D01*
X150831448Y-86019669D01*
X150749375Y-85985673D01*
X150749374Y-85985672D01*
X150749371Y-85985671D01*
X150675504Y-85936314D01*
X150675503Y-85936313D01*
X150675500Y-85936311D01*
X150612689Y-85873500D01*
X150612686Y-85873496D01*
X150563329Y-85799629D01*
X150557546Y-85785668D01*
X150529331Y-85717552D01*
X150512000Y-85630421D01*
X150512000Y-85541579D01*
X150529331Y-85454448D01*
X150563327Y-85372375D01*
X150563328Y-85372374D01*
X150563329Y-85372371D01*
X150612686Y-85298504D01*
X150612687Y-85298503D01*
X150612689Y-85298500D01*
X150675500Y-85235689D01*
X150675504Y-85235686D01*
X150749371Y-85186329D01*
X150749374Y-85186328D01*
X150749375Y-85186327D01*
X150831448Y-85152331D01*
X150918579Y-85135000D01*
X151007421Y-85135000D01*
X151094552Y-85152331D01*
X151094552Y-85152331D01*
G37*
G36*
X139407200Y-86626000D02*
X137605200Y-86626000D01*
X137605200Y-84824000D01*
X139407200Y-84824000D01*
X139407200Y-86626000D01*
X139407200Y-86626000D01*
G37*
G36*
X159346100Y-86595600D02*
X157544100Y-86595600D01*
X157544100Y-84793600D01*
X159346100Y-84793600D01*
X159346100Y-86595600D01*
X159346100Y-86595600D01*
G37*
G36*
X152436213Y-81892249D02*
X152530652Y-81920897D01*
X152617687Y-81967418D01*
X152693975Y-82030025D01*
X152756582Y-82106313D01*
X152803103Y-82193348D01*
X152831751Y-82287787D01*
X152839000Y-82361388D01*
X152839000Y-83310612D01*
X152831751Y-83384213D01*
X152803103Y-83478652D01*
X152756582Y-83565687D01*
X152693975Y-83641975D01*
X152617687Y-83704582D01*
X152530651Y-83751103D01*
X152436212Y-83779751D01*
X152338000Y-83789424D01*
X152239787Y-83779751D01*
X152145348Y-83751103D01*
X152058313Y-83704582D01*
X151982025Y-83641975D01*
X151919418Y-83565687D01*
X151872897Y-83478651D01*
X151844249Y-83384212D01*
X151837000Y-83310611D01*
X151837000Y-82361400D01*
X151837001Y-82361388D01*
X151844250Y-82287787D01*
X151872898Y-82193348D01*
X151919419Y-82106313D01*
X151982026Y-82030025D01*
X152058314Y-81967418D01*
X152145349Y-81920897D01*
X152239788Y-81892249D01*
X152338000Y-81882576D01*
X152436213Y-81892249D01*
X152436213Y-81892249D01*
G37*
G36*
X144686213Y-81892249D02*
X144780652Y-81920897D01*
X144867687Y-81967418D01*
X144943975Y-82030025D01*
X145006582Y-82106313D01*
X145053103Y-82193348D01*
X145081751Y-82287787D01*
X145089000Y-82361388D01*
X145089000Y-83310612D01*
X145081751Y-83384213D01*
X145053103Y-83478652D01*
X145006582Y-83565687D01*
X144943975Y-83641975D01*
X144867687Y-83704582D01*
X144780651Y-83751103D01*
X144686212Y-83779751D01*
X144588000Y-83789424D01*
X144489787Y-83779751D01*
X144395348Y-83751103D01*
X144308313Y-83704582D01*
X144232025Y-83641975D01*
X144169418Y-83565687D01*
X144122897Y-83478651D01*
X144094249Y-83384212D01*
X144087000Y-83310611D01*
X144087000Y-82361400D01*
X144087001Y-82361388D01*
X144094250Y-82287787D01*
X144122898Y-82193348D01*
X144169419Y-82106313D01*
X144232026Y-82030025D01*
X144308314Y-81967418D01*
X144395349Y-81920897D01*
X144489788Y-81892249D01*
X144588000Y-81882576D01*
X144686213Y-81892249D01*
X144686213Y-81892249D01*
G37*
M02*
