G04 #@! TF.GenerationSoftware,KiCad,Pcbnew,(5.0.0-3-g5ebb6b6)*
G04 #@! TF.CreationDate,2020-03-22T12:42:52-07:00*
G04 #@! TF.ProjectId,ravenna,726176656E6E612E6B696361645F7063,rev?*
G04 #@! TF.SameCoordinates,Original*
G04 #@! TF.FileFunction,Legend,Bot*
G04 #@! TF.FilePolarity,Positive*
%FSLAX46Y46*%
G04 Gerber Fmt 4.6, Leading zero omitted, Abs format (unit mm)*
G04 Created by KiCad (PCBNEW (5.0.0-3-g5ebb6b6)) date Sunday, March 22, 2020 at 12:42:52 PM*
%MOMM*%
%LPD*%
G01*
G04 APERTURE LIST*
%ADD10C,0.120000*%
%ADD11C,0.127000*%
%ADD12C,0.254000*%
%ADD13C,0.100000*%
%ADD14C,0.152400*%
G04 APERTURE END LIST*
D10*
G04 #@! TO.C,R14*
X154797879Y-109552200D02*
X154472321Y-109552200D01*
X154797879Y-108532200D02*
X154472321Y-108532200D01*
G04 #@! TO.C,R5*
X154243821Y-92276200D02*
X154569379Y-92276200D01*
X154243821Y-93296200D02*
X154569379Y-93296200D01*
G04 #@! TO.C,R7*
X149087721Y-118108000D02*
X149413279Y-118108000D01*
X149087721Y-119128000D02*
X149413279Y-119128000D01*
G04 #@! TO.C,R9*
X147699000Y-106233079D02*
X147699000Y-105907521D01*
X148719000Y-106233079D02*
X148719000Y-105907521D01*
G04 #@! TO.C,C15*
X152283279Y-104650000D02*
X151957721Y-104650000D01*
X152283279Y-103630000D02*
X151957721Y-103630000D01*
G04 #@! TO.C,C16*
X146175000Y-91831279D02*
X146175000Y-91505721D01*
X147195000Y-91831279D02*
X147195000Y-91505721D01*
G04 #@! TO.C,C17*
X152652000Y-99756279D02*
X152652000Y-99430721D01*
X153672000Y-99756279D02*
X153672000Y-99430721D01*
G04 #@! TO.C,C19*
X146623721Y-108583000D02*
X146949279Y-108583000D01*
X146623721Y-109603000D02*
X146949279Y-109603000D01*
G04 #@! TO.C,C20*
X143258000Y-107304721D02*
X143258000Y-107630279D01*
X142238000Y-107304721D02*
X142238000Y-107630279D01*
G04 #@! TO.C,C21*
X144782000Y-107279221D02*
X144782000Y-107604779D01*
X143762000Y-107279221D02*
X143762000Y-107604779D01*
G04 #@! TO.C,C22*
X155763279Y-98554000D02*
X155437721Y-98554000D01*
X155763279Y-97534000D02*
X155437721Y-97534000D01*
G04 #@! TO.C,C30*
X152986200Y-122722521D02*
X152986200Y-123048079D01*
X151966200Y-122722521D02*
X151966200Y-123048079D01*
G04 #@! TO.C,C8*
X155763279Y-97030000D02*
X155437721Y-97030000D01*
X155763279Y-96010000D02*
X155437721Y-96010000D01*
G04 #@! TO.C,R22*
X142631379Y-112244600D02*
X142305821Y-112244600D01*
X142631379Y-111224600D02*
X142305821Y-111224600D01*
G04 #@! TO.C,R23*
X150586221Y-124966000D02*
X150911779Y-124966000D01*
X150586221Y-125986000D02*
X150911779Y-125986000D01*
D11*
G04 #@! TO.C,IC2*
X149376500Y-101210500D02*
G75*
G03X149376500Y-101210500I-600000J0D01*
G01*
D12*
X149929000Y-102088000D02*
X149929000Y-95888000D01*
X149654000Y-102363000D02*
X149929000Y-102088000D01*
X143454000Y-102363000D02*
X149654000Y-102363000D01*
X143179000Y-102088000D02*
X143454000Y-102363000D01*
X143179000Y-95888000D02*
X143179000Y-102088000D01*
X143454000Y-95613000D02*
X143179000Y-95888000D01*
X149654000Y-95613000D02*
X143454000Y-95613000D01*
X149929000Y-95888000D02*
X149654000Y-95613000D01*
D13*
G04 #@! TO.C,IC4*
X151517100Y-114388600D02*
G75*
G03X151517100Y-114388600I-50000J0D01*
G01*
D14*
X148895100Y-113107600D02*
X148895100Y-114669600D01*
X151740100Y-114669600D02*
X151740100Y-113107600D01*
D13*
G04 #@! TO.C,U1*
X144230000Y-125196000D02*
X143960000Y-125576000D01*
X144250000Y-125196000D02*
X144230000Y-125196000D01*
X144290000Y-125196000D02*
X144250000Y-125196000D01*
X145130000Y-125196000D02*
X144290000Y-125196000D01*
X145130000Y-125036000D02*
X145130000Y-125196000D01*
X148200000Y-127976000D02*
X148200000Y-127476000D01*
X148200000Y-127976000D02*
X147700000Y-127976000D01*
X148150000Y-125176000D02*
X147650000Y-125176000D01*
X143900000Y-127976000D02*
X144400000Y-127976000D01*
X143900000Y-127976000D02*
X143900000Y-127476000D01*
X148200000Y-125176000D02*
X148200000Y-125576000D01*
X148200000Y-125576000D02*
X148200000Y-125676000D01*
D10*
G04 #@! TO.C,R15*
X154421721Y-114552000D02*
X154747279Y-114552000D01*
X154421721Y-115572000D02*
X154747279Y-115572000D01*
G04 #@! TO.C,R16*
X146674721Y-116969000D02*
X147000279Y-116969000D01*
X146674721Y-115949000D02*
X147000279Y-115949000D01*
G04 #@! TD*
M02*
