G04 #@! TF.GenerationSoftware,KiCad,Pcbnew,(5.1.5-0-10_14)*
G04 #@! TF.CreationDate,2020-07-01T13:16:57-07:00*
G04 #@! TF.ProjectId,ravenna,72617665-6e6e-4612-9e6b-696361645f70,rev?*
G04 #@! TF.SameCoordinates,Original*
G04 #@! TF.FileFunction,Legend,Bot*
G04 #@! TF.FilePolarity,Positive*
%FSLAX46Y46*%
G04 Gerber Fmt 4.6, Leading zero omitted, Abs format (unit mm)*
G04 Created by KiCad (PCBNEW (5.1.5-0-10_14)) date 2020-07-01 13:16:57*
%MOMM*%
%LPD*%
G04 APERTURE LIST*
%ADD10C,0.120000*%
%ADD11C,0.127000*%
%ADD12C,0.254000*%
%ADD13C,0.100000*%
%ADD14C,0.152400*%
%ADD15C,0.080000*%
G04 APERTURE END LIST*
D10*
X154797879Y-109552200D02*
X154472321Y-109552200D01*
X154797879Y-108532200D02*
X154472321Y-108532200D01*
X154243821Y-92276200D02*
X154569379Y-92276200D01*
X154243821Y-93296200D02*
X154569379Y-93296200D01*
X149087721Y-118108000D02*
X149413279Y-118108000D01*
X149087721Y-119128000D02*
X149413279Y-119128000D01*
X147699000Y-106233079D02*
X147699000Y-105907521D01*
X148719000Y-106233079D02*
X148719000Y-105907521D01*
X152283279Y-104650000D02*
X151957721Y-104650000D01*
X152283279Y-103630000D02*
X151957721Y-103630000D01*
X146175000Y-91831279D02*
X146175000Y-91505721D01*
X147195000Y-91831279D02*
X147195000Y-91505721D01*
X152652000Y-99756279D02*
X152652000Y-99430721D01*
X153672000Y-99756279D02*
X153672000Y-99430721D01*
X146623721Y-108583000D02*
X146949279Y-108583000D01*
X146623721Y-109603000D02*
X146949279Y-109603000D01*
X143258000Y-107304721D02*
X143258000Y-107630279D01*
X142238000Y-107304721D02*
X142238000Y-107630279D01*
X144782000Y-107279221D02*
X144782000Y-107604779D01*
X143762000Y-107279221D02*
X143762000Y-107604779D01*
X155763279Y-98554000D02*
X155437721Y-98554000D01*
X155763279Y-97534000D02*
X155437721Y-97534000D01*
X152986200Y-122722521D02*
X152986200Y-123048079D01*
X151966200Y-122722521D02*
X151966200Y-123048079D01*
X155763279Y-97030000D02*
X155437721Y-97030000D01*
X155763279Y-96010000D02*
X155437721Y-96010000D01*
X142631379Y-112244600D02*
X142305821Y-112244600D01*
X142631379Y-111224600D02*
X142305821Y-111224600D01*
X150586221Y-124966000D02*
X150911779Y-124966000D01*
X150586221Y-125986000D02*
X150911779Y-125986000D01*
D11*
X149376500Y-101210500D02*
G75*
G03X149376500Y-101210500I-600000J0D01*
G01*
D12*
X149929000Y-102088000D02*
X149929000Y-95888000D01*
X149654000Y-102363000D02*
X149929000Y-102088000D01*
X143454000Y-102363000D02*
X149654000Y-102363000D01*
X143179000Y-102088000D02*
X143454000Y-102363000D01*
X143179000Y-95888000D02*
X143179000Y-102088000D01*
X143454000Y-95613000D02*
X143179000Y-95888000D01*
X149654000Y-95613000D02*
X143454000Y-95613000D01*
X149929000Y-95888000D02*
X149654000Y-95613000D01*
D13*
X151517100Y-114388600D02*
G75*
G03X151517100Y-114388600I-50000J0D01*
G01*
D14*
X148895100Y-113107600D02*
X148895100Y-114669600D01*
X151740100Y-114669600D02*
X151740100Y-113107600D01*
D13*
X144230000Y-125196000D02*
X143960000Y-125576000D01*
X144250000Y-125196000D02*
X144230000Y-125196000D01*
X144290000Y-125196000D02*
X144250000Y-125196000D01*
X145130000Y-125196000D02*
X144290000Y-125196000D01*
X145130000Y-125036000D02*
X145130000Y-125196000D01*
X148200000Y-127976000D02*
X148200000Y-127476000D01*
X148200000Y-127976000D02*
X147700000Y-127976000D01*
X148150000Y-125176000D02*
X147650000Y-125176000D01*
X143900000Y-127976000D02*
X144400000Y-127976000D01*
X143900000Y-127976000D02*
X143900000Y-127476000D01*
X148200000Y-125176000D02*
X148200000Y-125576000D01*
X148200000Y-125576000D02*
X148200000Y-125676000D01*
D10*
X154421721Y-114552000D02*
X154747279Y-114552000D01*
X154421721Y-115572000D02*
X154747279Y-115572000D01*
X146674721Y-116969000D02*
X147000279Y-116969000D01*
X146674721Y-115949000D02*
X147000279Y-115949000D01*
D15*
X154866942Y-110188352D02*
X155000276Y-109997876D01*
X155095514Y-110188352D02*
X155095514Y-109788352D01*
X154943133Y-109788352D01*
X154905038Y-109807400D01*
X154885990Y-109826447D01*
X154866942Y-109864542D01*
X154866942Y-109921685D01*
X154885990Y-109959780D01*
X154905038Y-109978828D01*
X154943133Y-109997876D01*
X155095514Y-109997876D01*
X154485990Y-110188352D02*
X154714561Y-110188352D01*
X154600276Y-110188352D02*
X154600276Y-109788352D01*
X154638371Y-109845495D01*
X154676466Y-109883590D01*
X154714561Y-109902638D01*
X154143133Y-109921685D02*
X154143133Y-110188352D01*
X154238371Y-109769304D02*
X154333609Y-110055019D01*
X154085990Y-110055019D01*
X154473266Y-94108802D02*
X154606600Y-93918326D01*
X154701838Y-94108802D02*
X154701838Y-93708802D01*
X154549457Y-93708802D01*
X154511361Y-93727850D01*
X154492314Y-93746897D01*
X154473266Y-93784992D01*
X154473266Y-93842135D01*
X154492314Y-93880230D01*
X154511361Y-93899278D01*
X154549457Y-93918326D01*
X154701838Y-93918326D01*
X154111361Y-93708802D02*
X154301838Y-93708802D01*
X154320885Y-93899278D01*
X154301838Y-93880230D01*
X154263742Y-93861183D01*
X154168504Y-93861183D01*
X154130409Y-93880230D01*
X154111361Y-93899278D01*
X154092314Y-93937373D01*
X154092314Y-94032611D01*
X154111361Y-94070707D01*
X154130409Y-94089754D01*
X154168504Y-94108802D01*
X154263742Y-94108802D01*
X154301838Y-94089754D01*
X154320885Y-94070707D01*
X149317166Y-120228952D02*
X149450500Y-120038476D01*
X149545738Y-120228952D02*
X149545738Y-119828952D01*
X149393357Y-119828952D01*
X149355261Y-119848000D01*
X149336214Y-119867047D01*
X149317166Y-119905142D01*
X149317166Y-119962285D01*
X149336214Y-120000380D01*
X149355261Y-120019428D01*
X149393357Y-120038476D01*
X149545738Y-120038476D01*
X149183833Y-119828952D02*
X148917166Y-119828952D01*
X149088595Y-120228952D01*
X147424752Y-106003633D02*
X147234276Y-105870300D01*
X147424752Y-105775061D02*
X147024752Y-105775061D01*
X147024752Y-105927442D01*
X147043800Y-105965538D01*
X147062847Y-105984585D01*
X147100942Y-106003633D01*
X147158085Y-106003633D01*
X147196180Y-105984585D01*
X147215228Y-105965538D01*
X147234276Y-105927442D01*
X147234276Y-105775061D01*
X147424752Y-106194109D02*
X147424752Y-106270300D01*
X147405704Y-106308395D01*
X147386657Y-106327442D01*
X147329514Y-106365538D01*
X147253323Y-106384585D01*
X147100942Y-106384585D01*
X147062847Y-106365538D01*
X147043800Y-106346490D01*
X147024752Y-106308395D01*
X147024752Y-106232204D01*
X147043800Y-106194109D01*
X147062847Y-106175061D01*
X147100942Y-106156014D01*
X147196180Y-106156014D01*
X147234276Y-106175061D01*
X147253323Y-106194109D01*
X147272371Y-106232204D01*
X147272371Y-106308395D01*
X147253323Y-106346490D01*
X147234276Y-106365538D01*
X147196180Y-106384585D01*
X152403142Y-103266857D02*
X152422190Y-103285904D01*
X152479333Y-103304952D01*
X152517428Y-103304952D01*
X152574571Y-103285904D01*
X152612666Y-103247809D01*
X152631714Y-103209714D01*
X152650761Y-103133523D01*
X152650761Y-103076380D01*
X152631714Y-103000190D01*
X152612666Y-102962095D01*
X152574571Y-102924000D01*
X152517428Y-102904952D01*
X152479333Y-102904952D01*
X152422190Y-102924000D01*
X152403142Y-102943047D01*
X152022190Y-103304952D02*
X152250761Y-103304952D01*
X152136476Y-103304952D02*
X152136476Y-102904952D01*
X152174571Y-102962095D01*
X152212666Y-103000190D01*
X152250761Y-103019238D01*
X151660285Y-102904952D02*
X151850761Y-102904952D01*
X151869809Y-103095428D01*
X151850761Y-103076380D01*
X151812666Y-103057333D01*
X151717428Y-103057333D01*
X151679333Y-103076380D01*
X151660285Y-103095428D01*
X151641238Y-103133523D01*
X151641238Y-103228761D01*
X151660285Y-103266857D01*
X151679333Y-103285904D01*
X151717428Y-103304952D01*
X151812666Y-103304952D01*
X151850761Y-103285904D01*
X151869809Y-103266857D01*
X147843857Y-91385857D02*
X147862904Y-91366809D01*
X147881952Y-91309666D01*
X147881952Y-91271571D01*
X147862904Y-91214428D01*
X147824809Y-91176333D01*
X147786714Y-91157285D01*
X147710523Y-91138238D01*
X147653380Y-91138238D01*
X147577190Y-91157285D01*
X147539095Y-91176333D01*
X147501000Y-91214428D01*
X147481952Y-91271571D01*
X147481952Y-91309666D01*
X147501000Y-91366809D01*
X147520047Y-91385857D01*
X147881952Y-91766809D02*
X147881952Y-91538238D01*
X147881952Y-91652523D02*
X147481952Y-91652523D01*
X147539095Y-91614428D01*
X147577190Y-91576333D01*
X147596238Y-91538238D01*
X147481952Y-92109666D02*
X147481952Y-92033476D01*
X147501000Y-91995380D01*
X147520047Y-91976333D01*
X147577190Y-91938238D01*
X147653380Y-91919190D01*
X147805761Y-91919190D01*
X147843857Y-91938238D01*
X147862904Y-91957285D01*
X147881952Y-91995380D01*
X147881952Y-92071571D01*
X147862904Y-92109666D01*
X147843857Y-92128714D01*
X147805761Y-92147761D01*
X147710523Y-92147761D01*
X147672428Y-92128714D01*
X147653380Y-92109666D01*
X147634333Y-92071571D01*
X147634333Y-91995380D01*
X147653380Y-91957285D01*
X147672428Y-91938238D01*
X147710523Y-91919190D01*
X154320857Y-99310857D02*
X154339904Y-99291809D01*
X154358952Y-99234666D01*
X154358952Y-99196571D01*
X154339904Y-99139428D01*
X154301809Y-99101333D01*
X154263714Y-99082285D01*
X154187523Y-99063238D01*
X154130380Y-99063238D01*
X154054190Y-99082285D01*
X154016095Y-99101333D01*
X153978000Y-99139428D01*
X153958952Y-99196571D01*
X153958952Y-99234666D01*
X153978000Y-99291809D01*
X153997047Y-99310857D01*
X154358952Y-99691809D02*
X154358952Y-99463238D01*
X154358952Y-99577523D02*
X153958952Y-99577523D01*
X154016095Y-99539428D01*
X154054190Y-99501333D01*
X154073238Y-99463238D01*
X153958952Y-99825142D02*
X153958952Y-100091809D01*
X154358952Y-99920380D01*
X147043642Y-110251857D02*
X147062690Y-110270904D01*
X147119833Y-110289952D01*
X147157928Y-110289952D01*
X147215071Y-110270904D01*
X147253166Y-110232809D01*
X147272214Y-110194714D01*
X147291261Y-110118523D01*
X147291261Y-110061380D01*
X147272214Y-109985190D01*
X147253166Y-109947095D01*
X147215071Y-109909000D01*
X147157928Y-109889952D01*
X147119833Y-109889952D01*
X147062690Y-109909000D01*
X147043642Y-109928047D01*
X146662690Y-110289952D02*
X146891261Y-110289952D01*
X146776976Y-110289952D02*
X146776976Y-109889952D01*
X146815071Y-109947095D01*
X146853166Y-109985190D01*
X146891261Y-110004238D01*
X146472214Y-110289952D02*
X146396023Y-110289952D01*
X146357928Y-110270904D01*
X146338880Y-110251857D01*
X146300785Y-110194714D01*
X146281738Y-110118523D01*
X146281738Y-109966142D01*
X146300785Y-109928047D01*
X146319833Y-109909000D01*
X146357928Y-109889952D01*
X146434119Y-109889952D01*
X146472214Y-109909000D01*
X146491261Y-109928047D01*
X146510309Y-109966142D01*
X146510309Y-110061380D01*
X146491261Y-110099476D01*
X146472214Y-110118523D01*
X146434119Y-110137571D01*
X146357928Y-110137571D01*
X146319833Y-110118523D01*
X146300785Y-110099476D01*
X146281738Y-110061380D01*
X141747857Y-107210357D02*
X141766904Y-107191309D01*
X141785952Y-107134166D01*
X141785952Y-107096071D01*
X141766904Y-107038928D01*
X141728809Y-107000833D01*
X141690714Y-106981785D01*
X141614523Y-106962738D01*
X141557380Y-106962738D01*
X141481190Y-106981785D01*
X141443095Y-107000833D01*
X141405000Y-107038928D01*
X141385952Y-107096071D01*
X141385952Y-107134166D01*
X141405000Y-107191309D01*
X141424047Y-107210357D01*
X141424047Y-107362738D02*
X141405000Y-107381785D01*
X141385952Y-107419880D01*
X141385952Y-107515119D01*
X141405000Y-107553214D01*
X141424047Y-107572261D01*
X141462142Y-107591309D01*
X141500238Y-107591309D01*
X141557380Y-107572261D01*
X141785952Y-107343690D01*
X141785952Y-107591309D01*
X141385952Y-107838928D02*
X141385952Y-107877023D01*
X141405000Y-107915119D01*
X141424047Y-107934166D01*
X141462142Y-107953214D01*
X141538333Y-107972261D01*
X141633571Y-107972261D01*
X141709761Y-107953214D01*
X141747857Y-107934166D01*
X141766904Y-107915119D01*
X141785952Y-107877023D01*
X141785952Y-107838928D01*
X141766904Y-107800833D01*
X141747857Y-107781785D01*
X141709761Y-107762738D01*
X141633571Y-107743690D01*
X141538333Y-107743690D01*
X141462142Y-107762738D01*
X141424047Y-107781785D01*
X141405000Y-107800833D01*
X141385952Y-107838928D01*
X145557857Y-107184857D02*
X145576904Y-107165809D01*
X145595952Y-107108666D01*
X145595952Y-107070571D01*
X145576904Y-107013428D01*
X145538809Y-106975333D01*
X145500714Y-106956285D01*
X145424523Y-106937238D01*
X145367380Y-106937238D01*
X145291190Y-106956285D01*
X145253095Y-106975333D01*
X145215000Y-107013428D01*
X145195952Y-107070571D01*
X145195952Y-107108666D01*
X145215000Y-107165809D01*
X145234047Y-107184857D01*
X145234047Y-107337238D02*
X145215000Y-107356285D01*
X145195952Y-107394380D01*
X145195952Y-107489619D01*
X145215000Y-107527714D01*
X145234047Y-107546761D01*
X145272142Y-107565809D01*
X145310238Y-107565809D01*
X145367380Y-107546761D01*
X145595952Y-107318190D01*
X145595952Y-107565809D01*
X145595952Y-107946761D02*
X145595952Y-107718190D01*
X145595952Y-107832476D02*
X145195952Y-107832476D01*
X145253095Y-107794380D01*
X145291190Y-107756285D01*
X145310238Y-107718190D01*
X155832142Y-99329857D02*
X155851190Y-99348904D01*
X155908333Y-99367952D01*
X155946428Y-99367952D01*
X156003571Y-99348904D01*
X156041666Y-99310809D01*
X156060714Y-99272714D01*
X156079761Y-99196523D01*
X156079761Y-99139380D01*
X156060714Y-99063190D01*
X156041666Y-99025095D01*
X156003571Y-98987000D01*
X155946428Y-98967952D01*
X155908333Y-98967952D01*
X155851190Y-98987000D01*
X155832142Y-99006047D01*
X155679761Y-99006047D02*
X155660714Y-98987000D01*
X155622619Y-98967952D01*
X155527380Y-98967952D01*
X155489285Y-98987000D01*
X155470238Y-99006047D01*
X155451190Y-99044142D01*
X155451190Y-99082238D01*
X155470238Y-99139380D01*
X155698809Y-99367952D01*
X155451190Y-99367952D01*
X155298809Y-99006047D02*
X155279761Y-98987000D01*
X155241666Y-98967952D01*
X155146428Y-98967952D01*
X155108333Y-98987000D01*
X155089285Y-99006047D01*
X155070238Y-99044142D01*
X155070238Y-99082238D01*
X155089285Y-99139380D01*
X155317857Y-99367952D01*
X155070238Y-99367952D01*
X151433126Y-122628157D02*
X151452173Y-122609109D01*
X151471221Y-122551966D01*
X151471221Y-122513871D01*
X151452173Y-122456728D01*
X151414078Y-122418633D01*
X151375983Y-122399585D01*
X151299792Y-122380538D01*
X151242649Y-122380538D01*
X151166459Y-122399585D01*
X151128364Y-122418633D01*
X151090269Y-122456728D01*
X151071221Y-122513871D01*
X151071221Y-122551966D01*
X151090269Y-122609109D01*
X151109316Y-122628157D01*
X151071221Y-122761490D02*
X151071221Y-123009109D01*
X151223602Y-122875776D01*
X151223602Y-122932919D01*
X151242649Y-122971014D01*
X151261697Y-122990061D01*
X151299792Y-123009109D01*
X151395030Y-123009109D01*
X151433126Y-122990061D01*
X151452173Y-122971014D01*
X151471221Y-122932919D01*
X151471221Y-122818633D01*
X151452173Y-122780538D01*
X151433126Y-122761490D01*
X151071221Y-123256728D02*
X151071221Y-123294823D01*
X151090269Y-123332919D01*
X151109316Y-123351966D01*
X151147411Y-123371014D01*
X151223602Y-123390061D01*
X151318840Y-123390061D01*
X151395030Y-123371014D01*
X151433126Y-123351966D01*
X151452173Y-123332919D01*
X151471221Y-123294823D01*
X151471221Y-123256728D01*
X151452173Y-123218633D01*
X151433126Y-123199585D01*
X151395030Y-123180538D01*
X151318840Y-123161490D01*
X151223602Y-123161490D01*
X151147411Y-123180538D01*
X151109316Y-123199585D01*
X151090269Y-123218633D01*
X151071221Y-123256728D01*
X155667166Y-95646857D02*
X155686214Y-95665904D01*
X155743357Y-95684952D01*
X155781452Y-95684952D01*
X155838595Y-95665904D01*
X155876690Y-95627809D01*
X155895738Y-95589714D01*
X155914785Y-95513523D01*
X155914785Y-95456380D01*
X155895738Y-95380190D01*
X155876690Y-95342095D01*
X155838595Y-95304000D01*
X155781452Y-95284952D01*
X155743357Y-95284952D01*
X155686214Y-95304000D01*
X155667166Y-95323047D01*
X155438595Y-95456380D02*
X155476690Y-95437333D01*
X155495738Y-95418285D01*
X155514785Y-95380190D01*
X155514785Y-95361142D01*
X155495738Y-95323047D01*
X155476690Y-95304000D01*
X155438595Y-95284952D01*
X155362404Y-95284952D01*
X155324309Y-95304000D01*
X155305261Y-95323047D01*
X155286214Y-95361142D01*
X155286214Y-95380190D01*
X155305261Y-95418285D01*
X155324309Y-95437333D01*
X155362404Y-95456380D01*
X155438595Y-95456380D01*
X155476690Y-95475428D01*
X155495738Y-95494476D01*
X155514785Y-95532571D01*
X155514785Y-95608761D01*
X155495738Y-95646857D01*
X155476690Y-95665904D01*
X155438595Y-95684952D01*
X155362404Y-95684952D01*
X155324309Y-95665904D01*
X155305261Y-95646857D01*
X155286214Y-95608761D01*
X155286214Y-95532571D01*
X155305261Y-95494476D01*
X155324309Y-95475428D01*
X155362404Y-95456380D01*
X151015809Y-108619952D02*
X150749142Y-109019952D01*
X150749142Y-108619952D02*
X151015809Y-109019952D01*
X150387238Y-109019952D02*
X150615809Y-109019952D01*
X150501523Y-109019952D02*
X150501523Y-108619952D01*
X150539619Y-108677095D01*
X150577714Y-108715190D01*
X150615809Y-108734238D01*
X142725742Y-110485552D02*
X142859076Y-110295076D01*
X142954314Y-110485552D02*
X142954314Y-110085552D01*
X142801933Y-110085552D01*
X142763838Y-110104600D01*
X142744790Y-110123647D01*
X142725742Y-110161742D01*
X142725742Y-110218885D01*
X142744790Y-110256980D01*
X142763838Y-110276028D01*
X142801933Y-110295076D01*
X142954314Y-110295076D01*
X142573361Y-110123647D02*
X142554314Y-110104600D01*
X142516219Y-110085552D01*
X142420980Y-110085552D01*
X142382885Y-110104600D01*
X142363838Y-110123647D01*
X142344790Y-110161742D01*
X142344790Y-110199838D01*
X142363838Y-110256980D01*
X142592409Y-110485552D01*
X142344790Y-110485552D01*
X142192409Y-110123647D02*
X142173361Y-110104600D01*
X142135266Y-110085552D01*
X142040028Y-110085552D01*
X142001933Y-110104600D01*
X141982885Y-110123647D01*
X141963838Y-110161742D01*
X141963838Y-110199838D01*
X141982885Y-110256980D01*
X142211457Y-110485552D01*
X141963838Y-110485552D01*
X151006142Y-126672952D02*
X151139476Y-126482476D01*
X151234714Y-126672952D02*
X151234714Y-126272952D01*
X151082333Y-126272952D01*
X151044238Y-126292000D01*
X151025190Y-126311047D01*
X151006142Y-126349142D01*
X151006142Y-126406285D01*
X151025190Y-126444380D01*
X151044238Y-126463428D01*
X151082333Y-126482476D01*
X151234714Y-126482476D01*
X150853761Y-126311047D02*
X150834714Y-126292000D01*
X150796619Y-126272952D01*
X150701380Y-126272952D01*
X150663285Y-126292000D01*
X150644238Y-126311047D01*
X150625190Y-126349142D01*
X150625190Y-126387238D01*
X150644238Y-126444380D01*
X150872809Y-126672952D01*
X150625190Y-126672952D01*
X150491857Y-126272952D02*
X150244238Y-126272952D01*
X150377571Y-126425333D01*
X150320428Y-126425333D01*
X150282333Y-126444380D01*
X150263285Y-126463428D01*
X150244238Y-126501523D01*
X150244238Y-126596761D01*
X150263285Y-126634857D01*
X150282333Y-126653904D01*
X150320428Y-126672952D01*
X150434714Y-126672952D01*
X150472809Y-126653904D01*
X150491857Y-126634857D01*
X141376428Y-89621714D02*
X141376428Y-89488380D01*
X141585952Y-89488380D02*
X141185952Y-89488380D01*
X141185952Y-89678857D01*
X141185952Y-89831238D02*
X141509761Y-89831238D01*
X141547857Y-89850285D01*
X141566904Y-89869333D01*
X141585952Y-89907428D01*
X141585952Y-89983619D01*
X141566904Y-90021714D01*
X141547857Y-90040761D01*
X141509761Y-90059809D01*
X141185952Y-90059809D01*
X141566904Y-90231238D02*
X141585952Y-90288380D01*
X141585952Y-90383619D01*
X141566904Y-90421714D01*
X141547857Y-90440761D01*
X141509761Y-90459809D01*
X141471666Y-90459809D01*
X141433571Y-90440761D01*
X141414523Y-90421714D01*
X141395476Y-90383619D01*
X141376428Y-90307428D01*
X141357380Y-90269333D01*
X141338333Y-90250285D01*
X141300238Y-90231238D01*
X141262142Y-90231238D01*
X141224047Y-90250285D01*
X141205000Y-90269333D01*
X141185952Y-90307428D01*
X141185952Y-90402666D01*
X141205000Y-90459809D01*
X141376428Y-90631238D02*
X141376428Y-90764571D01*
X141585952Y-90821714D02*
X141585952Y-90631238D01*
X141185952Y-90631238D01*
X141185952Y-90821714D01*
X141585952Y-91202666D02*
X141585952Y-90974095D01*
X141585952Y-91088380D02*
X141185952Y-91088380D01*
X141243095Y-91050285D01*
X141281190Y-91012190D01*
X141300238Y-90974095D01*
X143662428Y-89621714D02*
X143662428Y-89488380D01*
X143871952Y-89488380D02*
X143471952Y-89488380D01*
X143471952Y-89678857D01*
X143471952Y-89831238D02*
X143795761Y-89831238D01*
X143833857Y-89850285D01*
X143852904Y-89869333D01*
X143871952Y-89907428D01*
X143871952Y-89983619D01*
X143852904Y-90021714D01*
X143833857Y-90040761D01*
X143795761Y-90059809D01*
X143471952Y-90059809D01*
X143852904Y-90231238D02*
X143871952Y-90288380D01*
X143871952Y-90383619D01*
X143852904Y-90421714D01*
X143833857Y-90440761D01*
X143795761Y-90459809D01*
X143757666Y-90459809D01*
X143719571Y-90440761D01*
X143700523Y-90421714D01*
X143681476Y-90383619D01*
X143662428Y-90307428D01*
X143643380Y-90269333D01*
X143624333Y-90250285D01*
X143586238Y-90231238D01*
X143548142Y-90231238D01*
X143510047Y-90250285D01*
X143491000Y-90269333D01*
X143471952Y-90307428D01*
X143471952Y-90402666D01*
X143491000Y-90459809D01*
X143662428Y-90631238D02*
X143662428Y-90764571D01*
X143871952Y-90821714D02*
X143871952Y-90631238D01*
X143471952Y-90631238D01*
X143471952Y-90821714D01*
X143471952Y-91069333D02*
X143471952Y-91107428D01*
X143491000Y-91145523D01*
X143510047Y-91164571D01*
X143548142Y-91183619D01*
X143624333Y-91202666D01*
X143719571Y-91202666D01*
X143795761Y-91183619D01*
X143833857Y-91164571D01*
X143852904Y-91145523D01*
X143871952Y-91107428D01*
X143871952Y-91069333D01*
X143852904Y-91031238D01*
X143833857Y-91012190D01*
X143795761Y-90993142D01*
X143719571Y-90974095D01*
X143624333Y-90974095D01*
X143548142Y-90993142D01*
X143510047Y-91012190D01*
X143491000Y-91031238D01*
X143471952Y-91069333D01*
X151042190Y-102977952D02*
X151042190Y-102577952D01*
X150623142Y-102939857D02*
X150642190Y-102958904D01*
X150699333Y-102977952D01*
X150737428Y-102977952D01*
X150794571Y-102958904D01*
X150832666Y-102920809D01*
X150851714Y-102882714D01*
X150870761Y-102806523D01*
X150870761Y-102749380D01*
X150851714Y-102673190D01*
X150832666Y-102635095D01*
X150794571Y-102597000D01*
X150737428Y-102577952D01*
X150699333Y-102577952D01*
X150642190Y-102597000D01*
X150623142Y-102616047D01*
X150470761Y-102616047D02*
X150451714Y-102597000D01*
X150413619Y-102577952D01*
X150318380Y-102577952D01*
X150280285Y-102597000D01*
X150261238Y-102616047D01*
X150242190Y-102654142D01*
X150242190Y-102692238D01*
X150261238Y-102749380D01*
X150489809Y-102977952D01*
X150242190Y-102977952D01*
X152634952Y-113498809D02*
X152234952Y-113498809D01*
X152596857Y-113917857D02*
X152615904Y-113898809D01*
X152634952Y-113841666D01*
X152634952Y-113803571D01*
X152615904Y-113746428D01*
X152577809Y-113708333D01*
X152539714Y-113689285D01*
X152463523Y-113670238D01*
X152406380Y-113670238D01*
X152330190Y-113689285D01*
X152292095Y-113708333D01*
X152254000Y-113746428D01*
X152234952Y-113803571D01*
X152234952Y-113841666D01*
X152254000Y-113898809D01*
X152273047Y-113917857D01*
X152368285Y-114260714D02*
X152634952Y-114260714D01*
X152215904Y-114165476D02*
X152501619Y-114070238D01*
X152501619Y-114317857D01*
X146354761Y-128956952D02*
X146354761Y-129280761D01*
X146335714Y-129318857D01*
X146316666Y-129337904D01*
X146278571Y-129356952D01*
X146202380Y-129356952D01*
X146164285Y-129337904D01*
X146145238Y-129318857D01*
X146126190Y-129280761D01*
X146126190Y-128956952D01*
X145726190Y-129356952D02*
X145954761Y-129356952D01*
X145840476Y-129356952D02*
X145840476Y-128956952D01*
X145878571Y-129014095D01*
X145916666Y-129052190D01*
X145954761Y-129071238D01*
X154841642Y-116672952D02*
X154974976Y-116482476D01*
X155070214Y-116672952D02*
X155070214Y-116272952D01*
X154917833Y-116272952D01*
X154879738Y-116292000D01*
X154860690Y-116311047D01*
X154841642Y-116349142D01*
X154841642Y-116406285D01*
X154860690Y-116444380D01*
X154879738Y-116463428D01*
X154917833Y-116482476D01*
X155070214Y-116482476D01*
X154460690Y-116672952D02*
X154689261Y-116672952D01*
X154574976Y-116672952D02*
X154574976Y-116272952D01*
X154613071Y-116330095D01*
X154651166Y-116368190D01*
X154689261Y-116387238D01*
X154098785Y-116272952D02*
X154289261Y-116272952D01*
X154308309Y-116463428D01*
X154289261Y-116444380D01*
X154251166Y-116425333D01*
X154155928Y-116425333D01*
X154117833Y-116444380D01*
X154098785Y-116463428D01*
X154079738Y-116501523D01*
X154079738Y-116596761D01*
X154098785Y-116634857D01*
X154117833Y-116653904D01*
X154155928Y-116672952D01*
X154251166Y-116672952D01*
X154289261Y-116653904D01*
X154308309Y-116634857D01*
X147094642Y-115569541D02*
X147227976Y-115379065D01*
X147323214Y-115569541D02*
X147323214Y-115169541D01*
X147170833Y-115169541D01*
X147132738Y-115188589D01*
X147113690Y-115207636D01*
X147094642Y-115245731D01*
X147094642Y-115302874D01*
X147113690Y-115340969D01*
X147132738Y-115360017D01*
X147170833Y-115379065D01*
X147323214Y-115379065D01*
X146713690Y-115569541D02*
X146942261Y-115569541D01*
X146827976Y-115569541D02*
X146827976Y-115169541D01*
X146866071Y-115226684D01*
X146904166Y-115264779D01*
X146942261Y-115283827D01*
X146370833Y-115169541D02*
X146447023Y-115169541D01*
X146485119Y-115188589D01*
X146504166Y-115207636D01*
X146542261Y-115264779D01*
X146561309Y-115340969D01*
X146561309Y-115493350D01*
X146542261Y-115531446D01*
X146523214Y-115550493D01*
X146485119Y-115569541D01*
X146408928Y-115569541D01*
X146370833Y-115550493D01*
X146351785Y-115531446D01*
X146332738Y-115493350D01*
X146332738Y-115398112D01*
X146351785Y-115360017D01*
X146370833Y-115340969D01*
X146408928Y-115321922D01*
X146485119Y-115321922D01*
X146523214Y-115340969D01*
X146542261Y-115360017D01*
X146561309Y-115398112D01*
M02*
