G04 #@! TF.GenerationSoftware,KiCad,Pcbnew,(5.0.0-3-g5ebb6b6)*
G04 #@! TF.CreationDate,2020-03-22T12:42:52-07:00*
G04 #@! TF.ProjectId,ravenna,726176656E6E612E6B696361645F7063,rev?*
G04 #@! TF.SameCoordinates,Original*
G04 #@! TF.FileFunction,Copper,L3,Inr,Signal*
G04 #@! TF.FilePolarity,Positive*
%FSLAX46Y46*%
G04 Gerber Fmt 4.6, Leading zero omitted, Abs format (unit mm)*
G04 Created by KiCad (PCBNEW (5.0.0-3-g5ebb6b6)) date Sunday, March 22, 2020 at 12:42:52 PM*
%MOMM*%
%LPD*%
G01*
G04 APERTURE LIST*
G04 #@! TA.AperFunction,ViaPad*
%ADD10O,1.700000X1.700000*%
G04 #@! TD*
G04 #@! TA.AperFunction,ViaPad*
%ADD11R,1.700000X1.700000*%
G04 #@! TD*
G04 #@! TA.AperFunction,ViaPad*
%ADD12O,1.200000X2.400000*%
G04 #@! TD*
G04 #@! TA.AperFunction,ViaPad*
%ADD13O,0.900000X1.800000*%
G04 #@! TD*
G04 #@! TA.AperFunction,ViaPad*
%ADD14C,0.800000*%
G04 #@! TD*
G04 #@! TA.AperFunction,ViaPad*
%ADD15C,0.756400*%
G04 #@! TD*
G04 #@! TA.AperFunction,Conductor*
%ADD16C,0.152400*%
G04 #@! TD*
G04 #@! TA.AperFunction,Conductor*
%ADD17C,0.203200*%
G04 #@! TD*
G04 APERTURE END LIST*
D10*
G04 #@! TO.N,GND*
G04 #@! TO.C,J5*
X158445100Y-133954600D03*
G04 #@! TO.N,/P5*
X158445100Y-131414600D03*
G04 #@! TO.N,/P6*
X158445100Y-128874600D03*
G04 #@! TO.N,/P7*
X158445100Y-126334600D03*
G04 #@! TO.N,/P8*
X158445100Y-123794600D03*
G04 #@! TO.N,/P9*
X158445100Y-121254600D03*
G04 #@! TO.N,/P10*
X158445100Y-118714600D03*
G04 #@! TO.N,/P11*
X158445100Y-116174600D03*
G04 #@! TO.N,/P12*
X158445100Y-113634600D03*
G04 #@! TO.N,/P13*
X158445100Y-111094600D03*
G04 #@! TO.N,/P14*
X158445100Y-108554600D03*
G04 #@! TO.N,/P15*
X158445100Y-106014600D03*
G04 #@! TO.N,/COMP_INP*
X158445100Y-103474600D03*
G04 #@! TO.N,/COMP_INN*
X158445100Y-100934600D03*
G04 #@! TO.N,/AOUT*
X158445100Y-98394600D03*
G04 #@! TO.N,/VREF+*
X158445100Y-95854600D03*
G04 #@! TO.N,/VREF-*
X158445100Y-93314600D03*
G04 #@! TO.N,/ANA_1*
X158445100Y-90774600D03*
G04 #@! TO.N,/ANA_0*
X158445100Y-88234600D03*
D11*
G04 #@! TO.N,/NVREF*
X158445100Y-85694600D03*
G04 #@! TD*
D10*
G04 #@! TO.N,/P4*
G04 #@! TO.C,J4*
X138506200Y-133985000D03*
G04 #@! TO.N,/P3*
X138506200Y-131445000D03*
G04 #@! TO.N,/P2*
X138506200Y-128905000D03*
G04 #@! TO.N,/P1*
X138506200Y-126365000D03*
G04 #@! TO.N,/P0*
X138506200Y-123825000D03*
G04 #@! TO.N,/SPI_SDO*
X138506200Y-121285000D03*
G04 #@! TO.N,/SPI_SDI*
X138506200Y-118745000D03*
G04 #@! TO.N,/SPI_SCK*
X138506200Y-116205000D03*
G04 #@! TO.N,/SPI_CSB*
X138506200Y-113665000D03*
G04 #@! TO.N,/RX0*
X138506200Y-111125000D03*
G04 #@! TO.N,/TX0*
X138506200Y-108585000D03*
G04 #@! TO.N,/I2C_SCL*
X138506200Y-106045000D03*
G04 #@! TO.N,/I2C_SDA*
X138506200Y-103505000D03*
G04 #@! TO.N,/IRQ*
X138506200Y-100965000D03*
G04 #@! TO.N,/XCLK*
X138506200Y-98425000D03*
G04 #@! TO.N,/HK_SDO*
X138506200Y-95885000D03*
G04 #@! TO.N,/RXD_HK_SDI*
X138506200Y-93345000D03*
G04 #@! TO.N,/TXD_HK_SCK*
X138506200Y-90805000D03*
G04 #@! TO.N,/HK_CSB*
X138506200Y-88265000D03*
D11*
G04 #@! TO.N,VDD*
X138506200Y-85725000D03*
G04 #@! TD*
D10*
G04 #@! TO.N,/TXD_EN*
G04 #@! TO.C,J2*
X154813000Y-121183400D03*
D11*
G04 #@! TO.N,GND*
X154813000Y-123723400D03*
G04 #@! TD*
D12*
G04 #@! TO.N,Net-(J1-PadSHELL)*
G04 #@! TO.C,J1*
X152188000Y-86636000D03*
X144738000Y-86636000D03*
D13*
X152338000Y-82836000D03*
X144588000Y-82836000D03*
G04 #@! TD*
D11*
G04 #@! TO.N,/SPI_CSB*
G04 #@! TO.C,J3*
X154813000Y-131445000D03*
D10*
G04 #@! TO.N,/P0*
X154813000Y-133985000D03*
G04 #@! TO.N,/SPI_SDO*
X152273000Y-131445000D03*
G04 #@! TO.N,/P1*
X152273000Y-133985000D03*
G04 #@! TO.N,/SPI_SDI*
X149733000Y-131445000D03*
G04 #@! TO.N,/I2C_SCL*
X149733000Y-133985000D03*
G04 #@! TO.N,/SPI_SCK*
X147193000Y-131445000D03*
G04 #@! TO.N,/I2C_SDA*
X147193000Y-133985000D03*
G04 #@! TO.N,GND*
X144653000Y-131445000D03*
X144653000Y-133985000D03*
G04 #@! TO.N,VDD*
X142113000Y-131445000D03*
X142113000Y-133985000D03*
G04 #@! TD*
D14*
G04 #@! TO.N,GND*
X149123400Y-117119400D03*
X148107400Y-113715800D03*
X142367000Y-87630000D03*
X142494000Y-114935000D03*
X143755469Y-117993688D03*
X143129000Y-123571000D03*
X155930600Y-94157800D03*
X150799800Y-88366600D03*
X149021800Y-88671400D03*
X148513800Y-126161800D03*
X148323469Y-115193455D03*
X146583400Y-115193455D03*
X144602200Y-105435400D03*
X155473400Y-104165400D03*
X149543090Y-108436402D03*
X143637000Y-102235000D03*
X147219666Y-99288600D03*
X157962600Y-82931000D03*
G04 #@! TO.N,Net-(C30-Pad1)*
X150101469Y-121031000D03*
G04 #@! TO.N,Net-(FUSE1-Pad2)*
X140970000Y-88011000D03*
X144135820Y-100134401D03*
G04 #@! TO.N,Net-(IC2-Pad45)*
X148342400Y-99218798D03*
X147955000Y-111785400D03*
G04 #@! TO.N,Net-(IC2-Pad43)*
X147904200Y-98171000D03*
X146735800Y-105841800D03*
G04 #@! TO.N,Net-(IC2-Pad33)*
X147853400Y-95885000D03*
G04 #@! TO.N,Net-(IC2-Pad32)*
X154508200Y-94411800D03*
D15*
G04 #@! TO.N,/HK_CSB*
X146583400Y-107619800D03*
G04 #@! TO.N,/HK_SDO*
X148301081Y-107855526D03*
G04 #@! TO.N,/RXD_HK_SDI*
X145923000Y-106400600D03*
D14*
X148412200Y-127787400D03*
D15*
G04 #@! TO.N,/TXD_HK_SCK*
X145719800Y-108026200D03*
D14*
G04 #@! TO.N,Net-(IC3-Pad3)*
X150876000Y-92964000D03*
X148082000Y-89154000D03*
G04 #@! TO.N,/SPI_SCK*
X144526000Y-120777000D03*
G04 #@! TO.N,/SPI_SDI*
X143891000Y-121793000D03*
G04 #@! TO.N,/P0*
X153797000Y-128524000D03*
X140843000Y-122534056D03*
G04 #@! TO.N,/SPI_CSB*
X146050000Y-120269000D03*
D15*
G04 #@! TO.N,/NVREF*
X151603081Y-108617526D03*
D14*
G04 #@! TO.N,/P4*
X139827000Y-132715000D03*
X152400000Y-119623539D03*
G04 #@! TO.N,/P3*
X152019000Y-120650000D03*
X142113000Y-129413000D03*
D15*
G04 #@! TO.N,/COMP_INN*
X153176988Y-112156397D03*
G04 #@! TO.N,/COMP_INP*
X152519672Y-112785658D03*
G04 #@! TO.N,/ANA_1*
X150920062Y-110678048D03*
G04 #@! TO.N,/ANA_0*
X151562681Y-110035430D03*
D14*
G04 #@! TO.N,/AOUT*
X153670000Y-111252000D03*
G04 #@! TO.N,/VREF-*
X152571350Y-109093000D03*
D15*
G04 #@! TO.N,/VREF+*
X152908000Y-110687150D03*
D14*
G04 #@! TO.N,/RAPTOR_D2*
X141972986Y-105804014D03*
X139757210Y-94687048D03*
G04 #@! TO.N,/RAPTOR_D3*
X142494000Y-113030000D03*
X150368000Y-105283000D03*
G04 #@! TO.N,/RAPTOR_D0*
X145669000Y-104902000D03*
X142683283Y-110432060D03*
X150381402Y-94742000D03*
D15*
G04 #@! TO.N,VDD*
X145161000Y-110109000D03*
X148577469Y-121927255D03*
D14*
X143074852Y-93091000D03*
X152104200Y-102793800D03*
X156337000Y-91313000D03*
X151409400Y-129616200D03*
G04 #@! TO.N,Net-(FUSE0-Pad2)*
X146431000Y-88011000D03*
X144602200Y-101371400D03*
G04 #@! TD*
D16*
G04 #@! TO.N,*
X147332600Y-126359116D02*
X147185631Y-126506085D01*
G04 #@! TO.N,GND*
X142893999Y-115334999D02*
X142893999Y-117239999D01*
X142494000Y-114935000D02*
X142893999Y-115334999D01*
X143647688Y-117993688D02*
X143755469Y-117993688D01*
X142893999Y-117239999D02*
X143647688Y-117993688D01*
D17*
X149326600Y-88366600D02*
X149021800Y-88671400D01*
X150799800Y-88366600D02*
X149326600Y-88366600D01*
D16*
X145923000Y-123571000D02*
X143129000Y-123571000D01*
X148513800Y-126161800D02*
X145923000Y-123571000D01*
D17*
X155530601Y-93757801D02*
X155930600Y-94157800D01*
X151199799Y-88766599D02*
X151199799Y-89426999D01*
X151199799Y-89426999D02*
X155530601Y-93757801D01*
X150799800Y-88366600D02*
X151199799Y-88766599D01*
X147619665Y-99688599D02*
X147219666Y-99288600D01*
X147619665Y-105925857D02*
X147619665Y-99688599D01*
X147049721Y-106495801D02*
X147619665Y-105925857D01*
X146226457Y-107032801D02*
X146763457Y-106495801D01*
X145633916Y-107032801D02*
X146226457Y-107032801D01*
X144602200Y-106001085D02*
X145633916Y-107032801D01*
X146763457Y-106495801D02*
X147049721Y-106495801D01*
X144602200Y-105435400D02*
X144602200Y-106001085D01*
D16*
G04 #@! TO.N,Net-(FUSE1-Pad2)*
X144135820Y-100134401D02*
X140690620Y-96689201D01*
X140690620Y-96689201D02*
X140690620Y-91719380D01*
X140970000Y-91440000D02*
X140970000Y-88011000D01*
X140690620Y-91719380D02*
X140970000Y-91440000D01*
G04 #@! TO.N,Net-(IC2-Pad45)*
X148342400Y-99218798D02*
X148907882Y-99784280D01*
X148626135Y-111114265D02*
X147955000Y-111785400D01*
X148907882Y-111114265D02*
X148626135Y-111114265D01*
X148907882Y-99784280D02*
X148907882Y-111114265D01*
G04 #@! TO.N,Net-(IC2-Pad43)*
X146716470Y-105822470D02*
X146735800Y-105841800D01*
X146735800Y-105276115D02*
X146735800Y-105841800D01*
X146591065Y-105131380D02*
X146735800Y-105276115D01*
X146591065Y-98986871D02*
X146591065Y-105131380D01*
X147006937Y-98570999D02*
X146591065Y-98986871D01*
X147504201Y-98570999D02*
X147006937Y-98570999D01*
X147904200Y-98171000D02*
X147504201Y-98570999D01*
G04 #@! TO.N,/HK_SDO*
X140081000Y-97409000D02*
X138557000Y-95885000D01*
X147317607Y-108839000D02*
X144077642Y-108839000D01*
X140081000Y-104842358D02*
X140081000Y-97409000D01*
X144077642Y-108839000D02*
X140081000Y-104842358D01*
X148301081Y-107855526D02*
X147317607Y-108839000D01*
G04 #@! TO.N,/TXD_HK_SCK*
X140385810Y-102692210D02*
X145719800Y-108026200D01*
X140385810Y-92633810D02*
X140385810Y-102692210D01*
X138557000Y-90805000D02*
X140385810Y-92633810D01*
G04 #@! TO.N,/SPI_SCK*
X139954000Y-116205000D02*
X138557000Y-116205000D01*
X144607780Y-120858780D02*
X139954000Y-116205000D01*
G04 #@! TO.N,/I2C_SCL*
X148883001Y-133135001D02*
X149733000Y-133985000D01*
X148654399Y-132906399D02*
X148883001Y-133135001D01*
X146749399Y-132906399D02*
X148654399Y-132906399D01*
X145731601Y-131888601D02*
X146749399Y-132906399D01*
X145731601Y-130927271D02*
X145731601Y-131888601D01*
X138303000Y-125167330D02*
X139971660Y-125167330D01*
X137311610Y-124175940D02*
X138303000Y-125167330D01*
X137311610Y-113314060D02*
X137311610Y-124175940D01*
X138039271Y-112586399D02*
X137311610Y-113314060D01*
X138691931Y-112586399D02*
X138039271Y-112586399D01*
X139635601Y-111642729D02*
X138691931Y-112586399D01*
X139971660Y-125167330D02*
X145731601Y-130927271D01*
X139635601Y-107123601D02*
X139635601Y-111642729D01*
X138557000Y-106045000D02*
X139635601Y-107123601D01*
G04 #@! TO.N,/SPI_SDI*
X139406999Y-119594999D02*
X138557000Y-118745000D01*
X141605000Y-121793000D02*
X141097000Y-121285000D01*
X141097000Y-121285000D02*
X139406999Y-119594999D01*
X143891000Y-121793000D02*
X141605000Y-121793000D01*
X141217601Y-121405601D02*
X141097000Y-121285000D01*
X140214399Y-122232327D02*
X140214399Y-122942399D01*
X140653726Y-121793000D02*
X140214399Y-122232327D01*
X143891000Y-121793000D02*
X140653726Y-121793000D01*
X140214399Y-122942399D02*
X146939000Y-129667000D01*
X147955000Y-129667000D02*
X149733000Y-131445000D01*
X146939000Y-129667000D02*
X147955000Y-129667000D01*
G04 #@! TO.N,/P0*
X146832944Y-128524000D02*
X140843000Y-122534056D01*
X153797000Y-128524000D02*
X146832944Y-128524000D01*
X153963001Y-133135001D02*
X154813000Y-133985000D01*
X153397001Y-128923999D02*
X153397001Y-132569001D01*
X153397001Y-132569001D02*
X153963001Y-133135001D01*
X153797000Y-128524000D02*
X153397001Y-128923999D01*
G04 #@! TO.N,/SPI_CSB*
X139406999Y-114575548D02*
X139406999Y-114514999D01*
X144700452Y-119869001D02*
X139406999Y-114575548D01*
X145650001Y-119869001D02*
X144700452Y-119869001D01*
X139406999Y-114514999D02*
X138557000Y-113665000D01*
X146050000Y-120269000D02*
X145650001Y-119869001D01*
X154813000Y-130442600D02*
X154813000Y-131445000D01*
X148737386Y-122534056D02*
X154813000Y-128609670D01*
X148315056Y-122534056D02*
X148737386Y-122534056D01*
X154813000Y-128609670D02*
X154813000Y-130442600D01*
X146050000Y-120269000D02*
X148315056Y-122534056D01*
G04 #@! TO.N,/NVREF*
X151981280Y-105574720D02*
X151981280Y-108239327D01*
X156641800Y-100914200D02*
X151981280Y-105574720D01*
X155708399Y-93005269D02*
X156641800Y-93938670D01*
X155708399Y-89433701D02*
X155708399Y-93005269D01*
X156641800Y-93938670D02*
X156641800Y-100914200D01*
X151981280Y-108239327D02*
X151603081Y-108617526D01*
X158445100Y-86697000D02*
X155708399Y-89433701D01*
X158445100Y-85694600D02*
X158445100Y-86697000D01*
G04 #@! TO.N,/ANA_1*
X157366499Y-91853201D02*
X157595101Y-91624599D01*
X152019036Y-110678048D02*
X152616735Y-110080349D01*
X157366499Y-105659247D02*
X157366499Y-91853201D01*
X152945397Y-110080349D02*
X157366499Y-105659247D01*
X152616735Y-110080349D02*
X152945397Y-110080349D01*
X157595101Y-91624599D02*
X158445100Y-90774600D01*
X150920062Y-110678048D02*
X152019036Y-110678048D01*
G04 #@! TO.N,/ANA_0*
X157595101Y-89084599D02*
X158445100Y-88234600D01*
X157061689Y-89618011D02*
X157595101Y-89084599D01*
X157061689Y-101179813D02*
X157061689Y-89618011D01*
X153199951Y-109394729D02*
X153199951Y-105041551D01*
X152873079Y-109721601D02*
X153199951Y-109394729D01*
X151940880Y-109657231D02*
X152205251Y-109657231D01*
X153199951Y-105041551D02*
X157061689Y-101179813D01*
X151562681Y-110035430D02*
X151940880Y-109657231D01*
X152207303Y-109721601D02*
X152873079Y-109721601D01*
X152205251Y-109719549D02*
X152207303Y-109721601D01*
X152205251Y-109657231D02*
X152205251Y-109719549D01*
G04 #@! TO.N,/RAPTOR_D0*
X145669000Y-99454402D02*
X145669000Y-104902000D01*
X150381402Y-94742000D02*
X145669000Y-99454402D01*
G04 #@! TO.N,VDD*
X138760100Y-85694600D02*
X138633100Y-85694600D01*
D17*
X145161000Y-110109000D02*
X145161000Y-118412078D01*
X148199270Y-121450348D02*
X145161000Y-118412078D01*
X148199270Y-121549056D02*
X148199270Y-121450348D01*
X148577469Y-121927255D02*
X148199270Y-121549056D01*
X152104200Y-103359485D02*
X152104200Y-102793800D01*
X152104200Y-104514722D02*
X152104200Y-103359485D01*
X150287861Y-110420461D02*
X150287861Y-106331061D01*
X148268921Y-112439401D02*
X150287861Y-110420461D01*
X147491401Y-112439401D02*
X148268921Y-112439401D01*
X150287861Y-106331061D02*
X152104200Y-104514722D01*
X145161000Y-110109000D02*
X147491401Y-112439401D01*
D16*
G04 #@! TO.N,Net-(FUSE0-Pad2)*
X145364190Y-89077810D02*
X146031001Y-88410999D01*
X145364190Y-99836361D02*
X145364190Y-89077810D01*
X146031001Y-88410999D02*
X146431000Y-88011000D01*
X144526000Y-100674551D02*
X145364190Y-99836361D01*
X144526000Y-101473000D02*
X144526000Y-100674551D01*
G04 #@! TD*
M02*
