G04 #@! TF.GenerationSoftware,KiCad,Pcbnew,(5.0.0-3-g5ebb6b6)*
G04 #@! TF.CreationDate,2020-03-22T12:42:52-07:00*
G04 #@! TF.ProjectId,ravenna,726176656E6E612E6B696361645F7063,rev?*
G04 #@! TF.SameCoordinates,Original*
G04 #@! TF.FileFunction,Soldermask,Top*
G04 #@! TF.FilePolarity,Negative*
%FSLAX46Y46*%
G04 Gerber Fmt 4.6, Leading zero omitted, Abs format (unit mm)*
G04 Created by KiCad (PCBNEW (5.0.0-3-g5ebb6b6)) date Sunday, March 22, 2020 at 12:42:52 PM*
%MOMM*%
%LPD*%
G01*
G04 APERTURE LIST*
%ADD10C,0.100000*%
G04 APERTURE END LIST*
D10*
G04 #@! TO.C,IC1*
G36*
X148323469Y-111021525D02*
X144151539Y-115193455D01*
X148323469Y-119365385D01*
X152495399Y-115193455D01*
X148323469Y-111021525D01*
G37*
G36*
X153626770Y-115688430D02*
X153202506Y-115264166D01*
X152990374Y-115476298D01*
X153414638Y-115900562D01*
X153626770Y-115688430D01*
G37*
G36*
X153273216Y-116041983D02*
X152848952Y-115617719D01*
X152636820Y-115829851D01*
X153061084Y-116254115D01*
X153273216Y-116041983D01*
G37*
G36*
X152919663Y-116395537D02*
X152495399Y-115971272D01*
X152283267Y-116183404D01*
X152707531Y-116607669D01*
X152919663Y-116395537D01*
G37*
G36*
X152566110Y-116749090D02*
X152141846Y-116324826D01*
X151929714Y-116536958D01*
X152353978Y-116961222D01*
X152566110Y-116749090D01*
G37*
G36*
X152212556Y-117102643D02*
X151788292Y-116678379D01*
X151576160Y-116890511D01*
X152000424Y-117314775D01*
X152212556Y-117102643D01*
G37*
G36*
X151859003Y-117456197D02*
X151434739Y-117031933D01*
X151222607Y-117244065D01*
X151646871Y-117668329D01*
X151859003Y-117456197D01*
G37*
G36*
X151505450Y-117809750D02*
X151081185Y-117385486D01*
X150869053Y-117597618D01*
X151293317Y-118021882D01*
X151505450Y-117809750D01*
G37*
G36*
X151151896Y-118163303D02*
X150727632Y-117739039D01*
X150515500Y-117951171D01*
X150939764Y-118375436D01*
X151151896Y-118163303D01*
G37*
G36*
X150798343Y-118516857D02*
X150374079Y-118092593D01*
X150161947Y-118304725D01*
X150586211Y-118728989D01*
X150798343Y-118516857D01*
G37*
G36*
X150444789Y-118870410D02*
X150020525Y-118446146D01*
X149808393Y-118658278D01*
X150232657Y-119082542D01*
X150444789Y-118870410D01*
G37*
G36*
X150091236Y-119223964D02*
X149666972Y-118799700D01*
X149454840Y-119011832D01*
X149879104Y-119436096D01*
X150091236Y-119223964D01*
G37*
G36*
X149737683Y-119577517D02*
X149313418Y-119153253D01*
X149101286Y-119365385D01*
X149525551Y-119789649D01*
X149737683Y-119577517D01*
G37*
G36*
X149384129Y-119931070D02*
X148959865Y-119506806D01*
X148747733Y-119718938D01*
X149171997Y-120143202D01*
X149384129Y-119931070D01*
G37*
G36*
X149030576Y-120284624D02*
X148606312Y-119860360D01*
X148394180Y-120072492D01*
X148818444Y-120496756D01*
X149030576Y-120284624D01*
G37*
G36*
X147828494Y-120496756D02*
X148252758Y-120072492D01*
X148040626Y-119860360D01*
X147616362Y-120284624D01*
X147828494Y-120496756D01*
G37*
G36*
X147474941Y-120143202D02*
X147899205Y-119718938D01*
X147687073Y-119506806D01*
X147262809Y-119931070D01*
X147474941Y-120143202D01*
G37*
G36*
X147121387Y-119789649D02*
X147545652Y-119365385D01*
X147333520Y-119153253D01*
X146909255Y-119577517D01*
X147121387Y-119789649D01*
G37*
G36*
X146767834Y-119436096D02*
X147192098Y-119011832D01*
X146979966Y-118799700D01*
X146555702Y-119223964D01*
X146767834Y-119436096D01*
G37*
G36*
X146414281Y-119082542D02*
X146838545Y-118658278D01*
X146626413Y-118446146D01*
X146202149Y-118870410D01*
X146414281Y-119082542D01*
G37*
G36*
X146060727Y-118728989D02*
X146484991Y-118304725D01*
X146272859Y-118092593D01*
X145848595Y-118516857D01*
X146060727Y-118728989D01*
G37*
G36*
X145707174Y-118375436D02*
X146131438Y-117951171D01*
X145919306Y-117739039D01*
X145495042Y-118163303D01*
X145707174Y-118375436D01*
G37*
G36*
X145353621Y-118021882D02*
X145777885Y-117597618D01*
X145565753Y-117385486D01*
X145141488Y-117809750D01*
X145353621Y-118021882D01*
G37*
G36*
X145000067Y-117668329D02*
X145424331Y-117244065D01*
X145212199Y-117031933D01*
X144787935Y-117456197D01*
X145000067Y-117668329D01*
G37*
G36*
X144646514Y-117314775D02*
X145070778Y-116890511D01*
X144858646Y-116678379D01*
X144434382Y-117102643D01*
X144646514Y-117314775D01*
G37*
G36*
X144292960Y-116961222D02*
X144717224Y-116536958D01*
X144505092Y-116324826D01*
X144080828Y-116749090D01*
X144292960Y-116961222D01*
G37*
G36*
X143939407Y-116607669D02*
X144363671Y-116183404D01*
X144151539Y-115971272D01*
X143727275Y-116395537D01*
X143939407Y-116607669D01*
G37*
G36*
X143585854Y-116254115D02*
X144010118Y-115829851D01*
X143797986Y-115617719D01*
X143373722Y-116041983D01*
X143585854Y-116254115D01*
G37*
G36*
X143232300Y-115900562D02*
X143656564Y-115476298D01*
X143444432Y-115264166D01*
X143020168Y-115688430D01*
X143232300Y-115900562D01*
G37*
G36*
X143020168Y-114698480D02*
X143444432Y-115122744D01*
X143656564Y-114910612D01*
X143232300Y-114486348D01*
X143020168Y-114698480D01*
G37*
G36*
X143373722Y-114344927D02*
X143797986Y-114769191D01*
X144010118Y-114557059D01*
X143585854Y-114132795D01*
X143373722Y-114344927D01*
G37*
G36*
X143727275Y-113991373D02*
X144151539Y-114415638D01*
X144363671Y-114203506D01*
X143939407Y-113779241D01*
X143727275Y-113991373D01*
G37*
G36*
X144080828Y-113637820D02*
X144505092Y-114062084D01*
X144717224Y-113849952D01*
X144292960Y-113425688D01*
X144080828Y-113637820D01*
G37*
G36*
X144434382Y-113284267D02*
X144858646Y-113708531D01*
X145070778Y-113496399D01*
X144646514Y-113072135D01*
X144434382Y-113284267D01*
G37*
G36*
X144787935Y-112930713D02*
X145212199Y-113354977D01*
X145424331Y-113142845D01*
X145000067Y-112718581D01*
X144787935Y-112930713D01*
G37*
G36*
X145141488Y-112577160D02*
X145565753Y-113001424D01*
X145777885Y-112789292D01*
X145353621Y-112365028D01*
X145141488Y-112577160D01*
G37*
G36*
X145495042Y-112223607D02*
X145919306Y-112647871D01*
X146131438Y-112435739D01*
X145707174Y-112011474D01*
X145495042Y-112223607D01*
G37*
G36*
X145848595Y-111870053D02*
X146272859Y-112294317D01*
X146484991Y-112082185D01*
X146060727Y-111657921D01*
X145848595Y-111870053D01*
G37*
G36*
X146202149Y-111516500D02*
X146626413Y-111940764D01*
X146838545Y-111728632D01*
X146414281Y-111304368D01*
X146202149Y-111516500D01*
G37*
G36*
X146555702Y-111162946D02*
X146979966Y-111587210D01*
X147192098Y-111375078D01*
X146767834Y-110950814D01*
X146555702Y-111162946D01*
G37*
G36*
X146909255Y-110809393D02*
X147333520Y-111233657D01*
X147545652Y-111021525D01*
X147121387Y-110597261D01*
X146909255Y-110809393D01*
G37*
G36*
X147262809Y-110455840D02*
X147687073Y-110880104D01*
X147899205Y-110667972D01*
X147474941Y-110243708D01*
X147262809Y-110455840D01*
G37*
G36*
X147616362Y-110102286D02*
X148040626Y-110526550D01*
X148252758Y-110314418D01*
X147828494Y-109890154D01*
X147616362Y-110102286D01*
G37*
G36*
X148818444Y-109890154D02*
X148394180Y-110314418D01*
X148606312Y-110526550D01*
X149030576Y-110102286D01*
X148818444Y-109890154D01*
G37*
G36*
X149171997Y-110243708D02*
X148747733Y-110667972D01*
X148959865Y-110880104D01*
X149384129Y-110455840D01*
X149171997Y-110243708D01*
G37*
G36*
X149525551Y-110597261D02*
X149101286Y-111021525D01*
X149313418Y-111233657D01*
X149737683Y-110809393D01*
X149525551Y-110597261D01*
G37*
G36*
X149879104Y-110950814D02*
X149454840Y-111375078D01*
X149666972Y-111587210D01*
X150091236Y-111162946D01*
X149879104Y-110950814D01*
G37*
G36*
X150232657Y-111304368D02*
X149808393Y-111728632D01*
X150020525Y-111940764D01*
X150444789Y-111516500D01*
X150232657Y-111304368D01*
G37*
G36*
X150586211Y-111657921D02*
X150161947Y-112082185D01*
X150374079Y-112294317D01*
X150798343Y-111870053D01*
X150586211Y-111657921D01*
G37*
G36*
X150939764Y-112011474D02*
X150515500Y-112435739D01*
X150727632Y-112647871D01*
X151151896Y-112223607D01*
X150939764Y-112011474D01*
G37*
G36*
X151293317Y-112365028D02*
X150869053Y-112789292D01*
X151081185Y-113001424D01*
X151505450Y-112577160D01*
X151293317Y-112365028D01*
G37*
G36*
X151646871Y-112718581D02*
X151222607Y-113142845D01*
X151434739Y-113354977D01*
X151859003Y-112930713D01*
X151646871Y-112718581D01*
G37*
G36*
X152000424Y-113072135D02*
X151576160Y-113496399D01*
X151788292Y-113708531D01*
X152212556Y-113284267D01*
X152000424Y-113072135D01*
G37*
G36*
X152353978Y-113425688D02*
X151929714Y-113849952D01*
X152141846Y-114062084D01*
X152566110Y-113637820D01*
X152353978Y-113425688D01*
G37*
G36*
X152707531Y-113779241D02*
X152283267Y-114203506D01*
X152495399Y-114415638D01*
X152919663Y-113991373D01*
X152707531Y-113779241D01*
G37*
G36*
X153061084Y-114132795D02*
X152636820Y-114557059D01*
X152848952Y-114769191D01*
X153273216Y-114344927D01*
X153061084Y-114132795D01*
G37*
G36*
X153414638Y-114486348D02*
X152990374Y-114910612D01*
X153202506Y-115122744D01*
X153626770Y-114698480D01*
X153414638Y-114486348D01*
G37*
G36*
X154923442Y-133090518D02*
X154989627Y-133097037D01*
X155059250Y-133118157D01*
X155159467Y-133148557D01*
X155259115Y-133201821D01*
X155315991Y-133232222D01*
X155351729Y-133261552D01*
X155453186Y-133344814D01*
X155536448Y-133446271D01*
X155565778Y-133482009D01*
X155565779Y-133482011D01*
X155649443Y-133638533D01*
X155649443Y-133638534D01*
X155700963Y-133808373D01*
X155718359Y-133985000D01*
X155700963Y-134161627D01*
X155666616Y-134274853D01*
X155649443Y-134331467D01*
X155582028Y-134457589D01*
X155565778Y-134487991D01*
X155536448Y-134523729D01*
X155453186Y-134625186D01*
X155353033Y-134707378D01*
X155315991Y-134737778D01*
X155315989Y-134737779D01*
X155159467Y-134821443D01*
X155102853Y-134838616D01*
X154989627Y-134872963D01*
X154923442Y-134879482D01*
X154857260Y-134886000D01*
X154768740Y-134886000D01*
X154702558Y-134879482D01*
X154636373Y-134872963D01*
X154523147Y-134838616D01*
X154466533Y-134821443D01*
X154310011Y-134737779D01*
X154310009Y-134737778D01*
X154272967Y-134707378D01*
X154172814Y-134625186D01*
X154089552Y-134523729D01*
X154060222Y-134487991D01*
X154043972Y-134457589D01*
X153976557Y-134331467D01*
X153959384Y-134274853D01*
X153925037Y-134161627D01*
X153907641Y-133985000D01*
X153925037Y-133808373D01*
X153976557Y-133638534D01*
X153976557Y-133638533D01*
X154060221Y-133482011D01*
X154060222Y-133482009D01*
X154089552Y-133446271D01*
X154172814Y-133344814D01*
X154274271Y-133261552D01*
X154310009Y-133232222D01*
X154366885Y-133201821D01*
X154466533Y-133148557D01*
X154566750Y-133118157D01*
X154636373Y-133097037D01*
X154702558Y-133090518D01*
X154768740Y-133084000D01*
X154857260Y-133084000D01*
X154923442Y-133090518D01*
X154923442Y-133090518D01*
G37*
G36*
X152383442Y-133090518D02*
X152449627Y-133097037D01*
X152519250Y-133118157D01*
X152619467Y-133148557D01*
X152719115Y-133201821D01*
X152775991Y-133232222D01*
X152811729Y-133261552D01*
X152913186Y-133344814D01*
X152996448Y-133446271D01*
X153025778Y-133482009D01*
X153025779Y-133482011D01*
X153109443Y-133638533D01*
X153109443Y-133638534D01*
X153160963Y-133808373D01*
X153178359Y-133985000D01*
X153160963Y-134161627D01*
X153126616Y-134274853D01*
X153109443Y-134331467D01*
X153042028Y-134457589D01*
X153025778Y-134487991D01*
X152996448Y-134523729D01*
X152913186Y-134625186D01*
X152813033Y-134707378D01*
X152775991Y-134737778D01*
X152775989Y-134737779D01*
X152619467Y-134821443D01*
X152562853Y-134838616D01*
X152449627Y-134872963D01*
X152383442Y-134879482D01*
X152317260Y-134886000D01*
X152228740Y-134886000D01*
X152162558Y-134879482D01*
X152096373Y-134872963D01*
X151983147Y-134838616D01*
X151926533Y-134821443D01*
X151770011Y-134737779D01*
X151770009Y-134737778D01*
X151732967Y-134707378D01*
X151632814Y-134625186D01*
X151549552Y-134523729D01*
X151520222Y-134487991D01*
X151503972Y-134457589D01*
X151436557Y-134331467D01*
X151419384Y-134274853D01*
X151385037Y-134161627D01*
X151367641Y-133985000D01*
X151385037Y-133808373D01*
X151436557Y-133638534D01*
X151436557Y-133638533D01*
X151520221Y-133482011D01*
X151520222Y-133482009D01*
X151549552Y-133446271D01*
X151632814Y-133344814D01*
X151734271Y-133261552D01*
X151770009Y-133232222D01*
X151826885Y-133201821D01*
X151926533Y-133148557D01*
X152026750Y-133118157D01*
X152096373Y-133097037D01*
X152162558Y-133090518D01*
X152228740Y-133084000D01*
X152317260Y-133084000D01*
X152383442Y-133090518D01*
X152383442Y-133090518D01*
G37*
G36*
X149843442Y-133090518D02*
X149909627Y-133097037D01*
X149979250Y-133118157D01*
X150079467Y-133148557D01*
X150179115Y-133201821D01*
X150235991Y-133232222D01*
X150271729Y-133261552D01*
X150373186Y-133344814D01*
X150456448Y-133446271D01*
X150485778Y-133482009D01*
X150485779Y-133482011D01*
X150569443Y-133638533D01*
X150569443Y-133638534D01*
X150620963Y-133808373D01*
X150638359Y-133985000D01*
X150620963Y-134161627D01*
X150586616Y-134274853D01*
X150569443Y-134331467D01*
X150502028Y-134457589D01*
X150485778Y-134487991D01*
X150456448Y-134523729D01*
X150373186Y-134625186D01*
X150273033Y-134707378D01*
X150235991Y-134737778D01*
X150235989Y-134737779D01*
X150079467Y-134821443D01*
X150022853Y-134838616D01*
X149909627Y-134872963D01*
X149843442Y-134879482D01*
X149777260Y-134886000D01*
X149688740Y-134886000D01*
X149622558Y-134879482D01*
X149556373Y-134872963D01*
X149443147Y-134838616D01*
X149386533Y-134821443D01*
X149230011Y-134737779D01*
X149230009Y-134737778D01*
X149192967Y-134707378D01*
X149092814Y-134625186D01*
X149009552Y-134523729D01*
X148980222Y-134487991D01*
X148963972Y-134457589D01*
X148896557Y-134331467D01*
X148879384Y-134274853D01*
X148845037Y-134161627D01*
X148827641Y-133985000D01*
X148845037Y-133808373D01*
X148896557Y-133638534D01*
X148896557Y-133638533D01*
X148980221Y-133482011D01*
X148980222Y-133482009D01*
X149009552Y-133446271D01*
X149092814Y-133344814D01*
X149194271Y-133261552D01*
X149230009Y-133232222D01*
X149286885Y-133201821D01*
X149386533Y-133148557D01*
X149486750Y-133118157D01*
X149556373Y-133097037D01*
X149622558Y-133090518D01*
X149688740Y-133084000D01*
X149777260Y-133084000D01*
X149843442Y-133090518D01*
X149843442Y-133090518D01*
G37*
G36*
X147303442Y-133090518D02*
X147369627Y-133097037D01*
X147439250Y-133118157D01*
X147539467Y-133148557D01*
X147639115Y-133201821D01*
X147695991Y-133232222D01*
X147731729Y-133261552D01*
X147833186Y-133344814D01*
X147916448Y-133446271D01*
X147945778Y-133482009D01*
X147945779Y-133482011D01*
X148029443Y-133638533D01*
X148029443Y-133638534D01*
X148080963Y-133808373D01*
X148098359Y-133985000D01*
X148080963Y-134161627D01*
X148046616Y-134274853D01*
X148029443Y-134331467D01*
X147962028Y-134457589D01*
X147945778Y-134487991D01*
X147916448Y-134523729D01*
X147833186Y-134625186D01*
X147733033Y-134707378D01*
X147695991Y-134737778D01*
X147695989Y-134737779D01*
X147539467Y-134821443D01*
X147482853Y-134838616D01*
X147369627Y-134872963D01*
X147303442Y-134879482D01*
X147237260Y-134886000D01*
X147148740Y-134886000D01*
X147082558Y-134879482D01*
X147016373Y-134872963D01*
X146903147Y-134838616D01*
X146846533Y-134821443D01*
X146690011Y-134737779D01*
X146690009Y-134737778D01*
X146652967Y-134707378D01*
X146552814Y-134625186D01*
X146469552Y-134523729D01*
X146440222Y-134487991D01*
X146423972Y-134457589D01*
X146356557Y-134331467D01*
X146339384Y-134274853D01*
X146305037Y-134161627D01*
X146287641Y-133985000D01*
X146305037Y-133808373D01*
X146356557Y-133638534D01*
X146356557Y-133638533D01*
X146440221Y-133482011D01*
X146440222Y-133482009D01*
X146469552Y-133446271D01*
X146552814Y-133344814D01*
X146654271Y-133261552D01*
X146690009Y-133232222D01*
X146746885Y-133201821D01*
X146846533Y-133148557D01*
X146946750Y-133118157D01*
X147016373Y-133097037D01*
X147082558Y-133090518D01*
X147148740Y-133084000D01*
X147237260Y-133084000D01*
X147303442Y-133090518D01*
X147303442Y-133090518D01*
G37*
G36*
X144763442Y-133090518D02*
X144829627Y-133097037D01*
X144899250Y-133118157D01*
X144999467Y-133148557D01*
X145099115Y-133201821D01*
X145155991Y-133232222D01*
X145191729Y-133261552D01*
X145293186Y-133344814D01*
X145376448Y-133446271D01*
X145405778Y-133482009D01*
X145405779Y-133482011D01*
X145489443Y-133638533D01*
X145489443Y-133638534D01*
X145540963Y-133808373D01*
X145558359Y-133985000D01*
X145540963Y-134161627D01*
X145506616Y-134274853D01*
X145489443Y-134331467D01*
X145422028Y-134457589D01*
X145405778Y-134487991D01*
X145376448Y-134523729D01*
X145293186Y-134625186D01*
X145193033Y-134707378D01*
X145155991Y-134737778D01*
X145155989Y-134737779D01*
X144999467Y-134821443D01*
X144942853Y-134838616D01*
X144829627Y-134872963D01*
X144763442Y-134879482D01*
X144697260Y-134886000D01*
X144608740Y-134886000D01*
X144542558Y-134879482D01*
X144476373Y-134872963D01*
X144363147Y-134838616D01*
X144306533Y-134821443D01*
X144150011Y-134737779D01*
X144150009Y-134737778D01*
X144112967Y-134707378D01*
X144012814Y-134625186D01*
X143929552Y-134523729D01*
X143900222Y-134487991D01*
X143883972Y-134457589D01*
X143816557Y-134331467D01*
X143799384Y-134274853D01*
X143765037Y-134161627D01*
X143747641Y-133985000D01*
X143765037Y-133808373D01*
X143816557Y-133638534D01*
X143816557Y-133638533D01*
X143900221Y-133482011D01*
X143900222Y-133482009D01*
X143929552Y-133446271D01*
X144012814Y-133344814D01*
X144114271Y-133261552D01*
X144150009Y-133232222D01*
X144206885Y-133201821D01*
X144306533Y-133148557D01*
X144406750Y-133118157D01*
X144476373Y-133097037D01*
X144542558Y-133090518D01*
X144608740Y-133084000D01*
X144697260Y-133084000D01*
X144763442Y-133090518D01*
X144763442Y-133090518D01*
G37*
G36*
X142223442Y-133090518D02*
X142289627Y-133097037D01*
X142359250Y-133118157D01*
X142459467Y-133148557D01*
X142559115Y-133201821D01*
X142615991Y-133232222D01*
X142651729Y-133261552D01*
X142753186Y-133344814D01*
X142836448Y-133446271D01*
X142865778Y-133482009D01*
X142865779Y-133482011D01*
X142949443Y-133638533D01*
X142949443Y-133638534D01*
X143000963Y-133808373D01*
X143018359Y-133985000D01*
X143000963Y-134161627D01*
X142966616Y-134274853D01*
X142949443Y-134331467D01*
X142882028Y-134457589D01*
X142865778Y-134487991D01*
X142836448Y-134523729D01*
X142753186Y-134625186D01*
X142653033Y-134707378D01*
X142615991Y-134737778D01*
X142615989Y-134737779D01*
X142459467Y-134821443D01*
X142402853Y-134838616D01*
X142289627Y-134872963D01*
X142223442Y-134879482D01*
X142157260Y-134886000D01*
X142068740Y-134886000D01*
X142002558Y-134879482D01*
X141936373Y-134872963D01*
X141823147Y-134838616D01*
X141766533Y-134821443D01*
X141610011Y-134737779D01*
X141610009Y-134737778D01*
X141572967Y-134707378D01*
X141472814Y-134625186D01*
X141389552Y-134523729D01*
X141360222Y-134487991D01*
X141343972Y-134457589D01*
X141276557Y-134331467D01*
X141259384Y-134274853D01*
X141225037Y-134161627D01*
X141207641Y-133985000D01*
X141225037Y-133808373D01*
X141276557Y-133638534D01*
X141276557Y-133638533D01*
X141360221Y-133482011D01*
X141360222Y-133482009D01*
X141389552Y-133446271D01*
X141472814Y-133344814D01*
X141574271Y-133261552D01*
X141610009Y-133232222D01*
X141666885Y-133201821D01*
X141766533Y-133148557D01*
X141866750Y-133118157D01*
X141936373Y-133097037D01*
X142002558Y-133090518D01*
X142068740Y-133084000D01*
X142157260Y-133084000D01*
X142223442Y-133090518D01*
X142223442Y-133090518D01*
G37*
G36*
X138616642Y-133090518D02*
X138682827Y-133097037D01*
X138752450Y-133118157D01*
X138852667Y-133148557D01*
X138952315Y-133201821D01*
X139009191Y-133232222D01*
X139044929Y-133261552D01*
X139146386Y-133344814D01*
X139229648Y-133446271D01*
X139258978Y-133482009D01*
X139258979Y-133482011D01*
X139342643Y-133638533D01*
X139342643Y-133638534D01*
X139394163Y-133808373D01*
X139411559Y-133985000D01*
X139394163Y-134161627D01*
X139359816Y-134274853D01*
X139342643Y-134331467D01*
X139275228Y-134457589D01*
X139258978Y-134487991D01*
X139229648Y-134523729D01*
X139146386Y-134625186D01*
X139046233Y-134707378D01*
X139009191Y-134737778D01*
X139009189Y-134737779D01*
X138852667Y-134821443D01*
X138796053Y-134838616D01*
X138682827Y-134872963D01*
X138616642Y-134879482D01*
X138550460Y-134886000D01*
X138461940Y-134886000D01*
X138395758Y-134879482D01*
X138329573Y-134872963D01*
X138216347Y-134838616D01*
X138159733Y-134821443D01*
X138003211Y-134737779D01*
X138003209Y-134737778D01*
X137966167Y-134707378D01*
X137866014Y-134625186D01*
X137782752Y-134523729D01*
X137753422Y-134487991D01*
X137737172Y-134457589D01*
X137669757Y-134331467D01*
X137652584Y-134274853D01*
X137618237Y-134161627D01*
X137600841Y-133985000D01*
X137618237Y-133808373D01*
X137669757Y-133638534D01*
X137669757Y-133638533D01*
X137753421Y-133482011D01*
X137753422Y-133482009D01*
X137782752Y-133446271D01*
X137866014Y-133344814D01*
X137967471Y-133261552D01*
X138003209Y-133232222D01*
X138060085Y-133201821D01*
X138159733Y-133148557D01*
X138259950Y-133118157D01*
X138329573Y-133097037D01*
X138395758Y-133090518D01*
X138461940Y-133084000D01*
X138550460Y-133084000D01*
X138616642Y-133090518D01*
X138616642Y-133090518D01*
G37*
G36*
X158555542Y-133060118D02*
X158621727Y-133066637D01*
X158734953Y-133100984D01*
X158791567Y-133118157D01*
X158930187Y-133192252D01*
X158948091Y-133201822D01*
X158983829Y-133231152D01*
X159085286Y-133314414D01*
X159168548Y-133415871D01*
X159197878Y-133451609D01*
X159197879Y-133451611D01*
X159281543Y-133608133D01*
X159290765Y-133638534D01*
X159333063Y-133777973D01*
X159350459Y-133954600D01*
X159333063Y-134131227D01*
X159323841Y-134161627D01*
X159281543Y-134301067D01*
X159207448Y-134439687D01*
X159197878Y-134457591D01*
X159172931Y-134487989D01*
X159085286Y-134594786D01*
X158983829Y-134678048D01*
X158948091Y-134707378D01*
X158948089Y-134707379D01*
X158791567Y-134791043D01*
X158734953Y-134808216D01*
X158621727Y-134842563D01*
X158555543Y-134849081D01*
X158489360Y-134855600D01*
X158400840Y-134855600D01*
X158334657Y-134849081D01*
X158268473Y-134842563D01*
X158155247Y-134808216D01*
X158098633Y-134791043D01*
X157942111Y-134707379D01*
X157942109Y-134707378D01*
X157906371Y-134678048D01*
X157804914Y-134594786D01*
X157717269Y-134487989D01*
X157692322Y-134457591D01*
X157682752Y-134439687D01*
X157608657Y-134301067D01*
X157566359Y-134161627D01*
X157557137Y-134131227D01*
X157539741Y-133954600D01*
X157557137Y-133777973D01*
X157599435Y-133638534D01*
X157608657Y-133608133D01*
X157692321Y-133451611D01*
X157692322Y-133451609D01*
X157721652Y-133415871D01*
X157804914Y-133314414D01*
X157906371Y-133231152D01*
X157942109Y-133201822D01*
X157960013Y-133192252D01*
X158098633Y-133118157D01*
X158155247Y-133100984D01*
X158268473Y-133066637D01*
X158334658Y-133060118D01*
X158400840Y-133053600D01*
X158489360Y-133053600D01*
X158555542Y-133060118D01*
X158555542Y-133060118D01*
G37*
G36*
X138616643Y-130550519D02*
X138682827Y-130557037D01*
X138752450Y-130578157D01*
X138852667Y-130608557D01*
X138952315Y-130661821D01*
X139009191Y-130692222D01*
X139044929Y-130721552D01*
X139146386Y-130804814D01*
X139229648Y-130906271D01*
X139258978Y-130942009D01*
X139258979Y-130942011D01*
X139342643Y-131098533D01*
X139342643Y-131098534D01*
X139394163Y-131268373D01*
X139411559Y-131445000D01*
X139394163Y-131621627D01*
X139359816Y-131734853D01*
X139342643Y-131791467D01*
X139275228Y-131917589D01*
X139258978Y-131947991D01*
X139229648Y-131983729D01*
X139146386Y-132085186D01*
X139046233Y-132167378D01*
X139009191Y-132197778D01*
X139009189Y-132197779D01*
X138852667Y-132281443D01*
X138796053Y-132298616D01*
X138682827Y-132332963D01*
X138616642Y-132339482D01*
X138550460Y-132346000D01*
X138461940Y-132346000D01*
X138395758Y-132339482D01*
X138329573Y-132332963D01*
X138216347Y-132298616D01*
X138159733Y-132281443D01*
X138003211Y-132197779D01*
X138003209Y-132197778D01*
X137966167Y-132167378D01*
X137866014Y-132085186D01*
X137782752Y-131983729D01*
X137753422Y-131947991D01*
X137737172Y-131917589D01*
X137669757Y-131791467D01*
X137652584Y-131734853D01*
X137618237Y-131621627D01*
X137600841Y-131445000D01*
X137618237Y-131268373D01*
X137669757Y-131098534D01*
X137669757Y-131098533D01*
X137753421Y-130942011D01*
X137753422Y-130942009D01*
X137782752Y-130906271D01*
X137866014Y-130804814D01*
X137967471Y-130721552D01*
X138003209Y-130692222D01*
X138060085Y-130661821D01*
X138159733Y-130608557D01*
X138259950Y-130578157D01*
X138329573Y-130557037D01*
X138395757Y-130550519D01*
X138461940Y-130544000D01*
X138550460Y-130544000D01*
X138616643Y-130550519D01*
X138616643Y-130550519D01*
G37*
G36*
X155714000Y-132346000D02*
X153912000Y-132346000D01*
X153912000Y-130544000D01*
X155714000Y-130544000D01*
X155714000Y-132346000D01*
X155714000Y-132346000D01*
G37*
G36*
X147303443Y-130550519D02*
X147369627Y-130557037D01*
X147439250Y-130578157D01*
X147539467Y-130608557D01*
X147639115Y-130661821D01*
X147695991Y-130692222D01*
X147731729Y-130721552D01*
X147833186Y-130804814D01*
X147916448Y-130906271D01*
X147945778Y-130942009D01*
X147945779Y-130942011D01*
X148029443Y-131098533D01*
X148029443Y-131098534D01*
X148080963Y-131268373D01*
X148098359Y-131445000D01*
X148080963Y-131621627D01*
X148046616Y-131734853D01*
X148029443Y-131791467D01*
X147962028Y-131917589D01*
X147945778Y-131947991D01*
X147916448Y-131983729D01*
X147833186Y-132085186D01*
X147733033Y-132167378D01*
X147695991Y-132197778D01*
X147695989Y-132197779D01*
X147539467Y-132281443D01*
X147482853Y-132298616D01*
X147369627Y-132332963D01*
X147303442Y-132339482D01*
X147237260Y-132346000D01*
X147148740Y-132346000D01*
X147082558Y-132339482D01*
X147016373Y-132332963D01*
X146903147Y-132298616D01*
X146846533Y-132281443D01*
X146690011Y-132197779D01*
X146690009Y-132197778D01*
X146652967Y-132167378D01*
X146552814Y-132085186D01*
X146469552Y-131983729D01*
X146440222Y-131947991D01*
X146423972Y-131917589D01*
X146356557Y-131791467D01*
X146339384Y-131734853D01*
X146305037Y-131621627D01*
X146287641Y-131445000D01*
X146305037Y-131268373D01*
X146356557Y-131098534D01*
X146356557Y-131098533D01*
X146440221Y-130942011D01*
X146440222Y-130942009D01*
X146469552Y-130906271D01*
X146552814Y-130804814D01*
X146654271Y-130721552D01*
X146690009Y-130692222D01*
X146746885Y-130661821D01*
X146846533Y-130608557D01*
X146946750Y-130578157D01*
X147016373Y-130557037D01*
X147082557Y-130550519D01*
X147148740Y-130544000D01*
X147237260Y-130544000D01*
X147303443Y-130550519D01*
X147303443Y-130550519D01*
G37*
G36*
X152383443Y-130550519D02*
X152449627Y-130557037D01*
X152519250Y-130578157D01*
X152619467Y-130608557D01*
X152719115Y-130661821D01*
X152775991Y-130692222D01*
X152811729Y-130721552D01*
X152913186Y-130804814D01*
X152996448Y-130906271D01*
X153025778Y-130942009D01*
X153025779Y-130942011D01*
X153109443Y-131098533D01*
X153109443Y-131098534D01*
X153160963Y-131268373D01*
X153178359Y-131445000D01*
X153160963Y-131621627D01*
X153126616Y-131734853D01*
X153109443Y-131791467D01*
X153042028Y-131917589D01*
X153025778Y-131947991D01*
X152996448Y-131983729D01*
X152913186Y-132085186D01*
X152813033Y-132167378D01*
X152775991Y-132197778D01*
X152775989Y-132197779D01*
X152619467Y-132281443D01*
X152562853Y-132298616D01*
X152449627Y-132332963D01*
X152383442Y-132339482D01*
X152317260Y-132346000D01*
X152228740Y-132346000D01*
X152162558Y-132339482D01*
X152096373Y-132332963D01*
X151983147Y-132298616D01*
X151926533Y-132281443D01*
X151770011Y-132197779D01*
X151770009Y-132197778D01*
X151732967Y-132167378D01*
X151632814Y-132085186D01*
X151549552Y-131983729D01*
X151520222Y-131947991D01*
X151503972Y-131917589D01*
X151436557Y-131791467D01*
X151419384Y-131734853D01*
X151385037Y-131621627D01*
X151367641Y-131445000D01*
X151385037Y-131268373D01*
X151436557Y-131098534D01*
X151436557Y-131098533D01*
X151520221Y-130942011D01*
X151520222Y-130942009D01*
X151549552Y-130906271D01*
X151632814Y-130804814D01*
X151734271Y-130721552D01*
X151770009Y-130692222D01*
X151826885Y-130661821D01*
X151926533Y-130608557D01*
X152026750Y-130578157D01*
X152096373Y-130557037D01*
X152162557Y-130550519D01*
X152228740Y-130544000D01*
X152317260Y-130544000D01*
X152383443Y-130550519D01*
X152383443Y-130550519D01*
G37*
G36*
X149843443Y-130550519D02*
X149909627Y-130557037D01*
X149979250Y-130578157D01*
X150079467Y-130608557D01*
X150179115Y-130661821D01*
X150235991Y-130692222D01*
X150271729Y-130721552D01*
X150373186Y-130804814D01*
X150456448Y-130906271D01*
X150485778Y-130942009D01*
X150485779Y-130942011D01*
X150569443Y-131098533D01*
X150569443Y-131098534D01*
X150620963Y-131268373D01*
X150638359Y-131445000D01*
X150620963Y-131621627D01*
X150586616Y-131734853D01*
X150569443Y-131791467D01*
X150502028Y-131917589D01*
X150485778Y-131947991D01*
X150456448Y-131983729D01*
X150373186Y-132085186D01*
X150273033Y-132167378D01*
X150235991Y-132197778D01*
X150235989Y-132197779D01*
X150079467Y-132281443D01*
X150022853Y-132298616D01*
X149909627Y-132332963D01*
X149843442Y-132339482D01*
X149777260Y-132346000D01*
X149688740Y-132346000D01*
X149622558Y-132339482D01*
X149556373Y-132332963D01*
X149443147Y-132298616D01*
X149386533Y-132281443D01*
X149230011Y-132197779D01*
X149230009Y-132197778D01*
X149192967Y-132167378D01*
X149092814Y-132085186D01*
X149009552Y-131983729D01*
X148980222Y-131947991D01*
X148963972Y-131917589D01*
X148896557Y-131791467D01*
X148879384Y-131734853D01*
X148845037Y-131621627D01*
X148827641Y-131445000D01*
X148845037Y-131268373D01*
X148896557Y-131098534D01*
X148896557Y-131098533D01*
X148980221Y-130942011D01*
X148980222Y-130942009D01*
X149009552Y-130906271D01*
X149092814Y-130804814D01*
X149194271Y-130721552D01*
X149230009Y-130692222D01*
X149286885Y-130661821D01*
X149386533Y-130608557D01*
X149486750Y-130578157D01*
X149556373Y-130557037D01*
X149622557Y-130550519D01*
X149688740Y-130544000D01*
X149777260Y-130544000D01*
X149843443Y-130550519D01*
X149843443Y-130550519D01*
G37*
G36*
X144763443Y-130550519D02*
X144829627Y-130557037D01*
X144899250Y-130578157D01*
X144999467Y-130608557D01*
X145099115Y-130661821D01*
X145155991Y-130692222D01*
X145191729Y-130721552D01*
X145293186Y-130804814D01*
X145376448Y-130906271D01*
X145405778Y-130942009D01*
X145405779Y-130942011D01*
X145489443Y-131098533D01*
X145489443Y-131098534D01*
X145540963Y-131268373D01*
X145558359Y-131445000D01*
X145540963Y-131621627D01*
X145506616Y-131734853D01*
X145489443Y-131791467D01*
X145422028Y-131917589D01*
X145405778Y-131947991D01*
X145376448Y-131983729D01*
X145293186Y-132085186D01*
X145193033Y-132167378D01*
X145155991Y-132197778D01*
X145155989Y-132197779D01*
X144999467Y-132281443D01*
X144942853Y-132298616D01*
X144829627Y-132332963D01*
X144763442Y-132339482D01*
X144697260Y-132346000D01*
X144608740Y-132346000D01*
X144542558Y-132339482D01*
X144476373Y-132332963D01*
X144363147Y-132298616D01*
X144306533Y-132281443D01*
X144150011Y-132197779D01*
X144150009Y-132197778D01*
X144112967Y-132167378D01*
X144012814Y-132085186D01*
X143929552Y-131983729D01*
X143900222Y-131947991D01*
X143883972Y-131917589D01*
X143816557Y-131791467D01*
X143799384Y-131734853D01*
X143765037Y-131621627D01*
X143747641Y-131445000D01*
X143765037Y-131268373D01*
X143816557Y-131098534D01*
X143816557Y-131098533D01*
X143900221Y-130942011D01*
X143900222Y-130942009D01*
X143929552Y-130906271D01*
X144012814Y-130804814D01*
X144114271Y-130721552D01*
X144150009Y-130692222D01*
X144206885Y-130661821D01*
X144306533Y-130608557D01*
X144406750Y-130578157D01*
X144476373Y-130557037D01*
X144542557Y-130550519D01*
X144608740Y-130544000D01*
X144697260Y-130544000D01*
X144763443Y-130550519D01*
X144763443Y-130550519D01*
G37*
G36*
X142223443Y-130550519D02*
X142289627Y-130557037D01*
X142359250Y-130578157D01*
X142459467Y-130608557D01*
X142559115Y-130661821D01*
X142615991Y-130692222D01*
X142651729Y-130721552D01*
X142753186Y-130804814D01*
X142836448Y-130906271D01*
X142865778Y-130942009D01*
X142865779Y-130942011D01*
X142949443Y-131098533D01*
X142949443Y-131098534D01*
X143000963Y-131268373D01*
X143018359Y-131445000D01*
X143000963Y-131621627D01*
X142966616Y-131734853D01*
X142949443Y-131791467D01*
X142882028Y-131917589D01*
X142865778Y-131947991D01*
X142836448Y-131983729D01*
X142753186Y-132085186D01*
X142653033Y-132167378D01*
X142615991Y-132197778D01*
X142615989Y-132197779D01*
X142459467Y-132281443D01*
X142402853Y-132298616D01*
X142289627Y-132332963D01*
X142223442Y-132339482D01*
X142157260Y-132346000D01*
X142068740Y-132346000D01*
X142002558Y-132339482D01*
X141936373Y-132332963D01*
X141823147Y-132298616D01*
X141766533Y-132281443D01*
X141610011Y-132197779D01*
X141610009Y-132197778D01*
X141572967Y-132167378D01*
X141472814Y-132085186D01*
X141389552Y-131983729D01*
X141360222Y-131947991D01*
X141343972Y-131917589D01*
X141276557Y-131791467D01*
X141259384Y-131734853D01*
X141225037Y-131621627D01*
X141207641Y-131445000D01*
X141225037Y-131268373D01*
X141276557Y-131098534D01*
X141276557Y-131098533D01*
X141360221Y-130942011D01*
X141360222Y-130942009D01*
X141389552Y-130906271D01*
X141472814Y-130804814D01*
X141574271Y-130721552D01*
X141610009Y-130692222D01*
X141666885Y-130661821D01*
X141766533Y-130608557D01*
X141866750Y-130578157D01*
X141936373Y-130557037D01*
X142002557Y-130550519D01*
X142068740Y-130544000D01*
X142157260Y-130544000D01*
X142223443Y-130550519D01*
X142223443Y-130550519D01*
G37*
G36*
X158555542Y-130520118D02*
X158621727Y-130526637D01*
X158734953Y-130560984D01*
X158791567Y-130578157D01*
X158930187Y-130652252D01*
X158948091Y-130661822D01*
X158983829Y-130691152D01*
X159085286Y-130774414D01*
X159168548Y-130875871D01*
X159197878Y-130911609D01*
X159197879Y-130911611D01*
X159281543Y-131068133D01*
X159290765Y-131098534D01*
X159333063Y-131237973D01*
X159350459Y-131414600D01*
X159333063Y-131591227D01*
X159323841Y-131621627D01*
X159281543Y-131761067D01*
X159207448Y-131899687D01*
X159197878Y-131917591D01*
X159172931Y-131947989D01*
X159085286Y-132054786D01*
X158983829Y-132138048D01*
X158948091Y-132167378D01*
X158948089Y-132167379D01*
X158791567Y-132251043D01*
X158734953Y-132268216D01*
X158621727Y-132302563D01*
X158555542Y-132309082D01*
X158489360Y-132315600D01*
X158400840Y-132315600D01*
X158334658Y-132309082D01*
X158268473Y-132302563D01*
X158155247Y-132268216D01*
X158098633Y-132251043D01*
X157942111Y-132167379D01*
X157942109Y-132167378D01*
X157906371Y-132138048D01*
X157804914Y-132054786D01*
X157717269Y-131947989D01*
X157692322Y-131917591D01*
X157682752Y-131899687D01*
X157608657Y-131761067D01*
X157566359Y-131621627D01*
X157557137Y-131591227D01*
X157539741Y-131414600D01*
X157557137Y-131237973D01*
X157599435Y-131098534D01*
X157608657Y-131068133D01*
X157692321Y-130911611D01*
X157692322Y-130911609D01*
X157721652Y-130875871D01*
X157804914Y-130774414D01*
X157906371Y-130691152D01*
X157942109Y-130661822D01*
X157960013Y-130652252D01*
X158098633Y-130578157D01*
X158155247Y-130560984D01*
X158268473Y-130526637D01*
X158334658Y-130520118D01*
X158400840Y-130513600D01*
X158489360Y-130513600D01*
X158555542Y-130520118D01*
X158555542Y-130520118D01*
G37*
G36*
X138616643Y-128010519D02*
X138682827Y-128017037D01*
X138791139Y-128049893D01*
X138852667Y-128068557D01*
X138930724Y-128110280D01*
X139009191Y-128152222D01*
X139044929Y-128181552D01*
X139146386Y-128264814D01*
X139229648Y-128366271D01*
X139258978Y-128402009D01*
X139258979Y-128402011D01*
X139342643Y-128558533D01*
X139342643Y-128558534D01*
X139394163Y-128728373D01*
X139411559Y-128905000D01*
X139394163Y-129081627D01*
X139359816Y-129194853D01*
X139342643Y-129251467D01*
X139275228Y-129377589D01*
X139258978Y-129407991D01*
X139229648Y-129443729D01*
X139146386Y-129545186D01*
X139046233Y-129627378D01*
X139009191Y-129657778D01*
X139009189Y-129657779D01*
X138852667Y-129741443D01*
X138796053Y-129758616D01*
X138682827Y-129792963D01*
X138616643Y-129799481D01*
X138550460Y-129806000D01*
X138461940Y-129806000D01*
X138395757Y-129799481D01*
X138329573Y-129792963D01*
X138216347Y-129758616D01*
X138159733Y-129741443D01*
X138003211Y-129657779D01*
X138003209Y-129657778D01*
X137966167Y-129627378D01*
X137866014Y-129545186D01*
X137782752Y-129443729D01*
X137753422Y-129407991D01*
X137737172Y-129377589D01*
X137669757Y-129251467D01*
X137652584Y-129194853D01*
X137618237Y-129081627D01*
X137600841Y-128905000D01*
X137618237Y-128728373D01*
X137669757Y-128558534D01*
X137669757Y-128558533D01*
X137753421Y-128402011D01*
X137753422Y-128402009D01*
X137782752Y-128366271D01*
X137866014Y-128264814D01*
X137967471Y-128181552D01*
X138003209Y-128152222D01*
X138081676Y-128110280D01*
X138159733Y-128068557D01*
X138221261Y-128049893D01*
X138329573Y-128017037D01*
X138395757Y-128010519D01*
X138461940Y-128004000D01*
X138550460Y-128004000D01*
X138616643Y-128010519D01*
X138616643Y-128010519D01*
G37*
G36*
X158534967Y-127978092D02*
X158621727Y-127986637D01*
X158734953Y-128020984D01*
X158791567Y-128038157D01*
X158863607Y-128076664D01*
X158948091Y-128121822D01*
X158975178Y-128144052D01*
X159085286Y-128234414D01*
X159168548Y-128335871D01*
X159197878Y-128371609D01*
X159197879Y-128371611D01*
X159281543Y-128528133D01*
X159290765Y-128558534D01*
X159333063Y-128697973D01*
X159350459Y-128874600D01*
X159333063Y-129051227D01*
X159323841Y-129081627D01*
X159281543Y-129221067D01*
X159207448Y-129359687D01*
X159197878Y-129377591D01*
X159172931Y-129407989D01*
X159085286Y-129514786D01*
X158983829Y-129598048D01*
X158948091Y-129627378D01*
X158948089Y-129627379D01*
X158791567Y-129711043D01*
X158734953Y-129728216D01*
X158621727Y-129762563D01*
X158555542Y-129769082D01*
X158489360Y-129775600D01*
X158400840Y-129775600D01*
X158334658Y-129769082D01*
X158268473Y-129762563D01*
X158155247Y-129728216D01*
X158098633Y-129711043D01*
X157942111Y-129627379D01*
X157942109Y-129627378D01*
X157906371Y-129598048D01*
X157804914Y-129514786D01*
X157717269Y-129407989D01*
X157692322Y-129377591D01*
X157682752Y-129359687D01*
X157608657Y-129221067D01*
X157566359Y-129081627D01*
X157557137Y-129051227D01*
X157539741Y-128874600D01*
X157557137Y-128697973D01*
X157599435Y-128558534D01*
X157608657Y-128528133D01*
X157692321Y-128371611D01*
X157692322Y-128371609D01*
X157721652Y-128335871D01*
X157804914Y-128234414D01*
X157915022Y-128144052D01*
X157942109Y-128121822D01*
X158026593Y-128076664D01*
X158098633Y-128038157D01*
X158155247Y-128020984D01*
X158268473Y-127986637D01*
X158355233Y-127978092D01*
X158400840Y-127973600D01*
X158489360Y-127973600D01*
X158534967Y-127978092D01*
X158534967Y-127978092D01*
G37*
G36*
X152398591Y-128039585D02*
X152432569Y-128049893D01*
X152463887Y-128066633D01*
X152491339Y-128089161D01*
X152513867Y-128116613D01*
X152530607Y-128147931D01*
X152540915Y-128181909D01*
X152545000Y-128223390D01*
X152545000Y-128824610D01*
X152540915Y-128866091D01*
X152530607Y-128900069D01*
X152513867Y-128931387D01*
X152491339Y-128958839D01*
X152463887Y-128981367D01*
X152432569Y-128998107D01*
X152398591Y-129008415D01*
X152357110Y-129012500D01*
X151680890Y-129012500D01*
X151639409Y-129008415D01*
X151605431Y-128998107D01*
X151574113Y-128981367D01*
X151546661Y-128958839D01*
X151524133Y-128931387D01*
X151507393Y-128900069D01*
X151497085Y-128866091D01*
X151493000Y-128824610D01*
X151493000Y-128223390D01*
X151497085Y-128181909D01*
X151507393Y-128147931D01*
X151524133Y-128116613D01*
X151546661Y-128089161D01*
X151574113Y-128066633D01*
X151605431Y-128049893D01*
X151639409Y-128039585D01*
X151680890Y-128035500D01*
X152357110Y-128035500D01*
X152398591Y-128039585D01*
X152398591Y-128039585D01*
G37*
G36*
X149985591Y-128039585D02*
X150019569Y-128049893D01*
X150050887Y-128066633D01*
X150078339Y-128089161D01*
X150100867Y-128116613D01*
X150117607Y-128147931D01*
X150127915Y-128181909D01*
X150132000Y-128223390D01*
X150132000Y-128824610D01*
X150127915Y-128866091D01*
X150117607Y-128900069D01*
X150100867Y-128931387D01*
X150078339Y-128958839D01*
X150050887Y-128981367D01*
X150019569Y-128998107D01*
X149985591Y-129008415D01*
X149944110Y-129012500D01*
X149267890Y-129012500D01*
X149226409Y-129008415D01*
X149192431Y-128998107D01*
X149161113Y-128981367D01*
X149133661Y-128958839D01*
X149111133Y-128931387D01*
X149094393Y-128900069D01*
X149084085Y-128866091D01*
X149080000Y-128824610D01*
X149080000Y-128223390D01*
X149084085Y-128181909D01*
X149094393Y-128147931D01*
X149111133Y-128116613D01*
X149133661Y-128089161D01*
X149161113Y-128066633D01*
X149192431Y-128049893D01*
X149226409Y-128039585D01*
X149267890Y-128035500D01*
X149944110Y-128035500D01*
X149985591Y-128039585D01*
X149985591Y-128039585D01*
G37*
G36*
X147445591Y-128039585D02*
X147479569Y-128049893D01*
X147510887Y-128066633D01*
X147538339Y-128089161D01*
X147560867Y-128116613D01*
X147577607Y-128147931D01*
X147587915Y-128181909D01*
X147592000Y-128223390D01*
X147592000Y-128824610D01*
X147587915Y-128866091D01*
X147577607Y-128900069D01*
X147560867Y-128931387D01*
X147538339Y-128958839D01*
X147510887Y-128981367D01*
X147479569Y-128998107D01*
X147445591Y-129008415D01*
X147404110Y-129012500D01*
X146727890Y-129012500D01*
X146686409Y-129008415D01*
X146652431Y-128998107D01*
X146621113Y-128981367D01*
X146593661Y-128958839D01*
X146571133Y-128931387D01*
X146554393Y-128900069D01*
X146544085Y-128866091D01*
X146540000Y-128824610D01*
X146540000Y-128223390D01*
X146544085Y-128181909D01*
X146554393Y-128147931D01*
X146571133Y-128116613D01*
X146593661Y-128089161D01*
X146621113Y-128066633D01*
X146652431Y-128049893D01*
X146686409Y-128039585D01*
X146727890Y-128035500D01*
X147404110Y-128035500D01*
X147445591Y-128039585D01*
X147445591Y-128039585D01*
G37*
G36*
X144905591Y-127963585D02*
X144939569Y-127973893D01*
X144970887Y-127990633D01*
X144998339Y-128013161D01*
X145020867Y-128040613D01*
X145037607Y-128071931D01*
X145047915Y-128105909D01*
X145052000Y-128147390D01*
X145052000Y-128748610D01*
X145047915Y-128790091D01*
X145037607Y-128824069D01*
X145020867Y-128855387D01*
X144998339Y-128882839D01*
X144970887Y-128905367D01*
X144939569Y-128922107D01*
X144905591Y-128932415D01*
X144864110Y-128936500D01*
X144187890Y-128936500D01*
X144146409Y-128932415D01*
X144112431Y-128922107D01*
X144081113Y-128905367D01*
X144053661Y-128882839D01*
X144031133Y-128855387D01*
X144014393Y-128824069D01*
X144004085Y-128790091D01*
X144000000Y-128748610D01*
X144000000Y-128147390D01*
X144004085Y-128105909D01*
X144014393Y-128071931D01*
X144031133Y-128040613D01*
X144053661Y-128013161D01*
X144081113Y-127990633D01*
X144112431Y-127973893D01*
X144146409Y-127963585D01*
X144187890Y-127959500D01*
X144864110Y-127959500D01*
X144905591Y-127963585D01*
X144905591Y-127963585D01*
G37*
G36*
X147445591Y-126464585D02*
X147479569Y-126474893D01*
X147510887Y-126491633D01*
X147538339Y-126514161D01*
X147560867Y-126541613D01*
X147577607Y-126572931D01*
X147587915Y-126606909D01*
X147592000Y-126648390D01*
X147592000Y-127249610D01*
X147587915Y-127291091D01*
X147577607Y-127325069D01*
X147560867Y-127356387D01*
X147538339Y-127383839D01*
X147510887Y-127406367D01*
X147479569Y-127423107D01*
X147445591Y-127433415D01*
X147404110Y-127437500D01*
X146727890Y-127437500D01*
X146686409Y-127433415D01*
X146652431Y-127423107D01*
X146621113Y-127406367D01*
X146593661Y-127383839D01*
X146571133Y-127356387D01*
X146554393Y-127325069D01*
X146544085Y-127291091D01*
X146540000Y-127249610D01*
X146540000Y-126648390D01*
X146544085Y-126606909D01*
X146554393Y-126572931D01*
X146571133Y-126541613D01*
X146593661Y-126514161D01*
X146621113Y-126491633D01*
X146652431Y-126474893D01*
X146686409Y-126464585D01*
X146727890Y-126460500D01*
X147404110Y-126460500D01*
X147445591Y-126464585D01*
X147445591Y-126464585D01*
G37*
G36*
X152398591Y-126464585D02*
X152432569Y-126474893D01*
X152463887Y-126491633D01*
X152491339Y-126514161D01*
X152513867Y-126541613D01*
X152530607Y-126572931D01*
X152540915Y-126606909D01*
X152545000Y-126648390D01*
X152545000Y-127249610D01*
X152540915Y-127291091D01*
X152530607Y-127325069D01*
X152513867Y-127356387D01*
X152491339Y-127383839D01*
X152463887Y-127406367D01*
X152432569Y-127423107D01*
X152398591Y-127433415D01*
X152357110Y-127437500D01*
X151680890Y-127437500D01*
X151639409Y-127433415D01*
X151605431Y-127423107D01*
X151574113Y-127406367D01*
X151546661Y-127383839D01*
X151524133Y-127356387D01*
X151507393Y-127325069D01*
X151497085Y-127291091D01*
X151493000Y-127249610D01*
X151493000Y-126648390D01*
X151497085Y-126606909D01*
X151507393Y-126572931D01*
X151524133Y-126541613D01*
X151546661Y-126514161D01*
X151574113Y-126491633D01*
X151605431Y-126474893D01*
X151639409Y-126464585D01*
X151680890Y-126460500D01*
X152357110Y-126460500D01*
X152398591Y-126464585D01*
X152398591Y-126464585D01*
G37*
G36*
X149985591Y-126464585D02*
X150019569Y-126474893D01*
X150050887Y-126491633D01*
X150078339Y-126514161D01*
X150100867Y-126541613D01*
X150117607Y-126572931D01*
X150127915Y-126606909D01*
X150132000Y-126648390D01*
X150132000Y-127249610D01*
X150127915Y-127291091D01*
X150117607Y-127325069D01*
X150100867Y-127356387D01*
X150078339Y-127383839D01*
X150050887Y-127406367D01*
X150019569Y-127423107D01*
X149985591Y-127433415D01*
X149944110Y-127437500D01*
X149267890Y-127437500D01*
X149226409Y-127433415D01*
X149192431Y-127423107D01*
X149161113Y-127406367D01*
X149133661Y-127383839D01*
X149111133Y-127356387D01*
X149094393Y-127325069D01*
X149084085Y-127291091D01*
X149080000Y-127249610D01*
X149080000Y-126648390D01*
X149084085Y-126606909D01*
X149094393Y-126572931D01*
X149111133Y-126541613D01*
X149133661Y-126514161D01*
X149161113Y-126491633D01*
X149192431Y-126474893D01*
X149226409Y-126464585D01*
X149267890Y-126460500D01*
X149944110Y-126460500D01*
X149985591Y-126464585D01*
X149985591Y-126464585D01*
G37*
G36*
X144905591Y-126388585D02*
X144939569Y-126398893D01*
X144970887Y-126415633D01*
X144998339Y-126438161D01*
X145020867Y-126465613D01*
X145037607Y-126496931D01*
X145047915Y-126530909D01*
X145052000Y-126572390D01*
X145052000Y-127173610D01*
X145047915Y-127215091D01*
X145037607Y-127249069D01*
X145020867Y-127280387D01*
X144998339Y-127307839D01*
X144970887Y-127330367D01*
X144939569Y-127347107D01*
X144905591Y-127357415D01*
X144864110Y-127361500D01*
X144187890Y-127361500D01*
X144146409Y-127357415D01*
X144112431Y-127347107D01*
X144081113Y-127330367D01*
X144053661Y-127307839D01*
X144031133Y-127280387D01*
X144014393Y-127249069D01*
X144004085Y-127215091D01*
X144000000Y-127173610D01*
X144000000Y-126572390D01*
X144004085Y-126530909D01*
X144014393Y-126496931D01*
X144031133Y-126465613D01*
X144053661Y-126438161D01*
X144081113Y-126415633D01*
X144112431Y-126398893D01*
X144146409Y-126388585D01*
X144187890Y-126384500D01*
X144864110Y-126384500D01*
X144905591Y-126388585D01*
X144905591Y-126388585D01*
G37*
G36*
X138616642Y-125470518D02*
X138682827Y-125477037D01*
X138752450Y-125498157D01*
X138852667Y-125528557D01*
X138952315Y-125581821D01*
X139009191Y-125612222D01*
X139044929Y-125641552D01*
X139146386Y-125724814D01*
X139229648Y-125826271D01*
X139258978Y-125862009D01*
X139258979Y-125862011D01*
X139342643Y-126018533D01*
X139342643Y-126018534D01*
X139394163Y-126188373D01*
X139411559Y-126365000D01*
X139394163Y-126541627D01*
X139361777Y-126648390D01*
X139342643Y-126711467D01*
X139275228Y-126837589D01*
X139258978Y-126867991D01*
X139229648Y-126903729D01*
X139146386Y-127005186D01*
X139046233Y-127087378D01*
X139009191Y-127117778D01*
X139009189Y-127117779D01*
X138852667Y-127201443D01*
X138796053Y-127218616D01*
X138682827Y-127252963D01*
X138616643Y-127259481D01*
X138550460Y-127266000D01*
X138461940Y-127266000D01*
X138395757Y-127259481D01*
X138329573Y-127252963D01*
X138216347Y-127218616D01*
X138159733Y-127201443D01*
X138003211Y-127117779D01*
X138003209Y-127117778D01*
X137966167Y-127087378D01*
X137866014Y-127005186D01*
X137782752Y-126903729D01*
X137753422Y-126867991D01*
X137737172Y-126837589D01*
X137669757Y-126711467D01*
X137650623Y-126648390D01*
X137618237Y-126541627D01*
X137600841Y-126365000D01*
X137618237Y-126188373D01*
X137669757Y-126018534D01*
X137669757Y-126018533D01*
X137753421Y-125862011D01*
X137753422Y-125862009D01*
X137782752Y-125826271D01*
X137866014Y-125724814D01*
X137967471Y-125641552D01*
X138003209Y-125612222D01*
X138060085Y-125581821D01*
X138159733Y-125528557D01*
X138259950Y-125498157D01*
X138329573Y-125477037D01*
X138395758Y-125470518D01*
X138461940Y-125464000D01*
X138550460Y-125464000D01*
X138616642Y-125470518D01*
X138616642Y-125470518D01*
G37*
G36*
X158555543Y-125440119D02*
X158621727Y-125446637D01*
X158734953Y-125480984D01*
X158791567Y-125498157D01*
X158930187Y-125572252D01*
X158948091Y-125581822D01*
X158983829Y-125611152D01*
X159085286Y-125694414D01*
X159168548Y-125795871D01*
X159197878Y-125831609D01*
X159197879Y-125831611D01*
X159281543Y-125988133D01*
X159290765Y-126018534D01*
X159333063Y-126157973D01*
X159350459Y-126334600D01*
X159333063Y-126511227D01*
X159304038Y-126606909D01*
X159281543Y-126681067D01*
X159207448Y-126819687D01*
X159197878Y-126837591D01*
X159172931Y-126867989D01*
X159085286Y-126974786D01*
X158983829Y-127058048D01*
X158948091Y-127087378D01*
X158948089Y-127087379D01*
X158791567Y-127171043D01*
X158734953Y-127188216D01*
X158621727Y-127222563D01*
X158555543Y-127229081D01*
X158489360Y-127235600D01*
X158400840Y-127235600D01*
X158334657Y-127229081D01*
X158268473Y-127222563D01*
X158155247Y-127188216D01*
X158098633Y-127171043D01*
X157942111Y-127087379D01*
X157942109Y-127087378D01*
X157906371Y-127058048D01*
X157804914Y-126974786D01*
X157717269Y-126867989D01*
X157692322Y-126837591D01*
X157682752Y-126819687D01*
X157608657Y-126681067D01*
X157586162Y-126606909D01*
X157557137Y-126511227D01*
X157539741Y-126334600D01*
X157557137Y-126157973D01*
X157599435Y-126018534D01*
X157608657Y-125988133D01*
X157692321Y-125831611D01*
X157692322Y-125831609D01*
X157721652Y-125795871D01*
X157804914Y-125694414D01*
X157906371Y-125611152D01*
X157942109Y-125581822D01*
X157960013Y-125572252D01*
X158098633Y-125498157D01*
X158155247Y-125480984D01*
X158268473Y-125446637D01*
X158334657Y-125440119D01*
X158400840Y-125433600D01*
X158489360Y-125433600D01*
X158555543Y-125440119D01*
X158555543Y-125440119D01*
G37*
G36*
X150107600Y-125850600D02*
X149104400Y-125850600D01*
X149104400Y-124847400D01*
X150107600Y-124847400D01*
X150107600Y-125850600D01*
X150107600Y-125850600D01*
G37*
G36*
X147567600Y-125850600D02*
X146564400Y-125850600D01*
X146564400Y-124847400D01*
X147567600Y-124847400D01*
X147567600Y-125850600D01*
X147567600Y-125850600D01*
G37*
G36*
X152520600Y-125850600D02*
X151517400Y-125850600D01*
X151517400Y-124847400D01*
X152520600Y-124847400D01*
X152520600Y-125850600D01*
X152520600Y-125850600D01*
G37*
G36*
X145027600Y-125850600D02*
X144024400Y-125850600D01*
X144024400Y-124847400D01*
X145027600Y-124847400D01*
X145027600Y-125850600D01*
X145027600Y-125850600D01*
G37*
G36*
X138616643Y-122930519D02*
X138682827Y-122937037D01*
X138752450Y-122958157D01*
X138852667Y-122988557D01*
X138952315Y-123041821D01*
X139009191Y-123072222D01*
X139044929Y-123101552D01*
X139146386Y-123184814D01*
X139229648Y-123286271D01*
X139258978Y-123322009D01*
X139258979Y-123322011D01*
X139342643Y-123478533D01*
X139342643Y-123478534D01*
X139394163Y-123648373D01*
X139411559Y-123825000D01*
X139394163Y-124001627D01*
X139359816Y-124114853D01*
X139342643Y-124171467D01*
X139275228Y-124297589D01*
X139258978Y-124327991D01*
X139240423Y-124350600D01*
X139146386Y-124465186D01*
X139046233Y-124547378D01*
X139009191Y-124577778D01*
X139009189Y-124577779D01*
X138852667Y-124661443D01*
X138796053Y-124678616D01*
X138682827Y-124712963D01*
X138616643Y-124719481D01*
X138550460Y-124726000D01*
X138461940Y-124726000D01*
X138395757Y-124719481D01*
X138329573Y-124712963D01*
X138216347Y-124678616D01*
X138159733Y-124661443D01*
X138003211Y-124577779D01*
X138003209Y-124577778D01*
X137966167Y-124547378D01*
X137866014Y-124465186D01*
X137771977Y-124350600D01*
X137753422Y-124327991D01*
X137737172Y-124297589D01*
X137669757Y-124171467D01*
X137652584Y-124114853D01*
X137618237Y-124001627D01*
X137600841Y-123825000D01*
X137618237Y-123648373D01*
X137669757Y-123478534D01*
X137669757Y-123478533D01*
X137753421Y-123322011D01*
X137753422Y-123322009D01*
X137782752Y-123286271D01*
X137866014Y-123184814D01*
X137967471Y-123101552D01*
X138003209Y-123072222D01*
X138060085Y-123041821D01*
X138159733Y-122988557D01*
X138259950Y-122958157D01*
X138329573Y-122937037D01*
X138395757Y-122930519D01*
X138461940Y-122924000D01*
X138550460Y-122924000D01*
X138616643Y-122930519D01*
X138616643Y-122930519D01*
G37*
G36*
X158555542Y-122900118D02*
X158621727Y-122906637D01*
X158734953Y-122940984D01*
X158791567Y-122958157D01*
X158930187Y-123032252D01*
X158948091Y-123041822D01*
X158983829Y-123071152D01*
X159085286Y-123154414D01*
X159168548Y-123255871D01*
X159197878Y-123291609D01*
X159197879Y-123291611D01*
X159281543Y-123448133D01*
X159290765Y-123478534D01*
X159333063Y-123617973D01*
X159350459Y-123794600D01*
X159333063Y-123971227D01*
X159323841Y-124001627D01*
X159281543Y-124141067D01*
X159207448Y-124279687D01*
X159197878Y-124297591D01*
X159172931Y-124327989D01*
X159085286Y-124434786D01*
X158983829Y-124518048D01*
X158948091Y-124547378D01*
X158948089Y-124547379D01*
X158791567Y-124631043D01*
X158734953Y-124648216D01*
X158621727Y-124682563D01*
X158555542Y-124689082D01*
X158489360Y-124695600D01*
X158400840Y-124695600D01*
X158334658Y-124689082D01*
X158268473Y-124682563D01*
X158155247Y-124648216D01*
X158098633Y-124631043D01*
X157942111Y-124547379D01*
X157942109Y-124547378D01*
X157906371Y-124518048D01*
X157804914Y-124434786D01*
X157717269Y-124327989D01*
X157692322Y-124297591D01*
X157682752Y-124279687D01*
X157608657Y-124141067D01*
X157566359Y-124001627D01*
X157557137Y-123971227D01*
X157539741Y-123794600D01*
X157557137Y-123617973D01*
X157599435Y-123478534D01*
X157608657Y-123448133D01*
X157692321Y-123291611D01*
X157692322Y-123291609D01*
X157721652Y-123255871D01*
X157804914Y-123154414D01*
X157906371Y-123071152D01*
X157942109Y-123041822D01*
X157960013Y-123032252D01*
X158098633Y-122958157D01*
X158155247Y-122940984D01*
X158268473Y-122906637D01*
X158334658Y-122900118D01*
X158400840Y-122893600D01*
X158489360Y-122893600D01*
X158555542Y-122900118D01*
X158555542Y-122900118D01*
G37*
G36*
X155714000Y-124624400D02*
X153912000Y-124624400D01*
X153912000Y-122822400D01*
X155714000Y-122822400D01*
X155714000Y-124624400D01*
X155714000Y-124624400D01*
G37*
G36*
X145027600Y-124350600D02*
X144024400Y-124350600D01*
X144024400Y-123347400D01*
X145027600Y-123347400D01*
X145027600Y-124350600D01*
X145027600Y-124350600D01*
G37*
G36*
X147567600Y-124350600D02*
X146564400Y-124350600D01*
X146564400Y-123347400D01*
X147567600Y-123347400D01*
X147567600Y-124350600D01*
X147567600Y-124350600D01*
G37*
G36*
X150107600Y-124350600D02*
X149104400Y-124350600D01*
X149104400Y-123347400D01*
X150107600Y-123347400D01*
X150107600Y-124350600D01*
X150107600Y-124350600D01*
G37*
G36*
X152520600Y-124350600D02*
X151517400Y-124350600D01*
X151517400Y-123347400D01*
X152520600Y-123347400D01*
X152520600Y-124350600D01*
X152520600Y-124350600D01*
G37*
G36*
X147535091Y-121271085D02*
X147569069Y-121281393D01*
X147600387Y-121298133D01*
X147627839Y-121320661D01*
X147650367Y-121348113D01*
X147667107Y-121379431D01*
X147677415Y-121413409D01*
X147681500Y-121454890D01*
X147681500Y-122131110D01*
X147677415Y-122172591D01*
X147667107Y-122206569D01*
X147650367Y-122237887D01*
X147627839Y-122265339D01*
X147600387Y-122287867D01*
X147569069Y-122304607D01*
X147535091Y-122314915D01*
X147493610Y-122319000D01*
X146892390Y-122319000D01*
X146850909Y-122314915D01*
X146816931Y-122304607D01*
X146785613Y-122287867D01*
X146758161Y-122265339D01*
X146735633Y-122237887D01*
X146718893Y-122206569D01*
X146708585Y-122172591D01*
X146704500Y-122131110D01*
X146704500Y-121454890D01*
X146708585Y-121413409D01*
X146718893Y-121379431D01*
X146735633Y-121348113D01*
X146758161Y-121320661D01*
X146785613Y-121298133D01*
X146816931Y-121281393D01*
X146850909Y-121271085D01*
X146892390Y-121267000D01*
X147493610Y-121267000D01*
X147535091Y-121271085D01*
X147535091Y-121271085D01*
G37*
G36*
X145960091Y-121271085D02*
X145994069Y-121281393D01*
X146025387Y-121298133D01*
X146052839Y-121320661D01*
X146075367Y-121348113D01*
X146092107Y-121379431D01*
X146102415Y-121413409D01*
X146106500Y-121454890D01*
X146106500Y-122131110D01*
X146102415Y-122172591D01*
X146092107Y-122206569D01*
X146075367Y-122237887D01*
X146052839Y-122265339D01*
X146025387Y-122287867D01*
X145994069Y-122304607D01*
X145960091Y-122314915D01*
X145918610Y-122319000D01*
X145317390Y-122319000D01*
X145275909Y-122314915D01*
X145241931Y-122304607D01*
X145210613Y-122287867D01*
X145183161Y-122265339D01*
X145160633Y-122237887D01*
X145143893Y-122206569D01*
X145133585Y-122172591D01*
X145129500Y-122131110D01*
X145129500Y-121454890D01*
X145133585Y-121413409D01*
X145143893Y-121379431D01*
X145160633Y-121348113D01*
X145183161Y-121320661D01*
X145210613Y-121298133D01*
X145241931Y-121281393D01*
X145275909Y-121271085D01*
X145317390Y-121267000D01*
X145918610Y-121267000D01*
X145960091Y-121271085D01*
X145960091Y-121271085D01*
G37*
G36*
X138616643Y-120390519D02*
X138682827Y-120397037D01*
X138752450Y-120418157D01*
X138852667Y-120448557D01*
X138952315Y-120501821D01*
X139009191Y-120532222D01*
X139032664Y-120551486D01*
X139146386Y-120644814D01*
X139229648Y-120746271D01*
X139258978Y-120782009D01*
X139258979Y-120782011D01*
X139342643Y-120938533D01*
X139342643Y-120938534D01*
X139394163Y-121108373D01*
X139411559Y-121285000D01*
X139394163Y-121461627D01*
X139359816Y-121574853D01*
X139342643Y-121631467D01*
X139313286Y-121686389D01*
X139258978Y-121787991D01*
X139229767Y-121823585D01*
X139146386Y-121925186D01*
X139046233Y-122007378D01*
X139009191Y-122037778D01*
X139009189Y-122037779D01*
X138852667Y-122121443D01*
X138796053Y-122138616D01*
X138682827Y-122172963D01*
X138616642Y-122179482D01*
X138550460Y-122186000D01*
X138461940Y-122186000D01*
X138395758Y-122179482D01*
X138329573Y-122172963D01*
X138216347Y-122138616D01*
X138159733Y-122121443D01*
X138003211Y-122037779D01*
X138003209Y-122037778D01*
X137966167Y-122007378D01*
X137866014Y-121925186D01*
X137782633Y-121823585D01*
X137753422Y-121787991D01*
X137699114Y-121686389D01*
X137669757Y-121631467D01*
X137652584Y-121574853D01*
X137618237Y-121461627D01*
X137600841Y-121285000D01*
X137618237Y-121108373D01*
X137669757Y-120938534D01*
X137669757Y-120938533D01*
X137753421Y-120782011D01*
X137753422Y-120782009D01*
X137782752Y-120746271D01*
X137866014Y-120644814D01*
X137979736Y-120551486D01*
X138003209Y-120532222D01*
X138060085Y-120501821D01*
X138159733Y-120448557D01*
X138259950Y-120418157D01*
X138329573Y-120397037D01*
X138395757Y-120390519D01*
X138461940Y-120384000D01*
X138550460Y-120384000D01*
X138616643Y-120390519D01*
X138616643Y-120390519D01*
G37*
G36*
X158555543Y-120360119D02*
X158621727Y-120366637D01*
X158734953Y-120400984D01*
X158791567Y-120418157D01*
X158930187Y-120492252D01*
X158948091Y-120501822D01*
X158983829Y-120531152D01*
X159085286Y-120614414D01*
X159168548Y-120715871D01*
X159197878Y-120751609D01*
X159197879Y-120751611D01*
X159281543Y-120908133D01*
X159290765Y-120938534D01*
X159333063Y-121077973D01*
X159350459Y-121254600D01*
X159333063Y-121431227D01*
X159323841Y-121461627D01*
X159281543Y-121601067D01*
X159207448Y-121739687D01*
X159197878Y-121757591D01*
X159172931Y-121787989D01*
X159085286Y-121894786D01*
X158983829Y-121978048D01*
X158948091Y-122007378D01*
X158948089Y-122007379D01*
X158791567Y-122091043D01*
X158734953Y-122108216D01*
X158621727Y-122142563D01*
X158555542Y-122149082D01*
X158489360Y-122155600D01*
X158400840Y-122155600D01*
X158334658Y-122149082D01*
X158268473Y-122142563D01*
X158155247Y-122108216D01*
X158098633Y-122091043D01*
X157942111Y-122007379D01*
X157942109Y-122007378D01*
X157906371Y-121978048D01*
X157804914Y-121894786D01*
X157717269Y-121787989D01*
X157692322Y-121757591D01*
X157682752Y-121739687D01*
X157608657Y-121601067D01*
X157566359Y-121461627D01*
X157557137Y-121431227D01*
X157539741Y-121254600D01*
X157557137Y-121077973D01*
X157599435Y-120938534D01*
X157608657Y-120908133D01*
X157692321Y-120751611D01*
X157692322Y-120751609D01*
X157721652Y-120715871D01*
X157804914Y-120614414D01*
X157906371Y-120531152D01*
X157942109Y-120501822D01*
X157960013Y-120492252D01*
X158098633Y-120418157D01*
X158155247Y-120400984D01*
X158268473Y-120366637D01*
X158334657Y-120360119D01*
X158400840Y-120353600D01*
X158489360Y-120353600D01*
X158555543Y-120360119D01*
X158555543Y-120360119D01*
G37*
G36*
X154923442Y-120288918D02*
X154989627Y-120295437D01*
X155068797Y-120319453D01*
X155159467Y-120346957D01*
X155292671Y-120418157D01*
X155315991Y-120430622D01*
X155351729Y-120459952D01*
X155453186Y-120543214D01*
X155511617Y-120614414D01*
X155565778Y-120680409D01*
X155565779Y-120680411D01*
X155649443Y-120836933D01*
X155649443Y-120836934D01*
X155700963Y-121006773D01*
X155718359Y-121183400D01*
X155700963Y-121360027D01*
X155683444Y-121417780D01*
X155649443Y-121529867D01*
X155611386Y-121601066D01*
X155565778Y-121686391D01*
X155536448Y-121722129D01*
X155453186Y-121823586D01*
X155366428Y-121894785D01*
X155315991Y-121936178D01*
X155315989Y-121936179D01*
X155159467Y-122019843D01*
X155102853Y-122037016D01*
X154989627Y-122071363D01*
X154923442Y-122077882D01*
X154857260Y-122084400D01*
X154768740Y-122084400D01*
X154702558Y-122077882D01*
X154636373Y-122071363D01*
X154523147Y-122037016D01*
X154466533Y-122019843D01*
X154310011Y-121936179D01*
X154310009Y-121936178D01*
X154259572Y-121894785D01*
X154172814Y-121823586D01*
X154089552Y-121722129D01*
X154060222Y-121686391D01*
X154014614Y-121601066D01*
X153976557Y-121529867D01*
X153942556Y-121417780D01*
X153925037Y-121360027D01*
X153907641Y-121183400D01*
X153925037Y-121006773D01*
X153976557Y-120836934D01*
X153976557Y-120836933D01*
X154060221Y-120680411D01*
X154060222Y-120680409D01*
X154114383Y-120614414D01*
X154172814Y-120543214D01*
X154274271Y-120459952D01*
X154310009Y-120430622D01*
X154333329Y-120418157D01*
X154466533Y-120346957D01*
X154557203Y-120319453D01*
X154636373Y-120295437D01*
X154702558Y-120288918D01*
X154768740Y-120282400D01*
X154857260Y-120282400D01*
X154923442Y-120288918D01*
X154923442Y-120288918D01*
G37*
G36*
X148830674Y-109774499D02*
X148842437Y-109778067D01*
X148853274Y-109783860D01*
X148867550Y-109795576D01*
X149125154Y-110053180D01*
X149136871Y-110067457D01*
X149143363Y-110079603D01*
X149156976Y-110099978D01*
X149174303Y-110117306D01*
X149194681Y-110130922D01*
X149206828Y-110137414D01*
X149221103Y-110149130D01*
X149478707Y-110406734D01*
X149490423Y-110421009D01*
X149496915Y-110433156D01*
X149510528Y-110453531D01*
X149527855Y-110470858D01*
X149548234Y-110484474D01*
X149560380Y-110490966D01*
X149574657Y-110502683D01*
X149832261Y-110760287D01*
X149843979Y-110774565D01*
X149850472Y-110786712D01*
X149864086Y-110807087D01*
X149881413Y-110824414D01*
X149901785Y-110838025D01*
X149913932Y-110844518D01*
X149928210Y-110856236D01*
X150185814Y-111113840D01*
X150197531Y-111128117D01*
X150204023Y-111140263D01*
X150217636Y-111160638D01*
X150234963Y-111177966D01*
X150255341Y-111191582D01*
X150267488Y-111198074D01*
X150281763Y-111209790D01*
X150539367Y-111467394D01*
X150551083Y-111481669D01*
X150557575Y-111493816D01*
X150571188Y-111514191D01*
X150588515Y-111531518D01*
X150608894Y-111545134D01*
X150621040Y-111551626D01*
X150635317Y-111563343D01*
X150892921Y-111820947D01*
X150904638Y-111835224D01*
X150911130Y-111847370D01*
X150924743Y-111867745D01*
X150942070Y-111885073D01*
X150962448Y-111898689D01*
X150974595Y-111905181D01*
X150988870Y-111916897D01*
X151246474Y-112174501D01*
X151258192Y-112188779D01*
X151264685Y-112200926D01*
X151278299Y-112221301D01*
X151295626Y-112238628D01*
X151315998Y-112252239D01*
X151328145Y-112258732D01*
X151342423Y-112270450D01*
X151600027Y-112528054D01*
X151611743Y-112542329D01*
X151618235Y-112554476D01*
X151631848Y-112574851D01*
X151649175Y-112592178D01*
X151669554Y-112605794D01*
X151681700Y-112612286D01*
X151695977Y-112624003D01*
X151953581Y-112881607D01*
X151965298Y-112895884D01*
X151971790Y-112908030D01*
X151985403Y-112928405D01*
X152002730Y-112945733D01*
X152023108Y-112959349D01*
X152035255Y-112965841D01*
X152049530Y-112977557D01*
X152307134Y-113235161D01*
X152318850Y-113249436D01*
X152325342Y-113261583D01*
X152338955Y-113281958D01*
X152356282Y-113299285D01*
X152376661Y-113312901D01*
X152388807Y-113319393D01*
X152403084Y-113331110D01*
X152660688Y-113588714D01*
X152672406Y-113602992D01*
X152678899Y-113615139D01*
X152692513Y-113635514D01*
X152709840Y-113652841D01*
X152730212Y-113666452D01*
X152742359Y-113672945D01*
X152756637Y-113684663D01*
X153014241Y-113942267D01*
X153025958Y-113956544D01*
X153032450Y-113968690D01*
X153046063Y-113989065D01*
X153063390Y-114006393D01*
X153083768Y-114020009D01*
X153095915Y-114026501D01*
X153110190Y-114038217D01*
X153367794Y-114295821D01*
X153379510Y-114310096D01*
X153386002Y-114322243D01*
X153399615Y-114342618D01*
X153416942Y-114359945D01*
X153437321Y-114373561D01*
X153449467Y-114380053D01*
X153463744Y-114391770D01*
X153721348Y-114649374D01*
X153733064Y-114663650D01*
X153738857Y-114674487D01*
X153742425Y-114686250D01*
X153743629Y-114698480D01*
X153742425Y-114710710D01*
X153738857Y-114722473D01*
X153733064Y-114733310D01*
X153721348Y-114747586D01*
X153363867Y-115105067D01*
X153348321Y-115124009D01*
X153336770Y-115145620D01*
X153329657Y-115169069D01*
X153327255Y-115193455D01*
X153329657Y-115217841D01*
X153336770Y-115241290D01*
X153348321Y-115262901D01*
X153363867Y-115281843D01*
X153721348Y-115639324D01*
X153733064Y-115653600D01*
X153738857Y-115664437D01*
X153742425Y-115676200D01*
X153743629Y-115688430D01*
X153742425Y-115700660D01*
X153738857Y-115712423D01*
X153733064Y-115723260D01*
X153721348Y-115737536D01*
X153463744Y-115995140D01*
X153449467Y-116006857D01*
X153437321Y-116013349D01*
X153416946Y-116026962D01*
X153399618Y-116044289D01*
X153386002Y-116064667D01*
X153379510Y-116076814D01*
X153367794Y-116091089D01*
X153110190Y-116348693D01*
X153095915Y-116360409D01*
X153083768Y-116366901D01*
X153063393Y-116380514D01*
X153046066Y-116397841D01*
X153032450Y-116418220D01*
X153025958Y-116430366D01*
X153014241Y-116444643D01*
X152756637Y-116702247D01*
X152742359Y-116713965D01*
X152730212Y-116720458D01*
X152709837Y-116734072D01*
X152692510Y-116751399D01*
X152678899Y-116771771D01*
X152672406Y-116783918D01*
X152660688Y-116798196D01*
X152403084Y-117055800D01*
X152388807Y-117067517D01*
X152376661Y-117074009D01*
X152356286Y-117087622D01*
X152338958Y-117104949D01*
X152325342Y-117125327D01*
X152318850Y-117137474D01*
X152307134Y-117151749D01*
X152049530Y-117409353D01*
X152035255Y-117421069D01*
X152023108Y-117427561D01*
X152002733Y-117441174D01*
X151985406Y-117458501D01*
X151971790Y-117478880D01*
X151965298Y-117491026D01*
X151953581Y-117505303D01*
X151695977Y-117762907D01*
X151681700Y-117774624D01*
X151669554Y-117781116D01*
X151649179Y-117794729D01*
X151631851Y-117812056D01*
X151618235Y-117832434D01*
X151611743Y-117844581D01*
X151600027Y-117858856D01*
X151342423Y-118116460D01*
X151328145Y-118128178D01*
X151315998Y-118134671D01*
X151295623Y-118148285D01*
X151278296Y-118165612D01*
X151264685Y-118185984D01*
X151258192Y-118198131D01*
X151246474Y-118212409D01*
X150988870Y-118470013D01*
X150974595Y-118481729D01*
X150962448Y-118488221D01*
X150942073Y-118501834D01*
X150924746Y-118519161D01*
X150911130Y-118539540D01*
X150904638Y-118551686D01*
X150892921Y-118565963D01*
X150635317Y-118823567D01*
X150621040Y-118835284D01*
X150608894Y-118841776D01*
X150588519Y-118855389D01*
X150571191Y-118872716D01*
X150557575Y-118893094D01*
X150551083Y-118905241D01*
X150539367Y-118919516D01*
X150281763Y-119177120D01*
X150267488Y-119188836D01*
X150255341Y-119195328D01*
X150234966Y-119208941D01*
X150217639Y-119226268D01*
X150204023Y-119246647D01*
X150197531Y-119258793D01*
X150185814Y-119273070D01*
X149928210Y-119530674D01*
X149913932Y-119542392D01*
X149901785Y-119548885D01*
X149881410Y-119562499D01*
X149864083Y-119579826D01*
X149850472Y-119600198D01*
X149843979Y-119612345D01*
X149832261Y-119626623D01*
X149574657Y-119884227D01*
X149560380Y-119895944D01*
X149548234Y-119902436D01*
X149527859Y-119916049D01*
X149510531Y-119933376D01*
X149496915Y-119953754D01*
X149490423Y-119965901D01*
X149478707Y-119980176D01*
X149221103Y-120237780D01*
X149206828Y-120249496D01*
X149194681Y-120255988D01*
X149174306Y-120269601D01*
X149156979Y-120286928D01*
X149143363Y-120307307D01*
X149136871Y-120319453D01*
X149125154Y-120333730D01*
X148867550Y-120591334D01*
X148853274Y-120603050D01*
X148842437Y-120608843D01*
X148830674Y-120612411D01*
X148818444Y-120613615D01*
X148806214Y-120612411D01*
X148794451Y-120608843D01*
X148783614Y-120603050D01*
X148769338Y-120591334D01*
X148411857Y-120233853D01*
X148392915Y-120218307D01*
X148371304Y-120206756D01*
X148347855Y-120199643D01*
X148323469Y-120197241D01*
X148299083Y-120199643D01*
X148275634Y-120206756D01*
X148254023Y-120218307D01*
X148235081Y-120233853D01*
X147877600Y-120591334D01*
X147863324Y-120603050D01*
X147852487Y-120608843D01*
X147840724Y-120612411D01*
X147828494Y-120613615D01*
X147816264Y-120612411D01*
X147804501Y-120608843D01*
X147793664Y-120603050D01*
X147779388Y-120591334D01*
X147521784Y-120333730D01*
X147510067Y-120319453D01*
X147503575Y-120307307D01*
X147489962Y-120286932D01*
X147472635Y-120269604D01*
X147452257Y-120255988D01*
X147440110Y-120249496D01*
X147425835Y-120237780D01*
X147168231Y-119980176D01*
X147156515Y-119965901D01*
X147150023Y-119953754D01*
X147136410Y-119933379D01*
X147119083Y-119916052D01*
X147098704Y-119902436D01*
X147086558Y-119895944D01*
X147072281Y-119884227D01*
X146814677Y-119626623D01*
X146802959Y-119612345D01*
X146796466Y-119600198D01*
X146782852Y-119579823D01*
X146765525Y-119562496D01*
X146745153Y-119548885D01*
X146733006Y-119542392D01*
X146718728Y-119530674D01*
X146461124Y-119273070D01*
X146449407Y-119258793D01*
X146442915Y-119246647D01*
X146429302Y-119226272D01*
X146411975Y-119208944D01*
X146391597Y-119195328D01*
X146379450Y-119188836D01*
X146365175Y-119177120D01*
X146107571Y-118919516D01*
X146095855Y-118905241D01*
X146089363Y-118893094D01*
X146075750Y-118872719D01*
X146058423Y-118855392D01*
X146038044Y-118841776D01*
X146025898Y-118835284D01*
X146011621Y-118823567D01*
X145754017Y-118565963D01*
X145742300Y-118551686D01*
X145735808Y-118539540D01*
X145722195Y-118519165D01*
X145704868Y-118501837D01*
X145684490Y-118488221D01*
X145672343Y-118481729D01*
X145658068Y-118470013D01*
X145400464Y-118212409D01*
X145388746Y-118198131D01*
X145382253Y-118185984D01*
X145368639Y-118165609D01*
X145351312Y-118148282D01*
X145330940Y-118134671D01*
X145318793Y-118128178D01*
X145304515Y-118116460D01*
X145046911Y-117858856D01*
X145035195Y-117844581D01*
X145028703Y-117832434D01*
X145015090Y-117812059D01*
X144997763Y-117794732D01*
X144977384Y-117781116D01*
X144965238Y-117774624D01*
X144950961Y-117762907D01*
X144693357Y-117505303D01*
X144681640Y-117491026D01*
X144675148Y-117478880D01*
X144661535Y-117458505D01*
X144644208Y-117441177D01*
X144623830Y-117427561D01*
X144611683Y-117421069D01*
X144597408Y-117409353D01*
X144339804Y-117151749D01*
X144328088Y-117137474D01*
X144321596Y-117125327D01*
X144307983Y-117104952D01*
X144290656Y-117087625D01*
X144270277Y-117074009D01*
X144258131Y-117067517D01*
X144243854Y-117055800D01*
X143986250Y-116798196D01*
X143974532Y-116783918D01*
X143968039Y-116771771D01*
X143954425Y-116751396D01*
X143937098Y-116734069D01*
X143916726Y-116720458D01*
X143904579Y-116713965D01*
X143890301Y-116702247D01*
X143632697Y-116444643D01*
X143620980Y-116430366D01*
X143614488Y-116418220D01*
X143600875Y-116397845D01*
X143583548Y-116380517D01*
X143563170Y-116366901D01*
X143551023Y-116360409D01*
X143536748Y-116348693D01*
X143279144Y-116091089D01*
X143267428Y-116076814D01*
X143260936Y-116064667D01*
X143247323Y-116044292D01*
X143229996Y-116026965D01*
X143209617Y-116013349D01*
X143197471Y-116006857D01*
X143183194Y-115995140D01*
X142925590Y-115737536D01*
X142913874Y-115723260D01*
X142908081Y-115712423D01*
X142904513Y-115700660D01*
X142903309Y-115688430D01*
X142904513Y-115676200D01*
X142908081Y-115664437D01*
X142913874Y-115653600D01*
X142925590Y-115639324D01*
X143283071Y-115281843D01*
X143298617Y-115262901D01*
X143310168Y-115241290D01*
X143317281Y-115217841D01*
X143319683Y-115193455D01*
X143569181Y-115193455D01*
X143571583Y-115217841D01*
X143578696Y-115241290D01*
X143590247Y-115262901D01*
X143605793Y-115281843D01*
X143751142Y-115427192D01*
X143762858Y-115441467D01*
X143769350Y-115453614D01*
X143782963Y-115473989D01*
X143800290Y-115491316D01*
X143820669Y-115504932D01*
X143832815Y-115511424D01*
X143847092Y-115523141D01*
X144104696Y-115780745D01*
X144116413Y-115795022D01*
X144122905Y-115807168D01*
X144136518Y-115827543D01*
X144153845Y-115844871D01*
X144174223Y-115858487D01*
X144186370Y-115864979D01*
X144200645Y-115876695D01*
X144458249Y-116134299D01*
X144469967Y-116148577D01*
X144476460Y-116160724D01*
X144490074Y-116181099D01*
X144507401Y-116198426D01*
X144527773Y-116212037D01*
X144539920Y-116218530D01*
X144554198Y-116230248D01*
X144811802Y-116487852D01*
X144823518Y-116502127D01*
X144830010Y-116514274D01*
X144843623Y-116534649D01*
X144860950Y-116551976D01*
X144881329Y-116565592D01*
X144893475Y-116572084D01*
X144907752Y-116583801D01*
X145165356Y-116841405D01*
X145177073Y-116855682D01*
X145183565Y-116867828D01*
X145197178Y-116888203D01*
X145214505Y-116905531D01*
X145234883Y-116919147D01*
X145247030Y-116925639D01*
X145261305Y-116937355D01*
X145518909Y-117194959D01*
X145530625Y-117209234D01*
X145537117Y-117221381D01*
X145550730Y-117241756D01*
X145568057Y-117259083D01*
X145588436Y-117272699D01*
X145600582Y-117279191D01*
X145614859Y-117290908D01*
X145872463Y-117548512D01*
X145884181Y-117562790D01*
X145890674Y-117574937D01*
X145904288Y-117595312D01*
X145921615Y-117612639D01*
X145941987Y-117626250D01*
X145954134Y-117632743D01*
X145968412Y-117644461D01*
X146226016Y-117902065D01*
X146237733Y-117916342D01*
X146244225Y-117928488D01*
X146257838Y-117948863D01*
X146275165Y-117966191D01*
X146295543Y-117979807D01*
X146307690Y-117986299D01*
X146321965Y-117998015D01*
X146579569Y-118255619D01*
X146591285Y-118269894D01*
X146597777Y-118282041D01*
X146611390Y-118302416D01*
X146628717Y-118319743D01*
X146649096Y-118333359D01*
X146661242Y-118339851D01*
X146675519Y-118351568D01*
X146933123Y-118609172D01*
X146944840Y-118623449D01*
X146951332Y-118635595D01*
X146964945Y-118655970D01*
X146982272Y-118673298D01*
X147002650Y-118686914D01*
X147014797Y-118693406D01*
X147029072Y-118705122D01*
X147286676Y-118962726D01*
X147298394Y-118977004D01*
X147304887Y-118989151D01*
X147318501Y-119009526D01*
X147335828Y-119026853D01*
X147356200Y-119040464D01*
X147368347Y-119046957D01*
X147382625Y-119058675D01*
X147640229Y-119316279D01*
X147651945Y-119330554D01*
X147658437Y-119342701D01*
X147672050Y-119363076D01*
X147689377Y-119380403D01*
X147709756Y-119394019D01*
X147721902Y-119400511D01*
X147736179Y-119412228D01*
X147993783Y-119669832D01*
X148005500Y-119684109D01*
X148011992Y-119696255D01*
X148025605Y-119716630D01*
X148042932Y-119733958D01*
X148063310Y-119747574D01*
X148075457Y-119754066D01*
X148089732Y-119765782D01*
X148235081Y-119911131D01*
X148254023Y-119926677D01*
X148275634Y-119938228D01*
X148299083Y-119945341D01*
X148323469Y-119947743D01*
X148347855Y-119945341D01*
X148371304Y-119938228D01*
X148392915Y-119926677D01*
X148411857Y-119911131D01*
X148557206Y-119765782D01*
X148571481Y-119754066D01*
X148583628Y-119747574D01*
X148604003Y-119733961D01*
X148621330Y-119716634D01*
X148634946Y-119696255D01*
X148641438Y-119684109D01*
X148653155Y-119669832D01*
X148910759Y-119412228D01*
X148925036Y-119400511D01*
X148937182Y-119394019D01*
X148957557Y-119380406D01*
X148974885Y-119363079D01*
X148988501Y-119342701D01*
X148994993Y-119330554D01*
X149006709Y-119316279D01*
X149264313Y-119058675D01*
X149278591Y-119046957D01*
X149290738Y-119040464D01*
X149311113Y-119026850D01*
X149328440Y-119009523D01*
X149342051Y-118989151D01*
X149348544Y-118977004D01*
X149360262Y-118962726D01*
X149617866Y-118705122D01*
X149632141Y-118693406D01*
X149644288Y-118686914D01*
X149664663Y-118673301D01*
X149681990Y-118655974D01*
X149695606Y-118635595D01*
X149702098Y-118623449D01*
X149713815Y-118609172D01*
X149971419Y-118351568D01*
X149985696Y-118339851D01*
X149997842Y-118333359D01*
X150018217Y-118319746D01*
X150035545Y-118302419D01*
X150049161Y-118282041D01*
X150055653Y-118269894D01*
X150067369Y-118255619D01*
X150324973Y-117998015D01*
X150339248Y-117986299D01*
X150351395Y-117979807D01*
X150371770Y-117966194D01*
X150389097Y-117948867D01*
X150402713Y-117928488D01*
X150409205Y-117916342D01*
X150420922Y-117902065D01*
X150678526Y-117644461D01*
X150692804Y-117632743D01*
X150704951Y-117626250D01*
X150725326Y-117612636D01*
X150742653Y-117595309D01*
X150756264Y-117574937D01*
X150762757Y-117562790D01*
X150774475Y-117548512D01*
X151032079Y-117290908D01*
X151046356Y-117279191D01*
X151058502Y-117272699D01*
X151078877Y-117259086D01*
X151096205Y-117241759D01*
X151109821Y-117221381D01*
X151116313Y-117209234D01*
X151128029Y-117194959D01*
X151385633Y-116937355D01*
X151399908Y-116925639D01*
X151412055Y-116919147D01*
X151432430Y-116905534D01*
X151449757Y-116888207D01*
X151463373Y-116867828D01*
X151469865Y-116855682D01*
X151481582Y-116841405D01*
X151739186Y-116583801D01*
X151753463Y-116572084D01*
X151765609Y-116565592D01*
X151785984Y-116551979D01*
X151803312Y-116534652D01*
X151816928Y-116514274D01*
X151823420Y-116502127D01*
X151835136Y-116487852D01*
X152092740Y-116230248D01*
X152107018Y-116218530D01*
X152119165Y-116212037D01*
X152139540Y-116198423D01*
X152156867Y-116181096D01*
X152170478Y-116160724D01*
X152176971Y-116148577D01*
X152188689Y-116134299D01*
X152446293Y-115876695D01*
X152460568Y-115864979D01*
X152472715Y-115858487D01*
X152493090Y-115844874D01*
X152510417Y-115827547D01*
X152524033Y-115807168D01*
X152530525Y-115795022D01*
X152542242Y-115780745D01*
X152799846Y-115523141D01*
X152814123Y-115511424D01*
X152826269Y-115504932D01*
X152846644Y-115491319D01*
X152863972Y-115473992D01*
X152877588Y-115453614D01*
X152884080Y-115441467D01*
X152895796Y-115427192D01*
X153041145Y-115281843D01*
X153056691Y-115262901D01*
X153068242Y-115241290D01*
X153075355Y-115217841D01*
X153077757Y-115193455D01*
X153075355Y-115169069D01*
X153068242Y-115145620D01*
X153056691Y-115124009D01*
X153041145Y-115105067D01*
X152895796Y-114959718D01*
X152884080Y-114945443D01*
X152877588Y-114933296D01*
X152863975Y-114912921D01*
X152846648Y-114895594D01*
X152826269Y-114881978D01*
X152814123Y-114875486D01*
X152799846Y-114863769D01*
X152542242Y-114606165D01*
X152530525Y-114591888D01*
X152524033Y-114579742D01*
X152510420Y-114559367D01*
X152493093Y-114542039D01*
X152472715Y-114528423D01*
X152460568Y-114521931D01*
X152446293Y-114510215D01*
X152188689Y-114252611D01*
X152176971Y-114238333D01*
X152170478Y-114226186D01*
X152156864Y-114205811D01*
X152139537Y-114188484D01*
X152119165Y-114174873D01*
X152107018Y-114168380D01*
X152092740Y-114156662D01*
X151835136Y-113899058D01*
X151823420Y-113884783D01*
X151816928Y-113872636D01*
X151803315Y-113852261D01*
X151785988Y-113834934D01*
X151765609Y-113821318D01*
X151753463Y-113814826D01*
X151739186Y-113803109D01*
X151481582Y-113545505D01*
X151469865Y-113531228D01*
X151463373Y-113519082D01*
X151449760Y-113498707D01*
X151432433Y-113481379D01*
X151412055Y-113467763D01*
X151399908Y-113461271D01*
X151385633Y-113449555D01*
X151128029Y-113191951D01*
X151116313Y-113177676D01*
X151109821Y-113165529D01*
X151096208Y-113145154D01*
X151078881Y-113127827D01*
X151058502Y-113114211D01*
X151046356Y-113107719D01*
X151032079Y-113096002D01*
X150774475Y-112838398D01*
X150762757Y-112824120D01*
X150756264Y-112811973D01*
X150742650Y-112791598D01*
X150725323Y-112774271D01*
X150704951Y-112760660D01*
X150692804Y-112754167D01*
X150678526Y-112742449D01*
X150420922Y-112484845D01*
X150409205Y-112470568D01*
X150402713Y-112458422D01*
X150389100Y-112438047D01*
X150371773Y-112420719D01*
X150351395Y-112407103D01*
X150339248Y-112400611D01*
X150324973Y-112388895D01*
X150067369Y-112131291D01*
X150055653Y-112117016D01*
X150049161Y-112104869D01*
X150035548Y-112084494D01*
X150018221Y-112067167D01*
X149997842Y-112053551D01*
X149985696Y-112047059D01*
X149971419Y-112035342D01*
X149713815Y-111777738D01*
X149702098Y-111763461D01*
X149695606Y-111751315D01*
X149681993Y-111730940D01*
X149664666Y-111713612D01*
X149644288Y-111699996D01*
X149632141Y-111693504D01*
X149617866Y-111681788D01*
X149360262Y-111424184D01*
X149348544Y-111409906D01*
X149342051Y-111397759D01*
X149328437Y-111377384D01*
X149311110Y-111360057D01*
X149290738Y-111346446D01*
X149278591Y-111339953D01*
X149264313Y-111328235D01*
X149006709Y-111070631D01*
X148994993Y-111056356D01*
X148988501Y-111044209D01*
X148974888Y-111023834D01*
X148957561Y-111006507D01*
X148937182Y-110992891D01*
X148925036Y-110986399D01*
X148910759Y-110974682D01*
X148653155Y-110717078D01*
X148641438Y-110702801D01*
X148634946Y-110690655D01*
X148621333Y-110670280D01*
X148604006Y-110652952D01*
X148583628Y-110639336D01*
X148571481Y-110632844D01*
X148557206Y-110621128D01*
X148411857Y-110475779D01*
X148392915Y-110460233D01*
X148371304Y-110448682D01*
X148347855Y-110441569D01*
X148323469Y-110439167D01*
X148299083Y-110441569D01*
X148275634Y-110448682D01*
X148254023Y-110460233D01*
X148235081Y-110475779D01*
X148089732Y-110621128D01*
X148075457Y-110632844D01*
X148063310Y-110639336D01*
X148042935Y-110652949D01*
X148025608Y-110670276D01*
X148011992Y-110690655D01*
X148005500Y-110702801D01*
X147993783Y-110717078D01*
X147736179Y-110974682D01*
X147721902Y-110986399D01*
X147709756Y-110992891D01*
X147689381Y-111006504D01*
X147672053Y-111023831D01*
X147658437Y-111044209D01*
X147651945Y-111056356D01*
X147640229Y-111070631D01*
X147382625Y-111328235D01*
X147368347Y-111339953D01*
X147356200Y-111346446D01*
X147335825Y-111360060D01*
X147318498Y-111377387D01*
X147304887Y-111397759D01*
X147298394Y-111409906D01*
X147286676Y-111424184D01*
X147029072Y-111681788D01*
X147014797Y-111693504D01*
X147002650Y-111699996D01*
X146982275Y-111713609D01*
X146964948Y-111730936D01*
X146951332Y-111751315D01*
X146944840Y-111763461D01*
X146933123Y-111777738D01*
X146675519Y-112035342D01*
X146661242Y-112047059D01*
X146649096Y-112053551D01*
X146628721Y-112067164D01*
X146611393Y-112084491D01*
X146597777Y-112104869D01*
X146591285Y-112117016D01*
X146579569Y-112131291D01*
X146321965Y-112388895D01*
X146307690Y-112400611D01*
X146295543Y-112407103D01*
X146275168Y-112420716D01*
X146257841Y-112438043D01*
X146244225Y-112458422D01*
X146237733Y-112470568D01*
X146226016Y-112484845D01*
X145968412Y-112742449D01*
X145954134Y-112754167D01*
X145941987Y-112760660D01*
X145921612Y-112774274D01*
X145904285Y-112791601D01*
X145890674Y-112811973D01*
X145884181Y-112824120D01*
X145872463Y-112838398D01*
X145614859Y-113096002D01*
X145600582Y-113107719D01*
X145588436Y-113114211D01*
X145568061Y-113127824D01*
X145550733Y-113145151D01*
X145537117Y-113165529D01*
X145530625Y-113177676D01*
X145518909Y-113191951D01*
X145261305Y-113449555D01*
X145247030Y-113461271D01*
X145234883Y-113467763D01*
X145214508Y-113481376D01*
X145197181Y-113498703D01*
X145183565Y-113519082D01*
X145177073Y-113531228D01*
X145165356Y-113545505D01*
X144907752Y-113803109D01*
X144893475Y-113814826D01*
X144881329Y-113821318D01*
X144860954Y-113834931D01*
X144843626Y-113852258D01*
X144830010Y-113872636D01*
X144823518Y-113884783D01*
X144811802Y-113899058D01*
X144554198Y-114156662D01*
X144539920Y-114168380D01*
X144527773Y-114174873D01*
X144507398Y-114188487D01*
X144490071Y-114205814D01*
X144476460Y-114226186D01*
X144469967Y-114238333D01*
X144458249Y-114252611D01*
X144200645Y-114510215D01*
X144186370Y-114521931D01*
X144174223Y-114528423D01*
X144153848Y-114542036D01*
X144136521Y-114559363D01*
X144122905Y-114579742D01*
X144116413Y-114591888D01*
X144104696Y-114606165D01*
X143847092Y-114863769D01*
X143832815Y-114875486D01*
X143820669Y-114881978D01*
X143800294Y-114895591D01*
X143782966Y-114912918D01*
X143769350Y-114933296D01*
X143762858Y-114945443D01*
X143751142Y-114959718D01*
X143605793Y-115105067D01*
X143590247Y-115124009D01*
X143578696Y-115145620D01*
X143571583Y-115169069D01*
X143569181Y-115193455D01*
X143319683Y-115193455D01*
X143317281Y-115169069D01*
X143310168Y-115145620D01*
X143298617Y-115124009D01*
X143283071Y-115105067D01*
X142925590Y-114747586D01*
X142913874Y-114733310D01*
X142908081Y-114722473D01*
X142904513Y-114710710D01*
X142903309Y-114698480D01*
X142904513Y-114686250D01*
X142908081Y-114674487D01*
X142913874Y-114663650D01*
X142925590Y-114649374D01*
X143183194Y-114391770D01*
X143197471Y-114380053D01*
X143209617Y-114373561D01*
X143229992Y-114359948D01*
X143247320Y-114342621D01*
X143260936Y-114322243D01*
X143267428Y-114310096D01*
X143279144Y-114295821D01*
X143536748Y-114038217D01*
X143551023Y-114026501D01*
X143563170Y-114020009D01*
X143583545Y-114006396D01*
X143600872Y-113989069D01*
X143614488Y-113968690D01*
X143620980Y-113956544D01*
X143632697Y-113942267D01*
X143890301Y-113684663D01*
X143904579Y-113672945D01*
X143916726Y-113666452D01*
X143937101Y-113652838D01*
X143954428Y-113635511D01*
X143968039Y-113615139D01*
X143974532Y-113602992D01*
X143986250Y-113588714D01*
X144243854Y-113331110D01*
X144258131Y-113319393D01*
X144270277Y-113312901D01*
X144290652Y-113299288D01*
X144307980Y-113281961D01*
X144321596Y-113261583D01*
X144328088Y-113249436D01*
X144339804Y-113235161D01*
X144597408Y-112977557D01*
X144611683Y-112965841D01*
X144623830Y-112959349D01*
X144644205Y-112945736D01*
X144661532Y-112928409D01*
X144675148Y-112908030D01*
X144681640Y-112895884D01*
X144693357Y-112881607D01*
X144950961Y-112624003D01*
X144965238Y-112612286D01*
X144977384Y-112605794D01*
X144997759Y-112592181D01*
X145015087Y-112574854D01*
X145028703Y-112554476D01*
X145035195Y-112542329D01*
X145046911Y-112528054D01*
X145304515Y-112270450D01*
X145318793Y-112258732D01*
X145330940Y-112252239D01*
X145351315Y-112238625D01*
X145368642Y-112221298D01*
X145382253Y-112200926D01*
X145388746Y-112188779D01*
X145400464Y-112174501D01*
X145658068Y-111916897D01*
X145672343Y-111905181D01*
X145684490Y-111898689D01*
X145704865Y-111885076D01*
X145722192Y-111867749D01*
X145735808Y-111847370D01*
X145742300Y-111835224D01*
X145754017Y-111820947D01*
X146011621Y-111563343D01*
X146025898Y-111551626D01*
X146038044Y-111545134D01*
X146058419Y-111531521D01*
X146075747Y-111514194D01*
X146089363Y-111493816D01*
X146095855Y-111481669D01*
X146107571Y-111467394D01*
X146365175Y-111209790D01*
X146379450Y-111198074D01*
X146391597Y-111191582D01*
X146411972Y-111177969D01*
X146429299Y-111160642D01*
X146442915Y-111140263D01*
X146449407Y-111128117D01*
X146461124Y-111113840D01*
X146718728Y-110856236D01*
X146733006Y-110844518D01*
X146745153Y-110838025D01*
X146765528Y-110824411D01*
X146782855Y-110807084D01*
X146796466Y-110786712D01*
X146802959Y-110774565D01*
X146814677Y-110760287D01*
X147072281Y-110502683D01*
X147086558Y-110490966D01*
X147098704Y-110484474D01*
X147119079Y-110470861D01*
X147136407Y-110453534D01*
X147150023Y-110433156D01*
X147156515Y-110421009D01*
X147168231Y-110406734D01*
X147425835Y-110149130D01*
X147440110Y-110137414D01*
X147452257Y-110130922D01*
X147472632Y-110117309D01*
X147489959Y-110099982D01*
X147503575Y-110079603D01*
X147510067Y-110067457D01*
X147521784Y-110053180D01*
X147779388Y-109795576D01*
X147793664Y-109783860D01*
X147804501Y-109778067D01*
X147816264Y-109774499D01*
X147828494Y-109773295D01*
X147840724Y-109774499D01*
X147852487Y-109778067D01*
X147863324Y-109783860D01*
X147877600Y-109795576D01*
X148235081Y-110153057D01*
X148254023Y-110168603D01*
X148275634Y-110180154D01*
X148299083Y-110187267D01*
X148323469Y-110189669D01*
X148347855Y-110187267D01*
X148371304Y-110180154D01*
X148392915Y-110168603D01*
X148411857Y-110153057D01*
X148769338Y-109795576D01*
X148783614Y-109783860D01*
X148794451Y-109778067D01*
X148806214Y-109774499D01*
X148818444Y-109773295D01*
X148830674Y-109774499D01*
X148830674Y-109774499D01*
G37*
G36*
X148342403Y-112264265D02*
X148360609Y-112269788D01*
X148377388Y-112278757D01*
X148396873Y-112294748D01*
X148472069Y-112369944D01*
X148472075Y-112369949D01*
X151146975Y-115044849D01*
X151146980Y-115044855D01*
X151222176Y-115120051D01*
X151238167Y-115139536D01*
X151247136Y-115156315D01*
X151252659Y-115174521D01*
X151254523Y-115193455D01*
X151252659Y-115212389D01*
X151247136Y-115230595D01*
X151238167Y-115247374D01*
X151222176Y-115266859D01*
X151146980Y-115342055D01*
X151146975Y-115342061D01*
X148472075Y-118016961D01*
X148472069Y-118016966D01*
X148396873Y-118092162D01*
X148377388Y-118108153D01*
X148360609Y-118117122D01*
X148342403Y-118122645D01*
X148323469Y-118124509D01*
X148304535Y-118122645D01*
X148286329Y-118117122D01*
X148269550Y-118108153D01*
X148250065Y-118092162D01*
X148174869Y-118016966D01*
X148174863Y-118016961D01*
X145499963Y-115342061D01*
X145499958Y-115342055D01*
X145424762Y-115266859D01*
X145408771Y-115247374D01*
X145399802Y-115230595D01*
X145394279Y-115212389D01*
X145392415Y-115193455D01*
X145394279Y-115174521D01*
X145399802Y-115156315D01*
X145408771Y-115139536D01*
X145424762Y-115120051D01*
X145499958Y-115044855D01*
X145499963Y-115044849D01*
X148174863Y-112369949D01*
X148174869Y-112369944D01*
X148250065Y-112294748D01*
X148269550Y-112278757D01*
X148286329Y-112269788D01*
X148304535Y-112264265D01*
X148323469Y-112262401D01*
X148342403Y-112264265D01*
X148342403Y-112264265D01*
G37*
G36*
X142111591Y-118895585D02*
X142145569Y-118905893D01*
X142176887Y-118922633D01*
X142204339Y-118945161D01*
X142226867Y-118972613D01*
X142243607Y-119003931D01*
X142253915Y-119037909D01*
X142258000Y-119079390D01*
X142258000Y-119680610D01*
X142253915Y-119722091D01*
X142243607Y-119756069D01*
X142226867Y-119787387D01*
X142204339Y-119814839D01*
X142176887Y-119837367D01*
X142145569Y-119854107D01*
X142111591Y-119864415D01*
X142070110Y-119868500D01*
X141393890Y-119868500D01*
X141352409Y-119864415D01*
X141318431Y-119854107D01*
X141287113Y-119837367D01*
X141259661Y-119814839D01*
X141237133Y-119787387D01*
X141220393Y-119756069D01*
X141210085Y-119722091D01*
X141206000Y-119680610D01*
X141206000Y-119079390D01*
X141210085Y-119037909D01*
X141220393Y-119003931D01*
X141237133Y-118972613D01*
X141259661Y-118945161D01*
X141287113Y-118922633D01*
X141318431Y-118905893D01*
X141352409Y-118895585D01*
X141393890Y-118891500D01*
X142070110Y-118891500D01*
X142111591Y-118895585D01*
X142111591Y-118895585D01*
G37*
G36*
X138616642Y-117850518D02*
X138682827Y-117857037D01*
X138796053Y-117891384D01*
X138852667Y-117908557D01*
X138978305Y-117975713D01*
X139009191Y-117992222D01*
X139031576Y-118010593D01*
X139146386Y-118104814D01*
X139222968Y-118198131D01*
X139258978Y-118242009D01*
X139258979Y-118242011D01*
X139342643Y-118398533D01*
X139342643Y-118398534D01*
X139394163Y-118568373D01*
X139411559Y-118745000D01*
X139394163Y-118921627D01*
X139374244Y-118987290D01*
X139342643Y-119091467D01*
X139296860Y-119177120D01*
X139258978Y-119247991D01*
X139258555Y-119248506D01*
X139146386Y-119385186D01*
X139046233Y-119467378D01*
X139009191Y-119497778D01*
X139009189Y-119497779D01*
X138852667Y-119581443D01*
X138796053Y-119598616D01*
X138682827Y-119632963D01*
X138616643Y-119639481D01*
X138550460Y-119646000D01*
X138461940Y-119646000D01*
X138395757Y-119639481D01*
X138329573Y-119632963D01*
X138216347Y-119598616D01*
X138159733Y-119581443D01*
X138003211Y-119497779D01*
X138003209Y-119497778D01*
X137966167Y-119467378D01*
X137866014Y-119385186D01*
X137753845Y-119248506D01*
X137753422Y-119247991D01*
X137715540Y-119177120D01*
X137669757Y-119091467D01*
X137638156Y-118987290D01*
X137618237Y-118921627D01*
X137600841Y-118745000D01*
X137618237Y-118568373D01*
X137669757Y-118398534D01*
X137669757Y-118398533D01*
X137753421Y-118242011D01*
X137753422Y-118242009D01*
X137789432Y-118198131D01*
X137866014Y-118104814D01*
X137980824Y-118010593D01*
X138003209Y-117992222D01*
X138034095Y-117975713D01*
X138159733Y-117908557D01*
X138216347Y-117891384D01*
X138329573Y-117857037D01*
X138395758Y-117850518D01*
X138461940Y-117844000D01*
X138550460Y-117844000D01*
X138616642Y-117850518D01*
X138616642Y-117850518D01*
G37*
G36*
X158555543Y-117820119D02*
X158621727Y-117826637D01*
X158724761Y-117857892D01*
X158791567Y-117878157D01*
X158863005Y-117916342D01*
X158948091Y-117961822D01*
X158977916Y-117986299D01*
X159085286Y-118074414D01*
X159145907Y-118148282D01*
X159197878Y-118211609D01*
X159197879Y-118211611D01*
X159281543Y-118368133D01*
X159290765Y-118398534D01*
X159333063Y-118537973D01*
X159350459Y-118714600D01*
X159333063Y-118891227D01*
X159308375Y-118972613D01*
X159281543Y-119061067D01*
X159222407Y-119171701D01*
X159197878Y-119217591D01*
X159168548Y-119253329D01*
X159085286Y-119354786D01*
X158999965Y-119424806D01*
X158948091Y-119467378D01*
X158948089Y-119467379D01*
X158791567Y-119551043D01*
X158753801Y-119562499D01*
X158621727Y-119602563D01*
X158555543Y-119609081D01*
X158489360Y-119615600D01*
X158400840Y-119615600D01*
X158334657Y-119609081D01*
X158268473Y-119602563D01*
X158136399Y-119562499D01*
X158098633Y-119551043D01*
X157942111Y-119467379D01*
X157942109Y-119467378D01*
X157890235Y-119424806D01*
X157804914Y-119354786D01*
X157721652Y-119253329D01*
X157692322Y-119217591D01*
X157667793Y-119171701D01*
X157608657Y-119061067D01*
X157581825Y-118972613D01*
X157557137Y-118891227D01*
X157539741Y-118714600D01*
X157557137Y-118537973D01*
X157599435Y-118398534D01*
X157608657Y-118368133D01*
X157692321Y-118211611D01*
X157692322Y-118211609D01*
X157744293Y-118148282D01*
X157804914Y-118074414D01*
X157912284Y-117986299D01*
X157942109Y-117961822D01*
X158027195Y-117916342D01*
X158098633Y-117878157D01*
X158165439Y-117857892D01*
X158268473Y-117826637D01*
X158334657Y-117820119D01*
X158400840Y-117813600D01*
X158489360Y-117813600D01*
X158555543Y-117820119D01*
X158555543Y-117820119D01*
G37*
G36*
X142111591Y-117320585D02*
X142145569Y-117330893D01*
X142176887Y-117347633D01*
X142204339Y-117370161D01*
X142226867Y-117397613D01*
X142243607Y-117428931D01*
X142253915Y-117462909D01*
X142258000Y-117504390D01*
X142258000Y-118105610D01*
X142253915Y-118147091D01*
X142243607Y-118181069D01*
X142226867Y-118212387D01*
X142204339Y-118239839D01*
X142176887Y-118262367D01*
X142145569Y-118279107D01*
X142111591Y-118289415D01*
X142070110Y-118293500D01*
X141393890Y-118293500D01*
X141352409Y-118289415D01*
X141318431Y-118279107D01*
X141287113Y-118262367D01*
X141259661Y-118239839D01*
X141237133Y-118212387D01*
X141220393Y-118181069D01*
X141210085Y-118147091D01*
X141206000Y-118105610D01*
X141206000Y-117504390D01*
X141210085Y-117462909D01*
X141220393Y-117428931D01*
X141237133Y-117397613D01*
X141259661Y-117370161D01*
X141287113Y-117347633D01*
X141318431Y-117330893D01*
X141352409Y-117320585D01*
X141393890Y-117316500D01*
X142070110Y-117316500D01*
X142111591Y-117320585D01*
X142111591Y-117320585D01*
G37*
G36*
X138613551Y-115310214D02*
X138682827Y-115317037D01*
X138752450Y-115338157D01*
X138852667Y-115368557D01*
X138887814Y-115387344D01*
X139009191Y-115452222D01*
X139038527Y-115476298D01*
X139146386Y-115564814D01*
X139227693Y-115663888D01*
X139258978Y-115702009D01*
X139258979Y-115702011D01*
X139342643Y-115858533D01*
X139342643Y-115858534D01*
X139394163Y-116028373D01*
X139411559Y-116205000D01*
X139394163Y-116381627D01*
X139375047Y-116444643D01*
X139342643Y-116551467D01*
X139284557Y-116660136D01*
X139258978Y-116707991D01*
X139245390Y-116724548D01*
X139146386Y-116845186D01*
X139056263Y-116919147D01*
X139009191Y-116957778D01*
X139009189Y-116957779D01*
X138852667Y-117041443D01*
X138805337Y-117055800D01*
X138682827Y-117092963D01*
X138616643Y-117099481D01*
X138550460Y-117106000D01*
X138461940Y-117106000D01*
X138395757Y-117099481D01*
X138329573Y-117092963D01*
X138207063Y-117055800D01*
X138159733Y-117041443D01*
X138003211Y-116957779D01*
X138003209Y-116957778D01*
X137956137Y-116919147D01*
X137866014Y-116845186D01*
X137767010Y-116724548D01*
X137753422Y-116707991D01*
X137727843Y-116660136D01*
X137669757Y-116551467D01*
X137637353Y-116444643D01*
X137618237Y-116381627D01*
X137600841Y-116205000D01*
X137618237Y-116028373D01*
X137669757Y-115858534D01*
X137669757Y-115858533D01*
X137753421Y-115702011D01*
X137753422Y-115702009D01*
X137784707Y-115663888D01*
X137866014Y-115564814D01*
X137973873Y-115476298D01*
X138003209Y-115452222D01*
X138124586Y-115387344D01*
X138159733Y-115368557D01*
X138259950Y-115338157D01*
X138329573Y-115317037D01*
X138398849Y-115310214D01*
X138461940Y-115304000D01*
X138550460Y-115304000D01*
X138613551Y-115310214D01*
X138613551Y-115310214D01*
G37*
G36*
X158555543Y-115280119D02*
X158621727Y-115286637D01*
X158734953Y-115320984D01*
X158791567Y-115338157D01*
X158883588Y-115387344D01*
X158948091Y-115421822D01*
X158972028Y-115441467D01*
X159085286Y-115534414D01*
X159168548Y-115635871D01*
X159197878Y-115671609D01*
X159197879Y-115671611D01*
X159281543Y-115828133D01*
X159290765Y-115858534D01*
X159333063Y-115997973D01*
X159350459Y-116174600D01*
X159333063Y-116351227D01*
X159310652Y-116425107D01*
X159281543Y-116521067D01*
X159226711Y-116623649D01*
X159197878Y-116677591D01*
X159182090Y-116696828D01*
X159085286Y-116814786D01*
X158995826Y-116888203D01*
X158948091Y-116927378D01*
X158948089Y-116927379D01*
X158791567Y-117011043D01*
X158734953Y-117028216D01*
X158621727Y-117062563D01*
X158571427Y-117067517D01*
X158489360Y-117075600D01*
X158400840Y-117075600D01*
X158318773Y-117067517D01*
X158268473Y-117062563D01*
X158155247Y-117028216D01*
X158098633Y-117011043D01*
X157942111Y-116927379D01*
X157942109Y-116927378D01*
X157894374Y-116888203D01*
X157804914Y-116814786D01*
X157708110Y-116696828D01*
X157692322Y-116677591D01*
X157663489Y-116623649D01*
X157608657Y-116521067D01*
X157579548Y-116425107D01*
X157557137Y-116351227D01*
X157539741Y-116174600D01*
X157557137Y-115997973D01*
X157599435Y-115858534D01*
X157608657Y-115828133D01*
X157692321Y-115671611D01*
X157692322Y-115671609D01*
X157721652Y-115635871D01*
X157804914Y-115534414D01*
X157918172Y-115441467D01*
X157942109Y-115421822D01*
X158006612Y-115387344D01*
X158098633Y-115338157D01*
X158155247Y-115320984D01*
X158268473Y-115286637D01*
X158334657Y-115280119D01*
X158400840Y-115273600D01*
X158489360Y-115273600D01*
X158555543Y-115280119D01*
X158555543Y-115280119D01*
G37*
G36*
X141730591Y-115466585D02*
X141764569Y-115476893D01*
X141795887Y-115493633D01*
X141823339Y-115516161D01*
X141845867Y-115543613D01*
X141862607Y-115574931D01*
X141872915Y-115608909D01*
X141877000Y-115650390D01*
X141877000Y-116251610D01*
X141872915Y-116293091D01*
X141862607Y-116327069D01*
X141845867Y-116358387D01*
X141823339Y-116385839D01*
X141795887Y-116408367D01*
X141764569Y-116425107D01*
X141730591Y-116435415D01*
X141689110Y-116439500D01*
X141012890Y-116439500D01*
X140971409Y-116435415D01*
X140937431Y-116425107D01*
X140906113Y-116408367D01*
X140878661Y-116385839D01*
X140856133Y-116358387D01*
X140839393Y-116327069D01*
X140829085Y-116293091D01*
X140825000Y-116251610D01*
X140825000Y-115650390D01*
X140829085Y-115608909D01*
X140839393Y-115574931D01*
X140856133Y-115543613D01*
X140878661Y-115516161D01*
X140906113Y-115493633D01*
X140937431Y-115476893D01*
X140971409Y-115466585D01*
X141012890Y-115462500D01*
X141689110Y-115462500D01*
X141730591Y-115466585D01*
X141730591Y-115466585D01*
G37*
G36*
X141730591Y-113891585D02*
X141764569Y-113901893D01*
X141795887Y-113918633D01*
X141823339Y-113941161D01*
X141845867Y-113968613D01*
X141862607Y-113999931D01*
X141872915Y-114033909D01*
X141877000Y-114075390D01*
X141877000Y-114676610D01*
X141872915Y-114718091D01*
X141862607Y-114752069D01*
X141845867Y-114783387D01*
X141823339Y-114810839D01*
X141795887Y-114833367D01*
X141764569Y-114850107D01*
X141730591Y-114860415D01*
X141689110Y-114864500D01*
X141012890Y-114864500D01*
X140971409Y-114860415D01*
X140937431Y-114850107D01*
X140906113Y-114833367D01*
X140878661Y-114810839D01*
X140856133Y-114783387D01*
X140839393Y-114752069D01*
X140829085Y-114718091D01*
X140825000Y-114676610D01*
X140825000Y-114075390D01*
X140829085Y-114033909D01*
X140839393Y-113999931D01*
X140856133Y-113968613D01*
X140878661Y-113941161D01*
X140906113Y-113918633D01*
X140937431Y-113901893D01*
X140971409Y-113891585D01*
X141012890Y-113887500D01*
X141689110Y-113887500D01*
X141730591Y-113891585D01*
X141730591Y-113891585D01*
G37*
G36*
X138616642Y-112770518D02*
X138682827Y-112777037D01*
X138752450Y-112798157D01*
X138852667Y-112828557D01*
X138978625Y-112895884D01*
X139009191Y-112912222D01*
X139031722Y-112930713D01*
X139146386Y-113024814D01*
X139214423Y-113107719D01*
X139258978Y-113162009D01*
X139258979Y-113162011D01*
X139342643Y-113318533D01*
X139353800Y-113355313D01*
X139394163Y-113488373D01*
X139411559Y-113665000D01*
X139394163Y-113841627D01*
X139370436Y-113919843D01*
X139342643Y-114011467D01*
X139286333Y-114116814D01*
X139258978Y-114167991D01*
X139242157Y-114188487D01*
X139146386Y-114305186D01*
X139055159Y-114380053D01*
X139009191Y-114417778D01*
X139009189Y-114417779D01*
X138852667Y-114501443D01*
X138823749Y-114510215D01*
X138682827Y-114552963D01*
X138617846Y-114559363D01*
X138550460Y-114566000D01*
X138461940Y-114566000D01*
X138394554Y-114559363D01*
X138329573Y-114552963D01*
X138188651Y-114510215D01*
X138159733Y-114501443D01*
X138003211Y-114417779D01*
X138003209Y-114417778D01*
X137957241Y-114380053D01*
X137866014Y-114305186D01*
X137770243Y-114188487D01*
X137753422Y-114167991D01*
X137726067Y-114116814D01*
X137669757Y-114011467D01*
X137641964Y-113919843D01*
X137618237Y-113841627D01*
X137600841Y-113665000D01*
X137618237Y-113488373D01*
X137658600Y-113355313D01*
X137669757Y-113318533D01*
X137753421Y-113162011D01*
X137753422Y-113162009D01*
X137797977Y-113107719D01*
X137866014Y-113024814D01*
X137980678Y-112930713D01*
X138003209Y-112912222D01*
X138033775Y-112895884D01*
X138159733Y-112828557D01*
X138259950Y-112798157D01*
X138329573Y-112777037D01*
X138395758Y-112770518D01*
X138461940Y-112764000D01*
X138550460Y-112764000D01*
X138616642Y-112770518D01*
X138616642Y-112770518D01*
G37*
G36*
X158548725Y-112739447D02*
X158621727Y-112746637D01*
X158734953Y-112780984D01*
X158791567Y-112798157D01*
X158865048Y-112837434D01*
X158948091Y-112881822D01*
X158965225Y-112895884D01*
X159085286Y-112994414D01*
X159164209Y-113090583D01*
X159197878Y-113131609D01*
X159197879Y-113131611D01*
X159281543Y-113288133D01*
X159290765Y-113318534D01*
X159333063Y-113457973D01*
X159350459Y-113634600D01*
X159333063Y-113811227D01*
X159323841Y-113841627D01*
X159281543Y-113981067D01*
X159226470Y-114084099D01*
X159197878Y-114137591D01*
X159172931Y-114167989D01*
X159085286Y-114274786D01*
X158983829Y-114358048D01*
X158948091Y-114387378D01*
X158948089Y-114387379D01*
X158791567Y-114471043D01*
X158742220Y-114486012D01*
X158621727Y-114522563D01*
X158562228Y-114528423D01*
X158489360Y-114535600D01*
X158400840Y-114535600D01*
X158327972Y-114528423D01*
X158268473Y-114522563D01*
X158147980Y-114486012D01*
X158098633Y-114471043D01*
X157942111Y-114387379D01*
X157942109Y-114387378D01*
X157906371Y-114358048D01*
X157804914Y-114274786D01*
X157717269Y-114167989D01*
X157692322Y-114137591D01*
X157663730Y-114084099D01*
X157608657Y-113981067D01*
X157566359Y-113841627D01*
X157557137Y-113811227D01*
X157539741Y-113634600D01*
X157557137Y-113457973D01*
X157599435Y-113318534D01*
X157608657Y-113288133D01*
X157692321Y-113131611D01*
X157692322Y-113131609D01*
X157725991Y-113090583D01*
X157804914Y-112994414D01*
X157924975Y-112895884D01*
X157942109Y-112881822D01*
X158025152Y-112837434D01*
X158098633Y-112798157D01*
X158155247Y-112780984D01*
X158268473Y-112746637D01*
X158341475Y-112739447D01*
X158400840Y-112733600D01*
X158489360Y-112733600D01*
X158548725Y-112739447D01*
X158548725Y-112739447D01*
G37*
G36*
X138616643Y-110230519D02*
X138682827Y-110237037D01*
X138752450Y-110258157D01*
X138852667Y-110288557D01*
X138946963Y-110338960D01*
X139009191Y-110372222D01*
X139025917Y-110385949D01*
X139146386Y-110484814D01*
X139223696Y-110579018D01*
X139258978Y-110622009D01*
X139258979Y-110622011D01*
X139342643Y-110778533D01*
X139352004Y-110809393D01*
X139394163Y-110948373D01*
X139411559Y-111125000D01*
X139394163Y-111301627D01*
X139371882Y-111375078D01*
X139342643Y-111471467D01*
X139275228Y-111597589D01*
X139258978Y-111627991D01*
X139247530Y-111641940D01*
X139146386Y-111765186D01*
X139077265Y-111821911D01*
X139009191Y-111877778D01*
X138991287Y-111887348D01*
X138852667Y-111961443D01*
X138796053Y-111978616D01*
X138682827Y-112012963D01*
X138616642Y-112019482D01*
X138550460Y-112026000D01*
X138461940Y-112026000D01*
X138395758Y-112019482D01*
X138329573Y-112012963D01*
X138216347Y-111978616D01*
X138159733Y-111961443D01*
X138021113Y-111887348D01*
X138003209Y-111877778D01*
X137935135Y-111821911D01*
X137866014Y-111765186D01*
X137764870Y-111641940D01*
X137753422Y-111627991D01*
X137737172Y-111597589D01*
X137669757Y-111471467D01*
X137640518Y-111375078D01*
X137618237Y-111301627D01*
X137600841Y-111125000D01*
X137618237Y-110948373D01*
X137660396Y-110809393D01*
X137669757Y-110778533D01*
X137753421Y-110622011D01*
X137753422Y-110622009D01*
X137788704Y-110579018D01*
X137866014Y-110484814D01*
X137986483Y-110385949D01*
X138003209Y-110372222D01*
X138065437Y-110338960D01*
X138159733Y-110288557D01*
X138259950Y-110258157D01*
X138329573Y-110237037D01*
X138395757Y-110230519D01*
X138461940Y-110224000D01*
X138550460Y-110224000D01*
X138616643Y-110230519D01*
X138616643Y-110230519D01*
G37*
G36*
X158555542Y-110200118D02*
X158621727Y-110206637D01*
X158734953Y-110240984D01*
X158791567Y-110258157D01*
X158850908Y-110289876D01*
X158948091Y-110341822D01*
X158973360Y-110362560D01*
X159085286Y-110454414D01*
X159158806Y-110544000D01*
X159197878Y-110591609D01*
X159197879Y-110591611D01*
X159281543Y-110748133D01*
X159298716Y-110804747D01*
X159333063Y-110917973D01*
X159350459Y-111094600D01*
X159333063Y-111271227D01*
X159309005Y-111350536D01*
X159281543Y-111441067D01*
X159213288Y-111568762D01*
X159197878Y-111597591D01*
X159172931Y-111627989D01*
X159085286Y-111734786D01*
X158984392Y-111817586D01*
X158948091Y-111847378D01*
X158948089Y-111847379D01*
X158791567Y-111931043D01*
X158734953Y-111948216D01*
X158621727Y-111982563D01*
X158555543Y-111989081D01*
X158489360Y-111995600D01*
X158400840Y-111995600D01*
X158334657Y-111989081D01*
X158268473Y-111982563D01*
X158155247Y-111948216D01*
X158098633Y-111931043D01*
X157942111Y-111847379D01*
X157942109Y-111847378D01*
X157905808Y-111817586D01*
X157804914Y-111734786D01*
X157717269Y-111627989D01*
X157692322Y-111597591D01*
X157676912Y-111568762D01*
X157608657Y-111441067D01*
X157581195Y-111350536D01*
X157557137Y-111271227D01*
X157539741Y-111094600D01*
X157557137Y-110917973D01*
X157591484Y-110804747D01*
X157608657Y-110748133D01*
X157692321Y-110591611D01*
X157692322Y-110591609D01*
X157731394Y-110544000D01*
X157804914Y-110454414D01*
X157916840Y-110362560D01*
X157942109Y-110341822D01*
X158039292Y-110289876D01*
X158098633Y-110258157D01*
X158155247Y-110240984D01*
X158268473Y-110206637D01*
X158334658Y-110200118D01*
X158400840Y-110193600D01*
X158489360Y-110193600D01*
X158555542Y-110200118D01*
X158555542Y-110200118D01*
G37*
G36*
X156068000Y-110544000D02*
X154066000Y-110544000D01*
X154066000Y-110042000D01*
X156068000Y-110042000D01*
X156068000Y-110544000D01*
X156068000Y-110544000D01*
G37*
G36*
X138616643Y-107690519D02*
X138682827Y-107697037D01*
X138752450Y-107718157D01*
X138852667Y-107748557D01*
X138952315Y-107801821D01*
X139009191Y-107832222D01*
X139026692Y-107846585D01*
X139146386Y-107944814D01*
X139229648Y-108046271D01*
X139258978Y-108082009D01*
X139258979Y-108082011D01*
X139342643Y-108238533D01*
X139342643Y-108238534D01*
X139394163Y-108408373D01*
X139411559Y-108585000D01*
X139394163Y-108761627D01*
X139376607Y-108819500D01*
X139342643Y-108931467D01*
X139275228Y-109057589D01*
X139258978Y-109087991D01*
X139229648Y-109123729D01*
X139146386Y-109225186D01*
X139046233Y-109307378D01*
X139009191Y-109337778D01*
X139009189Y-109337779D01*
X138852667Y-109421443D01*
X138796053Y-109438616D01*
X138682827Y-109472963D01*
X138616642Y-109479482D01*
X138550460Y-109486000D01*
X138461940Y-109486000D01*
X138395758Y-109479482D01*
X138329573Y-109472963D01*
X138216347Y-109438616D01*
X138159733Y-109421443D01*
X138003211Y-109337779D01*
X138003209Y-109337778D01*
X137966167Y-109307378D01*
X137866014Y-109225186D01*
X137782752Y-109123729D01*
X137753422Y-109087991D01*
X137737172Y-109057589D01*
X137669757Y-108931467D01*
X137635793Y-108819500D01*
X137618237Y-108761627D01*
X137600841Y-108585000D01*
X137618237Y-108408373D01*
X137669757Y-108238534D01*
X137669757Y-108238533D01*
X137753421Y-108082011D01*
X137753422Y-108082009D01*
X137782752Y-108046271D01*
X137866014Y-107944814D01*
X137985708Y-107846585D01*
X138003209Y-107832222D01*
X138060085Y-107801821D01*
X138159733Y-107748557D01*
X138259950Y-107718157D01*
X138329573Y-107697037D01*
X138395757Y-107690519D01*
X138461940Y-107684000D01*
X138550460Y-107684000D01*
X138616643Y-107690519D01*
X138616643Y-107690519D01*
G37*
G36*
X158555542Y-107660118D02*
X158621727Y-107666637D01*
X158734953Y-107700984D01*
X158791567Y-107718157D01*
X158930187Y-107792252D01*
X158948091Y-107801822D01*
X158983829Y-107831152D01*
X159085286Y-107914414D01*
X159168548Y-108015871D01*
X159197878Y-108051609D01*
X159197879Y-108051611D01*
X159281543Y-108208133D01*
X159290765Y-108238534D01*
X159333063Y-108377973D01*
X159350459Y-108554600D01*
X159333063Y-108731227D01*
X159310652Y-108805107D01*
X159281543Y-108901067D01*
X159207448Y-109039687D01*
X159197878Y-109057591D01*
X159172931Y-109087989D01*
X159085286Y-109194786D01*
X158983829Y-109278048D01*
X158948091Y-109307378D01*
X158948089Y-109307379D01*
X158791567Y-109391043D01*
X158734953Y-109408216D01*
X158621727Y-109442563D01*
X158555542Y-109449082D01*
X158489360Y-109455600D01*
X158400840Y-109455600D01*
X158334658Y-109449082D01*
X158268473Y-109442563D01*
X158155247Y-109408216D01*
X158098633Y-109391043D01*
X157942111Y-109307379D01*
X157942109Y-109307378D01*
X157906371Y-109278048D01*
X157804914Y-109194786D01*
X157717269Y-109087989D01*
X157692322Y-109057591D01*
X157682752Y-109039687D01*
X157608657Y-108901067D01*
X157579548Y-108805107D01*
X157557137Y-108731227D01*
X157539741Y-108554600D01*
X157557137Y-108377973D01*
X157599435Y-108238534D01*
X157608657Y-108208133D01*
X157692321Y-108051611D01*
X157692322Y-108051609D01*
X157721652Y-108015871D01*
X157804914Y-107914414D01*
X157906371Y-107831152D01*
X157942109Y-107801822D01*
X157960013Y-107792252D01*
X158098633Y-107718157D01*
X158155247Y-107700984D01*
X158268473Y-107666637D01*
X158334658Y-107660118D01*
X158400840Y-107653600D01*
X158489360Y-107653600D01*
X158555542Y-107660118D01*
X158555542Y-107660118D01*
G37*
G36*
X156068000Y-109344000D02*
X154066000Y-109344000D01*
X154066000Y-108842000D01*
X156068000Y-108842000D01*
X156068000Y-109344000D01*
X156068000Y-109344000D01*
G37*
G36*
X145032591Y-107846585D02*
X145066569Y-107856893D01*
X145097887Y-107873633D01*
X145125339Y-107896161D01*
X145147867Y-107923613D01*
X145164607Y-107954931D01*
X145174915Y-107988909D01*
X145179000Y-108030390D01*
X145179000Y-108631610D01*
X145174915Y-108673091D01*
X145164607Y-108707069D01*
X145147867Y-108738387D01*
X145125339Y-108765839D01*
X145097887Y-108788367D01*
X145066569Y-108805107D01*
X145032591Y-108815415D01*
X144991110Y-108819500D01*
X144314890Y-108819500D01*
X144273409Y-108815415D01*
X144239431Y-108805107D01*
X144208113Y-108788367D01*
X144180661Y-108765839D01*
X144158133Y-108738387D01*
X144141393Y-108707069D01*
X144131085Y-108673091D01*
X144127000Y-108631610D01*
X144127000Y-108030390D01*
X144131085Y-107988909D01*
X144141393Y-107954931D01*
X144158133Y-107923613D01*
X144180661Y-107896161D01*
X144208113Y-107873633D01*
X144239431Y-107856893D01*
X144273409Y-107846585D01*
X144314890Y-107842500D01*
X144991110Y-107842500D01*
X145032591Y-107846585D01*
X145032591Y-107846585D01*
G37*
G36*
X156068000Y-108144000D02*
X154066000Y-108144000D01*
X154066000Y-107642000D01*
X156068000Y-107642000D01*
X156068000Y-108144000D01*
X156068000Y-108144000D01*
G37*
G36*
X145032591Y-106271585D02*
X145066569Y-106281893D01*
X145097887Y-106298633D01*
X145125339Y-106321161D01*
X145147867Y-106348613D01*
X145164607Y-106379931D01*
X145174915Y-106413909D01*
X145179000Y-106455390D01*
X145179000Y-107056610D01*
X145174915Y-107098091D01*
X145164607Y-107132069D01*
X145147867Y-107163387D01*
X145125339Y-107190839D01*
X145097887Y-107213367D01*
X145066569Y-107230107D01*
X145032591Y-107240415D01*
X144991110Y-107244500D01*
X144314890Y-107244500D01*
X144273409Y-107240415D01*
X144239431Y-107230107D01*
X144208113Y-107213367D01*
X144180661Y-107190839D01*
X144158133Y-107163387D01*
X144141393Y-107132069D01*
X144131085Y-107098091D01*
X144127000Y-107056610D01*
X144127000Y-106455390D01*
X144131085Y-106413909D01*
X144141393Y-106379931D01*
X144158133Y-106348613D01*
X144180661Y-106321161D01*
X144208113Y-106298633D01*
X144239431Y-106281893D01*
X144273409Y-106271585D01*
X144314890Y-106267500D01*
X144991110Y-106267500D01*
X145032591Y-106271585D01*
X145032591Y-106271585D01*
G37*
G36*
X138616643Y-105150519D02*
X138682827Y-105157037D01*
X138752450Y-105178157D01*
X138852667Y-105208557D01*
X138952315Y-105261821D01*
X139009191Y-105292222D01*
X139044929Y-105321552D01*
X139146386Y-105404814D01*
X139229648Y-105506271D01*
X139258978Y-105542009D01*
X139258979Y-105542011D01*
X139342643Y-105698533D01*
X139342643Y-105698534D01*
X139394163Y-105868373D01*
X139411559Y-106045000D01*
X139394163Y-106221627D01*
X139367761Y-106308664D01*
X139342643Y-106391467D01*
X139330647Y-106413909D01*
X139258978Y-106547991D01*
X139229648Y-106583729D01*
X139146386Y-106685186D01*
X139046233Y-106767378D01*
X139009191Y-106797778D01*
X139009189Y-106797779D01*
X138852667Y-106881443D01*
X138796053Y-106898616D01*
X138682827Y-106932963D01*
X138616642Y-106939482D01*
X138550460Y-106946000D01*
X138461940Y-106946000D01*
X138395758Y-106939482D01*
X138329573Y-106932963D01*
X138216347Y-106898616D01*
X138159733Y-106881443D01*
X138003211Y-106797779D01*
X138003209Y-106797778D01*
X137966167Y-106767378D01*
X137866014Y-106685186D01*
X137782752Y-106583729D01*
X137753422Y-106547991D01*
X137681753Y-106413909D01*
X137669757Y-106391467D01*
X137644639Y-106308664D01*
X137618237Y-106221627D01*
X137600841Y-106045000D01*
X137618237Y-105868373D01*
X137669757Y-105698534D01*
X137669757Y-105698533D01*
X137753421Y-105542011D01*
X137753422Y-105542009D01*
X137782752Y-105506271D01*
X137866014Y-105404814D01*
X137967471Y-105321552D01*
X138003209Y-105292222D01*
X138060085Y-105261821D01*
X138159733Y-105208557D01*
X138259950Y-105178157D01*
X138329573Y-105157037D01*
X138395758Y-105150518D01*
X138461940Y-105144000D01*
X138550460Y-105144000D01*
X138616643Y-105150519D01*
X138616643Y-105150519D01*
G37*
G36*
X158555542Y-105120118D02*
X158621727Y-105126637D01*
X158734953Y-105160984D01*
X158791567Y-105178157D01*
X158930187Y-105252252D01*
X158948091Y-105261822D01*
X158983829Y-105291152D01*
X159085286Y-105374414D01*
X159168548Y-105475871D01*
X159197878Y-105511609D01*
X159197879Y-105511611D01*
X159281543Y-105668133D01*
X159290765Y-105698534D01*
X159333063Y-105837973D01*
X159350459Y-106014600D01*
X159333063Y-106191227D01*
X159323841Y-106221627D01*
X159281543Y-106361067D01*
X159226470Y-106464099D01*
X159197878Y-106517591D01*
X159172931Y-106547989D01*
X159085286Y-106654786D01*
X158983829Y-106738048D01*
X158948091Y-106767378D01*
X158948089Y-106767379D01*
X158791567Y-106851043D01*
X158734953Y-106868216D01*
X158621727Y-106902563D01*
X158555542Y-106909082D01*
X158489360Y-106915600D01*
X158400840Y-106915600D01*
X158334658Y-106909082D01*
X158268473Y-106902563D01*
X158155247Y-106868216D01*
X158098633Y-106851043D01*
X157942111Y-106767379D01*
X157942109Y-106767378D01*
X157906371Y-106738048D01*
X157804914Y-106654786D01*
X157717269Y-106547989D01*
X157692322Y-106517591D01*
X157663730Y-106464099D01*
X157608657Y-106361067D01*
X157566359Y-106221627D01*
X157557137Y-106191227D01*
X157539741Y-106014600D01*
X157557137Y-105837973D01*
X157599435Y-105698534D01*
X157608657Y-105668133D01*
X157692321Y-105511611D01*
X157692322Y-105511609D01*
X157721652Y-105475871D01*
X157804914Y-105374414D01*
X157906371Y-105291152D01*
X157942109Y-105261822D01*
X157960013Y-105252252D01*
X158098633Y-105178157D01*
X158155247Y-105160984D01*
X158268473Y-105126637D01*
X158334657Y-105120119D01*
X158400840Y-105113600D01*
X158489360Y-105113600D01*
X158555542Y-105120118D01*
X158555542Y-105120118D01*
G37*
G36*
X138616642Y-102610518D02*
X138682827Y-102617037D01*
X138752450Y-102638157D01*
X138852667Y-102668557D01*
X138952315Y-102721821D01*
X139009191Y-102752222D01*
X139044929Y-102781552D01*
X139146386Y-102864814D01*
X139229648Y-102966271D01*
X139258978Y-103002009D01*
X139258979Y-103002011D01*
X139342643Y-103158533D01*
X139342643Y-103158534D01*
X139394163Y-103328373D01*
X139411559Y-103505000D01*
X139394163Y-103681627D01*
X139359816Y-103794853D01*
X139342643Y-103851467D01*
X139275228Y-103977589D01*
X139258978Y-104007991D01*
X139229648Y-104043729D01*
X139146386Y-104145186D01*
X139046233Y-104227378D01*
X139009191Y-104257778D01*
X139009189Y-104257779D01*
X138852667Y-104341443D01*
X138796053Y-104358616D01*
X138682827Y-104392963D01*
X138616642Y-104399482D01*
X138550460Y-104406000D01*
X138461940Y-104406000D01*
X138395758Y-104399482D01*
X138329573Y-104392963D01*
X138216347Y-104358616D01*
X138159733Y-104341443D01*
X138003211Y-104257779D01*
X138003209Y-104257778D01*
X137966167Y-104227378D01*
X137866014Y-104145186D01*
X137782752Y-104043729D01*
X137753422Y-104007991D01*
X137737172Y-103977589D01*
X137669757Y-103851467D01*
X137652584Y-103794853D01*
X137618237Y-103681627D01*
X137600841Y-103505000D01*
X137618237Y-103328373D01*
X137669757Y-103158534D01*
X137669757Y-103158533D01*
X137753421Y-103002011D01*
X137753422Y-103002009D01*
X137782752Y-102966271D01*
X137866014Y-102864814D01*
X137967471Y-102781552D01*
X138003209Y-102752222D01*
X138060085Y-102721821D01*
X138159733Y-102668557D01*
X138259950Y-102638157D01*
X138329573Y-102617037D01*
X138395758Y-102610518D01*
X138461940Y-102604000D01*
X138550460Y-102604000D01*
X138616642Y-102610518D01*
X138616642Y-102610518D01*
G37*
G36*
X158555543Y-102580119D02*
X158621727Y-102586637D01*
X158734953Y-102620984D01*
X158791567Y-102638157D01*
X158930187Y-102712252D01*
X158948091Y-102721822D01*
X158983829Y-102751152D01*
X159085286Y-102834414D01*
X159168548Y-102935871D01*
X159197878Y-102971609D01*
X159197879Y-102971611D01*
X159281543Y-103128133D01*
X159290765Y-103158534D01*
X159333063Y-103297973D01*
X159350459Y-103474600D01*
X159333063Y-103651227D01*
X159323841Y-103681627D01*
X159281543Y-103821067D01*
X159207448Y-103959687D01*
X159197878Y-103977591D01*
X159172931Y-104007989D01*
X159085286Y-104114786D01*
X158983829Y-104198048D01*
X158948091Y-104227378D01*
X158948089Y-104227379D01*
X158791567Y-104311043D01*
X158734953Y-104328216D01*
X158621727Y-104362563D01*
X158555542Y-104369082D01*
X158489360Y-104375600D01*
X158400840Y-104375600D01*
X158334657Y-104369081D01*
X158268473Y-104362563D01*
X158155247Y-104328216D01*
X158098633Y-104311043D01*
X157942111Y-104227379D01*
X157942109Y-104227378D01*
X157906371Y-104198048D01*
X157804914Y-104114786D01*
X157717269Y-104007989D01*
X157692322Y-103977591D01*
X157682752Y-103959687D01*
X157608657Y-103821067D01*
X157566359Y-103681627D01*
X157557137Y-103651227D01*
X157539741Y-103474600D01*
X157557137Y-103297973D01*
X157599435Y-103158534D01*
X157608657Y-103128133D01*
X157692321Y-102971611D01*
X157692322Y-102971609D01*
X157721652Y-102935871D01*
X157804914Y-102834414D01*
X157906371Y-102751152D01*
X157942109Y-102721822D01*
X157960013Y-102712252D01*
X158098633Y-102638157D01*
X158155247Y-102620984D01*
X158268473Y-102586637D01*
X158334657Y-102580119D01*
X158400840Y-102573600D01*
X158489360Y-102573600D01*
X158555543Y-102580119D01*
X158555543Y-102580119D01*
G37*
G36*
X149567900Y-104292400D02*
X147662900Y-104292400D01*
X147662900Y-103479600D01*
X149567900Y-103479600D01*
X149567900Y-104292400D01*
X149567900Y-104292400D01*
G37*
G36*
X143065500Y-104292400D02*
X141160500Y-104292400D01*
X141160500Y-103479600D01*
X143065500Y-103479600D01*
X143065500Y-104292400D01*
X143065500Y-104292400D01*
G37*
G36*
X149567900Y-103022400D02*
X147662900Y-103022400D01*
X147662900Y-102209600D01*
X149567900Y-102209600D01*
X149567900Y-103022400D01*
X149567900Y-103022400D01*
G37*
G36*
X143065500Y-103022400D02*
X141160500Y-103022400D01*
X141160500Y-102209600D01*
X143065500Y-102209600D01*
X143065500Y-103022400D01*
X143065500Y-103022400D01*
G37*
G36*
X138616642Y-100070518D02*
X138682827Y-100077037D01*
X138752450Y-100098157D01*
X138852667Y-100128557D01*
X138952315Y-100181821D01*
X139009191Y-100212222D01*
X139044929Y-100241552D01*
X139146386Y-100324814D01*
X139229648Y-100426271D01*
X139258978Y-100462009D01*
X139258979Y-100462011D01*
X139342643Y-100618533D01*
X139353245Y-100653483D01*
X139394163Y-100788373D01*
X139411559Y-100965000D01*
X139394163Y-101141627D01*
X139359816Y-101254853D01*
X139342643Y-101311467D01*
X139334195Y-101327271D01*
X139258978Y-101467991D01*
X139238669Y-101492737D01*
X139146386Y-101605186D01*
X139046233Y-101687378D01*
X139009191Y-101717778D01*
X139009189Y-101717779D01*
X138852667Y-101801443D01*
X138796053Y-101818616D01*
X138682827Y-101852963D01*
X138616643Y-101859481D01*
X138550460Y-101866000D01*
X138461940Y-101866000D01*
X138395758Y-101859482D01*
X138329573Y-101852963D01*
X138216347Y-101818616D01*
X138159733Y-101801443D01*
X138003211Y-101717779D01*
X138003209Y-101717778D01*
X137966167Y-101687378D01*
X137866014Y-101605186D01*
X137773731Y-101492737D01*
X137753422Y-101467991D01*
X137678205Y-101327271D01*
X137669757Y-101311467D01*
X137652584Y-101254853D01*
X137618237Y-101141627D01*
X137600841Y-100965000D01*
X137618237Y-100788373D01*
X137659155Y-100653483D01*
X137669757Y-100618533D01*
X137753421Y-100462011D01*
X137753422Y-100462009D01*
X137782752Y-100426271D01*
X137866014Y-100324814D01*
X137967471Y-100241552D01*
X138003209Y-100212222D01*
X138060085Y-100181821D01*
X138159733Y-100128557D01*
X138259950Y-100098157D01*
X138329573Y-100077037D01*
X138395757Y-100070519D01*
X138461940Y-100064000D01*
X138550460Y-100064000D01*
X138616642Y-100070518D01*
X138616642Y-100070518D01*
G37*
G36*
X158555542Y-100040118D02*
X158621727Y-100046637D01*
X158734953Y-100080984D01*
X158791567Y-100098157D01*
X158930187Y-100172252D01*
X158948091Y-100181822D01*
X158983829Y-100211152D01*
X159085286Y-100294414D01*
X159168548Y-100395871D01*
X159197878Y-100431609D01*
X159197879Y-100431611D01*
X159281543Y-100588133D01*
X159290765Y-100618534D01*
X159333063Y-100757973D01*
X159350459Y-100934600D01*
X159333063Y-101111227D01*
X159323841Y-101141627D01*
X159281543Y-101281067D01*
X159218725Y-101398590D01*
X159197878Y-101437591D01*
X159193638Y-101442757D01*
X159085286Y-101574786D01*
X158983829Y-101658048D01*
X158948091Y-101687378D01*
X158948089Y-101687379D01*
X158791567Y-101771043D01*
X158734953Y-101788216D01*
X158621727Y-101822563D01*
X158555543Y-101829081D01*
X158489360Y-101835600D01*
X158400840Y-101835600D01*
X158334657Y-101829081D01*
X158268473Y-101822563D01*
X158155247Y-101788216D01*
X158098633Y-101771043D01*
X157942111Y-101687379D01*
X157942109Y-101687378D01*
X157906371Y-101658048D01*
X157804914Y-101574786D01*
X157696562Y-101442757D01*
X157692322Y-101437591D01*
X157671475Y-101398590D01*
X157608657Y-101281067D01*
X157566359Y-101141627D01*
X157557137Y-101111227D01*
X157539741Y-100934600D01*
X157557137Y-100757973D01*
X157599435Y-100618534D01*
X157608657Y-100588133D01*
X157692321Y-100431611D01*
X157692322Y-100431609D01*
X157721652Y-100395871D01*
X157804914Y-100294414D01*
X157906371Y-100211152D01*
X157942109Y-100181822D01*
X157960013Y-100172252D01*
X158098633Y-100098157D01*
X158155247Y-100080984D01*
X158268473Y-100046637D01*
X158334658Y-100040118D01*
X158400840Y-100033600D01*
X158489360Y-100033600D01*
X158555542Y-100040118D01*
X158555542Y-100040118D01*
G37*
G36*
X149567900Y-101752400D02*
X147662900Y-101752400D01*
X147662900Y-100939600D01*
X149567900Y-100939600D01*
X149567900Y-101752400D01*
X149567900Y-101752400D01*
G37*
G36*
X143065500Y-101752400D02*
X141160500Y-101752400D01*
X141160500Y-100939600D01*
X143065500Y-100939600D01*
X143065500Y-101752400D01*
X143065500Y-101752400D01*
G37*
G36*
X152821855Y-100576455D02*
X152855833Y-100586763D01*
X152887151Y-100603503D01*
X152914603Y-100626031D01*
X152937131Y-100653483D01*
X152953871Y-100684801D01*
X152964179Y-100718779D01*
X152968264Y-100760260D01*
X152968264Y-101361480D01*
X152964179Y-101402961D01*
X152953871Y-101436939D01*
X152937131Y-101468257D01*
X152914603Y-101495709D01*
X152887151Y-101518237D01*
X152855833Y-101534977D01*
X152821855Y-101545285D01*
X152780374Y-101549370D01*
X152104154Y-101549370D01*
X152062673Y-101545285D01*
X152028695Y-101534977D01*
X151997377Y-101518237D01*
X151969925Y-101495709D01*
X151947397Y-101468257D01*
X151930657Y-101436939D01*
X151920349Y-101402961D01*
X151916264Y-101361480D01*
X151916264Y-100760260D01*
X151920349Y-100718779D01*
X151930657Y-100684801D01*
X151947397Y-100653483D01*
X151969925Y-100626031D01*
X151997377Y-100603503D01*
X152028695Y-100586763D01*
X152062673Y-100576455D01*
X152104154Y-100572370D01*
X152780374Y-100572370D01*
X152821855Y-100576455D01*
X152821855Y-100576455D01*
G37*
G36*
X154345855Y-100550955D02*
X154379833Y-100561263D01*
X154411151Y-100578003D01*
X154438603Y-100600531D01*
X154461131Y-100627983D01*
X154477871Y-100659301D01*
X154488179Y-100693279D01*
X154492264Y-100734760D01*
X154492264Y-101335980D01*
X154488179Y-101377461D01*
X154477871Y-101411439D01*
X154461131Y-101442757D01*
X154438603Y-101470209D01*
X154411151Y-101492737D01*
X154379833Y-101509477D01*
X154345855Y-101519785D01*
X154304374Y-101523870D01*
X153628154Y-101523870D01*
X153586673Y-101519785D01*
X153552695Y-101509477D01*
X153521377Y-101492737D01*
X153493925Y-101470209D01*
X153471397Y-101442757D01*
X153454657Y-101411439D01*
X153444349Y-101377461D01*
X153440264Y-101335980D01*
X153440264Y-100734760D01*
X153444349Y-100693279D01*
X153454657Y-100659301D01*
X153471397Y-100627983D01*
X153493925Y-100600531D01*
X153521377Y-100578003D01*
X153552695Y-100561263D01*
X153586673Y-100550955D01*
X153628154Y-100546870D01*
X154304374Y-100546870D01*
X154345855Y-100550955D01*
X154345855Y-100550955D01*
G37*
G36*
X143065500Y-100482400D02*
X141160500Y-100482400D01*
X141160500Y-99669600D01*
X143065500Y-99669600D01*
X143065500Y-100482400D01*
X143065500Y-100482400D01*
G37*
G36*
X149567900Y-100482400D02*
X147662900Y-100482400D01*
X147662900Y-99669600D01*
X149567900Y-99669600D01*
X149567900Y-100482400D01*
X149567900Y-100482400D01*
G37*
G36*
X152821855Y-99001455D02*
X152855833Y-99011763D01*
X152887151Y-99028503D01*
X152914603Y-99051031D01*
X152937131Y-99078483D01*
X152953871Y-99109801D01*
X152964179Y-99143779D01*
X152968264Y-99185260D01*
X152968264Y-99786480D01*
X152964179Y-99827961D01*
X152953871Y-99861939D01*
X152937131Y-99893257D01*
X152914603Y-99920709D01*
X152887151Y-99943237D01*
X152855833Y-99959977D01*
X152821855Y-99970285D01*
X152780374Y-99974370D01*
X152104154Y-99974370D01*
X152062673Y-99970285D01*
X152028695Y-99959977D01*
X151997377Y-99943237D01*
X151969925Y-99920709D01*
X151947397Y-99893257D01*
X151930657Y-99861939D01*
X151920349Y-99827961D01*
X151916264Y-99786480D01*
X151916264Y-99185260D01*
X151920349Y-99143779D01*
X151930657Y-99109801D01*
X151947397Y-99078483D01*
X151969925Y-99051031D01*
X151997377Y-99028503D01*
X152028695Y-99011763D01*
X152062673Y-99001455D01*
X152104154Y-98997370D01*
X152780374Y-98997370D01*
X152821855Y-99001455D01*
X152821855Y-99001455D01*
G37*
G36*
X154345855Y-98975955D02*
X154379833Y-98986263D01*
X154411151Y-99003003D01*
X154438603Y-99025531D01*
X154461131Y-99052983D01*
X154477871Y-99084301D01*
X154488179Y-99118279D01*
X154492264Y-99159760D01*
X154492264Y-99760980D01*
X154488179Y-99802461D01*
X154477871Y-99836439D01*
X154461131Y-99867757D01*
X154438603Y-99895209D01*
X154411151Y-99917737D01*
X154379833Y-99934477D01*
X154345855Y-99944785D01*
X154304374Y-99948870D01*
X153628154Y-99948870D01*
X153586673Y-99944785D01*
X153552695Y-99934477D01*
X153521377Y-99917737D01*
X153493925Y-99895209D01*
X153471397Y-99867757D01*
X153454657Y-99836439D01*
X153444349Y-99802461D01*
X153440264Y-99760980D01*
X153440264Y-99159760D01*
X153444349Y-99118279D01*
X153454657Y-99084301D01*
X153471397Y-99052983D01*
X153493925Y-99025531D01*
X153521377Y-99003003D01*
X153552695Y-98986263D01*
X153586673Y-98975955D01*
X153628154Y-98971870D01*
X154304374Y-98971870D01*
X154345855Y-98975955D01*
X154345855Y-98975955D01*
G37*
G36*
X138616642Y-97530518D02*
X138682827Y-97537037D01*
X138752450Y-97558157D01*
X138852667Y-97588557D01*
X138952315Y-97641821D01*
X139009191Y-97672222D01*
X139026692Y-97686585D01*
X139146386Y-97784814D01*
X139229648Y-97886271D01*
X139258978Y-97922009D01*
X139258979Y-97922011D01*
X139342643Y-98078533D01*
X139355103Y-98119608D01*
X139394163Y-98248373D01*
X139411559Y-98425000D01*
X139394163Y-98601627D01*
X139376607Y-98659500D01*
X139342643Y-98771467D01*
X139275228Y-98897589D01*
X139258978Y-98927991D01*
X139229648Y-98963729D01*
X139146386Y-99065186D01*
X139050619Y-99143779D01*
X139009191Y-99177778D01*
X139009189Y-99177779D01*
X138852667Y-99261443D01*
X138796053Y-99278616D01*
X138682827Y-99312963D01*
X138616642Y-99319482D01*
X138550460Y-99326000D01*
X138461940Y-99326000D01*
X138395757Y-99319481D01*
X138329573Y-99312963D01*
X138216347Y-99278616D01*
X138159733Y-99261443D01*
X138003211Y-99177779D01*
X138003209Y-99177778D01*
X137961781Y-99143779D01*
X137866014Y-99065186D01*
X137782752Y-98963729D01*
X137753422Y-98927991D01*
X137737172Y-98897589D01*
X137669757Y-98771467D01*
X137635793Y-98659500D01*
X137618237Y-98601627D01*
X137600841Y-98425000D01*
X137618237Y-98248373D01*
X137657297Y-98119608D01*
X137669757Y-98078533D01*
X137753421Y-97922011D01*
X137753422Y-97922009D01*
X137782752Y-97886271D01*
X137866014Y-97784814D01*
X137985708Y-97686585D01*
X138003209Y-97672222D01*
X138060085Y-97641821D01*
X138159733Y-97588557D01*
X138259950Y-97558157D01*
X138329573Y-97537037D01*
X138395758Y-97530518D01*
X138461940Y-97524000D01*
X138550460Y-97524000D01*
X138616642Y-97530518D01*
X138616642Y-97530518D01*
G37*
G36*
X158555543Y-97500119D02*
X158621727Y-97506637D01*
X158734953Y-97540984D01*
X158791567Y-97558157D01*
X158880456Y-97605670D01*
X158948091Y-97641822D01*
X158983829Y-97671152D01*
X159085286Y-97754414D01*
X159168548Y-97855871D01*
X159197878Y-97891609D01*
X159197879Y-97891611D01*
X159281543Y-98048133D01*
X159290765Y-98078534D01*
X159333063Y-98217973D01*
X159350459Y-98394600D01*
X159333063Y-98571227D01*
X159310652Y-98645107D01*
X159281543Y-98741067D01*
X159207448Y-98879687D01*
X159197878Y-98897591D01*
X159172931Y-98927989D01*
X159085286Y-99034786D01*
X158983829Y-99118048D01*
X158948091Y-99147378D01*
X158948089Y-99147379D01*
X158791567Y-99231043D01*
X158734953Y-99248216D01*
X158621727Y-99282563D01*
X158555542Y-99289082D01*
X158489360Y-99295600D01*
X158400840Y-99295600D01*
X158334658Y-99289082D01*
X158268473Y-99282563D01*
X158155247Y-99248216D01*
X158098633Y-99231043D01*
X157942111Y-99147379D01*
X157942109Y-99147378D01*
X157906371Y-99118048D01*
X157804914Y-99034786D01*
X157717269Y-98927989D01*
X157692322Y-98897591D01*
X157682752Y-98879687D01*
X157608657Y-98741067D01*
X157579548Y-98645107D01*
X157557137Y-98571227D01*
X157539741Y-98394600D01*
X157557137Y-98217973D01*
X157599435Y-98078534D01*
X157608657Y-98048133D01*
X157692321Y-97891611D01*
X157692322Y-97891609D01*
X157721652Y-97855871D01*
X157804914Y-97754414D01*
X157906371Y-97671152D01*
X157942109Y-97641822D01*
X158009744Y-97605670D01*
X158098633Y-97558157D01*
X158155247Y-97540984D01*
X158268473Y-97506637D01*
X158334657Y-97500119D01*
X158400840Y-97493600D01*
X158489360Y-97493600D01*
X158555543Y-97500119D01*
X158555543Y-97500119D01*
G37*
G36*
X149350591Y-97686585D02*
X149384569Y-97696893D01*
X149415887Y-97713633D01*
X149443339Y-97736161D01*
X149465867Y-97763613D01*
X149482607Y-97794931D01*
X149492915Y-97828909D01*
X149497000Y-97870390D01*
X149497000Y-98471610D01*
X149492915Y-98513091D01*
X149482607Y-98547069D01*
X149465867Y-98578387D01*
X149443339Y-98605839D01*
X149415887Y-98628367D01*
X149384569Y-98645107D01*
X149350591Y-98655415D01*
X149309110Y-98659500D01*
X148632890Y-98659500D01*
X148591409Y-98655415D01*
X148557431Y-98645107D01*
X148526113Y-98628367D01*
X148498661Y-98605839D01*
X148476133Y-98578387D01*
X148459393Y-98547069D01*
X148449085Y-98513091D01*
X148445000Y-98471610D01*
X148445000Y-97870390D01*
X148449085Y-97828909D01*
X148459393Y-97794931D01*
X148476133Y-97763613D01*
X148498661Y-97736161D01*
X148526113Y-97713633D01*
X148557431Y-97696893D01*
X148591409Y-97686585D01*
X148632890Y-97682500D01*
X149309110Y-97682500D01*
X149350591Y-97686585D01*
X149350591Y-97686585D01*
G37*
G36*
X152943864Y-98608870D02*
X151940664Y-98608870D01*
X151940664Y-97605670D01*
X152943864Y-97605670D01*
X152943864Y-98608870D01*
X152943864Y-98608870D01*
G37*
G36*
X154467864Y-98608870D02*
X153464664Y-98608870D01*
X153464664Y-97605670D01*
X154467864Y-97605670D01*
X154467864Y-98608870D01*
X154467864Y-98608870D01*
G37*
G36*
X146951091Y-97090285D02*
X146985069Y-97100593D01*
X147016387Y-97117333D01*
X147043839Y-97139861D01*
X147066367Y-97167313D01*
X147083107Y-97198631D01*
X147093415Y-97232609D01*
X147097500Y-97274090D01*
X147097500Y-97950310D01*
X147093415Y-97991791D01*
X147083107Y-98025769D01*
X147066367Y-98057087D01*
X147043839Y-98084539D01*
X147016387Y-98107067D01*
X146985069Y-98123807D01*
X146951091Y-98134115D01*
X146909610Y-98138200D01*
X146308390Y-98138200D01*
X146266909Y-98134115D01*
X146232931Y-98123807D01*
X146201613Y-98107067D01*
X146174161Y-98084539D01*
X146151633Y-98057087D01*
X146134893Y-98025769D01*
X146124585Y-97991791D01*
X146120500Y-97950310D01*
X146120500Y-97274090D01*
X146124585Y-97232609D01*
X146134893Y-97198631D01*
X146151633Y-97167313D01*
X146174161Y-97139861D01*
X146201613Y-97117333D01*
X146232931Y-97100593D01*
X146266909Y-97090285D01*
X146308390Y-97086200D01*
X146909610Y-97086200D01*
X146951091Y-97090285D01*
X146951091Y-97090285D01*
G37*
G36*
X145376091Y-97090285D02*
X145410069Y-97100593D01*
X145441387Y-97117333D01*
X145468839Y-97139861D01*
X145491367Y-97167313D01*
X145508107Y-97198631D01*
X145518415Y-97232609D01*
X145522500Y-97274090D01*
X145522500Y-97950310D01*
X145518415Y-97991791D01*
X145508107Y-98025769D01*
X145491367Y-98057087D01*
X145468839Y-98084539D01*
X145441387Y-98107067D01*
X145410069Y-98123807D01*
X145376091Y-98134115D01*
X145334610Y-98138200D01*
X144733390Y-98138200D01*
X144691909Y-98134115D01*
X144657931Y-98123807D01*
X144626613Y-98107067D01*
X144599161Y-98084539D01*
X144576633Y-98057087D01*
X144559893Y-98025769D01*
X144549585Y-97991791D01*
X144545500Y-97950310D01*
X144545500Y-97274090D01*
X144549585Y-97232609D01*
X144559893Y-97198631D01*
X144576633Y-97167313D01*
X144599161Y-97139861D01*
X144626613Y-97117333D01*
X144657931Y-97100593D01*
X144691909Y-97090285D01*
X144733390Y-97086200D01*
X145334610Y-97086200D01*
X145376091Y-97090285D01*
X145376091Y-97090285D01*
G37*
G36*
X143979291Y-97090285D02*
X144013269Y-97100593D01*
X144044587Y-97117333D01*
X144072039Y-97139861D01*
X144094567Y-97167313D01*
X144111307Y-97198631D01*
X144121615Y-97232609D01*
X144125700Y-97274090D01*
X144125700Y-97950310D01*
X144121615Y-97991791D01*
X144111307Y-98025769D01*
X144094567Y-98057087D01*
X144072039Y-98084539D01*
X144044587Y-98107067D01*
X144013269Y-98123807D01*
X143979291Y-98134115D01*
X143937810Y-98138200D01*
X143336590Y-98138200D01*
X143295109Y-98134115D01*
X143261131Y-98123807D01*
X143229813Y-98107067D01*
X143202361Y-98084539D01*
X143179833Y-98057087D01*
X143163093Y-98025769D01*
X143152785Y-97991791D01*
X143148700Y-97950310D01*
X143148700Y-97274090D01*
X143152785Y-97232609D01*
X143163093Y-97198631D01*
X143179833Y-97167313D01*
X143202361Y-97139861D01*
X143229813Y-97117333D01*
X143261131Y-97100593D01*
X143295109Y-97090285D01*
X143336590Y-97086200D01*
X143937810Y-97086200D01*
X143979291Y-97090285D01*
X143979291Y-97090285D01*
G37*
G36*
X142404291Y-97090285D02*
X142438269Y-97100593D01*
X142469587Y-97117333D01*
X142497039Y-97139861D01*
X142519567Y-97167313D01*
X142536307Y-97198631D01*
X142546615Y-97232609D01*
X142550700Y-97274090D01*
X142550700Y-97950310D01*
X142546615Y-97991791D01*
X142536307Y-98025769D01*
X142519567Y-98057087D01*
X142497039Y-98084539D01*
X142469587Y-98107067D01*
X142438269Y-98123807D01*
X142404291Y-98134115D01*
X142362810Y-98138200D01*
X141761590Y-98138200D01*
X141720109Y-98134115D01*
X141686131Y-98123807D01*
X141654813Y-98107067D01*
X141627361Y-98084539D01*
X141604833Y-98057087D01*
X141588093Y-98025769D01*
X141577785Y-97991791D01*
X141573700Y-97950310D01*
X141573700Y-97274090D01*
X141577785Y-97232609D01*
X141588093Y-97198631D01*
X141604833Y-97167313D01*
X141627361Y-97139861D01*
X141654813Y-97117333D01*
X141686131Y-97100593D01*
X141720109Y-97090285D01*
X141761590Y-97086200D01*
X142362810Y-97086200D01*
X142404291Y-97090285D01*
X142404291Y-97090285D01*
G37*
G36*
X154467864Y-97108870D02*
X153464664Y-97108870D01*
X153464664Y-96105670D01*
X154467864Y-96105670D01*
X154467864Y-97108870D01*
X154467864Y-97108870D01*
G37*
G36*
X152943864Y-97108870D02*
X151940664Y-97108870D01*
X151940664Y-96105670D01*
X152943864Y-96105670D01*
X152943864Y-97108870D01*
X152943864Y-97108870D01*
G37*
G36*
X149350591Y-96111585D02*
X149384569Y-96121893D01*
X149415887Y-96138633D01*
X149443339Y-96161161D01*
X149465867Y-96188613D01*
X149482607Y-96219931D01*
X149492915Y-96253909D01*
X149497000Y-96295390D01*
X149497000Y-96896610D01*
X149492915Y-96938091D01*
X149482607Y-96972069D01*
X149465867Y-97003387D01*
X149443339Y-97030839D01*
X149415887Y-97053367D01*
X149384569Y-97070107D01*
X149350591Y-97080415D01*
X149309110Y-97084500D01*
X148632890Y-97084500D01*
X148591409Y-97080415D01*
X148557431Y-97070107D01*
X148526113Y-97053367D01*
X148498661Y-97030839D01*
X148476133Y-97003387D01*
X148459393Y-96972069D01*
X148449085Y-96938091D01*
X148445000Y-96896610D01*
X148445000Y-96295390D01*
X148449085Y-96253909D01*
X148459393Y-96219931D01*
X148476133Y-96188613D01*
X148498661Y-96161161D01*
X148526113Y-96138633D01*
X148557431Y-96121893D01*
X148591409Y-96111585D01*
X148632890Y-96107500D01*
X149309110Y-96107500D01*
X149350591Y-96111585D01*
X149350591Y-96111585D01*
G37*
G36*
X138616643Y-94990519D02*
X138682827Y-94997037D01*
X138752450Y-95018157D01*
X138852667Y-95048557D01*
X138910311Y-95079369D01*
X139009191Y-95132222D01*
X139031628Y-95150636D01*
X139146386Y-95244814D01*
X139229648Y-95346271D01*
X139258978Y-95382009D01*
X139258979Y-95382011D01*
X139342643Y-95538533D01*
X139342643Y-95538534D01*
X139394163Y-95708373D01*
X139411559Y-95885000D01*
X139394163Y-96061627D01*
X139367761Y-96148664D01*
X139342643Y-96231467D01*
X139330647Y-96253909D01*
X139258978Y-96387991D01*
X139232093Y-96420750D01*
X139146386Y-96525186D01*
X139063191Y-96593461D01*
X139009191Y-96637778D01*
X139009189Y-96637779D01*
X138852667Y-96721443D01*
X138796053Y-96738616D01*
X138682827Y-96772963D01*
X138616642Y-96779482D01*
X138550460Y-96786000D01*
X138461940Y-96786000D01*
X138395758Y-96779482D01*
X138329573Y-96772963D01*
X138216347Y-96738616D01*
X138159733Y-96721443D01*
X138003211Y-96637779D01*
X138003209Y-96637778D01*
X137949209Y-96593461D01*
X137866014Y-96525186D01*
X137780307Y-96420750D01*
X137753422Y-96387991D01*
X137681753Y-96253909D01*
X137669757Y-96231467D01*
X137644639Y-96148664D01*
X137618237Y-96061627D01*
X137600841Y-95885000D01*
X137618237Y-95708373D01*
X137669757Y-95538534D01*
X137669757Y-95538533D01*
X137753421Y-95382011D01*
X137753422Y-95382009D01*
X137782752Y-95346271D01*
X137866014Y-95244814D01*
X137980772Y-95150636D01*
X138003209Y-95132222D01*
X138102089Y-95079369D01*
X138159733Y-95048557D01*
X138259950Y-95018157D01*
X138329573Y-94997037D01*
X138395757Y-94990519D01*
X138461940Y-94984000D01*
X138550460Y-94984000D01*
X138616643Y-94990519D01*
X138616643Y-94990519D01*
G37*
G36*
X158555542Y-94960118D02*
X158621727Y-94966637D01*
X158734953Y-95000984D01*
X158791567Y-95018157D01*
X158906085Y-95079369D01*
X158948091Y-95101822D01*
X158970559Y-95120261D01*
X159085286Y-95214414D01*
X159168548Y-95315871D01*
X159197878Y-95351609D01*
X159197879Y-95351611D01*
X159281543Y-95508133D01*
X159290765Y-95538534D01*
X159333063Y-95677973D01*
X159350459Y-95854600D01*
X159333063Y-96031227D01*
X159323841Y-96061627D01*
X159281543Y-96201067D01*
X159226470Y-96304099D01*
X159197878Y-96357591D01*
X159172931Y-96387989D01*
X159085286Y-96494786D01*
X158983829Y-96578048D01*
X158948091Y-96607378D01*
X158930187Y-96616948D01*
X158791567Y-96691043D01*
X158734953Y-96708216D01*
X158621727Y-96742563D01*
X158555543Y-96749081D01*
X158489360Y-96755600D01*
X158400840Y-96755600D01*
X158334658Y-96749082D01*
X158268473Y-96742563D01*
X158155247Y-96708216D01*
X158098633Y-96691043D01*
X157960013Y-96616948D01*
X157942109Y-96607378D01*
X157906371Y-96578048D01*
X157804914Y-96494786D01*
X157717269Y-96387989D01*
X157692322Y-96357591D01*
X157663730Y-96304099D01*
X157608657Y-96201067D01*
X157566359Y-96061627D01*
X157557137Y-96031227D01*
X157539741Y-95854600D01*
X157557137Y-95677973D01*
X157599435Y-95538534D01*
X157608657Y-95508133D01*
X157692321Y-95351611D01*
X157692322Y-95351609D01*
X157721652Y-95315871D01*
X157804914Y-95214414D01*
X157919641Y-95120261D01*
X157942109Y-95101822D01*
X157984115Y-95079369D01*
X158098633Y-95018157D01*
X158155247Y-95000984D01*
X158268473Y-94966637D01*
X158334658Y-94960118D01*
X158400840Y-94953600D01*
X158489360Y-94953600D01*
X158555542Y-94960118D01*
X158555542Y-94960118D01*
G37*
G36*
X142404291Y-95617085D02*
X142438269Y-95627393D01*
X142469587Y-95644133D01*
X142497039Y-95666661D01*
X142519567Y-95694113D01*
X142536307Y-95725431D01*
X142546615Y-95759409D01*
X142550700Y-95800890D01*
X142550700Y-96477110D01*
X142546615Y-96518591D01*
X142536307Y-96552569D01*
X142519567Y-96583887D01*
X142497039Y-96611339D01*
X142469587Y-96633867D01*
X142438269Y-96650607D01*
X142404291Y-96660915D01*
X142362810Y-96665000D01*
X141761590Y-96665000D01*
X141720109Y-96660915D01*
X141686131Y-96650607D01*
X141654813Y-96633867D01*
X141627361Y-96611339D01*
X141604833Y-96583887D01*
X141588093Y-96552569D01*
X141577785Y-96518591D01*
X141573700Y-96477110D01*
X141573700Y-95800890D01*
X141577785Y-95759409D01*
X141588093Y-95725431D01*
X141604833Y-95694113D01*
X141627361Y-95666661D01*
X141654813Y-95644133D01*
X141686131Y-95627393D01*
X141720109Y-95617085D01*
X141761590Y-95613000D01*
X142362810Y-95613000D01*
X142404291Y-95617085D01*
X142404291Y-95617085D01*
G37*
G36*
X143979291Y-95617085D02*
X144013269Y-95627393D01*
X144044587Y-95644133D01*
X144072039Y-95666661D01*
X144094567Y-95694113D01*
X144111307Y-95725431D01*
X144121615Y-95759409D01*
X144125700Y-95800890D01*
X144125700Y-96477110D01*
X144121615Y-96518591D01*
X144111307Y-96552569D01*
X144094567Y-96583887D01*
X144072039Y-96611339D01*
X144044587Y-96633867D01*
X144013269Y-96650607D01*
X143979291Y-96660915D01*
X143937810Y-96665000D01*
X143336590Y-96665000D01*
X143295109Y-96660915D01*
X143261131Y-96650607D01*
X143229813Y-96633867D01*
X143202361Y-96611339D01*
X143179833Y-96583887D01*
X143163093Y-96552569D01*
X143152785Y-96518591D01*
X143148700Y-96477110D01*
X143148700Y-95800890D01*
X143152785Y-95759409D01*
X143163093Y-95725431D01*
X143179833Y-95694113D01*
X143202361Y-95666661D01*
X143229813Y-95644133D01*
X143261131Y-95627393D01*
X143295109Y-95617085D01*
X143336590Y-95613000D01*
X143937810Y-95613000D01*
X143979291Y-95617085D01*
X143979291Y-95617085D01*
G37*
G36*
X145376091Y-95617085D02*
X145410069Y-95627393D01*
X145441387Y-95644133D01*
X145468839Y-95666661D01*
X145491367Y-95694113D01*
X145508107Y-95725431D01*
X145518415Y-95759409D01*
X145522500Y-95800890D01*
X145522500Y-96477110D01*
X145518415Y-96518591D01*
X145508107Y-96552569D01*
X145491367Y-96583887D01*
X145468839Y-96611339D01*
X145441387Y-96633867D01*
X145410069Y-96650607D01*
X145376091Y-96660915D01*
X145334610Y-96665000D01*
X144733390Y-96665000D01*
X144691909Y-96660915D01*
X144657931Y-96650607D01*
X144626613Y-96633867D01*
X144599161Y-96611339D01*
X144576633Y-96583887D01*
X144559893Y-96552569D01*
X144549585Y-96518591D01*
X144545500Y-96477110D01*
X144545500Y-95800890D01*
X144549585Y-95759409D01*
X144559893Y-95725431D01*
X144576633Y-95694113D01*
X144599161Y-95666661D01*
X144626613Y-95644133D01*
X144657931Y-95627393D01*
X144691909Y-95617085D01*
X144733390Y-95613000D01*
X145334610Y-95613000D01*
X145376091Y-95617085D01*
X145376091Y-95617085D01*
G37*
G36*
X146951091Y-95617085D02*
X146985069Y-95627393D01*
X147016387Y-95644133D01*
X147043839Y-95666661D01*
X147066367Y-95694113D01*
X147083107Y-95725431D01*
X147093415Y-95759409D01*
X147097500Y-95800890D01*
X147097500Y-96477110D01*
X147093415Y-96518591D01*
X147083107Y-96552569D01*
X147066367Y-96583887D01*
X147043839Y-96611339D01*
X147016387Y-96633867D01*
X146985069Y-96650607D01*
X146951091Y-96660915D01*
X146909610Y-96665000D01*
X146308390Y-96665000D01*
X146266909Y-96660915D01*
X146232931Y-96650607D01*
X146201613Y-96633867D01*
X146174161Y-96611339D01*
X146151633Y-96583887D01*
X146134893Y-96552569D01*
X146124585Y-96518591D01*
X146120500Y-96477110D01*
X146120500Y-95800890D01*
X146124585Y-95759409D01*
X146134893Y-95725431D01*
X146151633Y-95694113D01*
X146174161Y-95666661D01*
X146201613Y-95644133D01*
X146232931Y-95627393D01*
X146266909Y-95617085D01*
X146308390Y-95613000D01*
X146909610Y-95613000D01*
X146951091Y-95617085D01*
X146951091Y-95617085D01*
G37*
G36*
X146951091Y-94143885D02*
X146985069Y-94154193D01*
X147016387Y-94170933D01*
X147043839Y-94193461D01*
X147066367Y-94220913D01*
X147083107Y-94252231D01*
X147093415Y-94286209D01*
X147097500Y-94327690D01*
X147097500Y-95003910D01*
X147093415Y-95045391D01*
X147083107Y-95079369D01*
X147066367Y-95110687D01*
X147043839Y-95138139D01*
X147016387Y-95160667D01*
X146985069Y-95177407D01*
X146951091Y-95187715D01*
X146909610Y-95191800D01*
X146308390Y-95191800D01*
X146266909Y-95187715D01*
X146232931Y-95177407D01*
X146201613Y-95160667D01*
X146174161Y-95138139D01*
X146151633Y-95110687D01*
X146134893Y-95079369D01*
X146124585Y-95045391D01*
X146120500Y-95003910D01*
X146120500Y-94327690D01*
X146124585Y-94286209D01*
X146134893Y-94252231D01*
X146151633Y-94220913D01*
X146174161Y-94193461D01*
X146201613Y-94170933D01*
X146232931Y-94154193D01*
X146266909Y-94143885D01*
X146308390Y-94139800D01*
X146909610Y-94139800D01*
X146951091Y-94143885D01*
X146951091Y-94143885D01*
G37*
G36*
X145376091Y-94143885D02*
X145410069Y-94154193D01*
X145441387Y-94170933D01*
X145468839Y-94193461D01*
X145491367Y-94220913D01*
X145508107Y-94252231D01*
X145518415Y-94286209D01*
X145522500Y-94327690D01*
X145522500Y-95003910D01*
X145518415Y-95045391D01*
X145508107Y-95079369D01*
X145491367Y-95110687D01*
X145468839Y-95138139D01*
X145441387Y-95160667D01*
X145410069Y-95177407D01*
X145376091Y-95187715D01*
X145334610Y-95191800D01*
X144733390Y-95191800D01*
X144691909Y-95187715D01*
X144657931Y-95177407D01*
X144626613Y-95160667D01*
X144599161Y-95138139D01*
X144576633Y-95110687D01*
X144559893Y-95079369D01*
X144549585Y-95045391D01*
X144545500Y-95003910D01*
X144545500Y-94327690D01*
X144549585Y-94286209D01*
X144559893Y-94252231D01*
X144576633Y-94220913D01*
X144599161Y-94193461D01*
X144626613Y-94170933D01*
X144657931Y-94154193D01*
X144691909Y-94143885D01*
X144733390Y-94139800D01*
X145334610Y-94139800D01*
X145376091Y-94143885D01*
X145376091Y-94143885D01*
G37*
G36*
X143979291Y-94143885D02*
X144013269Y-94154193D01*
X144044587Y-94170933D01*
X144072039Y-94193461D01*
X144094567Y-94220913D01*
X144111307Y-94252231D01*
X144121615Y-94286209D01*
X144125700Y-94327690D01*
X144125700Y-95003910D01*
X144121615Y-95045391D01*
X144111307Y-95079369D01*
X144094567Y-95110687D01*
X144072039Y-95138139D01*
X144044587Y-95160667D01*
X144013269Y-95177407D01*
X143979291Y-95187715D01*
X143937810Y-95191800D01*
X143336590Y-95191800D01*
X143295109Y-95187715D01*
X143261131Y-95177407D01*
X143229813Y-95160667D01*
X143202361Y-95138139D01*
X143179833Y-95110687D01*
X143163093Y-95079369D01*
X143152785Y-95045391D01*
X143148700Y-95003910D01*
X143148700Y-94327690D01*
X143152785Y-94286209D01*
X143163093Y-94252231D01*
X143179833Y-94220913D01*
X143202361Y-94193461D01*
X143229813Y-94170933D01*
X143261131Y-94154193D01*
X143295109Y-94143885D01*
X143336590Y-94139800D01*
X143937810Y-94139800D01*
X143979291Y-94143885D01*
X143979291Y-94143885D01*
G37*
G36*
X142404291Y-94143885D02*
X142438269Y-94154193D01*
X142469587Y-94170933D01*
X142497039Y-94193461D01*
X142519567Y-94220913D01*
X142536307Y-94252231D01*
X142546615Y-94286209D01*
X142550700Y-94327690D01*
X142550700Y-95003910D01*
X142546615Y-95045391D01*
X142536307Y-95079369D01*
X142519567Y-95110687D01*
X142497039Y-95138139D01*
X142469587Y-95160667D01*
X142438269Y-95177407D01*
X142404291Y-95187715D01*
X142362810Y-95191800D01*
X141761590Y-95191800D01*
X141720109Y-95187715D01*
X141686131Y-95177407D01*
X141654813Y-95160667D01*
X141627361Y-95138139D01*
X141604833Y-95110687D01*
X141588093Y-95079369D01*
X141577785Y-95045391D01*
X141573700Y-95003910D01*
X141573700Y-94327690D01*
X141577785Y-94286209D01*
X141588093Y-94252231D01*
X141604833Y-94220913D01*
X141627361Y-94193461D01*
X141654813Y-94170933D01*
X141686131Y-94154193D01*
X141720109Y-94143885D01*
X141761590Y-94139800D01*
X142362810Y-94139800D01*
X142404291Y-94143885D01*
X142404291Y-94143885D01*
G37*
G36*
X151929091Y-93839085D02*
X151963069Y-93849393D01*
X151994387Y-93866133D01*
X152021839Y-93888661D01*
X152044367Y-93916113D01*
X152061107Y-93947431D01*
X152071415Y-93981409D01*
X152075500Y-94022890D01*
X152075500Y-94699110D01*
X152071415Y-94740591D01*
X152061107Y-94774569D01*
X152044367Y-94805887D01*
X152021839Y-94833339D01*
X151994387Y-94855867D01*
X151963069Y-94872607D01*
X151929091Y-94882915D01*
X151887610Y-94887000D01*
X151286390Y-94887000D01*
X151244909Y-94882915D01*
X151210931Y-94872607D01*
X151179613Y-94855867D01*
X151152161Y-94833339D01*
X151129633Y-94805887D01*
X151112893Y-94774569D01*
X151102585Y-94740591D01*
X151098500Y-94699110D01*
X151098500Y-94022890D01*
X151102585Y-93981409D01*
X151112893Y-93947431D01*
X151129633Y-93916113D01*
X151152161Y-93888661D01*
X151179613Y-93866133D01*
X151210931Y-93849393D01*
X151244909Y-93839085D01*
X151286390Y-93835000D01*
X151887610Y-93835000D01*
X151929091Y-93839085D01*
X151929091Y-93839085D01*
G37*
G36*
X153504091Y-93839085D02*
X153538069Y-93849393D01*
X153569387Y-93866133D01*
X153596839Y-93888661D01*
X153619367Y-93916113D01*
X153636107Y-93947431D01*
X153646415Y-93981409D01*
X153650500Y-94022890D01*
X153650500Y-94699110D01*
X153646415Y-94740591D01*
X153636107Y-94774569D01*
X153619367Y-94805887D01*
X153596839Y-94833339D01*
X153569387Y-94855867D01*
X153538069Y-94872607D01*
X153504091Y-94882915D01*
X153462610Y-94887000D01*
X152861390Y-94887000D01*
X152819909Y-94882915D01*
X152785931Y-94872607D01*
X152754613Y-94855867D01*
X152727161Y-94833339D01*
X152704633Y-94805887D01*
X152687893Y-94774569D01*
X152677585Y-94740591D01*
X152673500Y-94699110D01*
X152673500Y-94022890D01*
X152677585Y-93981409D01*
X152687893Y-93947431D01*
X152704633Y-93916113D01*
X152727161Y-93888661D01*
X152754613Y-93866133D01*
X152785931Y-93849393D01*
X152819909Y-93839085D01*
X152861390Y-93835000D01*
X153462610Y-93835000D01*
X153504091Y-93839085D01*
X153504091Y-93839085D01*
G37*
G36*
X138616643Y-92450519D02*
X138682827Y-92457037D01*
X138752450Y-92478157D01*
X138852667Y-92508557D01*
X138991287Y-92582652D01*
X139009191Y-92592222D01*
X139013794Y-92596000D01*
X139146386Y-92704814D01*
X139229648Y-92806271D01*
X139258978Y-92842009D01*
X139258979Y-92842011D01*
X139342643Y-92998533D01*
X139342643Y-92998534D01*
X139394163Y-93168373D01*
X139411559Y-93345000D01*
X139394163Y-93521627D01*
X139359816Y-93634853D01*
X139342643Y-93691467D01*
X139290403Y-93789200D01*
X139258978Y-93847991D01*
X139257827Y-93849393D01*
X139146386Y-93985186D01*
X139046233Y-94067378D01*
X139009191Y-94097778D01*
X139009189Y-94097779D01*
X138852667Y-94181443D01*
X138813048Y-94193461D01*
X138682827Y-94232963D01*
X138616643Y-94239481D01*
X138550460Y-94246000D01*
X138461940Y-94246000D01*
X138395757Y-94239481D01*
X138329573Y-94232963D01*
X138199352Y-94193461D01*
X138159733Y-94181443D01*
X138003211Y-94097779D01*
X138003209Y-94097778D01*
X137966167Y-94067378D01*
X137866014Y-93985186D01*
X137754573Y-93849393D01*
X137753422Y-93847991D01*
X137721997Y-93789200D01*
X137669757Y-93691467D01*
X137652584Y-93634853D01*
X137618237Y-93521627D01*
X137600841Y-93345000D01*
X137618237Y-93168373D01*
X137669757Y-92998534D01*
X137669757Y-92998533D01*
X137753421Y-92842011D01*
X137753422Y-92842009D01*
X137782752Y-92806271D01*
X137866014Y-92704814D01*
X137998606Y-92596000D01*
X138003209Y-92592222D01*
X138021113Y-92582652D01*
X138159733Y-92508557D01*
X138259950Y-92478157D01*
X138329573Y-92457037D01*
X138395757Y-92450519D01*
X138461940Y-92444000D01*
X138550460Y-92444000D01*
X138616643Y-92450519D01*
X138616643Y-92450519D01*
G37*
G36*
X158555542Y-92420118D02*
X158621727Y-92426637D01*
X158734953Y-92460984D01*
X158791567Y-92478157D01*
X158930187Y-92552252D01*
X158948091Y-92561822D01*
X158948795Y-92562400D01*
X159085286Y-92674414D01*
X159168548Y-92775871D01*
X159197878Y-92811609D01*
X159197879Y-92811611D01*
X159281543Y-92968133D01*
X159290765Y-92998534D01*
X159333063Y-93137973D01*
X159350459Y-93314600D01*
X159333063Y-93491227D01*
X159323841Y-93521627D01*
X159281543Y-93661067D01*
X159213053Y-93789200D01*
X159197878Y-93817591D01*
X159180238Y-93839085D01*
X159085286Y-93954786D01*
X158991688Y-94031599D01*
X158948091Y-94067378D01*
X158948089Y-94067379D01*
X158791567Y-94151043D01*
X158767340Y-94158392D01*
X158621727Y-94202563D01*
X158555542Y-94209082D01*
X158489360Y-94215600D01*
X158400840Y-94215600D01*
X158334658Y-94209082D01*
X158268473Y-94202563D01*
X158122860Y-94158392D01*
X158098633Y-94151043D01*
X157942111Y-94067379D01*
X157942109Y-94067378D01*
X157898512Y-94031599D01*
X157804914Y-93954786D01*
X157709962Y-93839085D01*
X157692322Y-93817591D01*
X157677147Y-93789200D01*
X157608657Y-93661067D01*
X157566359Y-93521627D01*
X157557137Y-93491227D01*
X157539741Y-93314600D01*
X157557137Y-93137973D01*
X157599435Y-92998534D01*
X157608657Y-92968133D01*
X157692321Y-92811611D01*
X157692322Y-92811609D01*
X157721652Y-92775871D01*
X157804914Y-92674414D01*
X157941405Y-92562400D01*
X157942109Y-92561822D01*
X157960013Y-92552252D01*
X158098633Y-92478157D01*
X158155247Y-92460984D01*
X158268473Y-92426637D01*
X158334658Y-92420118D01*
X158400840Y-92413600D01*
X158489360Y-92413600D01*
X158555542Y-92420118D01*
X158555542Y-92420118D01*
G37*
G36*
X147969800Y-93789200D02*
X147076600Y-93789200D01*
X147076600Y-92596000D01*
X147969800Y-92596000D01*
X147969800Y-93789200D01*
X147969800Y-93789200D01*
G37*
G36*
X149869800Y-93789200D02*
X148976600Y-93789200D01*
X148976600Y-92596000D01*
X149869800Y-92596000D01*
X149869800Y-93789200D01*
X149869800Y-93789200D01*
G37*
G36*
X155599600Y-93365600D02*
X154346400Y-93365600D01*
X154346400Y-90662400D01*
X155599600Y-90662400D01*
X155599600Y-93365600D01*
X155599600Y-93365600D01*
G37*
G36*
X152899600Y-93365600D02*
X151646400Y-93365600D01*
X151646400Y-92562400D01*
X152899600Y-92562400D01*
X152899600Y-93365600D01*
X152899600Y-93365600D01*
G37*
G36*
X144639400Y-92454200D02*
X142736200Y-92454200D01*
X142736200Y-91701000D01*
X144639400Y-91701000D01*
X144639400Y-92454200D01*
X144639400Y-92454200D01*
G37*
G36*
X146289400Y-92054200D02*
X145186200Y-92054200D01*
X145186200Y-90851000D01*
X146289400Y-90851000D01*
X146289400Y-92054200D01*
X146289400Y-92054200D01*
G37*
G36*
X142189400Y-92054200D02*
X141086200Y-92054200D01*
X141086200Y-90851000D01*
X142189400Y-90851000D01*
X142189400Y-92054200D01*
X142189400Y-92054200D01*
G37*
G36*
X138616642Y-89910518D02*
X138682827Y-89917037D01*
X138752450Y-89938157D01*
X138852667Y-89968557D01*
X138903634Y-89995800D01*
X139009191Y-90052222D01*
X139044929Y-90081552D01*
X139146386Y-90164814D01*
X139229648Y-90266271D01*
X139258978Y-90302009D01*
X139258979Y-90302011D01*
X139342643Y-90458533D01*
X139342643Y-90458534D01*
X139394163Y-90628373D01*
X139411559Y-90805000D01*
X139394163Y-90981627D01*
X139359816Y-91094853D01*
X139342643Y-91151467D01*
X139322581Y-91189000D01*
X139258978Y-91307991D01*
X139229648Y-91343729D01*
X139146386Y-91445186D01*
X139046233Y-91527378D01*
X139009191Y-91557778D01*
X139009189Y-91557779D01*
X138852667Y-91641443D01*
X138796053Y-91658616D01*
X138682827Y-91692963D01*
X138616642Y-91699482D01*
X138550460Y-91706000D01*
X138461940Y-91706000D01*
X138395758Y-91699482D01*
X138329573Y-91692963D01*
X138216347Y-91658616D01*
X138159733Y-91641443D01*
X138003211Y-91557779D01*
X138003209Y-91557778D01*
X137966167Y-91527378D01*
X137866014Y-91445186D01*
X137782752Y-91343729D01*
X137753422Y-91307991D01*
X137689819Y-91189000D01*
X137669757Y-91151467D01*
X137652584Y-91094853D01*
X137618237Y-90981627D01*
X137600841Y-90805000D01*
X137618237Y-90628373D01*
X137669757Y-90458534D01*
X137669757Y-90458533D01*
X137753421Y-90302011D01*
X137753422Y-90302009D01*
X137782752Y-90266271D01*
X137866014Y-90164814D01*
X137967471Y-90081552D01*
X138003209Y-90052222D01*
X138108766Y-89995800D01*
X138159733Y-89968557D01*
X138259950Y-89938157D01*
X138329573Y-89917037D01*
X138395758Y-89910518D01*
X138461940Y-89904000D01*
X138550460Y-89904000D01*
X138616642Y-89910518D01*
X138616642Y-89910518D01*
G37*
G36*
X158533099Y-89877908D02*
X158621727Y-89886637D01*
X158730415Y-89919607D01*
X158791567Y-89938157D01*
X158899408Y-89995800D01*
X158948091Y-90021822D01*
X158983829Y-90051152D01*
X159085286Y-90134414D01*
X159168548Y-90235871D01*
X159197878Y-90271609D01*
X159197879Y-90271611D01*
X159281543Y-90428133D01*
X159290765Y-90458534D01*
X159333063Y-90597973D01*
X159350459Y-90774600D01*
X159333063Y-90951227D01*
X159323841Y-90981627D01*
X159281543Y-91121067D01*
X159207448Y-91259687D01*
X159197878Y-91277591D01*
X159172931Y-91307989D01*
X159085286Y-91414786D01*
X158983829Y-91498048D01*
X158948091Y-91527378D01*
X158948089Y-91527379D01*
X158791567Y-91611043D01*
X158787093Y-91612400D01*
X158621727Y-91662563D01*
X158555543Y-91669081D01*
X158489360Y-91675600D01*
X158400840Y-91675600D01*
X158334657Y-91669081D01*
X158268473Y-91662563D01*
X158103107Y-91612400D01*
X158098633Y-91611043D01*
X157942111Y-91527379D01*
X157942109Y-91527378D01*
X157906371Y-91498048D01*
X157804914Y-91414786D01*
X157717269Y-91307989D01*
X157692322Y-91277591D01*
X157682752Y-91259687D01*
X157608657Y-91121067D01*
X157566359Y-90981627D01*
X157557137Y-90951227D01*
X157539741Y-90774600D01*
X157557137Y-90597973D01*
X157599435Y-90458534D01*
X157608657Y-90428133D01*
X157692321Y-90271611D01*
X157692322Y-90271609D01*
X157721652Y-90235871D01*
X157804914Y-90134414D01*
X157906371Y-90051152D01*
X157942109Y-90021822D01*
X157990792Y-89995800D01*
X158098633Y-89938157D01*
X158159785Y-89919607D01*
X158268473Y-89886637D01*
X158357101Y-89877908D01*
X158400840Y-89873600D01*
X158489360Y-89873600D01*
X158533099Y-89877908D01*
X158533099Y-89877908D01*
G37*
G36*
X152899600Y-91465600D02*
X151646400Y-91465600D01*
X151646400Y-90662400D01*
X152899600Y-90662400D01*
X152899600Y-91465600D01*
X152899600Y-91465600D01*
G37*
G36*
X149869800Y-91189000D02*
X147076600Y-91189000D01*
X147076600Y-89995800D01*
X149869800Y-89995800D01*
X149869800Y-91189000D01*
X149869800Y-91189000D01*
G37*
G36*
X146289400Y-90454200D02*
X145186200Y-90454200D01*
X145186200Y-89251000D01*
X146289400Y-89251000D01*
X146289400Y-90454200D01*
X146289400Y-90454200D01*
G37*
G36*
X142189400Y-90454200D02*
X141086200Y-90454200D01*
X141086200Y-89251000D01*
X142189400Y-89251000D01*
X142189400Y-90454200D01*
X142189400Y-90454200D01*
G37*
G36*
X153631091Y-88886085D02*
X153665069Y-88896393D01*
X153696387Y-88913133D01*
X153723839Y-88935661D01*
X153746367Y-88963113D01*
X153763107Y-88994431D01*
X153773415Y-89028409D01*
X153777500Y-89069890D01*
X153777500Y-89746110D01*
X153773415Y-89787591D01*
X153763107Y-89821569D01*
X153746367Y-89852887D01*
X153723839Y-89880339D01*
X153696387Y-89902867D01*
X153665069Y-89919607D01*
X153631091Y-89929915D01*
X153589610Y-89934000D01*
X152988390Y-89934000D01*
X152946909Y-89929915D01*
X152912931Y-89919607D01*
X152881613Y-89902867D01*
X152854161Y-89880339D01*
X152831633Y-89852887D01*
X152814893Y-89821569D01*
X152804585Y-89787591D01*
X152800500Y-89746110D01*
X152800500Y-89069890D01*
X152804585Y-89028409D01*
X152814893Y-88994431D01*
X152831633Y-88963113D01*
X152854161Y-88935661D01*
X152881613Y-88913133D01*
X152912931Y-88896393D01*
X152946909Y-88886085D01*
X152988390Y-88882000D01*
X153589610Y-88882000D01*
X153631091Y-88886085D01*
X153631091Y-88886085D01*
G37*
G36*
X152056091Y-88886085D02*
X152090069Y-88896393D01*
X152121387Y-88913133D01*
X152148839Y-88935661D01*
X152171367Y-88963113D01*
X152188107Y-88994431D01*
X152198415Y-89028409D01*
X152202500Y-89069890D01*
X152202500Y-89746110D01*
X152198415Y-89787591D01*
X152188107Y-89821569D01*
X152171367Y-89852887D01*
X152148839Y-89880339D01*
X152121387Y-89902867D01*
X152090069Y-89919607D01*
X152056091Y-89929915D01*
X152014610Y-89934000D01*
X151413390Y-89934000D01*
X151371909Y-89929915D01*
X151337931Y-89919607D01*
X151306613Y-89902867D01*
X151279161Y-89880339D01*
X151256633Y-89852887D01*
X151239893Y-89821569D01*
X151229585Y-89787591D01*
X151225500Y-89746110D01*
X151225500Y-89069890D01*
X151229585Y-89028409D01*
X151239893Y-88994431D01*
X151256633Y-88963113D01*
X151279161Y-88935661D01*
X151306613Y-88913133D01*
X151337931Y-88896393D01*
X151371909Y-88886085D01*
X151413390Y-88882000D01*
X152014610Y-88882000D01*
X152056091Y-88886085D01*
X152056091Y-88886085D01*
G37*
G36*
X155700591Y-88923585D02*
X155734569Y-88933893D01*
X155765887Y-88950633D01*
X155793339Y-88973161D01*
X155815867Y-89000613D01*
X155832607Y-89031931D01*
X155842915Y-89065909D01*
X155847000Y-89107390D01*
X155847000Y-89708610D01*
X155842915Y-89750091D01*
X155832607Y-89784069D01*
X155815867Y-89815387D01*
X155793339Y-89842839D01*
X155765887Y-89865367D01*
X155734569Y-89882107D01*
X155700591Y-89892415D01*
X155659110Y-89896500D01*
X154982890Y-89896500D01*
X154941409Y-89892415D01*
X154907431Y-89882107D01*
X154876113Y-89865367D01*
X154848661Y-89842839D01*
X154826133Y-89815387D01*
X154809393Y-89784069D01*
X154799085Y-89750091D01*
X154795000Y-89708610D01*
X154795000Y-89107390D01*
X154799085Y-89065909D01*
X154809393Y-89031931D01*
X154826133Y-89000613D01*
X154848661Y-88973161D01*
X154876113Y-88950633D01*
X154907431Y-88933893D01*
X154941409Y-88923585D01*
X154982890Y-88919500D01*
X155659110Y-88919500D01*
X155700591Y-88923585D01*
X155700591Y-88923585D01*
G37*
G36*
X138616643Y-87370519D02*
X138682827Y-87377037D01*
X138796053Y-87411384D01*
X138852667Y-87428557D01*
X138977495Y-87495280D01*
X139009191Y-87512222D01*
X139044377Y-87541099D01*
X139146386Y-87624814D01*
X139229648Y-87726271D01*
X139258978Y-87762009D01*
X139258979Y-87762011D01*
X139342643Y-87918533D01*
X139342643Y-87918534D01*
X139394163Y-88088373D01*
X139411559Y-88265000D01*
X139394163Y-88441627D01*
X139359816Y-88554853D01*
X139342643Y-88611467D01*
X139275228Y-88737589D01*
X139258978Y-88767991D01*
X139229648Y-88803729D01*
X139146386Y-88905186D01*
X139063557Y-88973161D01*
X139009191Y-89017778D01*
X139009189Y-89017779D01*
X138852667Y-89101443D01*
X138804352Y-89116099D01*
X138682827Y-89152963D01*
X138616643Y-89159481D01*
X138550460Y-89166000D01*
X138461940Y-89166000D01*
X138395757Y-89159481D01*
X138329573Y-89152963D01*
X138208048Y-89116099D01*
X138159733Y-89101443D01*
X138003211Y-89017779D01*
X138003209Y-89017778D01*
X137948843Y-88973161D01*
X137866014Y-88905186D01*
X137782752Y-88803729D01*
X137753422Y-88767991D01*
X137737172Y-88737589D01*
X137669757Y-88611467D01*
X137652584Y-88554853D01*
X137618237Y-88441627D01*
X137600841Y-88265000D01*
X137618237Y-88088373D01*
X137669757Y-87918534D01*
X137669757Y-87918533D01*
X137753421Y-87762011D01*
X137753422Y-87762009D01*
X137782752Y-87726271D01*
X137866014Y-87624814D01*
X137968023Y-87541099D01*
X138003209Y-87512222D01*
X138034905Y-87495280D01*
X138159733Y-87428557D01*
X138216347Y-87411384D01*
X138329573Y-87377037D01*
X138395757Y-87370519D01*
X138461940Y-87364000D01*
X138550460Y-87364000D01*
X138616643Y-87370519D01*
X138616643Y-87370519D01*
G37*
G36*
X158555543Y-87340119D02*
X158621727Y-87346637D01*
X158734953Y-87380984D01*
X158791567Y-87398157D01*
X158894267Y-87453052D01*
X158948091Y-87481822D01*
X158983829Y-87511152D01*
X159085286Y-87594414D01*
X159168548Y-87695871D01*
X159197878Y-87731609D01*
X159197879Y-87731611D01*
X159281543Y-87888133D01*
X159290765Y-87918534D01*
X159333063Y-88057973D01*
X159350459Y-88234600D01*
X159333063Y-88411227D01*
X159323841Y-88441627D01*
X159281543Y-88581067D01*
X159207448Y-88719687D01*
X159197878Y-88737591D01*
X159172931Y-88767989D01*
X159085286Y-88874786D01*
X159011108Y-88935661D01*
X158948091Y-88987378D01*
X158948089Y-88987379D01*
X158791567Y-89071043D01*
X158734953Y-89088216D01*
X158621727Y-89122563D01*
X158555542Y-89129082D01*
X158489360Y-89135600D01*
X158400840Y-89135600D01*
X158334658Y-89129082D01*
X158268473Y-89122563D01*
X158155247Y-89088216D01*
X158098633Y-89071043D01*
X157942111Y-88987379D01*
X157942109Y-88987378D01*
X157879092Y-88935661D01*
X157804914Y-88874786D01*
X157717269Y-88767989D01*
X157692322Y-88737591D01*
X157682752Y-88719687D01*
X157608657Y-88581067D01*
X157566359Y-88441627D01*
X157557137Y-88411227D01*
X157539741Y-88234600D01*
X157557137Y-88057973D01*
X157599435Y-87918534D01*
X157608657Y-87888133D01*
X157692321Y-87731611D01*
X157692322Y-87731609D01*
X157721652Y-87695871D01*
X157804914Y-87594414D01*
X157906371Y-87511152D01*
X157942109Y-87481822D01*
X157995933Y-87453052D01*
X158098633Y-87398157D01*
X158155247Y-87380984D01*
X158268473Y-87346637D01*
X158334657Y-87340119D01*
X158400840Y-87333600D01*
X158489360Y-87333600D01*
X158555543Y-87340119D01*
X158555543Y-87340119D01*
G37*
G36*
X155700591Y-87348585D02*
X155734569Y-87358893D01*
X155765887Y-87375633D01*
X155793339Y-87398161D01*
X155815867Y-87425613D01*
X155832607Y-87456931D01*
X155842915Y-87490909D01*
X155847000Y-87532390D01*
X155847000Y-88133610D01*
X155842915Y-88175091D01*
X155832607Y-88209069D01*
X155815867Y-88240387D01*
X155793339Y-88267839D01*
X155765887Y-88290367D01*
X155734569Y-88307107D01*
X155700591Y-88317415D01*
X155659110Y-88321500D01*
X154982890Y-88321500D01*
X154941409Y-88317415D01*
X154907431Y-88307107D01*
X154876113Y-88290367D01*
X154848661Y-88267839D01*
X154826133Y-88240387D01*
X154809393Y-88209069D01*
X154799085Y-88175091D01*
X154795000Y-88133610D01*
X154795000Y-87532390D01*
X154799085Y-87490909D01*
X154809393Y-87456931D01*
X154826133Y-87425613D01*
X154848661Y-87398161D01*
X154876113Y-87375633D01*
X154907431Y-87358893D01*
X154941409Y-87348585D01*
X154982890Y-87344500D01*
X155659110Y-87344500D01*
X155700591Y-87348585D01*
X155700591Y-87348585D01*
G37*
G36*
X146094552Y-85152331D02*
X146176625Y-85186327D01*
X146176626Y-85186328D01*
X146176629Y-85186329D01*
X146250496Y-85235686D01*
X146250500Y-85235689D01*
X146313311Y-85298500D01*
X146313313Y-85298503D01*
X146313314Y-85298504D01*
X146362671Y-85372371D01*
X146362672Y-85372374D01*
X146362673Y-85372375D01*
X146396669Y-85454448D01*
X146414000Y-85541579D01*
X146414000Y-85630421D01*
X146396669Y-85717552D01*
X146368454Y-85785668D01*
X146362671Y-85799629D01*
X146313314Y-85873496D01*
X146313311Y-85873500D01*
X146250500Y-85936311D01*
X146250497Y-85936313D01*
X146250496Y-85936314D01*
X146176629Y-85985671D01*
X146176626Y-85985672D01*
X146176625Y-85985673D01*
X146094552Y-86019669D01*
X146007421Y-86037000D01*
X145918579Y-86037000D01*
X145831448Y-86019669D01*
X145749375Y-85985673D01*
X145749374Y-85985672D01*
X145749371Y-85985671D01*
X145675504Y-85936314D01*
X145675503Y-85936313D01*
X145675500Y-85936311D01*
X145612686Y-85873497D01*
X145612493Y-85873208D01*
X145596948Y-85854266D01*
X145578006Y-85838721D01*
X145556395Y-85827170D01*
X145532946Y-85820057D01*
X145508559Y-85817655D01*
X145484173Y-85820057D01*
X145460724Y-85827170D01*
X145439113Y-85838722D01*
X145420171Y-85854267D01*
X145404626Y-85873209D01*
X145393075Y-85894820D01*
X145385962Y-85918269D01*
X145384162Y-85954905D01*
X145389000Y-86004027D01*
X145389000Y-87267973D01*
X145379580Y-87363618D01*
X145369101Y-87398161D01*
X145342355Y-87486333D01*
X145288819Y-87586491D01*
X145281905Y-87599426D01*
X145200553Y-87698553D01*
X145101425Y-87779905D01*
X145048782Y-87808043D01*
X144988332Y-87840355D01*
X144947426Y-87852763D01*
X144865617Y-87877580D01*
X144738000Y-87890149D01*
X144610382Y-87877580D01*
X144528573Y-87852763D01*
X144487667Y-87840355D01*
X144374576Y-87779906D01*
X144374574Y-87779905D01*
X144275447Y-87698553D01*
X144194095Y-87599425D01*
X144138428Y-87495280D01*
X144133645Y-87486332D01*
X144121237Y-87445426D01*
X144096420Y-87363617D01*
X144087000Y-87267972D01*
X144087001Y-86004027D01*
X144096421Y-85908382D01*
X144133646Y-85785668D01*
X144133646Y-85785667D01*
X144194095Y-85672576D01*
X144194096Y-85672574D01*
X144275448Y-85573447D01*
X144374575Y-85492095D01*
X144412073Y-85472052D01*
X144487668Y-85431645D01*
X144535416Y-85417161D01*
X144610383Y-85394420D01*
X144738000Y-85381851D01*
X144865618Y-85394420D01*
X144940585Y-85417161D01*
X144988333Y-85431645D01*
X145063928Y-85472052D01*
X145101426Y-85492095D01*
X145200553Y-85573447D01*
X145281905Y-85672574D01*
X145281906Y-85672576D01*
X145288835Y-85681019D01*
X145290375Y-85683323D01*
X145307702Y-85700650D01*
X145328077Y-85714264D01*
X145350716Y-85723641D01*
X145374749Y-85728421D01*
X145399253Y-85728421D01*
X145423287Y-85723640D01*
X145445926Y-85714263D01*
X145466300Y-85700648D01*
X145483627Y-85683321D01*
X145497241Y-85662946D01*
X145506618Y-85640307D01*
X145512000Y-85604023D01*
X145512000Y-85541579D01*
X145529331Y-85454448D01*
X145563327Y-85372375D01*
X145563328Y-85372374D01*
X145563329Y-85372371D01*
X145612686Y-85298504D01*
X145612687Y-85298503D01*
X145612689Y-85298500D01*
X145675500Y-85235689D01*
X145675504Y-85235686D01*
X145749371Y-85186329D01*
X145749374Y-85186328D01*
X145749375Y-85186327D01*
X145831448Y-85152331D01*
X145918579Y-85135000D01*
X146007421Y-85135000D01*
X146094552Y-85152331D01*
X146094552Y-85152331D01*
G37*
G36*
X151094552Y-85152331D02*
X151176625Y-85186327D01*
X151176626Y-85186328D01*
X151176629Y-85186329D01*
X151250496Y-85235686D01*
X151250500Y-85235689D01*
X151313311Y-85298500D01*
X151313313Y-85298503D01*
X151313314Y-85298504D01*
X151362671Y-85372371D01*
X151362672Y-85372374D01*
X151362673Y-85372375D01*
X151396669Y-85454448D01*
X151414000Y-85541579D01*
X151414000Y-85604025D01*
X151416402Y-85628411D01*
X151423515Y-85651860D01*
X151435066Y-85673471D01*
X151450612Y-85692413D01*
X151469554Y-85707959D01*
X151491165Y-85719510D01*
X151514614Y-85726623D01*
X151539000Y-85729025D01*
X151563386Y-85726623D01*
X151586835Y-85719510D01*
X151608446Y-85707959D01*
X151627388Y-85692413D01*
X151636030Y-85681883D01*
X151636285Y-85682092D01*
X151725448Y-85573447D01*
X151824575Y-85492095D01*
X151862073Y-85472052D01*
X151937668Y-85431645D01*
X151985416Y-85417161D01*
X152060383Y-85394420D01*
X152188000Y-85381851D01*
X152315618Y-85394420D01*
X152390585Y-85417161D01*
X152438333Y-85431645D01*
X152513928Y-85472052D01*
X152551426Y-85492095D01*
X152650553Y-85573447D01*
X152731905Y-85672574D01*
X152731906Y-85672576D01*
X152792355Y-85785667D01*
X152792355Y-85785668D01*
X152829580Y-85908382D01*
X152839000Y-86004027D01*
X152839000Y-87267973D01*
X152829580Y-87363618D01*
X152819101Y-87398161D01*
X152792355Y-87486333D01*
X152738819Y-87586491D01*
X152731905Y-87599426D01*
X152650553Y-87698553D01*
X152551425Y-87779905D01*
X152498782Y-87808043D01*
X152438332Y-87840355D01*
X152397426Y-87852763D01*
X152315617Y-87877580D01*
X152188000Y-87890149D01*
X152060382Y-87877580D01*
X151978573Y-87852763D01*
X151937667Y-87840355D01*
X151824576Y-87779906D01*
X151824574Y-87779905D01*
X151725447Y-87698553D01*
X151644095Y-87599425D01*
X151588428Y-87495280D01*
X151583645Y-87486332D01*
X151571237Y-87445426D01*
X151546420Y-87363617D01*
X151537000Y-87267972D01*
X151537001Y-86004027D01*
X151541839Y-85954905D01*
X151541839Y-85930401D01*
X151537059Y-85906367D01*
X151527681Y-85883728D01*
X151514067Y-85863354D01*
X151496740Y-85846027D01*
X151476366Y-85832413D01*
X151453727Y-85823035D01*
X151429693Y-85818255D01*
X151405189Y-85818255D01*
X151381155Y-85823035D01*
X151358516Y-85832413D01*
X151338142Y-85846027D01*
X151320815Y-85863354D01*
X151313510Y-85873202D01*
X151313314Y-85873496D01*
X151313311Y-85873500D01*
X151250500Y-85936311D01*
X151250497Y-85936313D01*
X151250496Y-85936314D01*
X151176629Y-85985671D01*
X151176626Y-85985672D01*
X151176625Y-85985673D01*
X151094552Y-86019669D01*
X151007421Y-86037000D01*
X150918579Y-86037000D01*
X150831448Y-86019669D01*
X150749375Y-85985673D01*
X150749374Y-85985672D01*
X150749371Y-85985671D01*
X150675504Y-85936314D01*
X150675503Y-85936313D01*
X150675500Y-85936311D01*
X150612689Y-85873500D01*
X150612686Y-85873496D01*
X150563329Y-85799629D01*
X150557546Y-85785668D01*
X150529331Y-85717552D01*
X150512000Y-85630421D01*
X150512000Y-85541579D01*
X150529331Y-85454448D01*
X150563327Y-85372375D01*
X150563328Y-85372374D01*
X150563329Y-85372371D01*
X150612686Y-85298504D01*
X150612687Y-85298503D01*
X150612689Y-85298500D01*
X150675500Y-85235689D01*
X150675504Y-85235686D01*
X150749371Y-85186329D01*
X150749374Y-85186328D01*
X150749375Y-85186327D01*
X150831448Y-85152331D01*
X150918579Y-85135000D01*
X151007421Y-85135000D01*
X151094552Y-85152331D01*
X151094552Y-85152331D01*
G37*
G36*
X150039000Y-87337000D02*
X146887000Y-87337000D01*
X146887000Y-85935000D01*
X150039000Y-85935000D01*
X150039000Y-87337000D01*
X150039000Y-87337000D01*
G37*
G36*
X139407200Y-86626000D02*
X137605200Y-86626000D01*
X137605200Y-84824000D01*
X139407200Y-84824000D01*
X139407200Y-86626000D01*
X139407200Y-86626000D01*
G37*
G36*
X159346100Y-86595600D02*
X157544100Y-86595600D01*
X157544100Y-84793600D01*
X159346100Y-84793600D01*
X159346100Y-86595600D01*
X159346100Y-86595600D01*
G37*
G36*
X155700591Y-85367585D02*
X155734569Y-85377893D01*
X155765887Y-85394633D01*
X155793339Y-85417161D01*
X155815867Y-85444613D01*
X155832607Y-85475931D01*
X155842915Y-85509909D01*
X155847000Y-85551390D01*
X155847000Y-86152610D01*
X155842915Y-86194091D01*
X155832607Y-86228069D01*
X155815867Y-86259387D01*
X155793339Y-86286839D01*
X155765887Y-86309367D01*
X155734569Y-86326107D01*
X155700591Y-86336415D01*
X155659110Y-86340500D01*
X154982890Y-86340500D01*
X154941409Y-86336415D01*
X154907431Y-86326107D01*
X154876113Y-86309367D01*
X154848661Y-86286839D01*
X154826133Y-86259387D01*
X154809393Y-86228069D01*
X154799085Y-86194091D01*
X154795000Y-86152610D01*
X154795000Y-85551390D01*
X154799085Y-85509909D01*
X154809393Y-85475931D01*
X154826133Y-85444613D01*
X154848661Y-85417161D01*
X154876113Y-85394633D01*
X154907431Y-85377893D01*
X154941409Y-85367585D01*
X154982890Y-85363500D01*
X155659110Y-85363500D01*
X155700591Y-85367585D01*
X155700591Y-85367585D01*
G37*
G36*
X142118600Y-86175800D02*
X141115400Y-86175800D01*
X141115400Y-85172600D01*
X142118600Y-85172600D01*
X142118600Y-86175800D01*
X142118600Y-86175800D01*
G37*
G36*
X143618600Y-86175800D02*
X142615400Y-86175800D01*
X142615400Y-85172600D01*
X143618600Y-85172600D01*
X143618600Y-86175800D01*
X143618600Y-86175800D01*
G37*
G36*
X155700591Y-83792585D02*
X155734569Y-83802893D01*
X155765887Y-83819633D01*
X155793339Y-83842161D01*
X155815867Y-83869613D01*
X155832607Y-83900931D01*
X155842915Y-83934909D01*
X155847000Y-83976390D01*
X155847000Y-84577610D01*
X155842915Y-84619091D01*
X155832607Y-84653069D01*
X155815867Y-84684387D01*
X155793339Y-84711839D01*
X155765887Y-84734367D01*
X155734569Y-84751107D01*
X155700591Y-84761415D01*
X155659110Y-84765500D01*
X154982890Y-84765500D01*
X154941409Y-84761415D01*
X154907431Y-84751107D01*
X154876113Y-84734367D01*
X154848661Y-84711839D01*
X154826133Y-84684387D01*
X154809393Y-84653069D01*
X154799085Y-84619091D01*
X154795000Y-84577610D01*
X154795000Y-83976390D01*
X154799085Y-83934909D01*
X154809393Y-83900931D01*
X154826133Y-83869613D01*
X154848661Y-83842161D01*
X154876113Y-83819633D01*
X154907431Y-83802893D01*
X154941409Y-83792585D01*
X154982890Y-83788500D01*
X155659110Y-83788500D01*
X155700591Y-83792585D01*
X155700591Y-83792585D01*
G37*
G36*
X141984591Y-83411785D02*
X142018569Y-83422093D01*
X142049887Y-83438833D01*
X142077339Y-83461361D01*
X142099867Y-83488813D01*
X142116607Y-83520131D01*
X142126915Y-83554109D01*
X142131000Y-83595590D01*
X142131000Y-84196810D01*
X142126915Y-84238291D01*
X142116607Y-84272269D01*
X142099867Y-84303587D01*
X142077339Y-84331039D01*
X142049887Y-84353567D01*
X142018569Y-84370307D01*
X141984591Y-84380615D01*
X141943110Y-84384700D01*
X141266890Y-84384700D01*
X141225409Y-84380615D01*
X141191431Y-84370307D01*
X141160113Y-84353567D01*
X141132661Y-84331039D01*
X141110133Y-84303587D01*
X141093393Y-84272269D01*
X141083085Y-84238291D01*
X141079000Y-84196810D01*
X141079000Y-83595590D01*
X141083085Y-83554109D01*
X141093393Y-83520131D01*
X141110133Y-83488813D01*
X141132661Y-83461361D01*
X141160113Y-83438833D01*
X141191431Y-83422093D01*
X141225409Y-83411785D01*
X141266890Y-83407700D01*
X141943110Y-83407700D01*
X141984591Y-83411785D01*
X141984591Y-83411785D01*
G37*
G36*
X152436213Y-81892249D02*
X152530652Y-81920897D01*
X152617687Y-81967418D01*
X152693975Y-82030025D01*
X152756582Y-82106313D01*
X152803103Y-82193348D01*
X152831751Y-82287787D01*
X152839000Y-82361388D01*
X152839000Y-83310612D01*
X152831751Y-83384213D01*
X152803103Y-83478652D01*
X152756582Y-83565687D01*
X152693975Y-83641975D01*
X152617687Y-83704582D01*
X152530651Y-83751103D01*
X152436212Y-83779751D01*
X152338000Y-83789424D01*
X152239787Y-83779751D01*
X152145348Y-83751103D01*
X152058313Y-83704582D01*
X151982025Y-83641975D01*
X151919418Y-83565687D01*
X151872897Y-83478651D01*
X151844249Y-83384212D01*
X151837000Y-83310611D01*
X151837000Y-82361400D01*
X151837001Y-82361388D01*
X151844250Y-82287787D01*
X151872898Y-82193348D01*
X151919419Y-82106313D01*
X151982026Y-82030025D01*
X152058314Y-81967418D01*
X152145349Y-81920897D01*
X152239788Y-81892249D01*
X152338000Y-81882576D01*
X152436213Y-81892249D01*
X152436213Y-81892249D01*
G37*
G36*
X144686213Y-81892249D02*
X144780652Y-81920897D01*
X144867687Y-81967418D01*
X144943975Y-82030025D01*
X145006582Y-82106313D01*
X145053103Y-82193348D01*
X145081751Y-82287787D01*
X145089000Y-82361388D01*
X145089000Y-83310612D01*
X145081751Y-83384213D01*
X145053103Y-83478652D01*
X145006582Y-83565687D01*
X144943975Y-83641975D01*
X144867687Y-83704582D01*
X144780651Y-83751103D01*
X144686212Y-83779751D01*
X144588000Y-83789424D01*
X144489787Y-83779751D01*
X144395348Y-83751103D01*
X144308313Y-83704582D01*
X144232025Y-83641975D01*
X144169418Y-83565687D01*
X144122897Y-83478651D01*
X144094249Y-83384212D01*
X144087000Y-83310611D01*
X144087000Y-82361400D01*
X144087001Y-82361388D01*
X144094250Y-82287787D01*
X144122898Y-82193348D01*
X144169419Y-82106313D01*
X144232026Y-82030025D01*
X144308314Y-81967418D01*
X144395349Y-81920897D01*
X144489788Y-81892249D01*
X144588000Y-81882576D01*
X144686213Y-81892249D01*
X144686213Y-81892249D01*
G37*
G36*
X141984591Y-81836785D02*
X142018569Y-81847093D01*
X142049887Y-81863833D01*
X142077339Y-81886361D01*
X142099867Y-81913813D01*
X142116607Y-81945131D01*
X142126915Y-81979109D01*
X142131000Y-82020590D01*
X142131000Y-82621810D01*
X142126915Y-82663291D01*
X142116607Y-82697269D01*
X142099867Y-82728587D01*
X142077339Y-82756039D01*
X142049887Y-82778567D01*
X142018569Y-82795307D01*
X141984591Y-82805615D01*
X141943110Y-82809700D01*
X141266890Y-82809700D01*
X141225409Y-82805615D01*
X141191431Y-82795307D01*
X141160113Y-82778567D01*
X141132661Y-82756039D01*
X141110133Y-82728587D01*
X141093393Y-82697269D01*
X141083085Y-82663291D01*
X141079000Y-82621810D01*
X141079000Y-82020590D01*
X141083085Y-81979109D01*
X141093393Y-81945131D01*
X141110133Y-81913813D01*
X141132661Y-81886361D01*
X141160113Y-81863833D01*
X141191431Y-81847093D01*
X141225409Y-81836785D01*
X141266890Y-81832700D01*
X141943110Y-81832700D01*
X141984591Y-81836785D01*
X141984591Y-81836785D01*
G37*
M02*
