M48
;DRILL file {KiCad (5.0.0-3-g5ebb6b6)} date Saturday, March 21, 2020 at 12:47:14 PM
;FORMAT={3:3/ absolute / metric / suppress leading zeros}
FMAT,2
METRIC,TZ
T1C0.350
T2C0.400
T3C0.550
T4C0.850
T5C1.000
T6C0.800
%
G90
G05
M71
T1
X145161Y-110109
X145720Y-108026
X145923Y-106401
X146583Y-107620
X148301Y-107856
X148577Y-121927
X150920Y-110678
X151563Y-110035
X151603Y-108618
X152520Y-112786
X152908Y-110687
X153177Y-112156
T2
X139757Y-94687
X139827Y-132715
X140843Y-122534
X140970Y-88011
X141973Y-105804
X142113Y-129413
X142367Y-87630
X142494Y-113030
X142494Y-114935
X142683Y-110432
X143075Y-93091
X143129Y-123571
X143637Y-102235
X143755Y-117994
X143891Y-121793
X144136Y-100134
X144526Y-120777
X144602Y-101371
X144602Y-105435
X145669Y-104902
X146050Y-120269
X146431Y-88011
X146583Y-115193
X146736Y-105842
X147220Y-99289
X147853Y-95885
X147904Y-98171
X147955Y-111785
X148082Y-89154
X148107Y-113716
X148323Y-115193
X148342Y-99219
X148412Y-127787
X148514Y-126162
X149022Y-88671
X149123Y-117119
X149543Y-108436
X150101Y-121031
X150368Y-105283
X150381Y-94742
X150800Y-88367
X150876Y-92964
X151409Y-129616
X152019Y-120650
X152104Y-102794
X152400Y-119624
X152571Y-109093
X153670Y-111252
X153797Y-128524
X154508Y-94412
X155473Y-104165
X155931Y-94158
X156337Y-91313
X157963Y-82931
T5
X154813Y-121183
X154813Y-123723
X138557Y-85725
X138557Y-88265
X138557Y-90805
X138557Y-93345
X138557Y-95885
X138557Y-98425
X138557Y-100965
X138557Y-103505
X138557Y-106045
X138557Y-108585
X138557Y-111125
X138557Y-113665
X138557Y-116205
X138557Y-118745
X138557Y-121285
X138557Y-123825
X138557Y-126365
X138557Y-128905
X138557Y-131445
X138557Y-133985
X142113Y-131445
X142113Y-133985
X144653Y-131445
X144653Y-133985
X147193Y-131445
X147193Y-133985
X149733Y-131445
X149733Y-133985
X152273Y-131445
X152273Y-133985
X154813Y-131445
X154813Y-133985
X158445Y-85695
X158445Y-88235
X158445Y-90775
X158445Y-93315
X158445Y-95855
X158445Y-98395
X158445Y-100935
X158445Y-103475
X158445Y-106015
X158445Y-108555
X158445Y-111095
X158445Y-113635
X158445Y-116175
X158445Y-118715
X158445Y-121255
X158445Y-123795
X158445Y-126335
X158445Y-128875
X158445Y-131415
X158445Y-133955
T6
X145963Y-85586
X150963Y-85586
T3
X144588Y-83161G85X144588Y-82511
G05
X152338Y-83161G85X152338Y-82511
G05
T4
X144738Y-86911G85X144738Y-86361
G05
X152188Y-86911G85X152188Y-86361
G05
T0
M30
